# This file uses centimeters as units for non-parametric coordinates.

mtllib holes_test2.mtl
g default
v 25.640450 -1.851116 100.894905
v 25.640450 -1.851116 102.009781
v 25.640450 -1.648884 102.009781
v 25.640450 -1.648884 100.894905
v 26.755323 -1.648884 100.894905
v 26.755323 -1.851116 100.894905
v 26.755323 -1.851116 101.059784
v 26.461758 -1.851116 101.106277
v 26.196928 -1.851116 101.241211
v 25.986757 -1.851116 101.451385
v 25.851820 -1.851116 101.716217
v 25.805323 -1.851116 102.009781
v 25.640450 -1.851116 103.124657
v 25.640450 -1.648884 103.124657
v 25.805323 -1.648884 102.009781
v 25.851820 -1.648884 101.716217
v 25.986757 -1.648884 101.451385
v 26.196928 -1.648884 101.241211
v 26.461758 -1.648884 101.106277
v 26.755323 -1.648884 101.059784
v 27.870197 -1.648884 100.894905
v 27.870197 -1.851116 100.894905
v 25.851820 -1.851116 102.303345
v 25.986757 -1.851116 102.568176
v 26.196928 -1.851116 102.778351
v 26.461758 -1.851116 102.913284
v 26.755323 -1.851116 102.959778
v 26.755323 -1.851116 103.124657
v 27.870197 -1.851116 102.009781
v 27.705324 -1.851116 102.009781
v 27.658827 -1.851116 101.716217
v 27.523890 -1.851116 101.451385
v 27.313721 -1.851116 101.241211
v 27.048889 -1.851116 101.106277
v 26.755323 -1.648884 103.124657
v 26.755323 -1.648884 102.959778
v 26.461758 -1.648884 102.913284
v 26.196928 -1.648884 102.778351
v 25.986757 -1.648884 102.568176
v 25.851820 -1.648884 102.303345
v 27.048889 -1.648884 101.106277
v 27.313721 -1.648884 101.241211
v 27.523890 -1.648884 101.451385
v 27.658827 -1.648884 101.716217
v 27.705324 -1.648884 102.009781
v 27.870197 -1.648884 102.009781
v 27.048889 -1.851116 102.913284
v 27.313719 -1.851116 102.778351
v 27.523890 -1.851116 102.568176
v 27.658827 -1.851116 102.303345
v 27.870197 -1.851116 103.124657
v 27.870197 -1.648884 103.124657
v 27.658827 -1.648884 102.303345
v 27.523890 -1.648884 102.568176
v 27.313719 -1.648884 102.778351
v 27.048889 -1.648884 102.913284
vt 0.375000 0.000000
vt 0.500000 0.000000
vt 0.500000 0.250000
vt 0.375000 0.250000
vt 0.250000 0.250000
vt 0.250000 0.000000
vt 0.341667 0.137501
vt 0.363505 0.117999
vt 0.395701 0.114646
vt 0.430730 0.114646
vt 0.465161 0.117999
vt 0.500000 0.137500
vt 0.625000 0.000000
vt 0.625000 0.250000
vt 0.500000 0.250000
vt 0.465161 0.250000
vt 0.430730 0.250000
vt 0.395701 0.250000
vt 0.363505 0.250000
vt 0.341667 0.250000
vt 0.125000 0.250000
vt 0.125000 0.000000
vt 0.534839 0.117999
vt 0.569270 0.114646
vt 0.604299 0.114646
vt 0.636495 0.117999
vt 0.658333 0.137501
vt 0.750000 0.000000
vt 0.375000 0.750000
vt 0.500000 0.750000
vt 0.500000 0.612500
vt 0.465161 0.569751
vt 0.430730 0.498929
vt 0.395701 0.393844
vt 0.363505 0.264782
vt 0.750000 0.250000
vt 0.658333 0.250000
vt 0.636495 0.250000
vt 0.604299 0.250000
vt 0.569270 0.250000
vt 0.534839 0.250000
vt 0.335327 0.270750
vt 0.348109 0.295475
vt 0.383139 0.330503
vt 0.436984 0.372407
vt 0.500000 0.408333
vt 0.500000 0.500000
vt 0.375000 0.500000
vt 0.664673 0.180250
vt 0.651891 0.251069
vt 0.616861 0.356156
vt 0.563016 0.485219
vt 0.875000 0.000000
vt 0.875000 0.250000
vt 0.625000 0.500000
vt 0.534839 0.400584
vt 0.569270 0.378094
vt 0.604299 0.343066
vt 0.636495 0.298928
vt 0.625000 0.750000
vt 0.375000 0.462082
vt 0.375000 0.500000
vt 0.387500 0.500000
vt 0.387500 0.462082
vt 0.400000 0.500000
vt 0.400000 0.462082
vt 0.612500 0.462082
vt 0.612500 0.500000
vt 0.625000 0.500000
vt 0.625000 0.462082
vt 0.412500 0.500000
vt 0.412500 0.462082
vt 0.600000 0.462082
vt 0.600000 0.500000
vt 0.425000 0.462082
vt 0.425000 0.500000
vt 0.587500 0.462082
vt 0.587500 0.500000
vt 0.437500 0.500000
vt 0.437500 0.462082
vt 0.575000 0.462082
vt 0.575000 0.500000
vt 0.450000 0.500000
vt 0.450000 0.462082
vt 0.562500 0.462082
vt 0.562500 0.500000
vt 0.462500 0.500000
vt 0.462500 0.462082
vt 0.550000 0.462082
vt 0.550000 0.500000
vt 0.475000 0.500000
vt 0.475000 0.462082
vt 0.537500 0.462082
vt 0.537500 0.500000
vt 0.487500 0.500000
vt 0.487500 0.462082
vt 0.525000 0.462082
vt 0.525000 0.500000
vt 0.500000 0.500000
vt 0.500000 0.462082
vt 0.512500 0.462082
vt 0.512500 0.500000
vn -1.000000 0.000000 0.000000
vn -1.000000 0.000000 0.000000
vn -1.000000 0.000000 0.000000
vn -1.000000 0.000000 0.000000
vn 0.000000 0.000000 -1.000000
vn 0.000000 0.000000 -1.000000
vn 0.000000 0.000000 -1.000000
vn 0.000000 0.000000 -1.000000
vn -1.000000 0.000000 0.000000
vn -1.000000 0.000000 0.000000
vn 0.000000 0.000000 -1.000000
vn 0.000000 0.000000 -1.000000
vn 0.000000 0.000000 1.000000
vn 0.000000 0.000000 1.000000
vn 0.000000 0.000000 1.000000
vn 0.000000 0.000000 1.000000
vn 1.000000 0.000000 0.000000
vn 1.000000 0.000000 0.000000
vn 1.000000 0.000000 0.000000
vn 1.000000 0.000000 0.000000
vn 0.000000 0.000000 1.000000
vn 0.000000 0.000000 1.000000
vn 1.000000 0.000000 0.000000
vn 1.000000 0.000000 0.000000
vn -0.951057 0.000000 0.309016
vn -0.951057 0.000000 0.309016
vn -0.809023 0.000000 0.587778
vn -0.809023 0.000000 0.587778
vn -0.587785 0.000000 0.809017
vn -0.587785 0.000000 0.809017
vn -1.000000 0.000000 0.000000
vn -1.000000 0.000000 0.000000
vn -0.309004 0.000000 0.951061
vn -0.309004 0.000000 0.951061
vn -0.951056 0.000000 -0.309019
vn -0.951056 0.000000 -0.309019
vn 0.000000 0.000000 1.000000
vn 0.000000 0.000000 1.000000
vn -0.809018 0.000000 -0.587783
vn -0.809018 0.000000 -0.587783
vn 0.309005 0.000000 0.951060
vn 0.309005 0.000000 0.951060
vn -0.587785 0.000000 -0.809017
vn -0.587785 0.000000 -0.809017
vn 0.587785 0.000000 0.809017
vn 0.587785 0.000000 0.809017
vn -0.309012 0.000000 -0.951058
vn -0.309012 0.000000 -0.951058
vn 0.809021 0.000000 0.587780
vn 0.809021 0.000000 0.587780
vn 0.000000 0.000000 -1.000000
vn 0.000000 0.000000 -1.000000
vn 0.951057 0.000000 0.309016
vn 0.951057 0.000000 0.309016
vn 0.309012 0.000000 -0.951058
vn 0.309012 0.000000 -0.951058
vn 1.000000 0.000000 0.000000
vn 1.000000 0.000000 0.000000
vn 0.587785 0.000000 -0.809017
vn 0.587785 0.000000 -0.809017
vn 0.951056 0.000000 -0.309019
vn 0.951056 0.000000 -0.309019
vn 0.809018 0.000000 -0.587783
vn 0.809018 0.000000 -0.587783
vn 0.000000 -1.000000 0.000000
vn 0.000000 -1.000000 0.000000
vn 0.000000 -1.000000 -0.000000
vn 0.000000 -1.000000 0.000000
vn 0.000000 -1.000000 0.000000
vn 0.000000 -1.000000 -0.000000
vn 0.000000 -1.000000 0.000000
vn 0.000000 -1.000000 -0.000000
vn 0.000000 -1.000000 0.000000
vn 0.000000 1.000000 0.000000
vn 0.000000 1.000000 0.000000
vn 0.000000 1.000000 -0.000000
vn 0.000000 1.000000 -0.000000
vn 0.000000 1.000000 -0.000000
vn 0.000000 1.000000 0.000000
vn 0.000000 1.000000 0.000000
vn 0.000000 1.000000 -0.000000
vn 0.000000 1.000000 -0.000000
vn 0.000000 -1.000000 -0.000000
vn 0.000000 -1.000000 -0.000000
vn 0.000000 -1.000000 0.000000
vn 0.000000 -1.000000 -0.000000
vn 0.000000 -1.000000 0.000000
vn 0.000000 -1.000000 0.000000
vn 0.000000 -1.000000 0.000001
vn 0.000000 -1.000000 0.000000
vn 0.000000 -1.000000 0.000000
vn 0.000000 -1.000000 -0.000000
vn 0.000000 -1.000000 -0.000001
vn 0.000000 -1.000000 0.000000
vn 0.000000 -1.000000 0.000000
vn 0.000000 -1.000000 0.000000
vn 0.000000 -1.000000 0.000000
vn 0.000000 -1.000000 0.000000
vn 0.000000 1.000000 0.000000
vn 0.000000 1.000000 0.000000
vn 0.000000 1.000000 0.000000
vn 0.000000 1.000000 0.000000
vn 0.000000 1.000000 0.000000
vn 0.000000 1.000000 0.000000
vn 0.000000 1.000000 0.000000
vn 0.000000 1.000000 0.000000
vn 0.000000 1.000000 0.000000
vn 0.000000 1.000000 0.000000
vn 0.000000 1.000000 0.000000
vn 0.000000 1.000000 0.000000
vn 0.000000 1.000000 0.000000
vn 0.000000 1.000000 0.000000
vn 0.000000 1.000000 0.000000
vn 0.000000 1.000000 0.000000
vn 0.000000 1.000000 0.000000
vn 0.000000 1.000000 0.000000
vn 0.000000 -1.000000 -0.000000
vn 0.000000 -1.000000 -0.000000
vn 0.000000 -1.000000 0.000000
vn 0.000000 -1.000000 -0.000000
vn 0.000000 -1.000000 0.000000
vn 0.000000 -1.000000 0.000000
vn 0.000000 -1.000000 -0.000000
vn 0.000000 1.000000 -0.000000
vn 0.000000 1.000000 0.000000
vn 0.000000 1.000000 -0.000000
vn 0.000000 1.000000 0.000000
vn 0.000000 1.000000 0.000000
vn 0.000000 1.000000 0.000000
vn 0.000000 1.000000 0.000000
s 1
g polySurface40
usemtl initialShadingGroup
f 1/1/1 2/2/2 3/3/3 4/4/4
s 2
f 1/1/5 4/4/6 5/5/7 6/6/8
s 1
f 2/2/2 13/13/9 14/14/10 3/3/3
s 2
f 5/5/7 21/21/11 22/22/12 6/6/8
s 3
f 13/13/13 28/28/14 35/36/15 14/14/16
s 4
f 21/48/17 46/47/18 29/30/19 22/29/20
s 3
f 28/28/14 51/53/21 52/54/22 35/36/15
s 4
f 29/30/19 46/47/18 52/55/23 51/60/24
s 5
f 31/61/25 44/62/26 43/63/27 32/64/28
f 32/64/28 43/63/27 42/65/29 33/66/30
f 30/67/31 45/68/32 44/69/26 31/70/25
f 33/66/30 42/65/29 41/71/33 34/72/34
f 30/67/31 50/73/35 53/74/36 45/68/32
f 7/75/37 34/72/34 41/71/33 20/76/38
f 49/77/39 54/78/40 53/74/36 50/73/35
f 7/75/37 20/76/38 19/79/41 8/80/42
f 48/81/43 55/82/44 54/78/40 49/77/39
f 8/80/42 19/79/41 18/83/45 9/84/46
f 47/85/47 56/86/48 55/82/44 48/81/43
f 9/84/46 18/83/45 17/87/49 10/88/50
f 27/89/51 36/90/52 56/86/48 47/85/47
f 10/88/50 17/87/49 16/91/53 11/92/54
f 26/93/55 37/94/56 36/90/52 27/89/51
f 11/92/54 16/91/53 15/95/57 12/96/58
f 25/97/59 38/98/60 37/94/56 26/93/55
f 12/96/58 15/95/57 40/99/61 23/100/62
f 24/101/63 39/102/64 38/98/60 25/97/59
f 23/100/62 40/99/61 39/102/64 24/101/63
s 6
f 6/6/65 7/7/66 1/1/67
f 7/7/66 8/8/68 1/1/67
f 8/8/68 9/9/69 1/1/67
f 9/9/69 10/10/70 1/1/67
f 2/2/71 1/1/67 12/12/72
f 12/12/72 1/1/67 11/11/73
f 1/1/67 10/10/70 11/11/73
s 8
f 3/3/74 15/15/75 4/4/76
f 15/15/75 16/16/77 4/4/76
f 16/16/77 17/17/78 4/4/76
f 17/17/78 18/18/79 4/4/76
f 5/5/80 4/4/76 20/20/81
f 20/20/81 4/4/76 19/19/82
f 18/18/79 19/19/82 4/4/76
s 6
f 2/2/71 12/12/72 13/13/83
f 12/12/72 23/23/84 13/13/83
f 23/23/84 24/24/85 13/13/83
f 24/24/85 25/25/86 13/13/83
f 28/28/87 13/13/83 27/27/88
f 27/27/88 13/13/83 26/26/89
f 25/25/86 26/26/89 13/13/83
s 11
f 6/6/90 22/29/91 7/7/92
f 7/7/92 22/29/91 34/35/93
f 34/35/93 22/29/91 33/34/94
f 33/34/94 22/29/91 32/33/95
f 29/30/96 30/31/97 22/29/91
f 30/31/97 31/32/98 22/29/91
f 22/29/91 31/32/98 32/33/95
s 13
f 3/3/99 14/14/100 15/15/101
f 15/15/101 14/14/100 40/41/102
f 40/41/102 14/14/100 39/40/103
f 39/40/103 14/14/100 38/39/104
f 35/36/105 36/37/106 14/14/100
f 36/37/106 37/38/107 14/14/100
f 14/14/100 37/38/107 38/39/104
s 15
f 5/5/108 20/20/109 21/21/110
f 20/20/109 41/42/111 21/21/110
f 41/42/111 42/43/112 21/21/110
f 42/43/112 43/44/113 21/21/110
f 46/47/114 21/21/110 45/46/115
f 45/46/115 21/21/110 44/45/116
f 43/44/113 44/45/116 21/21/110
s 11
f 29/30/96 51/53/117 30/31/97
f 30/31/97 51/53/117 50/52/118
f 50/52/118 51/53/117 49/51/119
f 49/51/119 51/53/117 48/50/120
f 28/28/121 27/27/122 51/53/117
f 27/27/122 47/49/123 51/53/117
f 47/49/123 48/50/120 51/53/117
s 13
f 35/36/105 52/55/124 36/37/106
f 36/37/106 52/55/124 56/59/125
f 56/59/125 52/55/124 55/58/126
f 55/58/126 52/55/124 54/57/127
f 46/47/128 45/46/129 52/55/124
f 45/46/129 53/56/130 52/55/124
f 52/55/124 53/56/130 54/57/127
g default
v 26.019848 -1.851116 104.774307
v 26.019848 -1.851116 105.509781
v 26.019850 -1.648884 105.508018
v 26.019848 -1.648884 104.774307
v 26.755323 -1.648884 104.774307
v 26.755323 -1.851116 104.774307
v 26.755323 -1.851116 104.907692
v 26.569914 -1.851116 104.937057
v 26.402653 -1.851116 105.022278
v 26.269913 -1.851116 105.155022
v 26.184689 -1.851116 105.322281
v 26.155323 -1.851116 105.507690
v 26.155655 -1.851116 105.509781
v 26.019848 -1.648884 105.509781
v 26.155323 -1.648884 105.507690
v 26.184689 -1.648884 105.322281
v 26.269913 -1.648884 105.155022
v 26.402653 -1.648884 105.022278
v 26.569914 -1.648884 104.937057
v 26.755323 -1.648884 104.907692
v 27.490799 -1.648884 104.774307
v 27.490799 -1.851116 104.774307
v 26.184689 -1.851116 105.693100
v 26.269913 -1.851116 105.860359
v 26.402653 -1.851116 105.993103
v 26.569914 -1.851116 106.078323
v 26.755323 -1.851116 106.107689
v 26.755323 -1.851116 106.245255
v 26.019848 -1.851116 106.245255
v 27.490799 -1.851116 105.509781
v 27.354992 -1.851116 105.509781
v 27.355324 -1.851116 105.507690
v 27.325958 -1.851116 105.322281
v 27.240734 -1.851116 105.155022
v 27.107994 -1.851116 105.022278
v 26.940733 -1.851116 104.937057
v 26.155655 -1.648884 105.509781
v 26.019848 -1.648884 106.245255
v 26.940733 -1.648884 104.937057
v 27.107994 -1.648884 105.022278
v 27.240734 -1.648884 105.155022
v 27.325958 -1.648884 105.322281
v 27.355324 -1.648884 105.507690
v 27.490799 -1.648884 105.508018
v 26.940733 -1.851116 106.078323
v 27.107994 -1.851116 105.993103
v 27.240734 -1.851116 105.860359
v 27.325958 -1.851116 105.693100
v 27.490799 -1.851116 106.245255
v 26.755323 -1.648884 106.245255
v 26.755323 -1.648884 106.107689
v 26.569914 -1.648884 106.078323
v 26.402653 -1.648884 105.993103
v 26.269913 -1.648884 105.860359
v 26.184689 -1.648884 105.693100
v 27.354992 -1.648884 105.509781
v 27.490799 -1.648884 105.509781
v 27.490799 -1.648884 106.245255
v 27.325958 -1.648884 105.693100
v 27.240734 -1.648884 105.860359
v 27.107994 -1.648884 105.993103
v 26.940733 -1.648884 106.078323
vt 0.375000 0.000000
vt 0.500000 0.000000
vt 0.499701 0.250000
vt 0.375000 0.250000
vt 0.250000 0.250000
vt 0.250000 0.000000
vt 0.327546 0.000000
vt 0.352423 0.000000
vt 0.388407 0.000000
vt 0.426485 0.000000
vt 0.462908 0.000000
vt 0.499576 0.000000
vt 0.500000 0.000000
vt 0.500000 0.250000
vt 0.499607 0.288978
vt 0.462910 0.283039
vt 0.426483 0.282772
vt 0.388411 0.282721
vt 0.352429 0.282898
vt 0.327546 0.288773
vt 0.125000 0.250000
vt 0.125000 0.000000
vt 0.536289 0.000000
vt 0.572659 0.000000
vt 0.610623 0.000000
vt 0.646480 0.000000
vt 0.671256 0.000000
vt 0.750000 0.000000
vt 0.625000 0.000000
vt 0.375000 0.750000
vt 0.500000 0.750000
vt 0.500000 0.515283
vt 0.499576 0.515567
vt 0.462908 0.490334
vt 0.426485 0.417103
vt 0.388407 0.303042
vt 0.352423 0.159318
vt 0.500000 0.289120
vt 0.625000 0.250000
vt 0.319485 0.303060
vt 0.332322 0.327646
vt 0.370293 0.365616
vt 0.429681 0.413256
vt 0.499196 0.460423
vt 0.499102 0.499402
vt 0.375000 0.500000
vt 0.499701 0.500000
vt 0.679211 0.061128
vt 0.666249 0.136166
vt 0.628171 0.250565
vt 0.568726 0.393023
vt 0.875000 0.000000
vt 0.750000 0.250000
vt 0.671256 0.289372
vt 0.646480 0.283389
vt 0.610623 0.283088
vt 0.572658 0.283032
vt 0.536289 0.283242
vt 0.500000 0.460880
vt 0.500000 0.500000
vt 0.875000 0.250000
vt 0.625000 0.500000
vt 0.625000 0.750000
vt 0.536289 0.446687
vt 0.572659 0.422066
vt 0.610623 0.384102
vt 0.646480 0.336495
vt 0.375000 0.462082
vt 0.375000 0.500000
vt 0.387500 0.500000
vt 0.387500 0.462082
vt 0.400000 0.500000
vt 0.400000 0.462082
vt 0.612500 0.462082
vt 0.612500 0.500000
vt 0.625000 0.500000
vt 0.625000 0.462082
vt 0.412500 0.500000
vt 0.412500 0.462082
vt 0.612359 0.462082
vt 0.600000 0.462082
vt 0.600000 0.500000
vt 0.612359 0.500000
vt 0.425000 0.462082
vt 0.425000 0.500000
vt 0.587500 0.462082
vt 0.587500 0.500000
vt 0.437500 0.500000
vt 0.437500 0.462082
vt 0.575000 0.462082
vt 0.575000 0.500000
vt 0.450000 0.500000
vt 0.450000 0.462082
vt 0.562500 0.462082
vt 0.562500 0.500000
vt 0.462500 0.500000
vt 0.462500 0.462082
vt 0.550000 0.462082
vt 0.550000 0.500000
vt 0.475000 0.500000
vt 0.475000 0.462082
vt 0.537500 0.462082
vt 0.537500 0.500000
vt 0.487500 0.500000
vt 0.487500 0.462082
vt 0.525000 0.462082
vt 0.525000 0.500000
vt 0.487641 0.500000
vt 0.500000 0.500000
vt 0.500000 0.462082
vt 0.487641 0.462082
vt 0.512500 0.462082
vt 0.512500 0.500000
vn -1.000000 0.000000 0.000001
vn -1.000000 0.000000 0.000001
vn -1.000000 0.000000 0.000000
vn -1.000000 0.000000 0.000001
vn 0.000000 0.000000 -1.000000
vn 0.000000 0.000000 -1.000000
vn 0.000000 0.000000 -1.000000
vn 0.000000 0.000000 -1.000000
vn 0.000000 0.000000 -1.000000
vn 0.000000 0.000000 -1.000000
vn 0.000000 1.000000 0.000000
vn 0.000000 1.000000 0.000000
vn 0.000000 1.000000 0.000000
vn 0.000000 1.000000 0.000000
vn -1.000000 0.000000 0.000000
vn -1.000000 0.000000 0.000000
vn -1.000000 0.000000 -0.000001
vn 1.000000 0.000000 0.000000
vn 1.000000 0.000000 0.000000
vn 1.000000 0.000000 0.000000
vn 1.000000 0.000000 0.000000
vn 0.000000 0.000000 1.000000
vn 0.000000 0.000000 1.000000
vn 0.000000 0.000000 1.000000
vn 0.000000 0.000000 1.000000
vn 0.000000 1.000000 0.000000
vn 0.000000 1.000000 0.000000
vn 0.000000 1.000000 0.000000
vn 0.000000 1.000000 0.000000
vn 0.000000 0.000000 1.000000
vn 0.000000 0.000000 1.000000
vn 1.000000 0.000000 0.000000
vn 1.000000 0.000000 0.000000
vn 1.000000 0.000000 0.000000
vn -0.951056 0.000000 0.309017
vn -0.951056 0.000000 0.309017
vn -0.809016 0.000000 0.587787
vn -0.809016 0.000000 0.587787
vn -0.587784 0.000000 0.809018
vn -0.587784 0.000000 0.809018
vn -0.996985 0.000000 0.077595
vn -0.996985 0.000000 0.077591
vn -0.309016 0.000000 0.951057
vn -0.309016 0.000000 0.951057
vn 0.000000 0.000000 1.000000
vn 0.000000 0.000000 1.000000
vn -0.809020 0.000000 -0.587781
vn -0.809020 0.000000 -0.587781
vn -0.942443 0.000000 -0.334368
vn -0.942444 0.000000 -0.334365
vn 0.309016 0.000000 0.951057
vn 0.309016 0.000000 0.951057
vn -0.587792 0.000000 -0.809012
vn -0.587792 0.000000 -0.809012
vn 0.587784 0.000000 0.809018
vn 0.587784 0.000000 0.809018
vn -0.309005 0.000000 -0.951061
vn -0.309005 0.000000 -0.951061
vn 0.809016 0.000000 0.587787
vn 0.809016 0.000000 0.587787
vn 0.000000 0.000000 -1.000000
vn 0.000000 0.000000 -1.000000
vn 0.951056 0.000000 0.309017
vn 0.951056 0.000000 0.309017
vn 0.309005 0.000000 -0.951061
vn 0.309005 0.000000 -0.951061
vn 0.996985 0.000000 0.077595
vn 0.996985 0.000000 0.077591
vn 0.587792 0.000000 -0.809012
vn 0.587792 0.000000 -0.809012
vn 0.809020 0.000000 -0.587781
vn 0.809020 0.000000 -0.587781
vn 0.942443 0.000000 -0.334368
vn 0.942444 0.000000 -0.334365
vn 0.000000 -1.000000 0.000000
vn 0.000000 -1.000000 0.000000
vn 0.000000 -1.000000 0.000000
vn 0.000000 -1.000000 0.000000
vn 0.000000 -1.000000 0.000000
vn 0.000000 -1.000000 0.000000
vn 0.000000 -1.000000 0.000002
vn 0.000000 -1.000000 0.000000
vn 0.000000 -1.000000 0.000000
vn 0.000000 -1.000000 0.000000
vn 0.000000 -1.000000 0.000000
vn 0.000000 -1.000000 0.000000
vn 0.000000 -1.000000 0.000000
vn 0.000000 -1.000000 0.000000
vn 0.000000 -1.000000 0.000000
vn 0.000000 -1.000000 0.000000
vn 0.000000 -1.000000 0.000001
vn 0.000000 -1.000000 0.000000
vn 0.000000 -1.000000 0.000000
vn 0.000000 -1.000000 0.000000
vn 0.000000 1.000000 0.000000
vn 0.000000 1.000000 0.000000
vn 0.000000 1.000000 -0.000000
vn 0.000000 1.000000 -0.000000
vn 0.000000 1.000000 -0.000000
vn 0.000000 1.000000 0.000000
vn 0.000000 1.000000 0.000000
vn 0.000000 1.000000 0.000000
vn 0.000000 1.000000 0.000000
vn 0.000000 -1.000000 -0.000000
vn 0.000000 -1.000000 0.000000
vn 0.000000 -1.000000 0.000000
vn 0.000000 -1.000000 0.000000
vn 0.000000 -1.000000 0.000000
vn 0.000000 -1.000000 -0.000000
vn 0.000000 -1.000000 -0.000001
vn 0.000000 1.000000 0.000000
vn 0.000000 1.000000 0.000000
vn 0.000000 1.000000 -0.000000
vn 0.000000 1.000000 0.000000
vn 0.000000 1.000000 -0.000000
vn 0.000000 1.000000 -0.000000
vn 0.000000 1.000000 0.000000
vn 0.000000 1.000000 0.000000
vn 0.000000 1.000000 0.000000
vn 0.000000 -1.000000 0.000000
vn 0.000000 -1.000000 -0.000000
vn 0.000000 -1.000000 0.000000
vn 0.000000 -1.000000 0.000000
vn 0.000000 -1.000000 0.000000
vn 0.000000 -1.000000 0.000000
vn 0.000000 -1.000000 0.000000
vn 0.000000 -1.000000 -0.000000
vn 0.000000 -1.000000 -0.000002
vn 0.000000 1.000000 0.000000
vn 0.000000 1.000000 -0.000000
vn 0.000000 1.000000 -0.000000
vn 0.000000 1.000000 -0.000000
vn 0.000000 1.000000 0.000000
vn 0.000000 1.000000 -0.000000
vn 0.000000 1.000000 0.000000
vn 0.000000 1.000000 0.000000
vn 0.000000 1.000000 -0.000000
vn 0.000000 1.000000 0.000000
vn 0.000000 1.000000 0.000000
vn 0.000000 1.000000 0.000000
vn 0.000000 1.000000 -0.000000
vn 0.000000 1.000000 -0.000000
vn 0.000000 1.000000 0.000000
vn 0.000000 1.000000 0.000000
vn 0.000000 1.000000 0.000000
vn 0.000000 1.000000 0.000000
vn -0.996779 0.000000 -0.080194
vn -0.996779 0.000000 -0.080198
vn 0.996779 0.000000 -0.080194
vn 0.996779 0.000000 -0.080198
s 1
g polySurface41
usemtl initialShadingGroup
f 57/103/131 58/104/132 59/105/133 60/106/134
s 2
f 57/103/135 60/106/136 61/107/137 62/108/138
f 61/107/137 77/123/139 78/124/140 62/108/138
s off
f 59/105/141 70/116/142 93/140/143 71/117/144
s 1
f 58/104/132 85/131/145 94/141/146 70/116/147
s 3
f 77/148/148 100/149/149 86/133/150 78/132/151
s 4
f 84/130/152 106/155/153 94/141/154 85/131/155
s off
f 99/146/156 112/161/157 113/162/158 100/147/159
s 4
f 84/130/152 105/154/160 114/163/161 106/155/153
s 3
f 86/133/150 113/162/162 114/164/163 105/165/164
s 5
f 89/170/165 98/171/166 97/172/167 90/173/168
f 90/173/168 97/172/167 96/174/169 91/175/170
f 88/176/171 99/177/172 98/178/166 89/179/165
f 91/175/170 96/174/169 95/180/173 92/181/174
f 63/186/175 92/181/174 95/180/173 76/187/176
f 103/188/177 116/189/178 115/184/179 104/183/180
f 63/186/175 76/187/176 75/190/181 64/191/182
f 102/192/183 117/193/184 116/189/178 103/188/177
f 64/191/182 75/190/181 74/194/185 65/195/186
f 101/196/187 118/197/188 117/193/184 102/192/183
f 65/195/186 74/194/185 73/198/189 66/199/190
f 83/200/191 107/201/192 118/197/188 101/196/187
f 66/199/190 73/198/189 72/202/193 67/203/194
f 82/204/195 108/205/196 107/201/192 83/200/191
f 67/203/194 72/202/193 71/206/197 68/207/198
f 81/208/199 109/209/200 108/205/196 82/204/195
f 80/214/201 110/215/202 109/209/200 81/208/199
f 79/212/203 111/211/204 110/215/202 80/214/201
s 7
f 69/115/205 58/104/206 68/114/207
f 62/108/208 63/109/209 57/103/210
f 63/109/209 64/110/211 57/103/210
f 64/110/211 65/111/212 57/103/210
f 65/111/212 66/112/213 57/103/210
f 58/104/206 57/103/210 68/114/207
f 68/114/207 57/103/210 67/113/214
f 57/103/210 66/112/213 67/113/214
s 9
f 87/134/215 88/135/216 86/133/217
f 62/108/218 78/132/219 63/109/220
f 63/109/220 78/132/219 92/139/221
f 92/139/221 78/132/219 91/138/222
f 91/138/222 78/132/219 90/137/223
f 86/133/217 88/135/216 78/132/219
f 88/135/216 89/136/224 78/132/219
f 78/132/219 89/136/224 90/137/223
s 1
f 58/104/132 70/116/147 59/105/133
s 3
f 86/133/150 100/149/149 113/162/162
s 11
f 59/105/225 71/117/226 60/106/227
f 71/117/226 72/118/228 60/106/227
f 72/118/228 73/119/229 60/106/227
f 73/119/229 74/120/230 60/106/227
f 61/107/231 60/106/227 76/122/232
f 76/122/232 60/106/227 75/121/233
f 74/120/230 75/121/233 60/106/227
s 7
f 58/104/206 69/115/205 85/131/234
f 69/115/205 79/125/235 85/131/234
f 79/125/235 80/126/236 85/131/234
f 80/126/236 81/127/237 85/131/234
f 84/130/238 85/131/234 83/129/239
f 83/129/239 85/131/234 82/128/240
f 81/127/237 82/128/240 85/131/234
s 14
f 61/107/241 76/122/242 77/123/243
f 76/122/242 95/142/244 77/123/243
f 95/142/244 96/143/245 77/123/243
f 96/143/245 97/144/246 77/123/243
f 100/147/247 77/123/243 99/146/248
f 99/146/248 77/123/243 98/145/249
f 97/144/246 98/145/249 77/123/243
s 16
f 86/133/250 105/154/251 87/134/252
f 87/134/252 105/154/251 104/153/253
f 104/153/253 105/154/251 103/152/254
f 103/152/254 105/154/251 102/151/255
f 84/130/256 83/129/257 105/154/251
f 83/129/257 101/150/258 105/154/251
f 101/150/258 102/151/255 105/154/251
s 18
f 70/116/259 94/141/260 93/140/261
f 93/140/261 94/141/260 111/160/262
f 111/160/262 94/141/260 110/159/263
f 110/159/263 94/141/260 109/158/264
f 106/155/265 107/156/266 94/141/260
f 107/156/266 108/157/267 94/141/260
f 94/141/260 108/157/267 109/158/264
s 20
f 106/155/268 114/164/269 107/156/270
f 107/156/270 114/164/269 118/169/271
f 118/169/271 114/164/269 117/168/272
f 117/168/272 114/164/269 116/167/273
f 113/162/274 112/161/275 114/164/269
f 112/161/275 115/166/276 114/164/269
f 114/164/269 115/166/276 116/167/273
s 5
f 99/177/172 88/176/171 112/185/277
f 88/176/171 87/182/278 112/185/277
f 87/182/278 104/183/180 112/185/277
f 104/183/180 115/184/179 112/185/277
f 68/207/198 71/206/197 69/213/279
f 71/206/197 93/210/280 69/213/279
f 93/210/280 111/211/204 69/213/279
f 111/211/204 79/212/203 69/213/279
