# This file uses centimeters as units for non-parametric coordinates.

mtllib potentio_size_test.mtl
g default
v 24.371805 -0.102614 112.001511
v 25.371805 -0.102614 112.001511
v 25.371805 0.073819 112.001511
v 24.371805 0.073819 112.001511
v 24.371805 -0.102614 111.001511
v 24.371805 0.073819 111.001511
v 25.371805 -0.102614 111.001511
v 24.521805 -0.102614 111.501511
v 24.538935 -0.102614 111.609665
v 24.588650 -0.102614 111.707237
v 24.666080 -0.102614 111.784668
v 24.763649 -0.102614 111.834381
v 24.871805 -0.102614 111.851509
v 24.979961 -0.102614 111.834381
v 25.077530 -0.102614 111.784668
v 25.154961 -0.102614 111.707237
v 25.204676 -0.102614 111.609665
v 25.221806 -0.102614 111.501511
v 25.204676 -0.102614 111.393356
v 25.154961 -0.102614 111.295784
v 25.077530 -0.102614 111.218353
v 24.979961 -0.102614 111.168640
v 24.871805 -0.102614 111.151512
v 24.763649 -0.102614 111.168640
v 24.666080 -0.102614 111.218353
v 24.588650 -0.102614 111.295784
v 24.538935 -0.102614 111.393356
v 25.371805 0.073819 111.001511
v 24.521805 0.073819 111.501511
v 24.538935 0.073819 111.393356
v 24.588650 0.073819 111.295784
v 24.666080 0.073819 111.218353
v 24.763649 0.073819 111.168640
v 24.871805 0.073819 111.151512
v 24.979961 0.073819 111.168640
v 25.077530 0.073819 111.218353
v 25.154961 0.073819 111.295784
v 25.204676 0.073819 111.393356
v 25.221806 0.073819 111.501511
v 25.204676 0.073819 111.609665
v 25.154961 0.073819 111.707237
v 25.077530 0.073819 111.784668
v 24.979961 0.073819 111.834381
v 24.871805 0.073819 111.851509
v 24.763649 0.073819 111.834381
v 24.666080 0.073819 111.784668
v 24.588650 0.073819 111.707237
v 24.538935 0.073819 111.609665
vt 0.375000 0.000000
vt 0.625000 0.000000
vt 0.625000 0.250000
vt 0.375000 0.250000
vt 0.125000 0.250000
vt 0.125000 0.000000
vt 0.375000 1.000000
vt 0.375000 0.750000
vt 0.625000 0.750000
vt 0.625000 1.000000
vt 0.412500 0.875000
vt 0.416782 0.902039
vt 0.429211 0.926432
vt 0.448569 0.945789
vt 0.472961 0.958218
vt 0.500000 0.962500
vt 0.527039 0.958218
vt 0.551431 0.945789
vt 0.570789 0.926432
vt 0.583218 0.902039
vt 0.587500 0.875000
vt 0.583218 0.847961
vt 0.570789 0.823568
vt 0.551431 0.804211
vt 0.527039 0.791782
vt 0.500000 0.787500
vt 0.472961 0.791782
vt 0.448569 0.804211
vt 0.429211 0.823568
vt 0.416782 0.847961
vt 0.875000 0.000000
vt 0.875000 0.250000
vt 0.625000 0.500000
vt 0.375000 0.500000
vt 0.412500 0.375000
vt 0.416782 0.402039
vt 0.429211 0.426432
vt 0.448569 0.445789
vt 0.472961 0.458218
vt 0.500000 0.462500
vt 0.527039 0.458218
vt 0.551431 0.445789
vt 0.570789 0.426432
vt 0.583218 0.402039
vt 0.587500 0.375000
vt 0.583218 0.347961
vt 0.570789 0.323568
vt 0.551431 0.304211
vt 0.527039 0.291782
vt 0.500000 0.287500
vt 0.472961 0.291782
vt 0.448569 0.304211
vt 0.429211 0.323568
vt 0.416782 0.347961
vt 0.375000 0.480760
vt 0.375000 0.513841
vt 0.387500 0.513841
vt 0.387500 0.480760
vt 0.400000 0.513841
vt 0.400000 0.480760
vt 0.612500 0.480760
vt 0.612500 0.513841
vt 0.625000 0.513841
vt 0.625000 0.480760
vt 0.412500 0.513841
vt 0.412500 0.480760
vt 0.600000 0.480760
vt 0.600000 0.513841
vt 0.425000 0.513841
vt 0.425000 0.480760
vt 0.587500 0.480760
vt 0.587500 0.513841
vt 0.437500 0.513841
vt 0.437500 0.480760
vt 0.575000 0.480760
vt 0.575000 0.513841
vt 0.450000 0.513841
vt 0.450000 0.480760
vt 0.562500 0.480760
vt 0.562500 0.513841
vt 0.462500 0.513841
vt 0.462500 0.480760
vt 0.550000 0.480760
vt 0.550000 0.513841
vt 0.475000 0.513841
vt 0.475000 0.480760
vt 0.537500 0.480760
vt 0.537500 0.513841
vt 0.487500 0.480760
vt 0.487500 0.513841
vt 0.525000 0.480760
vt 0.525000 0.513841
vt 0.500000 0.513841
vt 0.500000 0.480760
vt 0.512500 0.480760
vt 0.512500 0.513841
vn 0.000000 0.000000 1.000000
vn 0.000000 0.000000 1.000000
vn 0.000000 0.000000 1.000000
vn 0.000000 0.000000 1.000000
vn -1.000000 0.000000 0.000000
vn -1.000000 0.000000 0.000000
vn -1.000000 0.000000 0.000000
vn -1.000000 0.000000 0.000000
vn 1.000000 0.000000 0.000000
vn 1.000000 0.000000 0.000000
vn 1.000000 0.000000 0.000000
vn 1.000000 0.000000 0.000000
vn 0.000000 0.000000 -1.000000
vn 0.000000 0.000000 -1.000000
vn 0.000000 0.000000 -1.000000
vn 0.000000 0.000000 -1.000000
vn -0.951056 0.000000 0.309017
vn -0.951056 0.000000 0.309017
vn -0.809018 0.000000 0.587784
vn -0.809018 0.000000 0.587784
vn -0.587783 0.000000 0.809019
vn -0.587783 0.000000 0.809019
vn -1.000000 0.000000 0.000000
vn -1.000000 0.000000 0.000000
vn -0.309007 0.000000 0.951060
vn -0.309007 0.000000 0.951060
vn -0.951056 0.000000 -0.309017
vn -0.951056 0.000000 -0.309017
vn 0.000000 0.000000 1.000000
vn 0.000000 0.000000 1.000000
vn -0.809018 0.000000 -0.587784
vn -0.809018 0.000000 -0.587784
vn 0.309007 0.000000 0.951060
vn 0.309007 0.000000 0.951060
vn -0.587783 0.000000 -0.809019
vn -0.587783 0.000000 -0.809019
vn 0.587783 0.000000 0.809019
vn 0.587783 0.000000 0.809019
vn -0.309007 0.000000 -0.951060
vn -0.309007 0.000000 -0.951060
vn 0.809018 0.000000 0.587784
vn 0.809018 0.000000 0.587784
vn 0.000000 0.000000 -1.000000
vn 0.000000 0.000000 -1.000000
vn 0.951056 0.000000 0.309017
vn 0.951056 0.000000 0.309017
vn 0.309007 0.000000 -0.951060
vn 0.309007 0.000000 -0.951060
vn 1.000000 0.000000 0.000000
vn 1.000000 0.000000 0.000000
vn 0.587783 0.000000 -0.809019
vn 0.587783 0.000000 -0.809019
vn 0.951056 0.000000 -0.309017
vn 0.951056 0.000000 -0.309017
vn 0.809018 0.000000 -0.587784
vn 0.809018 0.000000 -0.587784
vn 0.000000 -1.000000 0.000000
vn 0.000000 -1.000000 0.000000
vn 0.000000 -1.000000 0.000000
vn 0.000000 -1.000000 0.000000
vn 0.000000 -1.000000 0.000000
vn 0.000000 -1.000000 -0.000000
vn 0.000000 -1.000000 0.000000
vn 0.000000 -1.000000 0.000000
vn 0.000000 -1.000000 0.000000
vn 0.000000 -1.000000 0.000000
vn 0.000000 -1.000000 -0.000000
vn 0.000000 -1.000000 0.000000
vn 0.000000 -1.000000 0.000000
vn 0.000000 -1.000000 0.000000
vn 0.000000 -1.000000 -0.000000
vn 0.000000 -1.000000 -0.000000
vn 0.000000 -1.000000 -0.000000
vn 0.000000 -1.000000 0.000000
vn 0.000000 -1.000000 -0.000000
vn 0.000000 -1.000000 -0.000000
vn 0.000000 -1.000000 0.000000
vn 0.000000 -1.000000 0.000000
vn 0.000000 -1.000000 0.000000
vn 0.000000 -1.000000 0.000000
vn 0.000000 1.000000 -0.000000
vn 0.000000 1.000000 -0.000000
vn 0.000000 1.000000 -0.000000
vn 0.000000 1.000000 0.000000
vn 0.000000 1.000000 0.000000
vn 0.000000 1.000000 0.000000
vn 0.000000 1.000000 0.000000
vn 0.000000 1.000000 0.000000
vn 0.000000 1.000000 0.000000
vn 0.000000 1.000000 0.000000
vn 0.000000 1.000000 0.000000
vn 0.000000 1.000000 0.000000
vn 0.000000 1.000000 -0.000000
vn 0.000000 1.000000 0.000000
vn 0.000000 1.000000 0.000000
vn 0.000000 1.000000 -0.000000
vn 0.000000 1.000000 -0.000000
vn 0.000000 1.000000 -0.000000
vn 0.000000 1.000000 -0.000000
vn 0.000000 1.000000 -0.000000
vn 0.000000 1.000000 -0.000000
vn 0.000000 1.000000 -0.000000
vn 0.000000 1.000000 0.000000
vn 0.000000 1.000000 0.000000
s off
g polySurface109
usemtl initialShadingGroup
f 1/1/1 2/2/2 3/3/3 4/4/4
f 1/1/5 4/4/6 6/5/7 5/6/8
f 2/2/9 7/31/10 28/32/11 3/3/12
f 5/8/13 6/34/14 28/33/15 7/9/16
s 1
f 19/55/17 38/56/18 37/57/19 20/58/20
f 20/58/20 37/57/19 36/59/21 21/60/22
f 18/61/23 39/62/24 38/63/18 19/64/17
f 21/60/22 36/59/21 35/65/25 22/66/26
f 17/67/27 40/68/28 39/62/24 18/61/23
f 22/66/26 35/65/25 34/69/29 23/70/30
f 16/71/31 41/72/32 40/68/28 17/67/27
f 23/70/30 34/69/29 33/73/33 24/74/34
f 15/75/35 42/76/36 41/72/32 16/71/31
f 24/74/34 33/73/33 32/77/37 25/78/38
f 14/79/39 43/80/40 42/76/36 15/75/35
f 25/78/38 32/77/37 31/81/41 26/82/42
f 13/83/43 44/84/44 43/80/40 14/79/39
f 26/82/42 31/81/41 30/85/45 27/86/46
f 12/87/47 45/88/48 44/84/44 13/83/43
f 8/89/49 27/86/46 30/85/45 29/90/50
f 11/91/51 46/92/52 45/88/48 12/87/47
f 8/89/49 29/90/50 48/93/53 9/94/54
f 10/95/55 47/96/56 46/92/52 11/91/51
f 9/94/54 48/93/53 47/96/56 10/95/55
s 2
f 10/13/57 11/14/58 1/7/59
f 11/14/58 12/15/60 1/7/59
f 1/7/59 12/15/60 2/10/61
f 12/15/60 13/16/62 2/10/61
f 13/16/62 14/17/63 2/10/61
f 14/17/63 15/18/64 2/10/61
f 15/18/64 16/19/65 2/10/61
f 16/19/65 17/20/66 2/10/61
f 2/10/61 17/20/66 7/9/67
f 17/20/66 18/21/68 7/9/67
f 18/21/68 19/22/69 7/9/67
f 19/22/69 20/23/70 7/9/67
f 20/23/70 21/24/71 7/9/67
f 21/24/71 22/25/72 7/9/67
f 7/9/67 22/25/72 5/8/73
f 22/25/72 23/26/74 5/8/73
f 23/26/74 24/27/75 5/8/73
f 24/27/75 25/28/76 5/8/73
f 25/28/76 26/29/77 5/8/73
f 26/29/77 27/30/78 5/8/73
f 5/8/73 27/30/78 1/7/59
f 27/30/78 8/11/79 1/7/59
f 8/11/79 9/12/80 1/7/59
f 9/12/80 10/13/57 1/7/59
s 3
f 41/47/81 42/48/82 3/3/83
f 42/48/82 43/49/84 3/3/83
f 3/3/83 43/49/84 4/4/85
f 43/49/84 44/50/86 4/4/85
f 44/50/86 45/51/87 4/4/85
f 45/51/87 46/52/88 4/4/85
f 46/52/88 47/53/89 4/4/85
f 47/53/89 48/54/90 4/4/85
f 4/4/85 48/54/90 6/34/91
f 48/54/90 29/35/92 6/34/91
f 29/35/92 30/36/93 6/34/91
f 30/36/93 31/37/94 6/34/91
f 31/37/94 32/38/95 6/34/91
f 32/38/95 33/39/96 6/34/91
f 6/34/91 33/39/96 28/33/97
f 33/39/96 34/40/98 28/33/97
f 34/40/98 35/41/99 28/33/97
f 35/41/99 36/42/100 28/33/97
f 36/42/100 37/43/101 28/33/97
f 37/43/101 38/44/102 28/33/97
f 28/33/97 38/44/102 3/3/83
f 38/44/102 39/45/103 3/3/83
f 39/45/103 40/46/104 3/3/83
f 40/46/104 41/47/81 3/3/83
