<?xml version="1.0" encoding="UTF-8"?>
<svg id="Layer_1" data-name="Layer 1" xmlns="http://www.w3.org/2000/svg" viewBox="0 0 1663.73 1515.65">
  <defs>
    <style>
      .cls-1 {
        fill: #010101;
      }
    </style>
  </defs>
  <path class="cls-1" d="M1637.1,1120.46L1059,120.45C1005.58,42.13,907.96-6.55,812.59.72c-83.74,6.39-162.37,52.02-209.62,120.98L36.09,1101.75c-100.68,182.23,20.24,399.02,226.68,413.74l1132.22.16c199.1-10.01,326.94-210.99,242.11-395.18ZM806.16,1290.22c-121.26-18.87-122.94-211.11,3.12-229.3,185.79-26.79,186.79,258.83-3.12,229.3ZM893.42,914.28c-6.14,40.51-39.17,63.44-79.65,53.3-37.74-9.45-41.92-45.32-46.94-77.78-25.42-163.8-31.09-331.56-56.79-495.49-.28-26.04,15.88-55.48,43.1-60.07,21.83-3.68,140.07-4.05,160.09.59,24.61,5.71,37.14,30.38,40.08,53.64l-59.88,525.8Z"/>
</svg>