# Blender 4.2.1 LTS
# www.blender.org
mtllib ROCK_1.mtl
o ROCK_1
v -0.040739 -0.733025 -1.641755
v -1.106661 -0.711567 -0.616067
v -0.074224 -0.673954 -0.736451
v -0.874674 0.190500 -1.112961
v -0.836969 0.326243 -1.772064
v -0.563690 0.471491 -1.894046
v -0.325663 0.923465 -1.354056
v 0.075286 1.127301 -1.937060
v -0.341507 0.953978 -1.774990
v -0.351817 0.829300 -0.896839
v 0.051105 0.750082 -0.861641
v 0.793512 1.018060 -1.061519
v -0.134009 0.741398 0.602992
v -0.637887 0.760641 -0.465643
v 0.621410 0.654112 0.221128
v 0.687133 0.955026 -0.850545
v 0.998838 0.705867 -1.010124
v 0.945366 0.503267 -0.615241
v 0.918633 0.283295 0.391396
v 1.059609 -0.834002 -0.924778
v 0.964902 -0.818511 0.672297
v 1.093534 -0.332215 -1.668229
v 1.116393 -0.679256 -1.479037
v 0.796219 -0.727694 -1.807462
v 0.932497 -0.326855 -1.881430
v 1.058818 0.754841 -1.881843
v 1.096527 -0.285541 -1.840046
v 1.053034 0.984779 -1.499718
v 0.687123 1.142262 -1.789791
v 0.847223 1.163774 -1.550679
v 0.994503 1.069441 -1.120100
v 1.014364 1.160378 -1.443963
v 0.731805 -0.869507 1.364981
v 0.934005 -0.678818 1.525737
v -0.106162 -0.905920 0.834899
v 0.796650 0.139772 1.581779
v 0.817094 0.398358 1.382040
v 0.921123 0.210473 0.693749
v 1.036983 -0.848140 1.231235
v 0.597343 0.610810 0.669173
v 0.855865 0.493047 0.979030
v 0.645709 0.301249 1.719043
v -0.218006 0.426679 1.681106
v -0.754889 -0.131559 1.749190
v -0.919610 0.294645 1.366765
v -0.285723 -0.803462 1.791390
v 0.484921 -0.847310 1.875093
v -0.810948 0.425005 0.692761
v -0.975767 -0.106325 1.449321
v -1.090320 -0.211994 1.849828
v -0.922445 -0.751259 0.907207
v -1.124544 -0.539330 1.817927
v -1.133630 -0.756113 1.742905
v -0.937785 -0.770758 1.942928
v -1.033689 -0.524104 1.908803
v -1.139100 -0.455660 1.918570
v -0.973942 0.479806 -0.279369
v -0.889752 0.180252 -0.796462
v 0.735673 -0.856001 1.708949
v -0.828983 -0.931566 -1.445235
v -0.847136 -0.930434 -1.364913
v -0.939176 -0.927432 -1.334179
v -0.914973 -0.862522 -1.398121
v -0.912658 -0.862676 -1.447855
v -0.766740 -0.452480 -1.516067
v -0.760702 -0.427079 -1.597327
v -0.701567 -0.558392 -1.589756
v -0.792542 -0.587828 -1.566482
v 0.631179 0.063227 1.682389
v 0.589875 0.110868 1.720629
v 0.495337 0.069629 1.717597
v 0.559854 -0.045300 1.735058
v -0.706057 0.309904 1.617355
v -0.696194 0.232304 1.657586
v -0.659950 0.201404 1.719620
v -0.508723 0.347644 1.701406
vn -0.9608 0.1061 -0.2560
vn -0.9976 0.0508 -0.0466
vn 0.0699 -0.9507 0.3021
vn -0.1054 -0.1045 -0.9889
vn -0.2504 -0.3014 -0.9200
vn -0.5597 0.7401 -0.3727
vn -0.7846 0.6146 0.0817
vn -0.9124 0.4044 0.0637
vn -0.3557 0.9311 0.0809
vn 0.0016 0.9436 0.3310
vn 0.1712 0.9630 0.2081
vn -0.2457 0.9164 0.3159
vn -0.3062 0.9434 0.1275
vn 0.0202 0.9998 0.0085
vn 0.1256 0.9918 0.0218
vn 0.1643 0.9514 0.2605
vn -0.3015 0.9226 0.2406
vn 0.6820 0.5313 0.5026
vn 0.6884 0.6033 0.4027
vn 0.7988 0.5647 0.2075
vn 0.9863 0.0477 0.1580
vn 0.9962 0.0752 0.0429
vn 0.7316 0.6617 0.1640
vn -0.1396 -0.9902 0.0013
vn 0.9967 0.0568 0.0586
vn -0.1298 -0.9897 0.0598
vn 0.9963 0.0435 0.0748
vn 0.9801 0.1407 0.1397
vn -0.0164 -0.9933 -0.1147
vn 0.3595 -0.9077 -0.2166
vn 0.7043 -0.3035 -0.6418
vn 0.7411 -0.3569 -0.5687
vn -0.1922 -0.1145 -0.9746
vn -0.1799 -0.1433 -0.9732
vn 0.0535 -0.0066 -0.9985
vn 0.2516 -0.0297 -0.9674
vn 0.2946 -0.9235 -0.2457
vn 0.9989 0.0373 0.0275
vn 0.9947 -0.0811 0.0639
vn 0.9964 0.0458 0.0711
vn 0.6115 0.6820 -0.4011
vn 0.2043 0.4075 -0.8901
vn 0.6398 0.5984 -0.4822
vn -0.0667 0.9819 0.1772
vn -0.4353 0.8748 0.2128
vn -0.1460 0.9547 0.2591
vn -0.1657 0.9500 0.2648
vn 0.5072 0.3603 -0.7829
vn 0.9774 0.1802 0.1105
vn 0.9886 0.0542 0.1403
vn 0.2001 0.2859 0.9372
vn 0.9991 0.0425 0.0020
vn 0.0739 -0.9961 -0.0485
vn 0.0442 -0.9973 -0.0586
vn 0.9863 0.1649 0.0087
vn 0.7934 0.6047 -0.0703
vn 0.0587 -0.9877 -0.1446
vn 0.9886 0.0348 0.1462
vn 0.9895 0.0392 0.1389
vn 0.2964 -0.7795 0.5518
vn 0.7269 0.5638 -0.3922
vn 0.7650 0.6276 0.1449
vn 0.9870 0.1068 0.1200
vn 0.1496 0.9592 0.2398
vn 0.7524 0.6505 0.1033
vn 0.1657 0.9807 0.1037
vn 0.8024 0.3238 0.5014
vn 0.1213 0.9357 0.3313
vn 0.1088 0.9519 0.2864
vn 0.0355 0.0873 0.9956
vn -0.7464 0.2329 0.6234
vn -0.2456 0.9583 0.1458
vn 0.0488 0.0745 0.9960
vn -0.1022 0.0944 0.9903
vn 0.5656 -0.1591 0.8092
vn -0.3868 0.8929 0.2305
vn -0.7479 0.2281 0.6234
vn -0.7641 0.2707 0.5856
vn -0.1694 0.9638 0.2059
vn -0.9834 0.0621 -0.1706
vn -0.9844 0.1096 -0.1375
vn -0.9622 0.1242 -0.2424
vn -0.0546 -0.9983 -0.0196
vn -0.6719 -0.2169 0.7081
vn -0.7093 -0.1815 0.6812
vn -0.4214 -0.7264 0.5430
vn 0.2313 0.2210 0.9475
vn -0.1796 -0.9812 0.0714
vn -0.1864 -0.9825 -0.0031
vn -0.9857 0.1157 0.1222
vn -0.3927 0.8974 0.2013
vn -0.5867 0.7971 0.1433
vn -0.9838 0.0620 0.1684
vn -0.9494 0.1787 -0.2581
vn -0.7069 0.5560 -0.4372
vn -0.7350 0.5472 -0.4005
vn -0.7711 0.6366 -0.0161
vn -0.9727 0.2287 -0.0389
vn -0.0409 0.0203 0.9990
vn -0.0667 -0.9933 0.0939
vn 0.0122 -0.9987 0.0494
vn -0.0086 -0.9992 0.0393
vn 0.6024 0.0465 0.7968
vn 0.5433 0.2274 0.8081
vn 0.6769 -0.7357 0.0213
vn 0.0191 -0.9892 -0.1456
vn -0.4737 0.4104 -0.7792
vn 0.1003 -0.1621 -0.9817
vn -0.2656 -0.6245 -0.7345
vn 0.2606 -0.9627 0.0725
vn -0.1604 -0.2384 -0.9578
vn -0.1749 -0.2486 -0.9527
vn -0.6349 -0.7721 -0.0272
vn -0.6654 -0.7332 -0.1401
vn -0.9894 -0.1003 -0.1049
vn -0.8175 0.2011 -0.5396
vn -0.3436 0.3846 -0.8567
vn -0.1591 -0.3245 -0.9324
vn -0.9896 -0.1190 -0.0811
vn -0.9179 0.2798 -0.2813
vn -0.8901 -0.4121 -0.1949
vn -0.1258 -0.3463 -0.9297
vn 0.0341 0.1688 0.9851
vn 0.2531 0.2827 0.9252
vn 0.4799 0.1072 0.8708
vn 0.1939 -0.5063 0.8403
vn -0.4231 0.3741 0.8253
vn -0.2489 0.9562 0.1539
vn 0.0498 0.0725 0.9961
vn -0.7666 0.2703 0.5825
vn -0.5153 0.6081 0.6039
vn -0.2490 0.9559 0.1554
vt 0.989574 0.053243
vt 0.998819 0.063749
vt 0.973452 0.185867
vt 0.847243 0.105973
vt 0.989185 0.045183
vt 0.016551 0.081096
vt 0.000000 0.201581
vt 0.005122 0.086431
vt 0.404639 0.969345
vt 0.313611 0.936927
vt 0.306180 0.915062
vt 0.302097 0.788167
vt 0.342505 0.763696
vt 0.423101 0.107907
vt 0.504900 0.035551
vt 0.541138 0.065010
vt 0.541138 0.174191
vt 0.432438 0.040236
vt 0.381472 0.000000
vt 0.394046 0.179873
vt 0.222806 0.619180
vt 0.212099 0.693824
vt 0.174176 0.698441
vt 0.423101 0.183645
vt 0.305105 0.123173
vt 0.315590 0.160994
vt 0.444548 0.261733
vt 0.373189 0.420071
vt 0.604771 0.245301
vt 0.553198 0.422206
vt 0.541138 0.182369
vt 0.222806 0.764883
vt 0.324192 0.340043
vt 0.573448 0.455495
vt 0.573483 0.420872
vt 0.625214 0.447077
vt 0.645645 0.382327
vt 0.813525 0.432489
vt 0.670007 0.217459
vt 0.269094 0.405063
vt 0.133522 0.177463
vt 0.269211 0.144308
vt 0.804934 0.171042
vt 0.128363 0.030354
vt 0.755976 0.554406
vt 0.799053 0.523306
vt 0.234807 0.000000
vt 0.280710 0.051743
vt 0.257831 0.619180
vt 0.261184 0.680565
vt 0.222806 0.680565
vt 0.593690 0.662351
vt 0.570487 0.622790
vt 0.593690 0.589811
vt 0.544505 0.905672
vt 0.522720 0.971089
vt 0.433891 0.662573
vt 0.566465 0.732742
vt 0.566465 0.901659
vt 0.569710 0.594526
vt 0.623622 0.589811
vt 0.750616 0.582549
vt 0.595717 0.527363
vt 0.551147 0.574679
vt 0.515341 0.669787
vt 0.559837 0.535652
vt 0.321058 0.006959
vt 0.298191 0.040664
vt 0.283309 0.107476
vt 0.280710 0.053367
vt 0.273182 0.664050
vt 0.261184 0.643086
vt 0.273182 0.619180
vt 0.572005 0.518288
vt 0.581461 0.465230
vt 0.569710 0.651399
vt 0.541138 0.599697
vt 0.569710 0.589811
vt 0.678872 0.167943
vt 0.241394 0.519616
vt 0.128305 0.436834
vt 0.280710 0.496345
vt 0.786025 0.031399
vt 0.678519 0.022491
vt 0.813525 0.079592
vt 0.649062 0.055305
vt 0.278446 0.542703
vt 0.608232 0.171935
vt 0.640493 0.121331
vt 0.648587 0.000000
vt 0.572789 0.005727
vt 0.000000 0.763476
vt 0.081100 0.681386
vt 0.170865 0.763958
vt 0.448184 0.613349
vt 0.469522 0.571573
vt 0.513428 0.593363
vt 0.384678 0.600885
vt 0.464082 0.458191
vt 0.034388 0.693648
vt 0.174176 0.887364
vt 0.012727 0.903853
vt 0.044358 0.904971
vt 0.030409 0.933068
vt 0.442187 0.605796
vt 0.488285 0.636009
vt 0.524041 0.662573
vt 0.909548 0.518349
vt 0.831454 0.395917
vt 0.994374 0.424654
vt 0.854133 0.506483
vt 0.970851 0.578735
vt 0.926353 0.585351
vt 1.000000 0.565282
vt 0.010774 0.587125
vt 0.117366 0.592326
vt 0.036525 0.619180
vt 0.032241 0.449892
vt 0.271831 0.664050
vt 0.271831 0.696898
vt 0.261184 0.664592
vt 0.591069 0.705378
vt 0.569710 0.695685
vt 0.591069 0.662351
vt 0.280599 0.640217
vt 0.273182 0.632461
vt 0.280599 0.619180
vt 0.096626 0.625824
vt 0.140292 0.637221
vt 0.131852 0.619180
vt 0.174176 0.654777
vt 0.960026 0.595991
vt 0.498617 0.305573
vt 0.813525 0.245136
vt 0.851265 0.157194
vt 0.535245 0.225574
vt 0.045194 0.882151
vt 0.214480 0.603531
vt 0.245014 0.575556
vt 0.139778 0.965714
vt 0.169698 0.931641
vt 0.372907 0.691450
vt 0.233156 0.680565
vt 0.233156 0.696145
vt 0.222806 0.690833
vt 0.291869 1.000000
vt 0.280710 0.988105
vt 0.999656 0.042527
vt 1.000000 0.055990
vt 0.018256 0.067934
vt 0.929484 0.019922
vt 0.933634 0.032962
vt 0.303754 0.921433
vt 0.300557 0.941531
vt 0.823153 0.000000
vt 0.951575 0.024601
vt 0.948334 0.018324
vt 0.060899 0.893507
vt 0.039065 0.896922
vt 0.601415 0.662351
vt 0.601415 0.696065
vt 0.591069 0.668530
vt 0.013068 0.716874
vt 0.446459 0.622876
vt 0.418376 0.613330
s 0
usemtl initialShadingGroup
f 63/1/1 62/2/1 2/3/1
f 63/1/1 2/3/1 4/4/1
f 4/4/2 64/5/2 63/1/2
f 61/6/3 2/7/3 62/8/3
f 1/9/4 67/10/4 66/11/4
f 5/12/5 6/13/5 1/9/5
f 7/14/6 6/15/6 5/16/6
f 7/14/7 5/16/7 4/17/7
f 7/14/8 9/18/8 6/15/8
f 7/14/9 8/19/9 9/18/9
f 7/14/10 11/20/10 8/19/10
f 7/21/11 10/22/11 11/23/11
f 7/14/7 4/17/7 10/24/7
f 11/20/12 12/25/12 8/19/12
f 11/20/13 16/26/13 12/25/13
f 11/20/14 14/27/14 13/28/14
f 15/29/15 11/30/15 13/31/15
f 11/23/16 10/22/16 14/32/16
f 15/33/17 16/26/17 11/20/17
f 12/34/18 16/35/18 17/36/18
f 16/35/19 18/37/19 17/36/19
f 18/37/20 16/35/20 15/29/20
f 17/36/21 18/37/21 20/38/21
f 19/39/22 20/38/22 18/37/22
f 18/37/23 15/29/23 19/39/23
f 21/40/24 3/41/24 20/42/24
f 19/39/25 21/43/25 20/38/25
f 1/44/26 20/42/26 3/41/26
f 20/38/27 22/45/27 17/36/27
f 20/38/28 23/46/28 22/45/28
f 24/47/29 20/42/29 1/44/29
f 24/47/30 23/48/30 20/42/30
f 22/49/31 23/50/31 24/51/31
f 24/52/32 25/53/32 22/54/32
f 25/55/33 24/56/33 1/9/33
f 25/55/34 1/9/34 8/57/34
f 26/58/35 25/55/35 8/57/35
f 26/58/36 27/59/36 25/55/36
f 25/53/37 27/60/37 22/54/37
f 26/61/38 22/45/38 27/62/38
f 26/61/39 28/63/39 17/36/39
f 26/61/40 17/36/40 22/45/40
f 29/64/41 28/63/41 26/61/41
f 8/57/42 29/65/42 26/58/42
f 29/64/43 30/66/43 28/63/43
f 12/25/44 29/67/44 8/19/44
f 12/25/45 30/68/45 29/67/45
f 31/69/46 32/70/46 30/68/46
f 31/69/47 30/68/47 12/25/47
f 30/71/48 32/72/48 28/73/48
f 28/63/49 32/74/49 31/75/49
f 28/63/50 31/75/50 17/36/50
f 17/76/51 31/77/51 12/78/51
f 19/39/52 38/79/52 21/43/52
f 21/40/53 33/80/53 35/81/53
f 21/40/54 39/82/54 33/80/54
f 34/83/55 21/43/55 36/84/55
f 34/83/56 39/85/56 21/43/56
f 21/40/57 35/81/57 3/41/57
f 36/84/58 21/43/58 37/86/58
f 38/79/59 37/86/59 21/43/59
f 33/80/60 39/82/60 34/87/60
f 40/88/61 41/89/61 38/79/61
f 38/79/62 19/39/62 40/88/62
f 38/79/63 41/89/63 37/86/63
f 37/86/64 41/89/64 40/88/64
f 19/39/65 15/29/65 40/88/65
f 15/29/66 13/31/66 40/88/66
f 37/86/64 40/88/64 13/31/64
f 42/90/67 36/84/67 37/86/67
f 43/91/68 42/90/68 37/86/68
f 13/31/69 43/91/69 37/86/69
f 43/92/70 44/93/70 46/94/70
f 74/95/71 45/96/71 49/97/71
f 45/96/72 43/98/72 48/99/72
f 43/92/73 75/100/73 44/93/73
f 47/101/74 43/92/74 46/94/74
f 42/102/75 69/103/75 36/104/75
f 13/28/76 48/99/76 43/98/76
f 74/95/77 73/105/77 45/96/77
f 44/106/78 74/95/78 49/97/78
f 49/97/79 50/107/79 44/106/79
f 49/108/80 48/109/80 51/110/80
f 49/108/81 45/111/81 48/109/81
f 52/112/82 50/113/82 49/108/82
f 49/108/82 51/110/82 53/114/82
f 49/108/82 53/114/82 52/112/82
f 53/115/83 46/116/83 54/117/83
f 53/115/83 51/118/83 46/116/83
f 52/119/84 53/120/84 55/121/84
f 53/122/85 54/123/85 55/124/85
f 55/125/86 56/126/86 52/127/86
f 50/128/87 55/129/87 44/93/87
f 50/128/87 56/130/87 55/129/87
f 44/93/87 55/129/87 54/131/87
f 52/112/82 56/132/82 50/113/82
f 44/93/87 54/131/87 46/94/87
f 51/118/88 35/81/88 46/116/88
f 35/81/89 51/118/89 2/7/89
f 2/3/90 51/110/90 48/109/90
f 14/27/91 48/99/91 13/28/91
f 14/27/92 57/133/92 48/99/92
f 2/3/93 48/109/93 57/134/93
f 2/3/94 57/134/94 58/135/94
f 58/136/95 57/133/95 14/27/95
f 14/27/96 10/24/96 58/136/96
f 10/24/97 4/17/97 58/136/97
f 4/4/98 2/3/98 58/135/98
f 71/137/99 42/102/99 43/92/99
f 47/138/100 46/116/100 35/81/100
f 33/80/101 47/138/101 35/81/101
f 33/80/102 59/139/102 47/138/102
f 47/101/103 34/140/103 36/104/103
f 47/101/104 59/141/104 34/140/104
f 33/80/105 34/87/105 59/139/105
f 35/81/106 2/7/106 3/41/106
f 6/13/107 9/142/107 8/57/107
f 6/13/108 8/57/108 1/9/108
f 61/143/109 62/144/109 63/145/109
f 61/6/110 1/44/110 3/41/110
f 1/9/111 66/11/111 5/12/111
f 61/6/3 3/41/3 2/7/3
f 1/9/112 60/146/112 64/147/112
f 64/5/113 60/148/113 63/1/113
f 60/148/114 61/149/114 63/1/114
f 61/6/110 60/150/110 1/44/110
f 4/4/115 66/151/115 65/152/115
f 65/152/116 64/5/116 4/4/116
f 65/153/117 67/10/117 68/154/117
f 64/147/118 67/10/118 1/9/118
f 4/4/119 5/155/119 66/151/119
f 65/152/120 68/156/120 64/5/120
f 65/152/121 66/151/121 67/157/121
f 64/147/122 68/154/122 67/10/122
f 72/158/123 43/92/123 47/101/123
f 42/102/75 70/159/75 69/103/75
f 69/103/124 71/137/124 72/158/124
f 36/104/125 72/158/125 47/101/125
f 71/137/99 70/159/99 42/102/99
f 72/158/123 71/137/123 43/92/123
f 69/103/126 70/159/126 71/137/126
f 36/104/125 69/103/125 72/158/125
f 74/160/127 76/161/127 73/162/127
f 73/105/128 43/98/128 45/96/128
f 43/92/129 76/163/129 75/100/129
f 44/106/130 75/164/130 74/95/130
f 74/95/131 75/164/131 76/165/131
f 73/105/132 76/165/132 43/98/132
