# This file uses centimeters as units for non-parametric coordinates.

mtllib metal_frame_joystick.mtl
g default
v 20.264376 -0.110660 116.251610
v 22.806639 -0.110660 116.251610
v 22.806639 0.110660 116.251610
v 20.264376 0.110660 116.251610
v 20.264376 -0.110660 113.709343
v 20.264376 0.110660 113.709343
v 20.535507 -0.110660 113.980476
v 20.535507 -0.110660 115.980476
v 22.535507 -0.110660 115.980476
v 22.535507 -0.110660 113.980476
v 22.806639 -0.110660 113.709343
v 22.806639 0.110660 113.709343
v 20.535507 0.110660 113.980476
v 22.535507 0.110660 113.980476
v 22.535507 0.110660 115.980476
v 20.535507 0.110660 115.980476
vt 0.375000 0.000000
vt 0.625000 0.000000
vt 0.625000 0.250000
vt 0.375000 0.250000
vt 0.125000 0.250000
vt 0.125000 0.000000
vt 0.375000 1.000000
vt 0.375000 0.750000
vt 0.401662 0.776663
vt 0.401662 0.973337
vt 0.598338 0.973337
vt 0.598338 0.776663
vt 0.625000 0.750000
vt 0.625000 1.000000
vt 0.875000 0.000000
vt 0.875000 0.250000
vt 0.625000 0.500000
vt 0.375000 0.500000
vt 0.401662 0.473337
vt 0.598338 0.473337
vt 0.598338 0.276663
vt 0.401662 0.276663
vt 0.375000 0.111167
vt 0.375000 0.138833
vt 0.625000 0.138833
vt 0.625000 0.111167
vt 0.875000 0.138833
vt 0.875000 0.111167
vt 0.125000 0.111167
vt 0.125000 0.138833
vt 0.375000 0.638833
vt 0.625000 0.638833
vt 0.625000 0.611167
vt 0.375000 0.611167
vn 0.000000 0.000000 1.000000
vn 0.000000 0.000000 1.000000
vn 0.000000 0.000000 1.000000
vn 0.000000 0.000000 1.000000
vn -1.000000 0.000000 0.000000
vn -1.000000 0.000000 0.000000
vn -1.000000 0.000000 0.000000
vn -1.000000 0.000000 0.000000
vn 1.000000 0.000000 0.000000
vn 1.000000 0.000000 0.000000
vn 1.000000 0.000000 0.000000
vn 1.000000 0.000000 0.000000
vn 0.000000 0.000000 -1.000000
vn 0.000000 0.000000 -1.000000
vn 0.000000 0.000000 -1.000000
vn 0.000000 0.000000 -1.000000
vn 0.000000 0.000000 -1.000000
vn 0.000000 0.000000 -1.000000
vn 0.000000 0.000000 -1.000000
vn 0.000000 0.000000 -1.000000
vn -1.000000 0.000000 0.000000
vn -1.000000 0.000000 0.000000
vn -1.000000 0.000000 0.000000
vn -1.000000 0.000000 0.000000
vn 1.000000 0.000000 0.000000
vn 1.000000 0.000000 0.000000
vn 1.000000 0.000000 0.000000
vn 1.000000 0.000000 0.000000
vn 0.000000 0.000000 1.000000
vn 0.000000 0.000000 1.000000
vn 0.000000 0.000000 1.000000
vn 0.000000 0.000000 1.000000
vn 0.000000 -1.000000 0.000000
vn 0.000000 -1.000000 0.000000
vn 0.000000 -1.000000 0.000000
vn 0.000000 -1.000000 0.000000
vn 0.000000 -1.000000 -0.000000
vn 0.000000 -1.000000 -0.000000
vn 0.000000 -1.000000 -0.000000
vn 0.000000 -1.000000 -0.000000
vn 0.000000 1.000000 -0.000000
vn 0.000000 1.000000 -0.000000
vn 0.000000 1.000000 -0.000000
vn 0.000000 1.000000 0.000000
vn 0.000000 1.000000 0.000000
vn 0.000000 1.000000 0.000000
vn 0.000000 1.000000 -0.000000
vn 0.000000 1.000000 -0.000000
s off
g polySurface108
usemtl initialShadingGroup
f 1/1/1 2/2/2 3/3/3 4/4/4
f 1/1/5 4/4/6 6/5/7 5/6/8
f 2/2/9 11/15/10 12/16/11 3/3/12
f 5/8/13 6/18/14 12/17/15 11/13/16
f 8/23/17 16/24/18 15/25/19 9/26/20
f 9/26/21 15/25/22 14/27/23 10/28/24
f 7/29/25 13/30/26 16/24/27 8/23/28
f 7/31/29 10/32/30 14/33/31 13/34/32
s 1
f 5/8/33 7/9/34 1/7/35
f 7/9/34 8/10/36 1/7/35
f 5/8/33 11/13/37 7/9/34
f 7/9/34 11/13/37 10/12/38
f 11/13/37 2/14/39 10/12/38
f 10/12/38 2/14/39 9/11/40
f 2/14/39 1/7/35 9/11/40
f 8/10/36 9/11/40 1/7/35
s 2
f 3/3/41 15/21/42 4/4/43
f 15/21/42 16/22/44 4/4/43
f 3/3/41 12/17/45 15/21/42
f 15/21/42 12/17/45 14/20/46
f 12/17/45 6/18/47 14/20/46
f 14/20/46 6/18/47 13/19/48
f 6/18/47 4/4/43 13/19/48
f 16/22/44 13/19/48 4/4/43
g default
v 18.491423 -0.088878 119.509842
v 19.097516 -0.088878 119.509842
v 19.097516 0.088878 119.509842
v 18.491423 0.088878 119.509842
v 18.491423 -0.088878 119.339569
v 18.491423 0.088878 119.339569
v 19.097516 -0.088878 119.339569
v 19.097516 0.088878 119.339569
v 19.097516 0.088878 112.739563
v 19.097516 0.088878 112.569290
v 18.491423 0.088878 112.569290
v 18.491423 0.088878 112.739563
v 19.097516 -0.088878 112.739563
v 19.097516 -0.088878 112.569290
v 18.491423 -0.088878 112.569290
v 18.491423 -0.088878 112.739563
v 19.097516 0.000000 112.739563
v 19.097516 0.000000 112.569290
v 18.491423 0.000000 112.569290
v 18.491423 0.000000 112.739563
v 19.097516 0.000000 119.509842
v 18.491423 0.000000 119.509842
v 18.491423 0.000000 119.339569
v 19.097516 0.000000 119.339569
vt 0.375000 0.000000
vt 0.625000 0.000000
vt 0.625000 0.250000
vt 0.375000 0.250000
vt 0.345595 0.250000
vt 0.345595 0.000000
vt 0.375000 1.000000
vt 0.375000 0.970595
vt 0.625000 0.970595
vt 0.625000 1.000000
vt 0.654405 0.000000
vt 0.654405 0.250000
vt 0.625000 0.279405
vt 0.375000 0.279405
vt 0.408610 0.002036
vt 0.591390 0.002036
vt 0.625000 0.470595
vt 0.625000 0.500000
vt 0.375000 0.500000
vt 0.375000 0.470595
vt 0.845595 0.250000
vt 0.845595 0.000000
vt 0.875000 0.000000
vt 0.875000 0.250000
vt 0.625000 0.750000
vt 0.375000 0.750000
vt 0.125000 0.250000
vt 0.125000 0.000000
vt 0.154405 0.000000
vt 0.154405 0.250000
vt 0.625000 0.779405
vt 0.375000 0.779405
vt 0.408610 0.747964
vt 0.591390 0.747964
vt 0.845595 0.125000
vt 0.591390 0.625000
vt 0.875000 0.125000
vt 0.625000 0.625000
vt 0.375000 0.625000
vt 0.125000 0.125000
vt 0.154405 0.125000
vt 0.408610 0.625000
vt 0.625000 0.125000
vt 0.375000 0.125000
vt 0.345595 0.125000
vt 0.408610 0.125000
vt 0.654405 0.125000
vt 0.591390 0.125000
vn 0.000000 0.000000 1.000000
vn 0.000000 0.000000 1.000000
vn 0.000000 0.000000 1.000000
vn 0.000000 0.000000 1.000000
vn -1.000000 0.000000 0.000000
vn -1.000000 0.000000 0.000000
vn -1.000000 0.000000 0.000000
vn -1.000000 0.000000 0.000000
vn 0.000000 -1.000000 0.000000
vn 0.000000 -1.000000 0.000000
vn 0.000000 -1.000000 0.000000
vn 0.000000 -1.000000 0.000000
vn 1.000000 0.000000 0.000000
vn 1.000000 0.000000 0.000000
vn 1.000000 0.000000 0.000000
vn 1.000000 0.000000 0.000000
vn 0.000000 1.000000 0.000000
vn 0.000000 1.000000 0.000000
vn 0.000000 1.000000 0.000000
vn 0.000000 1.000000 0.000000
vn 0.000000 0.000000 -1.000000
vn 0.000000 0.000000 -1.000000
vn 0.000000 0.000000 -1.000000
vn 0.000000 0.000000 -1.000000
vn 0.000000 1.000000 0.000000
vn 0.000000 1.000000 0.000000
vn 0.000000 1.000000 0.000000
vn 0.000000 1.000000 0.000000
vn 1.000000 0.000000 0.000000
vn 1.000000 0.000000 0.000000
vn 1.000000 0.000000 0.000000
vn 1.000000 0.000000 0.000000
vn 0.000000 0.000000 -1.000000
vn 0.000000 0.000000 -1.000000
vn 0.000000 0.000000 -1.000000
vn 0.000000 0.000000 -1.000000
vn -1.000000 0.000000 0.000000
vn -1.000000 0.000000 0.000000
vn -1.000000 0.000000 0.000000
vn -1.000000 0.000000 0.000000
vn 0.000000 -1.000000 0.000000
vn 0.000000 -1.000000 0.000000
vn 0.000000 -1.000000 0.000000
vn 0.000000 -1.000000 0.000000
vn 1.000000 0.000000 0.000000
vn 1.000000 0.000000 0.000000
vn 0.000000 0.000000 -1.000000
vn 0.000000 0.000000 -1.000000
vn -1.000000 0.000000 0.000000
vn -1.000000 0.000000 0.000000
vn 0.000000 0.000000 1.000000
vn 0.000000 0.000000 1.000000
vn 0.000000 0.000000 1.000000
vn 0.000000 0.000000 1.000000
vn 0.000000 0.000000 1.000000
vn 0.000000 0.000000 1.000000
vn -1.000000 0.000000 0.000000
vn -1.000000 0.000000 0.000000
vn 1.000000 0.000000 0.000000
vn 1.000000 0.000000 0.000000
vn -1.000000 0.000000 0.000000
vn -1.000000 0.000000 0.000000
vn -1.000000 0.000000 0.000000
vn -1.000000 0.000000 0.000000
vn 0.000000 1.000000 0.000000
vn 0.000000 1.000000 0.000000
vn 0.000000 1.000000 0.000000
vn 0.000000 1.000000 0.000000
vn 1.000000 0.000000 0.000000
vn 1.000000 0.000000 0.000000
vn 1.000000 0.000000 0.000000
vn 1.000000 0.000000 0.000000
vn 0.000000 -1.000000 0.000000
vn 0.000000 -1.000000 0.000000
vn 0.000000 -1.000000 0.000000
vn 0.000000 -1.000000 0.000000
s 1
g polySurface109 group37
usemtl initialShadingGroup
f 17/35/49 18/36/50 37/77/51 38/78/52
s 2
f 17/35/53 38/78/54 39/79/55 21/40/56
s off
f 17/41/57 21/42/58 23/43/59 18/44/60
s 3
f 18/36/61 23/45/62 40/81/63 37/77/64
s off
f 19/37/65 24/47/66 22/48/67 20/38/68
f 21/49/69 39/80/70 40/82/71 23/50/72
f 25/51/73 26/52/74 27/53/75 28/54/76
s 4
f 25/55/77 33/69/78 34/71/79 26/58/80
s 5
f 26/52/81 34/72/82 35/73/83 27/53/84
s 6
f 27/61/85 35/74/86 36/75/87 28/64/88
s off
f 29/65/89 32/66/90 31/60/91 30/59/92
s 4
f 34/71/79 33/69/78 29/56/93 30/57/94
s 5
f 35/73/83 34/72/82 30/59/95 31/60/96
s 6
f 36/75/87 35/74/86 31/62/97 32/63/98
s off
f 33/70/99 36/76/100 32/67/101 29/68/102
s 1
f 38/78/52 37/77/51 19/37/103 20/38/104
s 2
f 39/79/55 38/78/54 20/38/105 22/39/106
s 3
f 37/77/64 40/81/63 24/46/107 19/37/108
s off
f 39/79/109 22/39/110 28/64/111 36/75/112
f 22/48/113 24/47/114 25/51/115 28/54/116
f 24/46/117 40/81/118 33/69/119 25/55/120
f 40/82/121 39/80/122 36/76/123 33/70/124
