# This file uses centimeters as units for non-parametric coordinates.

mtllib rock_19.mtl
g default
v -0.114636 -0.064062 0.224085
v -0.116394 0.080358 -0.088879
v 0.162804 0.110813 0.067608
v 0.184038 0.149426 -0.107448
v 0.236194 -0.051439 0.084831
v 0.241385 0.027266 -0.116564
v 0.134612 0.010439 -0.197756
v 0.241632 -0.030304 -0.117813
v 0.153924 -0.055987 -0.205543
v -0.178739 -0.132719 0.036740
v -0.095655 -0.149426 0.188738
v -0.156114 -0.076572 -0.181071
v -0.212063 0.019418 -0.108667
v -0.241632 -0.096357 -0.037329
v -0.228281 -0.045743 0.027771
v 0.223022 0.056396 -0.153938
v 0.191777 0.055562 -0.180687
v 0.205418 0.092480 -0.156852
v 0.182642 0.016318 0.070147
v -0.020213 -0.136817 -0.011752
v 0.091951 -0.126823 -0.190127
v 0.048083 -0.138910 -0.186327
v 0.031659 -0.138518 -0.196482
v 0.017313 -0.125347 -0.223952
v 0.036979 -0.102844 -0.211803
v 0.089013 -0.091710 -0.224084
v 0.105090 -0.103278 -0.223017
v 0.107118 -0.114749 -0.209515
v 0.035171 0.091193 0.160917
v -0.023957 0.084532 0.140275
v -0.034006 0.042100 0.198834
vt 0.565830 0.242950
vt 0.640206 0.035423
vt 0.837054 0.344002
vt 0.434917 0.392139
vt 0.538605 0.177595
vt 0.160790 0.781746
vt 0.000000 0.783748
vt 0.015052 0.582544
vt 0.851062 0.000000
vt 0.127557 0.568632
vt 0.224363 0.547082
vt 0.892128 0.892497
vt 0.861161 0.507483
vt 0.973195 0.912198
vt 0.592015 1.000000
vt 0.527759 0.991355
vt 0.567849 0.862633
vt 0.657524 0.961361
vt 0.743923 0.958030
vt 0.224363 0.775559
vt 0.224363 0.627108
vt 0.255435 0.547082
vt 0.255435 0.698299
vt 0.000000 0.406424
vt 0.038569 0.221513
vt 0.235732 0.514719
vt 0.050789 0.132476
vt 0.076211 0.069811
vt 0.207564 0.000000
vt 0.486940 0.871890
vt 0.545035 0.537258
vt 0.459804 0.736240
vt 0.434917 0.708680
vt 0.232306 0.334763
vt 0.434917 0.481366
vt 0.066779 0.157657
vt 0.434917 0.076464
vt 0.003734 0.224230
vt 0.455508 0.791667
vt 0.133903 0.547082
vt 0.691231 0.507483
vt 0.743923 0.625222
vt 0.910184 0.316934
vt 1.000000 0.384075
vt 0.851062 0.405970
vt 0.984684 0.254881
vt 0.877503 0.204791
vt 0.851062 0.467654
vt 0.676655 0.507483
vt 1.000000 0.000000
vt 0.888219 0.009946
vt 0.973195 0.513395
vt 0.610930 0.935499
vt 0.614587 0.975774
vt 0.077220 0.832649
vt 0.227882 0.581751
vt 0.124434 0.825870
vt 0.783931 0.907821
vt 0.030346 0.140736
vt 0.035789 0.127286
vt 0.055528 0.207755
vt 0.439379 0.807666
vt 0.288271 0.614967
vt 0.264285 0.571855
vt 0.288271 0.547082
vt 0.255435 0.553510
vt 0.026165 0.201844
vt 0.487113 0.268514
vt 0.743923 0.734123
vt 0.769688 0.632945
vn -0.126657 0.991396 0.033033
vn -0.126657 0.991396 0.033033
vn -0.126657 0.991397 0.033033
vn -0.737505 0.611604 0.286402
vn -0.737505 0.611604 0.286402
vn -0.737505 0.611604 0.286402
vn -0.124894 0.991454 0.037698
vn -0.124894 0.991454 0.037698
vn -0.124894 0.991454 0.037698
vn 0.892966 0.404485 0.197493
vn 0.892966 0.404485 0.197493
vn 0.892966 0.404485 0.197493
vn -0.209189 0.959947 0.186390
vn -0.209189 0.959947 0.186390
vn -0.209189 0.959947 0.186390
vn 0.727382 0.632584 0.265993
vn 0.727382 0.632584 0.265993
vn 0.727382 0.632584 0.265993
vn 0.318700 0.434501 0.842401
vn 0.318700 0.434501 0.842401
vn 0.318700 0.434501 0.842401
vn 0.603172 0.019899 -0.797363
vn 0.603172 0.019899 -0.797363
vn 0.603172 0.019899 -0.797363
vn -0.231195 0.586588 -0.776185
vn -0.231195 0.586588 -0.776185
vn -0.231195 0.586588 -0.776185
vn 0.999623 0.003700 0.027201
vn 0.999623 0.003700 0.027201
vn 0.999623 0.003700 0.027201
vn 0.577220 -0.481916 -0.659222
vn 0.577220 -0.481916 -0.659222
vn 0.577220 -0.481916 -0.659222
vn -0.321601 -0.908304 -0.267501
vn -0.321601 -0.908304 -0.267501
vn -0.321601 -0.908304 -0.267501
vn 0.679695 -0.505496 -0.531496
vn 0.679695 -0.505496 -0.531496
vn 0.679695 -0.505496 -0.531496
vn 0.640116 0.270407 -0.719118
vn 0.640116 0.270407 -0.719118
vn 0.640116 0.270407 -0.719118
vn -0.065298 0.517685 -0.853076
vn -0.065298 0.517685 -0.853076
vn -0.065298 0.517685 -0.853076
vn -0.050698 -0.995367 -0.081697
vn -0.050698 -0.995367 -0.081697
vn -0.050698 -0.995367 -0.081697
vn 0.273304 -0.954613 0.118402
vn 0.273304 -0.954613 0.118402
vn 0.273304 -0.954613 0.118402
vn -0.025200 -0.999680 0.002100
vn -0.025200 -0.999680 0.002100
vn -0.025200 -0.999680 0.002100
vn -0.321601 -0.908304 -0.267501
vn -0.321601 -0.908304 -0.267501
vn -0.321601 -0.908304 -0.267501
vn 0.184598 0.167198 -0.968488
vn 0.184598 0.167198 -0.968488
vn 0.184598 0.167198 -0.968488
vn -0.229096 -0.936583 -0.265195
vn -0.229096 -0.936583 -0.265195
vn -0.229096 -0.936583 -0.265195
vn -0.165894 0.530381 -0.831370
vn -0.165894 0.530381 -0.831370
vn -0.165894 0.530381 -0.831370
vn -0.848524 -0.103103 -0.519015
vn -0.848524 -0.103103 -0.519015
vn -0.848524 -0.103103 -0.519015
vn -0.968265 0.249891 0.004300
vn -0.968265 0.249891 0.004300
vn -0.968265 0.249891 0.004300
vn -0.786286 -0.399193 0.471592
vn -0.786286 -0.399193 0.471592
vn -0.786286 -0.399193 0.471592
vn -0.555798 0.773897 0.303599
vn -0.555798 0.773897 0.303599
vn -0.555798 0.773897 0.303599
vn -0.503193 0.783590 0.364395
vn -0.503193 0.783590 0.364395
vn -0.503193 0.783590 0.364395
vn -0.804012 -0.414006 0.426806
vn -0.804012 -0.414006 0.426806
vn -0.804012 -0.414006 0.426806
vn -0.835208 -0.358403 0.417104
vn -0.835208 -0.358403 0.417104
vn -0.835208 -0.358403 0.417104
vn 0.362291 -0.286693 0.886878
vn 0.362291 -0.286693 0.886878
vn 0.362291 -0.286693 0.886878
vn -0.231195 0.586588 -0.776185
vn -0.231195 0.586588 -0.776185
vn -0.231195 0.586588 -0.776185
vn -0.182507 0.580521 -0.793528
vn -0.182507 0.580521 -0.793528
vn -0.182507 0.580521 -0.793528
vn 0.626599 0.246000 -0.739499
vn 0.626599 0.246000 -0.739499
vn 0.626599 0.246000 -0.739499
vn 0.897023 0.429011 -0.106303
vn 0.897023 0.429011 -0.106303
vn 0.897023 0.429011 -0.106303
vn 0.577220 -0.481916 -0.659222
vn 0.577220 -0.481916 -0.659222
vn 0.577220 -0.481916 -0.659222
vn 0.897023 0.429011 -0.106303
vn 0.897023 0.429011 -0.106303
vn 0.897023 0.429011 -0.106303
vn 0.930461 0.203491 0.304687
vn 0.930461 0.203491 0.304687
vn 0.930461 0.203491 0.304687
vn 0.432177 0.114794 0.894453
vn 0.432177 0.114794 0.894453
vn 0.432177 0.114794 0.894453
vn -0.286287 0.356983 -0.889159
vn -0.286287 0.356983 -0.889159
vn -0.286287 0.356983 -0.889159
vn 0.297802 -0.953205 0.052100
vn 0.297802 -0.953205 0.052100
vn 0.297802 -0.953205 0.052100
vn -0.472410 -0.705415 -0.528411
vn -0.472410 -0.705415 -0.528411
vn -0.472410 -0.705415 -0.528411
vn 0.564504 -0.822406 -0.070600
vn 0.564504 -0.822406 -0.070600
vn 0.564504 -0.822406 -0.070600
vn 0.679695 -0.505496 -0.531496
vn 0.679695 -0.505496 -0.531496
vn 0.679695 -0.505496 -0.531496
vn -0.065298 0.517685 -0.853076
vn -0.065298 0.517685 -0.853076
vn -0.065298 0.517685 -0.853076
vn 0.273304 -0.954613 0.118402
vn 0.273304 -0.954613 0.118402
vn 0.273304 -0.954613 0.118402
vn -0.025200 -0.999680 0.002100
vn -0.025200 -0.999680 0.002100
vn -0.025200 -0.999680 0.002100
vn 0.184598 0.167198 -0.968488
vn 0.184598 0.167198 -0.968488
vn 0.184598 0.167198 -0.968488
vn -0.286287 0.356983 -0.889159
vn -0.286287 0.356983 -0.889159
vn -0.286287 0.356983 -0.889159
vn -0.318401 -0.672602 -0.668002
vn -0.318401 -0.672602 -0.668002
vn -0.318401 -0.672602 -0.668002
vn 0.082197 -0.557981 -0.825773
vn 0.082197 -0.557981 -0.825773
vn 0.082197 -0.557981 -0.825773
vn 0.473514 -0.406212 -0.781522
vn 0.473514 -0.406212 -0.781522
vn 0.473514 -0.406212 -0.781522
vn 0.749480 -0.352490 -0.560385
vn 0.749480 -0.352490 -0.560385
vn 0.749480 -0.352490 -0.560385
vn -0.020501 -0.695923 -0.717824
vn -0.020501 -0.695923 -0.717824
vn -0.020501 -0.695923 -0.717824
vn 0.564436 -0.822452 -0.070604
vn 0.564436 -0.822452 -0.070604
vn 0.564436 -0.822452 -0.070604
vn -0.276007 0.800222 0.532414
vn -0.276007 0.800222 0.532414
vn -0.276007 0.800222 0.532414
vn 0.595220 -0.265809 0.758326
vn 0.595220 -0.265809 0.758326
vn 0.595220 -0.265809 0.758326
vn -0.713677 0.619680 0.326590
vn -0.713677 0.619680 0.326590
vn -0.713677 0.619680 0.326590
vn 0.608765 -0.286384 0.739858
vn 0.608765 -0.286384 0.739858
vn 0.608765 -0.286384 0.739858
s off
g rock18
usemtl standardSurface1SG
f 30/1/1 3/2/2 2/3/3
f 1/4/4 30/1/5 2/3/6
f 30/1/7 29/5/8 3/2/9
f 6/6/10 4/7/11 3/8/12
f 2/3/13 3/2/14 4/9/15
f 6/6/16 19/10/17 5/11/18
f 19/12/19 1/13/20 5/14/21
f 6/15/22 8/16/23 7/17/24
f 18/18/25 7/17/26 4/19/27
f 5/11/28 8/20/29 6/6/30
f 17/21/31 6/22/32 7/23/33
f 12/24/34 23/25/35 10/26/36
f 28/27/37 9/28/38 8/29/39
f 7/17/40 8/16/41 9/30/42
f 12/31/43 25/32/44 24/33/45
f 10/26/46 20/34/47 11/35/48
f 20/34/49 21/36/50 5/37/51
f 23/25/52 20/34/53 10/26/54
f 12/24/55 24/38/56 23/25/57
f 9/30/58 26/39/59 7/17/60
f 10/26/61 14/40/62 12/24/63
f 12/31/64 13/41/65 2/42/66
f 14/43/67 13/44/68 12/45/69
f 14/43/70 15/46/71 13/44/72
f 15/46/73 14/43/74 10/47/75
f 2/3/76 13/48/77 15/49/78
f 2/3/79 15/49/80 1/4/81
f 15/46/82 10/47/83 1/50/84
f 1/50/85 10/47/86 11/51/87
f 5/14/88 1/13/89 11/52/90
f 18/18/91 17/53/92 7/17/93
f 4/19/94 7/17/95 2/42/96
f 16/54/97 17/53/98 18/18/99
f 6/6/100 18/55/101 4/7/102
f 17/21/103 16/56/104 6/22/105
f 6/6/106 16/57/107 18/55/108
f 6/6/109 3/8/110 19/10/111
f 19/12/112 3/58/113 1/13/114
f 7/17/115 25/32/116 2/42/117
f 5/37/118 11/35/119 20/34/120
f 26/59/121 27/60/122 28/27/123
f 21/36/124 8/29/125 5/37/126
f 28/27/127 27/60/128 9/28/129
f 12/31/130 2/42/131 25/32/132
f 20/34/133 22/61/134 21/36/135
f 23/25/136 22/61/137 20/34/138
f 9/30/139 27/62/140 26/39/141
f 7/17/142 26/39/143 25/32/144
f 28/27/145 21/36/146 26/59/147
f 21/63/148 22/64/149 25/65/150
f 22/64/151 23/66/152 25/65/153
f 23/25/154 24/38/155 25/67/156
f 25/67/157 26/59/158 21/36/159
f 21/36/160 28/27/161 8/29/162
f 29/5/163 30/1/164 31/68/165
f 29/69/166 1/13/167 3/58/168
f 1/4/169 31/68/170 30/1/171
f 29/69/172 31/70/173 1/13/174
