# This file uses centimeters as units for non-parametric coordinates.

mtllib rock_32.mtl
g default
v 0.043836 0.359489 -0.294230
v -0.205491 0.141009 -0.202947
v 0.134082 0.589614 -0.130988
v -0.145927 0.496450 0.005978
v 0.000794 0.598172 0.009675
v 0.170877 0.525671 -0.152213
v 0.269867 0.127352 -0.190500
v -0.150947 -0.482548 -0.346772
v 0.214377 -0.561704 0.019986
v 0.382331 -0.321165 0.123720
v 0.260925 -0.516903 0.272294
v -0.180061 -0.598172 -0.029295
v -0.311260 -0.008957 0.082954
v -0.382331 -0.389554 -0.105521
v -0.177302 0.433403 0.159908
v -0.082283 0.310792 0.296871
v -0.082980 0.595002 0.194519
v -0.031871 0.504171 0.174022
v 0.183628 0.227521 0.120596
v 0.022696 -0.354212 -0.328920
v 0.047369 -0.361636 -0.316988
v 0.050761 -0.442098 -0.277538
v -0.041136 -0.442641 -0.337404
v 0.184145 0.523637 -0.064577
v 0.167845 0.552377 -0.053301
v 0.124965 0.549525 0.010063
v 0.134148 0.517117 0.054454
v 0.192626 0.451032 0.036839
v 0.221695 -0.147287 0.341931
v 0.248172 -0.122245 0.308647
v 0.207463 -0.009896 0.308073
v 0.201933 0.012798 0.344368
v 0.166128 -0.009732 0.346772
v -0.283933 -0.145546 -0.149635
v -0.039983 0.081197 -0.281277
vt 0.963270 0.277182
vt 0.875550 0.255096
vt 1.000000 0.140425
vt 0.819638 0.066169
vt 0.650968 0.516825
vt 0.727903 0.419188
vt 0.665862 0.544803
vt 0.870731 0.006841
vt 0.971320 0.012035
vt 0.579724 0.335404
vt 0.653512 0.076989
vt 0.457939 0.014946
vt 0.630654 0.041240
vt 0.756159 0.900216
vt 0.729246 0.798743
vt 0.823347 0.657542
vt 0.667887 0.077623
vt 0.385305 0.149572
vt 0.918424 0.572752
vt 0.807455 0.557064
vt 0.910912 0.833015
vt 0.000000 0.449582
vt 0.377822 0.312779
vt 0.243905 0.579075
vt 0.385305 0.519025
vt 0.918424 0.931508
vt 0.727903 0.311291
vt 0.825235 0.392169
vt 0.771749 0.511352
vt 0.944615 0.557064
vt 0.287847 0.112584
vt 0.385305 0.088079
vt 0.749295 0.086151
vt 0.367797 0.000000
vt 0.583474 0.587503
vt 0.595374 0.544803
vt 0.669541 0.638027
vt 0.549138 0.972421
vt 0.642731 0.839391
vt 0.644868 0.886775
vt 0.658591 0.835040
vt 0.538528 0.741013
vt 0.668357 0.887855
vt 0.662623 1.000000
vt 0.386655 0.619581
vt 0.430612 0.622262
vt 0.424599 0.635267
vt 0.476635 0.670897
vt 0.491126 0.632167
vt 0.398357 0.590001
vt 0.469467 0.614342
vt 0.491401 0.553901
vt 0.770613 0.000000
vt 0.385305 0.765929
vt 0.685971 0.029462
vt 1.000000 0.482029
vt 0.727903 0.851884
vt 0.727903 0.000000
vt 0.708883 0.716544
vt 0.669541 0.650294
vt 0.708883 0.544803
vt 0.680938 0.698853
vt 0.011884 0.606275
vt 0.000000 0.593876
vt 0.011884 0.579075
vt 0.113651 0.221580
vt 0.066613 0.277860
vt 0.103845 0.207836
vt 0.669541 0.828337
vt 0.725930 0.280418
vn -0.402996 0.078939 -0.911791
vn -0.402996 0.078939 -0.911791
vn -0.402996 0.078939 -0.911791
vn -0.634987 0.467790 -0.614787
vn -0.634987 0.467790 -0.614787
vn -0.634987 0.467790 -0.614787
vn 0.322608 0.460212 -0.827121
vn 0.322608 0.460212 -0.827121
vn 0.322608 0.460212 -0.827121
vn -0.553195 0.615294 -0.561595
vn -0.553195 0.615294 -0.561595
vn -0.553195 0.615294 -0.561595
vn -0.449889 0.670284 -0.590186
vn -0.449889 0.670284 -0.590186
vn -0.449889 0.670284 -0.590186
vn 0.584618 0.220307 -0.780824
vn 0.584618 0.220307 -0.780824
vn 0.584618 0.220307 -0.780824
vn 0.810865 -0.229690 -0.538276
vn 0.810865 -0.229690 -0.538276
vn 0.810865 -0.229690 -0.538276
vn 0.332692 -0.797381 -0.503488
vn 0.332692 -0.797381 -0.503488
vn 0.332692 -0.797381 -0.503488
vn 0.810865 -0.229690 -0.538276
vn 0.810865 -0.229690 -0.538276
vn 0.810865 -0.229690 -0.538276
vn 0.442600 0.030500 -0.896200
vn 0.442600 0.030500 -0.896200
vn 0.442600 0.030500 -0.896200
vn 0.742010 -0.249803 -0.622109
vn 0.742010 -0.249803 -0.622109
vn 0.742010 -0.249803 -0.622109
vn 0.829524 -0.555816 -0.054402
vn 0.829524 -0.555816 -0.054402
vn 0.829524 -0.555816 -0.054402
vn 0.070800 -0.984297 0.161700
vn 0.070800 -0.984297 0.161700
vn 0.070800 -0.984297 0.161700
vn 0.127604 -0.935630 -0.329111
vn 0.127604 -0.935630 -0.329111
vn 0.127604 -0.935630 -0.329111
vn -0.509388 -0.269094 0.817381
vn -0.509388 -0.269094 0.817381
vn -0.509388 -0.269094 0.817381
vn -0.574097 -0.274799 0.771296
vn -0.574097 -0.274799 0.771296
vn -0.574097 -0.274799 0.771296
vn -0.619905 -0.717306 -0.318103
vn -0.619905 -0.717306 -0.318103
vn -0.619905 -0.717306 -0.318103
vn -0.904673 0.312391 -0.289791
vn -0.904673 0.312391 -0.289791
vn -0.904673 0.312391 -0.289791
vn -0.684907 0.147201 -0.713607
vn -0.684907 0.147201 -0.713607
vn -0.684907 0.147201 -0.713607
vn -0.762111 0.120102 0.636209
vn -0.762111 0.120102 0.636209
vn -0.762111 0.120102 0.636209
vn -0.932241 0.313714 -0.180308
vn -0.932241 0.313714 -0.180308
vn -0.932241 0.313714 -0.180308
vn -0.479672 -0.224087 0.848351
vn -0.479672 -0.224087 0.848351
vn -0.479672 -0.224087 0.848351
vn -0.678104 0.247601 0.692004
vn -0.678104 0.247601 0.692004
vn -0.678104 0.247601 0.692004
vn 0.701006 0.243202 0.670406
vn 0.701006 0.243202 0.670406
vn 0.701006 0.243202 0.670406
vn 0.896596 0.326399 0.299299
vn 0.896596 0.326399 0.299299
vn 0.896596 0.326399 0.299299
vn 0.326796 0.444595 0.833990
vn 0.326796 0.444595 0.833990
vn 0.326796 0.444595 0.833990
vn 0.896569 0.326389 0.299390
vn 0.896569 0.326389 0.299390
vn 0.896569 0.326389 0.299390
vn 0.793201 -0.030400 0.608201
vn 0.793201 -0.030400 0.608201
vn 0.793201 -0.030400 0.608201
vn 0.752717 0.504711 0.422710
vn 0.752717 0.504711 0.422710
vn 0.752717 0.504711 0.422710
vn 0.843855 0.523972 -0.115594
vn 0.843855 0.523972 -0.115594
vn 0.843855 0.523972 -0.115594
vn 0.547884 0.274092 0.790377
vn 0.547884 0.274092 0.790377
vn 0.547884 0.274092 0.790377
vn 0.892309 0.324903 0.313403
vn 0.892309 0.324903 0.313403
vn 0.892309 0.324903 0.313403
vn 0.843855 0.523972 -0.115594
vn 0.843855 0.523972 -0.115594
vn 0.843855 0.523972 -0.115594
vn 0.349780 0.894949 0.276984
vn 0.349780 0.894949 0.276984
vn 0.349780 0.894949 0.276984
vn 0.310688 0.797170 0.517680
vn 0.310688 0.797170 0.517680
vn 0.310688 0.797170 0.517680
vn 0.838313 0.384506 0.386506
vn 0.838313 0.384506 0.386506
vn 0.838313 0.384506 0.386506
vn -0.865912 0.499407 0.028100
vn -0.865912 0.499407 0.028100
vn -0.865912 0.499407 0.028100
vn -0.549704 0.801506 -0.235402
vn -0.549704 0.801506 -0.235402
vn -0.549704 0.801506 -0.235402
vn -0.968761 0.224391 -0.105596
vn -0.968761 0.224391 -0.105596
vn -0.968761 0.224391 -0.105596
vn 0.970421 0.241405 -0.002700
vn 0.970421 0.241405 -0.002700
vn 0.970421 0.241405 -0.002700
vn 0.521931 -0.300118 -0.798447
vn 0.521931 -0.300118 -0.798447
vn 0.521931 -0.300118 -0.798447
vn -0.330191 0.055599 -0.942275
vn -0.330191 0.055599 -0.942275
vn -0.330191 0.055599 -0.942275
vn 0.332719 -0.797344 -0.503528
vn 0.332719 -0.797344 -0.503528
vn 0.332719 -0.797344 -0.503528
vn 0.442602 0.030400 -0.896203
vn 0.442602 0.030400 -0.896203
vn 0.442602 0.030400 -0.896203
vn 0.293798 -0.410797 -0.863093
vn 0.293798 -0.410797 -0.863093
vn 0.293798 -0.410797 -0.863093
vn 0.068199 0.046400 -0.996592
vn 0.068199 0.046400 -0.996592
vn 0.068199 0.046400 -0.996592
vn 0.754984 0.594088 0.277594
vn 0.754984 0.594088 0.277594
vn 0.754984 0.594088 0.277594
vn 0.983801 -0.096300 -0.151200
vn 0.983801 -0.096300 -0.151200
vn 0.983801 -0.096300 -0.151200
vn 0.547884 0.274092 0.790377
vn 0.547884 0.274092 0.790377
vn 0.547884 0.274092 0.790377
vn 0.349780 0.894949 0.276984
vn 0.349780 0.894949 0.276984
vn 0.349780 0.894949 0.276984
vn 0.310688 0.797170 0.517680
vn 0.310688 0.797170 0.517680
vn 0.310688 0.797170 0.517680
vn 0.718479 0.592583 0.364189
vn 0.718479 0.592583 0.364189
vn 0.718479 0.592583 0.364189
vn 0.799595 0.236999 0.551797
vn 0.799595 0.236999 0.551797
vn 0.799595 0.236999 0.551797
vn 0.983811 -0.096201 -0.151202
vn 0.983811 -0.096201 -0.151202
vn 0.983811 -0.096201 -0.151202
vn 0.480624 -0.708735 0.516426
vn 0.480624 -0.708735 0.516426
vn 0.480624 -0.708735 0.516426
vn -0.447097 -0.211199 0.869195
vn -0.447097 -0.211199 0.869195
vn -0.447097 -0.211199 0.869195
vn -0.020500 0.138297 0.990179
vn -0.020500 0.138297 0.990179
vn -0.020500 0.138297 0.990179
vn 0.793201 -0.030400 0.608201
vn 0.793201 -0.030400 0.608201
vn 0.793201 -0.030400 0.608201
vn 0.987526 0.145904 0.059202
vn 0.987526 0.145904 0.059202
vn 0.987526 0.145904 0.059202
vn 0.663491 0.243097 0.707590
vn 0.663491 0.243097 0.707590
vn 0.663491 0.243097 0.707590
vn 0.661538 0.243314 0.709341
vn 0.661538 0.243314 0.709341
vn 0.661538 0.243314 0.709341
vn -0.447097 -0.211199 0.869195
vn -0.447097 -0.211199 0.869195
vn -0.447097 -0.211199 0.869195
vn -0.947243 0.215110 -0.237611
vn -0.947243 0.215110 -0.237611
vn -0.947243 0.215110 -0.237611
vn -0.752881 0.084698 -0.652684
vn -0.752881 0.084698 -0.652684
vn -0.752881 0.084698 -0.652684
vn -0.367484 0.178392 -0.912760
vn -0.367484 0.178392 -0.912760
vn -0.367484 0.178392 -0.912760
vn 0.019699 0.111595 -0.993559
vn 0.019699 0.111595 -0.993559
vn 0.019699 0.111595 -0.993559
s off
g rock31
usemtl standardSurface1SG
f 35/1/1 2/2/2 1/3/3
f 1/3/4 2/2/5 4/4/6
f 6/5/7 1/6/8 3/7/9
f 5/8/10 3/9/11 1/3/12
f 4/4/13 5/8/14 1/3/15
f 6/5/16 7/10/17 1/6/18
f 21/11/19 9/12/20 22/13/21
f 8/14/22 22/15/23 9/16/24
f 21/11/25 7/10/26 9/12/27
f 7/10/28 20/17/29 1/6/30
f 10/18/31 9/12/32 7/10/33
f 11/19/34 9/16/35 10/20/36
f 12/21/37 9/16/38 11/19/39
f 9/16/40 12/21/41 8/14/42
f 11/22/43 13/23/44 12/24/45
f 14/25/46 12/24/47 13/23/48
f 14/26/49 8/14/50 12/21/51
f 13/27/52 34/28/53 14/29/54
f 34/28/55 8/30/56 14/29/57
f 13/23/58 16/31/59 15/32/60
f 15/33/61 2/2/62 13/27/63
f 11/22/64 16/31/65 13/23/66
f 15/32/67 16/31/68 17/34/69
f 18/35/70 17/36/71 16/37/72
f 10/38/73 31/39/74 30/40/75
f 16/37/76 32/41/77 18/35/78
f 10/38/79 19/42/80 31/39/81
f 10/38/82 29/43/83 11/44/84
f 32/41/85 19/42/86 18/35/87
f 6/45/88 25/46/89 24/47/90
f 18/35/91 28/48/92 27/49/93
f 6/45/94 19/42/95 10/38/96
f 6/45/97 3/50/98 25/46/99
f 26/51/100 3/50/101 5/52/102
f 27/49/103 5/52/104 18/35/105
f 18/35/106 5/52/107 17/36/108
f 15/33/109 17/53/110 4/4/111
f 4/4/112 17/53/113 5/8/114
f 15/33/115 4/4/116 2/2/117
f 10/38/118 7/54/119 6/45/120
f 20/17/121 22/13/122 23/55/123
f 20/56/124 35/1/125 1/3/126
f 8/14/127 23/57/128 22/15/129
f 7/10/130 21/11/131 20/17/132
f 20/17/133 21/11/134 22/13/135
f 20/17/136 23/55/137 8/58/138
f 26/51/139 27/49/140 28/48/141
f 6/59/142 28/60/143 19/61/144
f 18/35/145 19/42/146 28/48/147
f 26/51/148 25/46/149 3/50/150
f 27/49/151 26/51/152 5/52/153
f 28/48/154 24/47/155 26/51/156
f 24/47/157 25/46/158 26/51/159
f 6/59/160 24/62/161 28/60/162
f 31/63/163 32/64/164 33/65/165
f 33/66/166 11/22/167 29/67/168
f 16/31/169 33/66/170 32/68/171
f 10/38/172 30/40/173 29/43/174
f 32/41/175 31/39/176 19/42/177
f 33/69/178 29/43/179 31/39/180
f 29/43/181 30/40/182 31/39/183
f 33/66/184 16/31/185 11/22/186
f 13/27/187 2/2/188 34/28/189
f 34/28/190 2/2/191 8/30/192
f 35/1/193 8/30/194 2/2/195
f 20/17/196 8/58/197 35/70/198
