# This file uses centimeters as units for non-parametric coordinates.

mtllib rock_14.mtl
g default
v -0.169158 -0.169050 -0.657646
v -0.391787 0.157609 -0.760923
v -0.798896 -0.172558 0.089505
v -0.075033 0.262039 -0.559586
v -0.397915 0.451023 -0.521650
v 0.529538 0.300208 0.732986
v -0.695638 0.062671 0.138854
v 0.277256 -0.011114 0.544981
v 0.645968 0.012412 0.412971
v -0.645871 0.437596 -0.097465
v -0.823059 0.400703 -0.082832
v 0.503507 -0.366426 0.455285
v 0.773410 -0.409011 0.081683
v 0.910052 -0.210891 -0.129289
v 0.472489 -0.074957 0.652960
v 0.546954 -0.163545 0.666214
v 0.604070 -0.021801 0.623258
v 0.551705 0.116711 0.760923
v 0.370880 -0.409189 -0.592666
v 0.407953 -0.360754 -0.576299
v 0.536350 -0.367254 -0.511869
v 0.564755 -0.413038 -0.494413
v 0.534887 -0.451023 -0.464308
v 0.487059 -0.448564 -0.454062
v 0.375682 -0.435425 -0.522139
v -0.790249 -0.047143 -0.450214
v -0.902834 -0.066541 -0.249053
v -0.877244 0.004255 -0.249224
v -0.910052 0.111867 -0.301471
v -0.819854 0.090014 -0.427330
v -0.811417 0.024877 -0.487273
v 0.726348 0.188456 -0.171746
v 0.796882 0.194973 0.001091
v 0.798162 0.142360 -0.002687
v 0.862390 0.053477 -0.120781
v 0.787894 0.084553 -0.184503
v 0.773994 0.095783 -0.186919
v -0.076733 0.327322 0.304503
v -0.118564 -0.233478 0.252700
vt 0.899303 0.756231
vt 0.871241 0.801424
vt 0.727624 0.801424
vt 0.778152 0.606970
vt 0.447528 0.614529
vt 0.550529 0.514588
vt 0.622073 0.626524
vt 0.628051 0.932556
vt 0.410618 0.849485
vt 0.401820 0.803298
vt 0.413507 0.130649
vt 0.500979 0.041479
vt 0.727624 0.514588
vt 0.687986 0.527345
vt 0.153306 0.851920
vt 0.247030 0.718381
vt 0.247030 0.974193
vt 0.380843 0.053457
vt 0.026070 0.171749
vt 0.039935 0.130901
vt 0.983004 0.257413
vt 0.865055 0.434576
vt 1.000000 0.017503
vt 0.867193 0.108595
vt 0.849838 0.035890
vt 0.727624 0.060725
vt 0.524657 1.000000
vt 0.624547 0.937609
vt 0.622643 0.969983
vt 0.816947 0.011963
vt 0.705619 0.273937
vt 1.000000 0.485414
vt 0.984277 0.524203
vt 0.727624 0.000000
vt 0.690173 0.045170
vt 0.821780 0.559597
vt 0.860697 0.582333
vt 0.923342 0.582333
vt 0.930334 0.000000
vt 0.070786 0.931920
vt 0.000000 0.863353
vt 0.211501 0.000000
vt 0.031013 0.116974
vt 0.762278 0.259856
vt 0.008643 0.719268
vt 0.008580 0.575920
vt 0.099119 0.649177
vt 0.226846 0.714816
vt 0.663005 0.914958
vt 0.017275 0.468504
vt 0.176544 0.549441
vt 0.164815 0.564130
vt 0.770146 0.462361
vt 0.103286 0.939519
vt 0.129460 0.918969
vt 0.175405 0.972445
vt 0.870621 0.011965
vt 0.002240 0.171740
vt 0.032653 0.368706
vt 0.380843 0.496953
vt 0.266239 0.634006
vt 0.247030 0.576243
vt 0.294630 0.565251
vt 0.380843 0.793641
vt 0.370336 0.270497
vt 0.932564 0.747712
vt 0.025592 0.565251
vt 0.396460 0.863120
vt 0.793994 0.563419
vt 0.347946 0.596903
vt 0.334530 0.577174
vt 0.347946 0.565251
vt 0.012929 0.126461
vt 0.016504 0.113073
vt 0.000000 0.181110
vt 0.320097 0.588936
vt 0.334530 0.565251
vt 0.334530 0.610677
vt 0.294630 0.639549
vt 0.320097 0.626219
vt 0.294630 0.611408
vt 0.320097 0.565251
vt 0.264262 0.565251
vt 0.722654 0.514588
vt 0.722654 0.575845
vt 0.716624 0.515578
vt 0.380843 0.419873
vt 0.424955 0.468319
vt 0.199662 0.668215
vt 0.668011 0.962582
vt 0.687986 0.959242
vt 0.687986 0.537884
vn -0.605530 0.588174 -0.536084
vn -0.605530 0.588174 -0.536084
vn -0.605530 0.588174 -0.536084
vn -0.616404 0.581904 -0.530504
vn -0.616404 0.581904 -0.530504
vn -0.616404 0.581904 -0.530504
vn 0.515385 0.081498 -0.853075
vn 0.515385 0.081498 -0.853075
vn 0.515385 0.081498 -0.853075
vn 0.433202 0.358101 -0.827103
vn 0.433202 0.358101 -0.827103
vn 0.433202 0.358101 -0.827103
vn 0.194792 0.176893 -0.964762
vn 0.194792 0.176893 -0.964762
vn 0.194792 0.176893 -0.964762
vn 0.468293 0.849187 -0.244096
vn 0.468293 0.849187 -0.244096
vn 0.468293 0.849187 -0.244096
vn 0.270690 0.611778 -0.743273
vn 0.270690 0.611778 -0.743273
vn 0.270690 0.611778 -0.743273
vn 0.939221 -0.001800 0.343308
vn 0.939221 -0.001800 0.343308
vn 0.939221 -0.001800 0.343308
vn -0.171792 -0.980856 0.091696
vn -0.171792 -0.980856 0.091696
vn -0.171792 -0.980856 0.091696
vn -0.438000 0.612100 0.658400
vn -0.438000 0.612100 0.658400
vn -0.438000 0.612100 0.658400
vn -0.389908 -0.223505 0.893318
vn -0.389908 -0.223505 0.893318
vn -0.389908 -0.223505 0.893318
vn -0.537908 -0.511607 0.670010
vn -0.537908 -0.511607 0.670010
vn -0.537908 -0.511607 0.670010
vn 0.677411 0.145302 -0.721111
vn 0.677411 0.145302 -0.721111
vn 0.677411 0.145302 -0.721111
vn -0.661175 -0.467983 0.586378
vn -0.661175 -0.467983 0.586378
vn -0.661175 -0.467983 0.586378
vn -0.082599 0.980394 0.178899
vn -0.082599 0.980394 0.178899
vn -0.082599 0.980394 0.178899
vn -0.042201 0.536708 0.842712
vn -0.042201 0.536708 0.842712
vn -0.042201 0.536708 0.842712
vn -0.210298 0.973290 -0.092099
vn -0.210298 0.973290 -0.092099
vn -0.210298 0.973290 -0.092099
vn -0.897099 -0.061000 0.437599
vn -0.897099 -0.061000 0.437599
vn -0.897099 -0.061000 0.437599
vn -0.577806 0.508505 -0.638407
vn -0.577806 0.508505 -0.638407
vn -0.577806 0.508505 -0.638407
vn -0.629810 0.042001 0.775613
vn -0.629810 0.042001 0.775613
vn -0.629810 0.042001 0.775613
vn 0.932663 -0.336087 0.131095
vn 0.932663 -0.336087 0.131095
vn 0.932663 -0.336087 0.131095
vn -0.031800 -0.995389 0.090499
vn -0.031800 -0.995389 0.090499
vn -0.031800 -0.995389 0.090499
vn -0.358083 -0.367883 0.858160
vn -0.358083 -0.367883 0.858160
vn -0.358083 -0.367883 0.858160
vn -0.373699 -0.443599 0.814598
vn -0.373699 -0.443599 0.814598
vn -0.373699 -0.443599 0.814598
vn 0.777086 -0.226596 0.587189
vn 0.777086 -0.226596 0.587189
vn 0.777086 -0.226596 0.587189
vn 0.664418 -0.709219 -0.235706
vn 0.664418 -0.709219 -0.235706
vn 0.664418 -0.709219 -0.235706
vn 0.876592 -0.104299 0.469796
vn 0.876592 -0.104299 0.469796
vn 0.876592 -0.104299 0.469796
vn 0.911809 0.152102 0.381404
vn 0.911809 0.152102 0.381404
vn 0.911809 0.152102 0.381404
vn 0.433202 0.358101 -0.827103
vn 0.433202 0.358101 -0.827103
vn 0.433202 0.358101 -0.827103
vn -0.351986 -0.507980 -0.786169
vn -0.351986 -0.507980 -0.786169
vn -0.351986 -0.507980 -0.786169
vn -0.878405 0.309102 0.364502
vn -0.878405 0.309102 0.364502
vn -0.878405 0.309102 0.364502
vn 0.392998 -0.569197 0.722196
vn 0.392998 -0.569197 0.722196
vn 0.392998 -0.569197 0.722196
vn 0.964770 0.149495 0.216493
vn 0.964770 0.149495 0.216493
vn 0.964770 0.149495 0.216493
vn -0.528803 -0.240001 0.814105
vn -0.528803 -0.240001 0.814105
vn -0.528803 -0.240001 0.814105
vn 0.932663 -0.336087 0.131095
vn 0.932663 -0.336087 0.131095
vn 0.932663 -0.336087 0.131095
vn 0.118802 0.243805 0.962520
vn 0.118802 0.243805 0.962520
vn 0.118802 0.243805 0.962520
vn 0.964770 0.149495 0.216493
vn 0.964770 0.149495 0.216493
vn 0.964770 0.149495 0.216493
vn 0.342207 -0.644113 -0.684114
vn 0.342207 -0.644113 -0.684114
vn 0.342207 -0.644113 -0.684114
vn -0.356212 -0.883430 -0.304410
vn -0.356212 -0.883430 -0.304410
vn -0.356212 -0.883430 -0.304410
vn -0.921322 -0.138203 -0.363409
vn -0.921322 -0.138203 -0.363409
vn -0.921322 -0.138203 -0.363409
vn -0.258808 -0.939928 -0.222607
vn -0.258808 -0.939928 -0.222607
vn -0.258808 -0.939928 -0.222607
vn 0.433202 0.358101 -0.827103
vn 0.433202 0.358101 -0.827103
vn 0.433202 0.358101 -0.827103
vn 0.194792 0.176893 -0.964762
vn 0.194792 0.176893 -0.964762
vn 0.194792 0.176893 -0.964762
vn -0.238793 -0.965970 0.099397
vn -0.238793 -0.965970 0.099397
vn -0.238793 -0.965970 0.099397
vn -0.900906 -0.057400 0.430203
vn -0.900906 -0.057400 0.430203
vn -0.900906 -0.057400 0.430203
vn -0.577000 0.511300 -0.636901
vn -0.577000 0.511300 -0.636901
vn -0.577000 0.511300 -0.636901
vn -0.031800 -0.995389 0.090499
vn -0.031800 -0.995389 0.090499
vn -0.031800 -0.995389 0.090499
vn 0.664418 -0.709219 -0.235706
vn 0.664418 -0.709219 -0.235706
vn 0.664418 -0.709219 -0.235706
vn 0.677411 0.145302 -0.721111
vn 0.677411 0.145302 -0.721111
vn 0.677411 0.145302 -0.721111
vn -0.361101 -0.495801 -0.789802
vn -0.361101 -0.495801 -0.789802
vn -0.361101 -0.495801 -0.789802
vn -0.874287 0.316895 0.367695
vn -0.874287 0.316895 0.367695
vn -0.874287 0.316895 0.367695
vn 0.807624 -0.532616 -0.253108
vn 0.807624 -0.532616 -0.253108
vn 0.807624 -0.532616 -0.253108
vn 0.306502 -0.667904 -0.678204
vn 0.306502 -0.667904 -0.678204
vn 0.306502 -0.667904 -0.678204
vn -0.246906 -0.475211 -0.844519
vn -0.246906 -0.475211 -0.844519
vn -0.246906 -0.475211 -0.844519
vn -0.207292 -0.480282 -0.852267
vn -0.207292 -0.480282 -0.852267
vn -0.207292 -0.480282 -0.852267
vn -0.356212 -0.883430 -0.304410
vn -0.356212 -0.883430 -0.304410
vn -0.356212 -0.883430 -0.304410
vn -0.967501 -0.227300 0.110800
vn -0.967501 -0.227300 0.110800
vn -0.967501 -0.227300 0.110800
vn -0.843589 0.303796 -0.442794
vn -0.843589 0.303796 -0.442794
vn -0.843589 0.303796 -0.442794
vn -0.758715 -0.456809 -0.464409
vn -0.758715 -0.456809 -0.464409
vn -0.758715 -0.456809 -0.464409
vn -0.236400 -0.945602 -0.223500
vn -0.236400 -0.945602 -0.223500
vn -0.236400 -0.945602 -0.223500
vn 0.633300 0.726500 -0.266700
vn 0.633300 0.726500 -0.266700
vn 0.633300 0.726500 -0.266700
vn 0.135298 0.986487 -0.092399
vn 0.135298 0.986487 -0.092399
vn 0.135298 0.986487 -0.092399
vn 0.939221 -0.001800 0.343308
vn 0.939221 -0.001800 0.343308
vn 0.939221 -0.001800 0.343308
vn 0.677411 0.145302 -0.721111
vn 0.677411 0.145302 -0.721111
vn 0.677411 0.145302 -0.721111
vn 0.911809 0.152102 0.381404
vn 0.911809 0.152102 0.381404
vn 0.911809 0.152102 0.381404
vn 0.433202 0.358101 -0.827103
vn 0.433202 0.358101 -0.827103
vn 0.433202 0.358101 -0.827103
vn 0.849297 0.474498 -0.231399
vn 0.849297 0.474498 -0.231399
vn 0.849297 0.474498 -0.231399
vn 0.924067 0.049698 -0.378986
vn 0.924067 0.049698 -0.378986
vn 0.924067 0.049698 -0.378986
vn 0.563182 0.777775 -0.279091
vn 0.563182 0.777775 -0.279091
vn 0.563182 0.777775 -0.279091
vn 0.135298 0.986487 -0.092399
vn 0.135298 0.986487 -0.092399
vn 0.135298 0.986487 -0.092399
vn -0.421805 0.522906 0.740709
vn -0.421805 0.522906 0.740709
vn -0.421805 0.522906 0.740709
vn 0.119802 0.987616 0.101302
vn 0.119802 0.987616 0.101302
vn 0.119802 0.987616 0.101302
vn -0.240401 -0.097100 0.965805
vn -0.240401 -0.097100 0.965805
vn -0.240401 -0.097100 0.965805
vn -0.128796 -0.976571 0.172395
vn -0.128796 -0.976571 0.172395
vn -0.128796 -0.976571 0.172395
s off
g rock13
usemtl standardSurface1SG
f 30/1/1 29/2/2 11/3/3
f 30/1/4 11/3/5 5/4/6
f 1/5/7 2/6/8 4/7/9
f 37/8/10 21/9/11 20/10/12
f 20/10/13 1/5/14 4/7/15
f 4/11/16 5/12/17 6/13/18
f 5/14/19 4/7/20 2/6/21
f 9/15/22 33/16/23 6/17/24
f 12/18/25 25/19/26 24/20/27
f 38/21/28 7/22/29 6/23/30
f 7/22/31 8/24/32 6/23/33
f 15/25/34 8/24/35 12/26/36
f 14/27/37 36/28/38 35/29/39
f 15/25/40 12/26/41 16/30/42
f 5/12/43 38/31/44 6/13/45
f 10/32/46 11/33/47 7/22/48
f 11/34/49 10/35/50 5/12/51
f 28/36/52 11/33/53 29/37/54
f 2/38/55 30/1/56 5/4/57
f 8/24/58 18/39/59 6/23/60
f 9/15/61 16/40/62 12/41/63
f 13/42/64 24/20/65 23/43/66
f 7/22/67 39/44/68 12/26/69
f 12/26/70 8/24/71 7/22/72
f 12/41/73 13/45/74 9/15/75
f 23/46/76 14/47/77 13/45/78
f 13/45/79 14/47/80 9/15/81
f 14/47/82 34/48/83 9/15/84
f 32/49/85 20/10/86 4/7/87
f 2/50/88 26/51/89 31/52/90
f 28/36/91 3/53/92 7/22/93
f 15/54/94 17/55/95 18/56/96
f 6/17/97 17/55/98 9/15/99
f 8/24/100 15/25/101 18/39/102
f 9/15/103 17/55/104 16/40/105
f 15/25/106 16/30/107 17/57/108
f 6/17/109 18/56/110 17/55/111
f 24/20/112 25/19/113 20/58/114
f 1/59/115 25/19/116 3/60/117
f 28/61/118 30/62/119 26/63/120
f 3/60/121 26/51/122 1/59/123
f 37/8/124 36/28/125 21/9/126
f 20/10/127 19/64/128 1/5/129
f 39/65/130 25/19/131 12/18/132
f 28/36/133 7/22/134 11/33/135
f 2/38/136 31/66/137 30/1/138
f 13/42/139 12/18/140 24/20/141
f 23/46/142 22/67/143 14/47/144
f 14/27/145 22/68/146 21/9/147
f 2/50/148 1/59/149 26/51/150
f 28/36/151 27/69/152 3/53/153
f 25/70/154 19/71/155 20/72/156
f 20/58/157 21/73/158 24/20/159
f 21/73/160 22/74/161 23/43/162
f 24/20/163 21/73/164 23/43/165
f 1/59/166 19/75/167 25/19/168
f 31/76/169 26/77/170 30/78/171
f 26/63/172 27/79/173 28/61/174
f 28/80/175 29/81/176 30/82/177
f 3/60/178 27/83/179 26/51/180
f 37/84/181 34/85/182 36/86/183
f 32/87/184 6/13/185 33/88/186
f 9/15/187 34/48/188 33/16/189
f 14/27/190 21/9/191 36/28/192
f 14/47/193 35/89/194 34/48/195
f 32/49/196 37/8/197 20/10/198
f 37/8/199 32/49/200 34/90/201
f 32/49/202 33/91/203 34/90/204
f 34/85/205 35/92/206 36/86/207
f 32/87/208 4/11/209 6/13/210
f 38/21/211 10/32/212 7/22/213
f 5/12/214 10/35/215 38/31/216
f 7/22/217 3/53/218 39/44/219
f 39/65/220 3/60/221 25/19/222
