# This file uses centimeters as units for non-parametric coordinates.

mtllib rock_10.mtl
g default
v -0.551608 0.475641 0.126475
v -0.589175 0.200599 0.137005
v -0.298239 0.530742 0.503006
v -0.448324 0.439912 -0.070626
v -0.029202 0.620318 0.121239
v -0.454030 0.521735 -0.037925
v -0.270612 0.571775 -0.073592
v -0.238614 0.541398 -0.182753
v -0.310214 0.443371 -0.254128
v -0.288254 0.502046 -0.276695
v -0.079148 0.113441 -0.531956
v -0.031790 0.343607 -0.509366
v 0.198654 0.518722 -0.235418
v 0.395547 0.196063 -0.382877
v 0.605860 0.124465 -0.077888
v 0.244550 -0.191665 -0.441443
v 0.485572 0.355037 -0.129654
v 0.307730 -0.237114 0.276212
v 0.291765 -0.515595 -0.440084
v 0.169194 0.038463 0.542884
v 0.568255 -0.388132 -0.159892
v 0.496262 -0.542606 -0.312470
v 0.465651 -0.452788 0.041103
v 0.437518 -0.523480 0.072839
v 0.152444 -0.554660 0.341217
v -0.032446 -0.504099 0.529664
v 0.379219 -0.567309 -0.066862
v 0.111381 -0.570047 0.046465
v -0.103410 -0.620318 0.017432
v -0.138057 -0.508973 -0.353340
v 0.050051 -0.489726 -0.507493
v 0.024842 -0.349990 -0.509450
v -0.248868 -0.393504 -0.406855
v -0.133435 -0.210620 -0.586063
v -0.536050 -0.182845 -0.004896
v -0.605860 0.065990 0.136188
v -0.500355 -0.135509 0.236761
v -0.538105 -0.238138 0.231817
v -0.307203 -0.148948 0.388669
v 0.121378 0.411257 0.586063
v 0.314008 0.499774 0.389219
v 0.483316 -0.542760 -0.062442
v 0.470309 -0.119123 -0.146592
v 0.524038 -0.133817 -0.093479
v 0.438112 -0.168466 -0.036022
v 0.437441 -0.193183 -0.033928
v 0.480343 -0.239209 -0.065572
v 0.532179 -0.239818 -0.114644
v 0.493776 -0.244874 -0.159290
v 0.456996 -0.231829 -0.161842
v 0.448775 -0.187806 -0.130567
v -0.269080 -0.489493 0.464445
v -0.329561 -0.417951 0.434690
v -0.371356 -0.441319 0.407997
v -0.358986 -0.449537 0.392740
v -0.318738 -0.487377 0.379583
v -0.303699 -0.503731 0.388008
v 0.456477 0.497406 0.173341
v 0.461444 0.462352 0.160857
v 0.499511 0.452972 0.105199
v 0.485333 0.471828 0.083820
v 0.453027 0.499380 0.088609
v 0.434436 0.509122 0.128861
v -0.224488 0.155177 0.502008
v -0.232044 0.215900 0.509074
v -0.300306 0.257910 0.496100
v -0.351168 0.181803 0.431820
v -0.302380 0.101609 0.469486
v 0.233687 -0.597954 -0.029120
vt 0.186909 0.000000
vt 0.333104 0.037090
vt 0.332837 0.139727
vt 0.308990 0.523895
vt 0.231033 0.489147
vt 0.325738 0.457541
vt 0.152668 0.651117
vt 0.325738 0.670026
vt 0.239742 0.514090
vt 0.176620 0.550751
vt 0.140967 0.524497
vt 0.145716 0.472760
vt 0.667172 1.000000
vt 0.597911 0.936853
vt 0.590795 0.856574
vt 0.667172 0.695605
vt 0.103693 0.763876
vt 0.090929 0.731092
vt 0.103693 0.712949
vt 0.002899 0.442276
vt 0.133096 0.484767
vt 0.013935 0.376551
vt 0.000000 0.587444
vt 0.512617 0.102526
vt 0.342621 0.167745
vt 0.348239 0.080486
vt 0.470268 0.000000
vt 0.589376 0.038348
vt 0.650666 0.113374
vt 0.667172 0.748098
vt 0.739094 0.695605
vt 0.739094 0.978195
vt 0.477351 0.254795
vt 0.983967 0.457728
vt 0.887200 0.452264
vt 0.968541 0.436331
vt 0.026527 0.713822
vt 0.056779 0.712949
vt 0.056779 0.778111
vt 0.938474 0.573794
vt 0.991829 0.459352
vt 1.000000 0.708302
vt 0.608180 0.254007
vt 0.510783 0.369166
vt 0.620384 0.256017
vt 0.650666 0.302601
vt 0.602670 0.363950
vt 0.925015 0.377664
vt 0.968652 0.412333
vt 0.609010 0.212020
vt 0.853402 0.588164
vt 0.864408 0.460025
vt 0.865676 0.682798
vt 0.583903 0.640515
vt 0.590795 0.737144
vt 0.494907 0.573185
vt 0.534680 0.473778
vt 0.590795 0.494761
vt 0.503725 0.522169
vt 0.420517 0.395954
vt 0.426611 0.622212
vt 0.180571 0.253724
vt 0.187241 0.363493
vt 0.169527 0.352854
vt 0.333104 0.529938
vt 0.048696 0.372390
vt 0.140984 0.376551
vt 0.343482 0.439888
vt 0.742667 0.014224
vt 0.784640 0.000000
vt 0.770644 0.076601
vt 0.706654 0.083831
vt 0.657786 0.022426
vt 0.406025 0.328685
vt 0.422196 0.377664
vt 0.333104 0.289644
vt 0.963833 0.000000
vt 0.963833 0.314026
vt 0.867412 0.332560
vt 0.650666 0.275754
vt 0.866998 0.071270
vt 0.819741 0.695605
vt 0.819741 0.785521
vt 0.739094 0.731790
vt 0.928915 0.002783
vt 0.272150 0.258656
vt 0.281628 0.297963
vt 0.000000 0.733468
vt 0.026527 0.712949
vt 0.026527 0.799707
vt 0.333104 0.190027
vt 0.024727 0.027869
vt 0.150215 0.113846
vt 0.146272 0.136159
vt 0.000000 0.164795
vt 0.824282 0.361676
vt 0.702510 0.350538
vt 0.484072 0.769606
vt 0.202243 0.132191
vt 0.177445 0.100966
vt 0.590795 0.541405
vt 0.600399 0.377664
vt 0.723986 0.399490
vt 0.715409 0.489253
vt 0.849892 0.428176
vt 0.019667 0.712949
vt 0.736556 0.587575
vt 0.717185 0.611271
vt 0.752272 0.695018
vt 0.637318 0.695605
vt 0.853402 0.695605
vt 0.004509 0.704843
vt 0.742192 0.611791
vt 0.841220 0.348508
vt 0.503522 0.377664
vt 0.565286 0.447449
vt 0.874046 0.407345
vt 0.578420 0.395834
vt 1.000000 0.425303
vt 0.610520 0.238646
vt 0.641913 0.251383
vt 0.638218 0.213445
vt 0.090929 0.748576
vt 0.056779 0.726744
vt 0.090929 0.712949
vt 0.333104 0.401651
vt 0.325780 0.384542
vt 0.333104 0.376551
vt 0.122333 0.733341
vt 0.103693 0.732325
vt 0.122333 0.712949
vt 0.866998 0.186357
vt 0.821758 0.369187
vt 0.514427 0.780622
vt 0.850266 0.347860
vt 0.866998 0.369588
vt 0.829803 0.374040
vt 0.333104 0.423143
vt 0.326134 0.404173
vt 0.333104 0.401651
vt 0.713820 0.594729
vt 0.725310 0.581855
vt 0.731727 0.617283
vt 0.131645 0.736243
vt 0.122333 0.721387
vt 0.131645 0.712949
vt 0.176044 0.159320
vt 0.887934 0.708302
vt 0.887934 0.898278
vt 0.853402 0.745747
vn -0.831136 0.134181 0.539637
vn -0.831136 0.134181 0.539637
vn -0.831136 0.134181 0.539637
vn -0.873570 0.101096 -0.476083
vn -0.873570 0.101096 -0.476083
vn -0.873570 0.101096 -0.476083
vn -0.266307 0.963127 0.038301
vn -0.266307 0.963127 0.038301
vn -0.266307 0.963127 0.038301
vn -0.868185 0.130798 -0.478692
vn -0.868185 0.130798 -0.478692
vn -0.868185 0.130798 -0.478692
vn -0.265006 0.960121 0.089102
vn -0.265006 0.960121 0.089102
vn -0.265006 0.960121 0.089102
vn -0.237594 0.962775 0.128897
vn -0.237594 0.962775 0.128897
vn -0.237594 0.962775 0.128897
vn -0.268312 0.341315 -0.900840
vn -0.268312 0.341315 -0.900840
vn -0.268312 0.341315 -0.900840
vn -0.598818 0.708822 -0.372811
vn -0.598818 0.708822 -0.372811
vn -0.598818 0.708822 -0.372811
vn 0.018300 0.964595 -0.263099
vn 0.018300 0.964595 -0.263099
vn 0.018300 0.964595 -0.263099
vn -0.550300 0.732700 -0.400400
vn -0.550300 0.732700 -0.400400
vn -0.550300 0.732700 -0.400400
vn -0.797391 -0.052299 -0.601193
vn -0.797391 -0.052299 -0.601193
vn -0.797391 -0.052299 -0.601193
vn -0.797395 -0.052200 -0.601196
vn -0.797395 -0.052200 -0.601196
vn -0.797395 -0.052200 -0.601196
vn -0.860711 0.428106 0.275504
vn -0.860711 0.428106 0.275504
vn -0.860711 0.428106 0.275504
vn -0.680686 -0.026799 -0.732085
vn -0.680686 -0.026799 -0.732085
vn -0.680686 -0.026799 -0.732085
vn -0.621486 0.202195 -0.756883
vn -0.621486 0.202195 -0.756883
vn -0.621486 0.202195 -0.756883
vn 0.142098 0.883987 -0.445393
vn 0.142098 0.883987 -0.445393
vn 0.142098 0.883987 -0.445393
vn -0.019400 0.849704 -0.526903
vn -0.019400 0.849704 -0.526903
vn -0.019400 0.849704 -0.526903
vn 0.294191 0.033199 -0.955170
vn 0.294191 0.033199 -0.955170
vn 0.294191 0.033199 -0.955170
vn 0.408200 0.573700 -0.710100
vn 0.408200 0.573700 -0.710100
vn 0.408200 0.573700 -0.710100
vn 0.814243 0.315317 -0.487426
vn 0.814243 0.315317 -0.487426
vn 0.814243 0.315317 -0.487426
vn 0.781490 -0.376395 0.497594
vn 0.781490 -0.376395 0.497594
vn 0.781490 -0.376395 0.497594
vn 0.294802 0.029400 -0.955106
vn 0.294802 0.029400 -0.955106
vn 0.294802 0.029400 -0.955106
vn 0.738210 0.260104 0.622408
vn 0.738210 0.260104 0.622408
vn 0.738210 0.260104 0.622408
vn 0.555005 0.601306 -0.574805
vn 0.555005 0.601306 -0.574805
vn 0.555005 0.601306 -0.574805
vn 0.604285 -0.237394 0.760581
vn 0.604285 -0.237394 0.760581
vn 0.604285 -0.237394 0.760581
vn 0.914317 0.074401 0.398107
vn 0.914317 0.074401 0.398107
vn 0.914317 0.074401 0.398107
vn 0.798882 0.113997 -0.590587
vn 0.798882 0.113997 -0.590587
vn 0.798882 0.113997 -0.590587
vn 0.662339 0.347120 -0.663939
vn 0.662339 0.347120 -0.663939
vn 0.662339 0.347120 -0.663939
vn 0.686135 -0.054403 0.725437
vn 0.686135 -0.054403 0.725437
vn 0.686135 -0.054403 0.725437
vn 0.765373 -0.259891 -0.588779
vn 0.765373 -0.259891 -0.588779
vn 0.765373 -0.259891 -0.588779
vn 0.519011 0.425009 -0.741616
vn 0.519011 0.425009 -0.741616
vn 0.519011 0.425009 -0.741616
vn 0.711169 -0.210491 0.670770
vn 0.711169 -0.210491 0.670770
vn 0.711169 -0.210491 0.670770
vn 0.681096 0.056700 0.729996
vn 0.681096 0.056700 0.729996
vn 0.681096 0.056700 0.729996
vn 0.676297 -0.184699 0.713097
vn 0.676297 -0.184699 0.713097
vn 0.676297 -0.184699 0.713097
vn -0.188793 -0.978962 0.077397
vn -0.188793 -0.978962 0.077397
vn -0.188793 -0.978962 0.077397
vn 0.274393 -0.944277 0.181796
vn 0.274393 -0.944277 0.181796
vn 0.274393 -0.944277 0.181796
vn 0.159997 -0.971982 -0.172197
vn 0.159997 -0.971982 -0.172197
vn 0.159997 -0.971982 -0.172197
vn -0.176997 -0.981281 0.075899
vn -0.176997 -0.981281 0.075899
vn -0.176997 -0.981281 0.075899
vn 0.230805 -0.972721 -0.023301
vn 0.230805 -0.972721 -0.023301
vn 0.230805 -0.972721 -0.023301
vn 0.199193 -0.961267 0.190493
vn 0.199193 -0.961267 0.190493
vn 0.199193 -0.961267 0.190493
vn -0.599809 0.183103 0.778911
vn -0.599809 0.183103 0.778911
vn -0.599809 0.183103 0.778911
vn -0.071400 -0.957106 -0.280802
vn -0.071400 -0.957106 -0.280802
vn -0.071400 -0.957106 -0.280802
vn -0.250703 0.183502 0.950513
vn -0.250703 0.183502 0.950513
vn -0.250703 0.183502 0.950513
vn -0.052802 -0.980938 -0.187007
vn -0.052802 -0.980938 -0.187007
vn -0.052802 -0.980938 -0.187007
vn -0.621499 -0.123000 -0.773699
vn -0.621499 -0.123000 -0.773699
vn -0.621499 -0.123000 -0.773699
vn -0.184498 -0.625992 -0.757690
vn -0.184498 -0.625992 -0.757690
vn -0.184498 -0.625992 -0.757690
vn -0.207992 -0.568479 -0.795971
vn -0.207992 -0.568479 -0.795971
vn -0.207992 -0.568479 -0.795971
vn 0.272010 0.035601 -0.961636
vn 0.272010 0.035601 -0.961636
vn 0.272010 0.035601 -0.961636
vn 0.272010 0.035601 -0.961636
vn 0.272010 0.035601 -0.961636
vn 0.272010 0.035601 -0.961636
vn 0.359899 -0.101100 -0.927498
vn 0.359899 -0.101100 -0.927498
vn 0.359899 -0.101100 -0.927498
vn 0.351409 0.096603 -0.931225
vn 0.351409 0.096603 -0.931225
vn 0.351409 0.096603 -0.931225
vn -0.759502 0.228901 -0.608902
vn -0.759502 0.228901 -0.608902
vn -0.759502 0.228901 -0.608902
vn -0.822265 -0.037398 -0.567876
vn -0.822265 -0.037398 -0.567876
vn -0.822265 -0.037398 -0.567876
vn -0.815874 0.097897 -0.569882
vn -0.815874 0.097897 -0.569882
vn -0.815874 0.097897 -0.569882
vn -0.905404 -0.371002 0.206401
vn -0.905404 -0.371002 0.206401
vn -0.905404 -0.371002 0.206401
vn -0.806713 0.103502 -0.581809
vn -0.806713 0.103502 -0.581809
vn -0.806713 0.103502 -0.581809
vn -0.599809 0.183103 0.778911
vn -0.599809 0.183103 0.778911
vn -0.599809 0.183103 0.778911
vn -0.937221 0.341308 0.071602
vn -0.937221 0.341308 0.071602
vn -0.937221 0.341308 0.071602
vn -0.613533 0.071304 0.786443
vn -0.613533 0.071304 0.786443
vn -0.613533 0.071304 0.786443
vn -0.613533 0.071304 0.786443
vn -0.613533 0.071304 0.786443
vn -0.613533 0.071304 0.786443
vn -0.140903 -0.131703 0.981224
vn -0.140903 -0.131703 0.981224
vn -0.140903 -0.131703 0.981224
vn -0.140903 -0.131703 0.981224
vn -0.140903 -0.131703 0.981224
vn -0.140903 -0.131703 0.981224
vn -0.683282 -0.709681 -0.171695
vn -0.683282 -0.709681 -0.171695
vn -0.683282 -0.709681 -0.171695
vn -0.124496 -0.963771 0.235893
vn -0.124496 -0.963771 0.235893
vn -0.124496 -0.963771 0.235893
vn -0.343404 0.104901 0.933311
vn -0.343404 0.104901 0.933311
vn -0.343404 0.104901 0.933311
vn -0.200503 -0.023300 0.979416
vn -0.200503 -0.023300 0.979416
vn -0.200503 -0.023300 0.979416
vn -0.778395 -0.010000 0.627696
vn -0.778395 -0.010000 0.627696
vn -0.778395 -0.010000 0.627696
vn -0.185700 -0.298400 0.936201
vn -0.185700 -0.298400 0.936201
vn -0.185700 -0.298400 0.936201
vn 0.191709 0.916841 0.350216
vn 0.191709 0.916841 0.350216
vn 0.191709 0.916841 0.350216
vn 0.712401 0.010100 0.701700
vn 0.712401 0.010100 0.701700
vn 0.712401 0.010100 0.701700
vn 0.000100 0.911996 0.410198
vn 0.000100 0.911996 0.410198
vn 0.000100 0.911996 0.410198
vn 0.233291 0.964262 -0.125595
vn 0.233291 0.964262 -0.125595
vn 0.233291 0.964262 -0.125595
vn 0.831709 -0.078001 0.549706
vn 0.831709 -0.078001 0.549706
vn 0.831709 -0.078001 0.549706
vn 0.560807 0.726610 -0.396905
vn 0.560807 0.726610 -0.396905
vn 0.560807 0.726610 -0.396905
vn 0.820204 -0.052000 0.569703
vn 0.820204 -0.052000 0.569703
vn 0.820204 -0.052000 0.569703
vn 0.233291 0.964262 -0.125595
vn 0.233291 0.964262 -0.125595
vn 0.233291 0.964262 -0.125595
vn 0.883824 0.410811 -0.223806
vn 0.883824 0.410811 -0.223806
vn 0.883824 0.410811 -0.223806
vn -0.702991 -0.694591 -0.152798
vn -0.702991 -0.694591 -0.152798
vn -0.702991 -0.694591 -0.152798
vn -0.599809 0.183103 0.778911
vn -0.599809 0.183103 0.778911
vn -0.599809 0.183103 0.778911
vn -0.688807 -0.715408 -0.117201
vn -0.688807 -0.715408 -0.117201
vn -0.688807 -0.715408 -0.117201
vn -0.052898 -0.990759 -0.124895
vn -0.052898 -0.990759 -0.124895
vn -0.052898 -0.990759 -0.124895
vn 0.216008 -0.953737 0.209108
vn 0.216008 -0.953737 0.209108
vn 0.216008 -0.953737 0.209108
vn 0.229108 -0.973335 0.011300
vn 0.229108 -0.973335 0.011300
vn 0.229108 -0.973335 0.011300
vn 0.892039 -0.254611 0.373416
vn 0.892039 -0.254611 0.373416
vn 0.892039 -0.254611 0.373416
vn 0.887412 -0.458706 0.045701
vn 0.887412 -0.458706 0.045701
vn 0.887412 -0.458706 0.045701
vn 0.916145 -0.211810 0.340317
vn 0.916145 -0.211810 0.340317
vn 0.916145 -0.211810 0.340317
vn 0.704535 -0.277814 0.653032
vn 0.704535 -0.277814 0.653032
vn 0.704535 -0.277814 0.653032
vn 0.018300 0.964595 -0.263099
vn 0.018300 0.964595 -0.263099
vn 0.018300 0.964595 -0.263099
vn 0.511285 0.852675 0.107397
vn 0.511285 0.852675 0.107397
vn 0.511285 0.852675 0.107397
vn 0.799419 -0.227305 -0.556113
vn 0.799419 -0.227305 -0.556113
vn 0.799419 -0.227305 -0.556113
vn 0.890277 0.213094 0.402490
vn 0.890277 0.213094 0.402490
vn 0.890277 0.213094 0.402490
vn 0.922127 0.007700 0.386811
vn 0.922127 0.007700 0.386811
vn 0.922127 0.007700 0.386811
vn 0.729894 0.481196 -0.485496
vn 0.729894 0.481196 -0.485496
vn 0.729894 0.481196 -0.485496
vn 0.686844 0.359723 -0.631541
vn 0.686844 0.359723 -0.631541
vn 0.686844 0.359723 -0.631541
vn 0.848889 0.188298 0.493894
vn 0.848889 0.188298 0.493894
vn 0.848889 0.188298 0.493894
vn 0.669279 -0.168395 -0.723677
vn 0.669279 -0.168395 -0.723677
vn 0.669279 -0.168395 -0.723677
vn 0.219000 0.447800 -0.866899
vn 0.219000 0.447800 -0.866899
vn 0.219000 0.447800 -0.866899
vn 0.605940 -0.355923 -0.711446
vn 0.605940 -0.355923 -0.711446
vn 0.605940 -0.355923 -0.711446
vn 0.491099 -0.840899 0.227400
vn 0.491099 -0.840899 0.227400
vn 0.491099 -0.840899 0.227400
vn 0.993159 -0.017199 0.115495
vn 0.993159 -0.017199 0.115495
vn 0.993159 -0.017199 0.115495
vn 0.681401 0.141500 0.718102
vn 0.681401 0.141500 0.718102
vn 0.681401 0.141500 0.718102
vn 0.332191 0.861778 -0.383390
vn 0.332191 0.861778 -0.383390
vn 0.332191 0.861778 -0.383390
vn 0.480703 0.565703 -0.670004
vn 0.480703 0.565703 -0.670004
vn 0.480703 0.565703 -0.670004
vn 0.780691 -0.363396 -0.508394
vn 0.780691 -0.363396 -0.508394
vn 0.780691 -0.363396 -0.508394
vn -0.347501 -0.615602 0.707303
vn -0.347501 -0.615602 0.707303
vn -0.347501 -0.615602 0.707303
vn -0.688504 -0.709804 -0.148801
vn -0.688504 -0.709804 -0.148801
vn -0.688504 -0.709804 -0.148801
vn -0.250708 0.183406 0.950530
vn -0.250708 0.183406 0.950530
vn -0.250708 0.183406 0.950530
vn -0.683282 -0.709681 -0.171695
vn -0.683282 -0.709681 -0.171695
vn -0.683282 -0.709681 -0.171695
vn -0.124496 -0.963771 0.235893
vn -0.124496 -0.963771 0.235893
vn -0.124496 -0.963771 0.235893
vn -0.702991 -0.694591 -0.152798
vn -0.702991 -0.694591 -0.152798
vn -0.702991 -0.694591 -0.152798
vn -0.763271 -0.477982 0.434684
vn -0.763271 -0.477982 0.434684
vn -0.763271 -0.477982 0.434684
vn -0.768094 -0.467296 0.437797
vn -0.768094 -0.467296 0.437797
vn -0.768094 -0.467296 0.437797
vn 0.117793 -0.831254 0.543270
vn 0.117793 -0.831254 0.543270
vn 0.117793 -0.831254 0.543270
vn -0.688504 -0.709804 -0.148801
vn -0.688504 -0.709804 -0.148801
vn -0.688504 -0.709804 -0.148801
vn 0.775243 0.594233 0.214212
vn 0.775243 0.594233 0.214212
vn 0.775243 0.594233 0.214212
vn 0.228704 0.963318 0.140403
vn 0.228704 0.963318 0.140403
vn 0.228704 0.963318 0.140403
vn 0.831709 -0.078001 0.549706
vn 0.831709 -0.078001 0.549706
vn 0.831709 -0.078001 0.549706
vn 0.560807 0.726610 -0.396905
vn 0.560807 0.726610 -0.396905
vn 0.560807 0.726610 -0.396905
vn 0.820204 -0.052000 0.569703
vn 0.820204 -0.052000 0.569703
vn 0.820204 -0.052000 0.569703
vn 0.883788 0.410894 -0.223797
vn 0.883788 0.410894 -0.223797
vn 0.883788 0.410894 -0.223797
vn 0.890829 0.259108 -0.373212
vn 0.890829 0.259108 -0.373212
vn 0.890829 0.259108 -0.373212
vn 0.590957 0.757845 0.276480
vn 0.590957 0.757845 0.276480
vn 0.590957 0.757845 0.276480
vn 0.645796 0.707395 0.287298
vn 0.645796 0.707395 0.287298
vn 0.645796 0.707395 0.287298
vn 0.228704 0.963318 0.140403
vn 0.228704 0.963318 0.140403
vn 0.228704 0.963318 0.140403
vn -0.409090 -0.413590 0.813381
vn -0.409090 -0.413590 0.813381
vn -0.409090 -0.413590 0.813381
vn -0.770711 -0.182103 0.610609
vn -0.770711 -0.182103 0.610609
vn -0.770711 -0.182103 0.610609
vn -0.200503 -0.023300 0.979416
vn -0.200503 -0.023300 0.979416
vn -0.200503 -0.023300 0.979416
vn -0.778395 -0.010000 0.627696
vn -0.778395 -0.010000 0.627696
vn -0.778395 -0.010000 0.627696
vn -0.185700 -0.298400 0.936201
vn -0.185700 -0.298400 0.936201
vn -0.185700 -0.298400 0.936201
vn -0.458696 0.133599 0.878493
vn -0.458696 0.133599 0.878493
vn -0.458696 0.133599 0.878493
vn -0.503987 -0.161496 0.848479
vn -0.503987 -0.161496 0.848479
vn -0.503987 -0.161496 0.848479
vn -0.770711 -0.182103 0.610609
vn -0.770711 -0.182103 0.610609
vn -0.770711 -0.182103 0.610609
vn 0.244090 -0.955562 0.165293
vn 0.244090 -0.955562 0.165293
vn 0.244090 -0.955562 0.165293
vn -0.350094 -0.907684 -0.231396
vn -0.350094 -0.907684 -0.231396
vn -0.350094 -0.907684 -0.231396
s off
g rock9
usemtl standardSurface1SG
f 3/1/1 1/2/2 2/3/3
f 1/4/4 4/5/5 2/6/6
f 5/7/7 1/4/8 3/8/9
f 1/4/10 6/9/11 4/5/12
f 7/10/13 1/4/14 5/7/15
f 7/10/16 6/9/17 1/4/18
f 4/5/19 6/9/20 7/10/21
f 7/10/22 8/11/23 9/12/24
f 8/11/25 7/10/26 5/7/27
f 9/12/28 4/5/29 7/10/30
f 2/13/31 4/14/32 9/15/33
f 2/13/34 9/15/35 11/16/36
f 8/17/37 10/18/38 9/19/39
f 12/20/40 9/12/41 10/21/42
f 12/20/43 11/22/44 9/12/45
f 12/20/46 10/21/47 8/11/48
f 12/20/49 8/11/50 13/23/51
f 14/24/52 11/25/53 12/26/54
f 12/26/55 13/27/56 14/24/57
f 17/28/58 15/29/59 14/24/60
f 45/30/61 15/31/62 20/32/63
f 11/25/64 14/24/65 16/33/66
f 46/34/67 23/35/68 47/36/69
f 13/27/70 17/28/71 14/24/72
f 45/37/73 44/38/74 15/39/75
f 18/40/76 45/41/77 20/42/78
f 16/33/79 50/43/80 19/44/81
f 49/45/82 21/46/83 22/47/84
f 47/36/85 21/48/86 48/49/87
f 15/29/88 43/50/89 14/24/90
f 50/43/91 22/47/92 19/44/93
f 23/35/94 18/40/95 25/51/96
f 25/51/97 24/52/98 23/35/99
f 18/40/100 26/53/101 25/51/102
f 25/54/103 26/55/104 28/56/105
f 25/54/106 27/57/107 24/58/108
f 27/57/109 69/59/110 19/60/111
f 28/56/112 69/59/113 25/54/114
f 29/61/115 19/60/116 28/56/117
f 29/61/118 28/56/119 26/55/120
f 39/62/121 54/63/122 53/64/123
f 30/65/124 19/60/125 29/61/126
f 26/66/127 53/64/128 52/67/129
f 30/65/130 31/68/131 19/60/132
f 32/69/133 31/70/134 30/71/135
f 33/72/136 34/73/137 32/69/138
f 30/71/139 33/72/140 32/69/141
f 32/74/142 16/33/143 19/44/144
f 32/74/145 19/44/146 31/75/147
f 32/74/148 34/76/149 16/33/150
f 11/25/151 16/33/152 34/76/153
f 2/77/154 11/78/155 34/79/156
f 34/73/157 33/72/158 35/80/159
f 2/77/160 34/79/161 35/81/162
f 37/82/163 36/83/164 35/84/165
f 2/77/166 35/81/167 36/85/168
f 39/62/169 37/86/170 38/87/171
f 38/88/172 37/89/173 35/90/174
f 2/3/175 36/91/176 37/86/177
f 2/3/178 37/86/179 39/62/180
f 40/92/181 65/93/182 64/94/183
f 40/92/184 64/94/185 20/95/186
f 55/96/187 38/97/188 35/80/189
f 26/55/190 57/98/191 29/61/192
f 26/66/193 20/95/194 39/62/195
f 3/1/196 65/93/197 40/92/198
f 3/1/199 67/99/200 66/100/201
f 64/94/202 39/62/203 20/95/204
f 5/101/205 3/102/206 40/103/207
f 41/104/208 40/103/209 20/105/210
f 5/101/211 40/103/212 41/104/213
f 63/106/214 13/23/215 5/7/216
f 59/107/217 41/104/218 20/105/219
f 62/108/220 17/109/221 13/110/222
f 15/111/223 59/107/224 20/105/225
f 63/106/226 62/112/227 13/23/228
f 17/109/229 60/113/230 15/111/231
f 35/80/232 56/114/233 55/96/234
f 39/62/235 38/87/236 54/63/237
f 35/80/238 33/72/239 30/71/240
f 27/57/241 19/60/242 22/115/243
f 27/57/244 42/116/245 24/58/246
f 22/115/247 42/116/248 27/57/249
f 21/48/250 23/35/251 42/117/252
f 21/118/253 42/116/254 22/115/255
f 23/35/256 24/52/257 42/117/258
f 20/42/259 26/53/260 18/40/261
f 8/11/262 5/7/263 13/23/264
f 48/49/265 51/119/266 46/34/267
f 43/50/268 16/33/269 14/24/270
f 46/34/271 18/40/272 23/35/273
f 18/40/274 46/34/275 45/41/276
f 16/33/277 51/120/278 50/43/279
f 49/45/280 48/121/281 21/46/282
f 47/36/283 23/35/284 21/48/285
f 15/29/286 44/122/287 43/50/288
f 50/43/289 49/45/290 22/47/291
f 51/120/292 43/50/293 44/122/294
f 44/123/295 45/124/296 51/125/297
f 45/41/298 46/34/299 51/119/300
f 46/34/301 47/36/302 48/49/303
f 48/126/304 49/127/305 50/128/306
f 50/43/307 51/120/308 48/121/309
f 43/50/310 51/120/311 16/33/312
f 55/129/313 56/130/314 53/131/315
f 29/132/316 56/114/317 30/71/318
f 26/66/319 39/62/320 53/64/321
f 55/96/322 54/133/323 38/97/324
f 26/55/325 52/134/326 57/98/327
f 35/80/328 30/71/329 56/114/330
f 57/135/331 52/136/332 56/114/333
f 52/136/334 53/137/335 56/114/336
f 53/138/337 54/139/338 55/140/339
f 29/132/340 57/135/341 56/114/342
f 62/108/343 63/141/344 59/107/345
f 63/141/346 41/104/347 58/142/348
f 59/107/349 58/142/350 41/104/351
f 62/108/352 61/143/353 17/109/354
f 15/111/355 60/113/356 59/107/357
f 17/109/358 61/143/359 60/113/360
f 63/144/361 58/145/362 59/146/363
f 59/107/364 60/113/365 61/143/366
f 61/143/367 62/108/368 59/107/369
f 63/141/370 5/101/371 41/104/372
f 65/93/373 66/100/374 67/99/375
f 39/62/376 67/99/377 2/3/378
f 3/1/379 66/100/380 65/93/381
f 3/1/382 2/3/383 67/99/384
f 64/94/385 68/147/386 39/62/387
f 68/147/388 64/94/389 67/99/390
f 64/94/391 65/93/392 67/99/393
f 39/62/394 68/147/395 67/99/396
f 27/57/397 25/54/398 69/59/399
f 28/148/400 19/149/401 69/150/402
