# This file uses centimeters as units for non-parametric coordinates.

mtllib rock_66.mtl
g default
v -0.394129 0.921376 0.287117
v 0.987054 -0.015019 0.495270
v 0.973777 0.331952 -0.322704
v -0.633683 0.460805 0.644891
v -0.524964 0.857049 -0.243758
v 0.772928 -0.122756 0.800317
v -0.777871 0.589220 -0.254106
v 0.070033 0.178876 0.833652
v 0.822716 0.418505 0.388801
v -0.926052 -0.088209 0.502044
v -0.876847 -0.101694 0.660975
v -1.012110 -0.134600 0.331289
v -0.764213 -0.419675 0.372541
v -0.986821 -0.268766 0.138989
v -0.738963 -0.588720 0.608062
v 0.784083 -0.338859 -0.539955
v -0.763778 0.309773 -0.802385
v -0.511587 0.800579 -0.833652
v -0.128750 0.942771 -0.827536
v 0.256746 0.263966 -0.832144
v 0.689188 0.616900 -0.737291
v 0.864783 0.421851 -0.751320
v 0.994098 0.227597 -0.673563
v 1.012110 0.410179 -0.556813
v -0.427560 0.960085 -0.589303
v 0.944484 0.340568 0.207582
v 0.949281 0.225307 0.459314
v 0.185982 -0.945923 0.658932
v 0.362991 -0.947804 0.570957
v 0.398635 -0.892482 0.672567
v 0.384019 -0.882357 0.713261
v 0.284533 -0.868920 0.714648
v 0.232628 -0.889109 0.693204
v 0.174160 -0.960085 0.685808
v 0.278883 0.713505 0.361923
vt 0.400370 1.000000
vt 0.306507 0.580657
vt 0.400370 0.560995
vt 0.949729 0.608407
vt 1.000000 0.871474
vt 0.936174 0.770386
vt 0.765701 0.839112
vt 0.849478 0.430814
vt 0.936174 0.472135
vt 0.917195 0.656034
vt 0.910235 0.818043
vt 0.502893 0.041248
vt 0.660096 0.024919
vt 0.776200 0.135631
vt 0.254809 0.978984
vt 0.260019 0.775345
vt 0.730360 0.270368
vt 0.642816 0.261523
vt 0.477504 0.083238
vt 0.510682 0.000000
vt 0.445678 0.066508
vt 0.819761 0.096876
vt 0.790048 0.094530
vt 0.819761 0.000000
vt 0.092381 0.489889
vt 0.021971 0.436522
vt 0.000000 0.141679
vt 0.776200 0.059435
vt 0.419428 0.000093
vt 0.419428 0.171691
vt 0.674119 0.452082
vt 0.461288 0.621295
vt 0.647609 0.438457
vt 0.223196 0.919521
vt 0.005892 0.966095
vt 0.000000 0.766882
vt 0.254809 0.641250
vt 0.233065 0.908408
vt 0.004136 0.563787
vt 0.454611 0.529185
vt 0.363906 0.552500
vt 0.118665 0.560995
vt 0.239267 0.065446
vt 0.701004 0.422493
vt 0.566558 0.395770
vt 0.016682 0.047354
vt 0.093639 0.000000
vt 0.445275 0.129430
vt 0.417282 0.048498
vt 0.312564 0.003358
vt 0.369073 0.014650
vt 0.543555 0.950435
vt 0.512301 0.912554
vt 0.565604 0.913581
vt 0.499416 0.848368
vt 0.674119 0.799264
vt 0.706483 0.831159
vt 0.674119 0.725748
vt 0.511786 0.964808
vt 0.688636 0.493882
vt 0.759996 0.430057
vt 0.752990 0.364869
vt 0.776200 0.430057
vt 0.154599 0.560995
vt 0.956756 0.827502
vt 0.872807 0.849309
vt 0.936174 0.872199
vt 0.429484 0.730196
vt 0.419428 0.659229
vt 0.237633 0.942684
vt 0.402664 0.521102
vt 0.217253 0.944906
vt 0.254809 0.901088
vt 0.641000 0.430057
vt 0.363075 0.560995
vt 0.419428 0.583276
vt 0.412432 0.579355
vt 0.419428 0.560995
vt 0.251152 0.901867
vt 0.219238 0.948416
vt 0.405940 0.593149
vt 0.400370 0.586587
vt 0.405940 0.560995
vt 1.000000 0.430057
vn 0.411902 0.729066 0.546625
vn 0.411902 0.729066 0.546625
vn 0.411902 0.729066 0.546625
vn 0.100895 0.273187 0.956655
vn 0.100895 0.273187 0.956655
vn 0.100895 0.273187 0.956655
vn 0.315688 0.929565 -0.190393
vn 0.315688 0.929565 -0.190393
vn 0.315688 0.929565 -0.190393
vn 0.476994 0.878889 -0.005600
vn 0.476994 0.878889 -0.005600
vn 0.476994 0.878889 -0.005600
vn -0.883714 0.467907 0.010600
vn -0.883714 0.467907 0.010600
vn -0.883714 0.467907 0.010600
vn 0.028300 0.603991 0.796488
vn 0.028300 0.603991 0.796488
vn 0.028300 0.603991 0.796488
vn -0.725532 0.681430 0.096204
vn -0.725532 0.681430 0.096204
vn -0.725532 0.681430 0.096204
vn 0.324487 0.683872 0.653473
vn 0.324487 0.683872 0.653473
vn 0.324487 0.683872 0.653473
vn -0.823180 0.493488 0.280793
vn -0.823180 0.493488 0.280793
vn -0.823180 0.493488 0.280793
vn -0.823180 0.493488 0.280793
vn -0.823180 0.493488 0.280793
vn -0.823180 0.493488 0.280793
vn -0.871683 0.385493 0.302594
vn -0.871683 0.385493 0.302594
vn -0.871683 0.385493 0.302594
vn -0.840626 -0.495715 0.218207
vn -0.840626 -0.495715 0.218207
vn -0.840626 -0.495715 0.218207
vn -0.690906 -0.529605 0.492105
vn -0.690906 -0.529605 0.492105
vn -0.690906 -0.529605 0.492105
vn -0.022500 -0.849387 -0.527292
vn -0.022500 -0.849387 -0.527292
vn -0.022500 -0.849387 -0.527292
vn -0.737670 -0.595376 0.318387
vn -0.737670 -0.595376 0.318387
vn -0.737670 -0.595376 0.318387
vn -0.961050 -0.262786 -0.085596
vn -0.961050 -0.262786 -0.085596
vn -0.961050 -0.262786 -0.085596
vn -0.257596 -0.820888 -0.509693
vn -0.257596 -0.820888 -0.509693
vn -0.257596 -0.820888 -0.509693
vn 0.831510 -0.555407 0.010700
vn 0.831510 -0.555407 0.010700
vn 0.831510 -0.555407 0.010700
vn -0.001400 -0.113098 0.993583
vn -0.001400 -0.113098 0.993583
vn -0.001400 -0.113098 0.993583
vn -0.095104 -0.025401 0.995143
vn -0.095104 -0.025401 0.995143
vn -0.095104 -0.025401 0.995143
vn 0.796794 -0.453697 0.399097
vn 0.796794 -0.453697 0.399097
vn 0.796794 -0.453697 0.399097
vn -0.318606 -0.171103 0.932317
vn -0.318606 -0.171103 0.932317
vn -0.318606 -0.171103 0.932317
vn -0.277101 -0.794402 -0.540501
vn -0.277101 -0.794402 -0.540501
vn -0.277101 -0.794402 -0.540501
vn -0.046801 -0.468510 -0.882218
vn -0.046801 -0.468510 -0.882218
vn -0.046801 -0.468510 -0.882218
vn -0.889298 0.452899 -0.063500
vn -0.889298 0.452899 -0.063500
vn -0.889298 0.452899 -0.063500
vn 0.048700 -0.088399 -0.994894
vn 0.048700 -0.088399 -0.994894
vn 0.048700 -0.088399 -0.994894
vn -0.029600 -0.010000 -0.999512
vn -0.029600 -0.010000 -0.999512
vn -0.029600 -0.010000 -0.999512
vn -0.674611 0.650511 -0.348906
vn -0.674611 0.650511 -0.348906
vn -0.674611 0.650511 -0.348906
vn -0.975871 0.183395 -0.118497
vn -0.975871 0.183395 -0.118497
vn -0.975871 0.183395 -0.118497
vn 0.187409 -0.290814 -0.938246
vn 0.187409 -0.290814 -0.938246
vn 0.187409 -0.290814 -0.938246
vn 0.144002 0.088501 -0.985612
vn 0.144002 0.088501 -0.985612
vn 0.144002 0.088501 -0.985612
vn 0.091104 0.152807 -0.984048
vn 0.091104 0.152807 -0.984048
vn 0.091104 0.152807 -0.984048
vn 0.191603 -0.252204 -0.948515
vn 0.191603 -0.252204 -0.948515
vn 0.191603 -0.252204 -0.948515
vn 0.771912 0.286704 -0.567409
vn 0.771912 0.286704 -0.567409
vn 0.771912 0.286704 -0.567409
vn 0.980730 -0.164305 0.105703
vn 0.980730 -0.164305 0.105703
vn 0.980730 -0.164305 0.105703
vn 0.938197 -0.313099 0.147499
vn 0.938197 -0.313099 0.147499
vn 0.938197 -0.313099 0.147499
vn 0.359601 0.865704 0.348201
vn 0.359601 0.865704 0.348201
vn 0.359601 0.865704 0.348201
vn 0.646288 0.614388 -0.452591
vn 0.646288 0.614388 -0.452591
vn 0.646288 0.614388 -0.452591
vn 0.303508 0.869622 0.389410
vn 0.303508 0.869622 0.389410
vn 0.303508 0.869622 0.389410
vn 0.326082 0.878051 0.350281
vn 0.326082 0.878051 0.350281
vn 0.326082 0.878051 0.350281
vn 0.333204 0.873712 0.354405
vn 0.333204 0.873712 0.354405
vn 0.333204 0.873712 0.354405
vn -0.305610 0.842027 -0.444514
vn -0.305610 0.842027 -0.444514
vn -0.305610 0.842027 -0.444514
vn -0.833220 0.548313 -0.071402
vn -0.833220 0.548313 -0.071402
vn -0.833220 0.548313 -0.071402
vn 0.964988 -0.235497 -0.115499
vn 0.964988 -0.235497 -0.115499
vn 0.964988 -0.235497 -0.115499
vn 0.188100 -0.053300 0.980702
vn 0.188100 -0.053300 0.980702
vn 0.188100 -0.053300 0.980702
vn -0.966067 0.134195 -0.220693
vn -0.966067 0.134195 -0.220693
vn -0.966067 0.134195 -0.220693
vn -0.395882 0.074697 0.915258
vn -0.395882 0.074697 0.915258
vn -0.395882 0.074697 0.915258
vn 0.557084 0.830276 0.017300
vn 0.557084 0.830276 0.017300
vn 0.557084 0.830276 0.017300
vn 0.762618 0.593514 0.257206
vn 0.762618 0.593514 0.257206
vn 0.762618 0.593514 0.257206
vn 0.985008 0.163201 0.055900
vn 0.985008 0.163201 0.055900
vn 0.985008 0.163201 0.055900
vn 0.985753 0.159992 0.051898
vn 0.985753 0.159992 0.051898
vn 0.985753 0.159992 0.051898
vn 0.111701 -0.844110 0.524406
vn 0.111701 -0.844110 0.524406
vn 0.111701 -0.844110 0.524406
vn -0.277101 -0.794402 -0.540501
vn -0.277101 -0.794402 -0.540501
vn -0.277101 -0.794402 -0.540501
vn 0.831510 -0.555407 0.010700
vn 0.831510 -0.555407 0.010700
vn 0.831510 -0.555407 0.010700
vn -0.001400 -0.113098 0.993583
vn -0.001400 -0.113098 0.993583
vn -0.001400 -0.113098 0.993583
vn -0.095104 -0.025401 0.995143
vn -0.095104 -0.025401 0.995143
vn -0.095104 -0.025401 0.995143
vn 0.796794 -0.453697 0.399097
vn 0.796794 -0.453697 0.399097
vn 0.796794 -0.453697 0.399097
vn -0.318606 -0.171103 0.932317
vn -0.318606 -0.171103 0.932317
vn -0.318606 -0.171103 0.932317
vn -0.277101 -0.794402 -0.540501
vn -0.277101 -0.794402 -0.540501
vn -0.277101 -0.794402 -0.540501
vn 0.771597 -0.636097 0.004300
vn 0.771597 -0.636097 0.004300
vn 0.771597 -0.636097 0.004300
vn 0.324808 -0.669617 0.667917
vn 0.324808 -0.669617 0.667917
vn 0.324808 -0.669617 0.667917
vn -0.004400 -0.877589 0.479394
vn -0.004400 -0.877589 0.479394
vn -0.004400 -0.877589 0.479394
vn -0.128599 -0.972196 0.195699
vn -0.128599 -0.972196 0.195699
vn -0.128599 -0.972196 0.195699
vn -0.277101 -0.794402 -0.540501
vn -0.277101 -0.794402 -0.540501
vn -0.277101 -0.794402 -0.540501
vn -0.077402 0.106203 0.991327
vn -0.077402 0.106203 0.991327
vn -0.077402 0.106203 0.991327
vn 0.309491 0.928873 -0.203494
vn 0.309491 0.928873 -0.203494
vn 0.309491 0.928873 -0.203494
s off
g rock65
usemtl standardSurface1SG
f 1/1/1 6/2/2 2/3/3
f 35/4/4 2/5/5 9/6/6
f 3/7/7 5/8/8 1/9/9
f 3/7/10 35/10/11 9/11/12
f 10/12/13 4/13/14 1/14/15
f 1/1/16 4/15/17 8/16/18
f 5/17/19 7/18/20 1/14/21
f 1/1/22 8/16/23 6/2/24
f 10/12/25 1/14/26 7/18/27
f 10/12/28 7/18/29 12/19/30
f 10/12/31 11/20/32 4/13/33
f 13/21/34 11/20/35 10/12/36
f 10/22/37 12/23/38 13/24/39
f 13/25/40 14/26/41 17/27/42
f 12/23/43 14/28/44 13/24/45
f 13/21/46 15/29/47 11/20/48
f 13/25/49 17/27/50 16/30/51
f 29/31/52 2/32/53 30/33/54
f 32/34/55 6/35/56 8/36/57
f 15/37/58 33/38/59 4/39/60
f 6/40/61 30/33/62 2/32/63
f 33/38/64 8/36/65 4/39/66
f 28/41/67 15/42/68 13/25/69
f 17/27/70 20/43/71 16/30/72
f 18/44/73 17/45/74 5/17/75
f 17/27/76 18/46/77 19/47/78
f 17/27/79 19/47/80 20/43/81
f 5/17/82 17/45/83 7/18/84
f 14/48/85 7/18/86 17/45/87
f 23/49/88 16/30/89 20/43/90
f 21/50/91 20/43/92 19/47/93
f 21/50/94 22/51/95 20/43/96
f 23/49/97 20/43/98 22/51/99
f 22/52/100 24/53/101 23/54/102
f 23/54/103 24/53/104 3/55/105
f 23/54/106 3/55/107 16/56/108
f 3/7/109 24/57/110 21/58/111
f 22/52/112 21/59/113 24/53/114
f 3/7/115 21/58/116 19/60/117
f 19/60/118 5/8/119 3/7/120
f 19/60/121 25/61/122 5/8/123
f 25/62/124 19/63/125 18/44/126
f 5/17/127 25/62/128 18/44/129
f 16/56/130 3/55/131 2/32/132
f 4/39/133 11/64/134 15/37/135
f 14/48/136 12/19/137 7/18/138
f 9/6/139 2/5/140 27/65/141
f 3/7/142 9/11/143 26/66/144
f 26/66/145 9/11/146 27/67/147
f 26/68/148 27/69/149 2/32/150
f 26/68/151 2/32/152 3/55/153
f 32/34/154 33/38/155 29/70/156
f 29/71/157 13/25/158 16/30/159
f 29/31/160 16/56/161 2/32/162
f 32/34/163 31/72/164 6/35/165
f 15/37/166 34/73/167 33/38/168
f 6/40/169 31/74/170 30/33/171
f 33/38/172 32/34/173 8/36/174
f 28/41/175 34/75/176 15/42/177
f 34/76/178 28/77/179 33/78/180
f 28/79/181 29/70/182 33/38/183
f 29/70/184 30/80/185 32/34/186
f 30/81/187 31/82/188 32/83/189
f 29/71/190 28/41/191 13/25/192
f 35/4/193 1/84/194 2/5/195
f 3/7/196 1/9/197 35/10/198
