# This file uses centimeters as units for non-parametric coordinates.

mtllib rock_34.mtl
g default
v 0.085052 0.060255 0.251916
v -0.322856 -0.057509 -0.112688
v -0.054877 -0.207371 0.215429
v -0.104319 0.141548 0.142970
v -0.258504 -0.180614 -0.117949
v -0.156568 -0.064926 -0.256166
v 0.086320 -0.173520 -0.229363
v 0.153823 0.008792 -0.263665
v 0.321021 -0.145047 -0.111104
v 0.117393 0.020019 -0.283140
v 0.206590 0.198773 -0.160635
v -0.034583 0.162302 -0.197366
v 0.077050 0.207371 0.021114
v 0.300585 0.087273 -0.172803
v 0.178010 0.072131 0.283141
v 0.089162 0.165980 0.198837
v 0.199065 -0.151155 0.236719
v -0.244301 -0.044419 0.117039
v -0.284843 -0.078449 0.063444
v -0.271143 -0.103298 0.066031
v -0.234645 -0.106248 0.130258
v -0.230680 -0.066501 0.128064
v 0.290545 -0.192975 0.023412
v 0.322856 -0.181395 0.013739
v 0.320324 -0.155792 0.030577
v 0.303173 -0.158487 0.095023
v 0.293413 -0.185223 0.106111
v 0.274684 -0.197577 0.083853
vt 0.509970 0.409153
vt 0.540581 0.563147
vt 0.428866 0.532956
vt 0.000000 0.886098
vt 0.176276 1.000000
vt 0.035355 0.940155
vt 0.507960 0.343460
vt 0.407032 0.184203
vt 0.532318 0.418215
vt 0.699516 0.256341
vt 0.540529 0.342007
vt 0.615853 0.074566
vt 0.779369 0.925025
vt 0.826272 0.608814
vt 0.931607 0.758409
vt 0.931721 0.563147
vt 0.084953 0.077664
vt 0.407032 0.000000
vt 0.407032 0.325062
vt 0.931721 0.983688
vt 0.429994 0.914502
vt 0.407032 0.771794
vt 0.428930 0.762116
vt 0.608129 0.982592
vt 1.000000 0.000000
vt 1.000000 0.238296
vt 0.870843 0.179084
vt 0.858355 0.214939
vt 0.699516 0.289331
vt 0.871270 0.433491
vt 0.708573 0.077036
vt 0.323777 0.892098
vt 0.310178 0.713034
vt 0.014257 0.710544
vt 0.150954 0.564531
vt 0.323777 0.494960
vt 0.673844 0.563147
vt 0.779369 0.808359
vt 0.779369 0.614241
vt 0.714230 0.949388
vt 0.002954 0.531848
vt 0.699516 0.107566
vt 0.616320 0.000000
vt 0.423055 0.025082
vt 0.000000 0.293902
vt 0.105172 0.395640
vt 0.081952 0.406735
vt 0.470658 0.585002
vt 0.438703 0.702939
vt 0.420151 0.685439
vt 0.818678 0.017333
vt 0.559874 0.357015
vt 0.087664 0.421035
vt 0.249394 0.494960
vt 0.149805 0.426429
vt 0.148894 0.457866
vt 0.135252 0.453827
vn -0.875777 -0.463559 0.134643
vn -0.875777 -0.463559 0.134643
vn -0.875777 -0.463559 0.134643
vn -0.789314 0.566110 0.237704
vn -0.789314 0.566110 0.237704
vn -0.789314 0.566110 0.237704
vn -0.569117 -0.771023 0.285709
vn -0.569117 -0.771023 0.285709
vn -0.569117 -0.771023 0.285709
vn -0.873789 -0.467794 0.132898
vn -0.873789 -0.467794 0.132898
vn -0.873789 -0.467794 0.132898
vn -0.424994 0.194797 0.883988
vn -0.424994 0.194797 0.883988
vn -0.424994 0.194797 0.883988
vn -0.217605 -0.663516 -0.715817
vn -0.217605 -0.663516 -0.715817
vn -0.217605 -0.663516 -0.715817
vn -0.630984 -0.299192 -0.715782
vn -0.630984 -0.299192 -0.715782
vn -0.630984 -0.299192 -0.715782
vn -0.004500 -0.996998 -0.077300
vn -0.004500 -0.996998 -0.077300
vn -0.004500 -0.996998 -0.077300
vn -0.012501 -0.265812 -0.963944
vn -0.012501 -0.265812 -0.963944
vn -0.012501 -0.265812 -0.963944
vn 0.803800 -0.047500 0.593000
vn 0.803800 -0.047500 0.593000
vn 0.803800 -0.047500 0.593000
vn 0.803800 -0.047500 0.593000
vn 0.803800 -0.047500 0.593000
vn 0.803800 -0.047500 0.593000
vn 0.456689 -0.324892 -0.828179
vn 0.456689 -0.324892 -0.828179
vn 0.456689 -0.324892 -0.828179
vn 0.374710 -0.303608 -0.876022
vn 0.374710 -0.303608 -0.876022
vn 0.374710 -0.303608 -0.876022
vn -0.196910 0.343317 -0.918346
vn -0.196910 0.343317 -0.918346
vn -0.196910 0.343317 -0.918346
vn 0.519290 0.291394 -0.803385
vn 0.519290 0.291394 -0.803385
vn 0.519290 0.291394 -0.803385
vn 0.043898 0.549773 -0.834160
vn 0.043898 0.549773 -0.834160
vn 0.043898 0.549773 -0.834160
vn -0.562009 0.476608 -0.676011
vn -0.562009 0.476608 -0.676011
vn -0.562009 0.476608 -0.676011
vn -0.619104 0.781305 -0.079201
vn -0.619104 0.781305 -0.079201
vn -0.619104 0.781305 -0.079201
vn -0.127595 0.982264 -0.137395
vn -0.127595 0.982264 -0.137395
vn -0.127595 0.982264 -0.137395
vn -0.349716 0.936743 -0.014501
vn -0.349716 0.936743 -0.014501
vn -0.349716 0.936743 -0.014501
vn 0.583893 0.790890 0.183198
vn 0.583893 0.790890 0.183198
vn 0.583893 0.790890 0.183198
vn 0.698604 0.537303 0.472502
vn 0.698604 0.537303 0.472502
vn 0.698604 0.537303 0.472502
vn 0.660689 0.739788 0.127298
vn 0.660689 0.739788 0.127298
vn 0.660689 0.739788 0.127298
vn -0.188301 0.953606 0.234901
vn -0.188301 0.953606 0.234901
vn -0.188301 0.953606 0.234901
vn -0.300001 0.437301 0.847802
vn -0.300001 0.437301 0.847802
vn -0.300001 0.437301 0.847802
vn -0.336186 0.432982 0.836365
vn -0.336186 0.432982 0.836365
vn -0.336186 0.432982 0.836365
vn -0.285105 -0.220804 0.932717
vn -0.285105 -0.220804 0.932717
vn -0.285105 -0.220804 0.932717
vn 0.172209 -0.915650 0.363220
vn 0.172209 -0.915650 0.363220
vn 0.172209 -0.915650 0.363220
vn 0.995808 0.090701 0.011800
vn 0.995808 0.090701 0.011800
vn 0.995808 0.090701 0.011800
vn -0.060198 -0.103896 0.992765
vn -0.060198 -0.103896 0.992765
vn -0.060198 -0.103896 0.992765
vn 0.921699 0.290200 0.257400
vn 0.921699 0.290200 0.257400
vn 0.921699 0.290200 0.257400
vn -0.000800 -0.997100 -0.076100
vn -0.000800 -0.997100 -0.076100
vn -0.000800 -0.997100 -0.076100
vn 0.580314 -0.161004 -0.798319
vn 0.580314 -0.161004 -0.798319
vn 0.580314 -0.161004 -0.798319
vn 0.334098 0.375998 -0.864294
vn 0.334098 0.375998 -0.864294
vn 0.334098 0.375998 -0.864294
vn -0.861592 0.113299 0.494795
vn -0.861592 0.113299 0.494795
vn -0.861592 0.113299 0.494795
vn -0.385087 0.089097 0.918569
vn -0.385087 0.089097 0.918569
vn -0.385087 0.089097 0.918569
vn -0.791569 0.562578 0.238591
vn -0.791569 0.562578 0.238591
vn -0.791569 0.562578 0.238591
vn -0.565919 -0.773225 0.286109
vn -0.565919 -0.773225 0.286109
vn -0.565919 -0.773225 0.286109
vn -0.415083 0.188392 0.890064
vn -0.415083 0.188392 0.890064
vn -0.415083 0.188392 0.890064
vn -0.774400 -0.174000 0.608300
vn -0.774400 -0.174000 0.608300
vn -0.774400 -0.174000 0.608300
vn -0.663191 -0.293996 0.688291
vn -0.663191 -0.293996 0.688291
vn -0.663191 -0.293996 0.688291
vn -0.391589 0.079798 0.916674
vn -0.391589 0.079798 0.916674
vn -0.391589 0.079798 0.916674
vn 0.788981 -0.457889 -0.409690
vn 0.788981 -0.457889 -0.409690
vn 0.788981 -0.457889 -0.409690
vn 0.250695 -0.928482 -0.273995
vn 0.250695 -0.928482 -0.273995
vn 0.250695 -0.928482 -0.273995
vn 0.172203 -0.915617 0.363307
vn 0.172203 -0.915617 0.363307
vn 0.172203 -0.915617 0.363307
vn 0.995808 0.090701 0.011800
vn 0.995808 0.090701 0.011800
vn 0.995808 0.090701 0.011800
vn 0.921699 0.290200 0.257400
vn 0.921699 0.290200 0.257400
vn 0.921699 0.290200 0.257400
vn -0.000800 -0.997100 -0.076100
vn -0.000800 -0.997100 -0.076100
vn -0.000800 -0.997100 -0.076100
vn 0.776188 -0.610591 0.157198
vn 0.776188 -0.610591 0.157198
vn 0.776188 -0.610591 0.157198
vn 0.404113 -0.474315 0.782124
vn 0.404113 -0.474315 0.782124
vn 0.404113 -0.474315 0.782124
vn 0.752088 -0.635790 0.173597
vn 0.752088 -0.635790 0.173597
vn 0.752088 -0.635790 0.173597
vn 0.250695 -0.928482 -0.273995
vn 0.250695 -0.928482 -0.273995
vn 0.250695 -0.928482 -0.273995
s off
g rock33
usemtl standardSurface1SG
f 20/1/1 2/2/2 5/3/3
f 18/4/4 2/5/5 19/6/6
f 21/7/7 5/3/8 3/8/9
f 20/1/10 19/9/11 2/2/12
f 4/10/13 22/11/14 1/12/15
f 7/13/16 5/14/17 6/15/18
f 6/15/19 5/14/20 2/16/21
f 3/17/22 5/18/23 7/19/24
f 10/20/25 7/13/26 6/15/27
f 17/21/28 27/22/29 26/23/30
f 17/21/31 26/23/32 15/24/33
f 9/25/34 7/26/35 8/27/36
f 10/28/37 8/27/38 7/26/39
f 12/29/40 10/28/41 6/30/42
f 11/31/43 8/27/44 10/28/45
f 11/31/46 10/28/47 12/29/48
f 6/32/49 2/5/50 12/33/51
f 12/33/52 2/5/53 4/34/54
f 13/35/55 11/36/56 12/33/57
f 12/33/58 4/34/59 13/35/60
f 15/24/61 14/37/62 13/38/63
f 14/37/64 11/39/65 13/38/66
f 16/40/67 15/24/68 13/38/69
f 13/35/70 4/34/71 16/41/72
f 16/42/73 4/10/74 1/12/75
f 16/42/76 1/12/77 15/43/78
f 17/44/79 15/43/80 1/12/81
f 17/45/82 28/46/83 27/47/84
f 9/48/85 25/49/86 24/50/87
f 17/44/88 1/12/89 3/8/90
f 26/23/91 14/37/92 15/24/93
f 7/19/94 28/46/95 3/17/96
f 9/25/97 8/27/98 14/51/99
f 11/31/100 14/51/101 8/27/102
f 20/1/103 21/7/104 22/11/105
f 3/8/106 22/11/107 21/7/108
f 18/4/109 4/34/110 2/5/111
f 21/7/112 20/1/113 5/3/114
f 4/10/115 18/52/116 22/11/117
f 22/11/118 18/52/119 20/1/120
f 18/52/121 19/9/122 20/1/123
f 3/8/124 1/12/125 22/11/126
f 26/53/127 27/47/128 28/46/129
f 9/54/130 23/55/131 7/19/132
f 17/45/133 3/17/134 28/46/135
f 9/48/136 14/37/137 25/49/138
f 26/23/139 25/49/140 14/37/141
f 7/19/142 23/55/143 28/46/144
f 28/46/145 23/55/146 26/53/147
f 23/55/148 24/56/149 25/57/150
f 26/53/151 23/55/152 25/57/153
f 9/54/154 24/56/155 23/55/156
