# This file uses centimeters as units for non-parametric coordinates.

mtllib rock_36.mtl
g default
v -0.204629 0.117741 -0.067779
v -0.164488 -0.104734 0.218264
v 0.127305 -0.083417 0.229895
v 0.139060 0.081675 0.227984
v 0.053892 0.138283 0.126678
v 0.025389 -0.138283 0.004780
v 0.272261 0.118074 0.005914
v 0.058641 0.134806 -0.164086
v -0.336440 -0.111344 -0.013029
v -0.336844 -0.060645 -0.069718
v -0.317497 -0.106135 -0.104643
v 0.297992 -0.105597 0.028986
v 0.300865 -0.075688 -0.037573
v 0.336844 -0.054645 0.025880
v 0.309628 -0.097431 0.064323
v 0.308559 0.030945 0.013755
v -0.070907 0.111825 -0.108621
v 0.020216 0.036268 -0.204683
v -0.062490 -0.053175 -0.229895
v -0.049675 -0.020829 -0.222519
v -0.032778 -0.012246 -0.220072
v -0.003796 -0.009117 -0.229692
v 0.008696 -0.027552 -0.222215
v 0.014839 -0.048492 -0.224823
v -0.014853 -0.060212 -0.207783
v -0.035707 -0.050393 -0.206625
vt 0.443768 0.555641
vt 0.443768 0.700699
vt 0.389286 0.584965
vt 0.782066 0.766104
vt 1.000000 0.892526
vt 0.947675 0.917878
vt 0.895105 0.475513
vt 0.582466 0.475513
vt 0.657393 0.245605
vt 0.766518 0.779566
vt 0.597777 0.795297
vt 0.782066 0.475513
vt 0.536479 0.191396
vt 0.258577 0.251611
vt 0.303932 0.000000
vt 0.536479 0.703791
vt 0.203685 0.624495
vt 0.181982 0.983251
vt 0.000000 0.637633
vt 0.114778 0.968982
vt 0.164479 1.000000
vt 0.906084 0.510742
vt 0.950987 0.562211
vt 0.807981 0.623967
vt 0.782066 0.961662
vt 0.559822 0.925083
vt 0.389286 0.792189
vt 0.203685 0.792189
vt 0.252403 0.555642
vt 0.958051 0.578554
vt 0.740438 0.000000
vt 0.913155 0.331168
vt 0.536479 0.173831
vt 0.990178 0.592690
vt 0.992161 0.947935
vt 0.464766 0.555642
vt 0.536479 0.491141
vt 0.047400 0.061535
vt 0.006033 0.039364
vt 0.058121 0.024756
vt 0.113740 0.448445
vt 0.000000 0.114861
vt 0.087175 0.594859
vt 0.649870 0.961218
vt 0.165998 0.464736
vt 0.171851 0.555642
vt 0.738243 0.989244
vt 0.948961 0.189702
vt 0.203685 0.978025
vt 0.009036 0.921634
vt 0.805977 0.475513
vt 0.987593 0.576203
vt 0.971376 0.524400
vt 1.000000 0.557482
vt 0.952238 0.530423
vt 0.149959 0.452848
vt 0.479979 0.593693
vt 0.443768 0.589680
vt 0.464278 0.560188
vt 0.479979 0.555642
vt 0.993538 0.520738
vt 0.174009 0.500815
vn -0.710850 0.521738 0.471679
vn -0.710850 0.521738 0.471679
vn -0.710850 0.521738 0.471679
vn -0.503181 0.381385 -0.775470
vn -0.503181 0.381385 -0.775470
vn -0.503181 0.381385 -0.775470
vn -0.486728 0.655137 0.577833
vn -0.486728 0.655137 0.577833
vn -0.486728 0.655137 0.577833
vn -0.040898 0.014499 0.999058
vn -0.040898 0.014499 0.999058
vn -0.040898 0.014499 0.999058
vn 0.062902 -0.975825 0.209305
vn 0.062902 -0.975825 0.209305
vn 0.062902 -0.975825 0.209305
vn -0.399515 0.615222 0.679625
vn -0.399515 0.615222 0.679625
vn -0.399515 0.615222 0.679625
vn 0.546120 0.259410 -0.796530
vn 0.546120 0.259410 -0.796530
vn 0.546120 0.259410 -0.796530
vn 0.617978 0.102596 -0.779472
vn 0.617978 0.102596 -0.779472
vn 0.617978 0.102596 -0.779472
vn -0.312403 0.579905 -0.752406
vn -0.312403 0.579905 -0.752406
vn -0.312403 0.579905 -0.752406
vn 0.653597 0.301499 0.694197
vn 0.653597 0.301499 0.694197
vn 0.653597 0.301499 0.694197
vn -0.693211 0.518508 0.500608
vn -0.693211 0.518508 0.500608
vn -0.693211 0.518508 0.500608
vn -0.204300 0.618699 -0.758599
vn -0.204300 0.618699 -0.758599
vn -0.204300 0.618699 -0.758599
vn 0.014299 0.995162 -0.097196
vn 0.014299 0.995162 -0.097196
vn 0.014299 0.995162 -0.097196
vn 0.019501 0.991243 -0.130606
vn 0.019501 0.991243 -0.130606
vn 0.019501 0.991243 -0.130606
vn 0.252007 0.919426 0.301908
vn 0.252007 0.919426 0.301908
vn 0.252007 0.919426 0.301908
vn 0.860217 -0.055401 0.506910
vn 0.860217 -0.055401 0.506910
vn 0.860217 -0.055401 0.506910
vn -0.470383 0.369086 -0.801571
vn -0.470383 0.369086 -0.801571
vn -0.470383 0.369086 -0.801571
vn -0.947370 -0.241992 -0.209593
vn -0.947370 -0.241992 -0.209593
vn -0.947370 -0.241992 -0.209593
vn 0.089496 -0.995258 -0.038098
vn 0.089496 -0.995258 -0.038098
vn 0.089496 -0.995258 -0.038098
vn 0.786050 -0.606661 -0.118692
vn 0.786050 -0.606661 -0.118692
vn 0.786050 -0.606661 -0.118692
vn 0.099896 -0.976161 0.192692
vn 0.099896 -0.976161 0.192692
vn 0.099896 -0.976161 0.192692
vn 0.152296 -0.918073 -0.365989
vn 0.152296 -0.918073 -0.365989
vn 0.152296 -0.918073 -0.365989
vn 0.735802 0.249901 -0.629401
vn 0.735802 0.249901 -0.629401
vn 0.735802 0.249901 -0.629401
vn 0.144105 -0.904932 -0.400414
vn 0.144105 -0.904932 -0.400414
vn 0.144105 -0.904932 -0.400414
vn 0.568507 0.305604 0.763810
vn 0.568507 0.305604 0.763810
vn 0.568507 0.305604 0.763810
vn -0.424402 -0.873005 -0.240301
vn -0.424402 -0.873005 -0.240301
vn -0.424402 -0.873005 -0.240301
vn 0.765795 -0.598296 -0.235798
vn 0.765795 -0.598296 -0.235798
vn 0.765795 -0.598296 -0.235798
vn 0.099896 -0.976161 0.192692
vn 0.099896 -0.976161 0.192692
vn 0.099896 -0.976161 0.192692
vn 0.823451 0.196788 -0.532168
vn 0.823451 0.196788 -0.532168
vn 0.823451 0.196788 -0.532168
vn 0.587996 0.300698 0.750894
vn 0.587996 0.300698 0.750894
vn 0.587996 0.300698 0.750894
vn -0.085795 0.975248 0.203789
vn -0.085795 0.975248 0.203789
vn -0.085795 0.975248 0.203789
vn 0.546120 0.259410 -0.796530
vn 0.546120 0.259410 -0.796530
vn 0.546120 0.259410 -0.796530
vn 0.624524 0.076703 -0.777230
vn 0.624524 0.076703 -0.777230
vn 0.624524 0.076703 -0.777230
vn -0.415795 0.480294 -0.772290
vn -0.415795 0.480294 -0.772290
vn -0.415795 0.480294 -0.772290
vn -0.185209 -0.282413 -0.941244
vn -0.185209 -0.282413 -0.941244
vn -0.185209 -0.282413 -0.941244
vn 0.167308 -0.983048 -0.075004
vn 0.167308 -0.983048 -0.075004
vn 0.167308 -0.983048 -0.075004
vn 0.617978 0.102596 -0.779472
vn 0.617978 0.102596 -0.779472
vn 0.617978 0.102596 -0.779472
vn -0.312403 0.579905 -0.752406
vn -0.312403 0.579905 -0.752406
vn -0.312403 0.579905 -0.752406
vn -0.204300 0.618699 -0.758599
vn -0.204300 0.618699 -0.758599
vn -0.204300 0.618699 -0.758599
vn -0.470365 0.369173 -0.801541
vn -0.470365 0.369173 -0.801541
vn -0.470365 0.369173 -0.801541
vn 0.152310 -0.918057 -0.366023
vn 0.152310 -0.918057 -0.366023
vn 0.152310 -0.918057 -0.366023
vn -0.424402 -0.873005 -0.240301
vn -0.424402 -0.873005 -0.240301
vn -0.424402 -0.873005 -0.240301
vn 0.658510 -0.090501 -0.747111
vn 0.658510 -0.090501 -0.747111
vn 0.658510 -0.090501 -0.747111
vn 0.300701 -0.337502 -0.892004
vn 0.300701 -0.337502 -0.892004
vn 0.300701 -0.337502 -0.892004
vn -0.225501 -0.493502 -0.840003
vn -0.225501 -0.493502 -0.840003
vn -0.225501 -0.493502 -0.840003
vn -0.165097 -0.316594 -0.934083
vn -0.165097 -0.316594 -0.934083
vn -0.165097 -0.316594 -0.934083
vn -0.487207 -0.034300 -0.872613
vn -0.487207 -0.034300 -0.872613
vn -0.487207 -0.034300 -0.872613
vn 0.167308 -0.983048 -0.075004
vn 0.167308 -0.983048 -0.075004
vn 0.167308 -0.983048 -0.075004
s off
g rock35
usemtl standardSurface1SG
f 9/1/1 1/2/2 10/3/3
f 1/4/4 11/5/5 10/6/6
f 1/7/7 2/8/8 5/9/9
f 3/10/10 4/11/11 2/12/12
f 2/13/13 6/14/14 3/15/15
f 2/12/16 4/11/17 5/16/18
f 13/17/19 23/18/20 7/19/21
f 18/20/22 23/18/23 22/21/24
f 18/22/25 21/23/26 17/24/27
f 15/25/28 7/26/29 3/10/30
f 9/27/31 2/28/32 1/29/33
f 17/24/34 20/30/35 1/4/36
f 7/31/37 17/32/38 1/7/39
f 7/31/40 1/7/41 5/9/42
f 7/31/43 5/9/44 4/33/45
f 7/26/46 4/11/47 3/10/48
f 1/4/49 19/34/50 11/5/51
f 9/35/52 10/6/53 11/5/54
f 11/36/55 2/13/56 9/37/57
f 12/38/58 14/39/59 15/40/60
f 12/38/61 3/15/62 6/14/63
f 6/14/64 24/41/65 13/42/66
f 16/43/67 13/17/68 7/19/69
f 13/42/70 12/38/71 6/14/72
f 15/25/73 16/44/74 7/26/75
f 26/45/76 6/14/77 2/13/78
f 12/38/79 13/42/80 14/39/81
f 12/38/82 15/40/83 3/15/84
f 16/43/85 14/46/86 13/17/87
f 15/25/88 14/47/89 16/44/90
f 7/31/91 8/48/92 17/32/93
f 13/17/94 24/49/95 23/18/96
f 18/20/97 8/50/98 7/19/99
f 17/24/100 8/51/101 18/22/102
f 26/52/103 23/53/104 25/54/105
f 11/36/106 26/45/107 2/13/108
f 18/20/109 7/19/110 23/18/111
f 18/22/112 22/55/113 21/23/114
f 17/24/115 21/23/116 20/30/117
f 1/4/118 20/30/119 19/34/120
f 6/14/121 25/56/122 24/41/123
f 26/45/124 25/56/125 6/14/126
f 26/57/127 19/58/128 20/59/129
f 20/59/130 21/60/131 26/57/132
f 21/23/133 22/55/134 23/53/135
f 26/52/136 21/23/137 23/53/138
f 23/53/139 24/61/140 25/54/141
f 11/36/142 19/62/143 26/45/144
