# This file uses centimeters as units for non-parametric coordinates.

mtllib rock_55.mtl
g default
v -0.460507 -0.229071 0.315987
v -0.241867 -0.265609 0.042574
v -0.411978 -0.044067 0.373006
v -0.454740 0.168614 0.163207
v 0.004852 0.030581 -0.473514
v 0.489484 -0.136270 -0.076842
v -0.135562 0.052450 0.388193
v 0.098905 0.249391 -0.148722
v 0.238260 0.012046 0.382616
v 0.313518 -0.109771 0.435576
v 0.380207 -0.049437 0.341179
v 0.339809 0.002713 0.325353
v -0.474217 0.265609 -0.420839
v 0.378280 0.076700 -0.252597
v 0.338197 -0.235429 -0.190816
v 0.185871 -0.146279 -0.397399
v 0.014090 -0.254244 0.159700
v 0.279651 -0.263536 0.430556
v 0.355520 -0.248383 0.412498
v 0.348602 -0.200791 0.443413
v 0.324763 -0.190911 0.462429
v 0.270423 -0.221790 0.473514
v 0.257724 -0.261936 0.470465
v -0.489483 -0.007237 -0.092009
v -0.395926 0.110656 -0.471759
v -0.463870 0.101096 -0.406595
v -0.461862 0.129148 -0.402453
v -0.471732 0.195953 -0.449026
v -0.405243 0.138682 -0.439776
v -0.449526 0.206303 -0.151902
v -0.192561 0.174777 0.016690
vt 0.494586 0.724765
vt 0.421602 0.568986
vt 0.436531 0.522645
vt 0.628077 0.431575
vt 0.628077 0.920820
vt 0.942693 0.971233
vt 0.884178 0.675289
vt 0.942693 0.557073
vt 0.607605 0.206045
vt 0.580876 0.342798
vt 0.421602 0.000000
vt 0.806715 0.951842
vt 0.732840 0.724390
vt 0.856792 0.927466
vt 0.843100 0.955997
vt 0.783200 0.582043
vt 0.884178 0.557073
vt 0.395932 1.000000
vt 0.293671 0.989280
vt 0.238505 0.845385
vt 0.041778 0.280248
vt 0.232274 0.357982
vt 0.126878 0.472235
vt 0.086365 0.091947
vt 0.360412 0.237758
vt 0.000000 0.409256
vt 0.692990 0.443778
vt 0.648564 0.450706
vt 0.686172 0.431575
vt 0.753995 0.916029
vt 0.115730 0.019989
vt 0.052764 0.037581
vt 0.720733 0.454534
vt 0.628077 0.513469
vt 0.125751 0.046615
vt 0.319925 0.000000
vt 0.691665 0.014452
vt 0.285791 0.505295
vt 0.732840 0.269753
vt 0.799204 0.112073
vt 0.937523 0.290203
vt 0.421602 0.093416
vt 0.935204 0.498928
vt 0.889636 0.557073
vt 0.804930 0.000000
vt 0.377176 0.761497
vt 0.375880 0.587965
vt 0.390182 0.591832
vt 0.955530 0.162180
vt 1.000000 0.557073
vt 1.000000 0.940054
vt 0.942693 0.639468
vt 0.899435 0.056287
vt 0.100238 0.581342
vt 0.238505 0.550547
vt 0.238505 0.872277
vt 0.000000 0.650772
vt 0.732840 0.431575
vt 0.877281 0.920650
vt 0.884178 0.933110
vt 0.732840 0.057006
vt 0.711210 0.049367
vt 0.720733 0.720428
vt 0.405568 0.567423
vt 0.421602 0.550547
vt 0.421602 0.581713
vt 0.879404 0.972751
vt 0.850941 0.968719
vt 0.286209 0.689742
vt 0.315447 0.550547
vt 0.661395 0.720428
vt 0.661395 0.755044
vt 0.628077 0.733002
vt 0.925037 0.542752
vt 0.354337 0.551923
vt 0.376377 0.569799
vt 0.395932 0.560861
vt 0.955530 0.491013
vt 0.421602 0.550547
vn -0.189888 -0.923442 -0.333464
vn -0.189888 -0.923442 -0.333464
vn -0.189888 -0.923442 -0.333464
vn -0.277206 -0.852219 -0.443710
vn -0.277206 -0.852219 -0.443710
vn -0.277206 -0.852219 -0.443710
vn -0.755373 -0.343288 -0.558180
vn -0.755373 -0.343288 -0.558180
vn -0.755373 -0.343288 -0.558180
vn 0.137600 -0.968701 -0.206600
vn 0.137600 -0.968701 -0.206600
vn 0.137600 -0.968701 -0.206600
vn 0.014000 0.315897 0.948690
vn 0.014000 0.315897 0.948690
vn 0.014000 0.315897 0.948690
vn 0.014000 0.315897 0.948690
vn 0.014000 0.315897 0.948690
vn 0.014000 0.315897 0.948690
vn 0.055101 -0.307305 0.950015
vn 0.055101 -0.307305 0.950015
vn 0.055101 -0.307305 0.950015
vn -0.932004 0.141701 0.333601
vn -0.932004 0.141701 0.333601
vn -0.932004 0.141701 0.333601
vn 0.139898 0.946686 0.290196
vn 0.139898 0.946686 0.290196
vn 0.139898 0.946686 0.290196
vn 0.104898 0.917984 0.382493
vn 0.104898 0.917984 0.382493
vn 0.104898 0.917984 0.382493
vn -0.265889 0.649374 0.712472
vn -0.265889 0.649374 0.712472
vn -0.265889 0.649374 0.712472
vn 0.668211 0.315605 0.673711
vn 0.668211 0.315605 0.673711
vn 0.668211 0.315605 0.673711
vn 0.059801 0.428807 0.901415
vn 0.059801 0.428807 0.901415
vn 0.059801 0.428807 0.901415
vn 0.448697 0.574696 0.684395
vn 0.448697 0.574696 0.684395
vn 0.448697 0.574696 0.684395
vn 0.965730 -0.027301 0.258108
vn 0.965730 -0.027301 0.258108
vn 0.965730 -0.027301 0.258108
vn 0.777487 0.624590 0.073499
vn 0.777487 0.624590 0.073499
vn 0.777487 0.624590 0.073499
vn 0.445994 0.557892 0.699890
vn 0.445994 0.557892 0.699890
vn 0.445994 0.557892 0.699890
vn 0.150897 -0.971783 -0.181297
vn 0.150897 -0.971783 -0.181297
vn 0.150897 -0.971783 -0.181297
vn 0.270603 0.903410 0.332604
vn 0.270603 0.903410 0.332604
vn 0.270603 0.903410 0.332604
vn 0.701208 0.712808 0.014600
vn 0.701208 0.712808 0.014600
vn 0.701208 0.712808 0.014600
vn -0.076499 0.952493 0.294798
vn -0.076499 0.952493 0.294798
vn -0.076499 0.952493 0.294798
vn -0.186199 -0.924396 -0.332899
vn -0.186199 -0.924396 -0.332899
vn -0.186199 -0.924396 -0.332899
vn 0.254411 0.766332 -0.589925
vn 0.254411 0.766332 -0.589925
vn 0.254411 0.766332 -0.589925
vn 0.584608 0.675809 0.448906
vn 0.584608 0.675809 0.448906
vn 0.584608 0.675809 0.448906
vn 0.410014 0.348612 -0.842828
vn 0.410014 0.348612 -0.842828
vn 0.410014 0.348612 -0.842828
vn 0.505707 -0.376505 -0.776211
vn 0.505707 -0.376505 -0.776211
vn 0.505707 -0.376505 -0.776211
vn -0.995406 0.079200 -0.053800
vn -0.995406 0.079200 -0.053800
vn -0.995406 0.079200 -0.053800
vn 0.658978 0.400486 -0.636678
vn 0.658978 0.400486 -0.636678
vn 0.658978 0.400486 -0.636678
vn 0.226293 -0.863472 0.450785
vn 0.226293 -0.863472 0.450785
vn 0.226293 -0.863472 0.450785
vn 0.694047 -0.314621 -0.647544
vn 0.694047 -0.314621 -0.647544
vn 0.694047 -0.314621 -0.647544
vn -0.087803 -0.936531 -0.339411
vn -0.087803 -0.936531 -0.339411
vn -0.087803 -0.936531 -0.339411
vn -0.420075 -0.685760 -0.594365
vn -0.420075 -0.685760 -0.594365
vn -0.420075 -0.685760 -0.594365
vn -0.012201 -0.992343 0.122905
vn -0.012201 -0.992343 0.122905
vn -0.012201 -0.992343 0.122905
vn -0.210609 -0.007600 0.977541
vn -0.210609 -0.007600 0.977541
vn -0.210609 -0.007600 0.977541
vn 0.466605 -0.582106 0.665907
vn 0.466605 -0.582106 0.665907
vn 0.466605 -0.582106 0.665907
vn -0.048601 -0.998728 0.013400
vn -0.048601 -0.998728 0.013400
vn -0.048601 -0.998728 0.013400
vn 0.668166 0.315584 0.673766
vn 0.668166 0.315584 0.673766
vn 0.668166 0.315584 0.673766
vn 0.965730 -0.027301 0.258108
vn 0.965730 -0.027301 0.258108
vn 0.965730 -0.027301 0.258108
vn 0.150897 -0.971783 -0.181297
vn 0.150897 -0.971783 -0.181297
vn 0.150897 -0.971783 -0.181297
vn -0.210609 -0.007600 0.977541
vn -0.210609 -0.007600 0.977541
vn -0.210609 -0.007600 0.977541
vn 0.831372 -0.298590 0.468684
vn 0.831372 -0.298590 0.468684
vn 0.831372 -0.298590 0.468684
vn 0.293314 -0.490424 0.820640
vn 0.293314 -0.490424 0.820640
vn 0.293314 -0.490424 0.820640
vn 0.365808 -0.555113 0.747017
vn 0.365808 -0.555113 0.747017
vn 0.365808 -0.555113 0.747017
vn -0.048601 -0.998728 0.013400
vn -0.048601 -0.998728 0.013400
vn -0.048601 -0.998728 0.013400
vn -0.993692 0.052500 0.099099
vn -0.993692 0.052500 0.099099
vn -0.993692 0.052500 0.099099
vn -0.994066 -0.080097 0.073598
vn -0.994066 -0.080097 0.073598
vn -0.994066 -0.080097 0.073598
vn -0.385518 -0.565326 -0.729234
vn -0.385518 -0.565326 -0.729234
vn -0.385518 -0.565326 -0.729234
vn 0.161891 0.796057 -0.583168
vn 0.161891 0.796057 -0.583168
vn 0.161891 0.796057 -0.583168
vn 0.420507 0.353206 -0.835715
vn 0.420507 0.353206 -0.835715
vn 0.420507 0.353206 -0.835715
vn -0.980684 0.195597 -0.001300
vn -0.980684 0.195597 -0.001300
vn -0.980684 0.195597 -0.001300
vn -0.991975 -0.076198 0.100897
vn -0.991975 -0.076198 0.100897
vn -0.991975 -0.076198 0.100897
vn -0.643683 0.472788 -0.601784
vn -0.643683 0.472788 -0.601784
vn -0.643683 0.472788 -0.601784
vn -0.561893 0.159998 -0.811589
vn -0.561893 0.159998 -0.811589
vn -0.561893 0.159998 -0.811589
vn 0.150104 0.764819 -0.626515
vn 0.150104 0.764819 -0.626515
vn 0.150104 0.764819 -0.626515
vn -0.077697 0.972062 0.221491
vn -0.077697 0.972062 0.221491
vn -0.077697 0.972062 0.221491
vn -0.988364 0.152095 0.001800
vn -0.988364 0.152095 0.001800
vn -0.988364 0.152095 0.001800
vn -0.060102 0.945336 0.320512
vn -0.060102 0.945336 0.320512
vn -0.060102 0.945336 0.320512
vn 0.043400 0.991897 0.119400
vn 0.043400 0.991897 0.119400
vn 0.043400 0.991897 0.119400
s off
g rock54
usemtl standardSurface1SG
f 24/1/1 26/2/2 25/3/3
f 24/1/4 5/4/5 1/5/6
f 5/6/7 2/7/8 1/8/9
f 17/9/10 2/10/11 6/11/12
f 10/12/13 7/13/14 22/14/15
f 10/12/16 22/14/17 21/15/18
f 7/13/19 3/16/20 1/17/21
f 1/18/22 3/19/23 4/20/24
f 7/21/25 31/22/26 4/23/27
f 9/24/28 8/25/29 7/21/30
f 7/21/31 4/23/32 3/26/33
f 20/27/34 10/28/35 21/29/36
f 10/12/37 9/30/38 7/13/39
f 11/31/40 9/24/41 10/32/42
f 19/33/43 11/34/44 20/27/45
f 12/35/46 11/31/47 6/36/48
f 11/31/49 12/35/50 9/24/51
f 19/37/52 17/9/53 6/11/54
f 9/24/55 12/35/56 8/25/57
f 12/35/58 6/36/59 8/25/60
f 30/38/61 31/22/62 8/25/63
f 24/1/64 25/3/65 5/4/66
f 8/39/67 14/40/68 5/41/69
f 6/36/70 14/42/71 8/25/72
f 29/43/73 13/44/74 8/39/75
f 5/41/76 14/40/77 6/45/78
f 24/46/79 27/47/80 26/48/81
f 6/45/82 16/49/83 5/41/84
f 6/50/85 2/51/86 15/52/87
f 6/45/88 15/53/89 16/49/90
f 16/54/91 15/55/92 2/56/93
f 5/57/94 16/54/95 2/56/96
f 17/9/97 1/58/98 2/10/99
f 23/59/100 7/13/101 1/17/102
f 21/15/103 22/14/104 18/60/105
f 23/61/106 17/9/107 18/62/108
f 20/27/109 11/34/110 10/28/111
f 19/33/112 6/63/113 11/34/114
f 19/37/115 18/62/116 17/9/117
f 23/59/118 22/14/119 7/13/120
f 23/64/121 18/65/122 22/66/123
f 18/60/124 19/67/125 20/68/126
f 21/15/127 18/60/128 20/68/129
f 23/61/130 1/58/131 17/9/132
f 24/46/133 1/18/134 4/20/135
f 27/47/136 30/69/137 13/70/138
f 27/71/139 28/72/140 29/73/141
f 5/41/142 29/43/143 8/39/144
f 29/43/145 28/74/146 13/44/147
f 24/46/148 4/20/149 27/47/150
f 13/70/151 28/75/152 27/47/153
f 29/76/154 25/77/155 26/48/156
f 26/48/157 27/47/158 29/76/159
f 5/41/160 25/78/161 29/43/162
f 8/25/163 13/79/164 30/38/165
f 27/47/166 4/20/167 30/69/168
f 7/21/169 8/25/170 31/22/171
f 30/38/172 4/23/173 31/22/174
