# This file uses centimeters as units for non-parametric coordinates.

mtllib rock_3.mtl
g default
v 0.641489 -0.761667 0.237398
v 0.521334 -0.706943 0.446932
v 0.758344 0.413922 0.124688
v 0.582262 -0.806226 -0.436268
v 0.674232 0.311583 0.508280
v -0.542326 -0.690794 0.122615
v 0.711101 -0.167192 -0.116003
v 0.453973 0.551440 -0.575508
v 0.171154 0.278365 -0.777479
v 0.035497 0.773770 -0.476023
v 0.103291 -0.524365 -0.877419
v -0.758344 -0.320493 -0.222570
v -0.712258 0.546352 0.013394
v -0.237895 -0.555541 0.593237
v -0.080609 0.563803 0.620689
v 0.040740 0.193510 0.834215
v 0.350391 0.436039 0.658772
v -0.470321 0.864256 0.140573
v 0.000739 -0.179661 0.877419
v 0.163143 -0.550116 0.762362
v -0.036010 -0.825343 -0.673663
v 0.198565 -0.872518 -0.696204
v -0.724158 0.150129 -0.136709
v 0.599387 -0.171159 -0.424765
v -0.012312 0.636436 0.066845
v 0.047066 -0.700091 0.109914
v 0.660534 0.380359 -0.427215
v 0.594904 0.447408 -0.481113
v 0.593198 0.504341 -0.480807
v 0.699341 0.472913 -0.333713
v 0.676786 0.389668 -0.385021
v 0.719265 -0.135560 0.386444
v 0.698687 -0.278042 0.372569
v 0.722046 -0.283512 0.300843
v 0.748782 -0.134666 0.264004
v -0.405020 0.872518 -0.200863
v -0.538128 0.813696 -0.112704
v -0.338373 -0.705482 -0.642582
v -0.268802 -0.780660 -0.638938
v -0.317321 -0.757830 -0.565058
v -0.466173 -0.739607 -0.452508
v -0.512954 -0.661559 -0.508976
vt 0.507049 0.951320
vt 0.474569 0.768299
vt 0.567710 0.926863
vt 0.009691 0.820693
vt 0.006517 0.616170
vt 0.058771 0.991069
vt 0.094067 0.795631
vt 0.866317 0.009490
vt 0.892399 0.202641
vt 0.846385 0.341354
vt 0.155524 0.576174
vt 0.672292 0.754194
vt 0.812430 0.916742
vt 0.724810 0.890662
vt 0.921227 0.854464
vt 0.177085 0.962594
vt 0.166235 0.991714
vt 0.255108 1.000000
vt 0.211204 0.974874
vt 0.327415 0.896292
vt 0.187946 0.957590
vt 0.174981 0.779716
vt 0.332203 0.064836
vt 0.306994 0.169856
vt 0.222630 0.013794
vt 0.046139 0.397938
vt 0.327415 0.634448
vt 0.327773 0.430445
vt 0.433004 0.000000
vt 0.577183 0.037077
vt 0.332203 0.124111
vt 0.522950 0.528091
vt 0.597493 0.562341
vt 0.359360 0.523983
vt 0.475182 0.522446
vt 0.361599 0.642383
vt 0.358557 0.274470
vt 0.617435 0.397943
vt 0.393344 0.399700
vt 0.028950 0.244954
vt 0.675613 0.154492
vt 0.676640 0.275613
vt 1.000000 0.557369
vt 0.981883 0.651819
vt 0.910442 0.537769
vt 0.460829 0.501048
vt 0.796123 0.649127
vt 0.736996 0.501048
vt 0.676640 0.144368
vt 0.739537 0.036897
vt 0.676640 0.037721
vt 0.678515 0.265247
vt 0.378549 0.951320
vt 0.332203 0.823505
vt 0.000000 0.115609
vt 0.087109 0.000000
vt 0.399215 0.488662
vt 0.757020 0.361123
vt 1.000000 0.771472
vt 0.545680 0.520719
vt 0.277482 0.529617
vt 0.205091 0.506447
vt 0.647725 0.607151
vt 0.332203 0.532994
vt 0.262296 0.532994
vt 0.676442 0.748633
vt 0.913761 0.156190
vt 0.896299 0.156284
vt 0.920009 0.205114
vt 0.000000 0.773622
vt 0.765754 0.913220
vt 0.213560 0.992987
vt 0.927901 0.000000
vt 0.927901 0.380175
vt 0.672292 0.578299
vt 0.679154 0.532210
vt 0.047823 0.023938
vt 0.691524 0.449295
vt 0.676640 0.391907
vt 0.691524 0.380175
vt 0.471737 0.501048
vt 0.221510 0.526721
vt 0.529240 0.506674
vt 0.147829 0.499012
vn -0.138534 -0.974749 0.175134
vn -0.138534 -0.974749 0.175134
vn -0.138534 -0.974749 0.175134
vn 0.880060 -0.131194 -0.456379
vn 0.880060 -0.131194 -0.456379
vn 0.880060 -0.131194 -0.456379
vn 0.994803 -0.095500 0.035300
vn 0.994803 -0.095500 0.035300
vn 0.994803 -0.095500 0.035300
vn 0.639420 -0.141504 0.755724
vn 0.639420 -0.141504 0.755724
vn 0.639420 -0.141504 0.755724
vn 0.984129 -0.160405 -0.075902
vn 0.984129 -0.160405 -0.075902
vn 0.984129 -0.160405 -0.075902
vn -0.118802 -0.990013 0.075901
vn -0.118802 -0.990013 0.075901
vn -0.118802 -0.990013 0.075901
vn 0.215009 0.971743 0.097404
vn 0.215009 0.971743 0.097404
vn 0.215009 0.971743 0.097404
vn 0.973816 -0.172903 -0.147602
vn 0.973816 -0.172903 -0.147602
vn 0.973816 -0.172903 -0.147602
vn 0.567201 0.021400 -0.823301
vn 0.567201 0.021400 -0.823301
vn 0.567201 0.021400 -0.823301
vn 0.590089 -0.068999 -0.804385
vn 0.590089 -0.068999 -0.804385
vn 0.590089 -0.068999 -0.804385
vn 0.084203 0.534716 -0.840826
vn 0.084203 0.534716 -0.840826
vn 0.084203 0.534716 -0.840826
vn -0.618129 0.278113 -0.735234
vn -0.618129 0.278113 -0.735234
vn -0.618129 0.278113 -0.735234
vn 0.687330 0.032201 -0.725631
vn 0.687330 0.032201 -0.725631
vn 0.687330 0.032201 -0.725631
vn -0.575817 0.148804 -0.803923
vn -0.575817 0.148804 -0.803923
vn -0.575817 0.148804 -0.803923
vn -0.841260 0.012999 0.540474
vn -0.841260 0.012999 0.540474
vn -0.841260 0.012999 0.540474
vn -0.097800 -0.938796 0.330299
vn -0.097800 -0.938796 0.330299
vn -0.097800 -0.938796 0.330299
vn -0.834804 -0.546803 -0.064100
vn -0.834804 -0.546803 -0.064100
vn -0.834804 -0.546803 -0.064100
vn -0.668288 -0.245896 0.702087
vn -0.668288 -0.245896 0.702087
vn -0.668288 -0.245896 0.702087
vn -0.525886 0.189495 -0.829178
vn -0.525886 0.189495 -0.829178
vn -0.525886 0.189495 -0.829178
vn -0.824998 0.102300 0.555799
vn -0.824998 0.102300 0.555799
vn -0.824998 0.102300 0.555799
vn -0.718413 0.155503 0.678013
vn -0.718413 0.155503 0.678013
vn -0.718413 0.155503 0.678013
vn 0.077998 0.517084 0.852373
vn 0.077998 0.517084 0.852373
vn 0.077998 0.517084 0.852373
vn 0.266891 0.949567 0.164594
vn 0.266891 0.949567 0.164594
vn 0.266891 0.949567 0.164594
vn -0.676822 0.236208 0.697222
vn -0.676822 0.236208 0.697222
vn -0.676822 0.236208 0.697222
vn 0.460711 0.870921 0.171004
vn 0.460711 0.870921 0.171004
vn 0.460711 0.870921 0.171004
vn 0.262997 0.951888 0.157298
vn 0.262997 0.951888 0.157298
vn 0.262997 0.951888 0.157298
vn -0.824200 0.102200 0.557000
vn -0.824200 0.102200 0.557000
vn -0.824200 0.102200 0.557000
vn 0.505695 -0.045900 0.861491
vn 0.505695 -0.045900 0.861491
vn 0.505695 -0.045900 0.861491
vn -0.348902 -0.414103 0.840706
vn -0.348902 -0.414103 0.840706
vn -0.348902 -0.414103 0.840706
vn 0.448690 0.055199 0.891981
vn 0.448690 0.055199 0.891981
vn 0.448690 0.055199 0.891981
vn -0.124305 -0.937539 0.324914
vn -0.124305 -0.937539 0.324914
vn -0.124305 -0.937539 0.324914
vn 0.619330 -0.139507 0.772637
vn 0.619330 -0.139507 0.772637
vn 0.619330 -0.139507 0.772637
vn -0.536827 -0.047702 -0.842343
vn -0.536827 -0.047702 -0.842343
vn -0.536827 -0.047702 -0.842343
vn -0.810866 0.576276 0.101996
vn -0.810866 0.576276 0.101996
vn -0.810866 0.576276 0.101996
vn 0.444614 0.077902 0.892328
vn 0.444614 0.077902 0.892328
vn 0.444614 0.077902 0.892328
vn 0.466301 0.823902 0.322101
vn 0.466301 0.823902 0.322101
vn 0.466301 0.823902 0.322101
vn -0.119202 -0.931112 0.344705
vn -0.119202 -0.931112 0.344705
vn -0.119202 -0.931112 0.344705
vn -0.156496 -0.967976 0.196295
vn -0.156496 -0.967976 0.196295
vn -0.156496 -0.967976 0.196295
vn -0.266897 -0.452495 -0.850890
vn -0.266897 -0.452495 -0.850890
vn -0.266897 -0.452495 -0.850890
vn -0.064402 -0.995033 0.075903
vn -0.064402 -0.995033 0.075903
vn -0.064402 -0.995033 0.075903
vn -0.137906 -0.891742 0.431020
vn -0.137906 -0.891742 0.431020
vn -0.137906 -0.891742 0.431020
vn -0.180892 -0.492577 -0.851261
vn -0.180892 -0.492577 -0.851261
vn -0.180892 -0.492577 -0.851261
vn 0.572318 -0.249908 -0.781024
vn 0.572318 -0.249908 -0.781024
vn 0.572318 -0.249908 -0.781024
vn 0.463881 0.885464 -0.027699
vn 0.463881 0.885464 -0.027699
vn 0.463881 0.885464 -0.027699
vn 0.894981 -0.315393 0.315493
vn 0.894981 -0.315393 0.315493
vn 0.894981 -0.315393 0.315493
vn -0.741693 -0.067899 0.667294
vn -0.741693 -0.067899 0.667294
vn -0.741693 -0.067899 0.667294
vn -0.584683 0.302691 -0.752678
vn -0.584683 0.302691 -0.752678
vn -0.584683 0.302691 -0.752678
vn 0.940258 -0.019201 -0.339921
vn 0.940258 -0.019201 -0.339921
vn 0.940258 -0.019201 -0.339921
vn 0.633795 -0.003100 -0.773494
vn 0.633795 -0.003100 -0.773494
vn 0.633795 -0.003100 -0.773494
vn 0.463210 0.848619 0.255506
vn 0.463210 0.848619 0.255506
vn 0.463210 0.848619 0.255506
vn 0.250096 0.933187 0.258096
vn 0.250096 0.933187 0.258096
vn 0.250096 0.933187 0.258096
vn -0.015700 -0.999875 0.001800
vn -0.015700 -0.999875 0.001800
vn -0.015700 -0.999875 0.001800
vn -0.011601 -0.983651 0.179709
vn -0.011601 -0.983651 0.179709
vn -0.011601 -0.983651 0.179709
vn 0.794788 0.147498 -0.588691
vn 0.794788 0.147498 -0.588691
vn 0.794788 0.147498 -0.588691
vn 0.935576 -0.105197 -0.337091
vn 0.935576 -0.105197 -0.337091
vn 0.935576 -0.105197 -0.337091
vn 0.965765 -0.116096 0.231992
vn 0.965765 -0.116096 0.231992
vn 0.965765 -0.116096 0.231992
vn 0.971520 0.034001 0.234505
vn 0.971520 0.034001 0.234505
vn 0.971520 0.034001 0.234505
vn 0.985056 -0.169792 0.028899
vn 0.985056 -0.169792 0.028899
vn 0.985056 -0.169792 0.028899
vn 0.699130 -0.168607 0.694830
vn 0.699130 -0.168607 0.694830
vn 0.699130 -0.168607 0.694830
vn 0.353818 0.933648 -0.055803
vn 0.353818 0.933648 -0.055803
vn 0.353818 0.933648 -0.055803
vn 0.987435 -0.015101 -0.157305
vn 0.987435 -0.015101 -0.157305
vn 0.987435 -0.015101 -0.157305
vn 0.567201 0.021400 -0.823301
vn 0.567201 0.021400 -0.823301
vn 0.567201 0.021400 -0.823301
vn 0.590089 -0.068999 -0.804385
vn 0.590089 -0.068999 -0.804385
vn 0.590089 -0.068999 -0.804385
vn 0.823861 -0.208690 0.526975
vn 0.823861 -0.208690 0.526975
vn 0.823861 -0.208690 0.526975
vn 0.794594 0.451697 -0.405697
vn 0.794594 0.451697 -0.405697
vn 0.794594 0.451697 -0.405697
vn 0.813378 0.027499 -0.581085
vn 0.813378 0.027499 -0.581085
vn 0.813378 0.027499 -0.581085
vn 0.935576 -0.105197 -0.337091
vn 0.935576 -0.105197 -0.337091
vn 0.935576 -0.105197 -0.337091
vn 0.933906 -0.165701 0.316802
vn 0.933906 -0.165701 0.316802
vn 0.933906 -0.165701 0.316802
vn 0.973721 0.040001 0.224205
vn 0.973721 0.040001 0.224205
vn 0.973721 0.040001 0.224205
vn -0.437492 0.897083 -0.061999
vn -0.437492 0.897083 -0.061999
vn -0.437492 0.897083 -0.061999
vn 0.261504 0.962415 0.073301
vn 0.261504 0.962415 0.073301
vn 0.261504 0.962415 0.073301
vn -0.536830 -0.047603 -0.842347
vn -0.536830 -0.047603 -0.842347
vn -0.536830 -0.047603 -0.842347
vn -0.491211 -0.684315 -0.538912
vn -0.491211 -0.684315 -0.538912
vn -0.491211 -0.684315 -0.538912
vn -0.537788 0.280694 -0.794982
vn -0.537788 0.280694 -0.794982
vn -0.537788 0.280694 -0.794982
vn -0.834804 -0.546803 -0.064100
vn -0.834804 -0.546803 -0.064100
vn -0.834804 -0.546803 -0.064100
vn -0.184691 -0.217389 -0.958453
vn -0.184691 -0.217389 -0.958453
vn -0.184691 -0.217389 -0.958453
vn -0.064402 -0.995033 0.075903
vn -0.064402 -0.995033 0.075903
vn -0.064402 -0.995033 0.075903
vn -0.494203 -0.776805 -0.390303
vn -0.494203 -0.776805 -0.390303
vn -0.494203 -0.776805 -0.390303
vn -0.703101 -0.663101 -0.256800
vn -0.703101 -0.663101 -0.256800
vn -0.703101 -0.663101 -0.256800
vn -0.537803 0.280601 -0.795004
vn -0.537803 0.280601 -0.795004
vn -0.537803 0.280601 -0.795004
s off
g rock2
usemtl standardSurface1SG
f 2/1/1 26/2/2 1/3/3
f 35/4/4 1/5/5 3/6/6
f 3/6/7 1/5/8 7/7/9
f 2/8/10 32/9/11 5/10/12
f 7/7/13 1/5/14 4/11/15
f 26/2/16 4/12/17 1/3/18
f 30/13/19 8/14/20 3/15/21
f 3/6/22 31/16/23 30/17/24
f 8/18/25 28/19/26 9/20/27
f 9/20/28 27/21/29 24/22/30
f 8/23/31 9/24/32 10/25/33
f 10/25/34 9/24/35 12/26/36
f 11/27/37 9/20/38 4/11/39
f 9/24/40 11/28/41 12/26/42
f 6/29/43 14/30/44 12/31/45
f 40/32/46 21/33/47 4/12/48
f 12/34/49 41/35/50 6/36/51
f 23/37/52 15/38/53 13/39/54
f 23/40/55 10/25/56 12/26/57
f 15/38/58 12/31/59 14/30/60
f 19/41/61 16/42/62 15/38/63
f 16/43/64 17/44/65 15/45/66
f 15/45/67 17/44/68 3/15/69
f 15/38/70 18/46/71 13/39/72
f 25/47/73 18/48/74 15/45/75
f 3/15/76 25/47/77 15/45/78
f 14/30/79 19/41/80 15/38/81
f 19/49/82 20/50/83 5/10/84
f 19/41/85 14/30/86 20/51/87
f 16/52/88 19/49/89 5/10/90
f 2/1/91 20/53/92 14/54/93
f 20/50/94 2/8/95 5/10/96
f 13/55/97 36/56/98 10/25/99
f 18/46/100 37/57/101 13/39/102
f 5/10/103 17/58/104 16/52/105
f 17/44/106 5/59/107 3/15/108
f 14/54/109 6/36/110 2/1/111
f 40/32/112 39/60/113 21/33/114
f 21/61/115 38/62/116 11/28/117
f 6/36/118 40/32/119 4/12/120
f 21/33/121 22/63/122 4/12/123
f 22/64/124 21/61/125 11/28/126
f 4/11/127 22/65/128 11/27/129
f 8/14/130 10/66/131 3/15/132
f 2/8/133 34/67/134 33/68/135
f 23/37/136 12/31/137 15/38/138
f 23/40/139 13/55/140 10/25/141
f 7/7/142 4/11/143 24/22/144
f 24/22/145 4/11/146 9/20/147
f 25/47/148 10/66/149 18/48/150
f 3/15/151 10/66/152 25/47/153
f 2/1/154 6/36/155 26/2/156
f 26/2/157 6/36/158 4/12/159
f 28/19/160 30/17/161 31/16/162
f 24/22/163 31/16/164 7/7/165
f 32/9/166 34/67/167 35/69/168
f 35/69/169 5/10/170 32/9/171
f 35/4/172 34/70/173 1/5/174
f 2/8/175 33/68/176 32/9/177
f 30/13/178 29/71/179 8/14/180
f 3/6/181 7/7/182 31/16/183
f 8/18/184 29/72/185 28/19/186
f 9/20/187 28/19/188 27/21/189
f 2/8/190 1/73/191 34/67/192
f 31/16/193 27/21/194 28/19/195
f 28/19/196 29/72/197 30/17/198
f 24/22/199 27/21/200 31/16/201
f 32/9/202 33/68/203 34/67/204
f 35/69/205 3/74/206 5/10/207
f 18/48/208 36/75/209 37/76/210
f 36/75/211 18/48/212 10/66/213
f 13/55/214 37/77/215 36/56/216
f 40/78/217 41/79/218 42/80/219
f 38/62/220 12/26/221 11/28/222
f 12/34/223 42/81/224 41/35/225
f 21/61/226 39/82/227 38/62/228
f 6/36/229 41/35/230 40/32/231
f 42/81/232 38/83/233 40/32/234
f 38/83/235 39/60/236 40/32/237
f 38/62/238 42/84/239 12/26/240
