# This file uses centimeters as units for non-parametric coordinates.

mtllib rock_20.mtl
g default
v -0.298676 -0.233854 0.454835
v -0.262177 0.369222 0.587965
v 0.216381 -0.259713 0.352356
v -0.460102 -0.486032 -0.159845
v -0.387632 0.565187 0.434562
v -0.506289 0.150553 0.348279
v -0.505069 0.367567 -0.252288
v -0.177214 0.382463 -0.072115
v -0.146621 0.530299 0.094197
v 0.458282 0.521850 -0.102878
v 0.497858 0.543941 0.264614
v 0.533765 0.275162 -0.267296
v 0.235948 0.362136 -0.177901
v 0.207403 0.461925 -0.209227
v 0.265352 0.339007 -0.401701
v 0.218194 0.445908 -0.396516
v -0.102493 0.506019 -0.154112
v -0.027169 0.464391 -0.350448
v -0.066393 0.347872 -0.417650
v 0.261564 0.216217 -0.631973
v 0.369447 0.328786 -0.479222
v -0.371125 0.218755 -0.436331
v -0.486176 -0.354311 -0.355389
v 0.277059 -0.412594 -0.624751
v -0.023509 -0.569891 -0.467829
v 0.288001 -0.500918 -0.316769
v -0.406204 -0.551062 -0.369844
v 0.388047 -0.336443 0.121436
v 0.462653 -0.186484 0.325679
v 0.524554 0.330403 0.408397
v -0.511982 0.569891 0.131931
v -0.469664 0.568075 0.073649
v -0.480536 0.540834 0.046008
v -0.532131 0.534247 0.010636
v -0.533139 0.503927 0.053958
v -0.533764 0.513830 0.106402
v 0.167533 0.374428 0.591472
v 0.053931 0.354066 0.631973
v 0.130573 0.290638 0.607131
v 0.180043 0.347918 0.605490
v 0.042080 0.503172 0.352408
v 0.036447 0.560824 0.161107
v 0.087429 0.335022 -0.570674
v 0.099653 0.332766 -0.590308
v 0.097059 0.304477 -0.619629
v 0.060299 0.272409 -0.614335
v 0.036815 0.270343 -0.603293
v 0.003190 0.284866 -0.597653
v -0.014899 0.317599 -0.589817
v -0.010995 0.336066 -0.579024
v 0.010098 0.338758 -0.559144
vt 0.699614 0.303518
vt 0.686685 0.112845
vt 0.909595 0.303518
vt 0.353743 1.000000
vt 0.296511 0.782090
vt 0.353743 0.704910
vt 0.392261 0.808319
vt 0.377511 0.557835
vt 0.576604 0.803707
vt 0.070715 0.454632
vt 0.296511 0.535168
vt 0.253739 0.683265
vt 1.000000 0.755343
vt 0.956970 0.608499
vt 1.000000 0.460231
vt 0.155574 0.816485
vt 0.141077 0.828010
vt 0.048995 0.769096
vt 0.377511 0.322739
vt 0.285839 0.380658
vt 0.261265 0.259529
vt 0.275712 0.383736
vt 0.154042 0.431479
vt 0.207027 0.288194
vt 0.296511 0.830257
vt 0.173858 0.819555
vt 0.147632 0.063606
vt 0.152058 0.246762
vt 0.431310 0.236092
vt 0.377511 0.151249
vt 0.416990 0.021811
vt 0.094732 0.281934
vt 0.032328 0.126377
vt 0.296511 0.485772
vt 0.373475 0.431479
vt 0.359139 0.548907
vt 0.373475 0.704910
vt 0.180487 0.000000
vt 0.272038 0.056671
vt 0.212207 0.111512
vt 0.871579 0.459686
vt 0.836393 0.451716
vt 0.825845 0.336962
vt 0.780986 0.805804
vt 0.747173 0.884121
vt 0.747474 0.815657
vt 0.871579 0.303518
vt 0.780986 0.887238
vt 0.825845 0.303518
vt 0.825845 0.419964
vt 0.761667 0.436413
vt 0.762365 0.344531
vt 0.707570 0.805804
vt 0.663615 0.906833
vt 0.671662 0.838284
vt 0.707570 0.925584
vt 0.887476 0.495545
vt 0.956970 0.518402
vt 0.956970 0.749096
vt 0.359383 0.068964
vt 0.274573 0.008957
vt 0.340976 0.154931
vt 0.747172 0.922156
vt 0.710348 0.824838
vt 0.747172 0.805804
vt 0.707570 0.916464
vt 0.339904 0.007666
vt 0.860558 0.471972
vt 0.724589 0.512990
vt 0.663615 0.460231
vt 0.356002 0.076725
vt 0.866678 0.490559
vt 0.674038 0.722971
vt 0.878494 0.496208
vt 0.900666 0.484173
vt 0.839642 0.805804
vt 0.548604 0.471536
vt 0.645919 0.551572
vt 0.663615 0.460231
vt 0.410139 0.482203
vt 0.701044 0.795809
vt 0.003485 0.505719
vt 0.000000 0.431479
vt 0.686685 0.366909
vt 0.618127 0.460231
vt 0.686685 0.191842
vt 0.651184 0.727059
vt 0.661708 0.099252
vt 0.663615 0.820780
vt 0.710320 0.023885
vt 0.890320 0.009469
vt 0.503318 0.000000
vt 0.878083 0.170288
vt 0.084219 0.418303
vt 0.000000 0.288064
vt 0.907302 0.155095
vt 0.966992 0.000000
vt 0.369321 0.846100
vt 0.353743 0.819147
vt 0.369321 0.704910
vt 0.415750 0.380321
vt 0.394317 0.308584
vt 0.278367 0.408281
vt 0.293587 0.397207
vt 0.306177 0.389062
vt 0.266830 0.408467
vt 0.184765 0.839102
vt 0.792828 0.838591
vt 0.780986 0.822134
vt 0.792828 0.805804
vt 0.774812 0.456016
vt 0.761667 0.451450
vt 0.774812 0.436413
vt 0.897736 0.152620
vt 0.010068 0.330289
vt 0.900822 0.199476
vt 0.761667 0.446787
vt 0.686685 0.306619
vt 0.761667 0.303518
vt 0.376313 0.446446
vt 0.373475 0.439037
vt 0.376313 0.431479
vt 0.377511 0.105099
vt 0.368396 0.062990
vt 0.860071 0.478482
vt 0.367607 0.102757
vt 0.865944 0.471636
vt 0.893205 0.473787
vt 0.899109 0.474400
vn 0.179501 -0.222407 0.958287
vn 0.179501 -0.222407 0.958287
vn 0.179501 -0.222407 0.958287
vn -0.817512 -0.076501 0.570808
vn -0.817512 -0.076501 0.570808
vn -0.817512 -0.076501 0.570808
vn 0.027701 -0.927332 0.373213
vn 0.027701 -0.927332 0.373213
vn 0.027701 -0.927332 0.373213
vn -0.855910 -0.359104 0.372104
vn -0.855910 -0.359104 0.372104
vn -0.855910 -0.359104 0.372104
vn -0.506093 -0.034500 0.861789
vn -0.506093 -0.034500 0.861789
vn -0.506093 -0.034500 0.861789
vn -0.996123 -0.059501 -0.064801
vn -0.996123 -0.059501 -0.064801
vn -0.996123 -0.059501 -0.064801
vn -0.996123 -0.059501 -0.064801
vn -0.996123 -0.059501 -0.064801
vn -0.996123 -0.059501 -0.064801
vn 0.238290 0.831164 -0.502378
vn 0.238290 0.831164 -0.502378
vn 0.238290 0.831164 -0.502378
vn 0.117302 0.992920 -0.018700
vn 0.117302 0.992920 -0.018700
vn 0.117302 0.992920 -0.018700
vn -0.908591 0.181698 0.376096
vn -0.908591 0.181698 0.376096
vn -0.908591 0.181698 0.376096
vn 0.120004 0.730926 -0.671824
vn 0.120004 0.730926 -0.671824
vn 0.120004 0.730926 -0.671824
vn -0.195196 0.750584 -0.631286
vn -0.195196 0.750584 -0.631286
vn -0.195196 0.750584 -0.631286
vn -0.068700 0.965207 -0.252302
vn -0.068700 0.965207 -0.252302
vn -0.068700 0.965207 -0.252302
vn 0.923669 0.363488 -0.121296
vn 0.923669 0.363488 -0.121296
vn 0.923669 0.363488 -0.121296
vn -0.098403 0.993930 -0.049201
vn -0.098403 0.993930 -0.049201
vn -0.098403 0.993930 -0.049201
vn -0.097498 0.531091 -0.841686
vn -0.097498 0.531091 -0.841686
vn -0.097498 0.531091 -0.841686
vn -0.169996 0.602787 -0.779583
vn -0.169996 0.602787 -0.779583
vn -0.169996 0.602787 -0.779583
vn 0.261688 0.962955 -0.065097
vn 0.261688 0.962955 -0.065097
vn 0.261688 0.962955 -0.065097
vn 0.211893 0.347388 0.913468
vn 0.211893 0.347388 0.913468
vn 0.211893 0.347388 0.913468
vn 0.958387 0.283796 0.030900
vn 0.958387 0.283796 0.030900
vn 0.958387 0.283796 0.030900
vn 0.243797 0.429595 0.869489
vn 0.243797 0.429595 0.869489
vn 0.243797 0.429595 0.869489
vn 0.913476 0.399190 0.078798
vn 0.913476 0.399190 0.078798
vn 0.913476 0.399190 0.078798
vn 0.126998 0.988886 -0.077299
vn 0.126998 0.988886 -0.077299
vn 0.126998 0.988886 -0.077299
vn 0.037499 0.980384 -0.193497
vn 0.037499 0.980384 -0.193497
vn 0.037499 0.980384 -0.193497
vn -0.773180 0.491487 -0.400790
vn -0.773180 0.491487 -0.400790
vn -0.773180 0.491487 -0.400790
vn -0.889883 0.326994 -0.318094
vn -0.889883 0.326994 -0.318094
vn -0.889883 0.326994 -0.318094
vn -0.091104 -0.013701 -0.995747
vn -0.091104 -0.013701 -0.995747
vn -0.091104 -0.013701 -0.995747
vn 0.044301 0.996427 -0.071902
vn 0.044301 0.996427 -0.071902
vn 0.044301 0.996427 -0.071902
vn 0.008100 0.995251 -0.097005
vn 0.008100 0.995251 -0.097005
vn 0.008100 0.995251 -0.097005
vn 0.049799 0.070299 -0.996282
vn 0.049799 0.070299 -0.996282
vn 0.049799 0.070299 -0.996282
vn -0.118596 0.525683 -0.842373
vn -0.118596 0.525683 -0.842373
vn -0.118596 0.525683 -0.842373
vn 0.295094 0.657687 -0.693086
vn 0.295094 0.657687 -0.693086
vn 0.295094 0.657687 -0.693086
vn -0.454917 0.501019 -0.736227
vn -0.454917 0.501019 -0.736227
vn -0.454917 0.501019 -0.736227
vn 0.029300 0.998089 -0.054399
vn 0.029300 0.998089 -0.054399
vn 0.029300 0.998089 -0.054399
vn -0.387497 -0.052200 -0.920392
vn -0.387497 -0.052200 -0.920392
vn -0.387497 -0.052200 -0.920392
vn -0.414078 -0.117294 -0.902652
vn -0.414078 -0.117294 -0.902652
vn -0.414078 -0.117294 -0.902652
vn -0.100703 -0.048601 -0.993729
vn -0.100703 -0.048601 -0.993729
vn -0.100703 -0.048601 -0.993729
vn -0.222095 -0.139597 -0.964980
vn -0.222095 -0.139597 -0.964980
vn -0.222095 -0.139597 -0.964980
vn 0.049998 -0.943463 0.327687
vn 0.049998 -0.943463 0.327687
vn 0.049998 -0.943463 0.327687
vn 0.331508 -0.903721 -0.270906
vn 0.331508 -0.903721 -0.270906
vn 0.331508 -0.903721 -0.270906
vn 0.030702 -0.952554 0.302817
vn 0.030702 -0.952554 0.302817
vn 0.030702 -0.952554 0.302817
vn -0.249313 -0.030202 -0.967952
vn -0.249313 -0.030202 -0.967952
vn -0.249313 -0.030202 -0.967952
vn -0.922420 -0.365908 -0.123503
vn -0.922420 -0.365908 -0.123503
vn -0.922420 -0.365908 -0.123503
vn 0.948836 -0.293011 -0.117704
vn 0.948836 -0.293011 -0.117704
vn 0.948836 -0.293011 -0.117704
vn 0.949858 -0.293987 -0.106495
vn 0.949858 -0.293987 -0.106495
vn 0.949858 -0.293987 -0.106495
vn 0.052702 -0.938834 0.340312
vn 0.052702 -0.938834 0.340312
vn 0.052702 -0.938834 0.340312
vn 0.945024 -0.303108 -0.122703
vn 0.945024 -0.303108 -0.122703
vn 0.945024 -0.303108 -0.122703
vn 0.296618 -0.818249 0.492429
vn 0.296618 -0.818249 0.492429
vn 0.296618 -0.818249 0.492429
vn 0.049699 -0.936179 0.347992
vn 0.049699 -0.936179 0.347992
vn 0.049699 -0.936179 0.347992
vn 0.157192 -0.174391 0.972049
vn 0.157192 -0.174391 0.972049
vn 0.157192 -0.174391 0.972049
vn 0.992178 -0.122597 0.023499
vn 0.992178 -0.122597 0.023499
vn 0.992178 -0.122597 0.023499
vn 0.992000 0.126200 0.003200
vn 0.992000 0.126200 0.003200
vn 0.992000 0.126200 0.003200
vn -0.130194 -0.433178 0.891855
vn -0.130194 -0.433178 0.891855
vn -0.130194 -0.433178 0.891855
vn -0.014500 0.893512 0.448806
vn -0.014500 0.893512 0.448806
vn -0.014500 0.893512 0.448806
vn 0.435922 0.539527 0.720336
vn 0.435922 0.539527 0.720336
vn 0.435922 0.539527 0.720336
vn -0.142703 -0.505711 0.850819
vn -0.142703 -0.505711 0.850819
vn -0.142703 -0.505711 0.850819
vn 0.800330 0.012800 -0.599423
vn 0.800330 0.012800 -0.599423
vn 0.800330 0.012800 -0.599423
vn -0.993637 -0.041002 0.104904
vn -0.993637 -0.041002 0.104904
vn -0.993637 -0.041002 0.104904
vn -0.779474 0.068498 -0.622679
vn -0.779474 0.068498 -0.622679
vn -0.779474 0.068498 -0.622679
vn 0.795805 0.055500 -0.603004
vn 0.795805 0.055500 -0.603004
vn 0.795805 0.055500 -0.603004
vn 0.177692 0.977953 0.109695
vn 0.177692 0.977953 0.109695
vn 0.177692 0.977953 0.109695
vn 0.022899 0.856057 0.516374
vn 0.022899 0.856057 0.516374
vn 0.022899 0.856057 0.516374
vn -0.582991 0.797087 -0.157397
vn -0.582991 0.797087 -0.157397
vn -0.582991 0.797087 -0.157397
vn -0.997256 -0.073997 0.002100
vn -0.997256 -0.073997 0.002100
vn -0.997256 -0.073997 0.002100
vn 0.238290 0.831164 -0.502378
vn 0.238290 0.831164 -0.502378
vn 0.238290 0.831164 -0.502378
vn 0.041098 0.999154 -0.001300
vn 0.041098 0.999154 -0.001300
vn 0.041098 0.999154 -0.001300
vn -0.908591 0.181698 0.376096
vn -0.908591 0.181698 0.376096
vn -0.908591 0.181698 0.376096
vn 0.125596 0.681480 -0.720979
vn 0.125596 0.681480 -0.720979
vn 0.125596 0.681480 -0.720979
vn -0.691205 0.504304 -0.517604
vn -0.691205 0.504304 -0.517604
vn -0.691205 0.504304 -0.517604
vn -0.702680 0.625182 -0.339690
vn -0.702680 0.625182 -0.339690
vn -0.702680 0.625182 -0.339690
vn -0.442222 0.739636 0.507325
vn -0.442222 0.739636 0.507325
vn -0.442222 0.739636 0.507325
vn -0.997256 -0.073997 0.002100
vn -0.997256 -0.073997 0.002100
vn -0.997256 -0.073997 0.002100
vn -0.333097 0.313097 0.889391
vn -0.333097 0.313097 0.889391
vn -0.333097 0.313097 0.889391
vn 0.452613 -0.315509 0.834024
vn 0.452613 -0.315509 0.834024
vn 0.452613 -0.315509 0.834024
vn -0.014400 0.908980 0.416591
vn -0.014400 0.908980 0.416591
vn -0.014400 0.908980 0.416591
vn 0.428983 0.572077 0.699072
vn 0.428983 0.572077 0.699072
vn 0.428983 0.572077 0.699072
vn 0.330804 0.030300 0.943213
vn 0.330804 0.030300 0.943213
vn 0.330804 0.030300 0.943213
vn 0.448501 -0.364001 0.816302
vn 0.448501 -0.364001 0.816302
vn 0.448501 -0.364001 0.816302
vn 0.255911 0.927642 0.272012
vn 0.255911 0.927642 0.272012
vn 0.255911 0.927642 0.272012
vn 0.230900 0.687099 0.688899
vn 0.230900 0.687099 0.688899
vn 0.230900 0.687099 0.688899
vn -0.100600 0.979999 -0.171700
vn -0.100600 0.979999 -0.171700
vn -0.100600 0.979999 -0.171700
vn 0.189104 0.941722 0.278207
vn 0.189104 0.941722 0.278207
vn 0.189104 0.941722 0.278207
vn 0.638387 0.283294 -0.715686
vn 0.638387 0.283294 -0.715686
vn 0.638387 0.283294 -0.715686
vn 0.019800 0.997610 -0.066201
vn 0.019800 0.997610 -0.066201
vn 0.019800 0.997610 -0.066201
vn 0.054198 0.995272 -0.080598
vn 0.054198 0.995272 -0.080598
vn 0.054198 0.995272 -0.080598
vn 0.309202 0.670604 -0.674304
vn 0.309202 0.670604 -0.674304
vn 0.309202 0.670604 -0.674304
vn -0.455611 0.519013 -0.723218
vn -0.455611 0.519013 -0.723218
vn -0.455611 0.519013 -0.723218
vn 0.041998 0.998251 -0.041598
vn 0.041998 0.998251 -0.041598
vn 0.041998 0.998251 -0.041598
vn -0.395898 0.001000 -0.918294
vn -0.395898 0.001000 -0.918294
vn -0.395898 0.001000 -0.918294
vn -0.411203 -0.116201 -0.904107
vn -0.411203 -0.116201 -0.904107
vn -0.411203 -0.116201 -0.904107
vn -0.292815 -0.134607 -0.946647
vn -0.292815 -0.134607 -0.946647
vn -0.292815 -0.134607 -0.946647
vn -0.102596 0.510781 -0.853567
vn -0.102596 0.510781 -0.853567
vn -0.102596 0.510781 -0.853567
vn -0.671697 0.561898 -0.482798
vn -0.671697 0.561898 -0.482798
vn -0.671697 0.561898 -0.482798
vn -0.374021 0.634035 -0.676837
vn -0.374021 0.634035 -0.676837
vn -0.374021 0.634035 -0.676837
vn -0.608183 0.614182 -0.502886
vn -0.608183 0.614182 -0.502886
vn -0.608183 0.614182 -0.502886
vn 0.108808 0.568641 -0.815358
vn 0.108808 0.568641 -0.815358
vn 0.108808 0.568641 -0.815358
vn 0.509294 0.456095 -0.729792
vn 0.509294 0.456095 -0.729792
vn 0.509294 0.456095 -0.729792
vn -0.044102 0.995143 -0.088004
vn -0.044102 0.995143 -0.088004
vn -0.044102 0.995143 -0.088004
s off
g rock19
usemtl standardSurface1SG
f 1/1/1 3/2/2 2/3/3
f 1/4/4 2/5/5 5/6/6
f 1/7/7 4/8/8 3/9/9
f 4/10/10 1/11/11 6/12/12
f 5/13/13 6/14/14 1/15/15
f 35/16/16 34/17/17 7/18/18
f 35/16/19 7/18/20 4/10/21
f 7/19/22 33/20/23 8/21/24
f 32/22/25 5/23/26 9/24/27
f 5/25/28 36/26/29 6/12/30
f 33/20/31 9/24/32 8/21/33
f 8/21/34 9/24/35 10/27/36
f 9/24/37 42/28/38 10/27/39
f 12/29/40 10/30/41 11/31/42
f 10/27/43 41/32/44 11/33/45
f 10/34/46 12/35/47 13/36/48
f 10/34/49 13/36/50 8/37/51
f 12/38/52 15/39/53 13/40/54
f 13/41/55 14/42/56 17/43/57
f 13/44/58 16/45/59 14/46/60
f 13/41/61 17/43/62 8/47/63
f 13/44/64 15/48/65 16/45/66
f 17/49/67 14/50/68 16/51/69
f 18/52/70 17/49/71 16/51/72
f 19/53/73 17/54/74 18/55/75
f 19/53/76 8/56/77 17/54/78
f 46/57/79 20/58/80 24/59/81
f 44/60/82 15/39/83 21/61/84
f 7/19/85 8/21/86 19/62/87
f 19/63/88 16/64/89 15/65/90
f 19/63/91 18/66/92 16/64/93
f 20/67/94 44/60/95 21/61/96
f 50/68/97 22/69/98 7/70/99
f 43/71/100 19/62/101 15/39/102
f 22/69/103 48/72/104 23/73/105
f 24/59/106 47/74/107 46/57/108
f 46/57/109 45/75/110 20/58/111
f 25/76/112 48/72/113 47/74/114
f 25/77/115 26/78/116 4/8/117
f 25/77/118 24/79/119 26/78/120
f 4/8/121 27/80/122 25/77/123
f 25/76/124 27/81/125 23/73/126
f 4/10/127 23/82/128 27/83/129
f 26/84/130 24/85/131 12/29/132
f 28/86/133 26/84/134 12/29/135
f 26/78/136 28/87/137 4/8/138
f 12/29/139 29/88/140 28/86/141
f 29/89/142 3/9/143 28/87/144
f 3/9/145 4/8/146 28/87/147
f 3/2/148 29/90/149 30/91/150
f 12/29/151 30/92/152 29/88/153
f 11/31/154 30/92/155 12/29/156
f 39/93/157 2/3/158 3/2/159
f 2/94/160 37/95/161 11/33/162
f 37/96/163 30/91/164 11/97/165
f 39/98/166 38/99/167 2/100/168
f 24/85/169 20/101/170 12/29/171
f 23/82/172 4/10/173 7/18/174
f 7/70/175 22/69/176 23/73/177
f 20/101/178 21/102/179 12/29/180
f 12/38/181 21/61/182 15/39/183
f 41/32/184 2/94/185 11/33/186
f 36/103/187 33/20/188 35/104/189
f 6/12/190 35/16/191 4/10/192
f 7/19/193 34/105/194 33/20/195
f 32/22/196 31/106/197 5/23/198
f 5/25/199 31/107/200 36/26/201
f 33/20/202 32/22/203 9/24/204
f 36/108/205 31/109/206 32/110/207
f 32/111/208 33/112/209 36/113/210
f 33/20/211 34/105/212 35/104/213
f 6/12/214 36/26/215 35/16/216
f 37/96/217 39/93/218 40/114/219
f 30/91/220 39/93/221 3/2/222
f 2/94/223 38/115/224 37/95/225
f 37/96/226 40/114/227 30/91/228
f 37/96/229 38/116/230 39/93/231
f 30/91/232 40/114/233 39/93/234
f 42/28/235 41/32/236 10/27/237
f 41/117/238 5/118/239 2/119/240
f 9/24/241 5/23/242 42/28/243
f 42/28/244 5/23/245 41/32/246
f 49/120/247 50/121/248 51/122/249
f 19/62/250 50/123/251 7/19/252
f 44/60/253 43/71/254 15/39/255
f 20/67/256 45/124/257 44/60/258
f 50/68/259 49/125/260 22/69/261
f 43/71/262 51/126/263 19/62/264
f 22/69/265 49/125/266 48/72/267
f 24/59/268 25/76/269 47/74/270
f 25/76/271 23/73/272 48/72/273
f 51/127/274 43/128/275 47/74/276
f 43/128/277 44/129/278 45/75/279
f 47/74/280 43/128/281 46/57/282
f 45/75/283 46/57/284 43/128/285
f 47/74/286 48/72/287 51/127/288
f 48/72/289 49/125/290 51/127/291
f 19/62/292 51/126/293 50/123/294
