# This file uses centimeters as units for non-parametric coordinates.

mtllib rock_17.mtl
g default
v -0.002599 -0.298904 1.326974
v -1.130425 -0.513325 0.725438
v -0.144707 0.321174 1.250610
v 0.441320 -0.403877 1.294684
v 0.313311 0.042754 1.170618
v 0.183330 -0.635168 1.002924
v -0.288344 -0.595644 0.820655
v 0.000833 -0.583726 0.073397
v -0.258661 -0.746109 -0.408313
v 1.044681 -0.655994 0.443080
v 1.082163 -0.509907 0.792552
v 0.786733 -0.572981 1.104246
v 0.963647 0.145476 0.656359
v 1.127604 0.036668 0.577448
v 0.990913 0.084935 0.104419
v 0.910160 0.247104 0.186996
v 0.858054 0.289287 -0.287739
v -0.075787 0.396789 -0.074457
v 0.273316 -0.153628 -1.139170
v 0.574217 0.268834 -0.480453
v 0.331061 0.317928 -0.982643
v -0.022236 0.394342 -1.137224
v -0.027936 0.460867 -0.741390
v -0.414557 0.340752 -1.326974
v -0.563874 -0.534783 -1.018117
v -0.688714 0.591968 -0.415568
v -0.836078 0.585489 -1.186243
v -1.064892 -0.306535 -1.103571
v -1.203635 0.426966 -1.001903
v -1.189017 -0.269003 -0.746442
v -1.234699 0.216807 -0.161618
v -1.154777 -0.225135 0.643264
v -1.113737 0.255993 0.446641
v -0.659048 0.537198 1.009209
v -0.960425 -0.546527 -1.017581
v -1.133447 -0.538290 -0.537991
v -1.230646 -0.136501 -0.989337
v 0.169107 0.309556 0.639636
v -1.004603 0.698133 -0.638907
v -1.036997 0.715841 -0.664587
v -1.108734 0.673517 -0.650689
v -1.094507 0.620872 -0.573451
v -1.110258 0.645166 -0.476323
v -1.069940 0.744866 -0.423157
v -0.968769 0.700850 -0.511019
v 0.368353 -0.544574 -0.979819
v 0.341088 -0.523341 -1.041052
v 0.371711 -0.454802 -1.065627
v 0.399603 -0.435795 -1.065922
v 0.472647 -0.455604 -0.981565
v 0.476295 -0.480309 -0.964463
v 0.478375 -0.508024 -0.956133
v 0.474818 -0.530189 -0.953839
v 0.402843 -0.527098 -0.953139
v 1.221995 -0.272186 0.595342
v 1.229522 -0.214112 0.604318
v 1.234699 -0.174832 0.658259
v 1.211710 -0.183242 0.679473
v 1.184886 -0.234937 0.719885
v 1.191670 -0.272577 0.733369
v 1.205383 -0.299925 0.734901
v 1.223954 -0.329891 0.718211
v 1.227981 -0.334937 0.639497
v -1.034966 0.669009 0.267298
v -1.025391 0.639621 0.363699
v -0.951754 0.716300 0.436610
v -0.904303 0.709852 0.297321
v -0.958868 0.725575 0.238990
v -1.010903 0.746109 0.229189
vt 0.749053 0.102278
vt 0.685953 0.000000
vt 0.935587 0.125265
vt 0.518813 0.983381
vt 0.728148 0.858919
vt 0.652099 1.000000
vt 0.380694 0.769424
vt 0.434660 0.865026
vt 0.297431 0.829597
vt 0.645049 0.063241
vt 0.587610 0.004294
vt 0.277814 0.746678
vt 0.681685 0.253103
vt 0.928163 0.543264
vt 0.922575 0.850152
vt 0.917609 0.850569
vt 0.738344 0.351044
vt 0.349781 0.564146
vt 0.434660 0.607205
vt 0.451302 0.173641
vt 0.253594 0.662293
vt 0.340922 0.563233
vt 0.443594 0.103315
vt 0.510887 0.040732
vt 0.838342 0.505173
vt 0.851785 0.495704
vt 0.363325 0.556907
vt 0.416361 0.567473
vt 0.767716 0.620397
vt 0.286258 0.580980
vt 0.334995 0.560199
vt 0.772030 0.521503
vt 0.825257 0.503712
vt 0.911577 0.852674
vt 0.728148 0.706561
vt 0.732855 0.615124
vt 0.168261 0.568104
vt 0.237682 0.549426
vt 0.048707 0.705790
vt 0.443594 0.220890
vt 0.238444 0.269696
vt 0.406430 0.129554
vt 0.410690 0.280398
vt 0.601240 0.478624
vt 0.595529 0.465958
vt 0.443594 0.412869
vt 1.000000 0.648679
vt 0.928163 0.571688
vt 1.000000 0.478624
vt 0.414034 0.394038
vt 0.047711 0.625708
vt 0.073188 0.554163
vt 0.313413 0.387289
vt 0.358981 0.455905
vt 0.306859 0.523602
vt 0.147273 0.392066
vt 0.196880 0.840790
vt 0.252883 0.739937
vt 0.844741 0.907558
vt 0.906309 0.856468
vt 0.904068 0.878685
vt 0.514936 0.509546
vt 0.459418 0.582776
vt 0.448016 0.581237
vt 0.468896 0.478624
vt 0.000000 0.790298
vt 0.470987 0.598560
vt 0.669317 0.560183
vt 0.067724 0.432361
vt 0.098334 0.437722
vt 0.565920 0.678879
vt 0.466492 0.618026
vt 0.104929 0.463851
vt 0.450421 0.805788
vt 0.469075 0.789638
vt 0.556598 0.804218
vt 0.484357 0.926331
vt 0.664834 0.842430
vt 0.026280 0.286866
vt 0.007952 0.131533
vt 0.091802 0.035303
vt 0.723029 0.508502
vt 0.728148 0.602816
vt 0.672569 0.489812
vt 0.640145 0.510534
vt 0.164405 0.873659
vt 0.041330 0.865634
vt 0.802722 0.477307
vt 0.931364 0.381868
vt 0.891007 0.478624
vt 0.253594 0.820595
vt 0.021149 0.302737
vt 0.587871 0.460506
vt 0.215416 0.116626
vt 0.373149 0.037232
vt 0.201498 0.000000
vt 0.418103 0.033354
vt 0.942153 0.730014
vt 0.928163 0.715377
vt 0.942153 0.698661
vt 0.199535 0.543671
vt 0.444566 0.762833
vt 0.443594 0.629666
vt 0.948450 0.648679
vt 0.948450 0.675211
vt 0.928163 0.664247
vt 0.443594 0.559180
vt 0.437133 0.559180
vt 0.437335 0.543671
vt 0.928163 0.747161
vt 0.937527 0.730014
vt 0.946718 0.747161
vt 0.949090 0.698661
vt 0.928163 0.692350
vt 0.949090 0.675211
vt 0.100523 0.471922
vt 0.930914 0.760440
vt 0.928163 0.756631
vt 0.940389 0.747161
vt 0.571871 0.460360
vt 0.233663 0.543671
vt 0.253594 0.555947
vt 0.923377 0.856603
vt 0.928163 0.864316
vt 0.908853 0.880885
vt 0.924484 0.878206
vt 0.940389 0.768107
vt 0.935602 0.764469
vt 0.850162 0.481870
vt 0.838024 0.482889
vt 0.892414 0.478624
vt 0.366438 0.551002
vt 0.329597 0.554353
vt 0.816046 0.494034
vt 0.829929 0.486501
vt 0.349255 0.543671
vt 0.361198 0.545083
vt 0.441089 0.574669
vt 0.437133 0.564483
vt 0.441089 0.559180
vt 0.006665 0.302740
vt 0.462427 0.770003
vt 0.002482 0.266279
vt 0.011218 0.309803
vt 0.928163 0.786039
vt 0.931274 0.768107
vt 0.938721 0.786039
vt 0.000000 0.283643
vt 0.449908 0.778342
vn -0.143062 -0.816535 0.559288
vn -0.143062 -0.816535 0.559288
vn -0.143062 -0.816535 0.559288
vn -0.470697 0.000800 0.882295
vn -0.470697 0.000800 0.882295
vn -0.470697 0.000800 0.882295
vn 0.273909 0.179106 0.944931
vn 0.273909 0.179106 0.944931
vn 0.273909 0.179106 0.944931
vn -0.121401 -0.722805 0.680305
vn -0.121401 -0.722805 0.680305
vn -0.121401 -0.722805 0.680305
vn 0.140005 0.302111 0.942935
vn 0.140005 0.302111 0.942935
vn 0.140005 0.302111 0.942935
vn -0.294685 -0.742561 0.601468
vn -0.294685 -0.742561 0.601468
vn -0.294685 -0.742561 0.601468
vn -0.067303 -0.996848 -0.042002
vn -0.067303 -0.996848 -0.042002
vn -0.067303 -0.996848 -0.042002
vn -0.091400 -0.994497 -0.051200
vn -0.091400 -0.994497 -0.051200
vn -0.091400 -0.994497 -0.051200
vn 0.904012 -0.185002 -0.385405
vn 0.904012 -0.185002 -0.385405
vn 0.904012 -0.185002 -0.385405
vn 0.096496 -0.957762 0.270889
vn 0.096496 -0.957762 0.270889
vn 0.096496 -0.957762 0.270889
vn 0.518994 0.425595 0.741292
vn 0.518994 0.425595 0.741292
vn 0.518994 0.425595 0.741292
vn -0.053199 -0.997579 -0.044799
vn -0.053199 -0.997579 -0.044799
vn -0.053199 -0.997579 -0.044799
vn 0.555270 0.236087 0.797457
vn 0.555270 0.236087 0.797457
vn 0.555270 0.236087 0.797457
vn 0.484695 -0.824292 0.292597
vn 0.484695 -0.824292 0.292597
vn 0.484695 -0.824292 0.292597
vn 0.075798 -0.985269 0.153295
vn 0.075798 -0.985269 0.153295
vn 0.075798 -0.985269 0.153295
vn 0.868826 -0.226807 -0.440113
vn 0.868826 -0.226807 -0.440113
vn 0.868826 -0.226807 -0.440113
vn 0.623991 0.512392 0.589991
vn 0.623991 0.512392 0.589991
vn 0.623991 0.512392 0.589991
vn 0.448094 0.394595 0.802189
vn 0.448094 0.394595 0.802189
vn 0.448094 0.394595 0.802189
vn 0.902268 -0.008800 -0.431085
vn 0.902268 -0.008800 -0.431085
vn 0.902268 -0.008800 -0.431085
vn 0.514202 0.369901 0.773802
vn 0.514202 0.369901 0.773802
vn 0.514202 0.369901 0.773802
vn 0.727384 -0.251494 0.638485
vn 0.727384 -0.251494 0.638485
vn 0.727384 -0.251494 0.638485
vn 0.910310 0.345604 -0.227802
vn 0.910310 0.345604 -0.227802
vn 0.910310 0.345604 -0.227802
vn 0.918146 -0.124793 -0.376078
vn 0.918146 -0.124793 -0.376078
vn 0.918146 -0.124793 -0.376078
vn 0.837018 0.513311 -0.189504
vn 0.837018 0.513311 -0.189504
vn 0.837018 0.513311 -0.189504
vn 0.882270 0.467484 -0.055298
vn 0.882270 0.467484 -0.055298
vn 0.882270 0.467484 -0.055298
vn 0.123905 -0.197008 -0.972541
vn 0.123905 -0.197008 -0.972541
vn 0.123905 -0.197008 -0.972541
vn 0.130601 0.988707 0.073501
vn 0.130601 0.988707 0.073501
vn 0.130601 0.988707 0.073501
vn 0.066501 0.977208 -0.201602
vn 0.066501 0.977208 -0.201602
vn 0.066501 0.977208 -0.201602
vn 0.003600 -0.944321 -0.329007
vn 0.003600 -0.944321 -0.329007
vn 0.003600 -0.944321 -0.329007
vn 0.367407 0.697514 -0.615212
vn 0.367407 0.697514 -0.615212
vn 0.367407 0.697514 -0.615212
vn 0.900819 0.033401 -0.432909
vn 0.900819 0.033401 -0.432909
vn 0.900819 0.033401 -0.432909
vn 0.194308 0.980939 0.001800
vn 0.194308 0.980939 0.001800
vn 0.194308 0.980939 0.001800
vn 0.431889 0.236094 -0.870478
vn 0.431889 0.236094 -0.870478
vn 0.431889 0.236094 -0.870478
vn 0.273408 0.949229 -0.155605
vn 0.273408 0.949229 -0.155605
vn 0.273408 0.949229 -0.155605
vn 0.434195 0.893189 0.116999
vn 0.434195 0.893189 0.116999
vn 0.434195 0.893189 0.116999
vn -0.054099 0.984590 -0.166298
vn -0.054099 0.984590 -0.166298
vn -0.054099 0.984590 -0.166298
vn -0.379810 0.923025 0.061402
vn -0.379810 0.923025 0.061402
vn -0.379810 0.923025 0.061402
vn 0.371002 0.917804 -0.141401
vn 0.371002 0.917804 -0.141401
vn 0.371002 0.917804 -0.141401
vn 0.008600 -0.334011 -0.942530
vn 0.008600 -0.334011 -0.942530
vn 0.008600 -0.334011 -0.942530
vn 0.764099 0.181300 -0.619099
vn 0.764099 0.181300 -0.619099
vn 0.764099 0.181300 -0.619099
vn -0.019800 -0.329604 -0.943912
vn -0.019800 -0.329604 -0.943912
vn -0.019800 -0.329604 -0.943912
vn -0.522708 0.757711 -0.390706
vn -0.522708 0.757711 -0.390706
vn -0.522708 0.757711 -0.390706
vn -0.522708 0.757711 -0.390706
vn -0.522708 0.757711 -0.390706
vn -0.522708 0.757711 -0.390706
vn -0.319700 -0.005800 -0.947501
vn -0.319700 -0.005800 -0.947501
vn -0.319700 -0.005800 -0.947501
vn 0.400386 0.219092 -0.889769
vn 0.400386 0.219092 -0.889769
vn 0.400386 0.219092 -0.889769
vn -0.973487 0.060499 0.220597
vn -0.973487 0.060499 0.220597
vn -0.973487 0.060499 0.220597
vn 0.372604 0.927311 -0.035500
vn 0.372604 0.927311 -0.035500
vn 0.372604 0.927311 -0.035500
vn -0.971131 0.140604 -0.192706
vn -0.971131 0.140604 -0.192706
vn -0.971131 0.140604 -0.192706
vn 0.397601 0.908202 -0.130700
vn 0.397601 0.908202 -0.130700
vn 0.397601 0.908202 -0.130700
vn -0.809786 0.295995 0.506591
vn -0.809786 0.295995 0.506591
vn -0.809786 0.295995 0.506591
vn -0.809786 0.295995 0.506591
vn -0.809786 0.295995 0.506591
vn -0.809786 0.295995 0.506591
vn -0.991428 -0.127504 0.028501
vn -0.991428 -0.127504 0.028501
vn -0.991428 -0.127504 0.028501
vn -0.970449 0.157508 0.182809
vn -0.970449 0.157508 0.182809
vn -0.970449 0.157508 0.182809
vn 0.386896 0.917790 0.089299
vn 0.386896 0.917790 0.089299
vn 0.386896 0.917790 0.089299
vn -0.810229 0.279610 0.515118
vn -0.810229 0.279610 0.515118
vn -0.810229 0.279610 0.515118
vn 0.330995 0.941987 -0.055699
vn 0.330995 0.941987 -0.055699
vn 0.330995 0.941987 -0.055699
vn -0.462808 -0.120602 0.878216
vn -0.462808 -0.120602 0.878216
vn -0.462808 -0.120602 0.878216
vn 0.357398 0.931196 0.071700
vn 0.357398 0.931196 0.071700
vn 0.357398 0.931196 0.071700
vn -0.996704 -0.076500 0.027000
vn -0.996704 -0.076500 0.027000
vn -0.996704 -0.076500 0.027000
vn -0.576215 0.178705 0.797521
vn -0.576215 0.178705 0.797521
vn -0.576215 0.178705 0.797521
vn -0.859383 -0.411892 -0.302994
vn -0.859383 -0.411892 -0.302994
vn -0.859383 -0.411892 -0.302994
vn -0.852587 -0.459993 -0.247996
vn -0.852587 -0.459993 -0.247996
vn -0.852587 -0.459993 -0.247996
vn -0.980284 -0.197497 0.006200
vn -0.980284 -0.197497 0.006200
vn -0.980284 -0.197497 0.006200
vn -0.979301 0.051300 0.195800
vn -0.979301 0.051300 0.195800
vn -0.979301 0.051300 0.195800
vn -0.765694 -0.610696 -0.201899
vn -0.765694 -0.610696 -0.201899
vn -0.765694 -0.610696 -0.201899
vn -0.561515 0.008500 -0.827423
vn -0.561515 0.008500 -0.827423
vn -0.561515 0.008500 -0.827423
vn 0.029599 -0.999172 0.027899
vn 0.029599 -0.999172 0.027899
vn 0.029599 -0.999172 0.027899
vn 0.022801 -0.999546 0.019701
vn 0.022801 -0.999546 0.019701
vn 0.022801 -0.999546 0.019701
vn 0.008600 -0.334011 -0.942530
vn 0.008600 -0.334011 -0.942530
vn 0.008600 -0.334011 -0.942530
vn 0.372604 0.927311 -0.035500
vn 0.372604 0.927311 -0.035500
vn 0.372604 0.927311 -0.035500
vn -0.460315 0.035901 -0.887029
vn -0.460315 0.035901 -0.887029
vn -0.460315 0.035901 -0.887029
vn 0.386523 -0.916754 0.100806
vn 0.386523 -0.916754 0.100806
vn 0.386523 -0.916754 0.100806
vn -0.395921 -0.910748 -0.117406
vn -0.395921 -0.910748 -0.117406
vn -0.395921 -0.910748 -0.117406
vn 0.162304 0.984624 0.064602
vn 0.162304 0.984624 0.064602
vn 0.162304 0.984624 0.064602
vn 0.200997 0.978284 0.050599
vn 0.200997 0.978284 0.050599
vn 0.200997 0.978284 0.050599
vn 0.094903 0.975126 0.200305
vn 0.094903 0.975126 0.200305
vn 0.094903 0.975126 0.200305
vn 0.534289 0.804583 0.259195
vn 0.534289 0.804583 0.259195
vn 0.534289 0.804583 0.259195
vn 0.176899 0.897897 0.403098
vn 0.176899 0.897897 0.403098
vn 0.176899 0.897897 0.403098
vn 0.585108 0.803812 0.107402
vn 0.585108 0.803812 0.107402
vn 0.585108 0.803812 0.107402
vn -0.027199 -0.771474 0.635679
vn -0.027199 -0.771474 0.635679
vn -0.027199 -0.771474 0.635679
vn -0.396999 0.551699 -0.733499
vn -0.396999 0.551699 -0.733499
vn -0.396999 0.551699 -0.733499
vn 0.495387 0.868277 -0.026199
vn 0.495387 0.868277 -0.026199
vn 0.495387 0.868277 -0.026199
vn -0.973487 0.060499 0.220597
vn -0.973487 0.060499 0.220597
vn -0.973487 0.060499 0.220597
vn -0.938584 0.334594 0.084299
vn -0.938584 0.334594 0.084299
vn -0.938584 0.334594 0.084299
vn -0.971149 0.140607 -0.192610
vn -0.971149 0.140607 -0.192610
vn -0.971149 0.140607 -0.192610
vn 0.397601 0.908202 -0.130700
vn 0.397601 0.908202 -0.130700
vn 0.397601 0.908202 -0.130700
vn -0.938584 0.334594 0.084299
vn -0.938584 0.334594 0.084299
vn -0.938584 0.334594 0.084299
vn -0.581526 0.800336 0.145907
vn -0.581526 0.800336 0.145907
vn -0.581526 0.800336 0.145907
vn -0.233704 0.637312 0.734313
vn -0.233704 0.637312 0.734313
vn -0.233704 0.637312 0.734313
vn -0.249189 0.778266 0.576374
vn -0.249189 0.778266 0.576374
vn -0.249189 0.778266 0.576374
vn -0.410584 0.866667 -0.283389
vn -0.410584 0.866667 -0.283389
vn -0.410584 0.866667 -0.283389
vn 0.495387 0.868277 -0.026199
vn 0.495387 0.868277 -0.026199
vn 0.495387 0.868277 -0.026199
vn -0.014000 -0.100702 -0.994818
vn -0.014000 -0.100702 -0.994818
vn -0.014000 -0.100702 -0.994818
vn -0.043498 -0.996456 -0.071997
vn -0.043498 -0.996456 -0.071997
vn -0.043498 -0.996456 -0.071997
vn 0.910669 -0.054798 -0.409486
vn 0.910669 -0.054798 -0.409486
vn 0.910669 -0.054798 -0.409486
vn 0.918130 -0.124804 -0.376112
vn 0.918130 -0.124804 -0.376112
vn 0.918130 -0.124804 -0.376112
vn 0.123905 -0.197008 -0.972541
vn 0.123905 -0.197008 -0.972541
vn 0.123905 -0.197008 -0.972541
vn 0.003600 -0.944321 -0.329007
vn 0.003600 -0.944321 -0.329007
vn 0.003600 -0.944321 -0.329007
vn 0.764099 0.181300 -0.619099
vn 0.764099 0.181300 -0.619099
vn 0.764099 0.181300 -0.619099
vn -0.019800 -0.329604 -0.943912
vn -0.019800 -0.329604 -0.943912
vn -0.019800 -0.329604 -0.943912
vn 0.386523 -0.916754 0.100806
vn 0.386523 -0.916754 0.100806
vn 0.386523 -0.916754 0.100806
vn 0.670992 -0.525294 -0.523294
vn 0.670992 -0.525294 -0.523294
vn 0.670992 -0.525294 -0.523294
vn 0.716221 -0.496015 -0.490914
vn 0.716221 -0.496015 -0.490914
vn 0.716221 -0.496015 -0.490914
vn 0.459876 -0.683665 -0.566671
vn 0.459876 -0.683665 -0.566671
vn 0.459876 -0.683665 -0.566671
vn 0.467191 -0.680587 -0.564389
vn 0.467191 -0.680587 -0.564389
vn 0.467191 -0.680587 -0.564389
vn 0.214302 -0.534406 -0.817609
vn 0.214302 -0.534406 -0.817609
vn 0.214302 -0.534406 -0.817609
vn 0.034101 -0.285309 -0.957829
vn 0.034101 -0.285309 -0.957829
vn 0.034101 -0.285309 -0.957829
vn -0.043498 -0.996456 -0.071997
vn -0.043498 -0.996456 -0.071997
vn -0.043498 -0.996456 -0.071997
vn 0.872731 0.488017 0.013400
vn 0.872731 0.488017 0.013400
vn 0.872731 0.488017 0.013400
vn 0.818641 -0.555828 0.144507
vn 0.818641 -0.555828 0.144507
vn 0.818641 -0.555828 0.144507
vn 0.512297 0.301898 0.803996
vn 0.512297 0.301898 0.803996
vn 0.512297 0.301898 0.803996
vn 0.886230 -0.256409 -0.385813
vn 0.886230 -0.256409 -0.385813
vn 0.886230 -0.256409 -0.385813
vn 0.473101 0.513201 0.716101
vn 0.473101 0.513201 0.716101
vn 0.473101 0.513201 0.716101
vn 0.890663 -0.045498 -0.452381
vn 0.890663 -0.045498 -0.452381
vn 0.890663 -0.045498 -0.452381
vn 0.516707 0.363405 0.775210
vn 0.516707 0.363405 0.775210
vn 0.516707 0.363405 0.775210
vn 0.564231 -0.106306 0.818745
vn 0.564231 -0.106306 0.818745
vn 0.564231 -0.106306 0.818745
vn 0.888325 0.326409 -0.323009
vn 0.888325 0.326409 -0.323009
vn 0.888325 0.326409 -0.323009
vn 0.947849 0.238887 0.210989
vn 0.947849 0.238887 0.210989
vn 0.947849 0.238887 0.210989
vn 0.929060 -0.171093 0.327986
vn 0.929060 -0.171093 0.327986
vn 0.929060 -0.171093 0.327986
vn 0.947938 0.244110 0.204508
vn 0.947938 0.244110 0.204508
vn 0.947938 0.244110 0.204508
vn 0.626719 -0.657320 0.418513
vn 0.626719 -0.657320 0.418513
vn 0.626719 -0.657320 0.418513
vn 0.920615 -0.232504 0.313705
vn 0.920615 -0.232504 0.313705
vn 0.920615 -0.232504 0.313705
vn 0.877180 0.449290 0.169396
vn 0.877180 0.449290 0.169396
vn 0.877180 0.449290 0.169396
vn 0.798704 -0.596503 0.079100
vn 0.798704 -0.596503 0.079100
vn 0.798704 -0.596503 0.079100
vn -0.361688 0.758075 0.542682
vn -0.361688 0.758075 0.542682
vn -0.361688 0.758075 0.542682
vn -0.951056 0.256315 0.172610
vn -0.951056 0.256315 0.172610
vn -0.951056 0.256315 0.172610
vn 0.386896 0.917790 0.089299
vn 0.386896 0.917790 0.089299
vn 0.386896 0.917790 0.089299
vn 0.330995 0.941987 -0.055699
vn 0.330995 0.941987 -0.055699
vn 0.330995 0.941987 -0.055699
vn 0.372604 0.927311 -0.035500
vn 0.372604 0.927311 -0.035500
vn 0.372604 0.927311 -0.035500
vn -0.938584 0.334594 0.084299
vn -0.938584 0.334594 0.084299
vn -0.938584 0.334594 0.084299
vn 0.005300 0.441799 0.897098
vn 0.005300 0.441799 0.897098
vn 0.005300 0.441799 0.897098
vn -0.347311 0.886829 0.304810
vn -0.347311 0.886829 0.304810
vn -0.347311 0.886829 0.304810
vn -0.580586 0.779881 -0.233894
vn -0.580586 0.779881 -0.233894
vn -0.580586 0.779881 -0.233894
vn -0.951056 0.256315 0.172610
vn -0.951056 0.256315 0.172610
vn -0.951056 0.256315 0.172610
s off
g rock16
usemtl standardSurface1SG
f 7/1/1 1/2/2 2/3/3
f 3/4/4 2/5/5 1/6/6
f 5/7/7 3/8/8 1/9/9
f 6/10/10 4/11/11 1/2/12
f 5/7/13 1/9/14 4/12/15
f 6/10/16 1/2/17 7/1/18
f 6/10/19 7/1/20 8/13/21
f 2/3/22 8/13/23 7/1/24
f 10/14/25 53/15/26 52/16/27
f 2/3/28 9/17/29 8/13/30
f 59/18/31 13/19/32 5/7/33
f 10/20/34 6/10/35 8/13/36
f 12/21/37 60/22/38 4/12/39
f 11/23/40 12/24/41 10/20/42
f 6/10/43 10/20/44 12/24/45
f 10/14/46 55/25/47 63/26/48
f 58/27/49 14/28/50 13/19/51
f 59/18/52 58/27/53 13/19/54
f 15/29/55 55/25/56 52/16/57
f 59/18/58 4/12/59 60/22/60
f 11/30/61 61/31/62 12/21/63
f 14/32/64 56/33/65 15/29/66
f 51/34/67 17/35/68 15/29/69
f 14/32/70 15/29/71 16/36/72
f 16/36/73 15/29/74 17/35/75
f 19/37/76 48/38/77 24/39/78
f 17/40/79 18/41/80 16/42/81
f 20/43/82 18/41/83 17/40/84
f 9/17/85 47/44/86 46/45/87
f 19/46/88 20/43/89 17/40/90
f 19/47/91 21/48/92 20/49/93
f 20/43/94 21/50/95 18/41/96
f 22/51/97 21/52/98 19/37/99
f 23/53/100 21/50/101 22/54/102
f 23/53/103 18/41/104 21/50/105
f 24/55/106 23/53/107 22/54/108
f 24/55/109 18/41/110 23/53/111
f 26/56/112 18/41/113 24/55/114
f 28/57/115 24/39/116 25/58/117
f 19/59/118 50/60/119 49/61/120
f 48/38/121 25/58/122 24/39/123
f 29/62/124 41/63/125 40/64/126
f 29/62/127 40/64/128 27/65/129
f 28/57/130 27/66/131 24/39/132
f 22/51/133 19/37/134 24/39/135
f 42/67/136 29/62/137 30/68/138
f 44/69/139 26/56/140 45/70/141
f 42/67/142 31/71/143 43/72/144
f 39/73/145 26/56/146 24/55/147
f 66/74/148 65/75/149 33/76/150
f 66/74/151 33/76/152 34/77/153
f 30/68/154 32/78/155 31/71/156
f 31/71/157 32/78/158 33/76/159
f 67/79/160 34/80/161 18/41/162
f 34/77/163 33/76/164 32/78/165
f 26/56/166 67/79/167 18/41/168
f 3/4/169 34/77/170 32/78/171
f 18/41/172 34/80/173 3/81/174
f 30/68/175 2/5/176 32/78/177
f 3/4/178 32/78/179 2/5/180
f 35/82/181 36/83/182 30/68/183
f 35/82/184 30/68/185 28/84/186
f 30/68/187 36/83/188 2/5/189
f 29/62/190 37/85/191 30/68/192
f 30/68/193 37/85/194 28/84/195
f 28/57/196 37/86/197 29/87/198
f 25/88/199 36/89/200 35/90/201
f 25/88/202 2/3/203 36/89/204
f 28/57/205 25/58/206 35/91/207
f 44/69/208 68/92/209 26/56/210
f 28/57/211 29/87/212 27/66/213
f 9/17/214 54/93/215 8/13/216
f 9/17/217 2/3/218 25/88/219
f 3/81/220 38/94/221 18/41/222
f 38/94/223 13/95/224 18/41/225
f 13/95/226 16/42/227 18/41/228
f 3/81/229 5/96/230 38/94/231
f 38/94/232 5/96/233 13/95/234
f 14/97/235 16/42/236 13/95/237
f 6/10/238 12/24/239 4/11/240
f 43/98/241 44/99/242 45/100/243
f 27/101/244 39/73/245 24/55/246
f 42/67/247 41/63/248 29/62/249
f 31/71/250 69/102/251 44/103/252
f 42/67/253 30/68/254 31/71/255
f 39/73/256 45/70/257 26/56/258
f 44/103/259 43/72/260 31/71/261
f 45/104/262 39/105/263 42/106/264
f 39/107/265 40/108/266 41/109/267
f 42/110/268 39/111/269 41/112/270
f 42/113/271 43/114/272 45/115/273
f 27/101/274 40/116/275 39/73/276
f 52/117/277 53/118/278 54/119/279
f 53/120/280 8/13/281 54/93/282
f 52/16/283 51/34/284 15/29/285
f 51/34/286 50/60/287 17/35/288
f 19/37/289 49/121/290 48/38/291
f 9/17/292 25/88/293 47/44/294
f 19/59/295 17/35/296 50/60/297
f 48/38/298 47/122/299 25/58/300
f 9/17/301 46/45/302 54/93/303
f 54/123/304 46/124/305 48/125/306
f 46/124/307 47/126/308 48/125/309
f 48/125/310 49/61/311 54/123/312
f 49/61/313 50/60/314 54/123/315
f 50/127/316 51/128/317 54/119/318
f 51/128/319 52/117/320 54/119/321
f 53/120/322 10/20/323 8/13/324
f 62/129/325 63/26/326 60/130/327
f 63/26/328 11/131/329 10/14/330
f 12/21/331 61/31/332 60/22/333
f 10/14/334 52/16/335 55/25/336
f 58/27/337 57/132/338 14/28/339
f 15/29/340 56/33/341 55/25/342
f 59/18/343 5/7/344 4/12/345
f 11/30/346 62/133/347 61/31/348
f 14/32/349 57/134/350 56/33/351
f 63/26/352 55/25/353 59/135/354
f 55/136/355 56/137/356 59/18/357
f 63/26/358 59/135/359 60/130/360
f 56/138/361 57/139/362 58/140/363
f 58/27/364 59/18/365 56/137/366
f 60/22/367 61/31/368 62/133/369
f 63/26/370 62/129/371 11/131/372
f 67/79/373 68/92/374 64/141/375
f 33/76/376 64/142/377 31/71/378
f 67/79/379 66/143/380 34/80/381
f 26/56/382 68/92/383 67/79/384
f 44/69/385 69/144/386 68/92/387
f 31/71/388 64/142/389 69/102/390
f 69/145/391 64/146/392 68/147/393
f 64/141/394 65/148/395 67/79/396
f 65/75/397 66/74/398 67/149/399
f 33/76/400 65/75/401 64/142/402
