# This file uses centimeters as units for non-parametric coordinates.

mtllib rock_23.mtl
g default
v 0.168580 -0.433385 0.552303
v 0.490500 -0.336748 0.226477
v 0.348607 -0.226313 0.039856
v 0.156839 -0.373472 0.594470
v 0.246374 -0.326626 0.575973
v 0.069693 -0.313737 0.498267
v 0.092439 -0.251388 0.155143
v -0.209307 -0.191126 -0.244243
v -0.225597 0.042986 -0.602429
v -0.569033 -0.001647 -0.352907
v -0.262823 0.140218 0.144797
v -0.174740 0.433385 -0.489584
v -0.557520 0.256971 -0.260946
v -0.454522 0.394477 -0.290887
v -0.488176 0.300903 -0.170636
v -0.217312 0.280233 -0.230008
v 0.464961 -0.070047 0.199499
v 0.246494 -0.217981 0.523094
v -0.021313 -0.117312 0.347234
v 0.532417 -0.195752 0.338145
v 0.514793 -0.241001 0.414258
v 0.569034 -0.256561 0.314614
v 0.232603 0.040225 -0.234662
v -0.091364 0.099005 -0.519284
v 0.300047 -0.264516 0.602430
v 0.065007 -0.201560 0.472539
v -0.454641 0.250550 -0.432311
v -0.124720 -0.253070 0.218548
v -0.126342 -0.225160 0.212937
v -0.158053 -0.208726 0.182698
v -0.169624 -0.232963 0.157604
v -0.152406 -0.241247 0.148166
v -0.107843 -0.247025 0.181615
v -0.122864 -0.260390 0.214518
v 0.033524 0.355052 -0.352060
v 0.032580 0.340759 -0.366460
v -0.011759 0.330876 -0.408748
v -0.041763 0.405544 -0.413802
v -0.242417 0.240425 -0.535535
vt 0.441462 0.225512
vt 0.541348 0.317301
vt 0.430514 0.509972
vt 0.552251 0.275698
vt 0.552251 0.000000
vt 0.815182 0.759266
vt 0.879761 0.728158
vt 0.879761 0.990990
vt 0.293898 0.186995
vt 0.302646 0.038768
vt 0.845935 0.709991
vt 0.728566 0.650438
vt 0.771761 0.731182
vt 0.734889 0.732570
vt 0.551350 0.321004
vt 0.535589 0.717591
vt 0.305211 0.707481
vt 0.663415 0.517097
vt 0.749289 0.419464
vt 0.749769 0.446326
vt 0.762717 0.454766
vt 0.391798 0.856431
vt 0.515001 0.724546
vt 0.515001 0.957958
vt 0.588021 0.297689
vt 0.624018 0.003694
vt 0.771761 0.013148
vt 0.295910 0.905912
vt 0.366876 0.968617
vt 0.059912 0.773619
vt 0.002203 0.709241
vt 0.000000 0.469829
vt 0.552251 0.000000
vt 0.580464 0.056527
vt 0.139377 0.643851
vt 0.245966 0.777577
vt 0.293898 0.164710
vt 0.948797 0.611594
vt 0.791616 0.546949
vt 0.908063 0.366374
vt 0.781719 0.544565
vt 0.871517 0.112365
vt 0.986268 0.189025
vt 1.000000 0.050025
vt 0.938896 0.000000
vt 0.028355 0.241123
vt 0.090275 0.061068
vt 0.240094 0.015112
vt 0.273698 0.052858
vt 0.291394 0.032971
vt 0.779149 0.695357
vt 0.806862 0.578635
vt 1.000000 0.690238
vt 0.888989 0.709991
vt 0.777944 0.941437
vt 0.804414 1.000000
vt 0.771761 0.777013
vt 0.087757 0.000000
vt 0.628972 0.811959
vt 0.590084 0.791681
vt 0.628972 0.746936
vt 0.766877 0.409872
vt 0.024191 0.140971
vt 0.676955 0.615841
vt 0.534207 0.286486
vt 0.065424 0.008378
vt 0.707810 0.746936
vt 0.590084 0.853658
vt 0.552251 0.782176
vt 0.590084 0.746936
vt 0.403531 0.739660
vt 0.293898 0.717591
vt 0.537177 0.717591
vt 0.546898 0.745628
vt 0.524085 0.745628
vt 0.766990 0.455208
vt 0.628972 0.757126
vt 0.631135 0.752800
vt 0.644337 0.771348
vt 0.644337 0.746936
vt 0.529489 0.772569
vt 0.530549 0.745628
vt 0.546898 0.772569
vt 0.652062 0.774236
vt 0.644337 0.754727
vt 0.652062 0.746936
vt 0.771761 0.606122
vt 0.293898 0.637242
vt 0.524085 0.862883
vt 0.515001 0.801038
vt 0.524085 0.717591
vn -0.037628 -0.991910 -0.121237
vn -0.037628 -0.991910 -0.121237
vn -0.037628 -0.991910 -0.121237
vn -0.073201 -0.911912 -0.403805
vn -0.073201 -0.911912 -0.403805
vn -0.073201 -0.911912 -0.403805
vn 0.657196 -0.584397 0.475997
vn 0.657196 -0.584397 0.475997
vn 0.657196 -0.584397 0.475997
vn -0.151394 -0.896866 -0.415584
vn -0.151394 -0.896866 -0.415584
vn -0.151394 -0.896866 -0.415584
vn -0.090902 -0.911817 -0.400408
vn -0.090902 -0.911817 -0.400408
vn -0.090902 -0.911817 -0.400408
vn 0.407882 -0.470679 0.782365
vn 0.407882 -0.470679 0.782365
vn 0.407882 -0.470679 0.782365
vn -0.782230 -0.453717 0.426916
vn -0.782230 -0.453717 0.426916
vn -0.782230 -0.453717 0.426916
vn 0.022100 -0.985980 -0.165397
vn 0.022100 -0.985980 -0.165397
vn 0.022100 -0.985980 -0.165397
vn -0.454207 -0.889613 -0.047801
vn -0.454207 -0.889613 -0.047801
vn -0.454207 -0.889613 -0.047801
vn 0.224002 -0.811107 -0.540305
vn 0.224002 -0.811107 -0.540305
vn 0.224002 -0.811107 -0.540305
vn -0.270889 -0.811367 -0.517979
vn -0.270889 -0.811367 -0.517979
vn -0.270889 -0.811367 -0.517979
vn -0.720798 -0.142700 0.678298
vn -0.720798 -0.142700 0.678298
vn -0.720798 -0.142700 0.678298
vn -0.812100 0.069200 0.579400
vn -0.812100 0.069200 0.579400
vn -0.812100 0.069200 0.579400
vn -0.588791 0.012600 -0.808187
vn -0.588791 0.012600 -0.808187
vn -0.588791 0.012600 -0.808187
vn -0.820016 -0.159003 0.549811
vn -0.820016 -0.159003 0.549811
vn -0.820016 -0.159003 0.549811
vn -0.898056 0.308685 -0.313385
vn -0.898056 0.308685 -0.313385
vn -0.898056 0.308685 -0.313385
vn -0.603908 0.290804 -0.742110
vn -0.603908 0.290804 -0.742110
vn -0.603908 0.290804 -0.742110
vn -0.215988 0.798954 0.561268
vn -0.215988 0.798954 0.561268
vn -0.215988 0.798954 0.561268
vn -0.741368 0.614174 0.270488
vn -0.741368 0.614174 0.270488
vn -0.741368 0.614174 0.270488
vn 0.257603 0.813111 0.522007
vn 0.257603 0.813111 0.522007
vn 0.257603 0.813111 0.522007
vn 0.326190 0.871874 0.365289
vn 0.326190 0.871874 0.365289
vn 0.326190 0.871874 0.365289
vn 0.109200 0.848199 0.518299
vn 0.109200 0.848199 0.518299
vn 0.109200 0.848199 0.518299
vn 0.232996 0.901384 0.364993
vn 0.232996 0.901384 0.364993
vn 0.232996 0.901384 0.364993
vn 0.667515 0.122103 -0.734517
vn 0.667515 0.122103 -0.734517
vn 0.667515 0.122103 -0.734517
vn 0.845221 0.404110 -0.349709
vn 0.845221 0.404110 -0.349709
vn 0.845221 0.404110 -0.349709
vn 0.858924 -0.134904 -0.494014
vn 0.858924 -0.134904 -0.494014
vn 0.858924 -0.134904 -0.494014
vn 0.800509 0.016000 -0.599107
vn 0.800509 0.016000 -0.599107
vn 0.800509 0.016000 -0.599107
vn 0.744883 0.003800 -0.667185
vn 0.744883 0.003800 -0.667185
vn 0.744883 0.003800 -0.667185
vn 0.147097 0.692885 0.705885
vn 0.147097 0.692885 0.705885
vn 0.147097 0.692885 0.705885
vn 0.046999 0.896083 0.441392
vn 0.046999 0.896083 0.441392
vn 0.046999 0.896083 0.441392
vn 0.291402 0.780205 0.553503
vn 0.291402 0.780205 0.553503
vn 0.291402 0.780205 0.553503
vn 0.862472 0.504684 0.037899
vn 0.862472 0.504684 0.037899
vn 0.862472 0.504684 0.037899
vn 0.336194 0.773286 0.537590
vn 0.336194 0.773286 0.537590
vn 0.336194 0.773286 0.537590
vn 0.535824 0.206309 -0.818736
vn 0.535824 0.206309 -0.818736
vn 0.535824 0.206309 -0.818736
vn 0.523484 -0.490085 -0.696979
vn 0.523484 -0.490085 -0.696979
vn 0.523484 -0.490085 -0.696979
vn 0.597191 -0.393594 -0.698890
vn 0.597191 -0.393594 -0.698890
vn 0.597191 -0.393594 -0.698890
vn 0.671396 0.118299 -0.731596
vn 0.671396 0.118299 -0.731596
vn 0.671396 0.118299 -0.731596
vn 0.238894 0.144896 -0.960175
vn 0.238894 0.144896 -0.960175
vn 0.238894 0.144896 -0.960175
vn 0.844113 0.351805 0.404606
vn 0.844113 0.351805 0.404606
vn 0.844113 0.351805 0.404606
vn 0.432902 -0.824504 0.364402
vn 0.432902 -0.824504 0.364402
vn 0.432902 -0.824504 0.364402
vn 0.470188 -0.809380 0.351891
vn 0.470188 -0.809380 0.351891
vn 0.470188 -0.809380 0.351891
vn 0.526615 -0.675119 0.516615
vn 0.526615 -0.675119 0.516615
vn 0.526615 -0.675119 0.516615
vn 0.228494 0.899177 0.373190
vn 0.228494 0.899177 0.373190
vn 0.228494 0.899177 0.373190
vn -0.688889 0.317795 0.651489
vn -0.688889 0.317795 0.651489
vn -0.688889 0.317795 0.651489
vn -0.812888 -0.183997 0.552592
vn -0.812888 -0.183997 0.552592
vn -0.812888 -0.183997 0.552592
vn -0.095203 0.794527 0.599720
vn -0.095203 0.794527 0.599720
vn -0.095203 0.794527 0.599720
vn -0.783407 0.107701 0.612106
vn -0.783407 0.107701 0.612106
vn -0.783407 0.107701 0.612106
vn -0.037601 -0.991916 -0.121202
vn -0.037601 -0.991916 -0.121202
vn -0.037601 -0.991916 -0.121202
vn -0.206304 0.428409 0.879718
vn -0.206304 0.428409 0.879718
vn -0.206304 0.428409 0.879718
vn -0.383391 0.191196 0.903579
vn -0.383391 0.191196 0.903579
vn -0.383391 0.191196 0.903579
vn -0.802417 0.043001 0.595213
vn -0.802417 0.043001 0.595213
vn -0.802417 0.043001 0.595213
vn -0.237488 0.714065 0.658567
vn -0.237488 0.714065 0.658567
vn -0.237488 0.714065 0.658567
vn -0.412200 0.260700 -0.872999
vn -0.412200 0.260700 -0.872999
vn -0.412200 0.260700 -0.872999
vn -0.516896 0.600196 -0.610396
vn -0.516896 0.600196 -0.610396
vn -0.516896 0.600196 -0.610396
vn -0.499290 -0.669986 0.549389
vn -0.499290 -0.669986 0.549389
vn -0.499290 -0.669986 0.549389
vn -0.778541 -0.442423 0.445124
vn -0.778541 -0.442423 0.445124
vn -0.778541 -0.442423 0.445124
vn -0.073201 -0.911912 -0.403805
vn -0.073201 -0.911912 -0.403805
vn -0.073201 -0.911912 -0.403805
vn -0.454207 -0.889613 -0.047801
vn -0.454207 -0.889613 -0.047801
vn -0.454207 -0.889613 -0.047801
vn -0.720798 -0.142700 0.678298
vn -0.720798 -0.142700 0.678298
vn -0.720798 -0.142700 0.678298
vn -0.812095 0.069300 0.579396
vn -0.812095 0.069300 0.579396
vn -0.812095 0.069300 0.579396
vn -0.812888 -0.183997 0.552592
vn -0.812888 -0.183997 0.552592
vn -0.812888 -0.183997 0.552592
vn -0.909445 -0.001700 -0.415821
vn -0.909445 -0.001700 -0.415821
vn -0.909445 -0.001700 -0.415821
vn -0.892010 -0.138402 -0.430305
vn -0.892010 -0.138402 -0.430305
vn -0.892010 -0.138402 -0.430305
vn -0.592019 -0.781725 0.196006
vn -0.592019 -0.781725 0.196006
vn -0.592019 -0.781725 0.196006
vn 0.028001 -0.725429 0.687727
vn 0.028001 -0.725429 0.687727
vn 0.028001 -0.725429 0.687727
vn -0.778541 -0.442423 0.445124
vn -0.778541 -0.442423 0.445124
vn -0.778541 -0.442423 0.445124
vn 0.706504 0.238801 -0.666203
vn 0.706504 0.238801 -0.666203
vn 0.706504 0.238801 -0.666203
vn -0.191995 0.698983 0.688883
vn -0.191995 0.698983 0.688883
vn -0.191995 0.698983 0.688883
vn 0.829649 0.368122 -0.419725
vn 0.829649 0.368122 -0.419725
vn 0.829649 0.368122 -0.419725
vn 0.512989 0.148897 -0.845383
vn 0.512989 0.148897 -0.845383
vn 0.512989 0.148897 -0.845383
vn 0.471199 0.610399 -0.636699
vn 0.471199 0.610399 -0.636699
vn 0.471199 0.610399 -0.636699
vn -0.372311 0.442513 0.815823
vn -0.372311 0.442513 0.815823
vn -0.372311 0.442513 0.815823
vn 0.396414 0.324712 -0.858731
vn 0.396414 0.324712 -0.858731
vn 0.396414 0.324712 -0.858731
vn -0.397704 0.342204 -0.851309
vn -0.397704 0.342204 -0.851309
vn -0.397704 0.342204 -0.851309
s off
g rock22
usemtl standardSurface1SG
f 7/1/1 32/2/2 8/3/3
f 34/4/4 7/1/5 1/5/6
f 5/6/7 1/7/8 2/8/9
f 3/9/10 2/10/11 1/5/12
f 1/5/13 7/1/14 3/9/15
f 5/6/16 4/11/17 1/7/18
f 6/12/19 1/13/20 4/14/21
f 8/3/22 3/9/23 7/1/24
f 8/3/25 31/15/26 10/16/27
f 8/3/28 9/17/29 3/9/30
f 10/16/31 9/17/32 8/3/33
f 19/18/34 30/19/35 29/20/36
f 28/21/37 19/18/38 29/20/39
f 27/22/40 9/23/41 10/24/42
f 11/25/43 13/26/44 10/27/45
f 14/28/46 27/22/47 10/24/48
f 10/24/49 13/29/50 14/28/51
f 14/30/52 15/31/53 11/32/54
f 14/33/55 13/26/56 15/34/57
f 14/30/58 16/35/59 12/36/60
f 14/30/61 11/32/62 16/35/63
f 17/37/64 12/36/65 16/35/66
f 17/37/67 16/35/68 11/32/69
f 24/38/70 36/39/71 23/40/72
f 23/40/73 35/41/74 17/42/75
f 17/42/76 3/43/77 23/40/78
f 17/42/79 2/44/80 3/43/81
f 17/42/82 22/45/83 2/44/84
f 17/37/85 11/32/86 19/46/87
f 19/46/88 18/47/89 17/37/90
f 21/48/91 17/37/92 18/47/93
f 17/37/94 20/49/95 22/50/96
f 21/48/97 20/49/98 17/37/99
f 12/51/100 37/52/101 24/38/102
f 23/40/103 3/43/104 24/38/105
f 9/53/106 24/38/107 3/43/108
f 24/38/109 37/52/110 36/39/111
f 24/38/112 39/54/113 12/51/114
f 21/48/115 22/50/116 20/49/117
f 21/55/118 2/8/119 22/56/120
f 21/55/121 5/6/122 2/8/123
f 21/55/124 25/57/125 5/6/126
f 18/47/127 25/58/128 21/48/129
f 5/59/130 25/60/131 18/61/132
f 11/25/133 31/62/134 30/19/135
f 19/46/136 26/63/137 18/47/138
f 6/12/139 26/64/140 19/18/141
f 7/1/142 33/65/143 32/2/144
f 18/47/145 26/63/146 5/66/147
f 26/64/148 6/12/149 5/67/150
f 11/25/151 15/34/152 13/26/153
f 6/68/154 4/69/155 5/70/156
f 27/22/157 39/71/158 9/23/159
f 14/28/160 12/72/161 27/22/162
f 33/73/163 30/74/164 32/75/165
f 6/12/166 34/76/167 1/13/168
f 34/4/169 33/65/170 7/1/171
f 8/3/172 32/2/173 31/15/174
f 19/18/175 11/25/176 30/19/177
f 28/21/178 6/12/179 19/18/180
f 11/25/181 10/27/182 31/62/183
f 34/77/184 28/78/185 33/79/186
f 28/78/187 29/80/188 33/79/189
f 29/81/190 30/82/191 33/83/192
f 30/84/193 31/85/194 32/86/195
f 6/12/196 28/21/197 34/76/198
f 35/41/199 37/52/200 38/87/201
f 35/88/202 12/36/203 17/37/204
f 23/40/205 36/39/206 35/41/207
f 12/51/208 38/87/209 37/52/210
f 35/41/211 36/39/212 37/52/213
f 35/89/214 38/90/215 12/91/216
f 24/38/217 9/53/218 39/54/219
f 27/22/220 12/72/221 39/71/222
