# This file uses centimeters as units for non-parametric coordinates.

mtllib rock_61.mtl
g default
v -0.752749 0.185805 0.517369
v -0.523108 0.074329 -0.787910
v -0.054740 0.073200 0.852936
v -0.858099 0.097084 0.637387
v 0.185805 0.116210 -0.869184
v 0.858099 -0.165905 -0.501297
v 0.768656 0.031664 -0.507772
v 0.222537 -0.161728 -0.914071
v 0.694406 0.141992 0.407124
v 0.342078 0.099696 0.785576
v 0.680663 0.023227 0.876875
v 0.691790 -0.153109 0.809428
v -0.123917 -0.094920 0.914072
v -0.609760 -0.056911 0.768222
v -0.792954 -0.058901 0.220921
v 0.030828 -0.185805 0.002825
v -0.655576 -0.073714 -0.734920
v -0.560857 0.024189 -0.815372
v -0.500368 -0.089395 -0.877088
vt 0.730435 0.529202
vt 0.771655 0.568706
vt 0.771655 0.978661
vt 0.786596 0.000000
vt 1.000000 0.077695
vt 0.977887 0.475558
vt 0.734146 0.529202
vt 1.000000 0.522883
vt 0.591204 0.792405
vt 0.540799 0.991964
vt 0.502923 0.798681
vt 0.599984 0.968221
vt 0.535528 0.339436
vt 0.577306 0.068386
vt 0.599984 0.573048
vt 0.616358 0.479098
vt 0.502922 0.484982
vt 0.629280 0.956736
vt 0.599984 0.673200
vt 0.641475 0.529202
vt 0.817906 0.746151
vt 0.831725 1.000000
vt 0.771655 0.993154
vt 0.696773 0.551134
vt 0.696773 0.958238
vt 0.773040 0.768285
vt 0.502923 0.101756
vt 0.502923 0.509088
vt 0.247687 0.572930
vt 0.831725 0.601926
vt 0.804723 0.529202
vt 0.261826 0.287572
vt 0.284978 0.000000
vt 0.007144 0.386978
vt 0.087189 0.547320
vt 0.000000 0.518111
vt 0.696773 0.662246
vt 0.540456 0.577418
vt 0.582459 0.560630
vt 0.709284 0.959544
vt 0.751417 0.986322
vt 0.564620 0.529202
vt 0.012357 0.089269
vt 0.056084 0.039697
vn -0.748232 0.636823 -0.186025
vn -0.748232 0.636823 -0.186025
vn -0.748232 0.636823 -0.186025
vn -0.069802 0.992824 -0.097102
vn -0.069802 0.992824 -0.097102
vn -0.069802 0.992824 -0.097102
vn -0.115195 0.844464 0.523078
vn -0.115195 0.844464 0.523078
vn -0.115195 0.844464 0.523078
vn 0.138400 0.989399 0.044000
vn 0.138400 0.989399 0.044000
vn 0.138400 0.989399 0.044000
vn 0.534271 0.203089 -0.820555
vn 0.534271 0.203089 -0.820555
vn 0.534271 0.203089 -0.820555
vn 0.536980 0.216392 -0.815369
vn 0.536980 0.216392 -0.815369
vn 0.536980 0.216392 -0.815369
vn 0.203800 0.973799 -0.100900
vn 0.203800 0.973799 -0.100900
vn 0.203800 0.973799 -0.100900
vn -0.121005 0.142706 -0.982341
vn -0.121005 0.142706 -0.982341
vn -0.121005 0.142706 -0.982341
vn -0.083601 0.996412 0.013200
vn -0.083601 0.996412 0.013200
vn -0.083601 0.996412 0.013200
vn 0.149799 0.957496 0.246499
vn 0.149799 0.957496 0.246499
vn 0.149799 0.957496 0.246499
vn -0.056598 0.996670 0.058698
vn -0.056598 0.996670 0.058698
vn -0.056598 0.996670 0.058698
vn 0.988466 0.137395 0.063698
vn 0.988466 0.137395 0.063698
vn 0.988466 0.137395 0.063698
vn 0.038500 0.831695 0.553897
vn 0.038500 0.831695 0.553897
vn 0.038500 0.831695 0.553897
vn 0.094502 -0.350407 0.931818
vn 0.094502 -0.350407 0.931818
vn 0.094502 -0.350407 0.931818
vn 0.991963 0.014499 0.125695
vn 0.991963 0.014499 0.125695
vn 0.991963 0.014499 0.125695
vn -0.007200 0.344310 0.938828
vn -0.007200 0.344310 0.938828
vn -0.007200 0.344310 0.938828
vn 0.908597 0.413299 0.060300
vn 0.908597 0.413299 0.060300
vn 0.908597 0.413299 0.060300
vn -0.071098 -0.997469 0.000700
vn -0.071098 -0.997469 0.000700
vn -0.071098 -0.997469 0.000700
vn -0.239599 0.374598 0.895695
vn -0.239599 0.374598 0.895695
vn -0.239599 0.374598 0.895695
vn -0.224497 0.413295 0.882490
vn -0.224497 0.413295 0.882490
vn -0.224497 0.413295 0.882490
vn 0.009200 -0.999662 -0.024299
vn 0.009200 -0.999662 -0.024299
vn 0.009200 -0.999662 -0.024299
vn -0.167693 -0.983957 -0.060897
vn -0.167693 -0.983957 -0.060897
vn -0.167693 -0.983957 -0.060897
vn -0.087799 -0.995591 0.033000
vn -0.087799 -0.995591 0.033000
vn -0.087799 -0.995591 0.033000
vn -0.590405 -0.781807 0.200502
vn -0.590405 -0.781807 0.200502
vn -0.590405 -0.781807 0.200502
vn -0.951334 0.208508 -0.226908
vn -0.951334 0.208508 -0.226908
vn -0.951334 0.208508 -0.226908
vn 0.003000 0.478612 -0.878022
vn 0.003000 0.478612 -0.878022
vn 0.003000 0.478612 -0.878022
vn -0.760732 0.638026 -0.119205
vn -0.760732 0.638026 -0.119205
vn -0.760732 0.638026 -0.119205
vn 0.003000 0.478612 -0.878022
vn 0.003000 0.478612 -0.878022
vn 0.003000 0.478612 -0.878022
vn 0.093600 -0.989004 0.114500
vn 0.093600 -0.989004 0.114500
vn 0.093600 -0.989004 0.114500
vn -0.132101 -0.988311 0.076101
vn -0.132101 -0.988311 0.076101
vn -0.132101 -0.988311 0.076101
vn -0.672407 0.043400 -0.738908
vn -0.672407 0.043400 -0.738908
vn -0.672407 0.043400 -0.738908
vn -0.099504 -0.995037 0.001100
vn -0.099504 -0.995037 0.001100
vn -0.099504 -0.995037 0.001100
vn -0.760732 0.638026 -0.119205
vn -0.760732 0.638026 -0.119205
vn -0.760732 0.638026 -0.119205
vn -0.099504 -0.995037 0.001100
vn -0.099504 -0.995037 0.001100
vn -0.099504 -0.995037 0.001100
s off
g rock60
usemtl standardSurface1SG
f 4/1/1 1/2/2 2/3/3
f 5/4/4 2/5/5 1/6/6
f 3/7/7 1/6/8 4/8/9
f 5/4/10 1/6/11 3/7/12
f 5/9/13 6/10/14 8/11/15
f 5/9/16 7/12/17 6/10/18
f 9/13/19 7/14/20 5/4/21
f 2/15/22 5/9/23 8/11/24
f 5/4/25 3/7/26 9/13/27
f 10/16/28 11/17/29 9/13/30
f 3/7/31 10/16/32 9/13/33
f 7/18/34 9/19/35 11/20/36
f 11/17/37 10/16/38 3/7/39
f 13/21/40 12/22/41 11/23/42
f 12/24/43 6/25/44 11/20/45
f 11/23/46 3/26/47 13/21/48
f 6/25/49 7/18/50 11/20/51
f 6/27/52 12/28/53 13/29/54
f 14/30/55 13/21/56 4/31/57
f 13/21/58 3/26/59 4/31/60
f 6/27/61 16/32/62 8/33/63
f 16/32/64 15/34/65 8/33/66
f 13/29/67 14/35/68 15/34/69
f 14/35/70 4/36/71 15/34/72
f 15/37/73 4/1/74 2/3/75
f 2/15/76 19/38/77 18/39/78
f 17/40/79 2/3/80 18/41/81
f 2/15/82 8/11/83 19/38/84
f 6/27/85 13/29/86 16/32/87
f 16/32/88 13/29/89 15/34/90
f 17/42/91 18/39/92 19/38/93
f 17/43/94 8/33/95 15/34/96
f 17/40/97 15/37/98 2/3/99
f 17/43/100 19/44/101 8/33/102
