# This file uses centimeters as units for non-parametric coordinates.

mtllib rock_58.mtl
g default
v -0.121987 0.315790 -0.717384
v 0.050596 0.143494 0.639258
v -0.711504 0.089638 0.341918
v -0.409948 0.768818 0.214539
v -0.179157 0.873221 -0.109805
v -0.424922 -0.293384 -0.497771
v -0.315536 0.039170 -0.748592
v -0.097613 -0.478055 -0.575229
v 0.621210 -0.007869 -0.302590
v 0.632104 -0.335454 -0.178619
v 0.101266 -0.703411 -0.309613
v 0.700510 -0.019190 -0.046979
v 0.711504 0.321049 -0.138936
v 0.443046 0.600907 -0.292577
v 0.462135 0.753728 0.114562
v 0.015363 0.623946 -0.578297
v 0.245843 0.645294 0.439450
v 0.054783 0.791161 0.282613
v 0.575119 -0.608006 -0.073970
v 0.007509 -0.821814 0.465266
v -0.178280 -0.588853 0.703984
v -0.424341 -0.455237 0.489980
v -0.593326 -0.369152 -0.115674
v -0.607751 0.435155 0.069948
v -0.621413 0.388809 0.100713
v -0.671806 0.360429 0.243175
v -0.539402 0.438802 0.265416
v -0.556257 0.603454 0.202149
v -0.550972 0.575990 0.129092
v -0.580292 0.470899 0.070649
v 0.116315 -0.458695 0.680571
v 0.041833 -0.383836 0.748592
v -0.074893 -0.501294 0.705457
v -0.082943 -0.557149 0.735524
v 0.029678 -0.611025 0.679769
v 0.082577 -0.577838 0.663338
v 0.111495 -0.528683 0.661994
v 0.259383 -0.830816 0.199228
v 0.219419 -0.873221 0.192150
v 0.196399 -0.829195 0.143722
v 0.186065 -0.825023 0.058019
v 0.245270 -0.838985 -0.028869
v 0.391700 -0.800640 0.032686
vt 0.727821 0.606962
vt 0.652048 0.709229
vt 0.437447 0.500134
vt 0.065035 0.953265
vt 0.039772 0.838776
vt 0.265134 0.749110
vt 0.656368 0.773426
vt 0.669746 0.842942
vt 0.549168 0.889637
vt 0.006545 0.713353
vt 0.642307 0.725037
vt 0.357313 0.614241
vt 0.640133 0.738035
vt 0.350322 0.713773
vt 0.373297 0.457474
vt 0.728627 0.272176
vt 0.650921 0.439430
vt 0.461503 0.163043
vt 0.543271 0.444895
vt 0.536737 0.078469
vt 0.737873 0.141264
vt 0.443642 0.094521
vt 0.350322 0.301914
vt 0.360285 0.170709
vt 0.836633 0.467326
vt 0.774068 0.592838
vt 0.727821 0.444895
vt 0.990637 0.633652
vt 1.000000 0.451144
vt 0.437783 0.444895
vt 0.382475 0.820302
vt 0.072024 0.086201
vt 0.229774 0.000000
vt 0.051880 0.199368
vt 0.329339 0.082315
vt 0.779186 0.704141
vt 0.861939 0.701747
vt 0.284754 0.934565
vt 0.205871 0.982440
vt 1.000000 0.747270
vt 0.350322 0.269212
vt 0.000365 0.384097
vt 0.000000 0.286657
vt 0.260163 0.470299
vt 0.095883 0.503157
vt 0.271592 0.450673
vt 0.284754 0.575759
vt 0.115497 0.549218
vt 0.246690 0.536389
vt 0.736379 0.842612
vt 0.765134 0.780902
vt 0.813776 0.883424
vt 0.218301 0.503157
vt 0.342130 0.709384
vt 0.284754 0.603898
vt 0.342130 0.503157
vt 0.848606 0.992084
vt 0.835642 1.000000
vt 0.974488 0.316878
vt 0.926987 0.061131
vt 0.950175 0.072321
vt 0.831202 0.028019
vt 0.800573 0.266668
vt 0.568698 0.465777
vt 0.727821 0.444895
vt 0.737873 0.158484
vt 0.753174 0.047417
vt 0.848606 0.747270
vt 0.612948 0.020378
vt 0.766582 0.366230
vt 0.737873 0.355752
vt 0.766582 0.316878
vt 0.260457 0.487471
vt 0.311416 0.480433
vt 0.913048 0.029597
vt 0.956494 0.000000
vt 0.736401 0.033533
vt 0.699570 0.697018
vt 0.023764 0.894423
vt 0.679273 0.781839
vt 0.000000 0.808532
vt 0.037269 0.467041
vt 0.310455 0.440584
vt 0.737351 0.799884
vt 0.249532 0.515857
vt 0.325869 0.704920
vt 0.727821 0.858629
vt 0.752196 0.366211
vt 0.339201 0.770890
vt 0.311779 0.735445
vt 0.339201 0.709384
vt 0.692744 0.729194
vt 0.311779 0.773198
vt 0.284754 0.748578
vt 0.311779 0.709384
vt 0.312533 0.501014
vt 0.270848 0.503157
vt 0.974488 0.063796
vt 0.756603 0.388453
vt 0.737873 0.388453
vt 0.741239 0.366230
vt 0.695832 0.000000
vn -0.943720 0.017919 -0.330261
vn -0.943720 0.017919 -0.330261
vn -0.943720 0.017919 -0.330261
vn -0.403405 0.291904 0.867212
vn -0.403405 0.291904 0.867212
vn -0.403405 0.291904 0.867212
vn -0.704875 0.645677 -0.293689
vn -0.704875 0.645677 -0.293689
vn -0.704875 0.645677 -0.293689
vn -0.360612 0.365712 0.858029
vn -0.360612 0.365712 0.858029
vn -0.360612 0.365712 0.858029
vn -0.934581 0.040899 -0.353393
vn -0.934581 0.040899 -0.353393
vn -0.934581 0.040899 -0.353393
vn -0.712768 0.482179 -0.509377
vn -0.712768 0.482179 -0.509377
vn -0.712768 0.482179 -0.509377
vn -0.436497 -0.445797 -0.781495
vn -0.436497 -0.445797 -0.781495
vn -0.436497 -0.445797 -0.781495
vn 0.421492 -0.123498 -0.898383
vn 0.421492 -0.123498 -0.898383
vn 0.421492 -0.123498 -0.898383
vn 0.414298 -0.189499 -0.890195
vn 0.414298 -0.189499 -0.890195
vn 0.414298 -0.189499 -0.890195
vn 0.423803 -0.308202 -0.851706
vn 0.423803 -0.308202 -0.851706
vn 0.423803 -0.308202 -0.851706
vn 0.950901 -0.081400 -0.298600
vn 0.950901 -0.081400 -0.298600
vn 0.950901 -0.081400 -0.298600
vn 0.535787 0.170396 -0.826981
vn 0.535787 0.170396 -0.826981
vn 0.535787 0.170396 -0.826981
vn 0.540831 -0.396823 -0.741642
vn 0.540831 -0.396823 -0.741642
vn 0.540831 -0.396823 -0.741642
vn 0.947726 -0.111403 -0.299008
vn 0.947726 -0.111403 -0.299008
vn 0.947726 -0.111403 -0.299008
vn 0.634099 0.197900 -0.747499
vn 0.634099 0.197900 -0.747499
vn 0.634099 0.197900 -0.747499
vn 0.764076 0.591381 -0.257792
vn 0.764076 0.591381 -0.257792
vn 0.764076 0.591381 -0.257792
vn 0.288103 0.892010 -0.348304
vn 0.288103 0.892010 -0.348304
vn 0.288103 0.892010 -0.348304
vn 0.285297 0.890191 -0.355197
vn 0.285297 0.890191 -0.355197
vn 0.285297 0.890191 -0.355197
vn 0.555879 0.123295 -0.822069
vn 0.555879 0.123295 -0.822069
vn 0.555879 0.123295 -0.822069
vn -0.641297 0.534397 -0.550597
vn -0.641297 0.534397 -0.550597
vn -0.641297 0.534397 -0.550597
vn 0.808182 0.129197 0.574587
vn 0.808182 0.129197 0.574587
vn 0.808182 0.129197 0.574587
vn 0.805461 0.127494 0.578772
vn 0.805461 0.127494 0.578772
vn 0.805461 0.127494 0.578772
vn 0.267798 0.846193 0.460696
vn 0.267798 0.846193 0.460696
vn 0.267798 0.846193 0.460696
vn 0.140496 0.982574 0.121697
vn 0.140496 0.982574 0.121697
vn 0.140496 0.982574 0.121697
vn -0.141898 0.632693 0.761291
vn -0.141898 0.632693 0.761291
vn -0.141898 0.632693 0.761291
vn -0.083204 0.964349 0.251213
vn -0.083204 0.964349 0.251213
vn -0.083204 0.964349 0.251213
vn 0.725099 -0.007900 0.688599
vn 0.725099 -0.007900 0.688599
vn 0.725099 -0.007900 0.688599
vn -0.218293 0.433185 0.874471
vn -0.218293 0.433185 0.874471
vn -0.218293 0.433185 0.874471
vn 0.978110 -0.207902 -0.008800
vn 0.978110 -0.207902 -0.008800
vn 0.978110 -0.207902 -0.008800
vn 0.744914 -0.424108 0.515010
vn 0.744914 -0.424108 0.515010
vn 0.744914 -0.424108 0.515010
vn 0.734988 0.125898 0.666290
vn 0.734988 0.125898 0.666290
vn 0.734988 0.125898 0.666290
vn -0.498206 0.184002 0.847310
vn -0.498206 0.184002 0.847310
vn -0.498206 0.184002 0.847310
vn 0.005500 -0.713517 0.700617
vn 0.005500 -0.713517 0.700617
vn 0.005500 -0.713517 0.700617
vn -0.414923 0.476926 0.774842
vn -0.414923 0.476926 0.774842
vn -0.414923 0.476926 0.774842
vn -0.618380 -0.705078 -0.347089
vn -0.618380 -0.705078 -0.347089
vn -0.618380 -0.705078 -0.347089
vn 0.559613 -0.619314 0.550712
vn 0.559613 -0.619314 0.550712
vn 0.559613 -0.619314 0.550712
vn -0.508018 -0.861130 0.019301
vn -0.508018 -0.861130 0.019301
vn -0.508018 -0.861130 0.019301
vn -0.466722 -0.866140 -0.178808
vn -0.466722 -0.866140 -0.178808
vn -0.466722 -0.866140 -0.178808
vn -0.889007 -0.417203 0.188701
vn -0.889007 -0.417203 0.188701
vn -0.889007 -0.417203 0.188701
vn -0.916069 0.139195 -0.376087
vn -0.916069 0.139195 -0.376087
vn -0.916069 0.139195 -0.376087
vn -0.521095 -0.763692 -0.381096
vn -0.521095 -0.763692 -0.381096
vn -0.521095 -0.763692 -0.381096
vn -0.482425 -0.812242 -0.327917
vn -0.482425 -0.812242 -0.327917
vn -0.482425 -0.812242 -0.327917
vn -0.366511 0.059202 0.928528
vn -0.366511 0.059202 0.928528
vn -0.366511 0.059202 0.928528
vn -0.619017 -0.745821 0.246107
vn -0.619017 -0.745821 0.246107
vn -0.619017 -0.745821 0.246107
vn 0.471414 -0.400312 -0.785824
vn 0.471414 -0.400312 -0.785824
vn 0.471414 -0.400312 -0.785824
vn -0.823393 0.506296 0.256298
vn -0.823393 0.506296 0.256298
vn -0.823393 0.506296 0.256298
vn -0.681394 0.533296 -0.501296
vn -0.681394 0.533296 -0.501296
vn -0.681394 0.533296 -0.501296
vn 0.212289 -0.098295 0.972251
vn 0.212289 -0.098295 0.972251
vn 0.212289 -0.098295 0.972251
vn 0.819338 -0.199109 0.537625
vn 0.819338 -0.199109 0.537625
vn 0.819338 -0.199109 0.537625
vn 0.144504 -0.956823 0.252206
vn 0.144504 -0.956823 0.252206
vn 0.144504 -0.956823 0.252206
vn 0.422192 -0.712386 -0.560589
vn 0.422192 -0.712386 -0.560589
vn 0.422192 -0.712386 -0.560589
vn -0.943706 0.017900 -0.330302
vn -0.943706 0.017900 -0.330302
vn -0.943706 0.017900 -0.330302
vn -0.403405 0.291904 0.867212
vn -0.403405 0.291904 0.867212
vn -0.403405 0.291904 0.867212
vn -0.704875 0.645677 -0.293689
vn -0.704875 0.645677 -0.293689
vn -0.704875 0.645677 -0.293689
vn -0.360612 0.365712 0.858029
vn -0.360612 0.365712 0.858029
vn -0.360612 0.365712 0.858029
vn -0.934581 0.040899 -0.353393
vn -0.934581 0.040899 -0.353393
vn -0.934581 0.040899 -0.353393
vn -0.712768 0.482179 -0.509377
vn -0.712768 0.482179 -0.509377
vn -0.712768 0.482179 -0.509377
vn 0.744883 -0.424190 0.514988
vn 0.744883 -0.424190 0.514988
vn 0.744883 -0.424190 0.514988
vn 0.744883 -0.424190 0.514988
vn 0.744883 -0.424190 0.514988
vn 0.744883 -0.424190 0.514988
vn 0.734988 0.125898 0.666290
vn 0.734988 0.125898 0.666290
vn 0.734988 0.125898 0.666290
vn -0.498206 0.184002 0.847310
vn -0.498206 0.184002 0.847310
vn -0.498206 0.184002 0.847310
vn 0.005500 -0.713517 0.700617
vn 0.005500 -0.713517 0.700617
vn 0.005500 -0.713517 0.700617
vn -0.414923 0.476926 0.774842
vn -0.414923 0.476926 0.774842
vn -0.414923 0.476926 0.774842
vn -0.618380 -0.705078 -0.347089
vn -0.618380 -0.705078 -0.347089
vn -0.618380 -0.705078 -0.347089
vn 0.559613 -0.619314 0.550712
vn 0.559613 -0.619314 0.550712
vn 0.559613 -0.619314 0.550712
vn 0.559613 -0.619314 0.550712
vn 0.559613 -0.619314 0.550712
vn 0.559613 -0.619314 0.550712
vn -0.508018 -0.861130 0.019301
vn -0.508018 -0.861130 0.019301
vn -0.508018 -0.861130 0.019301
vn -0.466722 -0.866140 -0.178808
vn -0.466722 -0.866140 -0.178808
vn -0.466722 -0.866140 -0.178808
vn -0.698466 0.527174 0.483976
vn -0.698466 0.527174 0.483976
vn -0.698466 0.527174 0.483976
vn -0.508318 0.861130 -0.008300
vn -0.508318 0.861130 -0.008300
vn -0.508318 0.861130 -0.008300
vn -0.993160 -0.112995 -0.029399
vn -0.993160 -0.112995 -0.029399
vn -0.993160 -0.112995 -0.029399
vn -0.963570 0.143196 0.225893
vn -0.963570 0.143196 0.225893
vn -0.963570 0.143196 0.225893
vn -0.681394 0.533296 -0.501296
vn -0.681394 0.533296 -0.501296
vn -0.681394 0.533296 -0.501296
vn 0.182101 -0.263901 0.947204
vn 0.182101 -0.263901 0.947204
vn 0.182101 -0.263901 0.947204
vn 0.223691 -0.524080 0.821768
vn 0.223691 -0.524080 0.821768
vn 0.223691 -0.524080 0.821768
vn 0.542117 0.336411 0.770024
vn 0.542117 0.336411 0.770024
vn 0.542117 0.336411 0.770024
vn 0.275099 0.037200 0.960696
vn 0.275099 0.037200 0.960696
vn 0.275099 0.037200 0.960696
vn 0.819338 -0.199109 0.537625
vn 0.819338 -0.199109 0.537625
vn 0.819338 -0.199109 0.537625
vn 0.078001 -0.990017 -0.117402
vn 0.078001 -0.990017 -0.117402
vn 0.078001 -0.990017 -0.117402
vn 0.587283 -0.440087 -0.679280
vn 0.587283 -0.440087 -0.679280
vn 0.587283 -0.440087 -0.679280
vn 0.110002 -0.992021 -0.061601
vn 0.110002 -0.992021 -0.061601
vn 0.110002 -0.992021 -0.061601
vn 0.422192 -0.712386 -0.560589
vn 0.422192 -0.712386 -0.560589
vn 0.422192 -0.712386 -0.560589
s off
g rock57
usemtl standardSurface1SG
f 3/1/1 25/2/2 6/3/3
f 4/4/4 27/5/5 2/6/6
f 29/7/7 4/8/8 5/9/9
f 27/5/10 3/10/11 2/6/12
f 6/3/13 24/11/14 7/12/15
f 30/13/16 5/9/17 1/14/18
f 7/12/19 8/15/20 6/3/21
f 8/16/22 7/17/23 9/18/24
f 7/17/25 1/19/26 9/18/27
f 9/18/28 10/20/29 11/21/30
f 12/22/31 10/20/32 9/18/33
f 9/18/34 1/19/35 14/23/36
f 11/21/37 8/16/38 9/18/39
f 12/22/40 9/18/41 13/24/42
f 14/23/43 13/24/44 9/18/45
f 14/25/46 15/26/47 13/27/48
f 15/26/49 14/25/50 5/28/51
f 14/25/52 16/29/53 5/28/54
f 1/19/55 16/30/56 14/23/57
f 16/31/58 1/14/59 5/9/60
f 13/32/61 15/33/62 12/34/63
f 15/33/64 17/35/65 12/34/66
f 17/36/67 15/26/68 18/37/69
f 5/28/70 18/37/71 15/26/72
f 17/38/73 18/39/74 4/4/75
f 4/40/76 18/37/77 5/28/78
f 17/35/79 2/41/80 12/34/81
f 2/6/82 17/38/83 4/4/84
f 19/42/85 10/43/86 12/34/87
f 37/44/88 38/45/89 19/42/90
f 2/41/91 31/46/92 12/34/93
f 32/47/94 22/48/95 33/49/96
f 35/50/97 21/51/98 20/52/99
f 21/53/100 33/49/101 22/48/102
f 40/54/103 20/55/104 22/56/105
f 20/52/106 39/57/107 38/58/108
f 22/59/109 41/60/110 40/61/111
f 11/62/112 41/60/113 23/63/114
f 23/64/115 22/65/116 3/1/117
f 6/3/118 23/64/119 3/1/120
f 23/63/121 6/66/122 8/67/123
f 8/67/124 11/62/125 23/63/126
f 22/48/127 2/6/128 3/10/129
f 20/52/130 21/51/131 22/68/132
f 10/20/133 19/69/134 11/21/135
f 30/70/136 25/71/137 27/72/138
f 24/11/139 1/14/140 7/12/141
f 36/73/142 37/44/143 33/74/144
f 19/42/145 31/46/146 37/44/147
f 41/60/148 42/75/149 43/76/150
f 19/69/151 42/77/152 11/21/153
f 3/1/154 26/78/155 25/2/156
f 4/4/157 28/79/158 27/5/159
f 29/7/160 28/80/161 4/8/162
f 27/5/163 26/81/164 3/10/165
f 6/3/166 25/2/167 24/11/168
f 30/13/169 29/7/170 5/9/171
f 36/73/172 38/45/173 37/44/174
f 38/45/175 43/82/176 19/42/177
f 2/41/178 32/83/179 31/46/180
f 32/47/181 2/6/182 22/48/183
f 35/50/184 34/84/185 21/51/186
f 21/53/187 34/85/188 33/49/189
f 40/54/190 39/86/191 20/55/192
f 38/58/193 36/87/194 20/52/195
f 36/87/196 35/50/197 20/52/198
f 22/59/199 23/63/200 41/60/201
f 11/62/202 42/75/203 41/60/204
f 30/70/205 24/88/206 25/71/207
f 25/89/208 26/90/209 27/91/210
f 27/92/211 28/80/212 29/7/213
f 29/7/214 30/13/215 27/92/216
f 24/11/217 30/13/218 1/14/219
f 37/44/220 31/46/221 33/74/222
f 31/93/223 32/94/224 33/95/225
f 33/74/226 34/96/227 35/97/228
f 36/73/229 33/74/230 35/97/231
f 19/42/232 12/34/233 31/46/234
f 43/76/235 38/98/236 40/61/237
f 38/99/238 39/100/239 40/101/240
f 43/76/241 40/61/242 41/60/243
f 19/69/244 43/102/245 42/77/246
