# This file uses centimeters as units for non-parametric coordinates.

mtllib rock_11.mtl
g default
v -0.232243 -0.115965 0.187345
v 0.014006 -0.162462 0.196675
v -0.200652 -0.104775 -0.168715
v -0.229694 -0.068935 0.188263
v -0.211100 -0.037738 0.027147
v -0.213857 -0.033553 0.078575
v -0.089091 -0.158008 0.019332
v 0.161552 -0.175072 0.039666
v -0.018384 -0.176883 -0.075919
v -0.089339 -0.107369 -0.256707
v -0.187653 -0.024358 -0.259481
v 0.194304 -0.123551 -0.215136
v 0.205718 -0.040491 -0.245304
v -0.147043 0.051371 -0.259503
v -0.047947 0.098693 -0.192168
v -0.146761 0.021457 -0.070082
v -0.183186 0.020364 -0.169967
v -0.178343 -0.004232 -0.101414
v -0.183073 -0.028017 -0.066243
v -0.160328 -0.003665 0.046701
v -0.150751 0.095836 0.122936
v -0.157290 0.062251 0.046579
v -0.099374 0.007015 0.226218
v -0.139853 0.049848 -0.012893
v -0.075180 0.176883 0.063496
v 0.198115 0.043618 0.246013
v 0.162658 0.123061 -0.050976
v 0.154074 0.088532 -0.131524
v 0.228455 0.094895 0.000256
v 0.229553 0.047365 -0.023759
v 0.232243 0.029718 -0.181611
v 0.216695 -0.058180 0.259504
v 0.205818 -0.103859 0.239118
vt 0.433617 0.021717
vt 0.294181 0.199574
vt 0.180900 0.027330
vt 0.774776 0.961708
vt 0.697813 0.719939
vt 0.821082 0.953729
vt 0.425748 0.384020
vt 0.323014 0.581952
vt 0.323014 0.944258
vt 0.251204 0.777911
vt 0.277451 0.943170
vt 0.245093 0.829890
vt 0.042068 0.195563
vt 0.226401 0.299889
vt 0.320512 0.480449
vt 0.433617 0.479851
vt 0.802962 0.126672
vt 0.830718 0.000000
vt 0.917041 0.001278
vt 0.918371 0.392523
vt 1.000000 0.360934
vt 0.034695 0.457287
vt 0.162284 0.480449
vt 0.179350 0.672957
vt 0.080364 0.539821
vt 1.000000 0.075522
vt 0.198443 0.574594
vt 0.247712 0.486220
vt 0.403829 0.673128
vt 0.374313 0.583028
vt 0.403829 0.480449
vt 0.216117 0.644477
vt 0.238189 0.681262
vt 0.200787 0.792848
vt 0.159698 0.969600
vt 0.098587 0.865314
vt 0.137190 0.789938
vt 0.146695 0.729147
vt 0.352975 0.756355
vt 0.323014 0.711921
vt 0.352975 0.604123
vt 0.000000 0.796910
vt 0.522957 0.199770
vt 0.725901 0.071190
vt 0.759802 0.331703
vt 0.445078 0.497458
vt 0.719454 0.497458
vt 0.802962 0.396714
vt 0.447936 0.247056
vt 0.525605 0.118831
vt 0.433617 0.222590
vt 0.433617 0.585562
vt 0.404004 0.513882
vt 0.433617 0.480449
vt 0.484901 0.800699
vt 0.528387 0.497458
vt 0.621785 1.000000
vt 0.535758 0.953331
vt 0.433617 0.786871
vt 0.434974 0.531115
vt 0.435745 0.062770
vt 0.884566 0.810005
vt 0.783409 0.497458
vt 0.884566 0.506307
vt 0.697813 0.687096
vt 0.736718 0.516200
vt 0.578864 0.507371
vt 0.000000 0.000000
vt 0.374313 0.604123
vt 0.323014 0.527607
vt 0.374313 0.480449
vt 0.443336 0.000000
vt 0.697813 0.951997
vn -0.187974 -0.978515 0.084701
vn -0.187974 -0.978515 0.084701
vn -0.187974 -0.978515 0.084701
vn -0.041100 -0.017300 0.999005
vn -0.041100 -0.017300 0.999005
vn -0.041100 -0.017300 0.999005
vn -0.345586 -0.936461 -0.060097
vn -0.345586 -0.936461 -0.060097
vn -0.345586 -0.936461 -0.060097
vn -0.991937 0.093904 -0.085103
vn -0.991937 0.093904 -0.085103
vn -0.991937 0.093904 -0.085103
vn -0.990582 0.056099 -0.124898
vn -0.990582 0.056099 -0.124898
vn -0.990582 0.056099 -0.124898
vn -0.988632 0.136004 -0.064102
vn -0.988632 0.136004 -0.064102
vn -0.988632 0.136004 -0.064102
vn -0.069100 -0.997496 0.015100
vn -0.069100 -0.997496 0.015100
vn -0.069100 -0.997496 0.015100
vn -0.338295 -0.938786 -0.065099
vn -0.338295 -0.938786 -0.065099
vn -0.338295 -0.938786 -0.065099
vn -0.078400 -0.987394 0.137499
vn -0.078400 -0.987394 0.137499
vn -0.078400 -0.987394 0.137499
vn -0.233489 -0.934758 -0.267788
vn -0.233489 -0.934758 -0.267788
vn -0.233489 -0.934758 -0.267788
vn 0.291800 -0.848799 -0.440900
vn 0.291800 -0.848799 -0.440900
vn 0.291800 -0.848799 -0.440900
vn -0.499305 -0.611806 -0.613506
vn -0.499305 -0.611806 -0.613506
vn -0.499305 -0.611806 -0.613506
vn 0.019299 -0.010600 -0.999758
vn 0.019299 -0.010600 -0.999758
vn 0.019299 -0.010600 -0.999758
vn 0.115898 -0.353093 -0.928382
vn 0.115898 -0.353093 -0.928382
vn 0.115898 -0.353093 -0.928382
vn -0.026299 -0.979158 -0.201391
vn -0.026299 -0.979158 -0.201391
vn -0.026299 -0.979158 -0.201391
vn 0.039401 -0.003300 -0.999218
vn 0.039401 -0.003300 -0.999218
vn 0.039401 -0.003300 -0.999218
vn -0.500508 0.855014 0.135802
vn -0.500508 0.855014 0.135802
vn -0.500508 0.855014 0.135802
vn 0.197007 0.641924 -0.741028
vn 0.197007 0.641924 -0.741028
vn 0.197007 0.641924 -0.741028
vn -0.865462 0.464080 -0.188692
vn -0.865462 0.464080 -0.188692
vn -0.865462 0.464080 -0.188692
vn -0.417316 0.897534 0.142405
vn -0.417316 0.897534 0.142405
vn -0.417316 0.897534 0.142405
vn -0.754017 0.599514 0.268406
vn -0.754017 0.599514 0.268406
vn -0.754017 0.599514 0.268406
vn -0.997798 -0.024100 0.061800
vn -0.997798 -0.024100 0.061800
vn -0.997798 -0.024100 0.061800
vn -0.760536 0.580728 0.290414
vn -0.760536 0.580728 0.290414
vn -0.760536 0.580728 0.290414
vn -0.977668 0.209893 0.010500
vn -0.977668 0.209893 0.010500
vn -0.977668 0.209893 0.010500
vn -0.980157 0.195491 0.032799
vn -0.980157 0.195491 0.032799
vn -0.980157 0.195491 0.032799
vn -0.536126 0.840941 -0.073404
vn -0.536126 0.840941 -0.073404
vn -0.536126 0.840941 -0.073404
vn -0.856092 0.473296 -0.207598
vn -0.856092 0.473296 -0.207598
vn -0.856092 0.473296 -0.207598
vn -0.804404 0.593103 0.034100
vn -0.804404 0.593103 0.034100
vn -0.804404 0.593103 0.034100
vn -0.931771 -0.159995 0.325890
vn -0.931771 -0.159995 0.325890
vn -0.931771 -0.159995 0.325890
vn -0.996818 0.046001 0.065101
vn -0.996818 0.046001 0.065101
vn -0.996818 0.046001 0.065101
vn -0.956218 0.043501 -0.289405
vn -0.956218 0.043501 -0.289405
vn -0.956218 0.043501 -0.289405
vn -0.528605 0.843308 -0.097001
vn -0.528605 0.843308 -0.097001
vn -0.528605 0.843308 -0.097001
vn -0.361215 0.901437 0.238610
vn -0.361215 0.901437 0.238610
vn -0.361215 0.901437 0.238610
vn -0.527080 0.839968 0.128995
vn -0.527080 0.839968 0.128995
vn -0.527080 0.839968 0.128995
vn -0.947918 0.315706 -0.042201
vn -0.947918 0.315706 -0.042201
vn -0.947918 0.315706 -0.042201
vn -0.740701 0.580501 -0.338201
vn -0.740701 0.580501 -0.338201
vn -0.740701 0.580501 -0.338201
vn -0.753395 0.620696 -0.217099
vn -0.753395 0.620696 -0.217099
vn -0.753395 0.620696 -0.217099
vn -0.791441 0.555829 -0.254313
vn -0.791441 0.555829 -0.254313
vn -0.791441 0.555829 -0.254313
vn 0.079697 0.955568 -0.283791
vn 0.079697 0.955568 -0.283791
vn 0.079697 0.955568 -0.283791
vn -0.132598 0.695392 0.706292
vn -0.132598 0.695392 0.706292
vn -0.132598 0.695392 0.706292
vn 0.311108 0.926723 0.210705
vn 0.311108 0.926723 0.210705
vn 0.311108 0.926723 0.210705
vn -0.784127 0.590021 -0.192407
vn -0.784127 0.590021 -0.192407
vn -0.784127 0.590021 -0.192407
vn -0.197192 0.692672 0.693772
vn -0.197192 0.692672 0.693772
vn -0.197192 0.692672 0.693772
vn 0.229390 0.946760 0.225890
vn 0.229390 0.946760 0.225890
vn 0.229390 0.946760 0.225890
vn 0.166395 0.899773 -0.403388
vn 0.166395 0.899773 -0.403388
vn 0.166395 0.899773 -0.403388
vn 0.763927 0.559620 -0.321311
vn 0.763927 0.559620 -0.321311
vn 0.763927 0.559620 -0.321311
vn 0.664169 0.349284 -0.660969
vn 0.664169 0.349284 -0.660969
vn 0.664169 0.349284 -0.660969
vn 0.980398 -0.195000 -0.028200
vn 0.980398 -0.195000 -0.028200
vn 0.980398 -0.195000 -0.028200
vn 0.914435 -0.400215 0.060302
vn 0.914435 -0.400215 0.060302
vn 0.914435 -0.400215 0.060302
vn 0.992715 -0.035301 0.115202
vn 0.992715 -0.035301 0.115202
vn 0.992715 -0.035301 0.115202
vn 0.564994 0.820991 -0.082199
vn 0.564994 0.820991 -0.082199
vn 0.564994 0.820991 -0.082199
vn 0.974251 0.193210 0.116206
vn 0.974251 0.193210 0.116206
vn 0.974251 0.193210 0.116206
vn -0.080203 0.116604 0.989935
vn -0.080203 0.116604 0.989935
vn -0.080203 0.116604 0.989935
vn 0.926625 -0.374510 -0.033301
vn 0.926625 -0.374510 -0.033301
vn 0.926625 -0.374510 -0.033301
vn -0.171997 -0.366994 0.914184
vn -0.171997 -0.366994 0.914184
vn -0.171997 -0.366994 0.914184
vn 0.974095 -0.161099 -0.158699
vn 0.974095 -0.161099 -0.158699
vn 0.974095 -0.161099 -0.158699
vn -0.133508 -0.256215 0.957356
vn -0.133508 -0.256215 0.957356
vn -0.133508 -0.256215 0.957356
vn 0.222203 -0.932812 0.283704
vn 0.222203 -0.932812 0.283704
vn 0.222203 -0.932812 0.283704
vn 0.024299 0.666665 -0.744961
vn 0.024299 0.666665 -0.744961
vn 0.024299 0.666665 -0.744961
vn 0.238708 0.694322 -0.678922
vn 0.238708 0.694322 -0.678922
vn 0.238708 0.694322 -0.678922
vn -0.130798 -0.254497 0.958188
vn -0.130798 -0.254497 0.958188
vn -0.130798 -0.254497 0.958188
vn 0.989462 -0.096896 0.107596
vn 0.989462 -0.096896 0.107596
vn 0.989462 -0.096896 0.107596
s off
g rock10
usemtl standardSurface1SG
f 1/1/1 7/2/2 2/3/3
f 1/4/4 2/5/5 4/6/6
f 1/1/7 3/7/8 7/2/9
f 3/8/10 1/9/11 5/10/12
f 1/9/13 4/11/14 6/12/15
f 1/9/16 6/12/17 5/10/18
f 8/13/19 2/3/20 7/2/21
f 7/2/22 3/7/23 9/14/24
f 7/2/25 9/14/26 8/13/27
f 10/15/28 9/14/29 3/7/30
f 10/15/31 8/13/32 9/14/33
f 3/7/34 11/16/35 10/15/36
f 10/17/37 11/18/38 14/19/39
f 12/20/40 10/17/41 13/21/42
f 10/15/43 12/22/44 8/13/45
f 13/21/46 10/17/47 14/19/48
f 14/23/49 16/24/50 15/25/51
f 15/26/52 13/21/53 14/19/54
f 17/27/55 14/23/56 11/28/57
f 14/29/58 17/30/59 16/31/60
f 16/24/61 17/27/62 18/32/63
f 17/27/64 11/28/65 18/32/66
f 19/33/67 16/24/68 18/32/69
f 3/8/70 19/33/71 18/32/72
f 3/8/73 18/32/74 11/28/75
f 19/33/76 5/10/77 20/34/78
f 3/8/79 5/10/80 19/33/81
f 19/33/82 20/34/83 16/24/84
f 20/34/85 23/35/86 21/36/87
f 20/34/88 21/36/89 22/37/90
f 20/34/91 22/37/92 24/38/93
f 5/10/94 6/12/95 20/34/96
f 20/39/97 6/40/98 4/41/99
f 20/34/100 4/11/101 23/35/102
f 24/38/103 16/24/104 20/34/105
f 22/37/106 25/42/107 24/38/108
f 15/25/109 16/24/110 24/38/111
f 15/25/112 24/38/113 25/42/114
f 27/43/115 15/44/116 25/45/117
f 26/46/118 25/45/119 23/47/120
f 27/43/121 25/45/122 26/46/123
f 22/37/124 21/36/125 25/42/126
f 25/45/127 21/48/128 23/47/129
f 27/43/130 26/46/131 29/49/132
f 27/43/133 28/50/134 15/44/135
f 28/50/136 27/43/137 30/51/138
f 27/52/139 29/53/140 30/54/141
f 30/55/142 32/56/143 13/57/144
f 30/55/145 13/57/146 31/58/147
f 30/55/148 29/59/149 26/60/150
f 30/51/151 31/61/152 28/50/153
f 30/55/154 26/60/155 32/56/156
f 23/62/157 32/63/158 26/64/159
f 13/57/160 32/56/161 8/65/162
f 33/66/163 32/63/164 23/62/165
f 32/56/166 33/67/167 8/65/168
f 2/5/169 33/66/170 23/62/171
f 8/13/172 33/68/173 2/3/174
f 28/69/175 31/70/176 13/71/177
f 28/50/178 13/72/179 15/44/180
f 23/62/181 4/6/182 2/5/183
f 8/65/184 12/73/185 13/57/186
