# This file uses centimeters as units for non-parametric coordinates.

mtllib rock_56.mtl
g default
v 0.365394 0.406250 0.529490
v 0.246536 0.050838 0.578228
v 0.217304 0.460974 0.495225
v 0.638077 0.276821 0.349169
v 0.460800 0.424408 0.394943
v 0.639694 0.369679 0.193198
v 0.200161 0.512991 0.025546
v 0.060911 0.348360 -0.490627
v 0.344680 0.279839 -0.469579
v -0.323769 0.360442 -0.027170
v -0.014029 0.488516 0.473044
v -0.256827 0.165992 0.461087
v -0.236091 -0.365858 0.518023
v -0.500809 -0.490897 0.275250
v -0.577165 -0.081389 -0.313972
v -0.550273 -0.306679 -0.329328
v -0.542280 -0.458183 0.003746
v 0.050140 -0.423044 -0.557542
v 0.349411 -0.389267 -0.548903
v 0.122390 -0.471455 0.483216
v 0.548957 -0.444314 -0.268251
v -0.343577 0.221694 -0.449523
v 0.626792 -0.028662 0.405790
v 0.553849 -0.512991 0.233017
v 0.512257 -0.371717 0.437851
v 0.450639 -0.512021 0.425285
v 0.569123 0.094166 0.508189
v 0.553285 0.174852 0.489676
v 0.374172 -0.167405 -0.568214
v 0.362928 -0.078097 -0.558075
v 0.387603 -0.044754 -0.558776
v 0.422736 -0.028921 -0.549021
v 0.461467 -0.049546 -0.510370
v 0.464089 -0.176344 -0.512303
v 0.402690 -0.190718 -0.578228
v 0.595407 0.384828 -0.033965
v 0.588057 0.351077 -0.046567
v 0.581800 0.331412 -0.103488
v 0.572601 0.347166 -0.131004
v 0.553774 0.374822 -0.139412
v 0.530699 0.405982 -0.075042
v -0.613563 -0.092575 0.062011
v -0.639694 -0.142137 0.000523
v -0.636366 -0.182485 0.004568
v -0.628272 -0.226798 0.058067
v -0.626257 -0.217760 0.111373
v -0.606781 -0.117810 0.120893
vt 0.868084 0.137021
vt 0.789240 0.137021
vt 0.847518 0.000000
vt 0.028730 0.516800
vt 0.008402 0.460790
vt 0.170031 0.488905
vt 0.527043 0.910803
vt 0.629722 0.893803
vt 0.585036 0.937784
vt 0.452075 0.934347
vt 0.424335 0.879053
vt 0.542694 0.725797
vt 0.021420 0.813621
vt 0.000000 0.717450
vt 0.143250 0.609908
vt 0.204562 0.979925
vt 0.032173 0.835583
vt 0.341260 0.860032
vt 0.703132 0.836823
vt 0.383471 0.587026
vt 0.476414 0.518797
vt 0.698272 0.598861
vt 0.041930 0.155470
vt 0.128565 0.298003
vt 0.000000 0.380834
vt 0.258392 0.059963
vt 0.210647 0.000000
vt 0.297848 0.003716
vt 0.337168 0.316268
vt 0.383471 0.169714
vt 0.224394 0.082101
vt 0.242595 0.058080
vt 0.364772 0.088713
vt 0.235555 0.098866
vt 0.274567 0.089717
vt 0.383471 0.196018
vt 0.698277 0.438372
vt 0.590745 0.449427
vt 0.452750 0.448617
vt 0.789240 0.190957
vt 1.000000 0.848638
vt 0.915825 0.878556
vt 1.000000 0.591853
vt 0.783654 0.805766
vt 0.390454 0.075629
vt 0.505932 0.000000
vt 0.253505 0.973772
vt 0.341741 0.977648
vt 0.264685 1.000000
vt 0.703132 0.653947
vt 0.842769 0.496072
vt 0.962565 0.476015
vt 0.876168 0.483829
vt 0.882946 0.470190
vt 0.612678 0.449427
vt 0.703132 0.451514
vt 0.007477 0.810325
vt 0.705799 0.536260
vt 0.828036 0.488999
vt 0.703602 0.008468
vt 0.385634 0.744931
vt 0.341741 0.653736
vt 0.278166 0.578943
vt 0.335206 0.576744
vt 0.775712 0.055134
vt 0.328263 0.537393
vt 0.373092 0.422583
vt 0.383471 0.513702
vt 0.192234 0.567998
vt 0.147459 0.575592
vt 0.027856 0.649379
vt 0.092660 0.575592
vt 0.079577 0.982131
vt 0.027846 0.847616
vt 0.115735 0.566265
vt 0.063049 0.587570
vt 0.372807 0.747986
vt 0.341741 0.629553
vt 0.372807 0.575592
vt 0.789240 0.340264
vt 0.822915 0.461042
vt 0.871178 0.449427
vt 0.200003 0.996903
vt 0.818938 0.476708
vt 0.372807 0.584091
vt 0.382768 0.575592
vt 0.382768 0.618917
vt 0.003783 0.828472
vt 0.018290 0.852637
vt 0.407794 0.762055
vt 0.393688 0.790331
vt 0.373380 0.778982
vt 0.361904 0.755864
vt 0.373380 0.747986
vt 0.361904 0.776128
vt 0.341741 0.765561
vt 0.361904 0.747986
vt 0.276852 0.075711
vn 0.530137 -0.061319 0.845692
vn 0.530137 -0.061319 0.845692
vn 0.530137 -0.061319 0.845692
vn -0.156006 0.185207 0.970237
vn -0.156006 0.185207 0.970237
vn -0.156006 0.185207 0.970237
vn 0.265198 0.912593 0.311198
vn 0.265198 0.912593 0.311198
vn 0.265198 0.912593 0.311198
vn 0.621812 0.585611 0.520010
vn 0.621812 0.585611 0.520010
vn 0.621812 0.585611 0.520010
vn 0.305593 0.952078 0.012700
vn 0.305593 0.952078 0.012700
vn 0.305593 0.952078 0.012700
vn 0.645794 0.653094 0.395497
vn 0.645794 0.653094 0.395497
vn 0.645794 0.653094 0.395497
vn 0.188410 0.976852 0.101305
vn 0.188410 0.976852 0.101305
vn 0.188410 0.976852 0.101305
vn 0.970459 -0.137294 -0.198392
vn 0.970459 -0.137294 -0.198392
vn 0.970459 -0.137294 -0.198392
vn 0.952231 0.024301 -0.304410
vn 0.952231 0.024301 -0.304410
vn 0.952231 0.024301 -0.304410
vn 0.107597 0.988571 0.105597
vn 0.107597 0.988571 0.105597
vn 0.107597 0.988571 0.105597
vn 0.244303 0.902811 -0.353904
vn 0.244303 0.902811 -0.353904
vn 0.244303 0.902811 -0.353904
vn -0.250297 0.939888 -0.232297
vn -0.250297 0.939888 -0.232297
vn -0.250297 0.939888 -0.232297
vn -0.271503 0.959312 -0.077501
vn -0.271503 0.959312 -0.077501
vn -0.271503 0.959312 -0.077501
vn -0.760669 0.560477 0.327487
vn -0.760669 0.560477 0.327487
vn -0.760669 0.560477 0.327487
vn -0.200206 0.114603 0.973028
vn -0.200206 0.114603 0.973028
vn -0.200206 0.114603 0.973028
vn -0.070902 0.193006 0.978632
vn -0.070902 0.193006 0.978632
vn -0.070902 0.193006 0.978632
vn -0.971809 -0.101501 -0.212802
vn -0.971809 -0.101501 -0.212802
vn -0.971809 -0.101501 -0.212802
vn -0.204695 0.096298 0.974077
vn -0.204695 0.096298 0.974077
vn -0.204695 0.096298 0.974077
vn -0.687916 0.050701 0.724017
vn -0.687916 0.050701 0.724017
vn -0.687916 0.050701 0.724017
vn -0.846408 0.528405 -0.066201
vn -0.846408 0.528405 -0.066201
vn -0.846408 0.528405 -0.066201
vn -0.939316 -0.320205 -0.123102
vn -0.939316 -0.320205 -0.123102
vn -0.939316 -0.320205 -0.123102
vn -0.971809 -0.101501 -0.212802
vn -0.971809 -0.101501 -0.212802
vn -0.971809 -0.101501 -0.212802
vn -0.766010 0.554207 0.325704
vn -0.766010 0.554207 0.325704
vn -0.766010 0.554207 0.325704
vn -0.925264 -0.366686 0.097096
vn -0.925264 -0.366686 0.097096
vn -0.925264 -0.366686 0.097096
vn -0.047602 -0.992533 -0.112304
vn -0.047602 -0.992533 -0.112304
vn -0.047602 -0.992533 -0.112304
vn -0.314984 -0.866755 -0.386680
vn -0.314984 -0.866755 -0.386680
vn -0.314984 -0.866755 -0.386680
vn 0.047701 -0.997624 -0.049701
vn 0.047701 -0.997624 -0.049701
vn 0.047701 -0.997624 -0.049701
vn -0.351511 0.021801 -0.935930
vn -0.351511 0.021801 -0.935930
vn -0.351511 0.021801 -0.935930
vn -0.404792 -0.094798 -0.909482
vn -0.404792 -0.094798 -0.909482
vn -0.404792 -0.094798 -0.909482
vn 0.115693 -0.955945 -0.269785
vn 0.115693 -0.955945 -0.269785
vn 0.115693 -0.955945 -0.269785
vn 0.731325 -0.287610 -0.618421
vn 0.731325 -0.287610 -0.618421
vn 0.731325 -0.287610 -0.618421
vn -0.016301 -0.998840 -0.045302
vn -0.016301 -0.998840 -0.045302
vn -0.016301 -0.998840 -0.045302
vn -0.122501 0.069801 -0.990011
vn -0.122501 0.069801 -0.990011
vn -0.122501 0.069801 -0.990011
vn -0.360608 -0.040901 -0.931820
vn -0.360608 -0.040901 -0.931820
vn -0.360608 -0.040901 -0.931820
vn -0.312686 0.906660 -0.283188
vn -0.312686 0.906660 -0.283188
vn -0.312686 0.906660 -0.283188
vn -0.814085 0.561990 -0.146397
vn -0.814085 0.561990 -0.146397
vn -0.814085 0.561990 -0.146397
vn 0.970459 -0.137294 -0.198392
vn 0.970459 -0.137294 -0.198392
vn 0.970459 -0.137294 -0.198392
vn 0.748183 -0.301393 -0.591087
vn 0.748183 -0.301393 -0.591087
vn 0.748183 -0.301393 -0.591087
vn 0.994544 -0.020401 -0.102305
vn 0.994544 -0.020401 -0.102305
vn 0.994544 -0.020401 -0.102305
vn 0.137903 0.279405 -0.950219
vn 0.137903 0.279405 -0.950219
vn 0.137903 0.279405 -0.950219
vn -0.170608 -0.976443 -0.132106
vn -0.170608 -0.976443 -0.132106
vn -0.170608 -0.976443 -0.132106
vn 0.180006 0.909128 -0.375612
vn 0.180006 0.909128 -0.375612
vn 0.180006 0.909128 -0.375612
vn 0.989891 -0.138899 -0.028700
vn 0.989891 -0.138899 -0.028700
vn 0.989891 -0.138899 -0.028700
vn 0.893280 -0.264294 0.363592
vn 0.893280 -0.264294 0.363592
vn 0.893280 -0.264294 0.363592
vn 0.808875 -0.394288 0.436186
vn 0.808875 -0.394288 0.436186
vn 0.808875 -0.394288 0.436186
vn -0.134003 -0.988720 -0.066901
vn -0.134003 -0.988720 -0.066901
vn -0.134003 -0.988720 -0.066901
vn 0.153104 -0.154704 0.976026
vn 0.153104 -0.154704 0.976026
vn 0.153104 -0.154704 0.976026
vn 0.403886 -0.049498 0.913469
vn 0.403886 -0.049498 0.913469
vn 0.403886 -0.049498 0.913469
vn 0.166902 -0.214703 0.962313
vn 0.166902 -0.214703 0.962313
vn 0.166902 -0.214703 0.962313
vn 0.247097 -0.549394 0.798191
vn 0.247097 -0.549394 0.798191
vn 0.247097 -0.549394 0.798191
vn 0.894413 0.049401 0.444506
vn 0.894413 0.049401 0.444506
vn 0.894413 0.049401 0.444506
vn 0.999142 -0.039302 -0.013101
vn 0.999142 -0.039302 -0.013101
vn 0.999142 -0.039302 -0.013101
vn 0.748904 0.336302 -0.571003
vn 0.748904 0.336302 -0.571003
vn 0.748904 0.336302 -0.571003
vn 0.172795 0.252392 0.952071
vn 0.172795 0.252392 0.952071
vn 0.172795 0.252392 0.952071
vn 0.713885 0.286694 0.638886
vn 0.713885 0.286694 0.638886
vn 0.713885 0.286694 0.638886
vn -0.199593 0.846370 0.493782
vn -0.199593 0.846370 0.493782
vn -0.199593 0.846370 0.493782
vn 0.039898 -0.187992 0.981360
vn 0.039898 -0.187992 0.981360
vn 0.039898 -0.187992 0.981360
vn -0.173698 -0.785493 0.593995
vn -0.173698 -0.785493 0.593995
vn -0.173698 -0.785493 0.593995
vn 0.430300 0.022700 -0.902400
vn 0.430300 0.022700 -0.902400
vn 0.430300 0.022700 -0.902400
vn -0.110203 0.098403 -0.989026
vn -0.110203 0.098403 -0.989026
vn -0.110203 0.098403 -0.989026
vn -0.122501 0.069801 -0.990011
vn -0.122501 0.069801 -0.990011
vn -0.122501 0.069801 -0.990011
vn 0.038999 -0.090999 -0.995087
vn 0.038999 -0.090999 -0.995087
vn 0.038999 -0.090999 -0.995087
vn 0.748904 0.336302 -0.571003
vn 0.748904 0.336302 -0.571003
vn 0.748904 0.336302 -0.571003
vn 0.952231 0.024301 -0.304410
vn 0.952231 0.024301 -0.304410
vn 0.952231 0.024301 -0.304410
vn 0.137903 0.279405 -0.950219
vn 0.137903 0.279405 -0.950219
vn 0.137903 0.279405 -0.950219
vn 0.409773 0.733952 -0.541665
vn 0.409773 0.733952 -0.541665
vn 0.409773 0.733952 -0.541665
vn 0.532616 0.161405 -0.830824
vn 0.532616 0.161405 -0.830824
vn 0.532616 0.161405 -0.830824
vn 0.489894 -0.378995 -0.785090
vn 0.489894 -0.378995 -0.785090
vn 0.489894 -0.378995 -0.785090
vn 0.440194 -0.530692 -0.724289
vn 0.440194 -0.530692 -0.724289
vn 0.440194 -0.530692 -0.724289
vn -0.110203 0.098403 -0.989026
vn -0.110203 0.098403 -0.989026
vn -0.110203 0.098403 -0.989026
vn 0.829397 0.557998 0.027200
vn 0.829397 0.557998 0.027200
vn 0.829397 0.557998 0.027200
vn 0.308897 0.951090 0.003200
vn 0.308897 0.951090 0.003200
vn 0.308897 0.951090 0.003200
vn 0.952231 0.024301 -0.304410
vn 0.952231 0.024301 -0.304410
vn 0.952231 0.024301 -0.304410
vn 0.994544 -0.020401 -0.102305
vn 0.994544 -0.020401 -0.102305
vn 0.994544 -0.020401 -0.102305
vn 0.180006 0.909128 -0.375612
vn 0.180006 0.909128 -0.375612
vn 0.180006 0.909128 -0.375612
vn 0.748904 0.336302 -0.571003
vn 0.748904 0.336302 -0.571003
vn 0.748904 0.336302 -0.571003
vn 0.567991 0.176497 -0.803887
vn 0.567991 0.176497 -0.803887
vn 0.567991 0.176497 -0.803887
vn 0.733015 0.614013 -0.292706
vn 0.733015 0.614013 -0.292706
vn 0.733015 0.614013 -0.292706
vn 0.817503 0.573302 0.054900
vn 0.817503 0.573302 0.054900
vn 0.817503 0.573302 0.054900
vn 0.308897 0.951090 0.003200
vn 0.308897 0.951090 0.003200
vn 0.308897 0.951090 0.003200
vn -0.981617 0.190803 0.004800
vn -0.981617 0.190803 0.004800
vn -0.981617 0.190803 0.004800
vn -0.726163 0.076396 0.683265
vn -0.726163 0.076396 0.683265
vn -0.726163 0.076396 0.683265
vn -0.846408 0.528405 -0.066201
vn -0.846408 0.528405 -0.066201
vn -0.846408 0.528405 -0.066201
vn -0.939316 -0.320205 -0.123102
vn -0.939316 -0.320205 -0.123102
vn -0.939316 -0.320205 -0.123102
vn -0.766010 0.554207 0.325704
vn -0.766010 0.554207 0.325704
vn -0.766010 0.554207 0.325704
vn -0.925264 -0.366686 0.097096
vn -0.925264 -0.366686 0.097096
vn -0.925264 -0.366686 0.097096
vn -0.982166 0.102996 0.157295
vn -0.982166 0.102996 0.157295
vn -0.982166 0.102996 0.157295
vn -0.909794 -0.033600 0.413697
vn -0.909794 -0.033600 0.413697
vn -0.909794 -0.033600 0.413697
vn -0.968386 0.099399 0.228797
vn -0.968386 0.099399 0.228797
vn -0.968386 0.099399 0.228797
vn -0.726163 0.076396 0.683265
vn -0.726163 0.076396 0.683265
vn -0.726163 0.076396 0.683265
s off
g rock55
usemtl standardSurface1SG
f 4/1/1 1/2/2 2/3/3
f 1/4/4 3/5/5 2/6/6
f 5/7/7 3/8/8 1/9/9
f 4/10/10 5/7/11 1/9/12
f 6/11/13 7/12/14 5/7/15
f 6/11/16 5/7/17 4/10/18
f 7/12/19 3/8/20 5/7/21
f 37/13/22 6/14/23 23/15/24
f 33/16/25 38/17/26 21/18/27
f 11/19/28 3/8/29 7/12/30
f 7/12/31 9/20/32 8/21/33
f 7/12/34 8/21/35 10/22/36
f 10/22/37 11/19/38 7/12/39
f 10/23/40 12/24/41 11/25/42
f 11/25/43 12/24/44 2/6/45
f 2/6/46 3/5/47 11/25/48
f 44/26/49 15/27/50 16/28/51
f 12/24/52 13/29/53 2/6/54
f 14/30/55 13/29/56 12/24/57
f 42/31/58 15/27/59 43/32/60
f 17/33/61 44/26/62 16/28/63
f 44/26/64 43/32/65 15/27/66
f 10/23/67 47/34/68 12/24/69
f 46/35/70 17/33/71 14/30/72
f 18/36/73 14/37/74 17/38/75
f 18/36/76 17/38/77 16/39/78
f 14/37/79 18/36/80 20/40/81
f 16/41/82 15/42/83 18/43/84
f 18/43/85 15/42/86 22/44/87
f 18/36/88 19/45/89 21/46/90
f 34/47/91 19/48/92 35/49/93
f 20/40/94 18/36/95 21/46/96
f 8/50/97 30/51/98 22/44/99
f 19/52/100 29/53/101 35/54/102
f 8/21/103 22/55/104 10/22/105
f 10/22/106 22/55/107 15/56/108
f 37/13/109 36/57/110 6/14/111
f 34/47/112 21/18/113 19/48/114
f 38/17/115 23/15/116 21/18/117
f 9/58/118 31/59/119 8/50/120
f 24/60/121 20/40/122 21/46/123
f 7/12/124 40/61/125 9/20/126
f 24/62/127 21/18/128 23/15/129
f 25/63/130 24/62/131 23/15/132
f 24/62/133 25/63/134 26/64/135
f 24/60/136 26/65/137 20/40/138
f 25/66/139 20/67/140 26/68/141
f 25/66/142 23/69/143 2/6/144
f 25/66/145 2/6/146 20/67/147
f 2/6/148 23/69/149 27/70/150
f 4/71/151 27/72/152 23/15/153
f 6/14/154 4/71/155 23/15/156
f 9/73/157 39/74/158 33/16/159
f 2/6/160 27/70/161 28/75/162
f 4/71/163 28/76/164 27/72/165
f 2/77/166 28/78/167 4/79/168
f 13/29/169 20/67/170 2/6/171
f 20/40/172 13/80/173 14/37/174
f 33/81/175 34/82/176 30/51/177
f 30/51/178 18/43/179 22/44/180
f 8/50/181 31/59/182 30/51/183
f 19/52/184 18/43/185 29/53/186
f 33/16/187 32/83/188 9/73/189
f 21/18/190 34/47/191 33/16/192
f 9/58/193 32/84/194 31/59/195
f 35/85/196 29/86/197 34/87/198
f 29/53/199 30/51/200 34/82/201
f 30/51/202 31/59/203 33/81/204
f 31/59/205 32/84/206 33/81/207
f 30/51/208 29/53/209 18/43/210
f 41/88/211 38/17/212 40/89/213
f 41/90/214 6/11/215 36/91/216
f 33/16/217 39/74/218 38/17/219
f 38/17/220 37/13/221 23/15/222
f 7/12/223 41/90/224 40/61/225
f 9/73/226 40/89/227 39/74/228
f 41/92/229 36/93/230 37/94/231
f 37/95/232 38/96/233 41/97/234
f 38/17/235 39/74/236 40/89/237
f 41/90/238 7/12/239 6/11/240
f 45/98/241 46/35/242 47/34/243
f 47/34/244 14/30/245 12/24/246
f 42/31/247 10/23/248 15/27/249
f 17/33/250 45/98/251 44/26/252
f 10/23/253 42/31/254 47/34/255
f 46/35/256 45/98/257 17/33/258
f 47/34/259 42/31/260 45/98/261
f 42/31/262 43/32/263 44/26/264
f 45/98/265 42/31/266 44/26/267
f 47/34/268 46/35/269 14/30/270
