# This file uses centimeters as units for non-parametric coordinates.

mtllib rock_54.mtl
g default
v -0.592666 -0.093101 -0.091587
v -0.433104 0.094917 0.263591
v -0.097091 -0.146705 0.570452
v -0.136216 0.024754 0.538364
v -0.025803 -0.158223 -0.083998
v 0.111668 -0.052666 -0.596303
v 0.592666 -0.109964 0.046062
v 0.496131 -0.063670 -0.357617
v 0.477459 0.100262 -0.392611
v 0.581354 0.046956 0.069055
v 0.317507 0.008741 0.485238
v -0.056531 0.165070 0.098466
v 0.104234 0.131423 -0.521862
v -0.452003 0.136888 -0.169263
v -0.215862 0.171559 -0.480823
v 0.385833 -0.167564 0.519533
v 0.328998 -0.087954 0.556460
v 0.235550 -0.135360 0.605613
v 0.225921 -0.171559 0.610398
v 0.281316 -0.168671 0.525976
v -0.454190 -0.120091 0.371782
v -0.425649 -0.129696 0.487905
v -0.431151 -0.080963 0.480158
v -0.502019 -0.034552 0.378254
v -0.565611 -0.115663 0.330522
v -0.391522 -0.036332 -0.541375
v -0.370091 0.000296 -0.538145
v -0.313754 0.035475 -0.579127
v -0.277289 -0.001135 -0.598184
v -0.271576 -0.031986 -0.610397
v -0.311164 -0.044409 -0.545181
v 0.570759 -0.032300 0.048073
v -0.520176 -0.000548 -0.126977
vt 0.596986 0.513851
vt 0.547877 0.566074
vt 0.526207 0.560193
vt 0.520882 0.488974
vt 0.325515 0.511778
vt 0.140853 0.493227
vt 0.239081 0.235218
vt 0.953965 0.385990
vt 0.928271 0.488974
vt 0.796578 0.482778
vt 0.000000 0.329275
vt 0.698067 0.859058
vt 0.617730 0.861485
vt 0.628558 0.633885
vt 0.404529 0.029318
vt 0.201851 0.000000
vt 0.522996 1.000000
vt 0.557841 0.838247
vt 0.617730 0.854580
vt 0.922430 0.042776
vt 0.989046 0.041027
vt 1.000000 0.198998
vt 0.619737 0.488974
vt 0.598944 0.421997
vt 0.517917 0.177255
vt 0.824680 0.664959
vt 0.718473 0.502737
vt 0.779882 0.488973
vt 0.642077 0.502726
vt 0.715789 0.488974
vt 0.700297 0.640481
vt 0.664179 0.637375
vt 0.803237 0.278739
vt 0.517917 0.218190
vt 0.604523 0.025433
vt 0.782182 0.000000
vt 0.809746 0.837850
vt 0.715789 0.812566
vt 0.734865 0.671466
vt 0.617730 0.665944
vt 0.517917 0.827148
vt 0.539581 0.997809
vt 0.824680 0.834784
vt 0.034861 0.094645
vt 0.637360 0.927531
vt 0.638188 0.991193
vt 0.621295 0.932626
vt 0.475636 0.428149
vt 0.655754 0.886105
vt 0.619509 0.888001
vt 0.584174 0.457139
vt 0.715789 0.983019
vt 0.467709 0.472109
vt 0.517917 0.407136
vt 0.564617 0.619098
vt 0.525552 0.613251
vt 0.526171 0.643015
vt 0.173677 0.535505
vt 0.970010 0.448564
vt 0.087043 0.495963
vt 0.051473 0.552785
vt 0.052069 0.567292
vt 0.027316 0.565151
vt 0.001873 0.109996
vt 0.968806 0.016578
vt 0.791663 0.854449
vt 0.039338 0.060859
vt 0.000000 0.570144
vt 0.008597 0.535505
vt 0.023117 0.546420
vt 0.027316 0.570144
vt 0.052069 0.535505
vn -0.235538 0.126581 0.963586
vn -0.235538 0.126581 0.963587
vn -0.235538 0.126581 0.963586
vn -0.235499 0.126599 0.963594
vn -0.235499 0.126599 0.963594
vn -0.235499 0.126599 0.963594
vn -0.079201 -0.996819 0.008900
vn -0.079201 -0.996819 0.008900
vn -0.079201 -0.996819 0.008900
vn -0.373291 0.718483 0.586886
vn -0.373291 0.718483 0.586886
vn -0.373291 0.718483 0.586886
vn -0.113802 -0.993218 -0.023800
vn -0.113802 -0.993218 -0.023800
vn -0.113802 -0.993218 -0.023800
vn 0.822006 0.397803 0.407503
vn 0.822006 0.397803 0.407503
vn 0.822006 0.397803 0.407503
vn 0.083400 -0.980198 -0.179600
vn 0.083400 -0.980198 -0.179600
vn 0.083400 -0.980198 -0.179600
vn -0.887127 0.346110 -0.305309
vn -0.887127 0.346110 -0.305309
vn -0.887127 0.346110 -0.305309
vn -0.615423 0.684826 -0.390215
vn -0.615423 0.684826 -0.390215
vn -0.615423 0.684826 -0.390215
vn 0.114002 0.597911 0.793414
vn 0.114002 0.597911 0.793414
vn 0.114002 0.597911 0.793414
vn 0.105901 -0.984712 -0.138302
vn 0.105901 -0.984712 -0.138302
vn 0.105901 -0.984712 -0.138302
vn 0.521089 -0.120997 -0.844882
vn 0.521089 -0.120997 -0.844882
vn 0.521089 -0.120997 -0.844882
vn 0.975096 0.065800 -0.211799
vn 0.975096 0.065800 -0.211799
vn 0.975096 0.065800 -0.211799
vn 0.942751 0.270986 -0.194390
vn 0.942751 0.270986 -0.194390
vn 0.942751 0.270986 -0.194390
vn 0.187312 0.960261 0.206913
vn 0.187312 0.960261 0.206913
vn 0.187312 0.960261 0.206913
vn 0.851644 0.228012 0.471925
vn 0.851644 0.228012 0.471925
vn 0.851644 0.228012 0.471925
vn 0.184794 0.980166 0.071598
vn 0.184794 0.980166 0.071598
vn 0.184794 0.980166 0.071598
vn -0.048100 0.954100 0.295600
vn -0.048100 0.954100 0.295600
vn -0.048100 0.954100 0.295600
vn 0.070299 0.946586 0.314695
vn 0.070299 0.946586 0.314695
vn 0.070299 0.946586 0.314695
vn -0.029299 0.997665 -0.061698
vn -0.029299 0.997665 -0.061698
vn -0.029299 0.997665 -0.061698
vn 0.093398 0.995183 -0.029799
vn 0.093398 0.995183 -0.029799
vn 0.093398 0.995183 -0.029799
vn -0.138995 0.985068 0.101597
vn -0.138995 0.985068 0.101597
vn -0.138995 0.985068 0.101597
vn -0.033799 0.569976 -0.820966
vn -0.033799 0.569976 -0.820966
vn -0.033799 0.569976 -0.820966
vn 0.149096 0.963972 0.220294
vn 0.149096 0.963972 0.220294
vn 0.149096 0.963972 0.220294
vn -0.782871 0.621777 0.022499
vn -0.782871 0.621777 0.022499
vn -0.782871 0.621777 0.022499
vn -0.791459 0.494737 -0.358927
vn -0.791459 0.494737 -0.358927
vn -0.791459 0.494737 -0.358927
vn 0.054302 0.376216 -0.924939
vn 0.054302 0.376216 -0.924939
vn 0.054302 0.376216 -0.924939
vn 0.331721 0.365123 -0.869854
vn 0.331721 0.365123 -0.869854
vn 0.331721 0.365123 -0.869854
vn -0.044800 -0.976003 -0.213101
vn -0.044800 -0.976003 -0.213101
vn -0.044800 -0.976003 -0.213101
vn -0.109098 0.158697 0.981281
vn -0.109098 0.158697 0.981281
vn -0.109098 0.158697 0.981281
vn -0.056602 -0.998332 0.011400
vn -0.056602 -0.998332 0.011400
vn -0.056602 -0.998332 0.011400
vn 0.822006 0.397803 0.407503
vn 0.822006 0.397803 0.407503
vn 0.822006 0.397803 0.407503
vn 0.829023 -0.149304 0.538915
vn 0.829023 -0.149304 0.538915
vn 0.829023 -0.149304 0.538915
vn 0.090700 -0.993903 -0.062700
vn 0.090700 -0.993903 -0.062700
vn 0.090700 -0.993903 -0.062700
vn 0.114002 0.597911 0.793414
vn 0.114002 0.597911 0.793414
vn 0.114002 0.597911 0.793414
vn -0.109098 0.158697 0.981281
vn -0.109098 0.158697 0.981281
vn -0.109098 0.158697 0.981281
vn -0.066901 -0.994714 -0.077901
vn -0.066901 -0.994714 -0.077901
vn -0.066901 -0.994714 -0.077901
vn 0.060898 -0.383887 0.921370
vn 0.060898 -0.383887 0.921370
vn 0.060898 -0.383887 0.921370
vn 0.589999 -0.566000 0.575800
vn 0.589999 -0.566000 0.575800
vn 0.589999 -0.566000 0.575800
vn 0.003100 -0.992841 -0.119405
vn 0.003100 -0.992841 -0.119405
vn 0.003100 -0.992841 -0.119405
vn -0.808118 -0.477910 0.344308
vn -0.808118 -0.477910 0.344308
vn -0.808118 -0.477910 0.344308
vn -0.817479 0.558785 0.139596
vn -0.817479 0.558785 0.139596
vn -0.817479 0.558785 0.139596
vn -0.032900 -0.996693 -0.074299
vn -0.032900 -0.996693 -0.074299
vn -0.032900 -0.996693 -0.074299
vn -0.373377 0.718456 0.586864
vn -0.373377 0.718456 0.586864
vn -0.373377 0.718456 0.586864
vn -0.020401 -0.998433 -0.052102
vn -0.020401 -0.998433 -0.052102
vn -0.020401 -0.998433 -0.052102
vn -0.344303 -0.260802 0.901908
vn -0.344303 -0.260802 0.901908
vn -0.344303 -0.260802 0.901908
vn -0.969907 -0.072600 0.232402
vn -0.969907 -0.072600 0.232402
vn -0.969907 -0.072600 0.232402
vn -0.831439 0.549426 0.082704
vn -0.831439 0.549426 0.082704
vn -0.831439 0.549426 0.082704
vn -0.857684 0.043999 -0.512291
vn -0.857684 0.043999 -0.512291
vn -0.857684 0.043999 -0.512291
vn -0.106604 -0.979434 -0.171306
vn -0.106604 -0.979434 -0.171306
vn -0.106604 -0.979434 -0.171306
vn -0.654322 0.691623 -0.305810
vn -0.654322 0.691623 -0.305810
vn -0.654322 0.691623 -0.305810
vn 0.098700 0.535101 -0.839002
vn 0.098700 0.535101 -0.839002
vn 0.098700 0.535101 -0.839002
vn 0.054302 0.376216 -0.924939
vn 0.054302 0.376216 -0.924939
vn 0.054302 0.376216 -0.924939
vn -0.044800 -0.976003 -0.213101
vn -0.044800 -0.976003 -0.213101
vn -0.044800 -0.976003 -0.213101
vn -0.036101 0.108702 -0.993419
vn -0.036101 0.108702 -0.993419
vn -0.036101 0.108702 -0.993419
vn -0.383007 -0.371807 -0.845615
vn -0.383007 -0.371807 -0.845615
vn -0.383007 -0.371807 -0.845615
vn -0.665893 -0.309997 -0.678593
vn -0.665893 -0.309997 -0.678593
vn -0.665893 -0.309997 -0.678593
vn -0.110098 -0.978679 -0.173396
vn -0.110098 -0.978679 -0.173396
vn -0.110098 -0.978679 -0.173396
vn 0.981080 -0.085098 -0.173896
vn 0.981080 -0.085098 -0.173896
vn 0.981080 -0.085098 -0.173896
vn 0.829005 -0.244002 0.503203
vn 0.829005 -0.244002 0.503203
vn 0.829005 -0.244002 0.503203
vn -0.803784 0.517090 -0.294194
vn -0.803784 0.517090 -0.294194
vn -0.803784 0.517090 -0.294194
vn -0.882276 0.463287 0.083398
vn -0.882276 0.463287 0.083398
vn -0.882276 0.463287 0.083398
s off
g rock53
usemtl standardSurface1SG
f 4/1/1 23/2/2 22/3/3
f 4/1/4 22/3/5 3/4/6
f 3/5/7 21/6/8 5/7/9
f 2/8/10 23/9/11 4/10/12
f 21/6/13 1/11/14 5/7/15
f 11/12/16 16/13/17 7/14/18
f 8/15/19 5/7/20 6/16/21
f 26/17/22 33/18/23 14/19/24
f 15/20/25 27/21/26 14/22/27
f 18/23/28 11/24/29 4/10/30
f 8/15/31 7/25/32 5/7/33
f 6/26/34 9/27/35 8/28/36
f 8/29/37 9/30/38 10/31/39
f 8/29/40 32/32/41 7/14/42
f 12/33/43 11/24/44 10/34/45
f 32/32/46 11/12/47 7/14/48
f 9/35/49 12/33/50 10/34/51
f 12/33/52 2/8/53 4/10/54
f 12/33/55 4/10/56 11/24/57
f 13/36/58 14/22/59 12/33/60
f 9/35/61 13/36/62 12/33/63
f 12/33/64 14/22/65 2/8/66
f 29/37/67 15/38/68 13/39/69
f 13/36/70 15/20/71 14/22/72
f 2/40/73 33/18/74 1/41/75
f 14/19/76 27/42/77 26/17/78
f 29/37/79 6/26/80 30/43/81
f 6/26/82 13/39/83 9/27/84
f 31/44/85 6/16/86 5/7/87
f 18/45/88 3/46/89 19/47/90
f 20/48/91 3/5/92 5/7/93
f 11/12/94 17/49/95 16/13/96
f 18/45/97 19/47/98 20/50/99
f 7/25/100 20/48/101 5/7/102
f 18/23/103 17/51/104 11/24/105
f 18/45/106 4/52/107 3/46/108
f 20/48/109 19/53/110 3/5/111
f 20/50/112 16/13/113 17/49/114
f 17/49/115 18/45/116 20/50/117
f 7/25/118 16/54/119 20/48/120
f 24/55/121 21/56/122 23/2/123
f 2/40/124 25/57/125 24/55/126
f 3/5/127 22/58/128 21/6/129
f 2/8/130 24/59/131 23/9/132
f 21/6/133 25/60/134 1/11/135
f 25/57/136 21/56/137 24/55/138
f 21/56/139 22/3/140 23/2/141
f 2/40/142 1/41/143 25/57/144
f 29/61/145 30/62/146 31/63/147
f 31/44/148 1/11/149 26/64/150
f 15/20/151 28/65/152 27/21/153
f 29/37/154 28/66/155 15/38/156
f 29/37/157 13/39/158 6/26/159
f 31/44/160 30/67/161 6/16/162
f 31/68/163 26/69/164 27/70/165
f 27/70/166 28/71/167 31/68/168
f 28/72/169 29/61/170 31/63/171
f 31/44/172 5/7/173 1/11/174
f 8/29/175 10/31/176 32/32/177
f 32/32/178 10/31/179 11/12/180
f 26/17/181 1/41/182 33/18/183
f 2/40/184 14/19/185 33/18/186
