# This file uses centimeters as units for non-parametric coordinates.

mtllib rock_33.mtl
g default
v 0.075552 0.257269 -0.103458
v 0.081205 0.289130 0.205865
v 0.309098 0.169244 -0.036827
v 0.056602 0.103787 -0.221204
v -0.016383 0.171801 -0.200764
v -0.089433 0.194649 -0.124725
v -0.182217 -0.228744 -0.393040
v -0.380444 -0.154921 -0.274646
v -0.421922 -0.191108 -0.109727
v -0.274971 -0.293245 -0.291133
v -0.244099 -0.196066 0.235248
v 0.239905 -0.233914 -0.121881
v -0.019423 -0.264057 -0.349856
v 0.267345 -0.167124 -0.154559
v 0.051772 -0.068688 -0.261875
v 0.421921 -0.106093 0.125093
v 0.291067 0.096995 0.237980
v -0.301163 -0.072912 0.157002
v 0.103361 0.004367 0.375716
v 0.047108 0.044102 0.374513
v -0.032073 -0.037470 0.369762
v -0.028825 -0.067649 0.380090
v 0.118582 -0.042753 0.393039
v -0.046263 0.254146 -0.030187
v -0.101758 0.253660 -0.063056
v -0.181087 0.152808 -0.083663
v -0.153021 0.192264 -0.007451
v -0.146160 0.192014 0.036196
v -0.060636 0.293245 0.058782
v 0.308191 -0.072093 0.297055
v 0.275809 -0.001821 0.317535
v 0.204789 -0.033422 0.368306
v 0.202636 -0.049870 0.377992
v 0.197806 -0.060981 0.363609
v 0.200192 -0.078058 0.340169
v 0.263022 -0.085821 0.287332
vt 0.893812 0.307755
vt 0.949944 0.262807
vt 0.937951 0.343292
vt 0.929989 0.376604
vt 0.839269 0.410063
vt 0.997154 0.511414
vt 0.758078 0.494130
vt 0.397957 0.250226
vt 0.476999 0.120098
vt 0.501318 0.322686
vt 0.448860 0.341546
vt 0.820043 0.308958
vt 0.745596 0.023004
vt 0.902824 0.000000
vt 1.000000 0.013475
vt 0.690229 0.681632
vt 0.568511 0.526690
vt 0.686909 0.597641
vt 0.745596 0.732126
vt 0.825526 0.647358
vt 0.825526 0.810967
vt 0.757613 0.576524
vt 0.000000 0.234967
vt 0.259597 0.000000
vt 0.397957 0.328645
vt 0.087673 0.017484
vt 0.397957 0.108731
vt 0.806651 0.511414
vt 0.702706 0.211771
vt 0.745596 0.211535
vt 0.745596 0.436236
vt 0.618332 0.352970
vt 0.708176 0.526690
vt 0.672628 0.006794
vt 0.523009 0.000000
vt 0.128042 0.516276
vt 0.003998 0.421317
vt 0.112616 0.527448
vt 0.200001 0.609080
vt 0.136697 0.781408
vt 0.000000 0.648617
vt 0.227178 0.645440
vt 0.220945 0.763079
vt 0.261915 0.653638
vt 0.252670 0.711757
vt 0.414994 0.698147
vt 0.414553 0.630688
vt 0.492568 0.874168
vt 0.594046 0.841070
vt 0.712186 0.693402
vt 0.712186 1.000000
vt 0.006637 0.825854
vt 0.243899 0.559980
vt 0.265584 0.561163
vt 0.183350 0.525400
vt 0.059584 0.503473
vt 0.397957 0.711274
vt 0.258518 0.787200
vt 0.230068 0.881584
vt 0.981016 0.311987
vt 1.000000 0.327000
vt 0.986307 0.410863
vt 0.318685 0.636059
vt 0.295313 0.593638
vt 0.318685 0.559980
vt 0.295313 0.647778
vt 0.265584 0.629342
vt 0.295313 0.559980
vt 0.159997 0.559980
vt 0.337295 0.537455
vt 0.265584 0.709391
vt 0.105867 0.537515
vt 0.339072 0.617511
vt 0.318686 0.599074
vt 0.339072 0.559980
vt 0.108749 0.538175
vt 0.345833 0.578534
vt 0.339072 0.569856
vt 0.345833 0.559980
vt 0.196533 0.553986
vn -0.537613 0.552949 -0.636569
vn -0.537613 0.552949 -0.636569
vn -0.537613 0.552949 -0.636569
vn -0.274397 0.865389 -0.419295
vn -0.274397 0.865389 -0.419295
vn -0.274397 0.865389 -0.419295
vn 0.376093 0.920984 -0.101698
vn 0.376093 0.920984 -0.101698
vn 0.376093 0.920984 -0.101698
vn 0.410213 0.522717 -0.747324
vn 0.410213 0.522717 -0.747324
vn 0.410213 0.522717 -0.747324
vn 0.301913 0.556525 -0.774034
vn 0.301913 0.556525 -0.774034
vn 0.301913 0.556525 -0.774034
vn -0.252500 0.832701 -0.492801
vn -0.252500 0.832701 -0.492801
vn -0.252500 0.832701 -0.492801
vn -0.523184 0.534983 -0.663379
vn -0.523184 0.534983 -0.663379
vn -0.523184 0.534983 -0.663379
vn -0.263102 0.556903 -0.787805
vn -0.263102 0.556903 -0.787805
vn -0.263102 0.556903 -0.787805
vn -0.813822 0.575815 -0.078302
vn -0.813822 0.575815 -0.078302
vn -0.813822 0.575815 -0.078302
vn -0.651537 0.407723 0.639736
vn -0.651537 0.407723 0.639736
vn -0.651537 0.407723 0.639736
vn -0.772402 -0.551401 -0.315201
vn -0.772402 -0.551401 -0.315201
vn -0.772402 -0.551401 -0.315201
vn -0.572896 -0.348398 -0.741895
vn -0.572896 -0.348398 -0.741895
vn -0.572896 -0.348398 -0.741895
vn 0.054599 -0.982479 0.178196
vn 0.054599 -0.982479 0.178196
vn 0.054599 -0.982479 0.178196
vn -0.392120 -0.900245 0.189210
vn -0.392120 -0.900245 0.189210
vn -0.392120 -0.900245 0.189210
vn 0.113899 -0.993491 0.001800
vn 0.113899 -0.993491 0.001800
vn 0.113899 -0.993491 0.001800
vn -0.032798 -0.830756 -0.555670
vn -0.032798 -0.830756 -0.555670
vn -0.032798 -0.830756 -0.555670
vn 0.591229 -0.537226 -0.601529
vn 0.591229 -0.537226 -0.601529
vn 0.591229 -0.537226 -0.601529
vn 0.506692 0.193697 -0.840086
vn 0.506692 0.193697 -0.840086
vn 0.506692 0.193697 -0.840086
vn 0.304507 0.296706 -0.905119
vn 0.304507 0.296706 -0.905119
vn 0.304507 0.296706 -0.905119
vn 0.369112 0.203507 -0.906830
vn 0.369112 0.203507 -0.906830
vn 0.369112 0.203507 -0.906830
vn 0.504310 0.184804 -0.843516
vn 0.504310 0.184804 -0.843516
vn 0.504310 0.184804 -0.843516
vn 0.802204 -0.493802 -0.335602
vn 0.802204 -0.493802 -0.335602
vn 0.802204 -0.493802 -0.335602
vn 0.538006 0.218203 -0.814210
vn 0.538006 0.218203 -0.814210
vn 0.538006 0.218203 -0.814210
vn 0.867262 0.065097 -0.493578
vn 0.867262 0.065097 -0.493578
vn 0.867262 0.065097 -0.493578
vn 0.869318 0.461010 0.178204
vn 0.869318 0.461010 0.178204
vn 0.869318 0.461010 0.178204
vn 0.169395 -0.929370 0.327989
vn 0.169395 -0.929370 0.327989
vn 0.169395 -0.929370 0.327989
vn 0.066699 -0.803183 0.591987
vn 0.066699 -0.803183 0.591987
vn 0.066699 -0.803183 0.591987
vn 0.337184 0.501476 0.796762
vn 0.337184 0.501476 0.796762
vn 0.337184 0.501476 0.796762
vn 0.279902 0.575505 0.768407
vn 0.279902 0.575505 0.768407
vn 0.279902 0.575505 0.768407
vn 0.213107 0.397013 0.892730
vn 0.213107 0.397013 0.892730
vn 0.213107 0.397013 0.892730
vn 0.337184 0.501476 0.796762
vn 0.337184 0.501476 0.796762
vn 0.337184 0.501476 0.796762
vn -0.571600 0.517700 0.636600
vn -0.571600 0.517700 0.636600
vn -0.571600 0.517700 0.636600
vn -0.624094 0.191998 0.757393
vn -0.624094 0.191998 0.757393
vn -0.624094 0.191998 0.757393
vn -0.536191 0.667789 -0.516292
vn -0.536191 0.667789 -0.516292
vn -0.536191 0.667789 -0.516292
vn -0.827792 0.544995 0.133199
vn -0.827792 0.544995 0.133199
vn -0.827792 0.544995 0.133199
vn -0.883033 -0.121104 0.453417
vn -0.883033 -0.121104 0.453417
vn -0.883033 -0.121104 0.453417
vn 0.636576 0.734573 0.234891
vn 0.636576 0.734573 0.234891
vn 0.636576 0.734573 0.234891
vn 0.110194 0.392679 -0.913050
vn 0.110194 0.392679 -0.913050
vn 0.110194 0.392679 -0.913050
vn -0.134696 0.307791 0.941872
vn -0.134696 0.307791 0.941872
vn -0.134696 0.307791 0.941872
vn 0.160697 -0.930982 0.327794
vn 0.160697 -0.930982 0.327794
vn 0.160697 -0.930982 0.327794
vn 0.069700 -0.753102 0.654202
vn 0.069700 -0.753102 0.654202
vn 0.069700 -0.753102 0.654202
vn -0.571533 0.517730 0.636637
vn -0.571533 0.517730 0.636637
vn -0.571533 0.517730 0.636637
vn -0.624094 0.191998 0.757393
vn -0.624094 0.191998 0.757393
vn -0.624094 0.191998 0.757393
vn -0.135104 0.303110 0.943330
vn -0.135104 0.303110 0.943330
vn -0.135104 0.303110 0.943330
vn -0.037099 -0.022199 0.999065
vn -0.037099 -0.022199 0.999065
vn -0.037099 -0.022199 0.999065
vn 0.828582 0.257594 0.497089
vn 0.828582 0.257594 0.497089
vn 0.828582 0.257594 0.497089
vn -0.708605 0.696105 0.115401
vn -0.708605 0.696105 0.115401
vn -0.708605 0.696105 0.115401
vn 0.136397 0.985180 -0.103998
vn 0.136397 0.985180 -0.103998
vn 0.136397 0.985180 -0.103998
vn 0.354296 0.709992 -0.608593
vn 0.354296 0.709992 -0.608593
vn 0.354296 0.709992 -0.608593
vn -0.819274 0.573382 0.004900
vn -0.819274 0.573382 0.004900
vn -0.819274 0.573382 0.004900
vn -0.628073 0.595774 0.500578
vn -0.628073 0.595774 0.500578
vn -0.628073 0.595774 0.500578
vn -0.827715 0.545110 0.133202
vn -0.827715 0.545110 0.133202
vn -0.827715 0.545110 0.133202
vn -0.658981 0.643582 -0.389289
vn -0.658981 0.643582 -0.389289
vn -0.658981 0.643582 -0.389289
vn -0.258496 0.868187 0.423594
vn -0.258496 0.868187 0.423594
vn -0.258496 0.868187 0.423594
vn -0.782109 0.622207 -0.034100
vn -0.782109 0.622207 -0.034100
vn -0.782109 0.622207 -0.034100
vn -0.277002 0.862407 -0.423703
vn -0.277002 0.862407 -0.423703
vn -0.277002 0.862407 -0.423703
vn 0.576285 -0.352791 0.737180
vn 0.576285 -0.352791 0.737180
vn 0.576285 -0.352791 0.737180
vn 0.211094 -0.922874 0.322091
vn 0.211094 -0.922874 0.322091
vn 0.211094 -0.922874 0.322091
vn 0.068902 -0.795125 0.602519
vn 0.068902 -0.795125 0.602519
vn 0.068902 -0.795125 0.602519
vn 0.276304 0.593509 0.755912
vn 0.276304 0.593509 0.755912
vn 0.276304 0.593509 0.755912
vn 0.193802 0.478904 0.856208
vn 0.193802 0.478904 0.856208
vn 0.193802 0.478904 0.856208
vn 0.040298 -0.797269 0.602277
vn 0.040298 -0.797269 0.602277
vn 0.040298 -0.797269 0.602277
vn 0.844212 0.251004 0.473607
vn 0.844212 0.251004 0.473607
vn 0.844212 0.251004 0.473607
vn -0.104502 -0.322405 0.940816
vn -0.104502 -0.322405 0.940816
vn -0.104502 -0.322405 0.940816
vn 0.642933 -0.454723 0.616331
vn 0.642933 -0.454723 0.616331
vn 0.642933 -0.454723 0.616331
vn 0.963553 -0.217689 -0.155492
vn 0.963553 -0.217689 -0.155492
vn 0.963553 -0.217689 -0.155492
vn 0.911922 -0.281907 0.298207
vn 0.911922 -0.281907 0.298207
vn 0.911922 -0.281907 0.298207
vn 0.211094 -0.922874 0.322091
vn 0.211094 -0.922874 0.322091
vn 0.211094 -0.922874 0.322091
s off
g rock32
usemtl standardSurface1SG
f 6/1/1 26/2/2 25/3/3
f 6/1/4 24/4/5 1/5/6
f 2/6/7 3/7/8 1/5/9
f 1/8/10 3/9/11 4/10/12
f 1/8/13 4/10/14 5/11/15
f 6/1/16 1/5/17 5/12/18
f 6/1/19 5/12/20 7/13/21
f 7/13/22 8/14/23 6/1/24
f 9/15/25 26/2/26 8/14/27
f 28/16/28 2/17/29 29/18/30
f 8/19/31 10/20/32 9/21/33
f 8/19/34 7/22/35 10/20/36
f 11/23/37 10/24/38 12/25/39
f 9/26/40 10/24/41 11/23/42
f 13/27/43 12/25/44 10/24/45
f 10/20/46 7/22/47 13/28/48
f 14/29/49 12/30/50 13/31/51
f 15/32/52 14/29/53 13/31/54
f 15/32/55 13/31/56 7/33/57
f 4/10/58 15/32/59 7/33/60
f 4/10/61 14/29/62 15/32/63
f 16/34/64 12/30/65 14/29/66
f 4/10/67 3/9/68 14/29/69
f 16/34/70 14/29/71 3/9/72
f 3/9/73 17/35/74 16/34/75
f 12/25/76 35/36/77 11/23/78
f 22/37/79 35/36/80 34/38/81
f 20/39/82 17/40/83 2/41/84
f 19/42/85 31/43/86 17/40/87
f 23/44/88 32/45/89 19/42/90
f 20/39/91 19/42/92 17/40/93
f 2/17/94 21/46/95 20/47/96
f 11/48/97 21/46/98 18/49/99
f 6/1/100 8/14/101 26/2/102
f 18/49/103 27/50/104 9/51/105
f 11/48/106 18/49/107 9/51/108
f 2/41/109 17/40/110 3/52/111
f 5/11/112 4/10/113 7/33/114
f 23/44/115 21/53/116 22/54/117
f 12/25/118 36/55/119 35/36/120
f 34/38/121 23/56/122 22/37/123
f 2/17/124 18/49/125 21/46/126
f 11/48/127 22/57/128 21/46/129
f 23/44/130 19/42/131 21/53/132
f 19/42/133 20/39/134 21/53/135
f 17/40/136 30/58/137 16/59/138
f 27/60/139 28/61/140 25/3/141
f 1/5/142 29/62/143 2/6/144
f 6/63/145 25/64/146 24/65/147
f 9/15/148 27/60/149 26/2/150
f 28/16/151 18/49/152 2/17/153
f 18/49/154 28/16/155 27/50/156
f 29/62/157 24/4/158 28/61/159
f 24/66/160 25/67/161 28/68/162
f 25/3/163 26/2/164 27/60/165
f 1/5/166 24/4/167 29/62/168
f 35/36/169 36/55/170 31/69/171
f 16/70/172 36/55/173 12/25/174
f 22/37/175 11/23/176 35/36/177
f 19/42/178 32/45/179 31/43/180
f 23/44/181 33/71/182 32/45/183
f 34/38/184 33/72/185 23/56/186
f 17/40/187 31/43/188 30/58/189
f 36/73/190 30/74/191 31/75/192
f 31/69/193 32/76/194 35/36/195
f 32/77/196 33/78/197 34/79/198
f 35/36/199 32/76/200 34/38/201
f 16/70/202 30/80/203 36/55/204
