# This file uses centimeters as units for non-parametric coordinates.

mtllib rock_50.mtl
g default
v -0.430210 -0.228204 0.409754
v -0.500662 -0.292385 -0.089797
v -0.472383 0.224795 0.359483
v 0.272259 -0.377480 0.523283
v 0.213946 0.246249 0.535538
v 0.353640 -0.382984 0.044930
v 0.371193 -0.242142 -0.384678
v 0.468441 0.047946 -0.404254
v 0.449773 -0.089930 0.028326
v 0.525057 -0.341232 0.307163
v -0.142973 -0.327372 -0.496134
v 0.550290 0.042343 0.335114
v 0.407984 0.059557 0.523278
v 0.411249 0.275891 0.047153
v 0.397930 0.273870 -0.236284
v 0.171698 0.280181 -0.446036
v -0.383280 0.292377 -0.486660
v -0.423223 -0.097181 -0.535538
v -0.352392 -0.299219 -0.406937
v 0.448750 -0.326436 0.473448
v -0.508137 0.041912 -0.134840
v -0.075768 0.307535 -0.066751
v -0.454055 0.052041 0.353325
v -0.453741 -0.039271 0.301496
v -0.443220 -0.064474 0.366405
v -0.393986 0.013488 0.366201
v -0.484573 0.382984 -0.197222
v -0.523099 0.372297 -0.238783
v -0.544463 0.328800 -0.217077
v -0.550291 0.311500 -0.159629
v -0.549580 0.369440 -0.087351
v -0.481223 0.380537 -0.150386
v -0.115495 0.241233 0.412500
v -0.045813 -0.300873 0.427436
vt 0.565624 0.100193
vt 0.757313 0.442088
vt 0.566626 0.512548
vt 0.816803 0.911306
vt 0.721199 0.928763
vt 0.899536 0.608821
vt 0.651833 0.952858
vt 0.572440 0.911867
vt 0.652923 0.716581
vt 0.688032 0.748010
vt 0.652923 0.592346
vt 0.740007 0.259651
vt 0.248349 0.733008
vt 0.248349 0.948265
vt 0.139789 1.000000
vt 0.385707 0.374713
vt 0.397412 0.124801
vt 0.138338 0.783851
vt 0.757313 0.102520
vt 0.657369 0.000000
vt 0.048397 0.664345
vt 0.196073 0.619660
vt 0.000000 0.158999
vt 0.086649 0.000000
vt 0.198381 0.083066
vt 0.008581 0.061581
vt 0.022156 0.582697
vt 0.000000 0.830384
vt 0.036153 0.958325
vt 0.038837 0.319246
vt 0.385707 0.213633
vt 0.229413 0.318860
vt 0.049184 0.489758
vt 0.309605 0.099003
vt 0.999477 0.404219
vt 0.910854 0.427754
vt 1.000000 0.282632
vt 0.845795 0.000000
vt 0.519952 0.711899
vt 0.402927 0.688475
vt 0.559951 0.512548
vt 1.000000 0.018270
vt 0.757313 0.137165
vt 0.766618 0.044637
vt 0.646974 0.560648
vt 0.224387 0.546151
vt 0.433650 0.466626
vt 0.471012 0.952858
vt 0.171828 0.547146
vt 0.671835 0.512548
vt 0.823898 0.521632
vt 0.727039 0.023447
vt 0.795440 0.386363
vt 0.385707 0.478538
vt 0.269685 0.519506
vt 0.392463 0.751922
vt 0.411051 0.553052
vt 0.411978 0.714991
vt 0.786576 0.935657
vt 0.797566 0.945279
vt 0.832863 0.939910
vt 0.902947 0.773256
vt 0.901152 0.945279
vt 0.585466 0.940880
vt 0.538951 0.940808
vt 0.556650 0.942649
vt 0.252247 0.547146
vt 0.251311 0.516241
vt 0.284826 0.538859
vt 0.385707 0.679505
vt 0.257065 0.586396
vt 0.248349 0.567227
vt 0.257065 0.547146
vt 0.275217 0.546887
vn -0.126786 -0.981426 0.143972
vn -0.126786 -0.981426 0.143972
vn -0.126786 -0.981426 0.143972
vn -0.337790 0.215694 0.916174
vn -0.337790 0.215694 0.916174
vn -0.337790 0.215694 0.916174
vn -0.988670 -0.040299 0.144596
vn -0.988670 -0.040299 0.144596
vn -0.988670 -0.040299 0.144596
vn -0.298492 -0.046599 0.953274
vn -0.298492 -0.046599 0.953274
vn -0.298492 -0.046599 0.953274
vn -0.186504 -0.982321 0.016200
vn -0.186504 -0.982321 0.016200
vn -0.186504 -0.982321 0.016200
vn 0.944664 -0.321188 -0.066697
vn 0.944664 -0.321188 -0.066697
vn 0.944664 -0.321188 -0.066697
vn 0.218308 -0.929935 -0.295911
vn 0.218308 -0.929935 -0.295911
vn 0.218308 -0.929935 -0.295911
vn 0.947508 -0.314203 -0.059201
vn 0.947508 -0.314203 -0.059201
vn 0.947508 -0.314203 -0.059201
vn 0.176295 -0.983471 0.041299
vn 0.176295 -0.983471 0.041299
vn 0.176295 -0.983471 0.041299
vn -0.104501 -0.994505 -0.006300
vn -0.104501 -0.994505 -0.006300
vn -0.104501 -0.994505 -0.006300
vn 0.933523 -0.315808 -0.169704
vn 0.933523 -0.315808 -0.169704
vn 0.933523 -0.315808 -0.169704
vn 0.838054 -0.015399 -0.545370
vn 0.838054 -0.015399 -0.545370
vn 0.838054 -0.015399 -0.545370
vn 0.617429 0.729735 0.293714
vn 0.617429 0.729735 0.293714
vn 0.617429 0.729735 0.293714
vn 0.641001 0.638201 0.426401
vn 0.641001 0.638201 0.426401
vn 0.641001 0.638201 0.426401
vn 0.789624 -0.096103 0.606018
vn 0.789624 -0.096103 0.606018
vn 0.789624 -0.096103 0.606018
vn 0.928031 0.115904 -0.354012
vn 0.928031 0.115904 -0.354012
vn 0.928031 0.115904 -0.354012
vn 0.943146 0.329081 -0.046697
vn 0.943146 0.329081 -0.046697
vn 0.943146 0.329081 -0.046697
vn 0.992104 0.100600 0.074900
vn 0.992104 0.100600 0.074900
vn 0.992104 0.100600 0.074900
vn -0.032901 0.998339 0.047302
vn -0.032901 0.998339 0.047302
vn -0.032901 0.998339 0.047302
vn 0.070797 0.997160 -0.025699
vn 0.070797 0.997160 -0.025699
vn 0.070797 0.997160 -0.025699
vn 0.015700 0.978719 0.204604
vn 0.015700 0.978719 0.204604
vn 0.015700 0.978719 0.204604
vn 0.036100 0.999309 -0.008800
vn 0.036100 0.999309 -0.008800
vn 0.036100 0.999309 -0.008800
vn 0.552065 0.601562 -0.577363
vn 0.552065 0.601562 -0.577363
vn 0.552065 0.601562 -0.577363
vn 0.144595 0.006700 -0.989468
vn 0.144595 0.006700 -0.989468
vn 0.144595 0.006700 -0.989468
vn -0.974802 -0.166100 -0.148900
vn -0.974802 -0.166100 -0.148900
vn -0.974802 -0.166100 -0.148900
vn 0.075103 0.116604 -0.990335
vn 0.075103 0.116604 -0.990335
vn 0.075103 0.116604 -0.990335
vn -0.382605 -0.587807 -0.712809
vn -0.382605 -0.587807 -0.712809
vn -0.382605 -0.587807 -0.712809
vn -0.786961 -0.503175 -0.357082
vn -0.786961 -0.503175 -0.357082
vn -0.786961 -0.503175 -0.357082
vn 0.144595 0.006700 -0.989468
vn 0.144595 0.006700 -0.989468
vn 0.144595 0.006700 -0.989468
vn 0.111704 0.950938 0.288512
vn 0.111704 0.950938 0.288512
vn 0.111704 0.950938 0.288512
vn -0.980392 -0.047700 -0.191198
vn -0.980392 -0.047700 -0.191198
vn -0.980392 -0.047700 -0.191198
vn -0.154302 -0.986712 -0.050901
vn -0.154302 -0.986712 -0.050901
vn -0.154302 -0.986712 -0.050901
vn -0.996997 -0.012000 0.076500
vn -0.996997 -0.012000 0.076500
vn -0.996997 -0.012000 0.076500
vn 0.909464 0.042698 0.413584
vn 0.909464 0.042698 0.413584
vn 0.909464 0.042698 0.413584
vn 0.295090 -0.091597 0.951069
vn 0.295090 -0.091597 0.951069
vn 0.295090 -0.091597 0.951069
vn 0.048600 -0.015100 0.998704
vn 0.048600 -0.015100 0.998704
vn 0.048600 -0.015100 0.998704
vn 0.330290 -0.914671 0.232993
vn 0.330290 -0.914671 0.232993
vn 0.330290 -0.914671 0.232993
vn 0.232206 -0.142804 -0.962126
vn 0.232206 -0.142804 -0.962126
vn 0.232206 -0.142804 -0.962126
vn 0.041899 0.957583 -0.285095
vn 0.041899 0.957583 -0.285095
vn 0.041899 0.957583 -0.285095
vn -0.982091 -0.142199 0.123599
vn -0.982091 -0.142199 0.123599
vn -0.982091 -0.142199 0.123599
vn -0.839229 0.151605 -0.522218
vn -0.839229 0.151605 -0.522218
vn -0.839229 0.151605 -0.522218
vn -0.974802 -0.166100 -0.148900
vn -0.974802 -0.166100 -0.148900
vn -0.974802 -0.166100 -0.148900
vn -0.337790 0.215694 0.916174
vn -0.337790 0.215694 0.916174
vn -0.337790 0.215694 0.916174
vn -0.975898 -0.110300 0.188300
vn -0.975898 -0.110300 0.188300
vn -0.975898 -0.110300 0.188300
vn -0.449991 -0.441991 0.775985
vn -0.449991 -0.441991 0.775985
vn -0.449991 -0.441991 0.775985
vn -0.145906 -0.022701 0.989038
vn -0.145906 -0.022701 0.989038
vn -0.145906 -0.022701 0.989038
vn -0.988670 -0.040299 0.144596
vn -0.988670 -0.040299 0.144596
vn -0.988670 -0.040299 0.144596
vn -0.975898 -0.110300 0.188300
vn -0.975898 -0.110300 0.188300
vn -0.975898 -0.110300 0.188300
vn -0.799010 0.505406 0.325804
vn -0.799010 0.505406 0.325804
vn -0.799010 0.505406 0.325804
vn -0.246205 -0.060601 0.967321
vn -0.246205 -0.060601 0.967321
vn -0.246205 -0.060601 0.967321
vn -0.573524 0.641927 -0.508921
vn -0.573524 0.641927 -0.508921
vn -0.573524 0.641927 -0.508921
vn 0.169199 0.984794 0.039400
vn 0.169199 0.984794 0.039400
vn 0.169199 0.984794 0.039400
vn 0.111704 0.950938 0.288512
vn 0.111704 0.950938 0.288512
vn 0.111704 0.950938 0.288512
vn 0.041899 0.957583 -0.285095
vn 0.041899 0.957583 -0.285095
vn 0.041899 0.957583 -0.285095
vn -0.982091 -0.142199 0.123599
vn -0.982091 -0.142199 0.123599
vn -0.982091 -0.142199 0.123599
vn -0.839229 0.151605 -0.522218
vn -0.839229 0.151605 -0.522218
vn -0.839229 0.151605 -0.522218
vn -0.710084 0.698684 0.087298
vn -0.710084 0.698684 0.087298
vn -0.710084 0.698684 0.087298
vn -0.671400 0.567600 0.476500
vn -0.671400 0.567600 0.476500
vn -0.671400 0.567600 0.476500
vn -0.689697 0.709697 0.143699
vn -0.689697 0.709697 0.143699
vn -0.689697 0.709697 0.143699
vn 0.169199 0.984794 0.039400
vn 0.169199 0.984794 0.039400
vn 0.169199 0.984794 0.039400
vn -0.049500 0.998500 0.023400
vn -0.049500 0.998500 0.023400
vn -0.049500 0.998500 0.023400
vn -0.343213 0.234809 0.909434
vn -0.343213 0.234809 0.909434
vn -0.343213 0.234809 0.909434
vn -0.075303 -0.158805 0.984434
vn -0.075303 -0.158805 0.984434
vn -0.075303 -0.158805 0.984434
vn -0.226295 -0.973676 -0.027299
vn -0.226295 -0.973676 -0.027299
vn -0.226295 -0.973676 -0.027299
s off
g rock49
usemtl standardSurface1SG
f 6/1/1 1/2/2 2/3/3
f 26/4/4 1/5/5 5/6/6
f 1/7/7 24/8/8 2/9/9
f 5/6/10 34/10/11 4/11/12
f 6/1/13 34/12/14 1/2/15
f 6/13/16 7/14/17 8/15/18
f 11/16/19 7/17/20 6/1/21
f 8/15/22 9/18/23 6/13/24
f 4/19/25 6/1/26 10/20/27
f 11/16/28 6/1/29 2/3/30
f 9/18/31 12/21/32 6/13/33
f 6/13/34 12/21/35 10/22/36
f 5/23/37 12/24/38 14/25/39
f 5/23/40 13/26/41 12/24/42
f 10/22/43 12/21/44 13/27/45
f 9/18/46 14/28/47 12/21/48
f 8/15/49 15/29/50 14/28/51
f 8/15/52 14/28/53 9/18/54
f 14/25/55 33/30/56 5/23/57
f 16/31/58 22/32/59 14/25/60
f 22/32/61 3/33/62 14/25/63
f 14/25/64 15/34/65 16/31/66
f 15/35/67 8/36/68 16/37/69
f 16/37/70 8/36/71 18/38/72
f 21/39/73 29/40/74 18/41/75
f 18/38/76 17/42/77 16/37/78
f 18/38/79 11/43/80 19/44/81
f 19/45/82 2/9/83 18/41/84
f 11/43/85 18/38/86 8/36/87
f 22/32/88 31/46/89 3/33/90
f 21/39/91 18/41/92 2/9/93
f 2/3/94 19/47/95 11/16/96
f 3/48/97 21/39/98 2/9/99
f 10/22/100 13/27/101 20/49/102
f 4/11/103 20/50/104 13/51/105
f 4/11/106 13/51/107 5/6/108
f 4/19/109 10/20/110 20/52/111
f 7/53/112 11/43/113 8/36/114
f 17/54/115 27/55/116 16/31/117
f 31/56/118 21/39/119 3/48/120
f 29/40/121 17/57/122 18/41/123
f 21/39/124 30/58/125 29/40/126
f 26/4/127 25/59/128 1/5/129
f 24/8/130 3/48/131 2/9/132
f 24/60/133 26/4/134 23/61/135
f 26/4/136 33/62/137 3/63/138
f 1/7/139 25/64/140 24/8/141
f 24/8/142 23/65/143 3/48/144
f 24/8/145 25/64/146 26/66/147
f 3/63/148 23/61/149 26/4/150
f 30/67/151 31/46/152 32/68/153
f 27/55/154 22/32/155 16/31/156
f 22/32/157 32/68/158 31/46/159
f 17/54/160 28/69/161 27/55/162
f 31/56/163 30/58/164 21/39/165
f 29/40/166 28/70/167 17/57/168
f 32/68/169 27/55/170 30/67/171
f 27/71/172 28/72/173 29/73/174
f 30/67/175 27/55/176 29/74/177
f 27/55/178 32/68/179 22/32/180
f 14/25/181 3/33/182 33/30/183
f 26/4/184 5/6/185 33/62/186
f 5/6/187 1/5/188 34/10/189
f 6/1/190 4/19/191 34/12/192
