# This file uses centimeters as units for non-parametric coordinates.

mtllib rock_44.mtl
g default
v -0.029386 -0.849129 -1.644689
v -1.095307 -0.827671 -0.619001
v -0.062871 -0.790058 -0.739385
v -0.863320 0.074396 -1.115895
v -0.825616 0.210139 -1.774998
v -0.552337 0.355387 -1.896980
v -0.314309 0.807361 -1.356989
v 0.086640 1.011197 -1.939994
v -0.330153 0.837874 -1.777924
v -0.340464 0.713196 -0.899773
v 0.062459 0.633978 -0.864575
v 0.804866 0.901956 -1.064452
v -0.122656 0.625294 0.600059
v -0.626534 0.644537 -0.468576
v 0.632764 0.538008 0.218194
v 0.698487 0.838922 -0.853479
v 1.010192 0.589763 -1.013058
v 0.956720 0.387163 -0.618175
v 0.929986 0.167191 0.388463
v 1.070963 -0.950106 -0.927712
v 0.976256 -0.934615 0.669363
v 1.104888 -0.448319 -1.671163
v 1.127746 -0.795360 -1.481971
v 0.807573 -0.843798 -1.810395
v 0.943850 -0.442959 -1.884364
v 1.070172 0.638737 -1.884777
v 1.107880 -0.401645 -1.842980
v 1.064388 0.868675 -1.502651
v 0.698477 1.026158 -1.792724
v 0.858577 1.047670 -1.553612
v 1.005856 0.953337 -1.123034
v 1.025718 1.044274 -1.446897
v 0.743159 -0.985611 1.362047
v 0.945359 -0.794922 1.522803
v -0.094809 -1.022024 0.831965
v 0.808004 0.023668 1.578845
v 0.828448 0.282254 1.379106
v 0.932476 0.094369 0.690815
v 1.048336 -0.964244 1.228301
v 0.608697 0.494706 0.666240
v 0.867218 0.376943 0.976097
v 0.657062 0.185145 1.716109
v -0.206653 0.310575 1.678172
v -0.743535 -0.247663 1.746256
v -0.908257 0.178541 1.363832
v -0.274369 -0.919566 1.788455
v 0.496274 -0.963414 1.872159
v -0.799595 0.308901 0.689827
v -0.964414 -0.222429 1.446387
v -1.078966 -0.328098 1.846895
v -0.911092 -0.867363 0.904273
v -1.113191 -0.655434 1.814993
v -1.122276 -0.872217 1.739971
v -0.926432 -0.886862 1.939994
v -1.022336 -0.640208 1.905869
v -1.127747 -0.571764 1.915636
v -0.962588 0.363702 -0.282303
v -0.878399 0.064148 -0.799396
v 0.747027 -0.972105 1.706015
v -0.817630 -1.047670 -1.448169
v -0.835782 -1.046538 -1.367847
v -0.927822 -1.043536 -1.337113
v -0.903620 -0.978626 -1.401055
v -0.901304 -0.978780 -1.450789
v -0.755386 -0.568584 -1.519001
v -0.749349 -0.543183 -1.600261
v -0.690213 -0.674496 -1.592690
v -0.781189 -0.703932 -1.569416
v 0.642533 -0.052877 1.679456
v 0.601229 -0.005236 1.717695
v 0.506691 -0.046475 1.714663
v 0.571207 -0.161404 1.732124
v -0.694703 0.193800 1.614421
v -0.684840 0.116200 1.654652
v -0.648597 0.085300 1.716686
v -0.497370 0.231540 1.698472
vt 0.989574 0.053243
vt 0.998819 0.063749
vt 0.973452 0.185867
vt 0.847243 0.105973
vt 0.989185 0.045183
vt 0.016551 0.081096
vt 0.000000 0.201581
vt 0.005122 0.086431
vt 0.404639 0.969345
vt 0.313611 0.936927
vt 0.306180 0.915062
vt 0.302097 0.788167
vt 0.342505 0.763696
vt 0.423101 0.107907
vt 0.504900 0.035551
vt 0.541138 0.065010
vt 0.541138 0.174191
vt 0.432438 0.040236
vt 0.381472 0.000000
vt 0.394046 0.179873
vt 0.222806 0.619180
vt 0.212099 0.693824
vt 0.174176 0.698441
vt 0.423101 0.183645
vt 0.305105 0.123173
vt 0.315590 0.160994
vt 0.444548 0.261733
vt 0.373189 0.420071
vt 0.604771 0.245301
vt 0.553198 0.422206
vt 0.541138 0.182369
vt 0.222806 0.764883
vt 0.324192 0.340043
vt 0.573448 0.455495
vt 0.573483 0.420872
vt 0.625214 0.447077
vt 0.645645 0.382327
vt 0.813525 0.432489
vt 0.670007 0.217459
vt 0.269094 0.405063
vt 0.133522 0.177463
vt 0.269211 0.144308
vt 0.804934 0.171042
vt 0.128363 0.030354
vt 0.755976 0.554406
vt 0.799053 0.523306
vt 0.234807 0.000000
vt 0.280710 0.051743
vt 0.257831 0.619180
vt 0.261184 0.680565
vt 0.222806 0.680565
vt 0.593690 0.662351
vt 0.570487 0.622790
vt 0.593690 0.589811
vt 0.544505 0.905672
vt 0.522720 0.971089
vt 0.433891 0.662573
vt 0.566465 0.732742
vt 0.566465 0.901659
vt 0.569710 0.594526
vt 0.623622 0.589811
vt 0.750616 0.582549
vt 0.595717 0.527363
vt 0.551147 0.574679
vt 0.515341 0.669787
vt 0.559837 0.535652
vt 0.321058 0.006959
vt 0.298191 0.040664
vt 0.283309 0.107476
vt 0.280710 0.053367
vt 0.273182 0.664050
vt 0.261184 0.643086
vt 0.273182 0.619180
vt 0.572005 0.518288
vt 0.581461 0.465230
vt 0.569710 0.651399
vt 0.541138 0.599697
vt 0.569710 0.589811
vt 0.678872 0.167943
vt 0.241394 0.519616
vt 0.128305 0.436834
vt 0.280710 0.496345
vt 0.786025 0.031399
vt 0.678519 0.022491
vt 0.813525 0.079592
vt 0.649062 0.055305
vt 0.278446 0.542703
vt 0.608232 0.171935
vt 0.640493 0.121331
vt 0.648587 0.000000
vt 0.572789 0.005727
vt 0.000000 0.763476
vt 0.081100 0.681386
vt 0.170865 0.763958
vt 0.448184 0.613349
vt 0.469522 0.571573
vt 0.513428 0.593363
vt 0.384678 0.600885
vt 0.464082 0.458191
vt 0.034388 0.693648
vt 0.174176 0.887364
vt 0.012727 0.903853
vt 0.044358 0.904971
vt 0.030409 0.933068
vt 0.442187 0.605796
vt 0.488285 0.636009
vt 0.524041 0.662573
vt 0.909548 0.518349
vt 0.831454 0.395917
vt 0.994374 0.424654
vt 0.854133 0.506483
vt 0.970851 0.578735
vt 0.926353 0.585351
vt 1.000000 0.565282
vt 0.010774 0.587125
vt 0.117366 0.592326
vt 0.036525 0.619180
vt 0.032241 0.449892
vt 0.271831 0.664050
vt 0.271831 0.696898
vt 0.261184 0.664592
vt 0.591069 0.705378
vt 0.569710 0.695685
vt 0.591069 0.662351
vt 0.280599 0.640217
vt 0.273182 0.632461
vt 0.280599 0.619180
vt 0.096626 0.625824
vt 0.140292 0.637221
vt 0.131852 0.619180
vt 0.174176 0.654777
vt 0.960026 0.595991
vt 0.498617 0.305573
vt 0.813525 0.245136
vt 0.851265 0.157194
vt 0.535245 0.225574
vt 0.045194 0.882151
vt 0.214480 0.603531
vt 0.245014 0.575556
vt 0.139778 0.965714
vt 0.169698 0.931641
vt 0.372907 0.691450
vt 0.233156 0.680565
vt 0.233156 0.696145
vt 0.222806 0.690833
vt 0.291869 1.000000
vt 0.280710 0.988105
vt 0.999656 0.042527
vt 1.000000 0.055990
vt 0.018256 0.067934
vt 0.929484 0.019922
vt 0.933634 0.032962
vt 0.303754 0.921433
vt 0.300557 0.941531
vt 0.823153 0.000000
vt 0.951575 0.024601
vt 0.948334 0.018324
vt 0.060899 0.893507
vt 0.039065 0.896922
vt 0.601415 0.662351
vt 0.601415 0.696065
vt 0.591069 0.668530
vt 0.013068 0.716874
vt 0.446459 0.622876
vt 0.418376 0.613330
vn -0.960841 0.106088 -0.255988
vn -0.960841 0.106088 -0.255988
vn -0.960841 0.106088 -0.255988
vn -0.960834 0.106104 -0.256009
vn -0.960834 0.106104 -0.256009
vn -0.960834 0.106104 -0.256009
vn -0.997621 0.050801 -0.046601
vn -0.997621 0.050801 -0.046601
vn -0.997621 0.050801 -0.046601
vn 0.069901 -0.950709 0.302103
vn 0.069901 -0.950709 0.302103
vn 0.069901 -0.950709 0.302103
vn -0.105403 -0.104502 -0.988923
vn -0.105403 -0.104502 -0.988923
vn -0.105403 -0.104502 -0.988923
vn -0.250407 -0.301409 -0.920027
vn -0.250407 -0.301409 -0.920027
vn -0.250407 -0.301409 -0.920027
vn -0.559723 0.740131 -0.372715
vn -0.559723 0.740131 -0.372715
vn -0.559723 0.740131 -0.372715
vn -0.784598 0.614598 0.081700
vn -0.784598 0.614598 0.081700
vn -0.784598 0.614598 0.081700
vn -0.912368 0.404386 0.063698
vn -0.912368 0.404386 0.063698
vn -0.912368 0.404386 0.063698
vn -0.355697 0.931093 0.080899
vn -0.355697 0.931093 0.080899
vn -0.355697 0.931093 0.080899
vn 0.001600 0.943626 0.331009
vn 0.001600 0.943626 0.331009
vn 0.001600 0.943626 0.331009
vn 0.171201 0.963008 0.208102
vn 0.171201 0.963008 0.208102
vn 0.171201 0.963008 0.208102
vn -0.784598 0.614598 0.081700
vn -0.784598 0.614598 0.081700
vn -0.784598 0.614598 0.081700
vn -0.245706 0.916423 0.315908
vn -0.245706 0.916423 0.315908
vn -0.245706 0.916423 0.315908
vn -0.306197 0.943391 0.127499
vn -0.306197 0.943391 0.127499
vn -0.306197 0.943391 0.127499
vn 0.020199 0.999760 0.008500
vn 0.020199 0.999760 0.008500
vn 0.020199 0.999760 0.008500
vn 0.125605 0.991841 0.021801
vn 0.125605 0.991841 0.021801
vn 0.125605 0.991841 0.021801
vn 0.164299 0.951392 0.260498
vn 0.164299 0.951392 0.260498
vn 0.164299 0.951392 0.260498
vn -0.301503 0.922609 0.240602
vn -0.301503 0.922609 0.240602
vn -0.301503 0.922609 0.240602
vn 0.681996 0.531297 0.502597
vn 0.681996 0.531297 0.502597
vn 0.681996 0.531297 0.502597
vn 0.688389 0.603290 0.402693
vn 0.688389 0.603290 0.402693
vn 0.688389 0.603290 0.402693
vn 0.798791 0.564693 0.207498
vn 0.798791 0.564693 0.207498
vn 0.798791 0.564693 0.207498
vn 0.986287 0.047699 0.157998
vn 0.986287 0.047699 0.157998
vn 0.986287 0.047699 0.157998
vn 0.996245 0.075203 0.042902
vn 0.996245 0.075203 0.042902
vn 0.996245 0.075203 0.042902
vn 0.731607 0.661706 0.164002
vn 0.731607 0.661706 0.164002
vn 0.731607 0.661706 0.164002
vn -0.139601 -0.990207 0.001300
vn -0.139601 -0.990207 0.001300
vn -0.139601 -0.990207 0.001300
vn 0.996665 0.056798 0.058598
vn 0.996665 0.056798 0.058598
vn 0.996665 0.056798 0.058598
vn -0.129805 -0.989735 0.059802
vn -0.129805 -0.989735 0.059802
vn -0.129805 -0.989735 0.059802
vn 0.996250 0.043498 0.074796
vn 0.996250 0.043498 0.074796
vn 0.996250 0.043498 0.074796
vn 0.980145 0.140706 0.139706
vn 0.980145 0.140706 0.139706
vn 0.980145 0.140706 0.139706
vn -0.016399 -0.993265 -0.114696
vn -0.016399 -0.993265 -0.114696
vn -0.016399 -0.993265 -0.114696
vn 0.359486 -0.907666 -0.216592
vn 0.359486 -0.907666 -0.216592
vn 0.359486 -0.907666 -0.216592
vn 0.704280 -0.303491 -0.641781
vn 0.704280 -0.303491 -0.641781
vn 0.704280 -0.303491 -0.641781
vn 0.741090 -0.356895 -0.568693
vn 0.741090 -0.356895 -0.568693
vn 0.741090 -0.356895 -0.568693
vn -0.192210 -0.114506 -0.974651
vn -0.192210 -0.114506 -0.974651
vn -0.192210 -0.114506 -0.974651
vn -0.179898 -0.143299 -0.973192
vn -0.179898 -0.143299 -0.973192
vn -0.179898 -0.143299 -0.973192
vn 0.053502 -0.006600 -0.998546
vn 0.053502 -0.006600 -0.998546
vn 0.053502 -0.006600 -0.998546
vn 0.251594 -0.029699 -0.967377
vn 0.251594 -0.029699 -0.967377
vn 0.251594 -0.029699 -0.967377
vn 0.294599 -0.923495 -0.245699
vn 0.294599 -0.923495 -0.245699
vn 0.294599 -0.923495 -0.245699
vn 0.998926 0.037301 0.027501
vn 0.998926 0.037301 0.027501
vn 0.998926 0.037301 0.027501
vn 0.994656 -0.081096 0.063897
vn 0.994656 -0.081096 0.063897
vn 0.994656 -0.081096 0.063897
vn 0.996417 0.045801 0.071101
vn 0.996417 0.045801 0.071101
vn 0.996417 0.045801 0.071101
vn 0.611519 0.682021 -0.401113
vn 0.611519 0.682021 -0.401113
vn 0.611519 0.682021 -0.401113
vn 0.204293 0.407485 -0.890068
vn 0.204293 0.407485 -0.890068
vn 0.204293 0.407485 -0.890068
vn 0.639818 0.598417 -0.482214
vn 0.639818 0.598417 -0.482214
vn 0.639818 0.598417 -0.482214
vn -0.066701 0.981912 0.177202
vn -0.066701 0.981912 0.177202
vn -0.066701 0.981912 0.177202
vn -0.435290 0.874780 0.212795
vn -0.435290 0.874780 0.212795
vn -0.435290 0.874780 0.212795
vn -0.146007 0.954747 0.259113
vn -0.146007 0.954747 0.259113
vn -0.146007 0.954747 0.259113
vn -0.165694 0.949964 0.264790
vn -0.165694 0.949964 0.264790
vn -0.165694 0.949964 0.264790
vn 0.507200 0.360300 -0.782900
vn 0.507200 0.360300 -0.782900
vn 0.507200 0.360300 -0.782900
vn 0.977421 0.180104 0.110502
vn 0.977421 0.180104 0.110502
vn 0.977421 0.180104 0.110502
vn 0.988624 0.054201 0.140303
vn 0.988624 0.054201 0.140303
vn 0.988624 0.054201 0.140303
vn 0.200088 0.285882 0.937142
vn 0.200088 0.285882 0.937142
vn 0.200088 0.285882 0.937142
vn 0.999095 0.042500 0.002000
vn 0.999095 0.042500 0.002000
vn 0.999095 0.042500 0.002000
vn 0.073899 -0.996086 -0.048499
vn 0.073899 -0.996086 -0.048499
vn 0.073899 -0.996086 -0.048499
vn 0.044200 -0.997303 -0.058600
vn 0.044200 -0.997303 -0.058600
vn 0.044200 -0.997303 -0.058600
vn 0.986273 0.164895 0.008700
vn 0.986273 0.164895 0.008700
vn 0.986273 0.164895 0.008700
vn 0.793365 0.604674 -0.070297
vn 0.793365 0.604674 -0.070297
vn 0.793365 0.604674 -0.070297
vn 0.058703 -0.987746 -0.144607
vn 0.058703 -0.987746 -0.144607
vn 0.058703 -0.987746 -0.144607
vn 0.988642 0.034801 0.146206
vn 0.988642 0.034801 0.146206
vn 0.988642 0.034801 0.146206
vn 0.989530 0.039201 0.138904
vn 0.989530 0.039201 0.138904
vn 0.989530 0.039201 0.138904
vn 0.296406 -0.779517 0.551812
vn 0.296406 -0.779517 0.551812
vn 0.296406 -0.779517 0.551812
vn 0.726873 0.563779 -0.392185
vn 0.726873 0.563779 -0.392185
vn 0.726873 0.563779 -0.392185
vn 0.764961 0.627568 0.144893
vn 0.764961 0.627568 0.144893
vn 0.764961 0.627568 0.144893
vn 0.987012 0.106801 0.120001
vn 0.987012 0.106801 0.120001
vn 0.987012 0.106801 0.120001
vn 0.149604 0.959225 0.239806
vn 0.149604 0.959225 0.239806
vn 0.149604 0.959225 0.239806
vn 0.752428 0.650524 0.103304
vn 0.752428 0.650524 0.103304
vn 0.752428 0.650524 0.103304
vn 0.165701 0.980709 0.103701
vn 0.165701 0.980709 0.103701
vn 0.165701 0.980709 0.103701
vn 0.149604 0.959225 0.239806
vn 0.149604 0.959225 0.239806
vn 0.149604 0.959225 0.239806
vn 0.802362 0.323785 0.501376
vn 0.802362 0.323785 0.501376
vn 0.802362 0.323785 0.501376
vn 0.121300 0.935696 0.331299
vn 0.121300 0.935696 0.331299
vn 0.121300 0.935696 0.331299
vn 0.108801 0.951911 0.286403
vn 0.108801 0.951911 0.286403
vn 0.108801 0.951911 0.286403
vn 0.035498 0.087296 0.995550
vn 0.035498 0.087296 0.995550
vn 0.035498 0.087296 0.995550
vn -0.746406 0.232902 0.623405
vn -0.746406 0.232902 0.623405
vn -0.746406 0.232902 0.623405
vn -0.245614 0.958354 0.145708
vn -0.245614 0.958354 0.145708
vn -0.245614 0.958354 0.145708
vn 0.048801 0.074502 0.996026
vn 0.048801 0.074502 0.996026
vn 0.048801 0.074502 0.996026
vn -0.102197 0.094398 0.990275
vn -0.102197 0.094398 0.990275
vn -0.102197 0.094398 0.990275
vn 0.565594 -0.159098 0.809192
vn 0.565594 -0.159098 0.809192
vn 0.565594 -0.159098 0.809192
vn -0.386797 0.892893 0.230498
vn -0.386797 0.892893 0.230498
vn -0.386797 0.892893 0.230498
vn -0.747896 0.228099 0.623396
vn -0.747896 0.228099 0.623396
vn -0.747896 0.228099 0.623396
vn -0.764079 0.270693 0.585584
vn -0.764079 0.270693 0.585584
vn -0.764079 0.270693 0.585584
vn -0.169400 0.963799 0.205900
vn -0.169400 0.963799 0.205900
vn -0.169400 0.963799 0.205900
vn -0.983382 0.062099 -0.170597
vn -0.983382 0.062099 -0.170597
vn -0.983382 0.062099 -0.170597
vn -0.984419 0.109602 -0.137503
vn -0.984419 0.109602 -0.137503
vn -0.984419 0.109602 -0.137503
vn -0.962194 0.124199 -0.242399
vn -0.962194 0.124199 -0.242399
vn -0.962194 0.124199 -0.242399
vn -0.962194 0.124199 -0.242399
vn -0.962194 0.124199 -0.242399
vn -0.962194 0.124199 -0.242399
vn -0.962194 0.124199 -0.242399
vn -0.962194 0.124199 -0.242399
vn -0.962194 0.124199 -0.242399
vn -0.054601 -0.998316 -0.019600
vn -0.054601 -0.998316 -0.019600
vn -0.054601 -0.998316 -0.019600
vn -0.054601 -0.998316 -0.019600
vn -0.054601 -0.998316 -0.019600
vn -0.054601 -0.998316 -0.019600
vn -0.671933 -0.216911 0.708135
vn -0.671933 -0.216911 0.708135
vn -0.671933 -0.216911 0.708135
vn -0.709271 -0.181493 0.681172
vn -0.709271 -0.181493 0.681172
vn -0.709271 -0.181493 0.681172
vn -0.421382 -0.726370 0.542977
vn -0.421382 -0.726370 0.542977
vn -0.421382 -0.726370 0.542977
vn 0.231289 0.220989 0.947454
vn 0.231289 0.220989 0.947454
vn 0.231289 0.220989 0.947454
vn 0.231289 0.220989 0.947454
vn 0.231289 0.220989 0.947454
vn 0.231289 0.220989 0.947454
vn 0.231289 0.220989 0.947454
vn 0.231289 0.220989 0.947454
vn 0.231289 0.220989 0.947454
vn -0.962194 0.124199 -0.242399
vn -0.962194 0.124199 -0.242399
vn -0.962194 0.124199 -0.242399
vn 0.231289 0.220989 0.947454
vn 0.231289 0.220989 0.947454
vn 0.231289 0.220989 0.947454
vn -0.179590 -0.981147 0.071396
vn -0.179590 -0.981147 0.071396
vn -0.179590 -0.981147 0.071396
vn -0.186394 -0.982470 -0.003100
vn -0.186394 -0.982470 -0.003100
vn -0.186394 -0.982470 -0.003100
vn -0.985738 0.115704 0.122205
vn -0.985738 0.115704 0.122205
vn -0.985738 0.115704 0.122205
vn -0.392688 0.897372 0.201294
vn -0.392688 0.897372 0.201294
vn -0.392688 0.897372 0.201294
vn -0.586665 0.797052 0.143291
vn -0.586665 0.797052 0.143291
vn -0.586665 0.797052 0.143291
vn -0.983768 0.061998 0.168395
vn -0.983768 0.061998 0.168395
vn -0.983768 0.061998 0.168395
vn -0.949443 0.178708 -0.258112
vn -0.949443 0.178708 -0.258112
vn -0.949443 0.178708 -0.258112
vn -0.706904 0.556004 -0.437203
vn -0.706904 0.556004 -0.437203
vn -0.706904 0.556004 -0.437203
vn -0.734980 0.547185 -0.400489
vn -0.734980 0.547185 -0.400489
vn -0.734980 0.547185 -0.400489
vn -0.771056 0.636564 -0.016099
vn -0.771056 0.636564 -0.016099
vn -0.771056 0.636564 -0.016099
vn -0.972718 0.228704 -0.038901
vn -0.972718 0.228704 -0.038901
vn -0.972718 0.228704 -0.038901
vn -0.040898 0.020299 0.998957
vn -0.040898 0.020299 0.998957
vn -0.040898 0.020299 0.998957
vn -0.066703 -0.993344 0.093904
vn -0.066703 -0.993344 0.093904
vn -0.066703 -0.993344 0.093904
vn 0.012200 -0.998705 0.049400
vn 0.012200 -0.998705 0.049400
vn 0.012200 -0.998705 0.049400
vn -0.008600 -0.999190 0.039300
vn -0.008600 -0.999190 0.039300
vn -0.008600 -0.999190 0.039300
vn 0.602419 0.046501 0.796825
vn 0.602419 0.046501 0.796825
vn 0.602419 0.046501 0.796825
vn 0.543324 0.227410 0.808136
vn 0.543324 0.227410 0.808136
vn 0.543324 0.227410 0.808136
vn 0.676933 -0.735736 0.021301
vn 0.676933 -0.735736 0.021301
vn 0.676933 -0.735736 0.021301
vn 0.019099 -0.989160 -0.145594
vn 0.019099 -0.989160 -0.145594
vn 0.019099 -0.989160 -0.145594
vn -0.473706 0.410406 -0.779211
vn -0.473706 0.410406 -0.779211
vn -0.473706 0.410406 -0.779211
vn 0.100296 -0.162094 -0.981665
vn 0.100296 -0.162094 -0.981665
vn 0.100296 -0.162094 -0.981665
vn -0.265596 -0.624489 -0.734488
vn -0.265596 -0.624489 -0.734488
vn -0.265596 -0.624489 -0.734488
vn 0.260605 -0.962719 0.072501
vn 0.260605 -0.962719 0.072501
vn 0.260605 -0.962719 0.072501
vn -0.160405 -0.238407 -0.957827
vn -0.160405 -0.238407 -0.957827
vn -0.160405 -0.238407 -0.957827
vn 0.069901 -0.950709 0.302103
vn 0.069901 -0.950709 0.302103
vn 0.069901 -0.950709 0.302103
vn -0.174893 -0.248690 -0.952662
vn -0.174893 -0.248690 -0.952662
vn -0.174893 -0.248690 -0.952662
vn -0.634908 -0.772109 -0.027200
vn -0.634908 -0.772109 -0.027200
vn -0.634908 -0.772109 -0.027200
vn -0.665420 -0.733222 -0.140004
vn -0.665420 -0.733222 -0.140004
vn -0.665420 -0.733222 -0.140004
vn 0.260605 -0.962719 0.072501
vn 0.260605 -0.962719 0.072501
vn 0.260605 -0.962719 0.072501
vn -0.989412 -0.100301 -0.104901
vn -0.989412 -0.100301 -0.104901
vn -0.989412 -0.100301 -0.104901
vn -0.817535 0.201109 -0.539623
vn -0.817535 0.201109 -0.539623
vn -0.817535 0.201109 -0.539623
vn -0.343615 0.384617 -0.856737
vn -0.343615 0.384617 -0.856737
vn -0.343615 0.384617 -0.856737
vn -0.159101 -0.324503 -0.932408
vn -0.159101 -0.324503 -0.932408
vn -0.159101 -0.324503 -0.932408
vn -0.989577 -0.118997 -0.081098
vn -0.989577 -0.118997 -0.081098
vn -0.989577 -0.118997 -0.081098
vn -0.917919 0.279806 -0.281306
vn -0.917919 0.279806 -0.281306
vn -0.917919 0.279806 -0.281306
vn -0.890060 -0.412081 -0.194891
vn -0.890060 -0.412081 -0.194891
vn -0.890060 -0.412081 -0.194891
vn -0.125794 -0.346284 -0.929658
vn -0.125794 -0.346284 -0.929658
vn -0.125794 -0.346284 -0.929658
vn 0.034099 0.168793 0.985061
vn 0.034099 0.168793 0.985061
vn 0.034099 0.168793 0.985061
vn 0.565594 -0.159098 0.809192
vn 0.565594 -0.159098 0.809192
vn 0.565594 -0.159098 0.809192
vn 0.253103 0.282704 0.925212
vn 0.253103 0.282704 0.925212
vn 0.253103 0.282704 0.925212
vn 0.479879 0.107195 0.870762
vn 0.479879 0.107195 0.870762
vn 0.479879 0.107195 0.870762
vn -0.040898 0.020299 0.998957
vn -0.040898 0.020299 0.998957
vn -0.040898 0.020299 0.998957
vn 0.034099 0.168793 0.985061
vn 0.034099 0.168793 0.985061
vn 0.034099 0.168793 0.985061
vn 0.193896 -0.506290 0.840283
vn 0.193896 -0.506290 0.840283
vn 0.193896 -0.506290 0.840283
vn 0.479879 0.107195 0.870762
vn 0.479879 0.107195 0.870762
vn 0.479879 0.107195 0.870762
vn -0.423082 0.374084 0.825265
vn -0.423082 0.374084 0.825265
vn -0.423082 0.374084 0.825265
vn -0.248906 0.956222 0.153903
vn -0.248906 0.956222 0.153903
vn -0.248906 0.956222 0.153903
vn 0.049801 0.072502 0.996124
vn 0.049801 0.072502 0.996124
vn 0.049801 0.072502 0.996124
vn -0.766583 0.270294 0.582487
vn -0.766583 0.270294 0.582487
vn -0.766583 0.270294 0.582487
vn -0.515296 0.608096 0.603896
vn -0.515296 0.608096 0.603896
vn -0.515296 0.608096 0.603896
vn -0.249013 0.955950 0.155408
vn -0.249013 0.955950 0.155408
vn -0.249013 0.955950 0.155408
s off
g rock43
usemtl standardSurface1SG
f 63/1/1 62/2/2 2/3/3
f 63/1/4 2/3/5 4/4/6
f 4/4/7 64/5/8 63/1/9
f 61/6/10 2/7/11 62/8/12
f 1/9/13 67/10/14 66/11/15
f 5/12/16 6/13/17 1/9/18
f 7/14/19 6/15/20 5/16/21
f 7/14/22 5/16/23 4/17/24
f 7/14/25 9/18/26 6/15/27
f 7/14/28 8/19/29 9/18/30
f 7/14/31 11/20/32 8/19/33
f 7/21/34 10/22/35 11/23/36
f 7/14/37 4/17/38 10/24/39
f 11/20/40 12/25/41 8/19/42
f 11/20/43 16/26/44 12/25/45
f 11/20/46 14/27/47 13/28/48
f 15/29/49 11/30/50 13/31/51
f 11/23/52 10/22/53 14/32/54
f 15/33/55 16/26/56 11/20/57
f 12/34/58 16/35/59 17/36/60
f 16/35/61 18/37/62 17/36/63
f 18/37/64 16/35/65 15/29/66
f 17/36/67 18/37/68 20/38/69
f 19/39/70 20/38/71 18/37/72
f 18/37/73 15/29/74 19/39/75
f 21/40/76 3/41/77 20/42/78
f 19/39/79 21/43/80 20/38/81
f 1/44/82 20/42/83 3/41/84
f 20/38/85 22/45/86 17/36/87
f 20/38/88 23/46/89 22/45/90
f 24/47/91 20/42/92 1/44/93
f 24/47/94 23/48/95 20/42/96
f 22/49/97 23/50/98 24/51/99
f 24/52/100 25/53/101 22/54/102
f 25/55/103 24/56/104 1/9/105
f 25/55/106 1/9/107 8/57/108
f 26/58/109 25/55/110 8/57/111
f 26/58/112 27/59/113 25/55/114
f 25/53/115 27/60/116 22/54/117
f 26/61/118 22/45/119 27/62/120
f 26/61/121 28/63/122 17/36/123
f 26/61/124 17/36/125 22/45/126
f 29/64/127 28/63/128 26/61/129
f 8/57/130 29/65/131 26/58/132
f 29/64/133 30/66/134 28/63/135
f 12/25/136 29/67/137 8/19/138
f 12/25/139 30/68/140 29/67/141
f 31/69/142 32/70/143 30/68/144
f 31/69/145 30/68/146 12/25/147
f 30/71/148 32/72/149 28/73/150
f 28/63/151 32/74/152 31/75/153
f 28/63/154 31/75/155 17/36/156
f 17/76/157 31/77/158 12/78/159
f 19/39/160 38/79/161 21/43/162
f 21/40/163 33/80/164 35/81/165
f 21/40/166 39/82/167 33/80/168
f 34/83/169 21/43/170 36/84/171
f 34/83/172 39/85/173 21/43/174
f 21/40/175 35/81/176 3/41/177
f 36/84/178 21/43/179 37/86/180
f 38/79/181 37/86/182 21/43/183
f 33/80/184 39/82/185 34/87/186
f 40/88/187 41/89/188 38/79/189
f 38/79/190 19/39/191 40/88/192
f 38/79/193 41/89/194 37/86/195
f 37/86/196 41/89/197 40/88/198
f 19/39/199 15/29/200 40/88/201
f 15/29/202 13/31/203 40/88/204
f 37/86/205 40/88/206 13/31/207
f 42/90/208 36/84/209 37/86/210
f 43/91/211 42/90/212 37/86/213
f 13/31/214 43/91/215 37/86/216
f 43/92/217 44/93/218 46/94/219
f 74/95/220 45/96/221 49/97/222
f 45/96/223 43/98/224 48/99/225
f 43/92/226 75/100/227 44/93/228
f 47/101/229 43/92/230 46/94/231
f 42/102/232 69/103/233 36/104/234
f 13/28/235 48/99/236 43/98/237
f 74/95/238 73/105/239 45/96/240
f 44/106/241 74/95/242 49/97/243
f 49/97/244 50/107/245 44/106/246
f 49/108/247 48/109/248 51/110/249
f 49/108/250 45/111/251 48/109/252
f 52/112/253 50/113/254 49/108/255
f 49/108/256 51/110/257 53/114/258
f 49/108/259 53/114/260 52/112/261
f 53/115/262 46/116/263 54/117/264
f 53/115/265 51/118/266 46/116/267
f 52/119/268 53/120/269 55/121/270
f 53/122/271 54/123/272 55/124/273
f 55/125/274 56/126/275 52/127/276
f 50/128/277 55/129/278 44/93/279
f 50/128/280 56/130/281 55/129/282
f 44/93/283 55/129/284 54/131/285
f 52/112/286 56/132/287 50/113/288
f 44/93/289 54/131/290 46/94/291
f 51/118/292 35/81/293 46/116/294
f 35/81/295 51/118/296 2/7/297
f 2/3/298 51/110/299 48/109/300
f 14/27/301 48/99/302 13/28/303
f 14/27/304 57/133/305 48/99/306
f 2/3/307 48/109/308 57/134/309
f 2/3/310 57/134/311 58/135/312
f 58/136/313 57/133/314 14/27/315
f 14/27/316 10/24/317 58/136/318
f 10/24/319 4/17/320 58/136/321
f 4/4/322 2/3/323 58/135/324
f 71/137/325 42/102/326 43/92/327
f 47/138/328 46/116/329 35/81/330
f 33/80/331 47/138/332 35/81/333
f 33/80/334 59/139/335 47/138/336
f 47/101/337 34/140/338 36/104/339
f 47/101/340 59/141/341 34/140/342
f 33/80/343 34/87/344 59/139/345
f 35/81/346 2/7/347 3/41/348
f 6/13/349 9/142/350 8/57/351
f 6/13/352 8/57/353 1/9/354
f 61/143/355 62/144/356 63/145/357
f 61/6/358 1/44/359 3/41/360
f 1/9/361 66/11/362 5/12/363
f 61/6/364 3/41/365 2/7/366
f 1/9/367 60/146/368 64/147/369
f 64/5/370 60/148/371 63/1/372
f 60/148/373 61/149/374 63/1/375
f 61/6/376 60/150/377 1/44/378
f 4/4/379 66/151/380 65/152/381
f 65/152/382 64/5/383 4/4/384
f 65/153/385 67/10/386 68/154/387
f 64/147/388 67/10/389 1/9/390
f 4/4/391 5/155/392 66/151/393
f 65/152/394 68/156/395 64/5/396
f 65/152/397 66/151/398 67/157/399
f 64/147/400 68/154/401 67/10/402
f 72/158/403 43/92/404 47/101/405
f 42/102/406 70/159/407 69/103/408
f 69/103/409 71/137/410 72/158/411
f 36/104/412 72/158/413 47/101/414
f 71/137/415 70/159/416 42/102/417
f 72/158/418 71/137/419 43/92/420
f 69/103/421 70/159/422 71/137/423
f 36/104/424 69/103/425 72/158/426
f 74/160/427 76/161/428 73/162/429
f 73/105/430 43/98/431 45/96/432
f 43/92/433 76/163/434 75/100/435
f 44/106/436 75/164/437 74/95/438
f 74/95/439 75/164/440 76/165/441
f 73/105/442 76/165/443 43/98/444
