# This file uses centimeters as units for non-parametric coordinates.

mtllib rock_1.mtl
g default
v -0.074671 -0.022486 0.167808
v -0.119768 0.089446 0.128638
v -0.117444 -0.068367 -0.129732
v 0.138274 -0.131581 0.000509
v 0.043552 0.111095 0.127241
v 0.145410 -0.003132 0.111827
v 0.182425 0.090054 0.006320
v 0.137023 0.081433 -0.170834
v 0.066807 0.046571 -0.195593
v -0.124751 -0.127102 0.105251
v -0.054217 -0.092908 0.198001
v -0.173889 -0.100168 0.062195
v 0.035121 0.136820 -0.043316
v -0.044096 -0.136820 0.020879
v -0.086327 0.069933 -0.081953
v -0.072693 0.096479 -0.094110
v -0.063498 0.085835 -0.119142
v -0.058519 0.065438 -0.134729
v -0.069701 0.050376 -0.124863
v -0.105387 0.027655 -0.120973
v -0.110909 0.067554 -0.078379
v 0.133767 -0.092536 0.120741
v 0.118677 -0.094066 0.124313
v 0.105080 -0.103708 0.125327
v 0.101568 -0.110099 0.129923
v 0.100388 -0.119105 0.135683
v 0.131883 -0.126003 0.092070
v 0.136408 -0.096690 0.108853
v 0.138426 -0.045340 -0.168769
v 0.132603 -0.079107 -0.162670
v 0.095608 -0.067713 -0.187852
v 0.100585 -0.049643 -0.186534
v 0.113254 -0.035355 -0.198001
v 0.133078 -0.031296 -0.191685
v -0.172640 -0.005916 0.128701
v -0.161278 0.003714 0.145921
v -0.155030 0.011970 0.143963
v -0.161673 0.048930 0.132972
v -0.176518 0.013924 0.103752
v -0.182425 -0.004082 0.117965
vt 0.828817 0.852139
vt 0.965099 0.791254
vt 0.979864 0.839573
vt 0.159342 0.460835
vt 0.054695 0.417600
vt 0.015415 0.357162
vt 0.000000 0.117315
vt 0.684481 0.920792
vt 0.585433 0.974868
vt 0.534065 0.860334
vt 0.848518 0.115931
vt 0.949187 0.042169
vt 0.967043 0.057228
vt 0.706606 0.682788
vt 0.565328 0.536648
vt 0.706606 0.474280
vt 0.846353 0.301066
vt 0.416586 0.473727
vt 0.371147 0.515881
vt 0.727445 0.114151
vt 0.608382 0.228682
vt 0.473914 0.038970
vt 0.450001 0.578491
vt 0.990325 0.063047
vt 1.000000 0.360334
vt 0.942175 0.012856
vt 0.797580 0.013498
vt 0.121927 0.052005
vt 0.438189 0.598554
vt 0.429196 0.604089
vt 0.129844 0.522031
vt 0.248681 0.533437
vt 0.000000 0.667990
vt 0.285136 0.693448
vt 0.165540 0.932950
vt 0.558692 0.000000
vt 0.416586 0.297071
vt 0.754227 0.166809
vt 0.593795 0.474280
vt 0.796651 0.522135
vt 0.979864 0.497075
vt 0.706606 0.801714
vt 0.812603 0.813306
vt 0.192670 0.196756
vt 0.416586 0.152486
vt 0.574874 0.984270
vt 0.438279 0.834138
vt 0.416586 0.606368
vt 0.830873 0.840667
vt 0.827470 0.287944
vt 0.197405 0.000000
vt 0.347910 0.558639
vt 0.285927 0.568093
vt 0.320726 0.515881
vt 0.797580 0.474280
vt 0.877073 0.349874
vt 0.740161 0.151387
vt 0.800617 0.294253
vt 0.376139 0.709011
vt 0.351323 0.552063
vt 0.376139 0.515881
vt 0.858206 0.474280
vt 0.784983 0.171769
vt 0.773599 0.106574
vt 0.285136 0.522181
vt 0.351323 0.601944
vt 0.351323 0.529448
vt 0.387361 0.591547
vt 0.416586 0.575185
vt 0.416586 0.623824
vt 0.452329 0.556307
vt 0.244649 0.515881
vt 0.314187 0.635414
vt 0.306103 0.622550
vt 0.314187 0.601944
vt 0.285136 0.615392
vt 0.294107 0.609399
vt 0.306103 0.665525
vt 0.306103 0.601944
vt 0.387361 0.603824
vt 0.376149 0.585376
vt 0.387361 0.575185
vt 0.285136 0.560060
vt 0.416586 0.575185
vt 0.393417 0.567372
vt 0.389546 0.538290
vt 0.006219 0.926482
vt 0.209301 0.926671
vt 0.416586 0.515881
vt 0.957496 0.000000
vt 1.000000 0.004395
vt 0.147203 0.965248
vt 0.800395 0.860587
vt 0.759146 0.836541
vt 0.421405 0.931997
vt 0.567607 1.000000
vt 0.634350 0.982958
vt 0.378343 0.523311
vt 0.389546 0.515881
vt 0.389546 0.551711
vt 0.810538 0.868270
vn -0.718315 -0.394708 0.572912
vn -0.718315 -0.394708 0.572912
vn -0.718315 -0.394708 0.572912
vn -0.147305 -0.987832 0.049902
vn -0.147305 -0.987832 0.049902
vn -0.147305 -0.987832 0.049902
vn -0.147305 -0.987832 0.049902
vn -0.147305 -0.987832 0.049902
vn -0.147305 -0.987832 0.049902
vn -0.168395 0.264492 0.949572
vn -0.168395 0.264492 0.949572
vn -0.168395 0.264492 0.949572
vn -0.481188 -0.248094 -0.840778
vn -0.481188 -0.248094 -0.840778
vn -0.481188 -0.248094 -0.840778
vn 0.619704 0.467503 0.630404
vn 0.619704 0.467503 0.630404
vn 0.619704 0.467503 0.630404
vn -0.451896 -0.239598 -0.859292
vn -0.451896 -0.239598 -0.859292
vn -0.451896 -0.239598 -0.859292
vn -0.086598 -0.949274 -0.302292
vn -0.086598 -0.949274 -0.302292
vn -0.086598 -0.949274 -0.302292
vn -0.099898 0.880979 -0.462489
vn -0.099898 0.880979 -0.462489
vn -0.099898 0.880979 -0.462489
vn 0.223296 0.067899 0.972383
vn 0.223296 0.067899 0.972383
vn 0.223296 0.067899 0.972383
vn -0.260798 0.143999 -0.954593
vn -0.260798 0.143999 -0.954593
vn -0.260798 0.143999 -0.954593
vn 0.252900 0.167400 -0.952900
vn 0.252900 0.167400 -0.952900
vn 0.252900 0.167400 -0.952900
vn 0.095202 -0.955324 0.279807
vn 0.095202 -0.955324 0.279807
vn 0.095202 -0.955324 0.279807
vn 0.376617 0.395418 0.837738
vn 0.376617 0.395418 0.837738
vn 0.376617 0.395418 0.837738
vn 0.963236 -0.100604 0.249109
vn 0.963236 -0.100604 0.249109
vn 0.963236 -0.100604 0.249109
vn 0.976600 -0.192000 -0.096900
vn 0.976600 -0.192000 -0.096900
vn 0.976600 -0.192000 -0.096900
vn -0.148502 0.753711 -0.640209
vn -0.148502 0.753711 -0.640209
vn -0.148502 0.753711 -0.640209
vn 0.340191 0.930975 -0.132496
vn 0.340191 0.930975 -0.132496
vn 0.340191 0.930975 -0.132496
vn -0.513614 0.844323 0.152704
vn -0.513614 0.844323 0.152704
vn -0.513614 0.844323 0.152704
vn -0.996534 0.066702 -0.049702
vn -0.996534 0.066702 -0.049702
vn -0.996534 0.066702 -0.049702
vn -0.668825 0.631724 -0.391915
vn -0.668825 0.631724 -0.391915
vn -0.668825 0.631724 -0.391915
vn -0.019100 -0.913678 -0.405990
vn -0.019100 -0.913678 -0.405990
vn -0.019100 -0.913678 -0.405990
vn -0.124700 0.360201 0.924503
vn -0.124700 0.360201 0.924503
vn -0.124700 0.360201 0.924503
vn 0.398111 0.456612 0.795621
vn 0.398111 0.456612 0.795621
vn 0.398111 0.456612 0.795621
vn -0.959930 0.076102 -0.269708
vn -0.959930 0.076102 -0.269708
vn -0.959930 0.076102 -0.269708
vn 0.045902 -0.986450 0.157508
vn 0.045902 -0.986450 0.157508
vn 0.045902 -0.986450 0.157508
vn -0.710578 -0.399388 0.579282
vn -0.710578 -0.399388 0.579282
vn -0.710578 -0.399388 0.579282
vn 0.009400 -0.006200 0.999937
vn 0.009400 -0.006200 0.999937
vn 0.009400 -0.006200 0.999937
vn 0.259487 0.956753 0.131494
vn 0.259487 0.956753 0.131494
vn 0.259487 0.956753 0.131494
vn -0.452924 -0.228212 -0.861846
vn -0.452924 -0.228212 -0.861846
vn -0.452924 -0.228212 -0.861846
vn -0.335902 -0.908305 -0.249301
vn -0.335902 -0.908305 -0.249301
vn -0.335902 -0.908305 -0.249301
vn -0.325913 -0.922837 -0.205308
vn -0.325913 -0.922837 -0.205308
vn -0.325913 -0.922837 -0.205308
vn -0.870399 0.223100 -0.438899
vn -0.870399 0.223100 -0.438899
vn -0.870399 0.223100 -0.438899
vn -0.131507 0.984956 -0.112106
vn -0.131507 0.984956 -0.112106
vn -0.131507 0.984956 -0.112106
vn -0.177594 0.111496 -0.977767
vn -0.177594 0.111496 -0.977767
vn -0.177594 0.111496 -0.977767
vn -0.132497 0.893682 -0.428692
vn -0.132497 0.893682 -0.428692
vn -0.132497 0.893682 -0.428692
vn -0.304403 0.530405 -0.791208
vn -0.304403 0.530405 -0.791208
vn -0.304403 0.530405 -0.791208
vn -0.515166 0.561262 0.647757
vn -0.515166 0.561262 0.647757
vn -0.515166 0.561262 0.647757
vn -0.955343 0.143507 -0.258312
vn -0.955343 0.143507 -0.258312
vn -0.955343 0.143507 -0.258312
vn -0.168197 0.708487 -0.685387
vn -0.168197 0.708487 -0.685387
vn -0.168197 0.708487 -0.685387
vn -0.869101 0.251200 -0.426101
vn -0.869101 0.251200 -0.426101
vn -0.869101 0.251200 -0.426101
vn -0.500293 0.698190 -0.512092
vn -0.500293 0.698190 -0.512092
vn -0.500293 0.698190 -0.512092
vn -0.799230 0.229409 -0.555521
vn -0.799230 0.229409 -0.555521
vn -0.799230 0.229409 -0.555521
vn -0.111505 0.987745 -0.109205
vn -0.111505 0.987745 -0.109205
vn -0.111505 0.987745 -0.109205
vn 0.489309 -0.489009 0.722113
vn 0.489309 -0.489009 0.722113
vn 0.489309 -0.489009 0.722113
vn 0.977160 -0.196792 0.080197
vn 0.977160 -0.196792 0.080197
vn 0.977160 -0.196792 0.080197
vn 0.223296 0.067899 0.972383
vn 0.223296 0.067899 0.972383
vn 0.223296 0.067899 0.972383
vn 0.389993 0.440193 0.808787
vn 0.389993 0.440193 0.808787
vn 0.389993 0.440193 0.808787
vn 0.963236 -0.100604 0.249109
vn 0.963236 -0.100604 0.249109
vn 0.963236 -0.100604 0.249109
vn 0.398092 0.456691 0.795585
vn 0.398092 0.456691 0.795585
vn 0.398092 0.456691 0.795585
vn 0.067199 0.010400 0.997685
vn 0.067199 0.010400 0.997685
vn 0.067199 0.010400 0.997685
vn 0.177995 -0.915976 0.359591
vn 0.177995 -0.915976 0.359591
vn 0.177995 -0.915976 0.359591
vn 0.783716 0.016000 0.620913
vn 0.783716 0.016000 0.620913
vn 0.783716 0.016000 0.620913
vn 0.804419 0.241606 0.542713
vn 0.804419 0.241606 0.542713
vn 0.804419 0.241606 0.542713
vn 0.473505 -0.599907 0.644907
vn 0.473505 -0.599907 0.644907
vn 0.473505 -0.599907 0.644907
vn 0.977179 -0.196696 0.080198
vn 0.977179 -0.196696 0.080198
vn 0.977179 -0.196696 0.080198
vn 0.334802 -0.752304 -0.567403
vn 0.334802 -0.752304 -0.567403
vn 0.334802 -0.752304 -0.567403
vn 0.968584 0.006700 -0.248596
vn 0.968584 0.006700 -0.248596
vn 0.968584 0.006700 -0.248596
vn -0.079998 -0.949374 -0.303792
vn -0.079998 -0.949374 -0.303792
vn -0.079998 -0.949374 -0.303792
vn -0.262392 0.141896 -0.954472
vn -0.262392 0.141896 -0.954472
vn -0.262392 0.141896 -0.954472
vn 0.265402 0.178301 -0.947507
vn 0.265402 0.178301 -0.947507
vn 0.265402 0.178301 -0.947507
vn 0.978168 -0.185494 -0.093697
vn 0.978168 -0.185494 -0.093697
vn 0.978168 -0.185494 -0.093697
vn 0.343794 -0.762786 -0.547690
vn 0.343794 -0.762786 -0.547690
vn 0.343794 -0.762786 -0.547690
vn 0.434882 -0.232090 -0.870064
vn 0.434882 -0.232090 -0.870064
vn 0.434882 -0.232090 -0.870064
vn 0.541780 -0.088297 -0.835870
vn 0.541780 -0.088297 -0.835870
vn 0.541780 -0.088297 -0.835870
vn 0.974770 0.007200 -0.223093
vn 0.974770 0.007200 -0.223093
vn 0.974770 0.007200 -0.223093
vn -0.882201 -0.018700 0.470501
vn -0.882201 -0.018700 0.470501
vn -0.882201 -0.018700 0.470501
vn -0.656590 -0.384994 0.648590
vn -0.656590 -0.384994 0.648590
vn -0.656590 -0.384994 0.648590
vn -0.149692 0.256987 0.954751
vn -0.149692 0.256987 0.954751
vn -0.149692 0.256987 0.954751
vn -0.652208 0.629308 -0.422605
vn -0.652208 0.629308 -0.422605
vn -0.652208 0.629308 -0.422605
vn -0.137702 0.326205 0.935216
vn -0.137702 0.326205 0.935216
vn -0.137702 0.326205 0.935216
vn -0.953326 0.083702 -0.290108
vn -0.953326 0.083702 -0.290108
vn -0.953326 0.083702 -0.290108
vn -0.518713 0.628016 0.580115
vn -0.518713 0.628016 0.580115
vn -0.518713 0.628016 0.580115
vn -0.768408 0.619506 0.160502
vn -0.768408 0.619506 0.160502
vn -0.768408 0.619506 0.160502
vn -0.797998 0.405099 0.446199
vn -0.797998 0.405099 0.446199
vn -0.797998 0.405099 0.446199
vn -0.660781 -0.384889 0.644382
vn -0.660781 -0.384889 0.644382
vn -0.660781 -0.384889 0.644382
s off
g rock
usemtl standardSurface1SG
f 35/1/1 12/2/2 10/3/3
f 4/4/4 27/5/5 26/6/6
f 4/4/7 26/6/8 11/7/9
f 2/8/10 37/9/11 1/10/12
f 9/11/13 33/12/14 32/13/15
f 5/14/16 6/15/17 7/16/18
f 9/11/19 32/13/20 19/17/21
f 4/4/22 31/18/23 30/19/24
f 17/20/25 13/21/26 8/22/27
f 23/23/28 6/15/29 5/14/30
f 19/17/31 31/24/32 3/25/33
f 34/26/34 9/11/35 8/27/36
f 4/4/37 11/7/38 10/28/39
f 24/29/40 1/10/41 25/30/42
f 6/31/43 28/32/44 7/33/45
f 4/34/46 29/35/47 7/33/48
f 9/36/49 17/20/50 8/22/51
f 8/22/52 13/21/53 7/37/54
f 13/21/55 15/38/56 5/39/57
f 21/40/58 3/41/59 2/42/60
f 39/43/61 2/42/62 3/41/63
f 14/44/64 3/45/65 4/4/66
f 1/10/67 36/46/68 11/47/69
f 25/30/70 11/47/71 26/48/72
f 12/2/73 39/43/74 3/41/75
f 10/28/76 14/44/77 4/4/78
f 35/1/79 40/49/80 12/2/81
f 24/29/82 5/14/83 2/8/84
f 5/39/85 7/37/86 13/21/87
f 19/17/88 18/50/89 9/11/90
f 14/44/91 12/51/92 3/45/93
f 10/28/94 12/51/95 14/44/96
f 19/52/97 15/53/98 17/54/99
f 15/38/100 2/55/101 5/39/102
f 3/25/103 20/56/104 19/17/105
f 17/20/106 16/57/107 13/21/108
f 9/11/109 18/50/110 17/58/111
f 13/59/112 16/60/113 15/61/114
f 21/40/115 20/62/116 3/41/117
f 21/63/118 15/38/119 20/64/120
f 15/53/121 16/65/122 17/54/123
f 20/66/124 15/53/125 19/52/126
f 17/54/127 18/67/128 19/52/129
f 15/38/130 21/63/131 2/55/132
f 27/68/133 28/69/134 24/70/135
f 28/32/136 4/34/137 7/33/138
f 23/23/139 22/71/140 6/15/141
f 24/29/142 2/8/143 1/10/144
f 6/31/145 22/72/146 28/32/147
f 25/30/148 1/10/149 11/47/150
f 24/29/151 23/23/152 5/14/153
f 28/73/154 22/74/155 23/75/156
f 24/76/157 25/77/158 27/78/159
f 25/77/160 26/79/161 27/78/162
f 28/80/163 23/81/164 24/82/165
f 28/32/166 27/83/167 4/34/168
f 32/84/169 33/85/170 34/86/171
f 29/35/172 8/87/173 7/33/174
f 4/4/175 3/45/176 31/18/177
f 19/17/178 32/13/179 31/24/180
f 34/26/181 33/12/182 9/11/183
f 4/34/184 30/88/185 29/35/186
f 34/86/187 29/89/188 32/84/189
f 29/90/190 30/91/191 32/13/192
f 30/91/193 31/24/194 32/13/195
f 29/35/196 34/92/197 8/87/198
f 37/93/199 38/94/200 39/43/201
f 10/95/202 36/46/203 35/96/204
f 2/8/205 38/97/206 37/9/207
f 39/43/208 38/94/209 2/42/210
f 1/10/211 37/9/212 36/46/213
f 12/2/214 40/49/215 39/43/216
f 40/98/217 35/99/218 39/100/219
f 35/1/220 36/101/221 37/93/222
f 39/43/223 35/1/224 37/93/225
f 10/95/226 11/47/227 36/46/228
