# This file uses centimeters as units for non-parametric coordinates.

mtllib rock_13.mtl
g default
v 0.663115 -0.286937 0.229498
v 0.320112 -0.398799 -0.070716
v 0.507708 0.477551 0.020369
v 0.660640 -0.332190 0.464076
v 0.697500 0.070725 0.395967
v 0.524892 -0.403952 0.489579
v 0.672640 0.228594 0.347561
v 0.587018 -0.094359 -0.238867
v 0.561398 0.032113 -0.277202
v 0.520782 -0.122307 -0.282421
v 0.506648 0.043086 -0.324830
v 0.494848 -0.112690 -0.405263
v 0.311791 0.586561 -0.171029
v 0.337653 -0.247257 -0.585565
v 0.039067 0.009560 -0.623555
v -0.298227 -0.649532 -0.282817
v 0.048744 -0.277318 -0.720830
v -0.186446 -0.351346 -0.661650
v 0.098377 0.159103 -0.422281
v -0.291566 0.450431 -0.326676
v 0.035625 0.480703 -0.257805
v 0.241283 0.607283 0.331810
v 0.195841 0.283926 0.739598
v -0.077385 0.355602 0.447575
v -0.417582 0.591321 0.124665
v 0.103141 0.525832 0.536225
v 0.393742 0.653201 0.008374
v 0.425286 -0.223006 0.678735
v 0.638475 0.240066 0.412364
v 0.688351 0.108967 0.494505
v 0.628069 -0.253969 0.630521
v 0.386324 -0.224904 0.759918
v 0.331445 -0.425660 0.595268
v -0.117518 -0.408888 0.420591
v -0.697500 0.128757 0.053741
v -0.409117 -0.520340 0.252444
v -0.662945 -0.420761 0.164307
v -0.627499 -0.568122 0.048777
v -0.492985 -0.653201 -0.010516
v -0.540523 -0.106624 -0.525086
v -0.203552 0.143268 -0.656263
v -0.294068 -0.188842 -0.698938
v -0.181825 -0.059340 -0.759918
v -0.459720 0.364533 0.371984
v -0.303445 0.000635 0.454269
v -0.356103 0.007132 0.443107
v -0.379345 -0.033267 0.409453
v -0.304124 -0.109112 0.449925
vt 0.155780 0.217697
vt 0.052805 0.143684
vt 0.179712 0.062724
vt 0.282101 0.067228
vt 0.388430 0.609320
vt 0.514241 0.495423
vt 0.517742 0.763889
vt 0.584063 0.618262
vt 0.249136 0.027816
vt 0.589190 0.799195
vt 0.587243 0.673463
vt 0.390196 0.654071
vt 0.379904 0.468841
vt 0.379904 0.526056
vt 0.364368 0.516083
vt 0.359738 0.471284
vt 0.380241 0.596089
vt 0.467085 0.855105
vt 0.432551 0.836952
vt 0.467085 0.799195
vt 0.359738 0.485757
vt 0.283551 0.496733
vt 0.313982 0.468841
vt 0.214330 0.658146
vt 0.482431 0.424825
vt 0.870026 0.069136
vt 0.796866 0.030989
vt 0.927382 0.000000
vt 0.918594 0.808083
vt 0.957824 0.752285
vt 0.957824 0.919040
vt 0.072510 0.450054
vt 0.000000 0.285709
vt 0.209074 0.445685
vt 0.333606 0.628511
vt 0.052512 0.171790
vt 0.012295 0.389501
vt 0.021281 0.198821
vt 0.359738 0.786912
vt 0.289453 0.708215
vt 0.322753 0.800860
vt 0.214331 0.892041
vt 0.241944 0.786912
vt 0.822184 0.787105
vt 0.652232 0.762270
vt 0.649823 0.659192
vt 0.660246 0.550737
vt 0.703387 0.810221
vt 0.822184 0.594087
vt 0.918594 0.739468
vt 0.848018 0.700221
vt 0.918594 0.432760
vt 0.432551 0.929966
vt 0.380241 0.865248
vt 0.432551 0.799195
vt 0.902967 0.963543
vt 0.822184 0.811120
vt 0.902967 0.739468
vt 0.822184 0.567803
vt 0.649822 0.458027
vt 0.608972 0.617348
vt 0.533584 0.429264
vt 0.928718 0.588495
vt 1.000000 0.424825
vt 1.000000 0.722133
vt 0.918594 0.639372
vt 0.621525 0.669991
vt 0.649822 0.787460
vt 0.958466 0.752285
vt 0.349866 0.042970
vt 0.301092 0.000000
vt 0.380241 0.039702
vt 0.347162 0.103242
vt 0.889566 0.424825
vt 0.374988 0.251933
vt 0.683683 0.215599
vt 0.710843 0.372013
vt 0.647568 0.424825
vt 0.545829 0.155770
vt 0.533633 0.169926
vt 0.408123 0.143404
vt 0.473484 0.010658
vt 0.380241 0.370430
vt 0.661039 0.016490
vt 0.428631 0.264015
vt 0.467918 0.389136
vt 0.706574 0.099245
vt 0.710843 0.000000
vt 0.214331 0.724590
vt 0.165133 0.495368
vt 0.214331 0.536728
vt 0.028138 0.484195
vt 0.130819 0.468841
vt 0.360803 0.468841
vt 0.322133 0.451638
vt 0.000000 0.682457
vt 0.339107 0.862406
vt 0.339107 1.000000
vt 0.080404 0.847169
vt 0.718954 0.215956
vt 0.846783 0.150805
vt 0.927382 0.270340
vt 0.710843 0.069139
vt 0.779540 0.147379
vt 0.369935 0.894639
vt 0.339107 0.824753
vt 0.369935 0.786912
vt 0.763375 0.088655
vt 0.816551 0.424825
vt 0.538237 0.186447
vt 0.710843 0.289628
vt 0.822728 0.270340
vt 0.822728 0.383383
vt 0.822728 0.296207
vt 0.898690 0.270340
vt 0.898690 0.392541
vt 0.380241 0.337630
vt 0.575067 0.180846
vn 0.575306 -0.719375 -0.389258
vn 0.575306 -0.719375 -0.389258
vn 0.575306 -0.719375 -0.389258
vn 0.434795 -0.884891 -0.167098
vn 0.434795 -0.884891 -0.167098
vn 0.434795 -0.884891 -0.167098
vn 0.980647 0.175790 -0.086195
vn 0.980647 0.175790 -0.086195
vn 0.980647 0.175790 -0.086195
vn 0.912278 0.075298 -0.402590
vn 0.912278 0.075298 -0.402590
vn 0.912278 0.075298 -0.402590
vn 0.436322 -0.884344 -0.166008
vn 0.436322 -0.884344 -0.166008
vn 0.436322 -0.884344 -0.166008
vn 0.995704 -0.092300 -0.007300
vn 0.995704 -0.092300 -0.007300
vn 0.995704 -0.092300 -0.007300
vn 0.948690 0.053799 -0.311597
vn 0.948690 0.053799 -0.311597
vn 0.948690 0.053799 -0.311597
vn 0.981129 0.171805 -0.088703
vn 0.981129 0.171805 -0.088703
vn 0.981129 0.171805 -0.088703
vn 0.633503 -0.140901 -0.760803
vn 0.633503 -0.140901 -0.760803
vn 0.633503 -0.140901 -0.760803
vn 0.581595 -0.125799 -0.803693
vn 0.581595 -0.125799 -0.803693
vn 0.581595 -0.125799 -0.803693
vn 0.627722 0.483317 -0.610221
vn 0.627722 0.483317 -0.610221
vn 0.627722 0.483317 -0.610221
vn 0.978447 0.031302 -0.204110
vn 0.978447 0.031302 -0.204110
vn 0.978447 0.031302 -0.204110
vn 0.565188 0.344292 -0.749684
vn 0.565188 0.344292 -0.749684
vn 0.565188 0.344292 -0.749684
vn 0.502211 0.397409 -0.768017
vn 0.502211 0.397409 -0.768017
vn 0.502211 0.397409 -0.768017
vn 0.743373 0.414985 -0.524581
vn 0.743373 0.414985 -0.524581
vn 0.743373 0.414985 -0.524581
vn 0.376716 0.308813 -0.873338
vn 0.376716 0.308813 -0.873338
vn 0.376716 0.308813 -0.873338
vn 0.567383 0.572083 -0.592282
vn 0.567383 0.572083 -0.592282
vn 0.567383 0.572083 -0.592282
vn 0.238794 -0.796081 -0.556087
vn 0.238794 -0.796081 -0.556087
vn 0.238794 -0.796081 -0.556087
vn 0.434505 -0.867910 -0.240703
vn 0.434505 -0.867910 -0.240703
vn 0.434505 -0.867910 -0.240703
vn 0.151002 0.443805 -0.883310
vn 0.151002 0.443805 -0.883310
vn 0.151002 0.443805 -0.883310
vn 0.731375 -0.660577 -0.169494
vn 0.731375 -0.660577 -0.169494
vn 0.731375 -0.660577 -0.169494
vn 0.225407 -0.935027 -0.273708
vn 0.225407 -0.935027 -0.273708
vn 0.225407 -0.935027 -0.273708
vn 0.763167 -0.611473 -0.208991
vn 0.763167 -0.611473 -0.208991
vn 0.763167 -0.611473 -0.208991
vn 0.139504 0.472312 -0.870322
vn 0.139504 0.472312 -0.870322
vn 0.139504 0.472312 -0.870322
vn 0.364904 0.692607 -0.622206
vn 0.364904 0.692607 -0.622206
vn 0.364904 0.692607 -0.622206
vn 0.096598 0.468092 -0.878384
vn 0.096598 0.468092 -0.878384
vn 0.096598 0.468092 -0.878384
vn -0.333105 0.939014 -0.085401
vn -0.333105 0.939014 -0.085401
vn -0.333105 0.939014 -0.085401
vn -0.050102 0.979937 -0.192907
vn -0.050102 0.979937 -0.192907
vn -0.050102 0.979937 -0.192907
vn -0.481392 0.870385 -0.103398
vn -0.481392 0.870385 -0.103398
vn -0.481392 0.870385 -0.103398
vn 0.466296 0.667094 0.580994
vn 0.466296 0.667094 0.580994
vn 0.466296 0.667094 0.580994
vn 0.862162 0.345785 0.370284
vn 0.862162 0.345785 0.370284
vn 0.862162 0.345785 0.370284
vn -0.643903 0.753103 -0.135001
vn -0.643903 0.753103 -0.135001
vn -0.643903 0.753103 -0.135001
vn -0.243894 0.642785 0.726184
vn -0.243894 0.642785 0.726184
vn -0.243894 0.642785 0.726184
vn 0.065099 0.957587 -0.280696
vn 0.065099 0.957587 -0.280696
vn 0.065099 0.957587 -0.280696
vn 0.633695 0.736994 0.235098
vn 0.633695 0.736994 0.235098
vn 0.633695 0.736994 0.235098
vn 0.746043 0.513030 0.424524
vn 0.746043 0.513030 0.424524
vn 0.746043 0.513030 0.424524
vn 0.204511 0.415622 0.886247
vn 0.204511 0.415622 0.886247
vn 0.204511 0.415622 0.886247
vn 0.656579 0.721977 0.218293
vn 0.656579 0.721977 0.218293
vn 0.656579 0.721977 0.218293
vn -0.052198 0.515881 0.855069
vn -0.052198 0.515881 0.855069
vn -0.052198 0.515881 0.855069
vn 0.942222 0.332408 -0.041501
vn 0.942222 0.332408 -0.041501
vn 0.942222 0.332408 -0.041501
vn 0.871704 0.263901 0.412902
vn 0.871704 0.263901 0.412902
vn 0.871704 0.263901 0.412902
vn 0.984377 -0.112797 0.135197
vn 0.984377 -0.112797 0.135197
vn 0.984377 -0.112797 0.135197
vn 0.263801 0.299801 0.916803
vn 0.263801 0.299801 0.916803
vn 0.263801 0.299801 0.916803
vn 0.060297 -0.705270 0.706370
vn 0.060297 -0.705270 0.706370
vn 0.060297 -0.705270 0.706370
vn 0.482196 -0.752793 0.448096
vn 0.482196 -0.752793 0.448096
vn 0.482196 -0.752793 0.448096
vn 0.975056 -0.052798 0.215590
vn 0.975056 -0.052798 0.215590
vn 0.975056 -0.052798 0.215590
vn 0.779867 -0.510378 0.362384
vn 0.779867 -0.510378 0.362384
vn 0.779867 -0.510378 0.362384
vn 0.846834 0.333613 0.414216
vn 0.846834 0.333613 0.414216
vn 0.846834 0.333613 0.414216
vn 0.455613 -0.511114 0.728820
vn 0.455613 -0.511114 0.728820
vn 0.455613 -0.511114 0.728820
vn -0.021799 -0.998966 -0.039899
vn -0.021799 -0.998966 -0.039899
vn -0.021799 -0.998966 -0.039899
vn 0.088897 -0.995168 -0.041699
vn 0.088897 -0.995168 -0.041699
vn 0.088897 -0.995168 -0.041699
vn -0.321293 -0.546488 0.773383
vn -0.321293 -0.546488 0.773383
vn -0.321293 -0.546488 0.773383
vn -0.762930 -0.093904 0.639625
vn -0.762930 -0.093904 0.639625
vn -0.762930 -0.093904 0.639625
vn -0.762930 -0.093904 0.639625
vn -0.762930 -0.093904 0.639625
vn -0.762930 -0.093904 0.639625
vn 0.292407 -0.925322 0.241406
vn 0.292407 -0.925322 0.241406
vn 0.292407 -0.925322 0.241406
vn 0.204296 -0.941082 0.269495
vn 0.204296 -0.941082 0.269495
vn 0.204296 -0.941082 0.269495
vn -0.423001 0.153100 0.893102
vn -0.423001 0.153100 0.893102
vn -0.423001 0.153100 0.893102
vn -0.728404 0.014100 0.685003
vn -0.728404 0.014100 0.685003
vn -0.728404 0.014100 0.685003
vn -0.511378 -0.157693 0.844764
vn -0.511378 -0.157693 0.844764
vn -0.511378 -0.157693 0.844764
vn -0.406103 -0.259502 0.876207
vn -0.406103 -0.259502 0.876207
vn -0.406103 -0.259502 0.876207
vn -0.462817 -0.613223 0.640124
vn -0.462817 -0.613223 0.640124
vn -0.462817 -0.613223 0.640124
vn -0.979482 -0.097098 -0.176597
vn -0.979482 -0.097098 -0.176597
vn -0.979482 -0.097098 -0.176597
vn -0.610517 -0.654819 -0.445513
vn -0.610517 -0.654819 -0.445513
vn -0.610517 -0.654819 -0.445513
vn -0.292094 -0.812882 0.503889
vn -0.292094 -0.812882 0.503889
vn -0.292094 -0.812882 0.503889
vn -0.969849 -0.095795 -0.224088
vn -0.969849 -0.095795 -0.224088
vn -0.969849 -0.095795 -0.224088
vn -0.662783 -0.531287 -0.527687
vn -0.662783 -0.531287 -0.527687
vn -0.662783 -0.531287 -0.527687
vn -0.607995 0.493296 -0.622095
vn -0.607995 0.493296 -0.622095
vn -0.607995 0.493296 -0.622095
vn -0.770492 0.489695 -0.408096
vn -0.770492 0.489695 -0.408096
vn -0.770492 0.489695 -0.408096
vn -0.599086 -0.533688 -0.596886
vn -0.599086 -0.533688 -0.596886
vn -0.599086 -0.533688 -0.596886
vn -0.503431 0.243715 -0.828951
vn -0.503431 0.243715 -0.828951
vn -0.503431 0.243715 -0.828951
vn -0.599086 -0.533688 -0.596886
vn -0.599086 -0.533688 -0.596886
vn -0.599086 -0.533688 -0.596886
vn -0.683200 0.273200 -0.677200
vn -0.683200 0.273200 -0.677200
vn -0.683200 0.273200 -0.677200
vn -0.139706 -0.308412 -0.940938
vn -0.139706 -0.308412 -0.940938
vn -0.139706 -0.308412 -0.940938
vn -0.141999 -0.318298 -0.937295
vn -0.141999 -0.318298 -0.937295
vn -0.141999 -0.318298 -0.937295
vn 0.530718 0.430415 -0.730125
vn 0.530718 0.430415 -0.730125
vn 0.530718 0.430415 -0.730125
vn 0.461806 0.707009 -0.535607
vn 0.461806 0.707009 -0.535607
vn 0.461806 0.707009 -0.535607
vn 0.295493 0.315692 -0.901678
vn 0.295493 0.315692 -0.901678
vn 0.295493 0.315692 -0.901678
vn 0.428404 -0.854109 0.294903
vn 0.428404 -0.854109 0.294903
vn 0.428404 -0.854109 0.294903
vn -0.765898 0.521199 -0.376499
vn -0.765898 0.521199 -0.376499
vn -0.765898 0.521199 -0.376499
vn -0.189006 0.138704 0.972131
vn -0.189006 0.138704 0.972131
vn -0.189006 0.138704 0.972131
vn -0.839179 0.464489 0.282893
vn -0.839179 0.464489 0.282893
vn -0.839179 0.464489 0.282893
vn 0.092203 -0.040001 0.994936
vn 0.092203 -0.040001 0.994936
vn 0.092203 -0.040001 0.994936
vn -0.113306 0.741840 0.660935
vn -0.113306 0.741840 0.660935
vn -0.113306 0.741840 0.660935
vn 0.740018 0.445811 -0.503612
vn 0.740018 0.445811 -0.503612
vn 0.740018 0.445811 -0.503612
vn -0.647828 0.329314 0.686929
vn -0.647828 0.329314 0.686929
vn -0.647828 0.329314 0.686929
vn 0.567284 -0.719080 -0.401389
vn 0.567284 -0.719080 -0.401389
vn 0.567284 -0.719080 -0.401389
vn -0.497813 -0.031201 0.866723
vn -0.497813 -0.031201 0.866723
vn -0.497813 -0.031201 0.866723
vn -0.744504 -0.506102 0.435402
vn -0.744504 -0.506102 0.435402
vn -0.744504 -0.506102 0.435402
vn -0.189006 0.138704 0.972131
vn -0.189006 0.138704 0.972131
vn -0.189006 0.138704 0.972131
vn 0.092203 -0.040001 0.994936
vn 0.092203 -0.040001 0.994936
vn 0.092203 -0.040001 0.994936
vn -0.237795 -0.537288 0.809182
vn -0.237795 -0.537288 0.809182
vn -0.237795 -0.537288 0.809182
vn -0.744504 -0.506102 0.435402
vn -0.744504 -0.506102 0.435402
vn -0.744504 -0.506102 0.435402
s off
g rock12
usemtl standardSurface1SG
f 2/1/1 8/2/2 1/3/3
f 6/4/4 2/1/5 1/3/6
f 9/5/7 3/6/8 1/7/9
f 7/8/10 1/7/11 3/6/12
f 6/4/13 1/3/14 4/9/15
f 4/10/16 1/7/17 5/11/18
f 7/8/19 5/11/20 1/7/21
f 9/5/22 1/7/23 8/12/24
f 10/13/25 11/14/26 9/15/27
f 9/15/28 8/16/29 10/13/30
f 3/6/31 9/5/32 11/17/33
f 10/18/34 12/19/35 11/20/36
f 14/21/37 11/22/38 12/23/39
f 14/21/40 13/24/41 11/22/42
f 3/6/43 11/17/44 13/25/45
f 17/26/46 15/27/47 14/28/48
f 15/29/49 19/30/50 14/31/51
f 18/32/52 14/33/53 16/34/54
f 2/1/55 16/34/56 14/33/57
f 19/35/58 13/24/59 14/21/60
f 14/33/61 10/36/62 2/1/63
f 18/32/64 17/37/65 14/33/66
f 14/33/67 12/38/68 10/36/69
f 19/35/70 20/39/71 21/40/72
f 15/41/73 20/42/74 19/43/75
f 19/35/76 21/40/77 13/24/78
f 22/44/79 13/45/80 21/46/81
f 22/44/82 21/46/83 20/47/84
f 27/48/85 13/45/86 22/44/87
f 23/49/88 22/50/89 26/51/90
f 23/49/91 28/52/92 22/50/93
f 24/53/94 26/54/95 22/55/96
f 25/56/97 24/57/98 22/58/99
f 20/47/100 25/59/101 22/44/102
f 3/6/103 22/60/104 29/61/105
f 3/6/106 27/62/107 22/60/108
f 29/63/109 22/64/110 28/65/111
f 3/6/112 29/61/113 7/8/114
f 30/66/115 29/63/116 28/65/117
f 5/11/118 29/61/119 30/67/120
f 5/11/121 7/8/122 29/61/123
f 30/67/124 31/68/125 5/11/126
f 31/69/127 30/66/128 28/65/129
f 28/70/130 6/4/131 31/71/132
f 6/4/133 4/9/134 31/71/135
f 31/68/136 4/10/137 5/11/138
f 28/70/139 32/72/140 33/73/141
f 23/49/142 32/74/143 28/52/144
f 33/73/145 6/4/146 28/70/147
f 33/73/148 34/75/149 2/1/150
f 33/73/151 2/1/152 6/4/153
f 34/76/154 33/77/155 32/78/156
f 47/79/157 46/80/158 44/81/159
f 47/79/160 44/81/161 35/82/162
f 34/75/163 16/34/164 2/1/165
f 36/83/166 16/34/167 34/75/168
f 37/84/169 34/76/170 35/82/171
f 24/85/172 34/76/173 23/86/174
f 34/76/175 32/78/176 23/86/177
f 37/84/178 36/87/179 34/76/180
f 36/87/181 37/84/182 38/88/183
f 35/89/184 38/90/185 37/91/186
f 16/92/187 39/93/188 38/90/189
f 36/83/190 38/94/191 39/95/192
f 35/89/193 40/96/194 38/90/195
f 16/92/196 38/90/197 40/96/198
f 20/42/199 41/97/200 40/98/201
f 35/89/202 20/99/203 40/96/204
f 40/100/205 18/101/206 16/102/207
f 41/103/208 42/104/209 40/100/210
f 40/100/211 42/104/212 18/101/213
f 41/105/214 43/106/215 42/107/216
f 42/104/217 17/26/218 18/101/219
f 42/104/220 43/108/221 17/26/222
f 17/26/223 43/108/224 41/103/225
f 15/41/226 41/97/227 20/42/228
f 17/26/229 41/103/230 15/27/231
f 36/83/232 39/95/233 16/34/234
f 20/47/235 35/109/236 25/59/237
f 44/81/238 45/110/239 24/85/240
f 35/111/241 44/112/242 25/113/243
f 45/110/244 34/76/245 24/85/246
f 25/114/247 44/115/248 24/116/249
f 3/6/250 13/25/251 27/62/252
f 24/85/253 23/86/254 26/117/255
f 2/1/256 10/36/257 8/2/258
f 45/110/259 47/79/260 48/118/261
f 47/79/262 34/76/263 48/118/264
f 44/81/265 46/80/266 45/110/267
f 45/110/268 48/118/269 34/76/270
f 45/110/271 46/80/272 47/79/273
f 47/79/274 35/82/275 34/76/276
