# This file uses centimeters as units for non-parametric coordinates.

mtllib rock_29.mtl
g default
v 0.367712 -0.307071 -0.111288
v 0.425752 -0.309512 0.249154
v 0.259523 -0.308330 -0.436800
v 0.139751 -0.392998 -0.036075
v 0.260469 0.205265 -0.066229
v 0.399428 0.112538 0.113627
v 0.449660 -0.017602 0.376320
v 0.226507 0.271941 0.167259
v 0.050704 0.392998 -0.005140
v -0.282741 0.289382 -0.293555
v -0.149582 0.267523 0.303222
v -0.337638 0.240908 -0.080570
v -0.049137 0.303254 -0.333282
v -0.276082 0.285493 0.041494
v -0.382073 0.143797 -0.029824
v -0.449660 -0.050293 0.130778
v -0.320943 0.059375 0.269841
v -0.223318 -0.073211 0.431642
v -0.086663 -0.346439 0.342095
v 0.183001 -0.071635 0.592786
v -0.331246 -0.250476 0.082117
v 0.187296 -0.355023 0.492827
v 0.165013 -0.346527 0.228912
v 0.446470 -0.019441 0.478167
v -0.348411 -0.062256 -0.320252
v -0.019100 -0.373467 -0.040174
v -0.127688 -0.063101 -0.568640
v -0.073865 -0.338967 -0.527064
v -0.256322 0.037583 -0.398796
v 0.157635 -0.120904 -0.592785
v 0.107117 0.173822 -0.455470
v -0.258245 0.260720 0.236187
v 0.199561 0.176062 -0.444948
v 0.187569 0.180153 -0.467323
v 0.146496 0.200413 -0.451059
v 0.143680 0.246123 -0.423064
v 0.176478 0.250026 -0.395573
v 0.202500 0.227790 -0.390908
v 0.207578 0.185769 -0.417413
v 0.195406 0.233887 0.404493
v 0.159924 0.221561 0.434048
v 0.164501 0.181141 0.454016
v 0.208147 0.160400 0.482195
v 0.255609 0.171766 0.460685
v 0.216427 0.225226 0.398933
v -0.257499 -0.282203 -0.267974
v -0.207731 -0.333906 -0.304012
v -0.188621 -0.340485 -0.227924
v -0.197121 -0.340191 -0.216795
v -0.251300 -0.320012 -0.203376
vt 0.289223 0.298738
vt 0.127896 0.438102
vt 0.060901 0.272886
vt 0.084780 0.642182
vt 0.184575 0.494126
vt 0.188463 0.691755
vt 0.014104 0.794768
vt 0.256781 0.020843
vt 0.298539 0.183958
vt 0.247305 0.030626
vt 0.055070 0.000000
vt 0.214083 0.016153
vt 0.000000 0.116352
vt 0.281065 0.443628
vt 0.373608 0.268355
vt 0.397647 0.146401
vt 0.940593 0.591003
vt 0.979740 0.586744
vt 0.979740 0.747838
vt 0.678659 0.331540
vt 0.525086 0.482803
vt 0.485277 0.379708
vt 0.638605 0.488984
vt 0.512691 0.320524
vt 0.559113 0.185341
vt 0.693439 0.087204
vt 0.674161 0.000000
vt 0.711027 0.069420
vt 0.714844 0.113231
vt 0.453601 0.350539
vt 0.397647 0.262427
vt 0.510161 0.223680
vt 0.461660 0.195947
vt 0.489104 0.101998
vt 0.485822 0.926791
vt 0.502107 0.884846
vt 0.564653 1.000000
vt 0.385050 0.418122
vt 0.299885 0.487725
vt 0.614408 0.861018
vt 0.712099 0.959687
vt 0.845504 0.000000
vt 0.983522 0.034447
vt 0.955077 0.109832
vt 0.812635 0.128377
vt 0.268496 0.589351
vt 0.348549 0.487725
vt 1.000000 0.269941
vt 0.823644 0.269941
vt 0.394160 0.634407
vt 0.744978 0.225570
vt 0.394160 0.811003
vt 0.242843 0.747308
vt 0.530920 0.660695
vt 0.678621 0.669591
vt 0.645126 0.689180
vt 0.270249 0.884769
vt 0.246601 0.870947
vt 0.712099 0.548274
vt 0.435906 0.787446
vt 0.397647 0.640881
vt 0.712099 0.692202
vt 0.739386 0.525685
vt 0.763655 0.658121
vt 0.842641 0.730239
vt 0.582928 0.516370
vt 0.239919 0.872023
vt 0.100157 0.939637
vt 0.853633 0.516370
vt 0.000000 0.886960
vt 0.864160 0.844021
vt 0.223508 0.027486
vt 0.954184 0.550531
vt 0.743601 0.501438
vt 0.405260 0.751339
vt 0.743601 0.353888
vt 0.781472 0.269941
vt 0.781472 0.425052
vt 0.224768 0.001499
vt 0.211839 0.003983
vt 0.958609 0.576373
vt 0.728995 0.516370
vt 0.757984 0.458940
vt 0.750041 0.448167
vt 0.757984 0.425052
vt 0.743601 0.437399
vt 0.250439 0.004937
vt 0.724298 0.113993
vt 0.735436 0.077805
vt 0.743601 0.228659
vt 0.695656 0.100174
vt 0.397647 0.375997
vt 0.743601 0.199570
vt 0.754692 0.499694
vt 0.748558 0.491763
vt 0.754692 0.458940
vt 0.743601 0.469021
vt 0.683741 0.709779
vt 0.685855 0.703502
vt 0.662543 0.721436
vt 0.221323 0.905671
vn 0.987239 0.010552 -0.158899
vn 0.987239 0.010552 -0.158899
vn 0.987239 0.010552 -0.158899
vn 0.334611 -0.940431 -0.060202
vn 0.334611 -0.940431 -0.060202
vn 0.334611 -0.940431 -0.060202
vn 0.320899 -0.941496 -0.103000
vn 0.320899 -0.941496 -0.103000
vn 0.320899 -0.941496 -0.103000
vn 0.654977 0.752874 -0.064698
vn 0.654977 0.752874 -0.064698
vn 0.654977 0.752874 -0.064698
vn 0.884459 0.101795 -0.455379
vn 0.884459 0.101795 -0.455379
vn 0.884459 0.101795 -0.455379
vn 0.823497 0.218399 -0.523598
vn 0.823497 0.218399 -0.523598
vn 0.823497 0.218399 -0.523598
vn 0.982302 0.001100 -0.187300
vn 0.982302 0.001100 -0.187300
vn 0.982302 0.001100 -0.187300
vn 0.697002 0.686602 0.206801
vn 0.697002 0.686602 0.206801
vn 0.697002 0.686602 0.206801
vn 0.648497 0.749097 -0.135299
vn 0.648497 0.749097 -0.135299
vn 0.648497 0.749097 -0.135299
vn 0.645179 0.756275 -0.108596
vn 0.645179 0.756275 -0.108596
vn 0.645179 0.756275 -0.108596
vn -0.164204 0.393310 -0.904624
vn -0.164204 0.393310 -0.904624
vn -0.164204 0.393310 -0.904624
vn 0.654977 0.752874 -0.064698
vn 0.654977 0.752874 -0.064698
vn 0.654977 0.752874 -0.064698
vn -0.381008 0.917920 0.110702
vn -0.381008 0.917920 0.110702
vn -0.381008 0.917920 0.110702
vn -0.097403 0.967126 -0.234906
vn -0.097403 0.967126 -0.234906
vn -0.097403 0.967126 -0.234906
vn -0.280318 0.938859 0.199913
vn -0.280318 0.938859 0.199913
vn -0.280318 0.938859 0.199913
vn -0.333410 0.434813 0.836526
vn -0.333410 0.434813 0.836526
vn -0.333410 0.434813 0.836526
vn -0.017099 0.929953 0.367281
vn -0.017099 0.929953 0.367281
vn -0.017099 0.929953 0.367281
vn -0.329901 0.928103 -0.172600
vn -0.329901 0.928103 -0.172600
vn -0.329901 0.928103 -0.172600
vn -0.831497 0.496198 0.249799
vn -0.831497 0.496198 0.249799
vn -0.831497 0.496198 0.249799
vn -0.831379 0.503387 0.235394
vn -0.831379 0.503387 0.235394
vn -0.831379 0.503387 0.235394
vn -0.514986 0.294892 0.804878
vn -0.514986 0.294892 0.804878
vn -0.514986 0.294892 0.804878
vn -0.795282 0.501589 0.340492
vn -0.795282 0.501589 0.340492
vn -0.795282 0.501589 0.340492
vn -0.609927 0.391617 0.688930
vn -0.609927 0.391617 0.688930
vn -0.609927 0.391617 0.688930
vn -0.146503 0.979523 0.138103
vn -0.146503 0.979523 0.138103
vn -0.146503 0.979523 0.138103
vn -0.783429 0.157006 0.601322
vn -0.783429 0.157006 0.601322
vn -0.783429 0.157006 0.601322
vn 0.689294 0.703794 0.171898
vn 0.689294 0.703794 0.171898
vn 0.689294 0.703794 0.171898
vn -0.333410 0.434813 0.836526
vn -0.333410 0.434813 0.836526
vn -0.333410 0.434813 0.836526
vn -0.711498 -0.513198 0.479998
vn -0.711498 -0.513198 0.479998
vn -0.711498 -0.513198 0.479998
vn -0.436791 -0.469890 0.767084
vn -0.436791 -0.469890 0.767084
vn -0.436791 -0.469890 0.767084
vn -0.348693 -0.316494 0.882182
vn -0.348693 -0.316494 0.882182
vn -0.348693 -0.316494 0.882182
vn -0.696688 -0.529691 0.483791
vn -0.696688 -0.529691 0.483791
vn -0.696688 -0.529691 0.483791
vn 0.143804 -0.988627 -0.044001
vn 0.143804 -0.988627 -0.044001
vn 0.143804 -0.988627 -0.044001
vn 0.666878 -0.490484 0.560981
vn 0.666878 -0.490484 0.560981
vn 0.666878 -0.490484 0.560981
vn -0.014300 -0.999417 -0.031001
vn -0.014300 -0.999417 -0.031001
vn -0.014300 -0.999417 -0.031001
vn 0.429686 -0.294591 0.853573
vn 0.429686 -0.294591 0.853573
vn 0.429686 -0.294591 0.853573
vn 0.995107 -0.094301 0.029500
vn 0.995107 -0.094301 0.029500
vn 0.995107 -0.094301 0.029500
vn -0.307801 0.393201 0.866402
vn -0.307801 0.393201 0.866402
vn -0.307801 0.393201 0.866402
vn 0.778915 0.626112 0.035701
vn 0.778915 0.626112 0.035701
vn 0.778915 0.626112 0.035701
vn 0.303711 0.382914 0.872432
vn 0.303711 0.382914 0.872432
vn 0.303711 0.382914 0.872432
vn 0.074003 -0.983445 0.165408
vn 0.074003 -0.983445 0.165408
vn 0.074003 -0.983445 0.165408
vn 0.126604 -0.979029 0.159605
vn 0.126604 -0.979029 0.159605
vn 0.126604 -0.979029 0.159605
vn -0.366212 -0.930531 0.001100
vn -0.366212 -0.930531 0.001100
vn -0.366212 -0.930531 0.001100
vn -0.778215 -0.430408 -0.457309
vn -0.778215 -0.430408 -0.457309
vn -0.778215 -0.430408 -0.457309
vn -0.314800 -0.938701 0.140500
vn -0.314800 -0.938701 0.140500
vn -0.314800 -0.938701 0.140500
vn -0.865098 -0.467499 -0.181800
vn -0.865098 -0.467499 -0.181800
vn -0.865098 -0.467499 -0.181800
vn -0.778215 -0.430408 -0.457309
vn -0.778215 -0.430408 -0.457309
vn -0.778215 -0.430408 -0.457309
vn -0.123102 -0.991218 0.048301
vn -0.123102 -0.991218 0.048301
vn -0.123102 -0.991218 0.048301
vn -0.948467 0.195993 -0.248991
vn -0.948467 0.195993 -0.248991
vn -0.948467 0.195993 -0.248991
vn -0.747318 0.188004 -0.637315
vn -0.747318 0.188004 -0.637315
vn -0.747318 0.188004 -0.637315
vn -0.737079 0.164095 -0.655581
vn -0.737079 0.164095 -0.655581
vn -0.737079 0.164095 -0.655581
vn -0.726283 -0.238794 -0.644585
vn -0.726283 -0.238794 -0.644585
vn -0.726283 -0.238794 -0.644585
vn -0.127006 -0.990447 -0.053703
vn -0.127006 -0.990447 -0.053703
vn -0.127006 -0.990447 -0.053703
vn -0.963325 0.153204 -0.220306
vn -0.963325 0.153204 -0.220306
vn -0.963325 0.153204 -0.220306
vn -0.177104 0.363709 -0.914522
vn -0.177104 0.363709 -0.914522
vn -0.177104 0.363709 -0.914522
vn -0.480986 0.544585 -0.687081
vn -0.480986 0.544585 -0.687081
vn -0.480986 0.544585 -0.687081
vn 0.134696 -0.976867 -0.166094
vn 0.134696 -0.976867 -0.166094
vn 0.134696 -0.976867 -0.166094
vn 0.266906 -0.526612 -0.807119
vn 0.266906 -0.526612 -0.807119
vn 0.266906 -0.526612 -0.807119
vn -0.120099 -0.990592 -0.065599
vn -0.120099 -0.990592 -0.065599
vn -0.120099 -0.990592 -0.065599
vn -0.117298 -0.170298 -0.978386
vn -0.117298 -0.170298 -0.978386
vn -0.117298 -0.170298 -0.978386
vn 0.942928 0.111403 -0.313809
vn 0.942928 0.111403 -0.313809
vn 0.942928 0.111403 -0.313809
vn 0.009200 0.423601 -0.905802
vn 0.009200 0.423601 -0.905802
vn 0.009200 0.423601 -0.905802
vn -0.241398 0.495997 -0.834095
vn -0.241398 0.495997 -0.834095
vn -0.241398 0.495997 -0.834095
vn -0.172196 0.558287 -0.811581
vn -0.172196 0.558287 -0.811581
vn -0.172196 0.558287 -0.811581
vn 0.139601 0.943509 -0.300503
vn 0.139601 0.943509 -0.300503
vn 0.139601 0.943509 -0.300503
vn -0.926601 0.339600 -0.161500
vn -0.926601 0.339600 -0.161500
vn -0.926601 0.339600 -0.161500
vn -0.940969 0.314090 0.126196
vn -0.940969 0.314090 0.126196
vn -0.940969 0.314090 0.126196
vn 0.506397 0.502998 -0.700396
vn 0.506397 0.502998 -0.700396
vn 0.506397 0.502998 -0.700396
vn 0.963764 0.215592 -0.157094
vn 0.963764 0.215592 -0.157094
vn 0.963764 0.215592 -0.157094
vn 0.884459 0.101795 -0.455379
vn 0.884459 0.101795 -0.455379
vn 0.884459 0.101795 -0.455379
vn -0.164204 0.393310 -0.904624
vn -0.164204 0.393310 -0.904624
vn -0.164204 0.393310 -0.904624
vn 0.942928 0.111403 -0.313809
vn 0.942928 0.111403 -0.313809
vn 0.942928 0.111403 -0.313809
vn -0.241398 0.495997 -0.834095
vn -0.241398 0.495997 -0.834095
vn -0.241398 0.495997 -0.834095
vn 0.139601 0.943509 -0.300503
vn 0.139601 0.943509 -0.300503
vn 0.139601 0.943509 -0.300503
vn 0.419184 0.811069 -0.407985
vn 0.419184 0.811069 -0.407985
vn 0.419184 0.811069 -0.407985
vn 0.422103 0.904507 -0.060800
vn 0.422103 0.904507 -0.060800
vn 0.422103 0.904507 -0.060800
vn 0.535618 0.464816 -0.705024
vn 0.535618 0.464816 -0.705024
vn 0.535618 0.464816 -0.705024
vn 0.528728 0.470525 -0.706437
vn 0.528728 0.470525 -0.706437
vn 0.528728 0.470525 -0.706437
vn 0.963785 0.215497 -0.157098
vn 0.963785 0.215497 -0.157098
vn 0.963785 0.215497 -0.157098
vn 0.031701 0.765527 0.642623
vn 0.031701 0.765527 0.642623
vn 0.031701 0.765527 0.642623
vn 0.417607 0.887014 0.197003
vn 0.417607 0.887014 0.197003
vn 0.417607 0.887014 0.197003
vn -0.017099 0.929953 0.367281
vn -0.017099 0.929953 0.367281
vn -0.017099 0.929953 0.367281
vn 0.689294 0.703794 0.171898
vn 0.689294 0.703794 0.171898
vn 0.689294 0.703794 0.171898
vn -0.307801 0.393201 0.866402
vn -0.307801 0.393201 0.866402
vn -0.307801 0.393201 0.866402
vn 0.303711 0.382914 0.872432
vn 0.303711 0.382914 0.872432
vn 0.303711 0.382914 0.872432
vn 0.405491 0.488089 0.772882
vn 0.405491 0.488089 0.772882
vn 0.405491 0.488089 0.772882
vn 0.484425 0.430922 0.761340
vn 0.484425 0.430922 0.761340
vn 0.484425 0.430922 0.761340
vn 0.046301 0.837412 0.544608
vn 0.046301 0.837412 0.544608
vn 0.046301 0.837412 0.544608
vn 0.417607 0.887014 0.197003
vn 0.417607 0.887014 0.197003
vn 0.417607 0.887014 0.197003
vn -0.480692 -0.805787 -0.345894
vn -0.480692 -0.805787 -0.345894
vn -0.480692 -0.805787 -0.345894
vn -0.900002 -0.408301 -0.152600
vn -0.900002 -0.408301 -0.152600
vn -0.900002 -0.408301 -0.152600
vn -0.314800 -0.938701 0.140500
vn -0.314800 -0.938701 0.140500
vn -0.314800 -0.938701 0.140500
vn -0.127006 -0.990447 -0.053703
vn -0.127006 -0.990447 -0.053703
vn -0.127006 -0.990447 -0.053703
vn -0.120099 -0.990592 -0.065599
vn -0.120099 -0.990592 -0.065599
vn -0.120099 -0.990592 -0.065599
vn -0.406788 -0.804876 -0.432087
vn -0.406788 -0.804876 -0.432087
vn -0.406788 -0.804876 -0.432087
vn -0.677830 -0.727332 0.107405
vn -0.677830 -0.727332 0.107405
vn -0.677830 -0.727332 0.107405
vn -0.900002 -0.408301 -0.152600
vn -0.900002 -0.408301 -0.152600
vn -0.900002 -0.408301 -0.152600
s off
g rock28
usemtl standardSurface1SG
f 6/1/1 2/2/2 1/3/3
f 1/4/4 2/5/5 4/6/6
f 1/4/7 4/6/8 3/7/9
f 37/8/10 5/9/11 38/10/12
f 30/11/13 33/12/14 3/13/15
f 6/1/16 1/3/17 5/9/18
f 6/1/19 7/14/20 2/2/21
f 7/14/22 6/1/23 8/15/24
f 9/16/25 8/15/26 6/1/27
f 6/1/28 5/9/29 9/16/30
f 31/17/31 34/18/32 30/19/33
f 37/8/34 9/16/35 5/9/36
f 9/20/37 10/21/38 12/22/39
f 13/23/40 10/21/41 9/20/42
f 14/24/43 11/25/44 9/20/45
f 42/26/46 20/27/47 43/28/48
f 11/25/49 40/29/50 9/20/51
f 9/20/52 12/22/53 14/24/54
f 15/30/55 16/31/56 14/24/57
f 14/24/58 12/22/59 15/30/60
f 11/25/61 32/32/62 17/33/63
f 16/31/64 17/33/65 14/24/66
f 17/33/67 18/34/68 11/25/69
f 32/32/70 11/25/71 14/24/72
f 17/35/73 16/36/74 18/37/75
f 8/15/76 44/38/77 24/39/78
f 42/26/79 18/34/80 20/27/81
f 18/37/82 21/40/83 19/41/84
f 18/42/85 19/43/86 22/44/87
f 18/42/88 22/44/89 20/45/90
f 18/37/91 16/36/92 21/40/93
f 23/46/94 2/5/95 22/47/96
f 22/44/97 2/48/98 24/49/99
f 19/50/100 23/46/101 22/47/102
f 22/44/103 24/49/104 20/45/105
f 7/14/106 24/39/107 2/2/108
f 42/26/109 11/25/110 18/34/111
f 8/15/112 24/39/113 7/14/114
f 44/51/115 20/45/116 24/49/117
f 19/50/118 4/6/119 23/46/120
f 23/46/121 4/6/122 2/5/123
f 19/50/124 21/52/125 26/53/126
f 25/54/127 47/55/128 46/56/129
f 26/53/130 50/57/131 49/58/132
f 21/40/133 16/36/134 25/54/135
f 25/54/136 28/59/137 47/55/138
f 19/50/139 26/53/140 4/6/141
f 15/60/142 10/61/143 25/54/144
f 25/62/145 10/63/146 29/64/147
f 25/62/148 29/64/149 27/65/150
f 25/54/151 27/66/152 28/59/153
f 48/67/154 28/68/155 4/6/156
f 15/60/157 25/54/158 16/36/159
f 10/63/160 13/69/161 29/64/162
f 27/65/163 29/64/164 13/69/165
f 4/6/166 28/68/167 3/7/168
f 28/68/169 30/70/170 3/7/171
f 26/53/172 48/67/173 4/6/174
f 28/71/175 27/65/176 30/19/177
f 3/13/178 39/72/179 1/3/180
f 27/65/181 31/17/182 30/19/183
f 36/73/184 31/17/185 13/69/186
f 27/65/187 13/69/188 31/17/189
f 37/74/190 13/23/191 9/20/192
f 15/60/193 12/75/194 10/61/195
f 32/76/196 14/77/197 17/78/198
f 38/10/199 39/72/200 35/79/201
f 39/72/202 5/9/203 1/3/204
f 30/11/205 34/80/206 33/12/207
f 31/17/208 35/81/209 34/18/210
f 3/13/211 33/12/212 39/72/213
f 36/73/214 35/81/215 31/17/216
f 37/74/217 36/82/218 13/23/219
f 39/83/220 33/84/221 35/85/222
f 33/84/223 34/86/224 35/85/225
f 35/79/226 36/87/227 37/8/228
f 38/10/229 35/79/230 37/8/231
f 39/72/232 38/10/233 5/9/234
f 45/88/235 42/26/236 44/89/237
f 40/29/238 8/90/239 9/20/240
f 11/25/241 41/91/242 40/29/243
f 8/15/244 45/92/245 44/38/246
f 42/26/247 41/91/248 11/25/249
f 44/51/250 43/93/251 20/45/252
f 45/94/253 40/95/254 42/96/255
f 40/95/256 41/97/257 42/96/258
f 42/26/259 43/28/260 44/89/261
f 40/29/262 45/88/263 8/90/264
f 49/98/265 46/56/266 48/99/267
f 25/54/268 50/100/269 21/40/270
f 26/53/271 21/52/272 50/57/273
f 48/67/274 47/101/275 28/68/276
f 26/53/277 49/58/278 48/67/279
f 50/100/280 46/56/281 49/98/282
f 46/56/283 47/55/284 48/99/285
f 25/54/286 46/56/287 50/100/288
