# This file uses centimeters as units for non-parametric coordinates.

mtllib rock_2.mtl
g default
v -0.177080 -0.517012 0.008557
v -0.436544 -0.342146 0.529584
v 0.623830 -0.332059 -0.265110
v -0.646770 -0.403672 0.135883
v -0.236505 -0.427875 -0.463492
v -0.443685 -0.467658 -0.081722
v 0.339056 -0.358541 -0.575197
v 0.019061 -0.195894 -0.626021
v 0.295184 0.308587 -0.403829
v 0.725895 0.100833 -0.020845
v -0.238545 -0.031995 -0.725672
v -0.047587 0.517012 0.012968
v 0.469268 0.335274 -0.051210
v 0.375207 0.438895 0.157588
v 0.430839 0.289385 0.471284
v 0.638988 0.077393 0.550105
v 0.099273 0.264594 0.725672
v -0.470276 0.449456 0.316975
v -0.725895 -0.101509 0.022414
v -0.676271 -0.106599 -0.348998
v -0.518485 -0.426883 -0.391402
v -0.346775 -0.372190 -0.548774
v 0.535294 -0.159037 0.459471
v -0.158710 -0.023912 0.641903
v -0.555246 0.229221 0.366056
v -0.560268 -0.221362 0.252963
v -0.445822 0.014082 0.459538
v -0.535817 0.111079 0.392206
v -0.533377 -0.051042 0.362940
v -0.502059 -0.059753 0.438504
v 0.417195 -0.417735 0.395595
v 0.487431 -0.401184 0.366452
v 0.496732 -0.361046 0.390008
v 0.489472 -0.343188 0.439258
v 0.442308 -0.355010 0.459637
v 0.417732 -0.374594 0.450535
v 0.406262 -0.403494 0.439282
v -0.225412 0.294295 -0.609029
v -0.276571 0.315712 -0.553107
v -0.268194 0.329811 -0.525809
v -0.269208 0.408356 -0.480273
v -0.199217 0.392085 -0.502576
v -0.143529 0.363300 -0.553923
v -0.498823 0.101458 -0.283278
vt 0.150650 0.298123
vt 0.100653 0.513408
vt 0.000000 0.379641
vt 0.971768 0.147278
vt 0.898415 0.168018
vt 0.808651 0.000000
vt 0.676882 0.996380
vt 0.577038 0.840876
vt 0.683572 0.985476
vt 0.283607 0.006796
vt 0.403496 0.103782
vt 0.053163 0.280779
vt 0.095668 0.107023
vt 0.170870 0.000000
vt 0.693240 0.740304
vt 0.758814 0.614275
vt 0.933192 0.761948
vt 0.712211 0.907923
vt 0.960329 0.898276
vt 0.871841 0.996882
vt 0.768680 0.497192
vt 0.635961 0.372652
vt 0.782394 0.470492
vt 0.818417 0.500729
vt 0.018103 0.642712
vt 0.083911 0.513408
vt 0.231674 0.657535
vt 0.700849 0.157945
vt 0.796916 0.258932
vt 0.507009 0.000000
vt 0.704681 0.028237
vt 0.628268 0.184717
vt 0.522887 0.113349
vt 0.403496 0.212645
vt 0.971702 0.183046
vt 1.000000 0.453747
vt 0.832096 0.388884
vt 0.803454 0.157200
vt 0.477631 0.953931
vt 0.482737 0.643653
vt 0.963107 0.163541
vt 0.488430 0.497192
vt 0.579310 0.645572
vt 0.524464 0.654546
vt 0.148369 0.713139
vt 0.015663 0.655160
vt 0.000000 0.686526
vt 0.280495 0.799215
vt 0.693240 0.546289
vt 0.633994 0.607052
vt 0.584936 0.497192
vt 0.325962 0.891098
vt 0.358196 1.000000
vt 0.280495 1.000000
vt 0.363109 0.513408
vt 0.363109 0.680511
vt 0.280495 0.629663
vt 0.280495 0.768928
vt 0.326289 0.680511
vt 0.326289 0.891098
vt 0.214753 0.521754
vt 0.280495 0.577253
vt 0.960329 0.571977
vt 0.051829 0.077650
vt 0.004883 0.160032
vt 0.721357 0.497192
vt 0.381197 0.410008
vt 0.196200 0.981313
vt 0.115626 0.999796
vt 0.693240 0.978365
vt 0.685783 0.713679
vt 0.403496 0.664599
vt 0.559744 0.699767
vt 0.585085 0.674268
vt 0.982061 0.145964
vt 0.381702 0.392854
vt 0.403496 0.373728
vt 0.987323 0.189432
vt 0.993511 0.147565
vt 1.000000 0.165692
vt 0.372046 0.557671
vt 0.395901 0.522957
vt 0.395901 0.560410
vt 0.007525 0.615930
vt 0.936639 0.530662
vt 0.363109 0.513408
vt 0.403496 0.551082
vt 0.397638 0.520272
vt 0.403496 0.513408
vt 0.374586 0.560410
vt 0.383209 0.595980
vt 0.363109 0.595980
vt 0.803454 0.450905
vn -0.166288 -0.956844 0.238325
vn -0.166288 -0.956844 0.238325
vn -0.166288 -0.956844 0.238325
vn 0.379802 -0.179401 0.907505
vn 0.379802 -0.179401 0.907505
vn 0.379802 -0.179401 0.907505
vn 0.025001 -0.446914 0.894228
vn 0.025001 -0.446914 0.894228
vn 0.025001 -0.446914 0.894228
vn 0.193398 -0.976588 -0.094199
vn 0.193398 -0.976588 -0.094199
vn 0.193398 -0.976588 -0.094199
vn -0.210589 -0.973451 0.089695
vn -0.210589 -0.973451 0.089695
vn -0.210589 -0.973451 0.089695
vn -0.123799 -0.977793 -0.169099
vn -0.123799 -0.977793 -0.169099
vn -0.123799 -0.977793 -0.169099
vn 0.080000 -0.977595 -0.194699
vn 0.080000 -0.977595 -0.194699
vn 0.080000 -0.977595 -0.194699
vn -0.109598 -0.486491 -0.866784
vn -0.109598 -0.486491 -0.866784
vn -0.109598 -0.486491 -0.866784
vn 0.277306 0.256105 -0.926019
vn 0.277306 0.256105 -0.926019
vn 0.277306 0.256105 -0.926019
vn 0.709295 0.218798 -0.670095
vn 0.709295 0.218798 -0.670095
vn 0.709295 0.218798 -0.670095
vn 0.649907 0.663307 -0.371004
vn 0.649907 0.663307 -0.371004
vn 0.649907 0.663307 -0.371004
vn 0.704837 0.215211 -0.675936
vn 0.704837 0.215211 -0.675936
vn 0.704837 0.215211 -0.675936
vn 0.135297 0.953082 -0.270795
vn 0.135297 0.953082 -0.270795
vn 0.135297 0.953082 -0.270795
vn 0.438409 0.150303 -0.886119
vn 0.438409 0.150303 -0.886119
vn 0.438409 0.150303 -0.886119
vn -0.653306 0.278002 -0.704206
vn -0.653306 0.278002 -0.704206
vn -0.653306 0.278002 -0.704206
vn 0.299503 0.928809 -0.218202
vn 0.299503 0.928809 -0.218202
vn 0.299503 0.928809 -0.218202
vn 0.660198 0.739597 0.130900
vn 0.660198 0.739597 0.130900
vn 0.660198 0.739597 0.130900
vn 0.835234 0.539022 0.108804
vn 0.835234 0.539022 0.108804
vn 0.835234 0.539022 0.108804
vn 0.277790 0.904466 -0.323688
vn 0.277790 0.904466 -0.323688
vn 0.277790 0.904466 -0.323688
vn 0.687472 0.717271 0.113595
vn 0.687472 0.717271 0.113595
vn 0.687472 0.717271 0.113595
vn 0.429412 0.653418 0.623418
vn 0.429412 0.653418 0.623418
vn 0.429412 0.653418 0.623418
vn 0.934327 -0.314709 0.167305
vn 0.934327 -0.314709 0.167305
vn 0.934327 -0.314709 0.167305
vn 0.150097 -0.410591 0.899381
vn 0.150097 -0.410591 0.899381
vn 0.150097 -0.410591 0.899381
vn -0.481082 0.181093 0.857768
vn -0.481082 0.181093 0.857768
vn -0.481082 0.181093 0.857768
vn 0.430903 -0.203702 0.879107
vn 0.430903 -0.203702 0.879107
vn 0.430903 -0.203702 0.879107
vn 0.078100 0.944700 0.318500
vn 0.078100 0.944700 0.318500
vn 0.078100 0.944700 0.318500
vn 0.159902 0.940409 0.300103
vn 0.159902 0.940409 0.300103
vn 0.159902 0.940409 0.300103
vn -0.934571 -0.076798 0.347389
vn -0.934571 -0.076798 0.347389
vn -0.934571 -0.076798 0.347389
vn -0.744689 0.661990 -0.084899
vn -0.744689 0.661990 -0.084899
vn -0.744689 0.661990 -0.084899
vn -0.842912 0.398606 -0.361405
vn -0.842912 0.398606 -0.361405
vn -0.842912 0.398606 -0.361405
vn -0.232506 0.966524 -0.108503
vn -0.232506 0.966524 -0.108503
vn -0.232506 0.966524 -0.108503
vn -0.810152 0.008000 0.586165
vn -0.810152 0.008000 0.586165
vn -0.810152 0.008000 0.586165
vn -0.725717 -0.400210 -0.559613
vn -0.725717 -0.400210 -0.559613
vn -0.725717 -0.400210 -0.559613
vn -0.801603 -0.589602 -0.099000
vn -0.801603 -0.589602 -0.099000
vn -0.801603 -0.589602 -0.099000
vn -0.878417 -0.452909 0.152503
vn -0.878417 -0.452909 0.152503
vn -0.878417 -0.452909 0.152503
vn -0.624103 -0.207801 -0.753203
vn -0.624103 -0.207801 -0.753203
vn -0.624103 -0.207801 -0.753203
vn 0.342099 0.304099 -0.889096
vn 0.342099 0.304099 -0.889096
vn 0.342099 0.304099 -0.889096
vn -0.619823 -0.197707 -0.759428
vn -0.619823 -0.197707 -0.759428
vn -0.619823 -0.197707 -0.759428
vn 0.187504 -0.693715 -0.695415
vn 0.187504 -0.693715 -0.695415
vn 0.187504 -0.693715 -0.695415
vn -0.114404 -0.893029 -0.435214
vn -0.114404 -0.893029 -0.435214
vn -0.114404 -0.893029 -0.435214
vn 0.040999 -0.471189 -0.881079
vn 0.040999 -0.471189 -0.881079
vn 0.040999 -0.471189 -0.881079
vn -0.034700 -0.991899 -0.122200
vn -0.034700 -0.991899 -0.122200
vn -0.034700 -0.991899 -0.122200
vn 0.020899 0.903970 0.427086
vn 0.020899 0.903970 0.427086
vn 0.020899 0.903970 0.427086
vn -0.037100 -0.952807 0.301302
vn -0.037100 -0.952807 0.301302
vn -0.037100 -0.952807 0.301302
vn -0.921458 0.376683 0.094996
vn -0.921458 0.376683 0.094996
vn -0.921458 0.376683 0.094996
vn -0.934571 -0.076798 0.347389
vn -0.934571 -0.076798 0.347389
vn -0.934571 -0.076798 0.347389
vn 0.891996 -0.436398 0.117899
vn 0.891996 -0.436398 0.117899
vn 0.891996 -0.436398 0.117899
vn 0.070398 -0.386088 0.919772
vn 0.070398 -0.386088 0.919772
vn 0.070398 -0.386088 0.919772
vn -0.464197 0.359498 0.809495
vn -0.464197 0.359498 0.809495
vn -0.464197 0.359498 0.809495
vn 0.937627 -0.258808 0.232107
vn 0.937627 -0.258808 0.232107
vn 0.937627 -0.258808 0.232107
vn -0.523882 0.101096 0.845770
vn -0.523882 0.101096 0.845770
vn -0.523882 0.101096 0.845770
vn -0.882988 0.129098 0.451294
vn -0.882988 0.129098 0.451294
vn -0.882988 0.129098 0.451294
vn -0.835418 -0.125003 0.535212
vn -0.835418 -0.125003 0.535212
vn -0.835418 -0.125003 0.535212
vn -0.515469 0.152391 0.843249
vn -0.515469 0.152391 0.843249
vn -0.515469 0.152391 0.843249
vn -0.784498 0.488899 0.381499
vn -0.784498 0.488899 0.381499
vn -0.784498 0.488899 0.381499
vn -0.923475 -0.094297 0.371890
vn -0.923475 -0.094297 0.371890
vn -0.923475 -0.094297 0.371890
vn -0.523882 0.101096 0.845770
vn -0.523882 0.101096 0.845770
vn -0.523882 0.101096 0.845770
vn -0.515469 0.152391 0.843249
vn -0.515469 0.152391 0.843249
vn -0.515469 0.152391 0.843249
vn -0.685093 -0.139399 0.714993
vn -0.685093 -0.139399 0.714993
vn -0.685093 -0.139399 0.714993
vn -0.923475 -0.094297 0.371890
vn -0.923475 -0.094297 0.371890
vn -0.923475 -0.094297 0.371890
vn 0.461105 -0.777409 0.427805
vn 0.461105 -0.777409 0.427805
vn 0.461105 -0.777409 0.427805
vn 0.204107 -0.976932 -0.062802
vn 0.204107 -0.976932 -0.062802
vn 0.204107 -0.976932 -0.062802
vn 0.089500 -0.350700 0.932201
vn 0.089500 -0.350700 0.932201
vn 0.089500 -0.350700 0.932201
vn 0.934327 -0.314709 0.167305
vn 0.934327 -0.314709 0.167305
vn 0.934327 -0.314709 0.167305
vn -0.037100 -0.952807 0.301302
vn -0.037100 -0.952807 0.301302
vn -0.037100 -0.952807 0.301302
vn 0.070398 -0.386088 0.919772
vn 0.070398 -0.386088 0.919772
vn 0.070398 -0.386088 0.919772
vn 0.937627 -0.258808 0.232107
vn 0.937627 -0.258808 0.232107
vn 0.937627 -0.258808 0.232107
vn 0.813894 -0.460797 0.353897
vn 0.813894 -0.460797 0.353897
vn 0.813894 -0.460797 0.353897
vn 0.428588 -0.529086 0.732380
vn 0.428588 -0.529086 0.732380
vn 0.428588 -0.529086 0.732380
vn 0.518086 -0.675182 0.525086
vn 0.518086 -0.675182 0.525086
vn 0.518086 -0.675182 0.525086
vn 0.371510 -0.853924 0.364410
vn 0.371510 -0.853924 0.364410
vn 0.371510 -0.853924 0.364410
vn 0.204107 -0.976932 -0.062802
vn 0.204107 -0.976932 -0.062802
vn 0.204107 -0.976932 -0.062802
vn -0.327794 0.626788 -0.706886
vn -0.327794 0.626788 -0.706886
vn -0.327794 0.626788 -0.706886
vn 0.215302 0.932710 -0.289303
vn 0.215302 0.932710 -0.289303
vn 0.215302 0.932710 -0.289303
vn -0.653306 0.278002 -0.704206
vn -0.653306 0.278002 -0.704206
vn -0.653306 0.278002 -0.704206
vn -0.747674 0.655077 -0.108896
vn -0.747674 0.655077 -0.108896
vn -0.747674 0.655077 -0.108896
vn -0.827698 0.509599 -0.234999
vn -0.827698 0.509599 -0.234999
vn -0.827698 0.509599 -0.234999
vn 0.342099 0.304099 -0.889096
vn 0.342099 0.304099 -0.889096
vn 0.342099 0.304099 -0.889096
vn -0.328510 0.795923 -0.508515
vn -0.328510 0.795923 -0.508515
vn -0.328510 0.795923 -0.508515
vn -0.097896 0.896167 -0.432784
vn -0.097896 0.896167 -0.432784
vn -0.097896 0.896167 -0.432784
vn -0.157702 0.493706 -0.855210
vn -0.157702 0.493706 -0.855210
vn -0.157702 0.493706 -0.855210
vn 0.215302 0.932710 -0.289303
vn 0.215302 0.932710 -0.289303
vn 0.215302 0.932710 -0.289303
vn -0.739337 0.664633 -0.107905
vn -0.739337 0.664633 -0.107905
vn -0.739337 0.664633 -0.107905
vn -0.813918 0.283506 -0.507111
vn -0.813918 0.283506 -0.507111
vn -0.813918 0.283506 -0.507111
s off
g rock1
usemtl standardSurface1SG
f 1/1/1 2/2/2 4/3/3
f 35/4/4 23/5/5 17/6/6
f 35/7/7 24/8/8 36/9/9
f 1/1/10 7/10/11 3/11/12
f 1/1/13 4/3/14 6/12/15
f 5/13/16 1/1/17 6/12/18
f 1/1/19 5/13/20 7/10/21
f 7/10/22 5/13/23 8/14/24
f 7/15/25 8/16/26 9/17/27
f 7/15/28 9/17/29 3/18/30
f 9/17/31 13/19/32 10/20/33
f 9/17/34 10/20/35 3/18/36
f 41/21/37 12/22/38 42/23/39
f 11/24/40 9/17/41 8/16/42
f 39/25/43 11/26/44 20/27/45
f 13/28/46 9/29/47 12/22/48
f 16/30/49 10/31/50 13/28/51
f 13/28/52 14/32/53 15/33/54
f 13/28/55 12/22/56 14/32/57
f 15/33/58 16/30/59 13/28/60
f 16/30/61 15/33/62 17/34/63
f 33/35/64 3/36/65 10/37/66
f 17/6/67 23/5/68 16/38/69
f 17/39/70 25/40/71 24/8/72
f 35/4/73 34/41/74 23/5/75
f 18/42/76 17/34/77 12/22/78
f 15/33/79 12/22/80 17/34/81
f 29/43/82 28/44/83 25/40/84
f 20/27/85 44/45/86 40/46/87
f 41/47/88 44/45/89 19/48/90
f 41/21/91 18/42/92 12/22/93
f 4/49/94 26/50/95 19/51/96
f 6/52/97 4/53/98 19/54/99
f 20/55/100 6/56/101 19/57/102
f 21/58/103 6/59/104 20/60/105
f 22/61/106 21/62/107 20/27/108
f 11/24/109 43/63/110 9/17/111
f 11/26/112 22/61/113 20/27/114
f 5/13/115 22/64/116 8/14/117
f 21/65/118 22/64/119 5/13/120
f 22/66/121 11/24/122 8/16/123
f 6/12/124 21/65/125 5/13/126
f 15/33/127 14/32/128 12/22/129
f 1/1/130 37/67/131 2/2/132
f 19/48/133 25/68/134 18/69/135
f 29/43/136 25/40/137 26/50/138
f 10/37/139 16/38/140 23/5/141
f 37/70/142 24/8/143 2/71/144
f 17/39/145 18/72/146 25/40/147
f 23/5/148 33/35/149 10/37/150
f 25/40/151 27/73/152 24/8/153
f 4/49/154 2/71/155 26/50/156
f 19/51/157 26/50/158 25/40/159
f 27/73/160 2/71/161 24/8/162
f 27/73/163 29/43/164 30/74/165
f 26/50/166 30/74/167 29/43/168
f 25/40/169 28/44/170 27/73/171
f 27/73/172 30/74/173 2/71/174
f 27/73/175 28/44/176 29/43/177
f 26/50/178 2/71/179 30/74/180
f 36/75/181 33/35/182 35/4/183
f 31/76/184 3/11/185 32/77/186
f 35/7/187 17/39/188 24/8/189
f 33/35/190 32/78/191 3/36/192
f 1/1/193 31/76/194 37/67/195
f 37/70/196 36/9/197 24/8/198
f 23/5/199 34/41/200 33/35/201
f 37/79/202 31/80/203 36/75/204
f 31/80/205 32/78/206 33/35/207
f 36/75/208 31/80/209 33/35/210
f 33/35/211 34/41/212 35/4/213
f 31/76/214 1/1/215 3/11/216
f 43/81/217 40/82/218 42/83/219
f 9/29/220 42/23/221 12/22/222
f 39/25/223 38/84/224 11/26/225
f 40/46/226 39/25/227 20/27/228
f 19/48/229 18/69/230 41/47/231
f 11/24/232 38/85/233 43/63/234
f 43/81/235 38/86/236 40/82/237
f 38/87/238 39/88/239 40/89/240
f 40/90/241 41/91/242 42/92/243
f 9/29/244 43/93/245 42/23/246
f 20/27/247 19/48/248 44/45/249
f 41/47/250 40/46/251 44/45/252
