# This file uses centimeters as units for non-parametric coordinates.

mtllib rock_45.mtl
g default
v -0.674890 -0.429020 0.463518
v -0.605137 -0.568400 -0.573350
v -0.469980 0.008584 0.489361
v -0.424962 -0.363106 0.704840
v -0.136039 -0.500230 0.597594
v -0.198117 -0.182663 0.777469
v 0.067804 -0.380316 0.790127
v 0.036455 0.605316 0.499955
v -0.416045 0.565410 0.171335
v 0.337800 0.548986 0.493319
v 0.732345 0.483306 0.186407
v 0.118719 0.689604 0.144234
v -0.316433 0.678385 -0.078517
v 0.191458 0.523167 -0.291522
v -0.446695 0.627074 -0.459670
v 0.610708 0.404762 -0.308603
v 0.192720 0.511947 -0.661203
v 0.688591 0.107170 -0.381446
v 0.576807 -0.354357 -0.320601
v 0.025816 -0.682004 -0.646433
v 0.277981 -0.689604 -0.513525
v 0.535698 -0.637356 0.004767
v -0.055035 -0.323287 -0.721318
v -0.471742 0.211946 -0.755538
v -0.464561 0.424944 -0.790126
v -0.584225 0.192099 -0.271978
v -0.657101 0.287354 0.143951
v -0.640598 0.245199 0.316694
v -0.606987 0.353180 0.238186
v -0.416863 0.603647 -0.655463
v -0.301792 0.591072 -0.771657
v 0.440031 -0.334933 0.688163
v 0.155653 -0.630600 0.334758
v -0.186115 -0.686341 -0.070232
v 0.524524 0.141961 0.618271
v 0.564718 0.123575 0.616190
v 0.570757 0.135567 0.555288
v 0.596735 0.239654 0.539541
v 0.532061 0.259880 0.581052
v 0.506148 0.164797 0.615334
v -0.732345 0.012667 -0.083874
v -0.712240 0.058151 0.020744
v -0.726527 0.094692 0.019337
v -0.723950 0.115418 0.001868
v -0.708177 0.093000 -0.091792
v -0.050926 0.570294 -0.661309
v -0.023961 0.561526 -0.706247
v -0.138661 0.529921 -0.723543
v -0.152285 0.551089 -0.731125
v -0.156959 0.579387 -0.737349
v -0.146069 0.585231 -0.677094
v -0.073039 0.587133 -0.651046
vt 0.641815 0.116134
vt 0.641815 0.476022
vt 0.497945 0.093982
vt 1.000000 0.945831
vt 0.889340 0.616394
vt 1.000000 0.529440
vt 0.868204 0.066846
vt 0.767220 0.145728
vt 0.712354 0.000000
vt 0.569997 0.036321
vt 0.804554 0.004377
vt 0.503926 0.000000
vt 0.437776 0.023508
vt 0.889383 0.366696
vt 0.739235 0.366696
vt 0.593467 0.818697
vt 0.605931 0.911160
vt 0.380938 0.975306
vt 0.605931 0.644556
vt 0.484316 0.734026
vt 0.338165 0.592407
vt 0.352954 0.763715
vt 0.480104 0.759201
vt 0.330881 0.886939
vt 0.083197 0.684086
vt 0.054293 0.545113
vt 0.184677 0.502784
vt 0.001525 0.626949
vt 0.272643 0.640729
vt 0.122105 0.966346
vt 0.060757 0.849950
vt 0.000000 0.819628
vt 0.316670 0.109291
vt 0.277471 0.000000
vt 0.321848 0.103092
vt 0.195169 0.754021
vt 0.272643 0.833424
vt 0.230333 0.901139
vt 0.323402 0.224922
vt 0.308087 0.407159
vt 0.232113 0.435933
vt 0.330881 0.502784
vt 0.105146 0.426052
vt 0.561601 0.529440
vt 0.439040 0.541293
vt 0.006320 0.319866
vt 0.000000 0.221863
vt 0.092839 0.171866
vt 0.026862 0.463477
vt 0.220426 0.010614
vt 0.889340 0.673114
vt 0.761954 0.721725
vt 0.632994 0.605551
vt 0.787212 0.555495
vt 0.883924 0.603236
vt 0.327345 0.048118
vt 0.329234 0.099662
vt 0.007346 0.021455
vt 0.889340 0.947051
vt 0.645983 0.724909
vt 0.687044 0.788219
vt 0.605931 0.745432
vt 0.320328 0.919427
vt 0.272643 0.720191
vt 0.320328 0.502784
vt 0.718530 0.809103
vt 0.716343 0.780054
vt 0.706392 0.229407
vt 0.644803 0.211005
vt 0.620270 0.702474
vt 0.703697 0.276668
vt 0.840098 0.547885
vt 0.876639 0.529440
vt 0.217550 0.930768
vt 0.211998 0.993620
vt 0.168842 1.000000
vt 0.408471 0.493175
vt 0.330881 0.323195
vt 0.427252 0.202588
vt 0.338860 0.062968
vt 0.512142 0.730765
vt 0.475800 0.745911
vt 0.486068 0.765564
vt 0.525692 0.333045
vt 0.477464 0.529440
vt 0.223664 0.905388
vt 0.694019 0.542381
vt 0.513279 0.758374
vt 0.329046 0.529788
vt 0.320328 0.519859
vt 0.329046 0.502784
vt 0.689958 0.797803
vt 0.690196 0.780378
vt 0.274354 0.760291
vt 0.641815 0.221139
vt 0.231714 0.937250
vt 0.244469 0.903314
vt 0.228655 0.946603
vt 0.329076 0.147239
vt 0.229830 0.943186
vt 0.330881 0.110186
vn -0.159574 -0.979747 0.120967
vn -0.159574 -0.979747 0.120967
vn -0.159574 -0.979747 0.120967
vn -0.896663 0.426782 -0.117695
vn -0.896663 0.426782 -0.117695
vn -0.896663 0.426782 -0.117695
vn -0.618415 0.245506 0.746518
vn -0.618415 0.245506 0.746518
vn -0.618415 0.245506 0.746518
vn -0.229685 -0.851944 0.470569
vn -0.229685 -0.851944 0.470569
vn -0.229685 -0.851944 0.470569
vn -0.632923 0.597522 0.492318
vn -0.632923 0.597522 0.492318
vn -0.632923 0.597522 0.492318
vn -0.413897 -0.508597 0.754995
vn -0.413897 -0.508597 0.754995
vn -0.413897 -0.508597 0.754995
vn 0.098601 -0.475804 0.874007
vn 0.098601 -0.475804 0.874007
vn 0.098601 -0.475804 0.874007
vn -0.557598 0.418499 0.716898
vn -0.557598 0.418499 0.716898
vn -0.557598 0.418499 0.716898
vn 0.078800 0.310200 0.947400
vn 0.078800 0.310200 0.947400
vn 0.078800 0.310200 0.947400
vn -0.462076 0.473175 0.750061
vn -0.462076 0.473175 0.750061
vn -0.462076 0.473175 0.750061
vn 0.952761 -0.203692 0.225291
vn 0.952761 -0.203692 0.225291
vn 0.952761 -0.203692 0.225291
vn 0.252001 0.096500 0.962904
vn 0.252001 0.096500 0.962904
vn 0.252001 0.096500 0.962904
vn 0.301400 0.934901 0.187400
vn 0.301400 0.934901 0.187400
vn 0.301400 0.934901 0.187400
vn 0.182807 0.946337 0.266510
vn 0.182807 0.946337 0.266510
vn 0.182807 0.946337 0.266510
vn 0.324385 0.918656 -0.225489
vn 0.324385 0.918656 -0.225489
vn 0.324385 0.918656 -0.225489
vn 0.051598 0.987263 -0.150494
vn 0.051598 0.987263 -0.150494
vn 0.051598 0.987263 -0.150494
vn -0.196610 0.920448 0.337817
vn -0.196610 0.920448 0.337817
vn -0.196610 0.920448 0.337817
vn -0.213992 0.960464 0.178093
vn -0.213992 0.960464 0.178093
vn -0.213992 0.960464 0.178093
vn 0.251907 -0.178605 -0.951127
vn 0.251907 -0.178605 -0.951127
vn 0.251907 -0.178605 -0.951127
vn 0.246702 0.918306 -0.309602
vn 0.246702 0.918306 -0.309602
vn 0.246702 0.918306 -0.309602
vn 0.232800 0.972101 -0.028700
vn 0.232800 0.972101 -0.028700
vn 0.232800 0.972101 -0.028700
vn 0.270594 0.962278 -0.028299
vn 0.270594 0.962278 -0.028299
vn 0.270594 0.962278 -0.028299
vn 0.656078 0.336989 -0.675278
vn 0.656078 0.336989 -0.675278
vn 0.656078 0.336989 -0.675278
vn 0.912306 0.305502 -0.272702
vn 0.912306 0.305502 -0.272702
vn 0.912306 0.305502 -0.272702
vn 0.348593 -0.204996 -0.914582
vn 0.348593 -0.204996 -0.914582
vn 0.348593 -0.204996 -0.914582
vn 0.971391 -0.225498 0.074499
vn 0.971391 -0.225498 0.074499
vn 0.971391 -0.225498 0.074499
vn 0.466492 0.090498 -0.879884
vn 0.466492 0.090498 -0.879884
vn 0.466492 0.090498 -0.879884
vn 0.532788 -0.056199 -0.844381
vn 0.532788 -0.056199 -0.844381
vn 0.532788 -0.056199 -0.844381
vn 0.790597 -0.507998 -0.341899
vn 0.790597 -0.507998 -0.341899
vn 0.790597 -0.507998 -0.341899
vn 0.985320 -0.169203 -0.022700
vn 0.985320 -0.169203 -0.022700
vn 0.985320 -0.169203 -0.022700
vn 0.529690 -0.096498 -0.842684
vn 0.529690 -0.096498 -0.842684
vn 0.529690 -0.096498 -0.842684
vn -0.245193 -0.250793 -0.936474
vn -0.245193 -0.250793 -0.936474
vn -0.245193 -0.250793 -0.936474
vn 0.125304 0.034201 -0.991529
vn 0.125304 0.034201 -0.991529
vn 0.125304 0.034201 -0.991529
vn -0.810612 0.561709 -0.165503
vn -0.810612 0.561709 -0.165503
vn -0.810612 0.561709 -0.165503
vn -0.998420 0.024000 0.050801
vn -0.998420 0.024000 0.050801
vn -0.998420 0.024000 0.050801
vn -0.998792 0.038600 0.030400
vn -0.998792 0.038600 0.030400
vn -0.998792 0.038600 0.030400
vn 0.213396 -0.175997 -0.960983
vn 0.213396 -0.175997 -0.960983
vn 0.213396 -0.175997 -0.960983
vn -0.148295 -0.200693 -0.968365
vn -0.148295 -0.200693 -0.968365
vn -0.148295 -0.200693 -0.968365
vn -0.968670 0.114096 -0.220593
vn -0.968670 0.114096 -0.220593
vn -0.968670 0.114096 -0.220593
vn -0.713485 0.645386 -0.272794
vn -0.713485 0.645386 -0.272794
vn -0.713485 0.645386 -0.272794
vn -0.957117 0.246805 0.151703
vn -0.957117 0.246805 0.151703
vn -0.957117 0.246805 0.151703
vn -0.798901 -0.480100 0.362300
vn -0.798901 -0.480100 0.362300
vn -0.798901 -0.480100 0.362300
vn -0.855655 0.210789 -0.472675
vn -0.855655 0.210789 -0.472675
vn -0.855655 0.210789 -0.472675
vn -0.855309 -0.318703 0.408504
vn -0.855309 -0.318703 0.408504
vn -0.855309 -0.318703 0.408504
vn -0.891696 0.412698 0.185899
vn -0.891696 0.412698 0.185899
vn -0.891696 0.412698 0.185899
vn -0.453615 0.612120 0.647721
vn -0.453615 0.612120 0.647721
vn -0.453615 0.612120 0.647721
vn -0.164702 0.501206 0.849509
vn -0.164702 0.501206 0.849509
vn -0.164702 0.501206 0.849509
vn -0.751336 0.657232 -0.059503
vn -0.751336 0.657232 -0.059503
vn -0.751336 0.657232 -0.059503
vn -0.538483 0.594081 -0.597581
vn -0.538483 0.594081 -0.597581
vn -0.538483 0.594081 -0.597581
vn -0.906464 0.380285 -0.183593
vn -0.906464 0.380285 -0.183593
vn -0.906464 0.380285 -0.183593
vn 0.083402 0.993621 -0.075902
vn 0.083402 0.993621 -0.075902
vn 0.083402 0.993621 -0.075902
vn -0.013500 0.992585 -0.120798
vn -0.013500 0.992585 -0.120798
vn -0.013500 0.992585 -0.120798
vn 0.179401 -0.089401 -0.979706
vn 0.179401 -0.089401 -0.979706
vn 0.179401 -0.089401 -0.979706
vn 0.048500 -0.995905 0.076300
vn 0.048500 -0.995905 0.076300
vn 0.048500 -0.995905 0.076300
vn 0.222392 -0.879669 0.420385
vn 0.222392 -0.879669 0.420385
vn 0.222392 -0.879669 0.420385
vn 0.564020 0.562419 0.604621
vn 0.564020 0.562419 0.604621
vn 0.564020 0.562419 0.604621
vn 0.418990 -0.759181 0.498088
vn 0.418990 -0.759181 0.498088
vn 0.418990 -0.759181 0.498088
vn 0.965740 -0.255511 0.045402
vn 0.965740 -0.255511 0.045402
vn 0.965740 -0.255511 0.045402
vn 0.050901 -0.871017 0.488609
vn 0.050901 -0.871017 0.488609
vn 0.050901 -0.871017 0.488609
vn -0.404016 -0.914736 0.005400
vn -0.404016 -0.914736 0.005400
vn -0.404016 -0.914736 0.005400
vn 0.115704 0.217707 0.969132
vn 0.115704 0.217707 0.969132
vn 0.115704 0.217707 0.969132
vn -0.021901 -0.999638 -0.015601
vn -0.021901 -0.999638 -0.015601
vn -0.021901 -0.999638 -0.015601
vn 0.227906 -0.942224 0.245506
vn 0.227906 -0.942224 0.245506
vn 0.227906 -0.942224 0.245506
vn -0.540876 -0.798865 0.263188
vn -0.540876 -0.798865 0.263188
vn -0.540876 -0.798865 0.263188
vn -0.185199 -0.979796 -0.075500
vn -0.185199 -0.979796 -0.075500
vn -0.185199 -0.979796 -0.075500
vn 0.512903 0.827005 -0.230201
vn 0.512903 0.827005 -0.230201
vn 0.512903 0.827005 -0.230201
vn -0.617595 0.779293 0.106199
vn -0.617595 0.779293 0.106199
vn -0.617595 0.779293 0.106199
vn 0.695588 0.068299 0.715187
vn 0.695588 0.068299 0.715187
vn 0.695588 0.068299 0.715187
vn 0.057103 0.324818 0.944051
vn 0.057103 0.324818 0.944051
vn 0.057103 0.324818 0.944051
vn 0.952761 -0.203692 0.225291
vn 0.952761 -0.203692 0.225291
vn 0.952761 -0.203692 0.225291
vn 0.108398 0.125297 0.986180
vn 0.108398 0.125297 0.986180
vn 0.108398 0.125297 0.986180
vn 0.564020 0.562419 0.604621
vn 0.564020 0.562419 0.604621
vn 0.564020 0.562419 0.604621
vn 0.953685 -0.201997 0.222896
vn 0.953685 -0.201997 0.222896
vn 0.953685 -0.201997 0.222896
vn 0.115704 0.217707 0.969132
vn 0.115704 0.217707 0.969132
vn 0.115704 0.217707 0.969132
vn 0.673841 0.598036 0.433926
vn 0.673841 0.598036 0.433926
vn 0.673841 0.598036 0.433926
vn 0.415406 0.883813 0.215203
vn 0.415406 0.883813 0.215203
vn 0.415406 0.883813 0.215203
vn 0.538615 -0.007000 0.842523
vn 0.538615 -0.007000 0.842523
vn 0.538615 -0.007000 0.842523
vn 0.057103 0.324818 0.944051
vn 0.057103 0.324818 0.944051
vn 0.057103 0.324818 0.944051
vn -0.966597 -0.232899 -0.107000
vn -0.966597 -0.232899 -0.107000
vn -0.966597 -0.232899 -0.107000
vn -0.805969 0.530479 -0.262690
vn -0.805969 0.530479 -0.262690
vn -0.805969 0.530479 -0.262690
vn -0.957117 0.246805 0.151703
vn -0.957117 0.246805 0.151703
vn -0.957117 0.246805 0.151703
vn -0.798901 -0.480100 0.362300
vn -0.798901 -0.480100 0.362300
vn -0.798901 -0.480100 0.362300
vn -0.855655 0.210789 -0.472675
vn -0.855655 0.210789 -0.472675
vn -0.855655 0.210789 -0.472675
vn -0.855309 -0.318703 0.408504
vn -0.855309 -0.318703 0.408504
vn -0.855309 -0.318703 0.408504
vn -0.954547 0.292714 0.056203
vn -0.954547 0.292714 0.056203
vn -0.954547 0.292714 0.056203
vn -0.794728 -0.330311 -0.509218
vn -0.794728 -0.330311 -0.509218
vn -0.794728 -0.330311 -0.509218
vn -0.805969 0.530479 -0.262690
vn -0.805969 0.530479 -0.262690
vn -0.805969 0.530479 -0.262690
vn 0.242395 0.642786 -0.726685
vn 0.242395 0.642786 -0.726685
vn 0.242395 0.642786 -0.726685
vn 0.036000 0.990013 -0.136302
vn 0.036000 0.990013 -0.136302
vn 0.036000 0.990013 -0.136302
vn 0.247714 -0.163409 -0.954953
vn 0.247714 -0.163409 -0.954953
vn 0.247714 -0.163409 -0.954953
vn 0.232598 0.971292 -0.049900
vn 0.232598 0.971292 -0.049900
vn 0.232598 0.971292 -0.049900
vn 0.230303 -0.118202 -0.965913
vn 0.230303 -0.118202 -0.965913
vn 0.230303 -0.118202 -0.965913
vn 0.106898 0.987586 -0.115098
vn 0.106898 0.987586 -0.115098
vn 0.106898 0.987586 -0.115098
vn 0.177900 -0.110700 -0.977802
vn 0.177900 -0.110700 -0.977802
vn 0.177900 -0.110700 -0.977802
vn 0.517699 0.822799 -0.234500
vn 0.517699 0.822799 -0.234500
vn 0.517699 0.822799 -0.234500
vn 0.189295 0.680182 -0.708181
vn 0.189295 0.680182 -0.708181
vn 0.189295 0.680182 -0.708181
vn -0.209500 0.928398 -0.306899
vn -0.209500 0.928398 -0.306899
vn -0.209500 0.928398 -0.306899
vn 0.838509 0.411904 -0.356704
vn 0.838509 0.411904 -0.356704
vn 0.838509 0.411904 -0.356704
vn 0.974887 0.119698 -0.187797
vn 0.974887 0.119698 -0.187797
vn 0.974887 0.119698 -0.187797
vn 0.028200 0.988101 -0.151200
vn 0.028200 0.988101 -0.151200
vn 0.028200 0.988101 -0.151200
s off
g rock44
usemtl standardSurface1SG
f 1/1/1 2/2/2 5/3/3
f 2/4/4 1/5/5 3/6/6
f 6/7/7 3/8/8 1/9/9
f 1/1/10 5/3/11 4/10/12
f 1/9/13 4/11/14 6/7/15
f 6/12/16 5/3/17 7/13/18
f 6/12/19 4/10/20 5/3/21
f 6/7/22 8/14/23 9/15/24
f 10/16/25 8/17/26 6/18/27
f 6/7/28 9/15/29 3/8/30
f 11/19/31 37/20/32 22/21/33
f 32/22/34 35/23/35 7/24/36
f 12/25/37 10/26/38 11/27/39
f 12/25/40 8/28/41 10/26/42
f 16/29/43 12/25/44 11/27/45
f 15/30/46 13/31/47 12/25/48
f 12/25/49 13/31/50 9/32/51
f 12/25/52 9/32/53 8/28/54
f 48/33/55 25/34/56 49/35/57
f 16/29/58 14/36/59 12/25/60
f 17/37/61 46/38/62 14/36/63
f 16/29/64 17/37/65 14/36/66
f 17/39/67 16/40/68 18/41/69
f 18/41/70 16/40/71 11/42/72
f 17/39/73 18/41/74 19/43/75
f 18/44/76 11/19/77 19/45/78
f 21/46/79 20/47/80 19/43/81
f 23/48/82 19/43/83 20/47/84
f 19/43/85 22/49/86 21/46/87
f 22/21/88 19/45/89 11/19/90
f 23/48/91 17/39/92 19/43/93
f 24/50/94 23/48/95 20/47/96
f 24/50/97 17/39/98 23/48/99
f 24/51/100 26/52/101 9/53/102
f 15/54/103 24/51/104 9/53/105
f 15/54/106 25/55/107 24/51/108
f 49/35/109 31/56/110 50/57/111
f 20/47/112 2/58/113 24/50/114
f 24/51/115 2/59/116 26/52/117
f 9/53/118 26/52/119 27/60/120
f 27/60/121 43/61/122 28/62/123
f 3/63/124 41/64/125 2/65/126
f 26/52/127 41/66/128 45/67/129
f 28/68/130 42/69/131 3/8/132
f 28/62/133 29/70/134 27/60/135
f 9/15/136 29/71/137 28/68/138
f 9/15/139 28/68/140 3/8/141
f 9/53/142 27/60/143 29/70/144
f 30/72/145 31/73/146 25/55/147
f 15/54/148 30/72/149 25/55/150
f 51/74/151 31/75/152 15/30/153
f 15/30/154 31/75/155 30/76/156
f 48/33/157 17/39/158 24/50/159
f 21/77/160 22/78/161 33/79/162
f 22/78/163 32/80/164 7/13/165
f 10/16/166 38/81/167 11/19/168
f 33/79/169 22/78/170 7/13/171
f 32/22/172 37/20/173 36/82/174
f 33/79/175 7/13/176 5/3/177
f 21/77/178 33/79/179 5/3/180
f 7/24/181 40/83/182 6/18/183
f 34/84/184 20/85/185 21/77/186
f 34/84/187 21/77/188 5/3/189
f 2/2/190 34/84/191 5/3/192
f 2/2/193 20/85/194 34/84/195
f 14/36/196 52/86/197 12/25/198
f 9/53/199 13/87/200 15/54/201
f 40/83/202 37/20/203 39/88/204
f 40/83/205 10/16/206 6/18/207
f 11/19/208 38/81/209 37/20/210
f 32/22/211 36/82/212 35/23/213
f 10/16/214 39/88/215 38/81/216
f 32/22/217 22/21/218 37/20/219
f 7/24/220 35/23/221 40/83/222
f 40/83/223 35/23/224 37/20/225
f 35/89/226 36/90/227 37/91/228
f 37/20/229 38/81/230 39/88/231
f 40/83/232 39/88/233 10/16/234
f 42/92/235 44/93/236 45/67/237
f 45/67/238 27/60/239 26/52/240
f 27/60/241 44/93/242 43/61/243
f 3/63/244 42/94/245 41/64/246
f 26/52/247 2/59/248 41/66/249
f 28/68/250 43/95/251 42/69/252
f 45/67/253 41/66/254 42/92/255
f 42/92/256 43/61/257 44/93/258
f 45/67/259 44/93/260 27/60/261
f 51/74/262 52/86/263 48/96/264
f 52/86/265 15/30/266 12/25/267
f 48/33/268 24/50/269 25/34/270
f 17/37/271 47/97/272 46/38/273
f 49/35/274 25/34/275 31/56/276
f 51/74/277 50/98/278 31/75/279
f 48/33/280 47/99/281 17/39/282
f 14/36/283 46/38/284 52/86/285
f 52/86/286 46/38/287 48/96/288
f 46/38/289 47/97/290 48/96/291
f 48/96/292 49/100/293 51/74/294
f 49/35/295 50/57/296 51/101/297
f 52/86/298 51/74/299 15/30/300
