# This file uses centimeters as units for non-parametric coordinates.

mtllib rock_38.mtl
g default
v 0.092722 -0.572179 0.310158
v -0.064036 0.008278 0.375553
v -0.220298 -0.694012 0.200263
v 0.104857 -0.659472 0.146741
v 0.459599 -0.045842 -0.096968
v 0.285368 -0.552419 0.060614
v 0.085949 -0.655317 -0.247229
v 0.214763 -0.084555 -0.234852
v 0.251927 0.154469 -0.240452
v 0.079565 -0.213478 -0.317119
v 0.125170 0.273408 -0.326386
v -0.098198 -0.059155 -0.291097
v -0.140964 0.694012 -0.277639
v -0.309348 -0.658700 -0.317273
v -0.102172 -0.209836 -0.375553
v -0.052262 0.348380 -0.344459
v -0.012440 -0.282258 -0.373488
v -0.046298 -0.583408 -0.357442
v -0.471463 0.476616 -0.062996
v -0.340253 0.679521 -0.171039
v -0.186582 0.588019 0.199540
v -0.335000 0.685728 -0.003741
v -0.008011 0.614356 0.187709
v -0.037703 0.502996 0.369732
v 0.151272 0.602508 0.306713
v 0.356586 0.573828 0.264934
v 0.403057 0.557952 0.026053
v 0.471463 0.383356 0.012582
v -0.227365 -0.655402 -0.103963
v -0.420943 0.294117 0.000044
v -0.394626 -0.352670 0.032670
v -0.411201 -0.409898 0.023931
v -0.396736 -0.417822 0.041176
v -0.397206 -0.420825 0.081183
v -0.393460 -0.348743 0.089490
v -0.422929 -0.330373 0.058994
v -0.410784 -0.333972 0.048869
v 0.337836 0.613621 -0.111136
v 0.342623 0.582311 -0.137931
v 0.322077 0.560037 -0.173479
v 0.294300 0.558306 -0.193786
v 0.268000 0.570059 -0.212139
v 0.219675 0.652739 -0.201593
v 0.313231 0.630154 -0.099665
vt 0.659441 0.000000
vt 0.780608 0.056964
vt 0.765175 0.338622
vt 0.538923 0.267639
vt 0.267338 0.343973
vt 0.294958 0.061690
vt 0.129896 0.704152
vt 0.185274 0.668555
vt 0.220244 0.818355
vt 0.336415 0.000000
vt 0.417238 0.043114
vt 0.006373 0.821453
vt 0.061115 0.661369
vt 0.173433 0.000000
vt 0.133733 0.282842
vt 0.042009 0.053581
vt 0.023643 0.305333
vt 0.194845 0.217458
vt 0.124967 0.401055
vt 0.186424 0.457845
vt 0.249121 0.291043
vt 0.570409 0.183190
vt 0.566939 0.492178
vt 0.958514 0.000000
vt 1.000000 0.170904
vt 0.970067 0.371086
vt 0.914107 0.666734
vt 0.991258 0.446190
vt 0.586739 0.173100
vt 0.236694 0.182296
vt 0.267338 0.216734
vt 0.249414 0.492332
vt 0.241523 0.033540
vt 1.000000 0.629976
vt 0.072255 1.000000
vt 0.000000 0.909405
vt 0.786802 0.502991
vt 0.800856 0.194151
vt 0.204775 0.960252
vt 0.123037 0.907892
vt 0.207155 0.949186
vt 0.804876 0.104943
vt 0.538923 0.584050
vt 0.597854 0.685031
vt 0.550589 0.688608
vt 0.693558 0.629690
vt 0.386639 0.978976
vt 0.267338 0.907922
vt 0.280018 0.777483
vt 0.297664 0.978976
vt 0.343607 0.743624
vt 0.299129 0.662204
vt 0.780608 0.581895
vt 0.375683 0.655144
vt 0.382557 0.621914
vt 0.305865 0.579394
vt 0.454554 0.621914
vt 0.450686 0.606238
vt 0.538923 0.485934
vt 0.526166 0.569744
vt 0.078720 0.636232
vt 0.072960 0.628419
vt 0.076905 0.613049
vt 0.104694 0.600534
vt 0.516478 0.710064
vt 0.509242 0.791508
vt 0.131822 0.646015
vt 0.117438 0.605952
vt 0.021218 0.601978
vt 0.000000 0.516923
vt 0.091168 0.601778
vt 0.872789 0.006091
vt 0.267338 0.661369
vt 0.220244 0.938093
vt 0.535352 0.659568
vt 0.535352 0.681355
vt 0.529122 0.680555
vt 0.795713 0.512364
vt 0.582017 0.138019
vt 0.780608 0.501116
vt 0.520012 0.679666
vt 0.537964 0.654258
vt 0.529372 0.626615
vt 0.537964 0.621914
vt 0.570826 0.173425
vt 0.520012 0.629498
vt 0.529372 0.621914
vt 0.529372 0.659568
vt 0.793096 0.540648
vt 0.496453 0.858607
vt 0.520012 0.788879
vn -0.263573 -0.177992 0.948076
vn -0.263573 -0.177992 0.948076
vn -0.263573 -0.177992 0.948076
vn 0.672272 0.098896 0.733669
vn 0.672272 0.098896 0.733669
vn 0.672272 0.098896 0.733669
vn 0.169806 -0.863932 0.474118
vn 0.169806 -0.863932 0.474118
vn 0.169806 -0.863932 0.474118
vn 0.602041 -0.684846 0.410528
vn 0.602041 -0.684846 0.410528
vn 0.602041 -0.684846 0.410528
vn 0.791987 -0.084299 0.604690
vn 0.791987 -0.084299 0.604690
vn 0.791987 -0.084299 0.604690
vn 0.498096 -0.866494 -0.033000
vn 0.498096 -0.866494 -0.033000
vn 0.498096 -0.866494 -0.033000
vn 0.851904 -0.181601 -0.491203
vn 0.851904 -0.181601 -0.491203
vn 0.851904 -0.181601 -0.491203
vn 0.496007 -0.408906 -0.766011
vn 0.496007 -0.408906 -0.766011
vn 0.496007 -0.408906 -0.766011
vn 0.595376 -0.117095 -0.794868
vn 0.595376 -0.117095 -0.794868
vn 0.595376 -0.117095 -0.794868
vn 0.500107 -0.097901 -0.860412
vn 0.500107 -0.097901 -0.860412
vn 0.500107 -0.097901 -0.860412
vn 0.494397 -0.097099 -0.863796
vn 0.494397 -0.097099 -0.863796
vn 0.494397 -0.097099 -0.863796
vn 0.193396 0.375593 -0.906382
vn 0.193396 0.375593 -0.906382
vn 0.193396 0.375593 -0.906382
vn 0.156694 -0.207692 -0.965563
vn 0.156694 -0.207692 -0.965563
vn 0.156694 -0.207692 -0.965563
vn -0.696077 0.069698 0.714576
vn -0.696077 0.069698 0.714576
vn -0.696077 0.069698 0.714576
vn -0.659567 -0.023999 -0.751262
vn -0.659567 -0.023999 -0.751262
vn -0.659567 -0.023999 -0.751262
vn -0.805423 0.305809 -0.507715
vn -0.805423 0.305809 -0.507715
vn -0.805423 0.305809 -0.507715
vn -0.617786 -0.058299 0.784182
vn -0.617786 -0.058299 0.784182
vn -0.617786 -0.058299 0.784182
vn 0.377880 0.445077 -0.811858
vn 0.377880 0.445077 -0.811858
vn 0.377880 0.445077 -0.811858
vn 0.044001 -0.134603 -0.989922
vn 0.044001 -0.134603 -0.989922
vn 0.044001 -0.134603 -0.989922
vn 0.230291 0.413784 -0.880766
vn 0.230291 0.413784 -0.880766
vn 0.230291 0.413784 -0.880766
vn 0.576807 -0.108001 -0.809710
vn 0.576807 -0.108001 -0.809710
vn 0.576807 -0.108001 -0.809710
vn -0.018300 -0.051101 -0.998526
vn -0.018300 -0.051101 -0.998526
vn -0.018300 -0.051101 -0.998526
vn -0.131698 -0.067599 -0.988982
vn -0.131698 -0.067599 -0.988982
vn -0.131698 -0.067599 -0.988982
vn 0.119797 -0.759582 -0.639284
vn 0.119797 -0.759582 -0.639284
vn 0.119797 -0.759582 -0.639284
vn 0.597572 -0.116795 -0.793263
vn 0.597572 -0.116795 -0.793263
vn 0.597572 -0.116795 -0.793263
vn -0.650897 -0.069300 -0.755997
vn -0.650897 -0.069300 -0.755997
vn -0.650897 -0.069300 -0.755997
vn -0.694300 -0.664200 0.277100
vn -0.694300 -0.664200 0.277100
vn -0.694300 -0.664200 0.277100
vn -0.310312 -0.386015 -0.868734
vn -0.310312 -0.386015 -0.868734
vn -0.310312 -0.386015 -0.868734
vn -0.704999 0.049200 0.707499
vn -0.704999 0.049200 0.707499
vn -0.704999 0.049200 0.707499
vn -0.838213 0.545309 0.006100
vn -0.838213 0.545309 0.006100
vn -0.838213 0.545309 0.006100
vn -0.691015 0.072302 0.719216
vn -0.691015 0.072302 0.719216
vn -0.691015 0.072302 0.719216
vn -0.707524 0.277509 0.649922
vn -0.707524 0.277509 0.649922
vn -0.707524 0.277509 0.649922
vn 0.290486 0.927855 0.233889
vn 0.290486 0.927855 0.233889
vn 0.290486 0.927855 0.233889
vn -0.090600 0.995303 -0.034100
vn -0.090600 0.995303 -0.034100
vn -0.090600 0.995303 -0.034100
vn -0.129701 0.970508 0.203202
vn -0.129701 0.970508 0.203202
vn -0.129701 0.970508 0.203202
vn -0.092601 0.856007 0.508604
vn -0.092601 0.856007 0.508604
vn -0.092601 0.856007 0.508604
vn -0.740021 0.047301 0.670919
vn -0.740021 0.047301 0.670919
vn -0.740021 0.047301 0.670919
vn -0.285700 0.837500 0.465800
vn -0.285700 0.837500 0.465800
vn -0.285700 0.837500 0.465800
vn 0.319101 -0.005800 0.947703
vn 0.319101 -0.005800 0.947703
vn 0.319101 -0.005800 0.947703
vn 0.124400 0.989899 -0.068000
vn 0.124400 0.989899 -0.068000
vn 0.124400 0.989899 -0.068000
vn 0.204496 0.039199 0.978082
vn 0.204496 0.039199 0.978082
vn 0.204496 0.039199 0.978082
vn 0.923680 0.349793 0.156397
vn 0.923680 0.349793 0.156397
vn 0.923680 0.349793 0.156397
vn 0.090999 0.655496 -0.749696
vn 0.090999 0.655496 -0.749696
vn 0.090999 0.655496 -0.749696
vn 0.851400 -0.151700 0.502100
vn 0.851400 -0.151700 0.502100
vn 0.851400 -0.151700 0.502100
vn 0.078601 0.986112 0.146302
vn 0.078601 0.986112 0.146302
vn 0.078601 0.986112 0.146302
vn 0.616872 -0.317986 0.719968
vn 0.616872 -0.317986 0.719968
vn 0.616872 -0.317986 0.719968
vn 0.581784 0.032899 -0.812678
vn 0.581784 0.032899 -0.812678
vn 0.581784 0.032899 -0.812678
vn 0.575188 0.815984 0.057699
vn 0.575188 0.815984 0.057699
vn 0.575188 0.815984 0.057699
vn 0.227192 0.252791 -0.940468
vn 0.227192 0.252791 -0.940468
vn 0.227192 0.252791 -0.940468
vn 0.888510 0.369104 -0.272603
vn 0.888510 0.369104 -0.272603
vn 0.888510 0.369104 -0.272603
vn 0.826001 0.117900 -0.551201
vn 0.826001 0.117900 -0.551201
vn 0.826001 0.117900 -0.551201
vn 0.588603 0.031600 -0.807804
vn 0.588603 0.031600 -0.807804
vn 0.588603 0.031600 -0.807804
vn -0.455000 -0.171100 -0.873899
vn -0.455000 -0.171100 -0.873899
vn -0.455000 -0.171100 -0.873899
vn 0.195996 0.234395 -0.952179
vn 0.195996 0.234395 -0.952179
vn 0.195996 0.234395 -0.952179
vn 0.006200 -0.999895 0.013100
vn 0.006200 -0.999895 0.013100
vn 0.006200 -0.999895 0.013100
vn 0.103095 -0.994552 -0.015399
vn 0.103095 -0.994552 -0.015399
vn 0.103095 -0.994552 -0.015399
vn -0.724097 -0.028800 -0.689097
vn -0.724097 -0.028800 -0.689097
vn -0.724097 -0.028800 -0.689097
vn -0.056601 -0.990616 -0.124402
vn -0.056601 -0.990616 -0.124402
vn -0.056601 -0.990616 -0.124402
vn -0.696077 0.069698 0.714576
vn -0.696077 0.069698 0.714576
vn -0.696077 0.069698 0.714576
vn -0.827817 -0.558611 -0.051701
vn -0.827817 -0.558611 -0.051701
vn -0.827817 -0.558611 -0.051701
vn -0.399385 -0.903067 -0.157994
vn -0.399385 -0.903067 -0.157994
vn -0.399385 -0.903067 -0.157994
vn -0.824404 0.311001 -0.472902
vn -0.824404 0.311001 -0.472902
vn -0.824404 0.311001 -0.472902
vn -0.617786 -0.058299 0.784182
vn -0.617786 -0.058299 0.784182
vn -0.617786 -0.058299 0.784182
vn -0.650897 -0.069300 -0.755997
vn -0.650897 -0.069300 -0.755997
vn -0.650897 -0.069300 -0.755997
vn -0.694300 -0.664200 0.277100
vn -0.694300 -0.664200 0.277100
vn -0.694300 -0.664200 0.277100
vn -0.724097 -0.028800 -0.689097
vn -0.724097 -0.028800 -0.689097
vn -0.724097 -0.028800 -0.689097
vn -0.827817 -0.558611 -0.051701
vn -0.827817 -0.558611 -0.051701
vn -0.827817 -0.558611 -0.051701
vn -0.727883 -0.682884 0.062099
vn -0.727883 -0.682884 0.062099
vn -0.727883 -0.682884 0.062099
vn -0.735717 0.111102 0.668115
vn -0.735717 0.111102 0.668115
vn -0.735717 0.111102 0.668115
vn -0.998610 0.049900 0.017000
vn -0.998610 0.049900 0.017000
vn -0.998610 0.049900 0.017000
vn -0.999472 0.031099 -0.009400
vn -0.999472 0.031099 -0.009400
vn -0.999472 0.031099 -0.009400
vn -0.824404 0.311001 -0.472902
vn -0.824404 0.311001 -0.472902
vn -0.824404 0.311001 -0.472902
vn 0.697881 0.476187 -0.534985
vn 0.697881 0.476187 -0.534985
vn 0.697881 0.476187 -0.534985
vn 0.082802 0.986325 0.142504
vn 0.082802 0.986325 0.142504
vn 0.082802 0.986325 0.142504
vn 0.326419 0.704541 -0.630137
vn 0.326419 0.704541 -0.630137
vn 0.326419 0.704541 -0.630137
vn 0.399897 0.687995 -0.605595
vn 0.399897 0.687995 -0.605595
vn 0.399897 0.687995 -0.605595
vn 0.628813 0.551912 -0.547711
vn 0.628813 0.551912 -0.547711
vn 0.628813 0.551912 -0.547711
vn 0.581784 0.032899 -0.812678
vn 0.581784 0.032899 -0.812678
vn 0.581784 0.032899 -0.812678
vn 0.575188 0.815984 0.057699
vn 0.575188 0.815984 0.057699
vn 0.575188 0.815984 0.057699
vn 0.227192 0.252791 -0.940468
vn 0.227192 0.252791 -0.940468
vn 0.227192 0.252791 -0.940468
vn 0.888510 0.369104 -0.272603
vn 0.888510 0.369104 -0.272603
vn 0.888510 0.369104 -0.272603
vn 0.826001 0.117900 -0.551201
vn 0.826001 0.117900 -0.551201
vn 0.826001 0.117900 -0.551201
vn 0.588603 0.031600 -0.807804
vn 0.588603 0.031600 -0.807804
vn 0.588603 0.031600 -0.807804
vn 0.082802 0.986325 0.142504
vn 0.082802 0.986325 0.142504
vn 0.082802 0.986325 0.142504
s off
g rock37
usemtl standardSurface1SG
f 3/1/1 1/2/2 2/3/3
f 5/4/4 2/5/5 1/6/6
f 4/7/7 1/8/8 3/9/9
f 1/6/10 4/10/11 6/11/12
f 1/6/13 6/11/14 5/4/15
f 4/7/16 7/12/17 6/13/18
f 7/14/19 8/15/20 6/16/21
f 5/17/22 6/16/23 8/15/24
f 7/14/25 10/18/26 8/15/27
f 5/17/28 8/15/29 9/19/30
f 11/20/31 9/19/32 8/15/33
f 8/15/34 10/18/35 12/21/36
f 11/20/37 8/15/38 12/21/39
f 36/22/40 2/3/41 30/23/42
f 13/24/43 16/25/44 12/26/45
f 14/27/46 12/26/47 15/28/48
f 35/29/49 3/1/50 2/3/51
f 17/30/52 15/31/53 12/21/54
f 12/21/55 16/32/56 11/20/57
f 10/18/58 17/30/59 12/21/60
f 18/33/61 17/30/62 10/18/63
f 15/31/64 17/30/65 18/33/66
f 15/28/67 18/34/68 14/27/69
f 14/35/70 18/36/71 7/12/72
f 18/33/73 10/18/74 7/14/75
f 37/37/76 30/38/77 13/24/78
f 32/39/79 29/40/80 33/41/81
f 13/24/82 30/38/83 19/42/84
f 30/23/85 2/3/86 19/43/87
f 19/43/88 22/44/89 20/45/90
f 21/46/91 19/43/92 2/3/93
f 21/46/94 22/44/95 19/43/96
f 13/47/97 22/48/98 21/49/99
f 13/47/100 20/50/101 22/48/102
f 13/47/103 21/49/104 23/51/105
f 23/51/106 21/49/107 24/52/108
f 21/46/109 2/3/110 24/53/111
f 23/51/112 24/52/113 25/54/114
f 25/55/115 24/56/116 2/5/117
f 23/51/118 25/54/119 26/57/120
f 25/55/121 2/5/122 26/58/123
f 26/58/124 28/59/125 27/60/126
f 44/61/127 38/62/128 39/63/129
f 5/4/130 28/59/131 26/58/132
f 23/51/133 26/57/134 13/47/135
f 2/5/136 5/4/137 26/58/138
f 11/20/139 41/64/140 9/19/141
f 27/65/142 44/66/143 26/57/144
f 11/20/145 43/67/146 42/68/147
f 39/63/148 27/69/149 28/70/150
f 40/71/151 28/70/152 5/17/153
f 9/19/154 40/71/155 5/17/156
f 19/42/157 20/72/158 13/24/159
f 11/20/160 16/32/161 13/73/162
f 7/12/163 29/40/164 14/35/165
f 7/12/166 4/7/167 3/9/168
f 12/26/169 37/37/170 13/24/171
f 7/12/172 3/9/173 29/40/174
f 36/22/175 35/29/176 2/3/177
f 34/74/178 29/40/179 3/9/180
f 35/75/181 36/76/182 37/77/183
f 14/27/184 31/78/185 12/26/186
f 35/29/187 34/79/188 3/1/189
f 37/37/190 36/80/191 30/38/192
f 32/39/193 14/35/194 29/40/195
f 12/26/196 31/78/197 37/37/198
f 34/74/199 33/41/200 29/40/201
f 37/77/202 31/81/203 35/75/204
f 31/82/205 32/83/206 33/84/207
f 35/29/208 31/85/209 34/79/210
f 33/86/211 34/87/212 31/88/213
f 14/27/214 32/89/215 31/78/216
f 42/68/217 43/67/218 44/61/219
f 13/47/220 44/66/221 43/90/222
f 39/63/223 40/71/224 44/61/225
f 40/71/226 41/64/227 44/61/228
f 41/64/229 42/68/230 44/61/231
f 11/20/232 42/68/233 41/64/234
f 27/65/235 38/91/236 44/66/237
f 11/20/238 13/73/239 43/67/240
f 39/63/241 38/62/242 27/69/243
f 40/71/244 39/63/245 28/70/246
f 9/19/247 41/64/248 40/71/249
f 13/47/250 26/57/251 44/66/252
