# This file uses centimeters as units for non-parametric coordinates.

mtllib rock_42.mtl
g default
v 0.346298 -0.221313 -0.424664
v 0.396922 -0.007615 -0.471281
v 0.377255 -0.236645 0.345055
v -0.323796 -0.188826 -0.293361
v 0.472810 -0.047540 -0.318457
v 0.544039 -0.147606 -0.025586
v 0.015971 -0.049978 -0.489474
v -0.095078 0.044287 -0.474461
v -0.101482 -0.092779 -0.475973
v -0.011618 0.071029 -0.393443
v 0.044802 -0.317792 0.017238
v -0.288127 -0.230103 0.489474
v -0.085818 0.210128 0.356991
v 0.074535 -0.113356 0.481981
v -0.515741 -0.100666 0.362408
v -0.296765 0.220545 0.409052
v -0.399707 0.203881 0.325313
v -0.544040 -0.090968 -0.056204
v -0.529949 0.169048 -0.051132
v -0.299451 0.285579 -0.291725
v -0.500869 0.275004 -0.018702
v -0.466330 0.286496 0.118410
v -0.411862 0.317792 -0.110782
v 0.322499 0.283178 -0.094420
v 0.073434 0.238250 -0.324917
v 0.352731 0.175906 -0.348713
v 0.445236 0.100042 -0.203338
v 0.365974 -0.019091 0.298939
v 0.307067 0.115705 0.087134
v -0.352935 0.024743 -0.311384
vt 0.208293 0.747171
vt 0.238877 0.667231
vt 0.316927 0.754553
vt 0.800718 0.039819
vt 0.900114 0.000000
vt 0.893627 0.224732
vt 0.245597 0.243691
vt 0.034155 0.089729
vt 0.408487 0.086847
vt 0.229653 0.000000
vt 0.086828 0.420677
vt 0.000000 0.309721
vt 0.316927 0.533479
vt 0.891726 0.489804
vt 0.913216 0.704841
vt 0.872547 0.659179
vt 0.384208 0.860480
vt 0.320613 0.707545
vt 0.316927 0.652071
vt 0.364106 0.683538
vt 0.468053 0.415431
vt 0.208293 0.785991
vt 0.275363 0.754553
vt 0.275363 0.964710
vt 0.451338 0.533479
vt 0.451338 0.767019
vt 0.384208 0.690020
vt 0.468053 0.238718
vt 0.185921 0.660870
vt 0.031910 0.637657
vt 0.000000 0.533479
vt 0.400560 0.526277
vt 0.196776 0.533479
vt 0.208293 0.607742
vt 0.880283 0.989973
vt 1.000000 0.806539
vt 1.000000 0.948616
vt 0.138189 0.850882
vt 0.013603 0.834595
vt 0.908556 0.855941
vt 0.790824 0.957895
vt 0.781672 0.881725
vt 0.208293 0.772675
vt 0.192787 0.839961
vt 0.827890 1.000000
vt 0.428570 0.980217
vt 0.384208 0.936735
vt 0.398848 0.868899
vt 0.428570 0.767019
vt 0.943158 0.000000
vt 0.943158 0.306593
vt 0.900114 0.210799
vt 0.850269 0.726961
vt 0.781672 0.569167
vt 0.781672 0.875149
vt 0.725888 0.907806
vt 0.628678 0.866053
vt 0.900114 0.407368
vt 0.384208 0.533479
vt 0.468053 0.616176
vt 0.605158 0.523620
vt 0.807769 0.249852
vt 0.472744 0.489804
vt 0.749011 0.123965
vt 0.721502 0.067724
vt 0.749011 0.190798
vt 0.656662 0.114481
vt 0.645040 0.000000
vt 0.512312 0.171018
vt 0.598297 0.054026
vt 0.749011 0.470353
vt 0.660746 0.272272
vt 0.569871 0.354150
vt 0.565166 0.489804
vt 0.468053 0.368229
vn 0.820685 -0.300438 -0.486018
vn 0.820685 -0.300438 -0.486018
vn 0.820685 -0.300438 -0.486018
vn -0.214291 -0.159493 -0.963660
vn -0.214291 -0.159493 -0.963660
vn -0.214291 -0.159493 -0.963660
vn 0.264692 -0.963872 -0.029799
vn 0.264692 -0.963872 -0.029799
vn 0.264692 -0.963872 -0.029799
vn 0.409687 -0.911570 -0.034599
vn 0.409687 -0.911570 -0.034599
vn 0.409687 -0.911570 -0.034599
vn -0.155898 -0.783289 -0.601792
vn -0.155898 -0.783289 -0.601792
vn -0.155898 -0.783289 -0.601792
vn -0.100699 -0.955492 -0.277298
vn -0.100699 -0.955492 -0.277298
vn -0.100699 -0.955492 -0.277298
vn 0.846598 -0.405699 -0.344499
vn 0.846598 -0.405699 -0.344499
vn 0.846598 -0.405699 -0.344499
vn 0.012700 -0.332296 -0.943090
vn 0.012700 -0.332296 -0.943090
vn 0.012700 -0.332296 -0.943090
vn 0.451409 0.632113 -0.629812
vn 0.451409 0.632113 -0.629812
vn 0.451409 0.632113 -0.629812
vn 0.441796 0.611095 -0.656795
vn 0.441796 0.611095 -0.656795
vn 0.441796 0.611095 -0.656795
vn 0.035201 -0.977833 0.206407
vn 0.035201 -0.977833 0.206407
vn 0.035201 -0.977833 0.206407
vn -0.302516 -0.952449 -0.036402
vn -0.302516 -0.952449 -0.036402
vn -0.302516 -0.952449 -0.036402
vn 0.243994 0.174896 0.953876
vn 0.243994 0.174896 0.953876
vn 0.243994 0.174896 0.953876
vn -0.084301 0.322502 0.942807
vn -0.084301 0.322502 0.942807
vn -0.084301 0.322502 0.942807
vn 0.178794 -0.501182 0.846670
vn 0.178794 -0.501182 0.846670
vn 0.178794 -0.501182 0.846670
vn -0.361295 0.247197 0.899088
vn -0.361295 0.247197 0.899088
vn -0.361295 0.247197 0.899088
vn -0.500082 -0.865870 0.013700
vn -0.500082 -0.865870 0.013700
vn -0.500082 -0.865870 0.013700
vn -0.638160 0.123392 0.759952
vn -0.638160 0.123392 0.759952
vn -0.638160 0.123392 0.759952
vn -0.430806 -0.902013 -0.027900
vn -0.430806 -0.902013 -0.027900
vn -0.430806 -0.902013 -0.027900
vn -0.720826 0.052502 -0.691125
vn -0.720826 0.052502 -0.691125
vn -0.720826 0.052502 -0.691125
vn -0.996252 0.052697 0.068597
vn -0.996252 0.052697 0.068597
vn -0.996252 0.052697 0.068597
vn -0.855060 -0.158293 -0.493777
vn -0.855060 -0.158293 -0.493777
vn -0.855060 -0.158293 -0.493777
vn -0.752703 0.382702 -0.535702
vn -0.752703 0.382702 -0.535702
vn -0.752703 0.382702 -0.535702
vn -0.887518 0.371408 0.272706
vn -0.887518 0.371408 0.272706
vn -0.887518 0.371408 0.272706
vn -0.945339 0.046102 0.322813
vn -0.945339 0.046102 0.322813
vn -0.945339 0.046102 0.322813
vn -0.955094 0.193499 0.224398
vn -0.955094 0.193499 0.224398
vn -0.955094 0.193499 0.224398
vn -0.747689 0.373295 -0.549192
vn -0.747689 0.373295 -0.549192
vn -0.747689 0.373295 -0.549192
vn -0.410319 0.911542 0.027001
vn -0.410319 0.911542 0.027001
vn -0.410319 0.911542 0.027001
vn 0.414695 0.883190 0.219097
vn 0.414695 0.883190 0.219097
vn 0.414695 0.883190 0.219097
vn 0.549493 0.811990 0.196798
vn 0.549493 0.811990 0.196798
vn 0.549493 0.811990 0.196798
vn -0.521399 -0.142100 -0.841398
vn -0.521399 -0.142100 -0.841398
vn -0.521399 -0.142100 -0.841398
vn -0.230695 0.968780 0.090798
vn -0.230695 0.968780 0.090798
vn -0.230695 0.968780 0.090798
vn 0.071699 0.993184 0.091899
vn 0.071699 0.993184 0.091899
vn 0.071699 0.993184 0.091899
vn -0.127304 0.280309 -0.951431
vn -0.127304 0.280309 -0.951431
vn -0.127304 0.280309 -0.951431
vn 0.337904 0.733209 -0.590107
vn 0.337904 0.733209 -0.590107
vn 0.337904 0.733209 -0.590107
vn -0.036600 0.991189 0.127299
vn -0.036600 0.991189 0.127299
vn -0.036600 0.991189 0.127299
vn 0.095200 0.952705 -0.288601
vn 0.095200 0.952705 -0.288601
vn 0.095200 0.952705 -0.288601
vn -0.014000 0.497791 -0.867184
vn -0.014000 0.497791 -0.867184
vn -0.014000 0.497791 -0.867184
vn 0.173093 0.914662 -0.365285
vn 0.173093 0.914662 -0.365285
vn 0.173093 0.914662 -0.365285
vn 0.055597 0.563771 -0.824058
vn 0.055597 0.563771 -0.824058
vn 0.055597 0.563771 -0.824058
vn 0.769622 0.615918 -0.168305
vn 0.769622 0.615918 -0.168305
vn 0.769622 0.615918 -0.168305
vn 0.849074 0.419187 -0.321490
vn 0.849074 0.419187 -0.321490
vn 0.849074 0.419187 -0.321490
vn 0.949819 0.282406 -0.134503
vn 0.949819 0.282406 -0.134503
vn 0.949819 0.282406 -0.134503
vn 0.855664 0.408083 -0.318287
vn 0.855664 0.408083 -0.318287
vn 0.855664 0.408083 -0.318287
vn 0.863130 0.472417 0.178406
vn 0.863130 0.472417 0.178406
vn 0.863130 0.472417 0.178406
vn 0.548396 0.590896 0.591696
vn 0.548396 0.590896 0.591696
vn 0.548396 0.590896 0.591696
vn 0.768110 0.615108 0.177902
vn 0.768110 0.615108 0.177902
vn 0.768110 0.615108 0.177902
vn 0.348302 0.483103 0.803304
vn 0.348302 0.483103 0.803304
vn 0.348302 0.483103 0.803304
vn 0.890350 0.138108 0.433824
vn 0.890350 0.138108 0.433824
vn 0.890350 0.138108 0.433824
vn 0.471704 0.206202 0.857307
vn 0.471704 0.206202 0.857307
vn 0.471704 0.206202 0.857307
vn -0.120103 0.016600 -0.992623
vn -0.120103 0.016600 -0.992623
vn -0.120103 0.016600 -0.992623
vn -0.644135 0.038502 -0.763942
vn -0.644135 0.038502 -0.763942
vn -0.644135 0.038502 -0.763942
vn 0.456532 0.802656 0.383827
vn 0.456532 0.802656 0.383827
vn 0.456532 0.802656 0.383827
vn 0.742502 0.459701 0.487201
vn 0.742502 0.459701 0.487201
vn 0.742502 0.459701 0.487201
vn -0.754200 0.201700 -0.624900
vn -0.754200 0.201700 -0.624900
vn -0.754200 0.201700 -0.624900
vn -0.535799 0.172200 -0.826599
vn -0.535799 0.172200 -0.826599
vn -0.535799 0.172200 -0.826599
s off
g rock41
usemtl standardSurface1SG
f 2/1/1 5/2/2 1/3/3
f 2/4/4 1/5/5 10/6/6
f 11/7/7 1/8/8 3/9/9
f 3/9/10 1/8/11 6/10/12
f 1/8/13 4/11/14 9/12/15
f 11/7/16 4/11/17 1/8/18
f 6/13/19 1/3/20 5/2/21
f 1/14/22 9/15/23 7/16/24
f 1/17/25 7/18/26 8/19/27
f 8/19/28 10/20/29 1/17/30
f 12/21/31 11/7/32 3/9/33
f 12/21/34 4/11/35 11/7/36
f 13/22/37 16/23/38 12/24/39
f 13/25/40 12/26/41 14/27/42
f 3/9/43 14/28/44 12/21/45
f 17/29/46 15/30/47 12/31/48
f 12/21/49 15/32/50 18/33/51
f 17/29/52 12/31/53 16/34/54
f 12/21/55 18/33/56 4/11/57
f 19/35/58 4/36/59 18/37/60
f 15/30/61 19/38/62 18/39/63
f 19/35/64 30/40/65 4/36/66
f 19/35/67 23/41/68 20/42/69
f 15/30/70 17/29/71 19/38/72
f 19/38/73 17/29/74 22/43/75
f 19/38/76 22/43/77 21/44/78
f 19/35/79 21/45/80 23/41/81
f 23/46/82 21/47/83 22/48/84
f 17/49/85 23/46/86 22/48/87
f 17/50/88 20/51/89 23/52/90
f 30/40/91 8/53/92 4/36/93
f 20/54/94 17/55/95 16/56/96
f 16/56/97 13/57/98 20/54/99
f 2/4/100 10/6/101 20/58/102
f 8/19/103 20/59/104 10/20/105
f 13/57/106 24/60/107 20/54/108
f 24/60/109 25/61/110 20/54/111
f 25/62/112 2/4/113 20/58/114
f 24/60/115 26/63/116 25/61/117
f 25/62/118 26/64/119 2/4/120
f 26/65/121 24/66/122 27/67/123
f 26/65/124 27/67/125 2/68/126
f 6/69/127 5/70/128 27/67/129
f 2/68/130 27/67/131 5/70/132
f 6/69/133 27/67/134 24/66/135
f 13/71/136 29/72/137 24/66/138
f 6/69/139 29/72/140 28/73/141
f 13/71/142 14/74/143 28/73/144
f 3/75/145 6/69/146 28/73/147
f 3/75/148 28/73/149 14/74/150
f 8/53/151 7/16/152 9/15/153
f 4/36/154 8/53/155 9/15/156
f 13/71/157 28/73/158 29/72/159
f 6/69/160 24/66/161 29/72/162
f 19/35/163 20/42/164 30/40/165
f 30/40/166 20/42/167 8/53/168
