# This file uses centimeters as units for non-parametric coordinates.

mtllib rock_25.mtl
g default
v -0.941998 -0.528553 0.549512
v -0.688868 -0.779686 0.295225
v -0.516078 -0.406764 -0.828484
v 0.073143 -0.625685 0.455632
v 0.207574 0.486269 0.499794
v 0.385958 -0.642638 -0.357296
v -0.017757 -0.497076 -0.621895
v -0.061375 0.634825 -0.646091
v -0.347831 -0.517523 0.663971
v -0.344646 0.555920 0.459174
v 0.366904 -0.064823 0.227955
v -0.860028 0.672756 -0.132439
v -0.178992 0.823168 -0.182664
v -0.344233 -0.804539 -0.042230
v -0.491096 0.668034 -0.479042
v -0.443083 0.250410 -0.714361
v -0.643525 0.151304 -0.716628
v -0.720210 0.604986 -0.488646
v -0.787902 0.201213 0.514356
v -0.586784 0.551184 0.453238
v -0.806755 0.476636 0.262172
v -0.981071 -0.397929 -0.227231
v -0.776346 -0.687707 -0.486304
v -0.603615 -0.823168 -0.131982
v -0.794100 -0.821691 0.089272
v 0.141393 -0.028916 -0.451306
v 0.211497 -0.685116 0.250904
v 0.095631 -0.776920 0.100069
v 0.373411 -0.684378 -0.070308
v 0.402375 0.195155 0.394223
v 0.463033 0.247650 0.275842
v 0.493945 0.549849 0.045378
v 0.270518 0.589830 0.202138
v 0.386274 0.432345 0.395351
v -0.350768 0.033273 0.633324
v -0.007575 -0.028690 -0.659365
v -0.113805 0.127947 -0.680006
v -0.016974 0.203376 -0.663881
v 0.060285 0.165451 -0.611672
v 0.054486 0.040171 -0.580296
v -0.875997 -0.725464 0.230277
v -0.947098 -0.671458 0.291140
v -0.961169 -0.624775 0.147601
v -0.894030 -0.734147 0.153031
v -0.877727 0.137414 0.459086
v -0.936419 0.187840 0.388499
v -0.962804 0.174886 0.362753
v -0.972449 0.000690 0.452878
v 0.274563 0.544165 -0.410412
v 0.272321 0.574301 -0.322711
v 0.392548 0.528574 -0.252041
v 0.359723 0.446626 -0.277450
v 0.361138 0.416275 -0.351938
v 0.320574 0.424961 -0.368922
v 0.299708 0.451114 -0.402837
vt 0.024476 0.460921
vt 0.000000 0.302672
vt 0.099424 0.261189
vt 0.782768 0.688031
vt 0.699509 0.483320
vt 0.828972 0.517889
vt 0.865666 0.227467
vt 0.917776 0.432453
vt 0.862229 0.446597
vt 0.019273 0.891663
vt 0.028965 0.717414
vt 0.078093 0.978033
vt 0.535852 0.738710
vt 0.690732 0.798918
vt 0.615754 0.910315
vt 0.161264 0.782206
vt 0.913351 0.139965
vt 0.361188 0.402659
vt 0.385304 0.132326
vt 0.559255 0.263698
vt 0.414838 0.274505
vt 0.292076 0.957856
vt 0.198425 0.929348
vt 0.291112 0.830276
vt 0.446176 0.847224
vt 0.494746 0.886203
vt 0.096599 0.544394
vt 0.158044 0.578648
vt 0.668196 0.516802
vt 0.541101 0.483320
vt 0.655405 0.710197
vt 0.381185 0.660720
vt 0.399199 0.487731
vt 0.826675 0.751123
vt 0.752677 0.860760
vt 0.742925 0.852740
vt 0.956580 0.763446
vt 0.843311 0.680795
vt 0.612917 0.413820
vt 0.424194 0.483320
vt 0.000000 0.791215
vt 0.671965 0.060363
vt 0.699826 0.251942
vt 0.971156 0.530944
vt 1.000000 0.722557
vt 0.731295 0.851215
vt 0.169200 0.509536
vt 0.777047 0.436826
vt 0.870669 0.910227
vt 0.999786 0.880889
vt 0.302963 0.167526
vt 0.361188 0.250675
vt 0.614952 0.467327
vt 0.599096 0.447182
vt 0.159693 0.000000
vt 0.272706 0.111934
vt 0.302794 0.507173
vt 0.702545 0.336594
vt 0.947985 0.910227
vt 0.177171 1.000000
vt 0.691405 0.417105
vt 0.308890 0.162317
vt 0.432808 0.911068
vt 0.442765 0.889087
vt 0.820808 0.707719
vt 0.851907 0.761224
vt 0.874107 0.731693
vt 0.361188 0.403370
vt 0.361188 0.732223
vt 0.464685 0.754105
vt 0.463200 0.968307
vt 0.090062 0.109568
vt 0.095874 0.057981
vt 0.008907 0.176277
vt 0.702545 0.415715
vt 0.223059 0.539706
vt 0.270535 0.672199
vt 0.699509 0.725503
vt 0.699509 0.607330
vt 0.870663 0.000000
vt 0.917776 0.057505
vt 0.882836 0.118136
vt 0.595685 0.000000
vt 0.827418 0.007172
vt 0.146167 0.509536
vt 0.292076 0.554193
vt 0.338668 0.509536
vt 0.338668 0.648761
vt 0.722063 0.046897
vt 0.742085 0.037986
vt 0.657746 0.000364
vt 0.749900 0.009486
vt 0.075703 0.070611
vt 0.064694 0.092776
vt 0.036168 0.101923
vt 0.429504 0.870367
vt 0.612641 0.477104
vt 0.565096 0.483320
vt 0.292112 0.694632
vt 0.292076 0.648761
vt 0.316476 0.651300
vt 0.761728 0.892259
vt 0.274973 0.623505
vt 0.322588 0.663435
vt 0.316452 0.694632
vt 0.360314 0.565896
vt 0.338668 0.523446
vt 0.360314 0.509536
vt 0.347490 0.601513
vt 0.338668 0.576035
vt 0.347490 0.565896
vt 0.292076 0.687298
vn -0.791066 -0.012075 -0.611612
vn -0.791066 -0.012075 -0.611612
vn -0.791066 -0.012075 -0.611612
vn 0.570887 0.102698 -0.814581
vn 0.570887 0.102698 -0.814581
vn 0.570887 0.102698 -0.814581
vn 0.791002 -0.176500 0.585801
vn 0.791002 -0.176500 0.585801
vn 0.791002 -0.176500 0.585801
vn -0.335606 0.824715 0.455208
vn -0.335606 0.824715 0.455208
vn -0.335606 0.824715 0.455208
vn -0.051798 -0.925259 0.375783
vn -0.051798 -0.925259 0.375783
vn -0.051798 -0.925259 0.375783
vn -0.179100 0.923801 0.338400
vn -0.179100 0.923801 0.338400
vn -0.179100 0.923801 0.338400
vn 0.885012 -0.330504 0.327904
vn 0.885012 -0.330504 0.327904
vn 0.885012 -0.330504 0.327904
vn -0.781983 0.142097 -0.606887
vn -0.781983 0.142097 -0.606887
vn -0.781983 0.142097 -0.606887
vn 0.453597 0.051900 0.889694
vn 0.453597 0.051900 0.889694
vn 0.453597 0.051900 0.889694
vn -0.294895 0.443092 -0.846585
vn -0.294895 0.443092 -0.846585
vn -0.294895 0.443092 -0.846585
vn 0.083700 -0.983901 0.157900
vn 0.083700 -0.983901 0.157900
vn 0.083700 -0.983901 0.157900
vn 0.172100 0.918502 0.356001
vn 0.172100 0.918502 0.356001
vn 0.172100 0.918502 0.356001
vn -0.008300 -0.881441 -0.472222
vn -0.008300 -0.881441 -0.472222
vn -0.008300 -0.881441 -0.472222
vn -0.067397 -0.919662 0.386884
vn -0.067397 -0.919662 0.386884
vn -0.067397 -0.919662 0.386884
vn 0.268604 -0.834613 -0.480908
vn 0.268604 -0.834613 -0.480908
vn 0.268604 -0.834613 -0.480908
vn 0.764163 -0.189791 -0.616470
vn 0.764163 -0.189791 -0.616470
vn 0.764163 -0.189791 -0.616470
vn 0.073499 -0.081099 -0.993992
vn 0.073499 -0.081099 -0.993992
vn 0.073499 -0.081099 -0.993992
vn 0.764163 -0.189791 -0.616470
vn 0.764163 -0.189791 -0.616470
vn 0.764163 -0.189791 -0.616470
vn -0.190001 0.087200 0.977904
vn -0.190001 0.087200 0.977904
vn -0.190001 0.087200 0.977904
vn -0.009600 0.935275 -0.353791
vn -0.009600 0.935275 -0.353791
vn -0.009600 0.935275 -0.353791
vn 0.085498 0.911776 0.401689
vn 0.085498 0.911776 0.401689
vn 0.085498 0.911776 0.401689
vn 0.290205 -0.886015 0.361606
vn 0.290205 -0.886015 0.361606
vn 0.290205 -0.886015 0.361606
vn -0.077097 -0.030299 0.996563
vn -0.077097 -0.030299 0.996563
vn -0.077097 -0.030299 0.996563
vn -0.077401 0.178903 -0.980817
vn -0.077401 0.178903 -0.980817
vn -0.077401 0.178903 -0.980817
vn 0.027900 -0.889493 -0.456096
vn 0.027900 -0.889493 -0.456096
vn 0.027900 -0.889493 -0.456096
vn 0.388686 0.013800 -0.921267
vn 0.388686 0.013800 -0.921267
vn 0.388686 0.013800 -0.921267
vn -0.963832 -0.180906 -0.195706
vn -0.963832 -0.180906 -0.195706
vn -0.963832 -0.180906 -0.195706
vn 0.874598 -0.202799 0.440399
vn 0.874598 -0.202799 0.440399
vn 0.874598 -0.202799 0.440399
vn 0.588589 0.093698 -0.802984
vn 0.588589 0.093698 -0.802984
vn 0.588589 0.093698 -0.802984
vn -0.134796 0.314691 0.939574
vn -0.134796 0.314691 0.939574
vn -0.134796 0.314691 0.939574
vn -0.194606 0.414012 -0.889226
vn -0.194606 0.414012 -0.889226
vn -0.194606 0.414012 -0.889226
vn -0.226397 0.940389 -0.253797
vn -0.226397 0.940389 -0.253797
vn -0.226397 0.940389 -0.253797
vn -0.772727 0.520618 0.363112
vn -0.772727 0.520618 0.363112
vn -0.772727 0.520618 0.363112
vn -0.636482 0.270292 0.722380
vn -0.636482 0.270292 0.722380
vn -0.636482 0.270292 0.722380
vn -0.081998 0.915879 -0.392991
vn -0.081998 0.915879 -0.392991
vn -0.081998 0.915879 -0.392991
vn -0.941567 -0.112196 -0.317589
vn -0.941567 -0.112196 -0.317589
vn -0.941567 -0.112196 -0.317589
vn 0.397995 0.113899 -0.910289
vn 0.397995 0.113899 -0.910289
vn 0.397995 0.113899 -0.910289
vn -0.928582 0.028999 -0.369993
vn -0.928582 0.028999 -0.369993
vn -0.928582 0.028999 -0.369993
vn -0.027700 0.187399 0.981893
vn -0.027700 0.187399 0.981893
vn -0.027700 0.187399 0.981893
vn -0.095598 0.480291 -0.871884
vn -0.095598 0.480291 -0.871884
vn -0.095598 0.480291 -0.871884
vn -0.244600 0.930399 -0.273000
vn -0.244600 0.930399 -0.273000
vn -0.244600 0.930399 -0.273000
vn -0.662182 0.480887 0.574685
vn -0.662182 0.480887 0.574685
vn -0.662182 0.480887 0.574685
vn -0.712568 0.523976 0.466579
vn -0.712568 0.523976 0.466579
vn -0.712568 0.523976 0.466579
vn -0.368304 -0.866009 0.338203
vn -0.368304 -0.866009 0.338203
vn -0.368304 -0.866009 0.338203
vn 0.764163 -0.189791 -0.616470
vn 0.764163 -0.189791 -0.616470
vn 0.764163 -0.189791 -0.616470
vn 0.123303 0.053501 -0.990926
vn 0.123303 0.053501 -0.990926
vn 0.123303 0.053501 -0.990926
vn -0.109403 -0.759520 0.641217
vn -0.109403 -0.759520 0.641217
vn -0.109403 -0.759520 0.641217
vn -0.587975 -0.634273 -0.501979
vn -0.587975 -0.634273 -0.501979
vn -0.587975 -0.634273 -0.501979
vn -0.349608 -0.816920 0.458711
vn -0.349608 -0.816920 0.458711
vn -0.349608 -0.816920 0.458711
vn 0.053399 -0.997187 0.052599
vn 0.053399 -0.997187 0.052599
vn 0.053399 -0.997187 0.052599
vn 0.214311 -0.872944 -0.438222
vn 0.214311 -0.872944 -0.438222
vn 0.214311 -0.872944 -0.438222
vn -0.992030 0.106203 0.067802
vn -0.992030 0.106203 0.067802
vn -0.992030 0.106203 0.067802
vn -0.993702 -0.088600 0.068600
vn -0.993702 -0.088600 0.068600
vn -0.993702 -0.088600 0.068600
vn -0.755689 -0.643391 0.122398
vn -0.755689 -0.643391 0.122398
vn -0.755689 -0.643391 0.122398
vn -0.373687 -0.852769 0.364887
vn -0.373687 -0.852769 0.364887
vn -0.373687 -0.852769 0.364887
vn 0.999061 -0.009800 0.042198
vn 0.999061 -0.009800 0.042198
vn 0.999061 -0.009800 0.042198
vn 0.425590 0.883079 -0.197595
vn 0.425590 0.883079 -0.197595
vn 0.425590 0.883079 -0.197595
vn 0.588589 0.093698 -0.802984
vn 0.588589 0.093698 -0.802984
vn 0.588589 0.093698 -0.802984
vn 0.423100 -0.881101 0.211300
vn 0.423100 -0.881101 0.211300
vn 0.423100 -0.881101 0.211300
vn 0.158507 -0.978043 -0.135306
vn 0.158507 -0.978043 -0.135306
vn 0.158507 -0.978043 -0.135306
vn 0.875191 0.460196 -0.149199
vn 0.875191 0.460196 -0.149199
vn 0.875191 0.460196 -0.149199
vn 0.377106 -0.082201 0.922515
vn 0.377106 -0.082201 0.922515
vn 0.377106 -0.082201 0.922515
vn 0.942814 -0.257704 -0.211403
vn 0.942814 -0.257704 -0.211403
vn 0.942814 -0.257704 -0.211403
vn 0.892766 -0.322788 0.314288
vn 0.892766 -0.322788 0.314288
vn 0.892766 -0.322788 0.314288
vn 0.462490 0.802483 0.376992
vn 0.462490 0.802483 0.376992
vn 0.462490 0.802483 0.376992
vn 0.197894 -0.897471 0.394187
vn 0.197894 -0.897471 0.394187
vn 0.197894 -0.897471 0.394187
vn 0.308690 0.929271 0.202894
vn 0.308690 0.929271 0.202894
vn 0.308690 0.929271 0.202894
vn 0.562898 0.463998 0.683997
vn 0.562898 0.463998 0.683997
vn 0.562898 0.463998 0.683997
vn 0.148393 -0.950158 -0.274188
vn 0.148393 -0.950158 -0.274188
vn 0.148393 -0.950158 -0.274188
vn 0.877966 0.057298 0.475282
vn 0.877966 0.057298 0.475282
vn 0.877966 0.057298 0.475282
vn 0.999681 0.023400 0.009500
vn 0.999681 0.023400 0.009500
vn 0.999681 0.023400 0.009500
vn 0.511207 0.030600 0.858912
vn 0.511207 0.030600 0.858912
vn 0.511207 0.030600 0.858912
vn 0.658923 0.230808 0.715925
vn 0.658923 0.230808 0.715925
vn 0.658923 0.230808 0.715925
vn -0.243400 0.052600 0.968499
vn -0.243400 0.052600 0.968499
vn -0.243400 0.052600 0.968499
vn 0.399105 -0.240103 -0.884910
vn 0.399105 -0.240103 -0.884910
vn 0.399105 -0.240103 -0.884910
vn 0.811384 -0.064099 -0.580988
vn 0.811384 -0.064099 -0.580988
vn 0.811384 -0.064099 -0.580988
vn 0.073499 -0.081099 -0.993992
vn 0.073499 -0.081099 -0.993992
vn 0.073499 -0.081099 -0.993992
vn 0.915576 -0.276093 -0.292392
vn 0.915576 -0.276093 -0.292392
vn 0.915576 -0.276093 -0.292392
vn 0.123303 0.053501 -0.990926
vn 0.123303 0.053501 -0.990926
vn 0.123303 0.053501 -0.990926
vn 0.598897 0.308798 -0.738896
vn 0.598897 0.308798 -0.738896
vn 0.598897 0.308798 -0.738896
vn 0.406212 -0.340110 -0.848125
vn 0.406212 -0.340110 -0.848125
vn 0.406212 -0.340110 -0.848125
vn 0.811384 -0.064099 -0.580988
vn 0.811384 -0.064099 -0.580988
vn 0.811384 -0.064099 -0.580988
vn -0.830713 -0.497508 0.249804
vn -0.830713 -0.497508 0.249804
vn -0.830713 -0.497508 0.249804
vn -0.769367 -0.563775 -0.300387
vn -0.769367 -0.563775 -0.300387
vn -0.769367 -0.563775 -0.300387
vn -0.998769 -0.006400 0.049198
vn -0.998769 -0.006400 0.049198
vn -0.998769 -0.006400 0.049198
vn -0.559382 -0.799074 0.220393
vn -0.559382 -0.799074 0.220393
vn -0.559382 -0.799074 0.220393
vn -0.682176 -0.712375 -0.164794
vn -0.682176 -0.712375 -0.164794
vn -0.682176 -0.712375 -0.164794
vn -0.729478 -0.472386 -0.494685
vn -0.729478 -0.472386 -0.494685
vn -0.729478 -0.472386 -0.494685
vn -0.609239 0.390725 0.690045
vn -0.609239 0.390725 0.690045
vn -0.609239 0.390725 0.690045
vn -0.443200 0.136300 0.886000
vn -0.443200 0.136300 0.886000
vn -0.443200 0.136300 0.886000
vn -0.575296 0.530597 0.622496
vn -0.575296 0.530597 0.622496
vn -0.575296 0.530597 0.622496
vn -0.945714 -0.109202 -0.306105
vn -0.945714 -0.109202 -0.306105
vn -0.945714 -0.109202 -0.306105
vn -0.722010 0.114702 0.682309
vn -0.722010 0.114702 0.682309
vn -0.722010 0.114702 0.682309
vn -0.676377 0.441885 0.589280
vn -0.676377 0.441885 0.589280
vn -0.676377 0.441885 0.589280
vn 0.806311 0.396405 -0.439006
vn 0.806311 0.396405 -0.439006
vn 0.806311 0.396405 -0.439006
vn 0.405415 0.878133 -0.254010
vn 0.405415 0.878133 -0.254010
vn 0.405415 0.878133 -0.254010
vn 0.388686 0.013800 -0.921267
vn 0.388686 0.013800 -0.921267
vn 0.388686 0.013800 -0.921267
vn 0.588589 0.093698 -0.802984
vn 0.588589 0.093698 -0.802984
vn 0.588589 0.093698 -0.802984
vn 0.455909 0.863116 -0.217204
vn 0.455909 0.863116 -0.217204
vn 0.455909 0.863116 -0.217204
vn 0.999681 0.023400 0.009500
vn 0.999681 0.023400 0.009500
vn 0.999681 0.023400 0.009500
vn 0.915576 -0.276093 -0.292392
vn 0.915576 -0.276093 -0.292392
vn 0.915576 -0.276093 -0.292392
vn 0.964714 0.255604 -0.063201
vn 0.964714 0.255604 -0.063201
vn 0.964714 0.255604 -0.063201
vn 0.521487 0.055099 -0.851478
vn 0.521487 0.055099 -0.851478
vn 0.521487 0.055099 -0.851478
vn 0.334001 0.875102 -0.350201
vn 0.334001 0.875102 -0.350201
vn 0.334001 0.875102 -0.350201
vn 0.891147 0.369419 -0.263414
vn 0.891147 0.369419 -0.263414
vn 0.891147 0.369419 -0.263414
vn 0.430186 0.857072 -0.283491
vn 0.430186 0.857072 -0.283491
vn 0.430186 0.857072 -0.283491
s off
g rock24
usemtl standardSurface1SG
f 3/1/1 23/2/2 22/3/3
f 26/4/4 6/5/5 7/6/6
f 11/7/7 4/8/8 27/9/9
f 21/10/10 10/11/11 12/12/12
f 14/13/13 4/14/14 9/15/15
f 12/12/16 10/11/17 13/16/18
f 11/7/19 30/17/20 4/8/21
f 3/1/22 22/3/23 12/18/24
f 4/19/25 35/20/26 9/21/27
f 16/22/28 15/23/29 8/24/30
f 25/25/31 14/13/32 2/26/33
f 5/27/34 33/28/35 13/16/36
f 6/29/37 14/13/38 7/30/39
f 28/31/40 4/14/41 14/13/42
f 14/13/43 23/32/44 3/33/45
f 39/34/46 55/35/47 54/36/48
f 16/37/49 36/38/50 7/6/51
f 39/34/52 54/36/53 26/4/54
f 19/39/55 1/40/56 9/21/57
f 21/10/58 20/41/59 10/11/60
f 13/16/61 10/11/62 5/27/63
f 9/15/64 2/26/65 14/13/66
f 4/19/67 5/42/68 10/43/69
f 16/37/70 3/44/71 17/45/72
f 3/33/73 7/30/74 14/13/75
f 26/4/76 53/46/77 6/5/78
f 12/18/79 17/47/80 3/1/81
f 29/48/82 11/7/83 27/9/84
f 8/49/85 55/35/86 39/34/87
f 19/39/88 35/20/89 10/43/90
f 16/37/91 17/45/92 18/50/93
f 15/23/94 12/12/95 13/16/96
f 47/51/97 21/52/98 12/18/99
f 19/39/100 46/53/101 45/54/102
f 15/23/103 13/16/104 8/24/105
f 47/51/106 1/55/107 48/56/108
f 16/37/109 7/6/110 3/44/111
f 12/18/112 18/57/113 17/47/114
f 10/43/115 20/58/116 19/39/117
f 18/50/118 15/59/119 16/37/120
f 15/23/121 18/60/122 12/12/123
f 19/39/124 20/58/125 21/61/126
f 47/51/127 46/62/128 21/52/129
f 2/26/130 42/63/131 41/64/132
f 39/34/133 26/4/134 40/65/135
f 16/37/136 38/66/137 37/67/138
f 9/21/139 1/40/140 2/68/141
f 22/69/142 24/70/143 25/25/144
f 2/26/145 1/71/146 42/63/147
f 25/25/148 24/70/149 14/13/150
f 14/13/151 24/70/152 23/32/153
f 1/55/154 12/18/155 22/3/156
f 1/55/157 43/72/158 42/73/159
f 22/3/160 23/2/161 24/74/162
f 41/64/163 25/25/164 2/26/165
f 11/7/166 29/48/167 6/75/168
f 32/76/169 50/77/170 13/16/171
f 39/34/172 38/66/173 8/49/174
f 27/78/175 28/31/176 29/79/177
f 29/79/178 14/13/179 6/29/180
f 33/80/181 34/81/182 31/82/183
f 30/83/184 5/42/185 4/19/186
f 31/82/187 11/7/188 32/84/189
f 11/7/190 31/82/191 30/17/192
f 5/27/193 34/85/194 33/28/195
f 28/31/196 27/78/197 4/14/198
f 13/16/199 33/28/200 32/76/201
f 32/86/202 33/87/203 31/88/204
f 29/79/205 28/31/206 14/13/207
f 34/81/208 30/17/209 31/82/210
f 11/7/211 53/89/212 52/90/213
f 30/83/214 34/91/215 5/42/216
f 4/19/217 10/43/218 35/20/219
f 19/39/220 9/21/221 35/20/222
f 37/67/223 39/34/224 40/65/225
f 36/38/226 26/4/227 7/6/228
f 16/37/229 37/67/230 36/38/231
f 32/84/232 52/90/233 51/92/234
f 16/37/235 8/49/236 38/66/237
f 40/65/238 36/38/239 37/67/240
f 37/67/241 38/66/242 39/34/243
f 36/38/244 40/65/245 26/4/246
f 41/93/247 43/72/248 44/94/249
f 25/95/250 43/72/251 22/3/252
f 1/55/253 22/3/254 43/72/255
f 41/64/256 44/96/257 25/25/258
f 41/93/259 42/73/260 43/72/261
f 25/95/262 44/94/263 43/72/264
f 45/54/265 47/97/266 48/98/267
f 19/39/268 48/98/269 1/40/270
f 19/39/271 21/61/272 46/53/273
f 47/51/274 12/18/275 1/55/276
f 45/54/277 46/53/278 47/97/279
f 19/39/280 45/54/281 48/98/282
f 50/99/283 52/100/284 54/101/285
f 50/77/286 8/24/287 13/16/288
f 26/4/289 54/36/290 53/46/291
f 8/49/292 49/102/293 55/35/294
f 32/76/295 51/103/296 50/77/297
f 11/7/298 6/75/299 53/89/300
f 32/84/301 11/7/302 52/90/303
f 55/104/304 49/105/305 50/99/306
f 50/106/307 51/107/308 52/108/309
f 52/109/310 53/110/311 54/111/312
f 54/101/313 55/104/314 50/99/315
f 50/77/316 49/112/317 8/24/318
