# This file uses centimeters as units for non-parametric coordinates.

mtllib rock_57.mtl
g default
v 0.592823 0.557663 0.010342
v -0.477709 0.628315 -0.138891
v 0.581876 0.535797 -0.238897
v 0.223186 0.575795 -0.548145
v -0.333770 0.461251 0.534045
v -0.502320 0.534018 0.135073
v 0.641154 -0.085675 -0.067770
v 0.636260 -0.086009 -0.164159
v 0.617399 -0.145404 0.094651
v 0.515115 -0.531618 0.252564
v 0.577442 -0.196323 -0.361592
v -0.335875 -0.628315 -0.357473
v 0.370218 -0.575102 0.595057
v 0.488441 -0.005246 -0.588892
v 0.554569 -0.352571 0.246363
v -0.049306 0.380125 0.731716
v 0.366733 -0.445323 0.821244
v 0.176298 -0.625785 0.783219
v -0.611341 -0.563392 0.252175
v -0.569799 0.145259 0.518904
v -0.609146 -0.527862 -0.029201
v -0.557704 -0.222208 -0.255495
v -0.374662 -0.273285 -0.579856
v 0.049091 -0.058890 -0.824806
v -0.210808 0.588224 -0.579109
v 0.468342 0.365936 0.417345
v 0.475974 0.360050 0.441387
v 0.519956 0.305343 0.451176
v 0.539371 0.288841 0.391653
v 0.547152 0.298248 0.370314
v 0.548838 0.310108 0.356268
v 0.546425 0.389220 0.344666
v 0.386528 -0.087411 0.780762
v 0.323312 -0.085121 0.815785
v 0.306617 -0.178045 0.815161
v 0.334861 -0.205438 0.820267
v 0.367885 -0.213809 0.824806
v 0.368537 -0.205311 0.791823
v 0.389235 -0.165034 0.760636
v -0.288914 -0.533825 0.711166
v -0.339100 -0.492350 0.700428
v -0.417938 -0.505950 0.670710
v -0.413670 -0.578141 0.614761
v -0.275609 -0.580691 0.684358
v -0.277264 -0.595916 0.713473
v -0.329454 0.286322 -0.720821
v -0.281004 0.322367 -0.755015
v -0.218331 0.287305 -0.771768
v -0.217919 0.159177 -0.818016
v -0.319221 0.129152 -0.768328
v -0.342560 0.163612 -0.733003
v 0.477510 0.226534 -0.686782
v 0.485686 0.336291 -0.639792
v 0.557347 0.324178 -0.584242
v 0.532110 0.188713 -0.639903
v 0.496680 -0.459813 -0.228963
v 0.485357 -0.496808 -0.204115
v 0.478904 -0.527718 -0.198695
v 0.459791 -0.532198 -0.199142
v 0.372542 -0.541234 -0.303611
v 0.473855 -0.439912 -0.346465
v 0.500983 -0.433612 -0.315919
v 0.504577 -0.437154 -0.270743
v 0.503172 -0.443310 -0.254377
v -0.570024 -0.305426 0.616215
v -0.545217 -0.093061 0.605845
v -0.620981 -0.051129 0.559287
v -0.632783 -0.197034 0.433972
v -0.641154 -0.262419 0.452680
v -0.640371 -0.301429 0.486065
v 0.018154 0.624576 0.096873
vt 0.642534 0.644915
vt 0.330911 0.672618
vt 0.446039 0.496599
vt 0.496543 0.710790
vt 0.159694 0.252942
vt 0.014675 0.264671
vt 0.182992 0.170265
vt 0.337178 0.592213
vt 0.067094 0.482269
vt 0.018120 0.420851
vt 0.173387 0.308127
vt 0.585863 0.873280
vt 0.642534 0.741522
vt 0.190542 0.333563
vt 0.297603 0.259840
vt 0.293046 0.274010
vt 0.498741 0.936516
vt 0.354557 0.821463
vt 0.291768 0.901300
vt 0.163219 0.930047
vt 0.061046 0.888681
vt 0.294838 0.289707
vt 0.252842 0.363212
vt 0.997261 0.830523
vt 0.911911 0.673315
vt 0.997261 0.474976
vt 0.293437 0.284113
vt 0.310301 0.309303
vt 0.254400 0.463277
vt 0.319882 0.630039
vt 0.319882 0.869605
vt 0.224137 0.131762
vt 0.762930 0.474976
vt 0.880102 0.541061
vt 0.879432 0.554292
vt 0.181810 0.032921
vt 0.023562 0.674461
vt 0.141967 0.552556
vt 0.039225 0.084677
vt 0.059992 0.073920
vt 0.015580 0.278381
vt 0.064677 0.057440
vt 0.113437 0.000000
vt 0.376283 0.984078
vt 0.337374 0.835113
vt 0.351820 0.829556
vt 0.839492 0.475165
vt 0.002038 0.827313
vt 0.000000 0.894476
vt 0.683155 0.456041
vt 0.613006 0.453120
vt 0.614128 0.407482
vt 0.583580 0.390815
vt 0.483791 0.422832
vt 0.581203 0.162454
vt 0.679119 0.625692
vt 0.911911 0.774712
vt 0.672682 0.235029
vt 0.747914 0.845550
vt 0.710522 0.775374
vt 0.664170 0.727863
vt 0.658732 0.641635
vt 0.732723 0.870778
vt 0.732723 1.000000
vt 0.642534 0.990443
vt 0.366514 0.298487
vt 0.336113 0.208106
vt 0.685331 0.133096
vt 0.584159 0.059326
vt 0.775996 0.228869
vt 0.887356 0.182911
vt 0.833505 0.347019
vt 0.762122 0.168226
vt 0.685331 0.108213
vt 0.765221 0.011349
vt 0.330911 0.068850
vt 0.421382 0.016354
vt 0.456858 0.011271
vt 0.571424 0.496094
vt 0.895747 0.434141
vt 0.895747 0.115498
vt 1.000000 0.000000
vt 1.000000 0.302716
vt 0.176092 0.529890
vt 0.342992 0.492283
vt 0.220109 0.537176
vt 0.217508 0.516692
vt 0.223785 0.547428
vt 0.382575 0.436655
vt 0.859334 0.870778
vt 0.690309 0.446033
vt 0.692758 0.438537
vt 0.706146 0.465135
vt 0.885584 0.535845
vt 0.896160 0.543507
vt 0.642534 0.627048
vt 0.673948 0.591379
vt 0.792530 0.195119
vt 0.761653 0.228475
vt 0.186874 0.547428
vt 0.895747 0.024584
vt 0.747883 0.874893
vt 0.752441 0.872781
vt 0.732722 0.895739
vt 0.602767 0.396490
vt 0.685331 0.328863
vt 0.015877 0.272221
vt 0.292120 0.907771
vt 0.302118 0.302400
vt 0.916586 0.722964
vt 0.303928 0.252041
vt 0.681813 0.603828
vt 0.672105 0.585884
vt 0.041101 0.626712
vt 0.001620 0.252444
vt 0.060861 0.046965
vt 0.358606 0.971171
vt 0.885468 0.531503
vt 0.663280 0.474976
vt 0.542535 0.433799
vt 0.901177 0.573438
vt 0.700830 0.805508
vt 0.741949 0.175770
vt 0.408492 0.006576
vt 0.364772 0.474976
vt 0.330911 0.516668
vt 0.333972 0.794217
vt 0.706146 0.442111
vt 0.722409 0.434141
vt 0.722409 0.461039
vt 0.326098 0.612328
vt 0.321253 0.605942
vt 0.326098 0.589850
vt 0.695458 0.434141
vt 0.685331 0.465135
vt 0.000000 0.297832
vt 0.911911 0.561692
vt 0.329324 0.569912
vt 0.324131 0.560925
vt 0.329324 0.547428
vt 0.319882 0.550590
vt 0.329324 0.569912
vt 0.329324 0.589850
vt 0.321253 0.575724
vt 0.014723 0.674349
vt 0.737667 0.197595
vt 0.465247 0.000000
vt 0.870660 0.000000
vt 0.760314 0.870778
vt 0.760314 0.919238
vt 0.306025 0.251325
vt 0.330911 0.277495
vt 0.329434 0.604602
vt 0.326098 0.594742
vt 0.329434 0.589850
vt 0.736724 0.882941
vt 0.551238 0.451465
vt 0.663271 0.781353
vn 0.067559 0.997639 -0.012325
vn 0.067559 0.997639 -0.012325
vn 0.067559 0.997639 -0.012325
vn 0.088603 0.981330 -0.170705
vn 0.088603 0.981330 -0.170705
vn 0.088603 0.981330 -0.170705
vn 0.945286 -0.050599 0.322295
vn 0.945286 -0.050599 0.322295
vn 0.945286 -0.050599 0.322295
vn 0.190108 0.977243 -0.094104
vn 0.190108 0.977243 -0.094104
vn 0.190108 0.977243 -0.094104
vn 0.995419 0.081002 -0.050801
vn 0.995419 0.081002 -0.050801
vn 0.995419 0.081002 -0.050801
vn -0.149506 0.959638 0.238209
vn -0.149506 0.959638 0.238209
vn -0.149506 0.959638 0.238209
vn 0.995419 0.081002 -0.050801
vn 0.995419 0.081002 -0.050801
vn 0.995419 0.081002 -0.050801
vn 0.946795 -0.318898 -0.043400
vn 0.946795 -0.318898 -0.043400
vn 0.946795 -0.318898 -0.043400
vn 0.143305 0.970835 0.192207
vn 0.143305 0.970835 0.192207
vn 0.143305 0.970835 0.192207
vn 0.228801 -0.973104 -0.026800
vn 0.228801 -0.973104 -0.026800
vn 0.228801 -0.973104 -0.026800
vn 0.941215 -0.322605 -0.100202
vn 0.941215 -0.322605 -0.100202
vn 0.941215 -0.322605 -0.100202
vn 0.125601 -0.487205 -0.864208
vn 0.125601 -0.487205 -0.864208
vn 0.125601 -0.487205 -0.864208
vn 0.939886 -0.338295 -0.046599
vn 0.939886 -0.338295 -0.046599
vn 0.939886 -0.338295 -0.046599
vn 0.735298 -0.348799 -0.581099
vn 0.735298 -0.348799 -0.581099
vn 0.735298 -0.348799 -0.581099
vn 0.123303 -0.992222 -0.017100
vn 0.123303 -0.992222 -0.017100
vn 0.123303 -0.992222 -0.017100
vn 0.972875 -0.217094 -0.079898
vn 0.972875 -0.217094 -0.079898
vn 0.972875 -0.217094 -0.079898
vn -0.191305 -0.014300 0.981426
vn -0.191305 -0.014300 0.981426
vn -0.191305 -0.014300 0.981426
vn 0.912817 -0.188604 0.362207
vn 0.912817 -0.188604 0.362207
vn 0.912817 -0.188604 0.362207
vn 0.002800 -0.999105 -0.042200
vn 0.002800 -0.999105 -0.042200
vn 0.002800 -0.999105 -0.042200
vn 0.945255 -0.050598 0.322385
vn 0.945255 -0.050598 0.322385
vn 0.945255 -0.050598 0.322385
vn 0.984977 0.054099 0.163996
vn 0.984977 0.054099 0.163996
vn 0.984977 0.054099 0.163996
vn 0.999817 -0.005300 0.018400
vn 0.999817 -0.005300 0.018400
vn 0.999817 -0.005300 0.018400
vn 0.436817 0.486519 0.756630
vn 0.436817 0.486519 0.756630
vn 0.436817 0.486519 0.756630
vn -0.177892 -0.019599 0.983855
vn -0.177892 -0.019599 0.983855
vn -0.177892 -0.019599 0.983855
vn 0.582389 -0.701186 0.411292
vn 0.582389 -0.701186 0.411292
vn 0.582389 -0.701186 0.411292
vn -0.789273 -0.454685 0.412686
vn -0.789273 -0.454685 0.412686
vn -0.789273 -0.454685 0.412686
vn -0.971770 0.206894 -0.113396
vn -0.971770 0.206894 -0.113396
vn -0.971770 0.206894 -0.113396
vn -0.187691 0.027099 0.981854
vn -0.187691 0.027099 0.981854
vn -0.187691 0.027099 0.981854
vn -0.990232 0.084503 -0.110904
vn -0.990232 0.084503 -0.110904
vn -0.990232 0.084503 -0.110904
vn -0.463887 0.260993 0.846576
vn -0.463887 0.260993 0.846576
vn -0.463887 0.260993 0.846576
vn -0.350913 -0.011700 0.936335
vn -0.350913 -0.011700 0.936335
vn -0.350913 -0.011700 0.936335
vn -0.777816 -0.284106 -0.560612
vn -0.777816 -0.284106 -0.560612
vn -0.777816 -0.284106 -0.560612
vn -0.993403 0.100900 -0.054500
vn -0.993403 0.100900 -0.054500
vn -0.993403 0.100900 -0.054500
vn -0.992075 0.106797 -0.066198
vn -0.992075 0.106797 -0.066198
vn -0.992075 0.106797 -0.066198
vn -0.837594 -0.352798 -0.417097
vn -0.837594 -0.352798 -0.417097
vn -0.837594 -0.352798 -0.417097
vn -0.320505 -0.365206 -0.874014
vn -0.320505 -0.365206 -0.874014
vn -0.320505 -0.365206 -0.874014
vn 0.075304 0.536328 -0.840644
vn 0.075304 0.536328 -0.840644
vn 0.075304 0.536328 -0.840644
vn -0.715918 0.506812 -0.480212
vn -0.715918 0.506812 -0.480212
vn -0.715918 0.506812 -0.480212
vn 0.246102 0.329803 -0.911408
vn 0.246102 0.329803 -0.911408
vn 0.246102 0.329803 -0.911408
vn -0.939321 0.131803 -0.316707
vn -0.939321 0.131803 -0.316707
vn -0.939321 0.131803 -0.316707
vn 0.033598 0.996953 -0.070397
vn 0.033598 0.996953 -0.070397
vn 0.033598 0.996953 -0.070397
vn -0.202810 -0.535626 -0.819740
vn -0.202810 -0.535626 -0.819740
vn -0.202810 -0.535626 -0.819740
vn 0.391501 -0.727302 -0.563701
vn 0.391501 -0.727302 -0.563701
vn 0.391501 -0.727302 -0.563701
vn 0.977099 -0.205200 0.056300
vn 0.977099 -0.205200 0.056300
vn 0.977099 -0.205200 0.056300
vn 0.494183 0.725175 -0.479483
vn 0.494183 0.725175 -0.479483
vn 0.494183 0.725175 -0.479483
vn 0.478082 -0.322488 -0.816969
vn 0.478082 -0.322488 -0.816969
vn 0.478082 -0.322488 -0.816969
vn -0.461221 -0.879840 -0.114705
vn -0.461221 -0.879840 -0.114705
vn -0.461221 -0.879840 -0.114705
vn -0.740075 0.533182 0.409886
vn -0.740075 0.533182 0.409886
vn -0.740075 0.533182 0.409886
vn -0.478184 0.317989 0.818672
vn -0.478184 0.317989 0.818672
vn -0.478184 0.317989 0.818672
vn -0.042201 -0.995323 0.086902
vn -0.042201 -0.995323 0.086902
vn -0.042201 -0.995323 0.086902
vn 0.170609 0.870248 0.462126
vn 0.170609 0.870248 0.462126
vn 0.170609 0.870248 0.462126
vn 0.946083 0.044199 -0.320894
vn 0.946083 0.044199 -0.320894
vn 0.946083 0.044199 -0.320894
vn 0.946209 0.063301 -0.317303
vn 0.946209 0.063301 -0.317303
vn 0.946209 0.063301 -0.317303
vn 0.718352 0.500936 0.482735
vn 0.718352 0.500936 0.482735
vn 0.718352 0.500936 0.482735
vn 0.984977 0.054099 0.163996
vn 0.984977 0.054099 0.163996
vn 0.984977 0.054099 0.163996
vn 0.467678 0.378282 0.798862
vn 0.467678 0.378282 0.798862
vn 0.467678 0.378282 0.798862
vn 0.912817 -0.188604 0.362207
vn 0.912817 -0.188604 0.362207
vn 0.912817 -0.188604 0.362207
vn -0.410603 -0.440403 0.798405
vn -0.410603 -0.440403 0.798405
vn -0.410603 -0.440403 0.798405
vn -0.031898 -0.956348 -0.290484
vn -0.031898 -0.956348 -0.290484
vn -0.031898 -0.956348 -0.290484
vn -0.497186 0.433688 -0.751479
vn -0.497186 0.433688 -0.751479
vn -0.497186 0.433688 -0.751479
vn -0.873124 -0.102903 -0.476513
vn -0.873124 -0.102903 -0.476513
vn -0.873124 -0.102903 -0.476513
vn 0.720190 0.226997 -0.655591
vn 0.720190 0.226997 -0.655591
vn 0.720190 0.226997 -0.655591
vn 0.035699 0.391084 -0.919662
vn 0.035699 0.391084 -0.919662
vn 0.035699 0.391084 -0.919662
vn 0.626114 -0.746017 -0.226805
vn 0.626114 -0.746017 -0.226805
vn 0.626114 -0.746017 -0.226805
vn 0.932370 -0.361489 0.003400
vn 0.932370 -0.361489 0.003400
vn 0.932370 -0.361489 0.003400
vn -0.866680 0.236595 0.439190
vn -0.866680 0.236595 0.439190
vn -0.866680 0.236595 0.439190
vn -0.996102 -0.086200 -0.018700
vn -0.996102 -0.086200 -0.018700
vn -0.996102 -0.086200 -0.018700
vn -0.140696 0.939974 0.310891
vn -0.140696 0.939974 0.310891
vn -0.140696 0.939974 0.310891
vn 0.171003 0.869915 0.462608
vn 0.171003 0.869915 0.462608
vn 0.171003 0.869915 0.462608
vn 0.945286 -0.050599 0.322295
vn 0.945286 -0.050599 0.322295
vn 0.945286 -0.050599 0.322295
vn 0.946795 -0.318898 -0.043400
vn 0.946795 -0.318898 -0.043400
vn 0.946795 -0.318898 -0.043400
vn 0.143305 0.970835 0.192207
vn 0.143305 0.970835 0.192207
vn 0.143305 0.970835 0.192207
vn 0.228801 -0.973104 -0.026800
vn 0.228801 -0.973104 -0.026800
vn 0.228801 -0.973104 -0.026800
vn 0.941215 -0.322605 -0.100202
vn 0.941215 -0.322605 -0.100202
vn 0.941215 -0.322605 -0.100202
vn 0.120705 -0.486620 -0.865235
vn 0.120705 -0.486620 -0.865235
vn 0.120705 -0.486620 -0.865235
vn 0.939890 -0.338296 -0.046500
vn 0.939890 -0.338296 -0.046500
vn 0.939890 -0.338296 -0.046500
vn 0.735298 -0.348799 -0.581099
vn 0.735298 -0.348799 -0.581099
vn 0.735298 -0.348799 -0.581099
vn 0.127495 -0.991064 -0.039199
vn 0.127495 -0.991064 -0.039199
vn 0.127495 -0.991064 -0.039199
vn 0.972875 -0.217094 -0.079898
vn 0.972875 -0.217094 -0.079898
vn 0.972875 -0.217094 -0.079898
vn -0.157697 -0.024500 0.987184
vn -0.157697 -0.024500 0.987184
vn -0.157697 -0.024500 0.987184
vn -0.151406 0.008300 0.988437
vn -0.151406 0.008300 0.988437
vn -0.151406 0.008300 0.988437
vn 0.002800 -0.999105 -0.042200
vn 0.002800 -0.999105 -0.042200
vn 0.002800 -0.999105 -0.042200
vn 0.945255 -0.050598 0.322385
vn 0.945255 -0.050598 0.322385
vn 0.945255 -0.050598 0.322385
vn 0.945255 -0.050598 0.322385
vn 0.945255 -0.050598 0.322385
vn 0.945255 -0.050598 0.322385
vn 0.984993 0.054100 0.163899
vn 0.984993 0.054100 0.163899
vn 0.984993 0.054100 0.163899
vn 0.999817 -0.005300 0.018400
vn 0.999817 -0.005300 0.018400
vn 0.999817 -0.005300 0.018400
vn 0.436817 0.486519 0.756630
vn 0.436817 0.486519 0.756630
vn 0.436817 0.486519 0.756630
vn 0.436817 0.486519 0.756630
vn 0.436817 0.486519 0.756630
vn 0.436817 0.486519 0.756630
vn -0.139796 -0.014500 0.990074
vn -0.139796 -0.014500 0.990074
vn -0.139796 -0.014500 0.990074
vn -0.789424 -0.455214 0.411813
vn -0.789424 -0.455214 0.411813
vn -0.789424 -0.455214 0.411813
vn -0.749697 -0.432498 0.500898
vn -0.749697 -0.432498 0.500898
vn -0.749697 -0.432498 0.500898
vn -0.962464 0.217392 -0.162494
vn -0.962464 0.217392 -0.162494
vn -0.962464 0.217392 -0.162494
vn -0.187691 0.027099 0.981854
vn -0.187691 0.027099 0.981854
vn -0.187691 0.027099 0.981854
vn -0.187691 0.027099 0.981854
vn -0.187691 0.027099 0.981854
vn -0.187691 0.027099 0.981854
vn -0.988759 0.093096 -0.116995
vn -0.988759 0.093096 -0.116995
vn -0.988759 0.093096 -0.116995
vn -0.384699 0.281099 0.879198
vn -0.384699 0.281099 0.879198
vn -0.384699 0.281099 0.879198
vn -0.305410 0.067402 0.949832
vn -0.305410 0.067402 0.949832
vn -0.305410 0.067402 0.949832
vn -0.283907 0.079802 0.955525
vn -0.283907 0.079802 0.955525
vn -0.283907 0.079802 0.955525
vn -0.320505 -0.365206 -0.874014
vn -0.320505 -0.365206 -0.874014
vn -0.320505 -0.365206 -0.874014
vn 0.075304 0.536328 -0.840644
vn 0.075304 0.536328 -0.840644
vn 0.075304 0.536328 -0.840644
vn -0.715918 0.506812 -0.480212
vn -0.715918 0.506812 -0.480212
vn -0.715918 0.506812 -0.480212
vn 0.246102 0.329803 -0.911408
vn 0.246102 0.329803 -0.911408
vn 0.246102 0.329803 -0.911408
vn -0.939321 0.131803 -0.316707
vn -0.939321 0.131803 -0.316707
vn -0.939321 0.131803 -0.316707
vn 0.977099 -0.205200 0.056300
vn 0.977099 -0.205200 0.056300
vn 0.977099 -0.205200 0.056300
vn 0.494183 0.725175 -0.479483
vn 0.494183 0.725175 -0.479483
vn 0.494183 0.725175 -0.479483
vn 0.478082 -0.322488 -0.816969
vn 0.478082 -0.322488 -0.816969
vn 0.478082 -0.322488 -0.816969
vn 0.170707 0.870234 0.462118
vn 0.170707 0.870234 0.462118
vn 0.170707 0.870234 0.462118
vn 0.654683 0.129197 0.744781
vn 0.654683 0.129197 0.744781
vn 0.654683 0.129197 0.744781
vn 0.784102 0.612701 -0.098900
vn 0.784102 0.612701 -0.098900
vn 0.784102 0.612701 -0.098900
vn 0.716614 0.488110 0.498210
vn 0.716614 0.488110 0.498210
vn 0.716614 0.488110 0.498210
vn 0.743791 0.665892 0.057999
vn 0.743791 0.665892 0.057999
vn 0.743791 0.665892 0.057999
vn 0.984993 0.054100 0.163899
vn 0.984993 0.054100 0.163899
vn 0.984993 0.054100 0.163899
vn 0.468428 -0.206412 0.859051
vn 0.468428 -0.206412 0.859051
vn 0.468428 -0.206412 0.859051
vn 0.559282 -0.105997 0.822173
vn 0.559282 -0.105997 0.822173
vn 0.559282 -0.105997 0.822173
vn 0.501005 0.627606 0.595906
vn 0.501005 0.627606 0.595906
vn 0.501005 0.627606 0.595906
vn 0.205905 0.946624 0.248006
vn 0.205905 0.946624 0.248006
vn 0.205905 0.946624 0.248006
vn 0.912817 -0.188604 0.362207
vn 0.912817 -0.188604 0.362207
vn 0.912817 -0.188604 0.362207
vn -0.970190 -0.187698 -0.153298
vn -0.970190 -0.187698 -0.153298
vn -0.970190 -0.187698 -0.153298
vn -0.568788 -0.524089 0.633886
vn -0.568788 -0.524089 0.633886
vn -0.568788 -0.524089 0.633886
vn -0.185698 -0.608792 0.771290
vn -0.185698 -0.608792 0.771290
vn -0.185698 -0.608792 0.771290
vn 0.012800 -0.886377 -0.462788
vn 0.012800 -0.886377 -0.462788
vn 0.012800 -0.886377 -0.462788
vn -0.414007 0.133602 -0.900416
vn -0.414007 0.133602 -0.900416
vn -0.414007 0.133602 -0.900416
vn -0.396389 -0.292692 -0.870176
vn -0.396389 -0.292692 -0.870176
vn -0.396389 -0.292692 -0.870176
vn -0.533009 0.285705 -0.796413
vn -0.533009 0.285705 -0.796413
vn -0.533009 0.285705 -0.796413
vn -0.873124 -0.102903 -0.476513
vn -0.873124 -0.102903 -0.476513
vn -0.873124 -0.102903 -0.476513
vn 0.621283 0.195995 -0.758679
vn 0.621283 0.195995 -0.758679
vn 0.621283 0.195995 -0.758679
vn 0.035699 0.391084 -0.919662
vn 0.035699 0.391084 -0.919662
vn 0.035699 0.391084 -0.919662
vn 0.641824 -0.707626 -0.295511
vn 0.641824 -0.707626 -0.295511
vn 0.641824 -0.707626 -0.295511
vn 0.658291 -0.548092 -0.515993
vn 0.658291 -0.548092 -0.515993
vn 0.658291 -0.548092 -0.515993
vn 0.664703 -0.548002 -0.507802
vn 0.664703 -0.548002 -0.507802
vn 0.664703 -0.548002 -0.507802
vn 0.066502 -0.185806 -0.980333
vn 0.066502 -0.185806 -0.980333
vn 0.066502 -0.185806 -0.980333
vn 0.637798 -0.734998 -0.230199
vn 0.637798 -0.734998 -0.230199
vn 0.637798 -0.734998 -0.230199
vn 0.330412 -0.938535 -0.099904
vn 0.330412 -0.938535 -0.099904
vn 0.330412 -0.938535 -0.099904
vn 0.932370 -0.361489 0.003400
vn 0.932370 -0.361489 0.003400
vn 0.932370 -0.361489 0.003400
vn -0.812739 0.369318 0.450622
vn -0.812739 0.369318 0.450622
vn -0.812739 0.369318 0.450622
vn -0.912630 0.125604 0.389013
vn -0.912630 0.125604 0.389013
vn -0.912630 0.125604 0.389013
vn -0.636294 -0.472396 0.609895
vn -0.636294 -0.472396 0.609895
vn -0.636294 -0.472396 0.609895
vn -0.996591 -0.064299 -0.051700
vn -0.996591 -0.064299 -0.051700
vn -0.996591 -0.064299 -0.051700
s off
g rock56
usemtl standardSurface1SG
f 2/1/1 1/2/2 4/3/3
f 2/1/4 71/4/5 1/2/6
f 9/5/7 29/6/8 15/7/9
f 1/2/10 3/8/11 4/3/12
f 3/9/13 1/10/14 7/11/15
f 5/12/16 71/4/17 6/13/18
f 3/9/19 7/11/20 8/14/21
f 9/5/22 57/15/23 56/16/24
f 16/17/25 26/18/26 5/12/27
f 59/19/28 10/20/29 13/21/30
f 63/22/31 11/23/32 8/14/33
f 14/24/34 60/25/35 12/26/36
f 8/14/37 64/27/38 63/22/39
f 11/23/40 61/28/41 14/29/42
f 59/19/43 12/30/44 60/31/45
f 10/32/46 57/15/47 15/7/48
f 18/33/49 36/34/50 35/35/51
f 13/36/52 10/32/53 15/7/54
f 44/37/55 19/38/56 13/21/57
f 29/6/58 33/39/59 39/40/60
f 31/41/61 9/5/62 7/11/63
f 38/42/64 17/43/65 13/36/66
f 34/44/67 28/45/68 27/46/69
f 17/47/70 36/34/71 18/33/72
f 18/48/73 13/21/74 17/49/75
f 43/50/76 65/51/77 70/52/78
f 68/53/79 20/54/80 22/55/81
f 41/56/82 35/35/83 16/57/84
f 21/58/85 68/53/86 22/55/87
f 20/59/88 66/60/89 16/57/90
f 65/61/91 42/62/92 41/56/93
f 12/63/94 21/64/95 22/65/96
f 6/66/97 2/67/98 22/55/99
f 20/54/100 6/66/101 22/55/102
f 12/68/103 22/55/104 23/69/105
f 50/70/106 24/71/107 23/72/108
f 48/73/109 25/74/110 4/75/111
f 25/76/112 46/77/113 2/67/114
f 24/71/115 48/73/116 4/75/117
f 22/55/118 46/77/119 51/78/120
f 25/79/121 2/1/122 4/3/123
f 23/72/124 24/71/125 12/80/126
f 24/81/127 14/82/128 12/83/129
f 14/29/130 54/84/131 3/9/132
f 54/85/133 4/3/134 3/8/135
f 14/29/136 52/86/137 55/87/138
f 19/38/139 21/88/140 12/30/141
f 6/66/142 20/54/143 5/89/144
f 16/57/145 5/90/146 20/59/147
f 19/38/148 12/30/149 13/21/150
f 26/18/151 1/2/152 5/12/153
f 8/14/154 14/29/155 3/9/156
f 8/14/157 11/23/158 14/29/159
f 29/91/160 30/92/161 26/93/162
f 1/10/163 31/41/164 7/11/165
f 38/94/166 39/95/167 35/35/168
f 13/36/169 39/40/170 38/42/171
f 43/96/172 44/97/173 41/56/174
f 18/48/175 44/37/176 13/21/177
f 49/98/178 50/70/179 51/99/180
f 51/78/181 23/69/182 22/55/183
f 53/100/184 55/87/185 52/86/186
f 4/75/187 52/101/188 24/71/189
f 63/102/190 64/103/191 61/104/192
f 7/11/193 56/16/194 64/27/195
f 68/53/196 69/105/197 65/51/198
f 19/106/199 69/105/200 21/58/201
f 2/1/202 6/13/203 71/4/204
f 5/12/205 1/2/206 71/4/207
f 9/5/208 30/107/209 29/6/210
f 9/5/211 15/7/212 57/15/213
f 16/17/214 27/46/215 26/18/216
f 59/19/217 58/108/218 10/20/219
f 63/22/220 62/109/221 11/23/222
f 14/24/223 61/110/224 60/25/225
f 8/14/226 7/11/227 64/27/228
f 11/23/229 62/109/230 61/28/231
f 59/19/232 13/21/233 12/30/234
f 10/32/235 58/111/236 57/15/237
f 35/35/238 40/112/239 18/33/240
f 40/112/241 45/113/242 18/33/243
f 44/37/244 43/114/245 19/38/246
f 39/40/247 15/7/248 29/6/249
f 29/6/250 28/115/251 33/39/252
f 31/41/253 30/107/254 9/5/255
f 38/42/256 37/116/257 17/43/258
f 27/46/259 16/17/260 34/44/261
f 34/44/262 33/117/263 28/45/264
f 17/47/265 37/118/266 36/34/267
f 70/52/268 19/106/269 43/50/270
f 43/50/271 42/119/272 65/51/273
f 68/53/274 67/120/275 20/54/276
f 40/112/277 35/35/278 41/56/279
f 35/35/280 34/121/281 16/57/282
f 21/58/283 69/105/284 68/53/285
f 20/59/286 67/122/287 66/60/288
f 16/57/289 66/60/290 41/56/291
f 66/60/292 65/61/293 41/56/294
f 50/70/295 49/98/296 24/71/297
f 48/73/298 47/123/299 25/74/300
f 25/76/301 47/124/302 46/77/303
f 24/71/304 49/98/305 48/73/306
f 22/55/307 2/67/308 46/77/309
f 14/29/310 55/87/311 54/84/312
f 54/85/313 53/125/314 4/3/315
f 14/29/316 24/126/317 52/86/318
f 26/18/319 32/127/320 1/2/321
f 32/128/322 26/129/323 31/130/324
f 26/131/325 27/132/326 28/133/327
f 31/134/328 26/93/329 30/92/330
f 28/135/331 29/91/332 26/93/333
f 1/10/334 32/136/335 31/41/336
f 39/95/337 33/137/338 34/121/339
f 34/121/340 35/35/341 39/95/342
f 35/138/343 36/139/344 38/140/345
f 36/139/346 37/141/347 38/140/348
f 13/36/349 15/7/350 39/40/351
f 45/142/352 40/143/353 44/144/354
f 40/112/355 41/56/356 44/97/357
f 41/56/358 42/62/359 43/96/360
f 18/48/361 45/145/362 44/37/363
f 51/99/364 46/146/365 48/73/366
f 46/146/367 47/123/368 48/73/369
f 48/73/370 49/98/371 51/99/372
f 51/78/373 50/147/374 23/69/375
f 53/100/376 54/84/377 55/87/378
f 4/75/379 53/148/380 52/101/381
f 64/103/382 56/149/383 60/150/384
f 56/16/385 57/15/386 59/151/387
f 60/152/388 56/16/389 59/151/390
f 57/153/391 58/154/392 59/155/393
f 60/150/394 61/104/395 64/103/396
f 61/104/397 62/156/398 63/102/399
f 7/11/400 9/5/401 56/16/402
f 70/52/403 65/51/404 69/105/405
f 65/51/406 66/157/407 68/53/408
f 66/60/409 67/122/410 68/158/411
f 19/106/412 70/52/413 69/105/414
