# This file uses centimeters as units for non-parametric coordinates.

mtllib rock_31.mtl
g default
v 0.539690 -0.325767 -0.113354
v 0.429370 -0.549182 0.239017
v 0.301989 -0.405168 -0.324535
v 0.492343 0.383738 -0.227413
v 0.443329 0.328598 0.228999
v -0.020777 -0.050530 -0.511512
v 0.185788 -0.033538 0.511512
v 0.277858 0.178325 -0.443165
v 0.193784 0.599935 -0.266780
v -0.286601 0.536460 0.073406
v 0.424371 0.410349 0.126041
v 0.106956 0.575836 0.283691
v -0.178802 0.222178 0.455207
v 0.253350 0.288757 0.474029
v 0.094990 0.493897 0.442831
v 0.128320 0.401243 0.493135
v 0.040107 0.397511 0.499328
v 0.095557 0.375894 0.496694
v -0.235180 -0.006706 0.391038
v -0.196368 -0.342011 0.450545
v -0.309850 0.216123 0.193708
v -0.539690 0.147897 0.144874
v -0.493742 -0.449004 0.053876
v -0.402781 0.270653 -0.189825
v -0.539681 0.151213 -0.107989
v -0.513170 0.104388 -0.123719
v -0.490433 0.095267 -0.211975
v -0.375304 -0.143819 -0.241212
v -0.033530 -0.422167 -0.352923
v -0.246008 -0.066021 -0.372705
v -0.101645 -0.599935 -0.028545
v -0.300467 0.311002 -0.344512
v -0.224380 0.001884 -0.493311
v -0.042986 -0.468074 0.328520
v -0.005188 -0.590763 0.189251
v 0.073075 -0.392250 0.327134
v 0.156248 -0.577424 0.271632
v 0.372291 0.487117 0.211003
v 0.292510 0.534737 0.257805
v 0.332110 0.482366 0.288365
v 0.373673 0.470745 0.244413
v -0.170403 0.397119 -0.390761
v -0.197485 0.393579 -0.390879
v -0.232529 0.404338 -0.360211
v -0.237159 0.422155 -0.333200
v -0.207453 0.475151 -0.302211
v -0.125691 0.487136 -0.354052
v 0.467766 0.040265 -0.141648
vt 0.179067 0.404411
vt 0.305199 0.401809
vt 0.319508 0.529934
vt 0.642116 0.112273
vt 0.349225 0.202786
vt 0.510594 0.000000
vt 0.060935 0.231372
vt 0.191030 0.153295
vt 0.302522 0.248156
vt 0.480920 0.368017
vt 0.622358 0.267734
vt 0.642116 0.416140
vt 0.976900 0.252067
vt 0.893051 0.117475
vt 0.976900 0.000000
vt 0.227693 0.000000
vt 0.319508 0.099457
vt 0.642115 0.198808
vt 0.809900 0.000000
vt 0.809900 0.206788
vt 0.000000 0.207268
vt 0.066836 0.059615
vt 0.894713 0.300810
vt 0.894713 0.437285
vt 0.788850 0.363662
vt 0.675670 0.867060
vt 0.693896 0.822502
vt 0.768407 0.818731
vt 0.508468 0.408150
vt 0.376318 0.847217
vt 0.376318 1.000000
vt 0.319508 0.901307
vt 0.809900 0.136807
vt 0.893051 0.000000
vt 0.893051 0.299894
vt 0.323636 0.873119
vt 0.465102 0.650237
vt 0.380165 0.515536
vt 0.411299 0.454002
vt 0.585750 0.480839
vt 0.432477 0.430034
vt 0.362162 0.339271
vt 0.275121 0.611514
vt 0.319405 0.529934
vt 0.319405 0.664319
vt 0.275948 0.569059
vt 0.367298 0.566992
vt 0.357518 0.552946
vt 0.385161 0.567745
vt 0.319508 0.570727
vt 0.330747 0.699204
vt 0.319508 0.375824
vt 0.456038 0.427268
vt 0.466343 0.435999
vt 0.466816 0.847217
vt 0.564565 0.618851
vt 0.495432 0.724687
vt 0.650080 0.664826
vt 0.912598 0.792569
vt 0.806845 0.940563
vt 0.912598 0.536747
vt 0.833200 0.779031
vt 0.649238 0.847217
vt 0.317205 0.795678
vt 0.275121 0.727658
vt 0.317205 0.664319
vt 0.825262 0.757580
vt 0.793014 0.747703
vt 0.773116 0.641961
vt 0.284057 0.870991
vt 0.317205 0.962287
vt 0.697239 0.661672
vt 0.678043 0.506325
vt 0.806839 0.454002
vt 0.650389 0.850233
vt 0.650080 0.682021
vt 0.675105 0.889832
vt 0.059841 0.400063
vt 0.057471 0.060391
vt 0.181617 0.708894
vt 0.037321 0.660680
vt 0.010201 0.567127
vt 0.088509 0.714200
vt 0.275121 0.742702
vt 0.211290 0.856843
vt 0.204506 0.529934
vt 0.000000 0.856843
vt 0.033056 0.759423
vt 0.014870 0.688967
vt 1.000000 0.454002
vt 0.994268 0.539452
vt 0.963509 0.520850
vt 0.416739 0.978770
vt 0.376318 0.902097
vt 0.416739 0.847217
vt 0.912598 0.598641
vt 1.000000 0.690027
vt 0.912598 0.836441
vt 0.990504 0.690027
vt 0.990504 0.926549
vt 0.788850 0.437285
vt 0.681642 0.305777
vt 0.788850 0.206788
vt 0.824784 0.057951
vt 0.432732 0.454002
vt 0.849335 0.023444
vt 0.657154 0.305247
vt 0.647766 0.342441
vt 0.667317 0.857865
vt 0.683641 0.343869
vt 0.642115 0.332687
vt 0.646727 0.313328
vt 0.095496 0.028277
vn 0.544167 -0.775108 -0.321077
vn 0.544167 -0.775108 -0.321077
vn 0.544167 -0.775108 -0.321077
vn 0.889694 0.204499 0.408197
vn 0.889694 0.204499 0.408197
vn 0.889694 0.204499 0.408197
vn 0.623697 0.164799 -0.764096
vn 0.623697 0.164799 -0.764096
vn 0.623697 0.164799 -0.764096
vn 0.864917 0.132503 -0.484109
vn 0.864917 0.132503 -0.484109
vn 0.864917 0.132503 -0.484109
vn 0.993811 -0.045801 0.101201
vn 0.993811 -0.045801 0.101201
vn 0.993811 -0.045801 0.101201
vn 0.824026 -0.162605 0.542717
vn 0.824026 -0.162605 0.542717
vn 0.824026 -0.162605 0.542717
vn 0.438418 -0.321413 -0.839335
vn 0.438418 -0.321413 -0.839335
vn 0.438418 -0.321413 -0.839335
vn -0.073597 0.372383 -0.925157
vn -0.073597 0.372383 -0.925157
vn -0.073597 0.372383 -0.925157
vn 0.411088 0.420388 -0.808876
vn 0.411088 0.420388 -0.808876
vn 0.411088 0.420388 -0.808876
vn 0.136395 0.921166 0.364486
vn 0.136395 0.921166 0.364486
vn 0.136395 0.921166 0.364486
vn -0.021101 0.253807 -0.967025
vn -0.021101 0.253807 -0.967025
vn -0.021101 0.253807 -0.967025
vn 0.581370 0.812058 0.050697
vn 0.581370 0.812058 0.050697
vn 0.581370 0.812058 0.050697
vn -0.782170 0.485281 -0.390785
vn -0.782170 0.485281 -0.390785
vn -0.782170 0.485281 -0.390785
vn 0.907957 0.393181 0.144993
vn 0.907957 0.393181 0.144993
vn 0.907957 0.393181 0.144993
vn 0.241310 0.618724 0.747630
vn 0.241310 0.618724 0.747630
vn 0.241310 0.618724 0.747630
vn 0.186800 0.841401 -0.507100
vn 0.186800 0.841401 -0.507100
vn 0.186800 0.841401 -0.507100
vn 0.241310 0.618724 0.747630
vn 0.241310 0.618724 0.747630
vn 0.241310 0.618724 0.747630
vn -0.664597 0.683497 0.301899
vn -0.664597 0.683497 0.301899
vn -0.664597 0.683497 0.301899
vn -0.409610 0.644215 0.645915
vn -0.409610 0.644215 0.645915
vn -0.409610 0.644215 0.645915
vn 0.732233 0.292113 0.615228
vn 0.732233 0.292113 0.615228
vn 0.732233 0.292113 0.615228
vn 0.709719 0.603216 0.363910
vn 0.709719 0.603216 0.363910
vn 0.709719 0.603216 0.363910
vn 0.579122 0.539920 0.610823
vn 0.579122 0.539920 0.610823
vn 0.579122 0.539920 0.610823
vn -0.216508 0.404515 0.888533
vn -0.216508 0.404515 0.888533
vn -0.216508 0.404515 0.888533
vn 0.201212 0.407524 0.890752
vn 0.201212 0.407524 0.890752
vn 0.201212 0.407524 0.890752
vn -0.603201 0.630101 0.489001
vn -0.603201 0.630101 0.489001
vn -0.603201 0.630101 0.489001
vn 0.127905 -0.026201 0.991440
vn 0.127905 -0.026201 0.991440
vn 0.127905 -0.026201 0.991440
vn 0.067203 0.050902 0.996440
vn 0.067203 0.050902 0.996440
vn 0.067203 0.050902 0.996440
vn 0.182594 0.075698 0.980270
vn 0.182594 0.075698 0.980270
vn 0.182594 0.075698 0.980270
vn -0.173702 -0.030900 0.984313
vn -0.173702 -0.030900 0.984313
vn -0.173702 -0.030900 0.984313
vn 0.794122 -0.096703 0.600016
vn 0.794122 -0.096703 0.600016
vn 0.794122 -0.096703 0.600016
vn 0.892247 0.418975 0.168390
vn 0.892247 0.418975 0.168390
vn 0.892247 0.418975 0.168390
vn -0.154904 -0.003300 0.987924
vn -0.154904 -0.003300 0.987924
vn -0.154904 -0.003300 0.987924
vn -0.873021 0.225705 0.432310
vn -0.873021 0.225705 0.432310
vn -0.873021 0.225705 0.432310
vn -0.784204 0.019300 0.620203
vn -0.784204 0.019300 0.620203
vn -0.784204 0.019300 0.620203
vn -0.890890 0.094899 0.444195
vn -0.890890 0.094899 0.444195
vn -0.890890 0.094899 0.444195
vn -0.293897 0.354696 0.887590
vn -0.293897 0.354696 0.887590
vn -0.293897 0.354696 0.887590
vn -0.328197 0.562195 0.759094
vn -0.328197 0.562195 0.759094
vn -0.328197 0.562195 0.759094
vn -0.840665 0.519378 -0.153394
vn -0.840665 0.519378 -0.153394
vn -0.840665 0.519378 -0.153394
vn -0.997062 -0.076597 -0.001000
vn -0.997062 -0.076597 -0.001000
vn -0.997062 -0.076597 -0.001000
vn -0.770303 -0.153601 0.618902
vn -0.770303 -0.153601 0.618902
vn -0.770303 -0.153601 0.618902
vn -0.605102 0.070700 0.793003
vn -0.605102 0.070700 0.793003
vn -0.605102 0.070700 0.793003
vn -0.654015 0.756417 0.009900
vn -0.654015 0.756417 0.009900
vn -0.654015 0.756417 0.009900
vn -0.512185 -0.001500 -0.858874
vn -0.512185 -0.001500 -0.858874
vn -0.512185 -0.001500 -0.858874
vn -0.757972 -0.223292 -0.612878
vn -0.757972 -0.223292 -0.612878
vn -0.757972 -0.223292 -0.612878
vn -0.848478 0.457588 -0.265893
vn -0.848478 0.457588 -0.265893
vn -0.848478 0.457588 -0.265893
vn -0.893711 -0.407305 -0.188102
vn -0.893711 -0.407305 -0.188102
vn -0.893711 -0.407305 -0.188102
vn 0.004100 0.123295 -0.992362
vn 0.004100 0.123295 -0.992362
vn 0.004100 0.123295 -0.992362
vn -0.545314 -0.367209 -0.753519
vn -0.545314 -0.367209 -0.753519
vn -0.545314 -0.367209 -0.753519
vn -0.645180 -0.604781 -0.466886
vn -0.645180 -0.604781 -0.466886
vn -0.645180 -0.604781 -0.466886
vn -0.819412 -0.201003 -0.536808
vn -0.819412 -0.201003 -0.536808
vn -0.819412 -0.201003 -0.536808
vn -0.372505 -0.566308 -0.735211
vn -0.372505 -0.566308 -0.735211
vn -0.372505 -0.566308 -0.735211
vn -0.698065 -0.047398 -0.714464
vn -0.698065 -0.047398 -0.714464
vn -0.698065 -0.047398 -0.714464
vn -0.835520 0.012700 -0.549313
vn -0.835520 0.012700 -0.549313
vn -0.835520 0.012700 -0.549313
vn -0.554989 0.245895 -0.794684
vn -0.554989 0.245895 -0.794684
vn -0.554989 0.245895 -0.794684
vn -0.765913 0.585110 -0.266504
vn -0.765913 0.585110 -0.266504
vn -0.765913 0.585110 -0.266504
vn -0.962968 -0.121096 -0.240892
vn -0.962968 -0.121096 -0.240892
vn -0.962968 -0.121096 -0.240892
vn -0.772681 -0.483788 -0.410990
vn -0.772681 -0.483788 -0.410990
vn -0.772681 -0.483788 -0.410990
vn -0.179101 -0.380901 -0.907104
vn -0.179101 -0.380901 -0.907104
vn -0.179101 -0.380901 -0.907104
vn -0.029099 0.254789 -0.966559
vn -0.029099 0.254789 -0.966559
vn -0.029099 0.254789 -0.966559
vn -0.392320 -0.840042 0.374719
vn -0.392320 -0.840042 0.374719
vn -0.392320 -0.840042 0.374719
vn -0.715313 -0.609111 0.342506
vn -0.715313 -0.609111 0.342506
vn -0.715313 -0.609111 0.342506
vn 0.083997 -0.881168 -0.465283
vn 0.083997 -0.881168 -0.465283
vn 0.083997 -0.881168 -0.465283
vn -0.247498 -0.872692 0.420896
vn -0.247498 -0.872692 0.420896
vn -0.247498 -0.872692 0.420896
vn 0.234898 -0.927690 -0.290197
vn 0.234898 -0.927690 -0.290197
vn 0.234898 -0.927690 -0.290197
vn 0.095295 -0.995449 -0.000300
vn 0.095295 -0.995449 -0.000300
vn 0.095295 -0.995449 -0.000300
vn -0.384905 -0.419306 0.822211
vn -0.384905 -0.419306 0.822211
vn -0.384905 -0.419306 0.822211
vn 0.415386 -0.623679 0.662178
vn 0.415386 -0.623679 0.662178
vn 0.415386 -0.623679 0.662178
vn 0.098896 -0.994557 -0.032799
vn 0.098896 -0.994557 -0.032799
vn 0.098896 -0.994557 -0.032799
vn 0.138594 -0.226690 0.964056
vn 0.138594 -0.226690 0.964056
vn 0.138594 -0.226690 0.964056
vn 0.302209 -0.447214 0.841825
vn 0.302209 -0.447214 0.841825
vn 0.302209 -0.447214 0.841825
vn 0.279001 -0.506902 0.815603
vn 0.279001 -0.506902 0.815603
vn 0.279001 -0.506902 0.815603
vn 0.016300 -0.461099 0.887199
vn 0.016300 -0.461099 0.887199
vn 0.016300 -0.461099 0.887199
vn 0.097300 -0.393401 -0.914203
vn 0.097300 -0.393401 -0.914203
vn 0.097300 -0.393401 -0.914203
vn -0.273286 0.938553 -0.210790
vn -0.273286 0.938553 -0.210790
vn -0.273286 0.938553 -0.210790
vn 0.570615 0.746520 0.342209
vn 0.570615 0.746520 0.342209
vn 0.570615 0.746520 0.342209
vn 0.079699 0.763395 -0.640996
vn 0.079699 0.763395 -0.640996
vn 0.079699 0.763395 -0.640996
vn 0.732233 0.292113 0.615228
vn 0.732233 0.292113 0.615228
vn 0.732233 0.292113 0.615228
vn 0.892247 0.418975 0.168390
vn 0.892247 0.418975 0.168390
vn 0.892247 0.418975 0.168390
vn 0.626083 0.687782 0.367390
vn 0.626083 0.687782 0.367390
vn 0.626083 0.687782 0.367390
vn 0.079699 0.763395 -0.640996
vn 0.079699 0.763395 -0.640996
vn 0.079699 0.763395 -0.640996
vn -0.370111 0.614718 -0.696520
vn -0.370111 0.614718 -0.696520
vn -0.370111 0.614718 -0.696520
vn 0.150804 0.304108 -0.940626
vn 0.150804 0.304108 -0.940626
vn 0.150804 0.304108 -0.940626
vn -0.758133 0.477021 -0.444619
vn -0.758133 0.477021 -0.444619
vn -0.758133 0.477021 -0.444619
vn -0.577476 0.292088 -0.762369
vn -0.577476 0.292088 -0.762369
vn -0.577476 0.292088 -0.762369
vn -0.765529 0.589622 -0.257510
vn -0.765529 0.589622 -0.257510
vn -0.765529 0.589622 -0.257510
vn -0.272888 0.938059 -0.213491
vn -0.272888 0.938059 -0.213491
vn -0.272888 0.938059 -0.213491
vn -0.508314 0.529414 -0.679218
vn -0.508314 0.529414 -0.679218
vn -0.508314 0.529414 -0.679218
vn -0.114295 0.889364 -0.442682
vn -0.114295 0.889364 -0.442682
vn -0.114295 0.889364 -0.442682
vn -0.183199 0.805898 -0.562998
vn -0.183199 0.805898 -0.562998
vn -0.183199 0.805898 -0.562998
vn 0.147196 0.309992 -0.939276
vn 0.147196 0.309992 -0.939276
vn 0.147196 0.309992 -0.939276
vn 0.784116 -0.202604 -0.586612
vn 0.784116 -0.202604 -0.586612
vn 0.784116 -0.202604 -0.586612
vn 0.979224 0.186205 -0.080302
vn 0.979224 0.186205 -0.080302
vn 0.979224 0.186205 -0.080302
s off
g rock30
usemtl standardSurface1SG
f 3/1/1 1/2/2 2/3/3
f 1/4/4 7/5/5 2/6/6
f 1/2/7 3/1/8 6/7/9
f 8/8/10 48/9/11 1/2/12
f 5/10/13 48/11/14 4/12/15
f 1/4/16 5/10/17 7/5/18
f 1/2/19 6/7/20 8/8/21
f 9/13/22 8/14/23 6/15/24
f 9/16/25 4/17/26 8/8/27
f 10/18/28 11/19/29 9/20/30
f 33/21/31 42/22/32 6/7/33
f 9/23/34 11/24/35 4/25/36
f 45/26/37 32/27/38 24/28/39
f 4/12/40 11/29/41 5/10/42
f 12/30/43 14/31/44 40/32/45
f 12/33/46 11/34/47 10/35/48
f 12/30/49 40/32/50 39/36/51
f 13/37/52 15/38/53 12/39/54
f 13/37/55 12/39/56 10/40/57
f 5/10/58 40/41/59 14/42/60
f 15/43/61 14/44/62 12/45/63
f 15/43/64 16/46/65 14/44/66
f 15/38/67 18/47/68 16/48/69
f 15/38/70 17/49/71 18/47/72
f 13/37/73 17/49/74 15/38/75
f 18/47/76 14/50/77 16/48/78
f 17/49/79 7/51/80 18/47/81
f 18/52/82 7/5/83 14/42/84
f 17/49/85 13/37/86 7/51/87
f 14/42/88 7/5/89 5/10/90
f 41/53/91 11/29/92 38/54/93
f 7/51/94 13/37/95 20/55/96
f 13/37/97 10/40/98 21/56/99
f 19/57/100 20/55/101 13/37/102
f 13/37/103 21/56/104 19/57/105
f 21/56/106 10/40/107 22/58/108
f 22/58/109 19/57/110 21/56/111
f 24/28/112 22/59/113 10/60/114
f 23/61/115 22/59/116 25/62/117
f 22/58/118 23/63/119 20/55/120
f 22/58/121 20/55/122 19/57/123
f 24/64/124 25/65/125 22/66/126
f 24/28/127 26/67/128 25/62/129
f 23/61/130 25/62/131 26/67/132
f 27/68/133 26/67/134 24/28/135
f 26/67/136 27/68/137 28/69/138
f 27/70/139 24/64/140 28/71/141
f 28/69/142 30/72/143 29/73/144
f 28/69/145 29/73/146 31/74/147
f 26/67/148 28/69/149 23/61/150
f 23/61/151 28/69/152 31/74/153
f 28/69/154 32/27/155 30/72/156
f 24/28/157 32/27/158 28/69/159
f 32/27/160 43/75/161 33/76/162
f 24/28/163 46/77/164 45/26/165
f 32/27/166 33/76/167 30/72/168
f 33/76/169 29/73/170 30/72/171
f 33/21/172 6/7/173 29/78/174
f 33/21/175 43/79/176 42/22/177
f 31/80/178 34/81/179 20/82/180
f 31/80/181 35/83/182 34/81/183
f 31/80/184 29/84/185 3/85/186
f 20/82/187 23/86/188 31/80/189
f 31/80/190 3/85/191 2/87/192
f 2/87/193 35/83/194 31/80/195
f 35/83/196 37/88/197 36/89/198
f 35/90/199 36/91/200 34/92/201
f 2/87/202 37/88/203 35/83/204
f 36/93/205 37/94/206 2/95/207
f 20/96/208 34/92/209 36/91/210
f 20/96/211 36/91/212 7/97/213
f 36/98/214 2/99/215 7/100/216
f 29/78/217 6/7/218 3/1/219
f 9/101/220 46/102/221 10/103/222
f 38/54/223 40/41/224 41/53/225
f 39/104/226 11/34/227 12/33/228
f 5/10/229 41/53/230 40/41/231
f 41/53/232 5/10/233 11/29/234
f 38/54/235 39/105/236 40/41/237
f 39/104/238 38/106/239 11/34/240
f 45/107/241 46/102/242 42/108/243
f 42/22/244 9/16/245 6/7/246
f 45/26/247 44/109/248 32/27/249
f 32/27/250 44/109/251 43/75/252
f 24/28/253 10/60/254 46/77/255
f 9/101/256 47/110/257 46/102/258
f 47/110/259 42/108/260 46/102/261
f 42/108/262 43/111/263 44/112/264
f 45/107/265 42/108/266 44/112/267
f 42/22/268 47/113/269 9/16/270
f 8/8/271 4/17/272 48/9/273
f 5/10/274 1/4/275 48/11/276
