# This file uses centimeters as units for non-parametric coordinates.

mtllib rock_21.mtl
g default
v -0.012703 0.052376 0.505918
v 0.007228 -0.393267 0.338343
v 0.427517 -0.184536 0.215713
v 0.232628 -0.383348 0.204915
v -0.120554 -0.073670 0.497467
v -0.277658 -0.059313 0.398504
v -0.317894 -0.247166 0.206306
v -0.125560 0.393267 -0.166951
v -0.360287 0.189534 -0.355867
v 0.307724 0.102263 -0.491566
v -0.129743 -0.154823 -0.248629
v 0.537663 -0.062860 0.018007
v 0.426007 0.323636 -0.415895
v 0.229972 0.321749 -0.505917
v -0.228960 0.212567 0.334824
v -0.228358 0.227730 0.310703
v -0.230660 0.271610 0.288641
v -0.285540 0.295667 0.248040
v -0.381944 0.216692 0.268780
v -0.324092 0.160936 0.321331
v -0.309426 0.158890 0.368051
v -0.238685 0.210279 0.395093
v 0.550842 0.205051 -0.197234
v 0.504914 0.239460 -0.291874
v 0.509002 0.293195 -0.303876
v 0.476183 0.289540 -0.230683
v 0.488492 0.275278 -0.193383
v 0.318572 -0.272401 -0.167178
v 0.403593 -0.268209 -0.049833
v 0.361946 -0.304092 0.035039
v 0.279596 -0.380325 0.056612
v 0.203533 -0.319332 -0.121221
v -0.541034 0.060051 0.003679
v -0.526964 0.065853 -0.064474
v -0.545698 0.048022 -0.111385
v -0.515159 0.018933 -0.086267
v -0.517056 -0.016645 -0.080764
v -0.517209 -0.025844 -0.023765
v -0.540527 -0.039301 0.002063
v -0.550842 0.053039 0.017416
vt 1.000000 0.792518
vt 0.917597 0.825218
vt 0.791502 0.765064
vt 0.829182 0.657948
vt 0.054155 0.623021
vt 0.120037 0.721597
vt 0.039349 0.640937
vt 0.000000 0.657031
vt 0.965631 0.600259
vt 0.076438 0.804223
vt 0.005590 0.806461
vt 0.262702 0.710325
vt 0.243954 0.894966
vt 0.053252 0.573959
vt 0.174838 0.019635
vt 0.314190 0.000000
vt 0.449060 0.145760
vt 0.359729 0.497323
vt 0.489618 0.367819
vt 0.499949 0.390794
vt 0.829224 0.468042
vt 0.780459 0.019878
vt 0.806168 0.023606
vt 0.502973 0.330859
vt 0.946956 0.399348
vt 0.820733 0.020932
vt 0.000000 0.419353
vt 0.260320 0.323201
vt 0.490751 0.356266
vt 0.858594 0.545199
vt 0.865287 0.493904
vt 1.000000 0.473616
vt 0.054794 0.185447
vt 0.275241 0.553378
vt 0.464832 0.532742
vt 0.464832 0.766545
vt 0.573776 0.138680
vt 0.616669 0.433861
vt 0.597859 0.433671
vt 0.519659 0.443563
vt 0.340995 0.830558
vt 0.298101 0.755623
vt 0.262702 0.522883
vt 0.439421 0.878766
vt 0.697285 0.973831
vt 0.721674 0.744755
vt 0.791502 1.000000
vt 0.528909 0.715631
vt 0.041165 0.497323
vt 0.469561 0.664258
vt 0.464832 0.611358
vt 0.515437 0.671905
vt 0.946956 0.107725
vt 0.842407 0.004793
vt 0.546607 0.534978
vt 0.262702 0.713873
vt 0.756239 0.000000
vt 0.791502 0.522565
vt 0.518830 0.552410
vt 0.507908 0.532677
vt 0.518830 0.497323
vt 0.515437 0.625747
vt 0.483543 0.671905
vt 0.505984 0.682471
vt 0.477618 0.727231
vt 0.510323 0.729134
vt 0.464832 0.729134
vt 0.597560 0.466950
vt 0.571293 0.462380
vt 0.285927 0.781218
vt 0.644633 0.473616
vt 0.507908 0.611358
vt 0.464832 0.584860
vt 0.507908 0.497323
vt 0.119926 0.172982
vt 0.809962 0.580569
vt 0.398312 0.497323
vt 0.038735 0.125499
vt 0.076635 0.088404
vt 0.119602 0.072477
vt 0.486861 0.732902
vt 0.491141 0.759037
vt 0.466914 0.776169
vt 0.564559 0.503712
vt 0.748012 0.473616
vt 0.519659 0.320618
vt 0.219828 0.497323
vt 0.519659 0.544620
vt 0.518830 0.580707
vt 0.510359 0.576083
vt 0.518830 0.552410
vt 0.464832 0.729134
vt 0.512244 0.743965
vt 0.489549 0.776169
vt 0.484861 0.800197
vt 0.464832 0.800197
vt 0.471477 0.776169
vt 0.564473 0.494425
vn 0.307213 -0.322879 0.895192
vn 0.307213 -0.322879 0.895192
vn 0.307213 -0.322879 0.895192
vn 0.497397 -0.285798 0.819095
vn 0.497397 -0.285798 0.819095
vn 0.497397 -0.285798 0.819095
vn -0.950771 -0.097397 0.294191
vn -0.950771 -0.097397 0.294191
vn -0.950771 -0.097397 0.294191
vn -0.399790 0.069398 0.913976
vn -0.399790 0.069398 0.913976
vn -0.399790 0.069398 0.913976
vn 0.351016 -0.390318 0.851140
vn 0.351016 -0.390318 0.851140
vn 0.351016 -0.390318 0.851140
vn -0.475412 0.352809 0.805921
vn -0.475412 0.352809 0.805921
vn -0.475412 0.352809 0.805921
vn -0.514897 -0.556697 0.651897
vn -0.514897 -0.556697 0.651897
vn -0.514897 -0.556697 0.651897
vn -0.484081 -0.537379 0.690572
vn -0.484081 -0.537379 0.690572
vn -0.484081 -0.537379 0.690572
vn -0.753784 -0.188896 0.629387
vn -0.753784 -0.188896 0.629387
vn -0.753784 -0.188896 0.629387
vn -0.217501 -0.875005 -0.432503
vn -0.217501 -0.875005 -0.432503
vn -0.217501 -0.875005 -0.432503
vn -0.223189 -0.760664 -0.609571
vn -0.223189 -0.760664 -0.609571
vn -0.223189 -0.760664 -0.609571
vn 0.458304 0.418303 0.784207
vn 0.458304 0.418303 0.784207
vn 0.458304 0.418303 0.784207
vn -0.195896 -0.785985 -0.586389
vn -0.195896 -0.785985 -0.586389
vn -0.195896 -0.785985 -0.586389
vn 0.518588 0.717984 0.464290
vn 0.518588 0.717984 0.464290
vn 0.518588 0.717984 0.464290
vn -0.223189 -0.760664 -0.609571
vn -0.223189 -0.760664 -0.609571
vn -0.223189 -0.760664 -0.609571
vn -0.429394 -0.115598 -0.895688
vn -0.429394 -0.115598 -0.895688
vn -0.429394 -0.115598 -0.895688
vn -0.388506 -0.909515 -0.147802
vn -0.388506 -0.909515 -0.147802
vn -0.388506 -0.909515 -0.147802
vn 0.804015 -0.575011 0.151403
vn 0.804015 -0.575011 0.151403
vn 0.804015 -0.575011 0.151403
vn 0.807986 -0.581990 0.091898
vn 0.807986 -0.581990 0.091898
vn 0.807986 -0.581990 0.091898
vn -0.034500 -0.654701 -0.755101
vn -0.034500 -0.654701 -0.755101
vn -0.034500 -0.654701 -0.755101
vn 0.693265 -0.690766 0.205490
vn 0.693265 -0.690766 0.205490
vn 0.693265 -0.690766 0.205490
vn 0.783263 -0.393781 -0.481077
vn 0.783263 -0.393781 -0.481077
vn 0.783263 -0.393781 -0.481077
vn -0.950771 -0.097397 0.294191
vn -0.950771 -0.097397 0.294191
vn -0.950771 -0.097397 0.294191
vn 0.192499 0.936095 0.294398
vn 0.192499 0.936095 0.294398
vn 0.192499 0.936095 0.294398
vn 0.181796 0.974679 0.130197
vn 0.181796 0.974679 0.130197
vn 0.181796 0.974679 0.130197
vn 0.761702 -0.195901 -0.617602
vn 0.761702 -0.195901 -0.617602
vn 0.761702 -0.195901 -0.617602
vn -0.753784 -0.188896 0.629387
vn -0.753784 -0.188896 0.629387
vn -0.753784 -0.188896 0.629387
vn 0.192499 0.936095 0.294398
vn 0.192499 0.936095 0.294398
vn 0.192499 0.936095 0.294398
vn 0.414991 0.087798 -0.905580
vn 0.414991 0.087798 -0.905580
vn 0.414991 0.087798 -0.905580
vn 0.058199 0.987379 -0.147297
vn 0.058199 0.987379 -0.147297
vn 0.058199 0.987379 -0.147297
vn -0.307793 0.812983 -0.494290
vn -0.307793 0.812983 -0.494290
vn -0.307793 0.812983 -0.494290
vn -0.214607 -0.139204 -0.966730
vn -0.214607 -0.139204 -0.966730
vn -0.214607 -0.139204 -0.966730
vn -0.271915 0.518729 0.810545
vn -0.271915 0.518729 0.810545
vn -0.271915 0.518729 0.810545
vn 0.529483 0.840172 0.117296
vn 0.529483 0.840172 0.117296
vn 0.529483 0.840172 0.117296
vn -0.399790 0.069398 0.913976
vn -0.399790 0.069398 0.913976
vn -0.399790 0.069398 0.913976
vn -0.637398 0.769597 -0.038000
vn -0.637398 0.769597 -0.038000
vn -0.637398 0.769597 -0.038000
vn 0.764995 -0.425797 -0.483197
vn 0.764995 -0.425797 -0.483197
vn 0.764995 -0.425797 -0.483197
vn 0.474022 0.607128 0.637729
vn 0.474022 0.607128 0.637729
vn 0.474022 0.607128 0.637729
vn 0.192499 0.936095 0.294398
vn 0.192499 0.936095 0.294398
vn 0.192499 0.936095 0.294398
vn -0.640889 0.764687 -0.067199
vn -0.640889 0.764687 -0.067199
vn -0.640889 0.764687 -0.067199
vn -0.432895 0.386695 0.814290
vn -0.432895 0.386695 0.814290
vn -0.432895 0.386695 0.814290
vn -0.246797 0.516594 0.819891
vn -0.246797 0.516594 0.819891
vn -0.246797 0.516594 0.819891
vn -0.488984 0.851171 0.190794
vn -0.488984 0.851171 0.190794
vn -0.488984 0.851171 0.190794
vn -0.571216 0.818523 -0.061102
vn -0.571216 0.818523 -0.061102
vn -0.571216 0.818523 -0.061102
vn -0.473000 0.751201 0.460400
vn -0.473000 0.751201 0.460400
vn -0.473000 0.751201 0.460400
vn 0.529483 0.840172 0.117296
vn 0.529483 0.840172 0.117296
vn 0.529483 0.840172 0.117296
vn 0.830736 0.553124 -0.062703
vn 0.830736 0.553124 -0.062703
vn 0.830736 0.553124 -0.062703
vn 0.475427 0.515030 0.713241
vn 0.475427 0.515030 0.713241
vn 0.475427 0.515030 0.713241
vn 0.181796 0.974679 0.130197
vn 0.181796 0.974679 0.130197
vn 0.181796 0.974679 0.130197
vn 0.761702 -0.195901 -0.617602
vn 0.761702 -0.195901 -0.617602
vn 0.761702 -0.195901 -0.617602
vn 0.775484 -0.370692 -0.511089
vn 0.775484 -0.370692 -0.511089
vn 0.775484 -0.370692 -0.511089
vn 0.739391 0.662892 -0.117798
vn 0.739391 0.662892 -0.117798
vn 0.739391 0.662892 -0.117798
vn 0.911813 0.022200 0.410006
vn 0.911813 0.022200 0.410006
vn 0.911813 0.022200 0.410006
vn 0.589508 0.488107 0.643609
vn 0.589508 0.488107 0.643609
vn 0.589508 0.488107 0.643609
vn 0.530593 -0.705990 -0.469094
vn 0.530593 -0.705990 -0.469094
vn 0.530593 -0.705990 -0.469094
vn -0.393507 -0.908116 -0.143102
vn -0.393507 -0.908116 -0.143102
vn -0.393507 -0.908116 -0.143102
vn -0.034500 -0.654701 -0.755101
vn -0.034500 -0.654701 -0.755101
vn -0.034500 -0.654701 -0.755101
vn 0.693265 -0.690766 0.205490
vn 0.693265 -0.690766 0.205490
vn 0.693265 -0.690766 0.205490
vn 0.771808 -0.323003 -0.547706
vn 0.771808 -0.323003 -0.547706
vn 0.771808 -0.323003 -0.547706
vn 0.305599 -0.933396 -0.188099
vn 0.305599 -0.933396 -0.188099
vn 0.305599 -0.933396 -0.188099
vn 0.317915 -0.919142 -0.232611
vn 0.317915 -0.919142 -0.232611
vn 0.317915 -0.919142 -0.232611
vn -0.393507 -0.908116 -0.143102
vn -0.393507 -0.908116 -0.143102
vn -0.393507 -0.908116 -0.143102
vn -0.972660 -0.172493 -0.155494
vn -0.972660 -0.172493 -0.155494
vn -0.972660 -0.172493 -0.155494
vn -0.640889 0.764687 -0.067199
vn -0.640889 0.764687 -0.067199
vn -0.640889 0.764687 -0.067199
vn -0.195896 -0.785985 -0.586389
vn -0.195896 -0.785985 -0.586389
vn -0.195896 -0.785985 -0.586389
vn -0.429394 -0.115598 -0.895688
vn -0.429394 -0.115598 -0.895688
vn -0.429394 -0.115598 -0.895688
vn -0.388506 -0.909515 -0.147802
vn -0.388506 -0.909515 -0.147802
vn -0.388506 -0.909515 -0.147802
vn -0.753784 -0.188896 0.629387
vn -0.753784 -0.188896 0.629387
vn -0.753784 -0.188896 0.629387
vn -0.637398 0.769597 -0.038000
vn -0.637398 0.769597 -0.038000
vn -0.637398 0.769597 -0.038000
vn -0.640889 0.764687 -0.067199
vn -0.640889 0.764687 -0.067199
vn -0.640889 0.764687 -0.067199
vn -0.805080 -0.034099 -0.592185
vn -0.805080 -0.034099 -0.592185
vn -0.805080 -0.034099 -0.592185
vn -0.956715 -0.196903 -0.214303
vn -0.956715 -0.196903 -0.214303
vn -0.956715 -0.196903 -0.214303
vn -0.780102 -0.414101 0.469001
vn -0.780102 -0.414101 0.469001
vn -0.780102 -0.414101 0.469001
vn -0.998511 0.054201 0.006100
vn -0.998511 0.054201 0.006100
vn -0.998511 0.054201 0.006100
vn -0.748783 0.026499 -0.662285
vn -0.748783 0.026499 -0.662285
vn -0.748783 0.026499 -0.662285
vn -0.640889 0.764687 -0.067199
vn -0.640889 0.764687 -0.067199
vn -0.640889 0.764687 -0.067199
s off
g rock20
usemtl standardSurface1SG
f 1/1/1 5/2/2 2/3/3
f 1/1/4 2/3/5 4/4/6
f 20/5/7 6/6/8 21/7/9
f 6/6/10 22/8/11 21/7/12
f 4/4/13 3/9/14 1/1/15
f 6/6/16 5/10/17 1/11/18
f 6/6/19 7/12/20 2/13/21
f 6/6/22 2/13/23 5/10/24
f 19/14/25 7/12/26 20/5/27
f 4/15/28 2/16/29 7/17/30
f 9/18/31 36/19/32 35/20/33
f 12/21/34 17/22/35 16/23/36
f 7/17/37 38/24/38 4/15/39
f 3/25/40 16/23/41 15/26/42
f 9/18/43 10/27/44 36/19/45
f 11/28/46 36/19/47 10/27/48
f 11/28/49 38/24/50 37/29/51
f 30/30/52 29/31/53 12/32/54
f 30/30/55 12/32/56 3/9/57
f 28/33/58 11/28/59 10/27/60
f 4/4/61 30/30/62 3/9/63
f 12/34/64 28/35/65 10/36/66
f 20/5/67 7/12/68 6/6/69
f 8/37/70 27/38/71 26/39/72
f 26/39/73 13/40/74 8/37/75
f 13/41/76 24/42/77 10/36/78
f 19/14/79 39/43/80 7/12/81
f 8/37/82 17/22/83 27/38/84
f 10/36/85 14/44/86 13/41/87
f 14/45/88 8/46/89 13/47/90
f 14/45/91 9/48/92 8/46/93
f 9/18/94 14/49/95 10/27/96
f 16/50/97 18/51/98 20/52/99
f 1/53/100 15/26/101 22/54/102
f 6/6/103 1/11/104 22/8/105
f 9/48/106 34/55/107 8/46/108
f 10/36/109 23/56/110 12/34/111
f 3/25/112 12/21/113 16/23/114
f 8/37/115 18/57/116 17/22/117
f 34/55/118 18/58/119 8/46/120
f 16/59/121 17/60/122 18/61/123
f 18/51/124 19/62/125 20/52/126
f 20/63/127 21/64/128 15/65/129
f 21/64/130 22/66/131 15/65/132
f 15/65/133 16/67/134 20/63/135
f 1/53/136 3/25/137 15/26/138
f 24/68/139 26/39/140 27/38/141
f 12/21/142 27/38/143 17/22/144
f 26/39/145 25/69/146 13/40/147
f 13/41/148 25/70/149 24/42/150
f 10/36/151 24/42/152 23/56/153
f 27/38/154 23/71/155 24/68/156
f 24/68/157 25/69/158 26/39/159
f 12/21/160 23/71/161 27/38/162
f 30/72/163 31/73/164 32/74/165
f 32/75/166 4/15/167 11/28/168
f 28/33/169 32/75/170 11/28/171
f 4/4/172 31/76/173 30/30/174
f 12/34/175 29/77/176 28/35/177
f 32/75/178 28/33/179 29/78/180
f 29/78/181 30/79/182 32/75/183
f 32/75/184 31/80/185 4/15/186
f 34/81/187 36/82/188 38/83/189
f 33/84/190 19/85/191 18/58/192
f 7/17/193 39/86/194 38/24/195
f 11/28/196 37/29/197 36/19/198
f 11/28/199 4/15/200 38/24/201
f 19/14/202 40/87/203 39/43/204
f 9/48/205 35/88/206 34/55/207
f 34/55/208 33/84/209 18/58/210
f 40/89/211 33/90/212 38/91/213
f 33/92/214 34/81/215 38/83/216
f 34/81/217 35/93/218 36/82/219
f 36/82/220 37/94/221 38/83/222
f 38/95/223 39/96/224 40/97/225
f 33/84/226 40/98/227 19/85/228
