# This file uses centimeters as units for non-parametric coordinates.

mtllib rock_46.mtl
g default
v -0.554777 0.298807 0.233984
v -0.257602 0.302864 0.473562
v 0.015574 0.257242 0.370187
v -0.589326 0.105446 -0.212223
v -0.237320 0.358307 -0.220161
v -0.662228 0.137215 0.299603
v -0.613425 -0.033795 0.395880
v -0.489008 -0.040748 -0.587204
v -0.344615 0.006131 0.610193
v -0.020611 -0.217690 0.546016
v -0.291582 -0.141452 -0.055212
v -0.147041 -0.269219 -0.335583
v -0.032625 -0.332034 -0.293053
v 0.106692 -0.358307 -0.275342
v 0.214894 -0.259077 -0.554796
v -0.006958 -0.127302 -0.644171
v 0.399992 -0.179479 -0.558054
v -0.257494 -0.207648 -0.568368
v 0.025670 0.139271 -0.748439
v 0.324373 0.085578 -0.581155
v 0.226769 0.081667 -0.173369
v 0.526887 0.026158 -0.302924
v 0.178111 0.301068 0.552364
v 0.525820 0.186027 0.072695
v 0.488817 -0.243549 -0.163310
v 0.659494 -0.135491 -0.028636
v 0.662228 0.011381 -0.090798
v 0.618837 0.114724 0.117890
v 0.567213 0.102564 0.314293
v 0.204051 0.014215 0.748438
v -0.086093 0.206993 0.679878
v 0.323976 -0.112644 0.300287
v -0.110302 0.323185 0.605105
v -0.488855 0.199588 -0.470983
v -0.433891 0.220506 -0.491508
v -0.400228 0.179882 -0.586941
v -0.483927 0.101815 -0.567945
v -0.506249 0.168355 -0.475836
v 0.130678 -0.331942 0.056373
v 0.151991 -0.336793 0.050231
v 0.186256 -0.316527 0.055035
v 0.217103 -0.317078 0.075665
v 0.133481 -0.313956 0.190308
vt 0.052717 0.564619
vt 0.144598 0.582505
vt 0.156597 0.747566
vt 0.773196 0.114327
vt 0.731334 0.000000
vt 0.977772 0.129484
vt 0.988561 0.264863
vt 0.891511 0.321681
vt 0.670693 0.671801
vt 0.659511 0.809683
vt 0.580091 0.820450
vt 0.639372 0.919988
vt 0.513824 0.780869
vt 0.000000 0.220182
vt 0.068322 0.428413
vt 0.024053 0.406420
vt 0.011281 0.074373
vt 0.150438 0.238106
vt 0.322025 0.420508
vt 0.187359 0.481042
vt 0.537170 0.657463
vt 0.239420 0.124191
vt 0.186477 0.122150
vt 0.439045 0.127046
vt 0.350718 0.278779
vt 0.370012 0.231280
vt 0.295606 0.116926
vt 0.297089 0.014135
vt 0.192775 0.008193
vt 0.048709 0.871877
vt 0.047644 0.739865
vt 0.006678 0.812933
vt 0.000000 0.650699
vt 0.114997 0.053377
vt 0.525542 0.087060
vt 0.655299 0.273559
vt 0.506781 0.211012
vt 0.857971 0.474339
vt 0.848184 0.571371
vt 0.747101 0.588856
vt 0.108669 0.556271
vt 0.131585 0.534822
vt 0.096423 0.481042
vt 0.543057 0.332844
vt 0.918167 0.404061
vt 0.679134 0.403904
vt 0.828500 0.692307
vt 0.578341 0.418281
vt 0.765029 0.802040
vt 0.716906 0.733155
vt 0.824536 0.781963
vt 0.664915 0.444788
vt 0.857971 0.846151
vt 0.845772 0.904802
vt 0.736281 0.474339
vt 0.941259 0.474339
vt 0.781744 1.000000
vt 0.633943 0.574200
vt 0.506780 0.578832
vt 0.594390 0.474339
vt 0.414540 0.308809
vt 0.405501 0.481042
vt 0.716906 0.533484
vt 0.506780 0.163483
vt 0.681243 0.600832
vt 1.000000 0.333502
vt 0.356293 0.226840
vt 0.358249 0.000000
vt 0.344914 0.227337
vt 0.673477 0.000675
vt 0.715320 0.009397
vt 0.156597 0.558275
vt 0.716906 0.955112
vt 0.144766 0.538468
vt 0.704088 0.960385
vt 0.337177 0.231570
vn -0.339664 0.137787 -0.930400
vn -0.339664 0.137787 -0.930400
vn -0.339663 0.137787 -0.930400
vn -0.403904 0.899908 -0.164401
vn -0.403904 0.899908 -0.164401
vn -0.403904 0.899908 -0.164401
vn 0.107405 0.982849 -0.149907
vn 0.107405 0.982849 -0.149907
vn 0.107405 0.982849 -0.149907
vn -0.510489 0.592487 0.623186
vn -0.510489 0.592487 0.623186
vn -0.510489 0.592487 0.623186
vn 0.035202 0.987443 0.154007
vn 0.035202 0.987443 0.154007
vn 0.035202 0.987443 0.154007
vn -0.850392 0.503595 -0.152399
vn -0.850392 0.503595 -0.152399
vn -0.850392 0.503595 -0.152399
vn -0.481998 0.321398 0.815096
vn -0.481998 0.321398 0.815096
vn -0.481998 0.321398 0.815096
vn -0.936889 -0.330896 -0.112899
vn -0.936889 -0.330896 -0.112899
vn -0.936889 -0.330896 -0.112899
vn -0.366696 -0.929489 -0.039800
vn -0.366696 -0.929489 -0.039800
vn -0.366696 -0.929489 -0.039800
vn -0.932097 -0.343299 -0.115500
vn -0.932097 -0.343299 -0.115500
vn -0.932097 -0.343299 -0.115500
vn -0.371693 -0.709687 0.598489
vn -0.371693 -0.709687 0.598489
vn -0.371693 -0.709687 0.598489
vn -0.590893 0.473895 0.652893
vn -0.590893 0.473895 0.652893
vn -0.590893 0.473895 0.652893
vn -0.299498 -0.953994 0.014000
vn -0.299498 -0.953994 0.014000
vn -0.299498 -0.953994 0.014000
vn -0.512384 -0.849874 0.123196
vn -0.512384 -0.849874 0.123196
vn -0.512384 -0.849874 0.123196
vn -0.587031 -0.806943 0.065103
vn -0.587031 -0.806943 0.065103
vn -0.587031 -0.806943 0.065103
vn -0.512384 -0.849874 0.123196
vn -0.512384 -0.849874 0.123196
vn -0.512384 -0.849874 0.123196
vn 0.571425 -0.695430 0.435719
vn 0.571425 -0.695430 0.435719
vn 0.571425 -0.695430 0.435719
vn 0.571425 -0.695430 0.435719
vn 0.571425 -0.695430 0.435719
vn 0.571425 -0.695430 0.435719
vn -0.125595 -0.918565 -0.374786
vn -0.125595 -0.918565 -0.374786
vn -0.125595 -0.918565 -0.374786
vn -0.266500 -0.824001 -0.500000
vn -0.266500 -0.824001 -0.500000
vn -0.266500 -0.824001 -0.500000
vn -0.285594 -0.818684 -0.498190
vn -0.285594 -0.818684 -0.498190
vn -0.285594 -0.818684 -0.498190
vn 0.145501 -0.375802 -0.915206
vn 0.145501 -0.375802 -0.915206
vn 0.145501 -0.375802 -0.915206
vn 0.145501 -0.375802 -0.915206
vn 0.145501 -0.375802 -0.915206
vn 0.145501 -0.375802 -0.915206
vn -0.170491 -0.340783 -0.924554
vn -0.170491 -0.340783 -0.924554
vn -0.170491 -0.340783 -0.924554
vn 0.194007 -0.921733 -0.335812
vn 0.194007 -0.921733 -0.335812
vn 0.194007 -0.921733 -0.335812
vn -0.170491 -0.340783 -0.924554
vn -0.170491 -0.340783 -0.924554
vn -0.170491 -0.340783 -0.924554
vn 0.495412 0.864321 -0.086702
vn 0.495412 0.864321 -0.086702
vn 0.495412 0.864321 -0.086702
vn 0.532666 0.842147 -0.083995
vn 0.532666 0.842147 -0.083995
vn 0.532666 0.842147 -0.083995
vn 0.151807 0.987348 0.045802
vn 0.151807 0.987348 0.045802
vn 0.151807 0.987348 0.045802
vn 0.496579 0.066197 -0.865464
vn 0.496579 0.066197 -0.865464
vn 0.496579 0.066197 -0.865464
vn -0.339695 0.137798 -0.930386
vn -0.339695 0.137798 -0.930386
vn -0.339695 0.137798 -0.930386
vn -0.956088 0.072399 -0.283996
vn -0.956088 0.072399 -0.283996
vn -0.956088 0.072399 -0.283996
vn 0.052298 0.956055 -0.288486
vn 0.052298 0.956055 -0.288486
vn 0.052298 0.956055 -0.288486
vn 0.205998 0.976790 0.058699
vn 0.205998 0.976790 0.058699
vn 0.205998 0.976790 0.058699
vn 0.059497 0.957158 -0.283388
vn 0.059497 0.957158 -0.283388
vn 0.059497 0.957158 -0.283388
vn -0.230295 0.895182 -0.381592
vn -0.230295 0.895182 -0.381592
vn -0.230295 0.895182 -0.381592
vn 0.812997 0.183799 -0.552498
vn 0.812997 0.183799 -0.552498
vn 0.812997 0.183799 -0.552498
vn 0.579785 0.750281 -0.317692
vn 0.579785 0.750281 -0.317692
vn 0.579785 0.750281 -0.317692
vn 0.710272 -0.400084 -0.579177
vn 0.710272 -0.400084 -0.579177
vn 0.710272 -0.400084 -0.579177
vn 0.931551 -0.262014 -0.252114
vn 0.931551 -0.262014 -0.252114
vn 0.931551 -0.262014 -0.252114
vn 0.810464 -0.241089 -0.533876
vn 0.810464 -0.241089 -0.533876
vn 0.810464 -0.241089 -0.533876
vn 0.658466 0.719863 -0.219589
vn 0.658466 0.719863 -0.219589
vn 0.658466 0.719863 -0.219589
vn 0.982701 0.056400 0.176400
vn 0.982701 0.056400 0.176400
vn 0.982701 0.056400 0.176400
vn 0.966988 0.008000 0.254697
vn 0.966988 0.008000 0.254697
vn 0.966988 0.008000 0.254697
vn 0.536612 0.821718 0.191904
vn 0.536612 0.821718 0.191904
vn 0.536612 0.821718 0.191904
vn 0.622813 0.479110 0.618513
vn 0.622813 0.479110 0.618513
vn 0.622813 0.479110 0.618513
vn 0.536612 0.821718 0.191904
vn 0.536612 0.821718 0.191904
vn 0.536612 0.821718 0.191904
vn 0.725360 -0.458475 0.513472
vn 0.725360 -0.458475 0.513472
vn 0.725360 -0.458475 0.513472
vn -0.419706 -0.331105 0.845113
vn -0.419706 -0.331105 0.845113
vn -0.419706 -0.331105 0.845113
vn 0.495782 -0.791772 0.356787
vn 0.495782 -0.791772 0.356787
vn 0.495782 -0.791772 0.356787
vn 0.186196 0.565888 0.803183
vn 0.186196 0.565888 0.803183
vn 0.186196 0.565888 0.803183
vn 0.258094 -0.909280 0.326493
vn 0.258094 -0.909280 0.326493
vn 0.258094 -0.909280 0.326493
vn 0.515000 -0.759400 0.397600
vn 0.515000 -0.759400 0.397600
vn 0.515000 -0.759400 0.397600
vn 0.285490 -0.890968 0.353088
vn 0.285490 -0.890968 0.353088
vn 0.285490 -0.890968 0.353088
vn -0.021000 -0.303500 0.952600
vn -0.021000 -0.303500 0.952600
vn -0.021000 -0.303500 0.952600
vn -0.554293 0.476694 0.682292
vn -0.554293 0.476694 0.682292
vn -0.554293 0.476694 0.682292
vn -0.657207 0.306203 0.688708
vn -0.657207 0.306203 0.688708
vn -0.657207 0.306203 0.688708
vn 0.190402 0.559005 0.807007
vn 0.190402 0.559005 0.807007
vn 0.190402 0.559005 0.807007
vn 0.027201 0.966133 -0.256609
vn 0.027201 0.966133 -0.256609
vn 0.027201 0.966133 -0.256609
vn 0.073897 0.969763 -0.232591
vn 0.073897 0.969763 -0.232591
vn 0.073897 0.969763 -0.232591
vn 0.104400 -0.977703 -0.182201
vn 0.104400 -0.977703 -0.182201
vn 0.104400 -0.977703 -0.182201
vn 0.510483 -0.859771 -0.014200
vn 0.510483 -0.859771 -0.014200
vn 0.510483 -0.859771 -0.014200
vn -0.587031 -0.806943 0.065103
vn -0.587031 -0.806943 0.065103
vn -0.587031 -0.806943 0.065103
vn -0.285000 -0.949199 0.133400
vn -0.285000 -0.949199 0.133400
vn -0.285000 -0.949199 0.133400
vn 0.386588 -0.906072 -0.171995
vn 0.386588 -0.906072 -0.171995
vn 0.386588 -0.906072 -0.171995
vn -0.069304 0.908851 -0.411323
vn -0.069304 0.908851 -0.411323
vn -0.069304 0.908851 -0.411323
vn -0.557910 0.602611 -0.570610
vn -0.557910 0.602611 -0.570610
vn -0.557910 0.602611 -0.570610
vn -0.853698 0.498699 -0.150000
vn -0.853698 0.498699 -0.150000
vn -0.853698 0.498699 -0.150000
vn -0.403904 0.899908 -0.164401
vn -0.403904 0.899908 -0.164401
vn -0.403904 0.899908 -0.164401
vn -0.956088 0.072399 -0.283996
vn -0.956088 0.072399 -0.283996
vn -0.956088 0.072399 -0.283996
vn -0.069304 0.908851 -0.411323
vn -0.069304 0.908851 -0.411323
vn -0.069304 0.908851 -0.411323
vn -0.446125 0.374721 -0.812746
vn -0.446125 0.374721 -0.812746
vn -0.446125 0.374721 -0.812746
vn -0.654212 0.584711 -0.479709
vn -0.654212 0.584711 -0.479709
vn -0.654212 0.584711 -0.479709
vn -0.853698 0.498699 -0.150000
vn -0.853698 0.498699 -0.150000
vn -0.853698 0.498699 -0.150000
vn -0.024199 -0.999662 0.009500
vn -0.024199 -0.999662 0.009500
vn -0.024199 -0.999662 0.009500
vn -0.195807 -0.976336 0.091803
vn -0.195807 -0.976336 0.091803
vn -0.195807 -0.976336 0.091803
vn 0.104400 -0.977703 -0.182201
vn 0.104400 -0.977703 -0.182201
vn 0.104400 -0.977703 -0.182201
vn 0.510483 -0.859771 -0.014200
vn 0.510483 -0.859771 -0.014200
vn 0.510483 -0.859771 -0.014200
vn -0.285000 -0.949199 0.133400
vn -0.285000 -0.949199 0.133400
vn -0.285000 -0.949199 0.133400
vn 0.267993 -0.955576 0.122697
vn 0.267993 -0.955576 0.122697
vn 0.267993 -0.955576 0.122697
vn 0.148200 -0.458401 0.876302
vn 0.148200 -0.458401 0.876302
vn 0.148200 -0.458401 0.876302
vn -0.195807 -0.976336 0.091803
vn -0.195807 -0.976336 0.091803
vn -0.195807 -0.976336 0.091803
s off
g rock45
usemtl standardSurface1SG
f 8/1/1 36/2/2 19/3/3
f 5/4/4 34/5/5 1/6/6
f 1/6/7 2/7/8 3/8/9
f 2/9/10 1/10/11 6/11/12
f 1/6/13 3/8/14 5/4/15
f 4/12/16 6/11/17 1/10/18
f 2/9/19 6/11/20 7/13/21
f 4/14/22 7/15/23 6/16/24
f 7/15/25 8/17/26 11/18/27
f 4/14/28 8/17/29 7/15/30
f 7/15/31 10/19/32 9/20/33
f 2/9/34 7/13/35 9/21/36
f 7/15/37 11/18/38 10/19/39
f 13/22/40 10/19/41 11/18/42
f 12/23/43 11/18/44 8/17/45
f 13/22/46 11/18/47 12/23/48
f 25/24/49 10/19/50 43/25/51
f 25/24/52 43/25/53 42/26/54
f 14/27/55 13/22/56 15/28/57
f 13/22/58 12/23/59 16/29/60
f 16/29/61 15/28/62 13/22/63
f 17/30/64 16/31/65 19/3/66
f 17/30/67 15/32/68 16/31/69
f 16/31/70 18/33/71 8/1/72
f 12/23/73 18/34/74 16/29/75
f 16/31/76 8/1/77 19/3/78
f 19/35/79 3/8/80 21/36/81
f 5/4/82 3/8/83 19/35/84
f 19/35/85 21/36/86 20/37/87
f 19/38/88 20/39/89 17/40/90
f 8/1/91 37/41/92 36/2/93
f 38/42/94 8/1/95 4/43/96
f 21/36/97 3/8/98 22/44/99
f 21/36/100 22/44/101 20/37/102
f 22/44/103 3/8/104 23/45/105
f 22/44/106 23/45/107 24/46/108
f 22/47/109 17/40/110 20/39/111
f 27/48/112 22/44/113 24/46/114
f 22/47/115 26/49/116 25/50/117
f 22/47/118 25/50/119 17/40/120
f 22/47/121 27/51/122 26/49/123
f 27/48/124 24/46/125 28/52/126
f 26/49/127 27/51/128 28/53/129
f 26/49/130 28/53/131 29/54/132
f 29/55/133 28/52/134 24/46/135
f 30/56/136 29/55/137 23/45/138
f 29/55/139 24/46/140 23/45/141
f 30/57/142 26/49/143 29/54/144
f 31/58/145 10/59/146 30/60/147
f 32/61/148 30/62/149 10/19/150
f 23/63/151 31/58/152 30/60/153
f 26/64/154 30/62/155 32/61/156
f 32/61/157 10/19/158 25/24/159
f 26/64/160 32/61/161 25/24/162
f 31/58/163 9/21/164 10/59/165
f 2/9/166 9/21/167 31/58/168
f 2/9/169 31/58/170 33/65/171
f 23/63/172 33/65/173 31/58/174
f 33/66/175 23/45/176 3/8/177
f 33/66/178 3/8/179 2/7/180
f 25/24/181 41/67/182 17/68/183
f 14/27/184 41/67/185 40/69/186
f 12/23/187 8/17/188 18/34/189
f 13/22/190 43/25/191 10/19/192
f 14/27/193 15/28/194 17/68/195
f 5/4/196 36/70/197 35/71/198
f 35/72/199 37/41/200 38/42/201
f 34/73/202 4/12/203 1/10/204
f 5/4/205 35/71/206 34/5/207
f 38/42/208 37/41/209 8/1/210
f 5/4/211 19/35/212 36/70/213
f 38/42/214 34/74/215 35/72/216
f 35/72/217 36/2/218 37/41/219
f 34/73/220 38/75/221 4/12/222
f 41/67/223 42/26/224 43/25/225
f 14/27/226 39/76/227 13/22/228
f 25/24/229 42/26/230 41/67/231
f 14/27/232 17/68/233 41/67/234
f 13/22/235 39/76/236 43/25/237
f 43/25/238 39/76/239 41/67/240
f 39/76/241 40/69/242 41/67/243
f 14/27/244 40/69/245 39/76/246
