# This file uses centimeters as units for non-parametric coordinates.

mtllib rock_30.mtl
g default
v 0.393809 -0.257903 0.071775
v -0.087393 -0.142323 0.341983
v 0.069866 -0.242479 0.177102
v 0.368607 0.120608 0.210495
v 0.302862 0.244599 0.058069
v 0.373328 0.130876 -0.204262
v -0.286177 0.223264 0.084378
v -0.343908 0.101669 0.083962
v -0.215248 0.326999 -0.031085
v 0.111412 0.323402 -0.104427
v -0.393809 -0.003411 -0.059844
v -0.249644 -0.034909 -0.265610
v 0.034258 -0.225205 -0.341983
v 0.290780 -0.223941 -0.172354
v 0.043357 -0.326999 -0.066125
v 0.381132 -0.067185 -0.230130
v -0.238108 0.232073 -0.191403
v -0.222778 0.260980 -0.195520
v -0.162722 0.250991 -0.232442
v -0.155455 0.221801 -0.257529
v -0.190949 0.172713 -0.272644
v -0.232130 0.163006 -0.262888
v -0.259764 0.186286 -0.221078
v -0.247566 0.209894 -0.198210
v 0.262199 -0.049696 0.269176
v 0.152678 -0.117116 0.301854
v 0.175958 -0.151454 0.254269
v 0.264475 -0.144366 0.238623
v -0.274095 -0.227273 -0.100320
v -0.262517 -0.244518 -0.061267
v -0.269573 -0.229709 -0.026852
v -0.292692 -0.215958 -0.005293
v -0.344193 -0.165535 -0.060153
v -0.308371 -0.184705 -0.105996
vt 0.612498 0.506487
vt 0.394484 0.455975
vt 0.755753 0.420887
vt 0.144469 0.894638
vt 0.247528 0.812140
vt 0.288648 0.989379
vt 0.523959 0.512383
vt 0.189986 0.736938
vt 0.042655 0.665368
vt 0.680404 0.057780
vt 0.741708 0.735565
vt 0.870246 0.567417
vt 1.000000 0.622602
vt 0.356584 0.312170
vt 1.000000 0.918263
vt 0.755753 0.092597
vt 0.161572 0.358069
vt 0.173176 0.410592
vt 0.109808 0.504378
vt 0.584265 0.000000
vt 0.000000 0.294387
vt 0.400037 0.129561
vt 0.178194 0.334971
vt 0.018780 0.062209
vt 0.728133 0.512383
vt 0.209995 0.410684
vt 0.356584 0.508876
vt 0.259765 0.578828
vt 0.350919 0.322152
vt 0.219921 0.334913
vt 0.356584 0.090691
vt 0.230652 0.400238
vt 0.239066 0.359330
vt 0.173537 0.576267
vt 0.193625 0.414169
vt 0.728133 0.815571
vt 0.517618 0.832046
vt 0.522986 0.806880
vt 0.124765 0.000000
vt 0.901801 0.206452
vt 0.755753 0.318892
vt 0.994049 0.000000
vt 0.994049 0.303043
vt 0.804566 0.036565
vt 0.658147 0.648856
vt 0.769933 0.875532
vt 0.491606 0.763793
vt 0.356584 0.711658
vt 0.505101 0.512383
vt 0.000000 0.912444
vt 0.696043 1.000000
vt 0.373304 0.896237
vt 0.459801 0.784569
vt 0.404178 1.000000
vt 0.249079 0.712068
vt 0.206577 0.801688
vt 0.288648 0.578828
vt 0.457232 0.830593
vt 0.518073 0.778824
vn 0.134525 0.246642 0.959724
vn 0.134525 0.246642 0.959724
vn 0.134525 0.246642 0.959724
vn 0.184697 -0.751889 0.632890
vn 0.184697 -0.751889 0.632890
vn 0.184697 -0.751889 0.632890
vn 0.134505 0.246609 0.959736
vn 0.134505 0.246609 0.959736
vn 0.134505 0.246609 0.959736
vn 0.173289 -0.746554 0.642361
vn 0.173289 -0.746554 0.642361
vn 0.173289 -0.746554 0.642361
vn -0.074896 0.546873 0.833859
vn -0.074896 0.546873 0.833859
vn -0.074896 0.546873 0.833859
vn 0.871786 0.489392 0.022000
vn 0.871786 0.489392 0.022000
vn 0.871786 0.489392 0.022000
vn 0.000100 0.775790 0.630992
vn 0.000100 0.775790 0.630992
vn 0.000100 0.775790 0.630992
vn 0.998011 0.061701 0.012900
vn 0.998011 0.061701 0.012900
vn 0.998011 0.061701 0.012900
vn -0.551280 0.259091 0.793071
vn -0.551280 0.259091 0.793071
vn -0.551280 0.259091 0.793071
vn -0.072601 0.926708 -0.368703
vn -0.072601 0.926708 -0.368703
vn -0.072601 0.926708 -0.368703
vn 0.003000 0.742992 0.669293
vn 0.003000 0.742992 0.669293
vn 0.003000 0.742992 0.669293
vn -0.072601 0.926708 -0.368703
vn -0.072601 0.926708 -0.368703
vn -0.072601 0.926708 -0.368703
vn 0.088500 0.933197 0.348299
vn 0.088500 0.933197 0.348299
vn 0.088500 0.933197 0.348299
vn 0.185101 0.639002 -0.746602
vn 0.185101 0.639002 -0.746602
vn 0.185101 0.639002 -0.746602
vn 0.523188 0.824181 -0.216795
vn 0.523188 0.824181 -0.216795
vn 0.523188 0.824181 -0.216795
vn -0.847368 0.523580 -0.088497
vn -0.847368 0.523580 -0.088497
vn -0.847368 0.523580 -0.088497
vn -0.238107 0.034401 -0.970630
vn -0.238107 0.034401 -0.970630
vn -0.238107 0.034401 -0.970630
vn -0.810624 0.079702 -0.580117
vn -0.810624 0.079702 -0.580117
vn -0.810624 0.079702 -0.580117
vn 0.138097 0.240094 -0.960877
vn 0.138097 0.240094 -0.960877
vn 0.138097 0.240094 -0.960877
vn -0.893989 0.424895 -0.142298
vn -0.893989 0.424895 -0.142298
vn -0.893989 0.424895 -0.142298
vn -0.233904 -0.913817 0.332006
vn -0.233904 -0.913817 0.332006
vn -0.233904 -0.913817 0.332006
vn 0.247811 0.135106 -0.959342
vn 0.247811 0.135106 -0.959342
vn 0.247811 0.135106 -0.959342
vn 0.130804 -0.972932 -0.190506
vn 0.130804 -0.972932 -0.190506
vn 0.130804 -0.972932 -0.190506
vn 0.469316 -0.530618 -0.705824
vn 0.469316 -0.530618 -0.705824
vn 0.469316 -0.530618 -0.705824
vn 0.308391 -0.889075 -0.338290
vn 0.308391 -0.889075 -0.338290
vn 0.308391 -0.889075 -0.338290
vn -0.239595 -0.908682 0.341893
vn -0.239595 -0.908682 0.341893
vn -0.239595 -0.908682 0.341893
vn 0.999018 0.041401 -0.015800
vn 0.999018 0.041401 -0.015800
vn 0.999018 0.041401 -0.015800
vn 0.730202 -0.563402 -0.386501
vn 0.730202 -0.563402 -0.386501
vn 0.730202 -0.563402 -0.386501
vn -0.526823 -0.514422 -0.676629
vn -0.526823 -0.514422 -0.676629
vn -0.526823 -0.514422 -0.676629
vn 0.059699 -0.944891 0.321897
vn 0.059699 -0.944891 0.321897
vn 0.059699 -0.944891 0.321897
vn -0.233904 -0.913817 0.332006
vn -0.233904 -0.913817 0.332006
vn -0.233904 -0.913817 0.332006
vn -0.809740 -0.248812 0.531426
vn -0.809740 -0.248812 0.531426
vn -0.809740 -0.248812 0.531426
vn -0.810981 -0.247194 -0.530288
vn -0.810981 -0.247194 -0.530288
vn -0.810981 -0.247194 -0.530288
vn -0.804563 -0.310586 0.506177
vn -0.804563 -0.310586 0.506177
vn -0.804563 -0.310586 0.506177
vn -0.294304 0.739011 -0.606009
vn -0.294304 0.739011 -0.606009
vn -0.294304 0.739011 -0.606009
vn -0.882912 0.448306 -0.139602
vn -0.882912 0.448306 -0.139602
vn -0.882912 0.448306 -0.139602
vn 0.163806 0.666126 -0.727629
vn 0.163806 0.666126 -0.727629
vn 0.163806 0.666126 -0.727629
vn -0.847368 0.523580 -0.088497
vn -0.847368 0.523580 -0.088497
vn -0.847368 0.523580 -0.088497
vn -0.238107 0.034401 -0.970630
vn -0.238107 0.034401 -0.970630
vn -0.238107 0.034401 -0.970630
vn -0.810624 0.079702 -0.580117
vn -0.810624 0.079702 -0.580117
vn -0.810624 0.079702 -0.580117
vn 0.100500 0.225700 -0.968999
vn 0.100500 0.225700 -0.968999
vn 0.100500 0.225700 -0.968999
vn -0.893989 0.424895 -0.142298
vn -0.893989 0.424895 -0.142298
vn -0.893989 0.424895 -0.142298
vn -0.511829 0.444025 -0.735441
vn -0.511829 0.444025 -0.735441
vn -0.511829 0.444025 -0.735441
vn -0.500800 0.144000 -0.853501
vn -0.500800 0.144000 -0.853501
vn -0.500800 0.144000 -0.853501
vn -0.518078 0.479679 -0.708169
vn -0.518078 0.479679 -0.708169
vn -0.518078 0.479679 -0.708169
vn -0.497697 0.562997 -0.659797
vn -0.497697 0.562997 -0.659797
vn -0.497697 0.562997 -0.659797
vn -0.315587 0.730869 -0.605174
vn -0.315587 0.730869 -0.605174
vn -0.315587 0.730869 -0.605174
vn -0.882912 0.448306 -0.139602
vn -0.882912 0.448306 -0.139602
vn -0.882912 0.448306 -0.139602
vn 0.189198 -0.297496 0.935789
vn 0.189198 -0.297496 0.935789
vn 0.189198 -0.297496 0.935789
vn 0.702006 -0.203402 0.682506
vn 0.702006 -0.203402 0.682506
vn 0.702006 -0.203402 0.682506
vn 0.184697 -0.751889 0.632890
vn 0.184697 -0.751889 0.632890
vn 0.184697 -0.751889 0.632890
vn 0.173302 -0.746510 0.642409
vn 0.173302 -0.746510 0.642409
vn 0.173302 -0.746510 0.642409
vn 0.529109 -0.543909 0.651311
vn 0.529109 -0.543909 0.651311
vn 0.529109 -0.543909 0.651311
vn 0.701959 -0.203388 0.682560
vn 0.701959 -0.203388 0.682560
vn 0.701959 -0.203388 0.682560
vn -0.606417 -0.781421 -0.147104
vn -0.606417 -0.781421 -0.147104
vn -0.606417 -0.781421 -0.147104
vn -0.250811 -0.910841 -0.327815
vn -0.250811 -0.910841 -0.327815
vn -0.250811 -0.910841 -0.327815
vn -0.239595 -0.908682 0.341893
vn -0.239595 -0.908682 0.341893
vn -0.239595 -0.908682 0.341893
vn -0.526823 -0.514422 -0.676629
vn -0.526823 -0.514422 -0.676629
vn -0.526823 -0.514422 -0.676629
vn -0.809740 -0.248812 0.531426
vn -0.809740 -0.248812 0.531426
vn -0.809740 -0.248812 0.531426
vn -0.810981 -0.247194 -0.530288
vn -0.810981 -0.247194 -0.530288
vn -0.810981 -0.247194 -0.530288
vn -0.780392 -0.624694 0.027300
vn -0.780392 -0.624694 0.027300
vn -0.780392 -0.624694 0.027300
vn -0.866218 -0.498310 0.036801
vn -0.866218 -0.498310 0.036801
vn -0.866218 -0.498310 0.036801
vn -0.605218 -0.781723 -0.150404
vn -0.605218 -0.781723 -0.150404
vn -0.605218 -0.781723 -0.150404
vn -0.250811 -0.910841 -0.327815
vn -0.250811 -0.910841 -0.327815
vn -0.250811 -0.910841 -0.327815
s off
g rock29
usemtl standardSurface1SG
f 26/1/1 4/2/2 2/3/3
f 3/4/4 26/5/5 2/6/6
f 26/1/7 25/7/8 4/2/9
f 28/8/10 3/4/11 1/9/12
f 7/10/13 2/3/14 4/2/15
f 6/11/16 5/12/17 4/13/18
f 7/10/19 4/2/20 5/14/21
f 4/13/22 1/15/23 6/11/24
f 8/16/25 2/3/26 7/10/27
f 19/17/28 18/18/29 9/19/30
f 9/20/31 7/10/32 5/14/33
f 19/17/34 9/19/35 10/21/36
f 10/22/37 9/20/38 5/14/39
f 20/23/40 10/21/41 6/24/42
f 6/11/43 10/25/44 5/12/45
f 24/26/46 11/27/47 8/28/48
f 12/29/49 21/30/50 13/31/51
f 12/29/52 23/32/53 22/33/54
f 13/31/55 20/23/56 6/24/57
f 24/26/58 7/34/59 17/35/60
f 3/36/61 32/37/62 31/38/63
f 13/31/64 6/24/65 16/39/66
f 14/40/67 1/41/68 13/42/69
f 13/42/70 16/43/71 14/40/72
f 15/44/73 13/42/74 1/41/75
f 31/38/76 15/45/77 3/36/78
f 16/46/79 6/11/80 1/15/81
f 16/43/82 1/41/83 14/40/84
f 29/47/85 12/48/86 13/49/87
f 15/50/88 1/9/89 3/4/90
f 3/36/91 2/51/92 32/37/93
f 11/52/94 32/37/95 2/51/96
f 34/53/97 11/52/98 12/48/99
f 11/52/100 2/51/101 8/54/102
f 22/33/103 23/32/104 24/26/105
f 17/35/106 9/19/107 18/18/108
f 20/23/109 19/17/110 10/21/111
f 24/26/112 23/32/113 11/27/114
f 12/29/115 22/33/116 21/30/117
f 12/29/118 11/27/119 23/32/120
f 13/31/121 21/30/122 20/23/123
f 24/26/124 8/28/125 7/34/126
f 24/26/127 17/35/128 19/17/129
f 17/35/130 18/18/131 19/17/132
f 19/17/133 20/23/134 24/26/135
f 20/23/136 21/30/137 24/26/138
f 21/30/139 22/33/140 24/26/141
f 17/35/142 7/34/143 9/19/144
f 25/55/145 27/56/146 28/8/147
f 28/8/148 4/57/149 25/55/150
f 3/4/151 27/56/152 26/5/153
f 28/8/154 27/56/155 3/4/156
f 25/55/157 26/5/158 27/56/159
f 28/8/160 1/9/161 4/57/162
f 34/53/163 31/38/164 33/58/165
f 29/47/166 15/45/167 30/59/168
f 31/38/169 30/59/170 15/45/171
f 29/47/172 34/53/173 12/48/174
f 11/52/175 33/58/176 32/37/177
f 34/53/178 33/58/179 11/52/180
f 34/53/181 29/47/182 31/38/183
f 29/47/184 30/59/185 31/38/186
f 31/38/187 32/37/188 33/58/189
f 29/47/190 13/49/191 15/45/192
