# This file uses centimeters as units for non-parametric coordinates.

mtllib rock_48.mtl
g default
v 0.336067 -0.115243 0.448662
v 0.552015 -0.083372 -0.035183
v 0.319663 -0.509060 0.434300
v 0.184648 0.179618 0.209321
v 0.593539 -0.345764 0.028783
v -0.546227 -0.158238 0.533973
v -0.217949 0.197041 0.365921
v -0.508783 0.045391 0.318937
v -0.458996 0.178753 0.167166
v -0.209091 0.309362 0.227149
v -0.449407 0.066266 0.449975
v -0.441096 0.332932 0.053998
v -0.396078 0.396401 -0.117734
v 0.062905 0.509060 -0.559081
v -0.277436 0.249177 -0.573678
v -0.566422 0.101897 -0.117677
v -0.466425 -0.258494 -0.159727
v -0.005978 -0.186532 -0.614392
v -0.593538 -0.369786 0.369211
v 0.458355 -0.114708 -0.565650
v 0.451376 0.343680 -0.298858
v 0.510491 0.179021 -0.099149
v -0.239983 -0.396248 0.614393
v -0.381869 -0.364707 0.611383
v -0.391412 -0.420418 0.571294
v -0.330908 -0.435544 0.530801
v -0.232475 -0.447496 0.609517
v 0.158646 -0.449292 -0.153639
v 0.265914 -0.462397 -0.058520
v 0.207368 -0.494200 0.005598
v 0.101997 -0.461600 -0.090239
v 0.293183 0.196254 -0.603580
v 0.290413 0.264689 -0.597423
v 0.337876 0.246320 -0.563253
v 0.336834 0.227425 -0.560499
v 0.337560 0.190047 -0.598123
v -0.106028 0.050332 -0.558535
v -0.196651 0.481663 -0.526725
v -0.256086 0.424072 -0.532382
v -0.267815 0.466220 -0.470408
vt 0.922485 0.966653
vt 0.761034 0.910272
vt 0.835680 0.828426
vt 0.698389 0.639717
vt 0.555596 0.612819
vt 0.600454 0.474372
vt 0.404360 0.626509
vt 0.490797 0.470870
vt 0.710112 0.814829
vt 0.163000 0.028551
vt 0.000000 0.241415
vt 0.112572 0.033914
vt 0.572337 0.970272
vt 0.699989 0.000000
vt 0.754596 0.005309
vt 0.748244 0.113896
vt 0.641225 0.049939
vt 0.689750 0.145049
vt 0.754596 0.286476
vt 0.662585 0.917997
vt 0.891790 0.213553
vt 0.819989 0.207594
vt 0.835965 0.151800
vt 0.589747 0.083906
vt 0.529079 0.129807
vt 0.088404 0.852024
vt 0.019364 0.833401
vt 0.000257 0.805915
vt 0.007174 0.698594
vt 0.429908 0.373419
vt 0.113621 1.000000
vt 0.008217 0.911484
vt 0.528547 0.044266
vt 0.802181 0.114706
vt 0.850528 0.000000
vt 1.000000 0.022931
vt 0.263808 0.982854
vt 0.754595 0.080514
vt 0.177551 0.797920
vt 0.279362 0.771543
vt 1.000000 0.273097
vt 0.975541 0.286598
vt 0.985050 0.155461
vt 0.286644 0.001559
vt 0.170074 0.000000
vt 0.045893 0.442958
vt 0.211873 0.366045
vt 0.404360 0.460492
vt 0.209568 0.331024
vt 0.404360 0.194297
vt 0.150971 0.332718
vt 0.154341 0.369203
vt 0.458433 0.863850
vt 0.710112 0.650217
vt 0.824651 0.564119
vt 0.910325 0.746579
vt 0.264580 0.583159
vt 0.922485 0.639004
vt 0.828374 0.538400
vt 0.914199 0.470870
vt 0.279362 0.583159
vt 0.147028 0.625911
vt 0.152168 0.608850
vt 0.710112 0.477874
vt 0.692904 0.452888
vt 0.597498 0.470870
vt 0.415185 0.233168
vt 0.399994 0.619001
vt 0.386119 0.607765
vt 0.399994 0.583159
vt 0.368695 0.629953
vt 0.362588 0.612409
vt 0.368695 0.607912
vt 0.438569 0.861509
vt 0.803966 0.559868
vt 0.830515 0.559328
vt 0.330972 0.583159
vt 0.350643 0.589917
vt 0.323214 0.633595
vt 0.362588 0.633595
vt 0.477559 0.918650
vt 0.136165 0.608386
vt 0.386119 0.607912
vt 0.362588 0.593248
vt 0.386119 0.583159
vt 0.119612 0.622589
vt 0.000000 0.838194
vt 0.279362 0.670791
vt 0.323214 0.583159
vt 0.323214 0.734877
vt 0.404360 0.269076
vt 0.284646 0.643749
vn 0.880744 0.239045 0.408837
vn 0.880744 0.239045 0.408837
vn 0.880744 0.239045 0.408837
vn 0.687876 0.636478 0.348888
vn 0.687876 0.636478 0.348888
vn 0.687876 0.636478 0.348888
vn 0.837542 -0.054703 0.543627
vn 0.837542 -0.054703 0.543627
vn 0.837542 -0.054703 0.543627
vn 0.288589 0.688374 0.665475
vn 0.288589 0.688374 0.665475
vn 0.288589 0.688374 0.665475
vn -0.113599 -0.993488 -0.008800
vn -0.113599 -0.993488 -0.008800
vn -0.113599 -0.993488 -0.008800
vn 0.071402 0.371908 0.925520
vn 0.071402 0.371908 0.925520
vn 0.071402 0.371908 0.925520
vn -0.470412 0.879422 0.073002
vn -0.470412 0.879422 0.073002
vn -0.470412 0.879422 0.073002
vn -0.463393 0.735488 0.494292
vn -0.463393 0.735488 0.494292
vn -0.463393 0.735488 0.494292
vn -0.489300 0.692900 0.529600
vn -0.489300 0.692900 0.529600
vn -0.489300 0.692900 0.529600
vn 0.271606 0.739515 0.615912
vn 0.271606 0.739515 0.615912
vn 0.271606 0.739515 0.615912
vn 0.189294 0.271392 0.943671
vn 0.189294 0.271392 0.943671
vn 0.189294 0.271392 0.943671
vn -0.829553 0.470373 0.300983
vn -0.829553 0.470373 0.300983
vn -0.829553 0.470373 0.300983
vn -0.458291 0.559888 0.690286
vn -0.458291 0.559888 0.690286
vn -0.458291 0.559888 0.690286
vn -0.136998 0.940287 0.311596
vn -0.136998 0.940287 0.311596
vn -0.136998 0.940287 0.311596
vn 0.315014 0.946641 0.068103
vn 0.315014 0.946641 0.068103
vn 0.315014 0.946641 0.068103
vn -0.145300 0.244101 -0.958803
vn -0.145300 0.244101 -0.958803
vn -0.145300 0.244101 -0.958803
vn -0.145300 0.244101 -0.958803
vn -0.145300 0.244101 -0.958803
vn -0.145300 0.244101 -0.958803
vn 0.132898 0.918388 0.372695
vn 0.132898 0.918388 0.372695
vn 0.132898 0.918388 0.372695
vn -0.807338 0.466922 -0.360817
vn -0.807338 0.466922 -0.360817
vn -0.807338 0.466922 -0.360817
vn -0.864900 0.500200 -0.041800
vn -0.864900 0.500200 -0.041800
vn -0.864900 0.500200 -0.041800
vn -0.867780 -0.287993 0.404991
vn -0.867780 -0.287993 0.404991
vn -0.867780 -0.287993 0.404991
vn -0.809916 -0.158903 -0.564611
vn -0.809916 -0.158903 -0.564611
vn -0.809916 -0.158903 -0.564611
vn -0.916377 0.300493 0.264493
vn -0.916377 0.300493 0.264493
vn -0.916377 0.300493 0.264493
vn -0.687711 -0.121702 -0.715711
vn -0.687711 -0.121702 -0.715711
vn -0.687711 -0.121702 -0.715711
vn -0.707624 -0.328811 0.625421
vn -0.707624 -0.328811 0.625421
vn -0.707624 -0.328811 0.625421
vn -0.965256 0.173392 -0.195491
vn -0.965256 0.173392 -0.195491
vn -0.965256 0.173392 -0.195491
vn -0.242700 -0.970101 -0.000300
vn -0.242700 -0.970101 -0.000300
vn -0.242700 -0.970101 -0.000300
vn 0.406285 -0.723673 -0.557879
vn 0.406285 -0.723673 -0.557879
vn 0.406285 -0.723673 -0.557879
vn -0.970928 0.153704 -0.183505
vn -0.970928 0.153704 -0.183505
vn -0.970928 0.153704 -0.183505
vn -0.263298 -0.875494 -0.405197
vn -0.263298 -0.875494 -0.405197
vn -0.263298 -0.875494 -0.405197
vn 0.362497 -0.923292 -0.126999
vn 0.362497 -0.923292 -0.126999
vn 0.362497 -0.923292 -0.126999
vn 0.297396 -0.047199 0.953587
vn 0.297396 -0.047199 0.953587
vn 0.297396 -0.047199 0.953587
vn -0.979075 0.202395 0.021199
vn -0.979075 0.202395 0.021199
vn -0.979075 0.202395 0.021199
vn -0.285597 0.103999 -0.952690
vn -0.285597 0.103999 -0.952690
vn -0.285597 0.103999 -0.952690
vn 0.896412 0.323004 -0.303504
vn 0.896412 0.323004 -0.303504
vn 0.896412 0.323004 -0.303504
vn 0.180689 -0.902144 -0.391776
vn 0.180689 -0.902144 -0.391776
vn 0.180689 -0.902144 -0.391776
vn 0.927218 -0.103602 -0.359907
vn 0.927218 -0.103602 -0.359907
vn 0.927218 -0.103602 -0.359907
vn 0.598209 0.633910 -0.490208
vn 0.598209 0.633910 -0.490208
vn 0.598209 0.633910 -0.490208
vn 0.113498 -0.060699 -0.991682
vn 0.113498 -0.060699 -0.991682
vn 0.113498 -0.060699 -0.991682
vn -0.141703 -0.965220 -0.219705
vn -0.141703 -0.965220 -0.219705
vn -0.141703 -0.965220 -0.219705
vn 0.661288 0.274795 0.697987
vn 0.661288 0.274795 0.697987
vn 0.661288 0.274795 0.697987
vn 0.457091 0.747885 0.481390
vn 0.457091 0.747885 0.481390
vn 0.457091 0.747885 0.481390
vn 0.977529 0.111003 -0.179205
vn 0.977529 0.111003 -0.179205
vn 0.977529 0.111003 -0.179205
vn 0.142203 0.917718 0.370907
vn 0.142203 0.917718 0.370907
vn 0.142203 0.917718 0.370907
vn 0.977529 0.111003 -0.179205
vn 0.977529 0.111003 -0.179205
vn 0.977529 0.111003 -0.179205
vn -0.083299 0.982887 0.164298
vn -0.083299 0.982887 0.164298
vn -0.083299 0.982887 0.164298
vn 0.344085 -0.586575 0.733168
vn 0.344085 -0.586575 0.733168
vn 0.344085 -0.586575 0.733168
vn 0.069099 0.397993 0.914783
vn 0.069099 0.397993 0.914783
vn 0.069099 0.397993 0.914783
vn 0.027500 -0.985607 -0.166801
vn 0.027500 -0.985607 -0.166801
vn 0.027500 -0.985607 -0.166801
vn -0.342109 -0.937924 0.057101
vn -0.342109 -0.937924 0.057101
vn -0.342109 -0.937924 0.057101
vn 0.538597 -0.150599 -0.828995
vn 0.538597 -0.150599 -0.828995
vn 0.538597 -0.150599 -0.828995
vn -0.074597 0.086397 -0.993464
vn -0.074597 0.086397 -0.993464
vn -0.074597 0.086397 -0.993464
vn -0.707624 -0.328811 0.625421
vn -0.707624 -0.328811 0.625421
vn -0.707624 -0.328811 0.625421
vn -0.102006 -0.968253 -0.228213
vn -0.102006 -0.968253 -0.228213
vn -0.102006 -0.968253 -0.228213
vn 0.406285 -0.723673 -0.557879
vn 0.406285 -0.723673 -0.557879
vn 0.406285 -0.723673 -0.557879
vn -0.263298 -0.875494 -0.405197
vn -0.263298 -0.875494 -0.405197
vn -0.263298 -0.875494 -0.405197
vn 0.362497 -0.923292 -0.126999
vn 0.362497 -0.923292 -0.126999
vn 0.362497 -0.923292 -0.126999
vn 0.297396 -0.047199 0.953587
vn 0.297396 -0.047199 0.953587
vn 0.297396 -0.047199 0.953587
vn 0.896412 0.323004 -0.303504
vn 0.896412 0.323004 -0.303504
vn 0.896412 0.323004 -0.303504
vn 0.927218 -0.103602 -0.359907
vn 0.927218 -0.103602 -0.359907
vn 0.927218 -0.103602 -0.359907
vn 0.598209 0.633910 -0.490208
vn 0.598209 0.633910 -0.490208
vn 0.598209 0.633910 -0.490208
vn 0.113498 -0.060699 -0.991682
vn 0.113498 -0.060699 -0.991682
vn 0.113498 -0.060699 -0.991682
vn -0.628132 -0.164408 0.760539
vn -0.628132 -0.164408 0.760539
vn -0.628132 -0.164408 0.760539
vn -0.188700 -0.793701 0.578301
vn -0.188700 -0.793701 0.578301
vn -0.188700 -0.793701 0.578301
vn 0.069099 0.397993 0.914783
vn 0.069099 0.397993 0.914783
vn 0.069099 0.397993 0.914783
vn 0.071100 -0.917896 -0.390398
vn 0.071100 -0.917896 -0.390398
vn 0.071100 -0.917896 -0.390398
vn -0.342109 -0.937924 0.057101
vn -0.342109 -0.937924 0.057101
vn -0.342109 -0.937924 0.057101
vn 0.182808 0.699229 -0.691129
vn 0.182808 0.699229 -0.691129
vn 0.182808 0.699229 -0.691129
vn 0.664712 0.093602 -0.741213
vn 0.664712 0.093602 -0.741213
vn 0.664712 0.093602 -0.741213
vn -0.074597 0.086397 -0.993464
vn -0.074597 0.086397 -0.993464
vn -0.074597 0.086397 -0.993464
vn -0.458083 -0.453083 -0.764772
vn -0.458083 -0.453083 -0.764772
vn -0.458083 -0.453083 -0.764772
vn 0.060798 -0.023599 -0.997871
vn 0.060798 -0.023599 -0.997871
vn 0.060798 -0.023599 -0.997871
vn -0.560822 0.631424 -0.535521
vn -0.560822 0.631424 -0.535521
vn -0.560822 0.631424 -0.535521
vn -0.934663 0.185693 -0.303188
vn -0.934663 0.185693 -0.303188
vn -0.934663 0.185693 -0.303188
vn -0.083299 0.982887 0.164298
vn -0.083299 0.982887 0.164298
vn -0.083299 0.982887 0.164298
vn -0.934663 0.185693 -0.303188
vn -0.934663 0.185693 -0.303188
vn -0.934663 0.185693 -0.303188
s off
g rock47
usemtl standardSurface1SG
f 1/1/1 5/2/2 2/3/3
f 4/4/4 1/5/5 2/6/6
f 1/5/7 3/7/8 5/8/9
f 4/4/10 7/9/11 1/5/12
f 26/10/13 3/11/14 27/12/15
f 7/9/16 6/13/17 1/5/18
f 8/14/19 11/15/20 7/16/21
f 9/17/22 8/14/23 7/16/24
f 7/16/25 10/18/26 9/17/27
f 4/19/28 10/18/29 7/16/30
f 7/9/31 11/20/32 6/13/33
f 6/21/34 11/22/35 8/23/36
f 10/18/37 12/24/38 9/17/39
f 13/25/40 12/24/41 10/18/42
f 13/25/43 10/18/44 4/19/45
f 15/26/46 39/27/47 38/28/48
f 15/26/49 38/28/50 14/29/51
f 14/30/52 13/25/53 4/19/54
f 15/26/55 16/31/56 13/32/57
f 12/24/58 13/25/59 16/33/60
f 9/34/61 16/35/62 17/36/63
f 15/26/64 17/37/65 16/31/66
f 12/38/67 16/35/68 9/34/69
f 17/37/70 37/39/71 18/40/72
f 6/21/73 25/41/74 24/42/75
f 17/36/76 19/43/77 8/23/78
f 19/44/79 26/10/80 25/45/81
f 5/46/82 28/47/83 18/48/84
f 17/36/85 8/23/86 9/34/87
f 18/48/88 31/49/89 17/50/90
f 5/46/91 30/51/92 29/52/93
f 23/53/94 3/7/95 1/5/96
f 6/21/97 8/23/98 19/43/99
f 37/39/100 14/29/101 18/40/102
f 20/54/103 35/55/104 22/56/105
f 18/48/106 20/57/107 5/46/108
f 35/55/109 21/58/110 22/56/111
f 21/58/112 33/59/113 14/60/114
f 20/61/115 32/62/116 36/63/117
f 26/10/118 17/50/119 3/11/120
f 4/4/121 2/6/122 22/64/123
f 22/65/124 21/66/125 4/19/126
f 2/3/127 20/54/128 22/56/129
f 21/66/130 14/30/131 4/19/132
f 5/2/133 20/54/134 2/3/135
f 14/30/136 40/67/137 13/25/138
f 24/68/139 25/69/140 26/70/141
f 6/13/142 23/53/143 1/5/144
f 29/52/145 31/49/146 28/47/147
f 31/49/148 3/11/149 17/50/150
f 33/71/151 34/72/152 35/73/153
f 14/29/154 32/62/155 18/40/156
f 6/21/157 19/43/158 25/41/159
f 19/44/160 17/50/161 26/10/162
f 5/46/163 29/52/164 28/47/165
f 18/48/166 28/47/167 31/49/168
f 5/46/169 3/11/170 30/51/171
f 23/53/172 27/74/173 3/7/174
f 20/54/175 36/75/176 35/55/177
f 35/55/178 34/76/179 21/58/180
f 21/58/181 34/76/182 33/59/183
f 20/61/184 18/40/185 32/62/186
f 27/77/187 23/78/188 26/79/189
f 23/78/190 24/80/191 26/79/192
f 6/13/193 24/81/194 23/53/195
f 29/52/196 30/51/197 31/49/198
f 31/49/199 30/51/200 3/11/201
f 36/63/202 32/62/203 35/82/204
f 32/83/205 33/84/206 35/85/207
f 14/29/208 33/86/209 32/62/210
f 17/37/211 15/26/212 37/39/213
f 37/39/214 15/26/215 14/29/216
f 38/28/217 39/27/218 40/87/219
f 40/88/220 15/89/221 13/90/222
f 14/30/223 38/91/224 40/67/225
f 40/88/226 39/92/227 15/89/228
