# This file uses centimeters as units for non-parametric coordinates.

mtllib rock_5.mtl
g default
v -0.570154 0.025533 -0.505502
v -0.273984 0.536058 -0.424658
v -0.675111 -0.539313 -0.420123
v -0.435278 0.564079 -0.186575
v -0.173883 0.160330 -0.665404
v 0.176941 -0.483518 -0.419813
v 0.119974 0.409305 -0.532894
v -0.092929 -0.516682 -0.632100
v -0.273034 -0.563793 -0.603679
v -0.140329 -0.564079 -0.005023
v -0.437899 -0.485747 0.453712
v 0.423324 -0.510493 0.395957
v -0.033260 -0.467481 0.641446
v 0.253060 -0.470955 0.599254
v 0.606971 0.101089 0.458305
v 0.699596 0.103131 0.157318
v 0.715802 -0.060533 0.214728
v 0.373978 0.174825 0.693944
v 0.249398 0.344561 0.083441
v -0.140975 0.364713 0.442716
v -0.527614 0.512264 0.055161
v -0.200940 0.494084 -0.010658
v -0.662542 -0.046155 0.272120
v -0.677180 -0.334156 0.345001
v -0.790160 -0.392550 -0.024675
v -0.601362 -0.013524 -0.182481
v 0.800868 -0.078674 0.018061
v 0.694628 -0.425920 -0.105672
v 0.756337 -0.280528 -0.076854
v 0.723090 0.102739 -0.041190
v -0.767866 0.078631 0.127380
v -0.764090 0.009653 0.076097
v -0.791252 -0.035789 0.086632
v -0.800867 -0.052846 0.110808
v -0.752477 -0.006875 0.186215
v -0.519445 -0.526493 -0.637677
v -0.453138 -0.479233 -0.697268
v -0.431565 -0.531706 -0.666171
v -0.250971 -0.152309 -0.739450
v -0.237350 -0.258147 -0.733490
v -0.266166 -0.263867 -0.729704
v -0.298800 -0.257432 -0.745432
v -0.304225 -0.240499 -0.720942
v 0.230775 -0.320313 0.705037
v 0.280728 -0.188719 0.711545
v 0.251938 -0.155165 0.745432
v 0.175215 -0.168726 0.720392
v 0.152362 -0.302705 0.727946
vt 0.206655 0.930477
vt 0.110853 0.930477
vt 0.124760 0.712440
vt 0.015970 0.801014
vt 0.152837 0.505077
vt 0.426629 0.124647
vt 0.622661 0.000000
vt 0.478478 0.238385
vt 0.740320 0.074885
vt 0.010782 0.929097
vt 0.037871 0.541719
vt 0.012040 0.642455
vt 0.003710 0.636181
vt 0.478842 0.020651
vt 0.391242 0.085163
vt 0.379086 0.153617
vt 0.188450 0.249206
vt 0.342694 0.099681
vt 0.391251 0.003590
vt 0.359283 0.279687
vt 0.006854 0.232325
vt 0.015562 0.398376
vt 0.225487 0.000000
vt 0.159595 0.505077
vt 0.073038 0.484967
vt 0.740320 0.089073
vt 0.861394 0.058551
vt 0.763987 0.211778
vt 0.960615 0.081395
vt 0.907099 0.047222
vt 0.975333 0.179990
vt 0.532191 0.445045
vt 0.630137 0.486387
vt 0.687397 0.835460
vt 0.824293 0.305904
vt 0.776749 0.319549
vt 0.551956 0.657018
vt 0.421066 0.466221
vt 0.752794 0.515520
vt 0.870127 0.471157
vt 0.999460 0.678780
vt 0.379086 0.685570
vt 0.480415 0.929988
vt 0.400109 0.894442
vt 1.000000 0.886871
vt 0.810993 0.821334
vt 0.850351 0.042233
vt 0.700152 0.670330
vt 0.482573 0.819043
vt 1.000000 0.455850
vt 0.719691 0.779262
vt 0.340194 0.732765
vt 0.289983 0.910922
vt 0.221410 0.707999
vt 0.687397 0.880682
vt 0.323194 0.706953
vt 0.000000 0.133879
vt 0.090729 0.031591
vt 0.329637 0.688164
vt 0.288826 0.558648
vt 0.837410 0.895227
vt 0.576343 0.934982
vt 0.788157 0.381491
vt 0.727987 1.000000
vt 0.687397 0.934155
vt 0.727987 0.895227
vt 0.910774 0.396594
vt 0.837265 0.382121
vt 0.963089 0.388623
vt 0.740320 0.385838
vt 0.696706 0.445045
vt 0.625598 0.442248
vt 0.687397 0.523442
vt 0.572339 0.439397
vt 0.348569 0.505077
vt 0.064856 0.519554
vt 0.313583 0.012579
vt 0.335798 0.036422
vt 0.337741 0.681997
vt 0.352336 0.706993
vt 0.792560 0.893818
vt 0.812678 0.869426
vt 0.341165 0.023621
vt 0.000000 0.679062
vt 0.379086 0.023152
vt 0.369498 0.521751
vt 0.362851 0.510669
vt 0.369498 0.505077
vt 0.514475 0.007462
vt 0.483978 0.027371
vt 0.476172 0.007356
vt 0.481679 0.008165
vt 0.362851 0.544722
vt 0.352336 0.532698
vt 0.362851 0.505077
vt 0.905075 0.021847
vt 0.825734 0.461619
vt 0.883226 0.445045
vt 0.861270 0.030604
vt 0.755794 0.895227
vt 0.755794 0.947783
vt 0.727987 0.940331
vt 0.975333 0.000000
vn -0.695365 0.487077 -0.528415
vn -0.695365 0.487077 -0.528415
vn -0.695365 0.487077 -0.528415
vn -0.455686 0.390988 -0.799675
vn -0.455686 0.390988 -0.799675
vn -0.455686 0.390988 -0.799675
vn -0.350790 -0.075898 -0.933373
vn -0.350790 -0.075898 -0.933373
vn -0.350790 -0.075898 -0.933373
vn -0.977231 0.194406 0.085003
vn -0.977231 0.194406 0.085003
vn -0.977231 0.194406 0.085003
vn 0.615201 0.034800 -0.787602
vn 0.615201 0.034800 -0.787602
vn 0.615201 0.034800 -0.787602
vn 0.466472 -0.081795 -0.880746
vn 0.466472 -0.081795 -0.880746
vn 0.466472 -0.081795 -0.880746
vn -0.063601 0.526308 -0.847912
vn -0.063601 0.526308 -0.847912
vn -0.063601 0.526308 -0.847912
vn -0.769140 0.433122 -0.469924
vn -0.769140 0.433122 -0.469924
vn -0.769140 0.433122 -0.469924
vn -0.044399 -0.386096 -0.921390
vn -0.044399 -0.386096 -0.921390
vn -0.044399 -0.386096 -0.921390
vn 0.244595 -0.968081 -0.054699
vn 0.244595 -0.968081 -0.054699
vn 0.244595 -0.968081 -0.054699
vn 0.281411 -0.377215 -0.882336
vn 0.281411 -0.377215 -0.882336
vn 0.281411 -0.377215 -0.882336
vn 0.169306 -0.983636 -0.061602
vn 0.169306 -0.983636 -0.061602
vn 0.169306 -0.983636 -0.061602
vn -0.025899 -0.988057 0.151893
vn -0.025899 -0.988057 0.151893
vn -0.025899 -0.988057 0.151893
vn -0.117605 -0.988743 0.092504
vn -0.117605 -0.988743 0.092504
vn -0.117605 -0.988743 0.092504
vn 0.148900 -0.985803 -0.077600
vn 0.148900 -0.985803 -0.077600
vn 0.148900 -0.985803 -0.077600
vn -0.026701 -0.985219 0.169203
vn -0.026701 -0.985219 0.169203
vn -0.026701 -0.985219 0.169203
vn -0.055400 -0.998395 0.011800
vn -0.055400 -0.998395 0.011800
vn -0.055400 -0.998395 0.011800
vn 0.009500 -0.989209 0.146201
vn 0.009500 -0.989209 0.146201
vn 0.009500 -0.989209 0.146201
vn 0.681799 -0.140100 0.717999
vn 0.681799 -0.140100 0.717999
vn 0.681799 -0.140100 0.717999
vn 0.739421 -0.310209 0.597517
vn 0.739421 -0.310209 0.597517
vn 0.739421 -0.310209 0.597517
vn 0.708815 -0.278906 0.647914
vn 0.708815 -0.278906 0.647914
vn 0.708815 -0.278906 0.647914
vn 0.353388 0.928369 0.115096
vn 0.353388 0.928369 0.115096
vn 0.353388 0.928369 0.115096
vn 0.937171 0.194394 0.289691
vn 0.937171 0.194394 0.289691
vn 0.937171 0.194394 0.289691
vn 0.786220 -0.291608 0.544814
vn 0.786220 -0.291608 0.544814
vn 0.786220 -0.291608 0.544814
vn 0.438412 0.885025 0.156604
vn 0.438412 0.885025 0.156604
vn 0.438412 0.885025 0.156604
vn -0.514815 0.135504 0.846525
vn -0.514815 0.135504 0.846525
vn -0.514815 0.135504 0.846525
vn 0.590202 0.806303 -0.039200
vn 0.590202 0.806303 -0.039200
vn 0.590202 0.806303 -0.039200
vn 0.244891 0.945866 0.212992
vn 0.244891 0.945866 0.212992
vn 0.244891 0.945866 0.212992
vn 0.123004 0.989328 0.078102
vn 0.123004 0.989328 0.078102
vn 0.123004 0.989328 0.078102
vn 0.115901 0.961206 0.250301
vn 0.115901 0.961206 0.250301
vn 0.115901 0.961206 0.250301
vn -0.560713 0.414110 0.717017
vn -0.560713 0.414110 0.717017
vn -0.560713 0.414110 0.717017
vn 0.681799 -0.140100 0.717999
vn 0.681799 -0.140100 0.717999
vn 0.681799 -0.140100 0.717999
vn -0.421393 0.158697 0.892885
vn -0.421393 0.158697 0.892885
vn -0.421393 0.158697 0.892885
vn -0.416611 0.157004 0.895424
vn -0.416611 0.157004 0.895424
vn -0.416611 0.157004 0.895424
vn 0.506309 0.844615 0.174003
vn 0.506309 0.844615 0.174003
vn 0.506309 0.844615 0.174003
vn 0.090100 0.960798 0.262200
vn 0.090100 0.960798 0.262200
vn 0.090100 0.960798 0.262200
vn -0.341298 0.266799 0.901296
vn -0.341298 0.266799 0.901296
vn -0.341298 0.266799 0.901296
vn -0.265301 0.249201 0.931404
vn -0.265301 0.249201 0.931404
vn -0.265301 0.249201 0.931404
vn -0.780036 0.345316 -0.521824
vn -0.780036 0.345316 -0.521824
vn -0.780036 0.345316 -0.521824
vn -0.954727 0.117703 0.273208
vn -0.954727 0.117703 0.273208
vn -0.954727 0.117703 0.273208
vn -0.780036 0.345316 -0.521824
vn -0.780036 0.345316 -0.521824
vn -0.780036 0.345316 -0.521824
vn -0.604206 -0.737707 0.301203
vn -0.604206 -0.737707 0.301203
vn -0.604206 -0.737707 0.301203
vn -0.474508 -0.861314 0.181603
vn -0.474508 -0.861314 0.181603
vn -0.474508 -0.861314 0.181603
vn -0.780036 0.345316 -0.521824
vn -0.780036 0.345316 -0.521824
vn -0.780036 0.345316 -0.521824
vn -0.946069 0.093797 -0.310090
vn -0.946069 0.093797 -0.310090
vn -0.946069 0.093797 -0.310090
vn -0.526899 0.415399 0.741499
vn -0.526899 0.415399 0.741499
vn -0.526899 0.415399 0.741499
vn -0.918909 0.262103 -0.294803
vn -0.918909 0.262103 -0.294803
vn -0.918909 0.262103 -0.294803
vn -0.918909 0.262103 -0.294803
vn -0.918909 0.262103 -0.294803
vn -0.918909 0.262103 -0.294803
vn 0.316091 0.947873 0.040299
vn 0.316091 0.947873 0.040299
vn 0.316091 0.947873 0.040299
vn 0.248103 0.967211 0.054301
vn 0.248103 0.967211 0.054301
vn 0.248103 0.967211 0.054301
vn 0.983590 0.138099 0.116099
vn 0.983590 0.138099 0.116099
vn 0.983590 0.138099 0.116099
vn 0.830000 0.459200 0.316600
vn 0.830000 0.459200 0.316600
vn 0.830000 0.459200 0.316600
vn 0.839001 -0.371900 0.397200
vn 0.839001 -0.371900 0.397200
vn 0.839001 -0.371900 0.397200
vn 0.836514 -0.387906 0.387006
vn 0.836514 -0.387906 0.387006
vn 0.836514 -0.387906 0.387006
vn 0.797080 -0.423590 0.430389
vn 0.797080 -0.423590 0.430389
vn 0.797080 -0.423590 0.430389
vn 0.769093 0.124999 -0.626794
vn 0.769093 0.124999 -0.626794
vn 0.769093 0.124999 -0.626794
vn 0.421197 0.905693 0.048100
vn 0.421197 0.905693 0.048100
vn 0.421197 0.905693 0.048100
vn 0.612008 -0.060801 -0.788511
vn 0.612008 -0.060801 -0.788511
vn 0.612008 -0.060801 -0.788511
vn 0.473490 0.122197 -0.872282
vn 0.473490 0.122197 -0.872282
vn 0.473490 0.122197 -0.872282
vn 0.522306 -0.053001 -0.851110
vn 0.522306 -0.053001 -0.851110
vn 0.522306 -0.053001 -0.851110
vn 0.158206 -0.984135 -0.080303
vn 0.158206 -0.984135 -0.080303
vn 0.158206 -0.984135 -0.080303
vn -0.753781 0.407790 -0.515287
vn -0.753781 0.407790 -0.515287
vn -0.753781 0.407790 -0.515287
vn -0.751176 0.417887 -0.510984
vn -0.751176 0.417887 -0.510984
vn -0.751176 0.417887 -0.510984
vn -0.120598 -0.973581 -0.193896
vn -0.120598 -0.973581 -0.193896
vn -0.120598 -0.973581 -0.193896
vn -0.778448 0.615238 0.124508
vn -0.778448 0.615238 0.124508
vn -0.778448 0.615238 0.124508
vn -0.724193 -0.274997 0.632394
vn -0.724193 -0.274997 0.632394
vn -0.724193 -0.274997 0.632394
vn -0.780036 0.345316 -0.521824
vn -0.780036 0.345316 -0.521824
vn -0.780036 0.345316 -0.521824
vn -0.946069 0.093797 -0.310090
vn -0.946069 0.093797 -0.310090
vn -0.946069 0.093797 -0.310090
vn -0.526899 0.415399 0.741499
vn -0.526899 0.415399 0.741499
vn -0.526899 0.415399 0.741499
vn -0.989180 -0.118498 0.086498
vn -0.989180 -0.118498 0.086498
vn -0.989180 -0.118498 0.086498
vn -0.828629 0.534119 0.167606
vn -0.828629 0.534119 0.167606
vn -0.828629 0.534119 0.167606
vn -0.724193 -0.274997 0.632394
vn -0.724193 -0.274997 0.632394
vn -0.724193 -0.274997 0.632394
vn -0.283393 -0.572486 -0.769381
vn -0.283393 -0.572486 -0.769381
vn -0.283393 -0.572486 -0.769381
vn -0.739271 0.322287 -0.591277
vn -0.739271 0.322287 -0.591277
vn -0.739271 0.322287 -0.591277
vn -0.127802 -0.980513 -0.149202
vn -0.127802 -0.980513 -0.149202
vn -0.127802 -0.980513 -0.149202
vn 0.261396 -0.410294 -0.873688
vn 0.261396 -0.410294 -0.873688
vn 0.261396 -0.410294 -0.873688
vn 0.382203 0.797506 -0.466803
vn 0.382203 0.797506 -0.466803
vn 0.382203 0.797506 -0.466803
vn 0.615201 0.034800 -0.787602
vn 0.615201 0.034800 -0.787602
vn 0.615201 0.034800 -0.787602
vn -0.044399 -0.386096 -0.921390
vn -0.044399 -0.386096 -0.921390
vn -0.044399 -0.386096 -0.921390
vn 0.328093 -0.412791 -0.849682
vn 0.328093 -0.412791 -0.849682
vn 0.328093 -0.412791 -0.849682
vn -0.739271 0.322287 -0.591277
vn -0.739271 0.322287 -0.591277
vn -0.739271 0.322287 -0.591277
vn -0.204497 -0.081299 -0.975485
vn -0.204497 -0.081299 -0.975485
vn -0.204497 -0.081299 -0.975485
vn -0.152592 0.119394 -0.981051
vn -0.152592 0.119394 -0.981051
vn -0.152592 0.119394 -0.981051
vn 0.615201 0.034800 -0.787602
vn 0.615201 0.034800 -0.787602
vn 0.615201 0.034800 -0.787602
vn -0.085195 -0.743256 0.663561
vn -0.085195 -0.743256 0.663561
vn -0.085195 -0.743256 0.663561
vn 0.114196 -0.559580 0.820871
vn 0.114196 -0.559580 0.820871
vn 0.114196 -0.559580 0.820871
vn 0.739421 -0.310209 0.597517
vn 0.739421 -0.310209 0.597517
vn 0.739421 -0.310209 0.597517
vn -0.514815 0.135504 0.846525
vn -0.514815 0.135504 0.846525
vn -0.514815 0.135504 0.846525
vn -0.341298 0.266799 0.901296
vn -0.341298 0.266799 0.901296
vn -0.341298 0.266799 0.901296
vn 0.281696 0.006000 0.959485
vn 0.281696 0.006000 0.959485
vn 0.281696 0.006000 0.959485
vn 0.069097 -0.075397 0.994757
vn 0.069097 -0.075397 0.994757
vn 0.069097 -0.075397 0.994757
vn 0.114196 -0.559580 0.820871
vn 0.114196 -0.559580 0.820871
vn 0.114196 -0.559580 0.820871
s off
g rock4
usemtl standardSurface1SG
f 4/1/1 2/2/2 1/3/3
f 5/4/4 1/3/5 2/2/6
f 5/4/7 3/5/8 1/3/9
f 4/1/10 1/3/11 3/5/12
f 8/6/13 5/7/14 6/8/15
f 5/7/16 7/9/17 6/8/18
f 7/10/19 5/4/20 2/2/21
f 37/11/22 43/12/23 42/13/24
f 41/14/25 8/6/26 9/15/27
f 8/16/28 10/17/29 9/18/30
f 37/19/31 41/14/32 9/15/33
f 8/16/34 6/20/35 10/17/36
f 11/21/37 10/17/38 13/22/39
f 3/23/40 10/17/41 11/21/42
f 6/20/43 12/24/44 10/17/45
f 10/17/46 12/24/47 14/25/48
f 9/18/49 10/17/50 3/23/51
f 13/22/52 10/17/53 14/25/54
f 18/26/55 45/27/56 15/28/57
f 14/29/58 45/27/59 44/30/60
f 14/29/61 12/31/62 15/28/63
f 15/32/64 16/33/65 7/34/66
f 15/28/67 17/35/68 16/36/69
f 17/35/70 15/28/71 12/31/72
f 15/32/73 19/37/74 18/38/75
f 13/39/76 47/40/77 20/41/78
f 15/32/79 7/34/80 19/37/81
f 20/42/82 18/38/83 19/37/84
f 20/42/85 19/37/86 7/34/87
f 4/43/88 21/44/89 20/42/90
f 21/45/91 23/46/92 20/41/93
f 18/26/94 46/47/95 45/27/96
f 11/48/97 13/39/98 20/41/99
f 23/46/100 11/48/101 20/41/102
f 7/34/103 22/49/104 20/42/105
f 4/43/106 20/42/107 22/49/108
f 47/40/109 18/50/110 20/41/111
f 23/46/112 24/51/113 11/48/114
f 31/52/115 21/53/116 26/54/117
f 23/46/118 25/55/119 24/51/120
f 31/52/121 26/54/122 32/56/123
f 11/21/124 24/57/125 25/58/126
f 11/21/127 25/58/128 3/23/129
f 33/59/130 26/54/131 3/5/132
f 25/60/133 33/59/134 3/5/135
f 31/61/136 23/46/137 21/45/138
f 26/54/139 21/53/140 4/1/141
f 26/54/142 4/1/143 3/5/144
f 7/34/145 2/62/146 22/49/147
f 4/43/148 22/49/149 2/62/150
f 17/35/151 30/63/152 16/36/153
f 17/64/154 27/65/155 30/66/156
f 29/67/157 27/68/158 17/35/159
f 12/31/160 28/69/161 17/35/162
f 28/69/163 29/67/164 17/35/165
f 30/70/166 27/71/167 29/72/168
f 16/33/169 30/73/170 7/34/171
f 7/9/172 30/70/173 6/8/174
f 30/70/175 29/72/176 6/8/177
f 29/72/178 28/74/179 6/8/180
f 6/20/181 28/75/182 12/24/183
f 37/11/184 36/76/185 3/5/186
f 37/11/187 3/5/188 43/12/189
f 9/18/190 36/77/191 38/78/192
f 33/59/193 34/79/194 35/80/195
f 23/46/196 34/81/197 25/55/198
f 33/59/199 32/56/200 26/54/201
f 25/60/202 34/79/203 33/59/204
f 31/61/205 35/82/206 23/46/207
f 35/80/208 31/52/209 32/56/210
f 32/56/211 33/59/212 35/80/213
f 23/46/214 35/82/215 34/81/216
f 36/77/217 37/83/218 38/78/219
f 43/12/220 5/4/221 39/84/222
f 9/18/223 3/23/224 36/77/225
f 9/15/226 38/85/227 37/19/228
f 41/86/229 42/87/230 43/88/231
f 8/6/232 39/89/233 5/7/234
f 41/14/235 40/90/236 8/6/237
f 37/19/238 42/91/239 41/14/240
f 43/12/241 3/5/242 5/4/243
f 43/92/244 39/89/245 40/90/246
f 40/90/247 41/14/248 43/92/249
f 8/6/250 40/90/251 39/89/252
f 45/93/253 46/94/254 47/95/255
f 48/96/256 14/29/257 44/30/258
f 14/29/259 15/28/260 45/27/261
f 13/39/262 48/97/263 47/40/264
f 47/40/265 46/98/266 18/50/267
f 48/96/268 44/30/269 47/99/270
f 44/100/271 45/101/272 47/102/273
f 48/96/274 13/103/275 14/29/276
