# This file uses centimeters as units for non-parametric coordinates.

mtllib rock_68.mtl
g default
v -0.305995 -0.136141 0.175030
v -0.271659 -0.121104 -0.283571
v 0.281341 -0.196700 0.262506
v -0.355124 -0.013969 0.213562
v 0.308522 -0.172687 -0.137806
v -0.012327 -0.166420 0.218769
v 0.295542 -0.087401 0.284184
v 0.300386 0.029972 0.213212
v 0.325082 0.003013 -0.167431
v -0.177990 0.196700 -0.177822
v -0.343547 0.099702 0.219867
v 0.006004 0.048369 -0.217197
v -0.322238 0.078565 -0.203298
v -0.320312 0.098111 -0.201066
v -0.255227 0.141100 -0.240784
v -0.229641 0.084592 -0.270459
v -0.297989 0.010619 -0.287348
v -0.313801 0.057816 -0.210431
v -0.035456 -0.051128 0.287348
v 0.355124 -0.044750 0.064944
v 0.307019 0.087762 -0.135231
v 0.231692 0.152966 -0.121629
v 0.295628 0.124835 -0.052917
v -0.000789 -0.192283 0.017874
vt 0.206301 0.243366
vt 0.000000 0.488045
vt 0.046872 0.026016
vt 0.719389 0.885765
vt 0.745836 0.559152
vt 0.807934 0.884817
vt 0.251191 0.997214
vt 0.340743 0.761730
vt 0.340743 0.992485
vt 0.366308 0.230662
vt 0.987842 0.463978
vt 0.826376 0.442214
vt 0.839402 0.253819
vt 0.240767 0.742120
vt 0.340743 0.530975
vt 0.240767 0.809716
vt 0.152176 0.488045
vt 0.240767 0.498880
vt 0.062092 0.548349
vt 0.127228 0.662263
vt 0.101783 0.841559
vt 1.000000 0.494598
vt 0.927218 0.754670
vt 0.910824 0.498147
vt 0.859064 0.002493
vt 0.987842 0.000000
vt 0.719389 0.499967
vt 0.436927 0.438365
vt 0.392834 0.119638
vt 0.735169 0.074438
vt 0.787194 0.015953
vt 0.776856 0.460101
vt 0.719389 0.395055
vt 0.410737 0.013378
vt 0.719389 0.000000
vt 0.763330 0.553630
vt 0.910824 0.499221
vt 0.910824 0.855009
vt 0.494477 0.489609
vt 0.456522 0.499967
vt 0.456522 0.996492
vt 0.366308 0.994017
vt 0.887818 0.492147
vt 0.835045 0.494598
vt 0.730582 0.560204
vt 0.366308 0.000000
vt 0.241864 0.488045
vt 1.000000 1.000000
vt 0.366308 0.061501
vt 0.803774 0.494598
vt 0.363013 0.554114
vt 0.348265 0.543127
vt 0.340743 0.529953
vt 0.363013 0.488045
vt 0.500049 0.563902
vt 0.456522 0.533414
vt 0.500049 0.499967
vt 0.445552 0.498969
vt 0.000000 0.757274
vt 0.033269 0.819602
vt 0.366308 0.461324
vn -0.037429 -0.979555 -0.197666
vn -0.037429 -0.979555 -0.197666
vn -0.037429 -0.979555 -0.197666
vn -0.993023 0.104202 -0.055201
vn -0.993023 0.104202 -0.055201
vn -0.993023 0.104202 -0.055201
vn -0.162398 -0.171598 0.971690
vn -0.162398 -0.171598 0.971690
vn -0.162398 -0.171598 0.971690
vn 0.129696 -0.982472 0.133896
vn 0.129696 -0.982472 0.133896
vn 0.129696 -0.982472 0.133896
vn 0.222900 0.016600 -0.974700
vn 0.222900 0.016600 -0.974700
vn 0.222900 0.016600 -0.974700
vn -0.070599 -0.706092 0.704592
vn -0.070599 -0.706092 0.704592
vn -0.070599 -0.706092 0.704592
vn 0.988396 -0.140099 0.058700
vn 0.988396 -0.140099 0.058700
vn 0.988396 -0.140099 0.058700
vn 0.818200 0.574800 0.012400
vn 0.818200 0.574800 0.012400
vn 0.818200 0.574800 0.012400
vn 0.064501 0.514409 0.855116
vn 0.064501 0.514409 0.855116
vn 0.064501 0.514409 0.855116
vn 0.847358 -0.514835 0.130109
vn 0.847358 -0.514835 0.130109
vn 0.847358 -0.514835 0.130109
vn 0.224296 -0.182496 -0.957281
vn 0.224296 -0.182496 -0.957281
vn 0.224296 -0.182496 -0.957281
vn 0.054597 0.940854 0.334384
vn 0.054597 0.940854 0.334384
vn 0.054597 0.940854 0.334384
vn 0.165400 0.380901 -0.909702
vn 0.165400 0.380901 -0.909702
vn 0.165400 0.380901 -0.909702
vn 0.263699 0.539397 -0.799696
vn 0.263699 0.539397 -0.799696
vn 0.263699 0.539397 -0.799696
vn -0.565287 0.824181 -0.034299
vn -0.565287 0.824181 -0.034299
vn -0.565287 0.824181 -0.034299
vn 0.106301 0.954913 0.277204
vn 0.106301 0.954913 0.277204
vn 0.106301 0.954913 0.277204
vn -0.977044 -0.197609 -0.079604
vn -0.977044 -0.197609 -0.079604
vn -0.977044 -0.197609 -0.079604
vn 0.054597 0.940854 0.334384
vn 0.054597 0.940854 0.334384
vn 0.054597 0.940854 0.334384
vn 0.004300 -0.055802 0.998433
vn 0.004300 -0.055802 0.998433
vn 0.004300 -0.055802 0.998433
vn -0.569604 0.643204 -0.511703
vn -0.569604 0.643204 -0.511703
vn -0.569604 0.643204 -0.511703
vn -0.932914 -0.328905 -0.146602
vn -0.932914 -0.328905 -0.146602
vn -0.932914 -0.328905 -0.146602
vn -0.993023 0.104202 -0.055201
vn -0.993023 0.104202 -0.055201
vn -0.993023 0.104202 -0.055201
vn -0.162398 -0.171598 0.971690
vn -0.162398 -0.171598 0.971690
vn -0.162398 -0.171598 0.971690
vn -0.092602 -0.993520 -0.065901
vn -0.092602 -0.993520 -0.065901
vn -0.092602 -0.993520 -0.065901
vn 0.168199 0.108200 -0.979797
vn 0.168199 0.108200 -0.979797
vn 0.168199 0.108200 -0.979797
vn 0.222900 0.016600 -0.974700
vn 0.222900 0.016600 -0.974700
vn 0.222900 0.016600 -0.974700
vn -0.249801 -0.381202 0.890104
vn -0.249801 -0.381202 0.890104
vn -0.249801 -0.381202 0.890104
vn -0.052100 0.782794 0.620096
vn -0.052100 0.782794 0.620096
vn -0.052100 0.782794 0.620096
vn 0.201196 0.476790 -0.855682
vn 0.201196 0.476790 -0.855682
vn 0.201196 0.476790 -0.855682
vn 0.263699 0.539397 -0.799696
vn 0.263699 0.539397 -0.799696
vn 0.263699 0.539397 -0.799696
vn -0.565287 0.824181 -0.034299
vn -0.565287 0.824181 -0.034299
vn -0.565287 0.824181 -0.034299
vn -0.977044 -0.197609 -0.079604
vn -0.977044 -0.197609 -0.079604
vn -0.977044 -0.197609 -0.079604
vn -0.409291 0.143297 -0.901081
vn -0.409291 0.143297 -0.901081
vn -0.409291 0.143297 -0.901081
vn -0.565196 0.098999 -0.818995
vn -0.565196 0.098999 -0.818995
vn -0.565196 0.098999 -0.818995
vn -0.603900 0.138700 -0.784900
vn -0.603900 0.138700 -0.784900
vn -0.603900 0.138700 -0.784900
vn -0.932914 -0.328905 -0.146602
vn -0.932914 -0.328905 -0.146602
vn -0.932914 -0.328905 -0.146602
vn 0.949672 0.132396 0.283892
vn 0.949672 0.132396 0.283892
vn 0.949672 0.132396 0.283892
vn 0.981448 -0.118006 -0.151107
vn 0.981448 -0.118006 -0.151107
vn 0.981448 -0.118006 -0.151107
vn 0.606022 0.753328 -0.255409
vn 0.606022 0.753328 -0.255409
vn 0.606022 0.753328 -0.255409
vn 0.980519 0.189904 0.050201
vn 0.980519 0.189904 0.050201
vn 0.980519 0.189904 0.050201
vn 0.165400 0.380901 -0.909702
vn 0.165400 0.380901 -0.909702
vn 0.165400 0.380901 -0.909702
vn 0.980519 0.189904 0.050201
vn 0.980519 0.189904 0.050201
vn 0.980519 0.189904 0.050201
vn -0.204196 -0.977782 -0.047399
vn -0.204196 -0.977782 -0.047399
vn -0.204196 -0.977782 -0.047399
vn -0.119495 -0.985557 0.119995
vn -0.119495 -0.985557 0.119995
vn -0.119495 -0.985557 0.119995
s off
g rock67
usemtl standardSurface1SG
f 24/1/1 2/2/2 5/3/3
f 11/4/4 13/5/5 4/6/6
f 7/7/7 6/8/8 3/9/9
f 6/10/10 24/1/11 5/3/12
f 2/11/13 16/12/14 12/13/15
f 19/14/16 1/15/17 7/7/18
f 5/16/19 7/17/20 3/18/21
f 8/19/22 20/20/23 9/21/24
f 8/22/25 19/23/26 7/24/27
f 5/16/28 20/20/29 7/17/30
f 9/25/31 5/26/32 2/11/33
f 8/27/34 22/28/35 10/29/36
f 9/25/37 22/30/38 21/31/39
f 16/12/40 15/32/41 10/33/42
f 10/29/43 14/34/44 11/35/45
f 10/29/46 11/35/47 8/27/48
f 18/36/49 2/37/50 1/38/51
f 8/27/52 23/39/53 22/28/54
f 8/40/55 11/41/56 4/42/57
f 16/12/58 17/43/59 18/44/60
f 4/6/61 18/36/62 1/38/63
f 11/4/64 14/45/65 13/5/66
f 7/7/67 1/15/68 6/8/69
f 5/3/70 3/46/71 6/10/72
f 12/13/73 9/25/74 2/11/75
f 2/11/76 17/43/77 16/12/78
f 19/14/79 4/47/80 1/15/81
f 8/22/82 4/48/83 19/23/84
f 10/33/85 9/25/86 12/13/87
f 12/13/88 16/12/89 10/33/90
f 10/29/91 15/49/92 14/34/93
f 18/36/94 17/50/95 2/37/96
f 18/51/97 13/52/98 14/53/99
f 14/53/100 15/54/101 18/51/102
f 15/55/103 16/56/104 18/57/105
f 4/6/106 13/5/107 18/36/108
f 8/19/109 7/17/110 20/20/111
f 5/16/112 9/21/113 20/20/114
f 21/58/115 22/28/116 23/39/117
f 9/21/118 23/59/119 8/19/120
f 9/25/121 10/33/122 22/30/123
f 9/21/124 21/60/125 23/59/126
f 24/1/127 1/61/128 2/2/129
f 6/10/130 1/61/131 24/1/132
