# This file uses centimeters as units for non-parametric coordinates.

mtllib rock_65.mtl
g default
v -0.045338 -0.204647 -0.254418
v -0.031338 0.062913 -0.318109
v -0.113114 -0.064853 -0.350180
v -0.162830 -0.219190 -0.220847
v -0.271443 -0.071483 -0.224165
v 0.021158 -0.306643 0.123238
v 0.077567 -0.117123 0.286857
v -0.256911 0.006363 -0.113715
v -0.126084 0.267991 0.092276
v -0.120148 0.286749 -0.074908
v 0.153627 0.279152 -0.088726
v 0.244168 0.215670 0.106998
v 0.120331 0.147328 0.350179
v 0.163815 0.256266 0.275270
v 0.200471 -0.273907 0.106043
v 0.145569 -0.333884 0.158919
v 0.085990 0.368718 0.244764
v 0.040565 0.358656 0.260594
v 0.085032 0.327164 0.307477
v 0.105957 0.335366 0.288492
v 0.104768 0.349127 0.262501
v -0.070092 0.142234 -0.286133
v -0.054782 0.189684 -0.277426
v -0.011390 0.185367 -0.282548
v -0.035683 0.117411 -0.316133
v 0.260592 -0.030137 0.011424
v 0.271444 -0.027406 0.044740
v 0.254823 -0.053724 0.076802
v 0.239271 -0.094379 0.079175
v 0.255224 -0.143814 0.051868
v 0.249508 -0.142668 0.010262
v 0.237942 -0.069080 -0.016290
v 0.112346 -0.342089 -0.090129
v 0.142813 -0.341682 -0.059049
v 0.138617 -0.356944 -0.037908
v 0.128071 -0.368718 -0.031066
v 0.106138 -0.363772 -0.036671
v 0.091846 -0.358270 -0.087993
v 0.101547 -0.352975 -0.095700
vt 0.530118 1.000000
vt 0.520055 0.992227
vt 0.573938 0.924253
vt 0.539393 0.168584
vt 0.582674 0.360806
vt 0.484775 0.265120
vt 0.203430 0.735247
vt 0.067727 0.814050
vt 0.119691 0.703031
vt 0.636910 0.962619
vt 0.215206 0.866427
vt 0.455480 0.395869
vt 0.484775 0.485546
vt 0.373644 0.558954
vt 0.086138 0.460565
vt 0.056087 0.277940
vt 0.886620 0.297240
vt 0.800797 0.446907
vt 0.766905 0.449221
vt 0.398966 0.143768
vt 0.484775 0.192861
vt 0.924104 0.045216
vt 1.000000 0.000000
vt 1.000000 0.219466
vt 0.820779 0.771653
vt 0.990971 0.839518
vt 0.962504 0.856745
vt 0.564559 0.078869
vt 0.758629 0.000000
vt 0.990971 0.651915
vt 0.732669 0.683509
vt 0.379558 0.701918
vt 0.335701 0.752610
vt 0.215206 0.559577
vt 0.732669 0.796914
vt 0.514359 0.769226
vt 0.732669 0.603641
vt 0.526095 0.797936
vt 0.657947 0.531344
vt 0.710028 0.476589
vt 0.671294 0.464249
vt 0.518755 0.573488
vt 0.946040 0.505151
vt 0.781619 0.496335
vt 0.783886 0.478735
vt 0.110931 0.088525
vt 0.275841 0.004204
vt 0.923229 0.037978
vt 0.887506 0.215676
vt 0.758617 0.457682
vt 0.924104 0.392541
vt 0.811807 0.457750
vt 0.086411 0.540067
vt 0.101320 0.542137
vt 0.135068 0.559577
vt 0.000000 0.446905
vt 0.000000 0.866427
vt 0.749417 0.464249
vt 0.771477 0.464539
vt 0.746560 0.509287
vt 0.413629 0.727146
vt 0.373686 0.737949
vt 0.413629 0.570574
vt 0.467887 0.559577
vt 0.467887 0.613041
vt 0.413629 0.586121
vt 0.861489 0.245285
vt 0.476599 0.577991
vt 0.472946 0.566322
vt 0.484775 0.559577
vt 0.172274 0.559700
vt 0.535663 0.129539
vt 0.505203 0.835611
vt 0.687802 0.472416
vt 0.219821 0.000000
vt 0.484775 0.752826
vt 0.912522 0.212622
vt 0.914057 0.297094
vt 0.411890 0.698332
vt 0.924104 0.231855
vt 0.919493 0.261848
vt 0.468502 0.566763
vt 0.472946 0.559577
vt 0.472946 0.575329
vt 0.796183 0.464249
vt 0.758419 0.461845
vt 0.484775 0.593906
vt 0.161752 0.559577
vn 0.758075 -0.650295 0.049382
vn 0.758075 -0.650295 0.049382
vn 0.758075 -0.650295 0.049382
vn 0.625168 -0.211589 -0.751262
vn 0.625168 -0.211589 -0.751262
vn 0.625168 -0.211589 -0.751262
vn -0.147995 -0.606778 -0.780972
vn -0.147995 -0.606778 -0.780972
vn -0.147995 -0.606778 -0.780972
vn 0.758040 -0.650334 0.049403
vn 0.758040 -0.650334 0.049403
vn 0.758040 -0.650334 0.049403
vn -0.553404 -0.423003 -0.717505
vn -0.553404 -0.423003 -0.717505
vn -0.553404 -0.423003 -0.717505
vn -0.719994 -0.519096 0.460596
vn -0.719994 -0.519096 0.460596
vn -0.719994 -0.519096 0.460596
vn -0.887828 -0.119404 0.444414
vn -0.887828 -0.119404 0.444414
vn -0.887828 -0.119404 0.444414
vn 0.708098 -0.138500 -0.692398
vn 0.708098 -0.138500 -0.692398
vn 0.708098 -0.138500 -0.692398
vn -0.728617 -0.517212 0.449010
vn -0.728617 -0.517212 0.449010
vn -0.728617 -0.517212 0.449010
vn -0.778612 -0.098602 0.619710
vn -0.778612 -0.098602 0.619710
vn -0.778612 -0.098602 0.619710
vn -0.899594 0.436397 0.017000
vn -0.899594 0.436397 0.017000
vn -0.899594 0.436397 0.017000
vn -0.563010 0.708613 -0.425308
vn -0.563010 0.708613 -0.425308
vn -0.563010 0.708613 -0.425308
vn 0.040399 0.906073 -0.421188
vn 0.040399 0.906073 -0.421188
vn 0.040399 0.906073 -0.421188
vn 0.741734 0.072803 -0.666731
vn 0.741734 0.072803 -0.666731
vn 0.741734 0.072803 -0.666731
vn 0.033200 0.993086 0.112598
vn 0.033200 0.993086 0.112598
vn 0.033200 0.993086 0.112598
vn -0.667629 -0.026201 -0.744033
vn -0.667629 -0.026201 -0.744033
vn -0.667629 -0.026201 -0.744033
vn 0.775036 -0.262912 0.574627
vn 0.775036 -0.262912 0.574627
vn 0.775036 -0.262912 0.574627
vn 0.790720 -0.080102 0.606915
vn 0.790720 -0.080102 0.606915
vn 0.790720 -0.080102 0.606915
vn 0.576387 0.294194 0.762383
vn 0.576387 0.294194 0.762383
vn 0.576387 0.294194 0.762383
vn 0.800803 0.543702 0.251201
vn 0.800803 0.543702 0.251201
vn 0.800803 0.543702 0.251201
vn 0.708200 0.705400 0.029400
vn 0.708200 0.705400 0.029400
vn 0.708200 0.705400 0.029400
vn -0.717018 0.024701 0.696617
vn -0.717018 0.024701 0.696617
vn -0.717018 0.024701 0.696617
vn 0.895905 -0.054400 0.440902
vn 0.895905 -0.054400 0.440902
vn 0.895905 -0.054400 0.440902
vn 0.892738 -0.015201 0.450319
vn 0.892738 -0.015201 0.450319
vn 0.892738 -0.015201 0.450319
vn -0.732562 -0.044198 0.679264
vn -0.732562 -0.044198 0.679264
vn -0.732562 -0.044198 0.679264
vn 0.912388 0.199897 -0.357195
vn 0.912388 0.199897 -0.357195
vn 0.912388 0.199897 -0.357195
vn 0.609300 -0.213700 -0.763600
vn 0.609300 -0.213700 -0.763600
vn 0.609300 -0.213700 -0.763600
vn 0.892056 -0.431479 -0.134393
vn 0.892056 -0.431479 -0.134393
vn 0.892056 -0.431479 -0.134393
vn 0.760406 -0.136201 0.635005
vn 0.760406 -0.136201 0.635005
vn 0.760406 -0.136201 0.635005
vn -0.263394 -0.944277 0.197395
vn -0.263394 -0.944277 0.197395
vn -0.263394 -0.944277 0.197395
vn -0.496981 -0.866568 0.045498
vn -0.496981 -0.866568 0.045498
vn -0.496981 -0.866568 0.045498
vn -0.339314 -0.554822 0.759631
vn -0.339314 -0.554822 0.759631
vn -0.339314 -0.554822 0.759631
vn -0.546712 0.515511 -0.659814
vn -0.546712 0.515511 -0.659814
vn -0.546712 0.515511 -0.659814
vn 0.074901 0.882712 0.463906
vn 0.074901 0.882712 0.463906
vn 0.074901 0.882712 0.463906
vn -0.283905 0.932917 -0.221504
vn -0.283905 0.932917 -0.221504
vn -0.283905 0.932917 -0.221504
vn -0.326107 0.509911 -0.796018
vn -0.326107 0.509911 -0.796018
vn -0.326107 0.509911 -0.796018
vn -0.760737 0.437421 -0.479523
vn -0.760737 0.437421 -0.479523
vn -0.760737 0.437421 -0.479523
vn 0.985697 0.165799 0.030200
vn 0.985697 0.165799 0.030200
vn 0.985697 0.165799 0.030200
vn 0.755481 0.046999 -0.653483
vn 0.755481 0.046999 -0.653483
vn 0.755481 0.046999 -0.653483
vn 0.085597 -0.556880 -0.826170
vn 0.085597 -0.556880 -0.826170
vn 0.085597 -0.556880 -0.826170
vn -0.086900 -0.766699 -0.636099
vn -0.086900 -0.766699 -0.636099
vn -0.086900 -0.766699 -0.636099
vn 0.708098 -0.138500 -0.692398
vn 0.708098 -0.138500 -0.692398
vn 0.708098 -0.138500 -0.692398
vn 0.708098 -0.138500 -0.692398
vn 0.708098 -0.138500 -0.692398
vn 0.708098 -0.138500 -0.692398
vn 0.002900 0.899211 -0.437505
vn 0.002900 0.899211 -0.437505
vn 0.002900 0.899211 -0.437505
vn 0.720814 0.082402 -0.688213
vn 0.720814 0.082402 -0.688213
vn 0.720814 0.082402 -0.688213
vn -0.667629 -0.026201 -0.744033
vn -0.667629 -0.026201 -0.744033
vn -0.667629 -0.026201 -0.744033
vn 0.775036 -0.262912 0.574627
vn 0.775036 -0.262912 0.574627
vn 0.775036 -0.262912 0.574627
vn 0.790720 -0.080102 0.606915
vn 0.790720 -0.080102 0.606915
vn 0.790720 -0.080102 0.606915
vn 0.576387 0.294194 0.762383
vn 0.576387 0.294194 0.762383
vn 0.576387 0.294194 0.762383
vn 0.800803 0.543702 0.251201
vn 0.800803 0.543702 0.251201
vn 0.800803 0.543702 0.251201
vn 0.663822 0.745025 -0.065402
vn 0.663822 0.745025 -0.065402
vn 0.663822 0.745025 -0.065402
vn -0.717018 0.024701 0.696617
vn -0.717018 0.024701 0.696617
vn -0.717018 0.024701 0.696617
vn 0.892698 -0.015200 0.450399
vn 0.892698 -0.015200 0.450399
vn 0.892698 -0.015200 0.450399
vn 0.929676 0.185795 -0.318092
vn 0.929676 0.185795 -0.318092
vn 0.929676 0.185795 -0.318092
vn 0.609300 -0.213700 -0.763600
vn 0.609300 -0.213700 -0.763600
vn 0.609300 -0.213700 -0.763600
vn 0.892095 -0.431397 -0.134399
vn 0.892095 -0.431397 -0.134399
vn 0.892095 -0.431397 -0.134399
vn 0.892095 -0.431397 -0.134399
vn 0.892095 -0.431397 -0.134399
vn 0.892095 -0.431397 -0.134399
vn -0.263394 -0.944277 0.197395
vn -0.263394 -0.944277 0.197395
vn -0.263394 -0.944277 0.197395
vn -0.496981 -0.866568 0.045498
vn -0.496981 -0.866568 0.045498
vn -0.496981 -0.866568 0.045498
vn 0.085001 0.712305 0.696704
vn 0.085001 0.712305 0.696704
vn 0.085001 0.712305 0.696704
vn 0.115200 0.871703 0.476302
vn 0.115200 0.871703 0.476302
vn 0.115200 0.871703 0.476302
vn -0.228204 0.927717 -0.295405
vn -0.228204 0.927717 -0.295405
vn -0.228204 0.927717 -0.295405
vn -0.094098 0.208995 -0.973379
vn -0.094098 0.208995 -0.973379
vn -0.094098 0.208995 -0.973379
vn -0.830667 0.347786 -0.434783
vn -0.830667 0.347786 -0.434783
vn -0.830667 0.347786 -0.434783
vn 0.886542 -0.454622 -0.085804
vn 0.886542 -0.454622 -0.085804
vn 0.886542 -0.454622 -0.085804
vn 0.718644 -0.671942 -0.179011
vn 0.718644 -0.671942 -0.179011
vn 0.718644 -0.671942 -0.179011
vn 0.926357 -0.360683 -0.108495
vn 0.926357 -0.360683 -0.108495
vn 0.926357 -0.360683 -0.108495
vn 0.924446 0.362918 -0.117006
vn 0.924446 0.362918 -0.117006
vn 0.924446 0.362918 -0.117006
vn 0.744233 0.041502 -0.666630
vn 0.744233 0.041502 -0.666630
vn 0.744233 0.041502 -0.666630
vn 0.614500 -0.744000 0.262400
vn 0.614500 -0.744000 0.262400
vn 0.614500 -0.744000 0.262400
vn 0.338102 -0.885106 -0.319802
vn 0.338102 -0.885106 -0.319802
vn 0.338102 -0.885106 -0.319802
vn 0.584722 -0.773129 -0.245709
vn 0.584722 -0.773129 -0.245709
vn 0.584722 -0.773129 -0.245709
vn 0.150194 -0.815467 -0.558977
vn 0.150194 -0.815467 -0.558977
vn 0.150194 -0.815467 -0.558977
vn -0.086900 -0.766699 -0.636099
vn -0.086900 -0.766699 -0.636099
vn -0.086900 -0.766699 -0.636099
s off
g rock64
usemtl standardSurface1SG
f 36/1/1 35/2/2 15/3/3
f 2/4/4 1/5/5 3/6/6
f 4/7/7 3/8/8 1/9/9
f 36/1/10 15/3/11 16/10/12
f 3/8/13 4/7/14 5/11/15
f 8/12/16 5/13/17 4/14/18
f 6/15/19 7/16/20 4/14/21
f 31/17/22 34/18/23 33/19/24
f 7/16/25 8/12/26 4/14/27
f 9/20/28 8/12/29 7/16/30
f 8/12/31 9/20/32 10/21/33
f 5/22/34 8/23/35 2/24/36
f 10/25/37 24/26/38 23/27/39
f 2/4/40 24/28/41 11/29/42
f 11/30/43 10/25/44 9/31/45
f 22/32/46 2/33/47 8/34/48
f 7/35/49 28/36/50 13/37/51
f 15/3/52 29/38/53 7/35/54
f 14/39/55 19/40/56 13/37/57
f 21/41/58 14/39/59 12/42/60
f 12/43/61 17/44/62 21/45/63
f 13/46/64 18/47/65 9/20/66
f 12/42/67 14/39/68 13/37/69
f 28/36/70 12/42/71 13/37/72
f 7/16/73 13/46/74 9/20/75
f 12/48/76 26/49/77 11/29/78
f 1/5/79 33/19/80 39/50/81
f 15/51/82 35/52/83 34/18/84
f 7/35/85 16/10/86 15/3/87
f 36/53/88 6/15/89 37/54/90
f 38/55/91 6/15/92 4/14/93
f 7/16/94 6/15/95 16/56/96
f 3/8/97 5/11/98 2/57/99
f 19/58/100 20/59/101 21/45/102
f 17/44/103 9/31/104 18/60/105
f 22/32/106 24/61/107 25/62/108
f 10/63/109 22/32/110 8/34/111
f 31/64/112 32/65/113 29/66/114
f 11/29/115 32/67/116 2/4/117
f 35/68/118 36/69/119 37/70/120
f 1/9/121 38/71/122 4/7/123
f 33/19/124 2/4/125 32/67/126
f 32/67/127 31/17/128 33/19/129
f 10/25/130 11/30/131 24/26/132
f 2/4/133 25/72/134 24/28/135
f 22/32/136 25/62/137 2/33/138
f 7/35/139 29/38/140 28/36/141
f 15/3/142 30/73/143 29/38/144
f 14/39/145 20/74/146 19/40/147
f 21/41/148 20/74/149 14/39/150
f 12/43/151 11/30/152 17/44/153
f 13/46/154 19/75/155 18/47/156
f 28/36/157 27/76/158 12/42/159
f 12/48/160 27/77/161 26/49/162
f 1/5/163 2/4/164 33/19/165
f 34/18/166 31/17/167 15/51/168
f 31/17/169 30/78/170 15/51/171
f 36/53/172 16/56/173 6/15/174
f 38/55/175 37/54/176 6/15/177
f 21/45/178 17/44/179 18/60/180
f 18/60/181 19/58/182 21/45/183
f 17/44/184 11/30/185 9/31/186
f 22/32/187 23/79/188 24/61/189
f 10/63/190 23/79/191 22/32/192
f 32/67/193 26/49/194 28/80/195
f 26/49/196 27/77/197 28/80/198
f 28/80/199 29/81/200 32/67/201
f 29/81/202 30/78/203 31/17/204
f 11/29/205 26/49/206 32/67/207
f 39/82/208 33/83/209 38/84/210
f 33/19/211 34/18/212 37/85/213
f 38/86/214 33/19/215 37/85/216
f 34/87/217 35/68/218 37/70/219
f 1/9/220 39/88/221 38/71/222
