# This file uses centimeters as units for non-parametric coordinates.

mtllib rock_67.mtl
g default
v -0.315609 0.258336 0.358821
v -0.400896 0.279449 -0.026116
v -0.450153 0.138080 0.411615
v 0.356204 -0.005450 0.030043
v 0.331831 0.022547 -0.327420
v 0.529985 -0.137549 0.056908
v 0.459152 -0.093641 0.501933
v 0.441476 -0.087754 -0.422846
v -0.003736 0.123131 -0.475223
v -0.392710 0.243386 -0.202296
v -0.529985 -0.174769 -0.069072
v -0.462381 -0.130270 -0.467215
v -0.491735 -0.109275 0.136651
v 0.425022 -0.247503 -0.416017
v -0.236620 -0.171522 0.482931
v 0.179904 -0.248069 0.516608
v 0.415077 -0.199200 0.518950
v 0.412205 -0.279449 0.331256
v -0.371989 0.042533 -0.519744
v -0.373855 -0.000279 -0.519296
v -0.458302 -0.053854 -0.498042
v -0.467162 -0.003149 -0.450750
v -0.441072 0.071041 -0.460132
v 0.107388 0.089371 0.505440
v 0.190182 -0.006182 0.519098
v 0.248391 0.012598 0.519744
v 0.267262 0.033296 0.515007
v 0.221226 0.067128 0.437564
v 0.114183 0.109436 0.494779
v 0.454913 -0.269032 -0.010309
v 0.484560 -0.223486 0.048944
v 0.450105 -0.273359 0.098708
v 0.430997 -0.269547 0.091748
v 0.412775 -0.265272 0.073562
v 0.404577 -0.266596 0.038213
vt 0.260361 0.108568
vt 0.233384 0.511474
vt 0.039405 0.442172
vt 0.602881 0.983143
vt 0.526778 0.960742
vt 0.504464 0.771171
vt 0.784275 0.614962
vt 0.923409 0.627159
vt 0.903640 0.651300
vt 0.000000 0.209096
vt 0.037727 0.156216
vt 0.504464 0.083837
vt 0.442904 0.150606
vt 0.496169 0.331937
vt 0.935878 0.707068
vt 0.863820 0.981205
vt 0.327259 0.511976
vt 0.026030 0.010202
vt 0.263106 0.000000
vt 0.163868 0.961465
vt 0.086466 0.928168
vt 0.163868 0.512277
vt 0.747437 0.729112
vt 0.513737 0.681403
vt 1.000000 0.469270
vt 0.789833 0.000000
vt 1.000000 0.019947
vt 0.000000 0.750544
vt 0.504464 0.373918
vt 0.509372 0.161611
vt 0.743401 0.478084
vt 0.734441 0.487898
vt 0.720449 0.834361
vt 0.682798 0.021473
vt 0.747437 1.000000
vt 0.747438 0.824993
vt 0.608543 0.485902
vt 0.509812 0.488476
vt 0.911642 0.510918
vt 0.851027 0.512833
vt 0.257044 0.750900
vt 0.178155 0.717366
vt 0.182622 0.514720
vt 0.202872 0.983693
vt 0.163868 0.889078
vt 0.761679 0.473064
vt 0.262878 0.975302
vt 0.080193 0.514436
vt 0.504464 0.479459
vt 0.699266 0.531771
vt 0.635006 0.546386
vt 0.658051 0.520145
vt 0.174964 0.772027
vt 0.262878 0.512277
vt 0.100399 0.971020
vt 0.059685 0.963176
vt 0.594088 0.545003
vt 0.121828 0.965653
vt 0.064340 0.929942
vt 0.468280 0.512277
vt 0.622147 0.510918
vt 0.937268 0.622046
vt 0.950673 0.652873
vt 0.950673 0.940936
vt 0.001909 0.122814
vt 0.947627 0.707776
vt 0.758119 0.510918
vt 0.731383 0.497808
vt 0.206212 0.746948
vt 0.788579 0.496862
vt 0.272026 0.549027
vt 0.262878 0.517300
vt 0.272026 0.512277
vn 0.353824 0.934919 -0.027115
vn 0.353824 0.934919 -0.027115
vn 0.353824 0.934919 -0.027115
vn -0.615808 0.767410 0.178502
vn -0.615808 0.767410 0.178502
vn -0.615808 0.767410 0.178502
vn -0.007900 -0.010000 0.999919
vn -0.007900 -0.010000 0.999919
vn -0.007900 -0.010000 0.999919
vn 0.342019 0.938152 -0.053803
vn 0.342019 0.938152 -0.053803
vn 0.342019 0.938152 -0.053803
vn 0.711975 0.702175 0.006500
vn 0.711975 0.702175 0.006500
vn 0.711975 0.702175 0.006500
vn 0.263300 0.962999 0.057500
vn 0.263300 0.962999 0.057500
vn 0.263300 0.962999 0.057500
vn -0.166198 -0.003100 0.986088
vn -0.166198 -0.003100 0.986088
vn -0.166198 -0.003100 0.986088
vn 0.358118 0.917845 -0.171208
vn 0.358118 0.917845 -0.171208
vn 0.358118 0.917845 -0.171208
vn 0.603375 0.797267 0.017399
vn 0.603375 0.797267 0.017399
vn 0.603375 0.797267 0.017399
vn 0.607815 0.793519 -0.029801
vn 0.607815 0.793519 -0.029801
vn 0.607815 0.793519 -0.029801
vn 0.309185 0.950754 0.021699
vn 0.309185 0.950754 0.021699
vn 0.309185 0.950754 0.021699
vn 0.004100 -0.374300 -0.927299
vn 0.004100 -0.374300 -0.927299
vn 0.004100 -0.374300 -0.927299
vn -0.954321 0.280906 -0.101802
vn -0.954321 0.280906 -0.101802
vn -0.954321 0.280906 -0.101802
vn -0.122404 -0.983836 -0.130705
vn -0.122404 -0.983836 -0.130705
vn -0.122404 -0.983836 -0.130705
vn 0.123404 -0.015701 -0.992232
vn 0.123404 -0.015701 -0.992232
vn 0.123404 -0.015701 -0.992232
vn -0.176208 -0.982843 -0.054502
vn -0.176208 -0.982843 -0.054502
vn -0.176208 -0.982843 -0.054502
vn -0.176208 -0.982843 -0.054502
vn -0.176208 -0.982843 -0.054502
vn -0.176208 -0.982843 -0.054502
vn -0.961247 0.275013 -0.019301
vn -0.961247 0.275013 -0.019301
vn -0.961247 0.275013 -0.019301
vn -0.977973 -0.058398 0.200395
vn -0.977973 -0.058398 0.200395
vn -0.977973 -0.058398 0.200395
vn -0.630896 -0.697696 0.339398
vn -0.630896 -0.697696 0.339398
vn -0.630896 -0.697696 0.339398
vn -0.766328 -0.415715 0.489818
vn -0.766328 -0.415715 0.489818
vn -0.766328 -0.415715 0.489818
vn -0.043199 0.195895 0.979673
vn -0.043199 0.195895 0.979673
vn -0.043199 0.195895 0.979673
vn -0.176208 -0.982843 -0.054502
vn -0.176208 -0.982843 -0.054502
vn -0.176208 -0.982843 -0.054502
vn 0.184196 -0.904778 0.383991
vn 0.184196 -0.904778 0.383991
vn 0.184196 -0.904778 0.383991
vn 0.135004 0.102503 0.985529
vn 0.135004 0.102503 0.985529
vn 0.135004 0.102503 0.985529
vn 0.883913 -0.459007 -0.089501
vn 0.883913 -0.459007 -0.089501
vn 0.883913 -0.459007 -0.089501
vn -0.007900 -0.010000 0.999919
vn -0.007900 -0.010000 0.999919
vn -0.007900 -0.010000 0.999919
vn 0.892283 -0.419892 0.165897
vn 0.892283 -0.419892 0.165897
vn 0.892283 -0.419892 0.165897
vn -0.092495 -0.994650 -0.045998
vn -0.092495 -0.994650 -0.045998
vn -0.092495 -0.994650 -0.045998
vn 0.917569 -0.353988 0.180994
vn 0.917569 -0.353988 0.180994
vn 0.917569 -0.353988 0.180994
vn 0.553023 0.832435 0.034901
vn 0.553023 0.832435 0.034901
vn 0.553023 0.832435 0.034901
vn 0.092297 -0.051999 -0.994373
vn 0.092297 -0.051999 -0.994373
vn 0.092297 -0.051999 -0.994373
vn -0.118007 0.835652 -0.536433
vn -0.118007 0.835652 -0.536433
vn -0.118007 0.835652 -0.536433
vn -0.985617 -0.015300 -0.168303
vn -0.985617 -0.015300 -0.168303
vn -0.985617 -0.015300 -0.168303
vn 0.871620 -0.472711 0.129703
vn 0.871620 -0.472711 0.129703
vn 0.871620 -0.472711 0.129703
vn 0.975513 -0.108701 -0.191203
vn 0.975513 -0.108701 -0.191203
vn 0.975513 -0.108701 -0.191203
vn 0.427401 0.795901 -0.428801
vn 0.427401 0.795901 -0.428801
vn 0.427401 0.795901 -0.428801
vn -0.590821 0.106604 -0.799729
vn -0.590821 0.106604 -0.799729
vn -0.590821 0.106604 -0.799729
vn -0.944192 0.326797 -0.041300
vn -0.944192 0.326797 -0.041300
vn -0.944192 0.326797 -0.041300
vn 0.004100 -0.374300 -0.927299
vn 0.004100 -0.374300 -0.927299
vn 0.004100 -0.374300 -0.927299
vn 0.123404 -0.015701 -0.992232
vn 0.123404 -0.015701 -0.992232
vn 0.123404 -0.015701 -0.992232
vn -0.118007 0.835652 -0.536433
vn -0.118007 0.835652 -0.536433
vn -0.118007 0.835652 -0.536433
vn -0.985499 -0.015200 -0.169000
vn -0.985499 -0.015200 -0.169000
vn -0.985499 -0.015200 -0.169000
vn -0.648307 0.020300 -0.761108
vn -0.648307 0.020300 -0.761108
vn -0.648307 0.020300 -0.761108
vn -0.509980 0.537379 -0.671673
vn -0.509980 0.537379 -0.671673
vn -0.509980 0.537379 -0.671673
vn -0.951714 0.306404 -0.018900
vn -0.951714 0.306404 -0.018900
vn -0.951714 0.306404 -0.018900
vn -0.529102 0.616003 0.583602
vn -0.529102 0.616003 0.583602
vn -0.529102 0.616003 0.583602
vn -0.102202 0.493509 0.863715
vn -0.102202 0.493509 0.863715
vn -0.102202 0.493509 0.863715
vn 0.342019 0.938152 -0.053803
vn 0.342019 0.938152 -0.053803
vn 0.342019 0.938152 -0.053803
vn -0.166198 -0.003100 0.986088
vn -0.166198 -0.003100 0.986088
vn -0.166198 -0.003100 0.986088
vn 0.135004 0.102503 0.985529
vn 0.135004 0.102503 0.985529
vn 0.135004 0.102503 0.985529
vn 0.553023 0.832435 0.034901
vn 0.553023 0.832435 0.034901
vn 0.553023 0.832435 0.034901
vn 0.531396 0.249998 0.809394
vn 0.531396 0.249998 0.809394
vn 0.531396 0.249998 0.809394
vn 0.507183 0.535882 0.674978
vn 0.507183 0.535882 0.674978
vn 0.507183 0.535882 0.674978
vn -0.253508 0.765324 0.591619
vn -0.253508 0.765324 0.591619
vn -0.253508 0.765324 0.591619
vn -0.102202 0.493509 0.863715
vn -0.102202 0.493509 0.863715
vn -0.102202 0.493509 0.863715
vn 0.481180 -0.873064 -0.078897
vn 0.481180 -0.873064 -0.078897
vn 0.481180 -0.873064 -0.078897
vn -0.104602 -0.992617 0.061401
vn -0.104602 -0.992617 0.061401
vn -0.104602 -0.992617 0.061401
vn -0.176208 -0.982843 -0.054502
vn -0.176208 -0.982843 -0.054502
vn -0.176208 -0.982843 -0.054502
vn 0.883954 -0.458928 -0.089505
vn 0.883954 -0.458928 -0.089505
vn 0.883954 -0.458928 -0.089505
vn -0.092495 -0.994650 -0.045998
vn -0.092495 -0.994650 -0.045998
vn -0.092495 -0.994650 -0.045998
vn 0.871620 -0.472711 0.129703
vn 0.871620 -0.472711 0.129703
vn 0.871620 -0.472711 0.129703
vn 0.380903 -0.815307 0.436104
vn 0.380903 -0.815307 0.436104
vn 0.380903 -0.815307 0.436104
vn 0.097298 -0.735882 -0.670083
vn 0.097298 -0.735882 -0.670083
vn 0.097298 -0.735882 -0.670083
vn 0.303706 -0.813716 -0.495610
vn 0.303706 -0.813716 -0.495610
vn 0.303706 -0.813716 -0.495610
vn -0.104602 -0.992617 0.061401
vn -0.104602 -0.992617 0.061401
vn -0.104602 -0.992617 0.061401
s off
g rock66
usemtl standardSurface1SG
f 4/1/1 2/2/2 1/3/3
f 3/4/4 1/5/5 2/6/6
f 16/7/7 26/8/8 25/9/9
f 4/1/10 29/10/11 28/11/12
f 4/1/13 8/12/14 5/13/15
f 4/1/16 5/13/17 9/14/18
f 16/7/19 24/15/20 3/16/21
f 10/17/22 2/2/23 4/1/24
f 4/1/25 7/18/26 6/19/27
f 4/1/28 6/19/29 8/12/30
f 9/14/31 10/17/32 4/1/33
f 12/20/34 20/21/35 14/22/36
f 11/23/37 2/6/38 10/24/39
f 14/25/40 11/26/41 12/27/42
f 20/21/43 9/28/44 14/22/45
f 16/29/46 15/30/47 34/31/48
f 16/29/49 34/31/50 33/32/51
f 3/4/52 2/6/53 11/23/54
f 11/23/55 13/33/56 3/4/57
f 13/34/58 11/26/59 15/30/60
f 15/35/61 3/4/62 13/33/63
f 15/36/64 16/7/65 3/16/66
f 33/32/67 18/37/68 16/29/69
f 16/29/70 18/37/71 17/38/72
f 7/39/73 26/8/74 17/40/75
f 6/41/76 30/42/77 14/43/78
f 16/7/79 17/40/80 26/8/81
f 6/41/82 17/44/83 18/45/84
f 14/25/85 35/46/86 11/26/87
f 6/41/88 7/47/89 17/44/90
f 28/11/91 7/18/92 4/1/93
f 14/22/94 9/28/95 8/48/96
f 19/49/97 10/17/98 9/14/99
f 12/50/100 22/51/101 21/52/102
f 32/53/103 6/41/104 18/45/105
f 14/43/106 8/54/107 6/41/108
f 9/14/109 5/13/110 8/12/111
f 20/21/112 22/55/113 23/56/114
f 22/51/115 10/24/116 23/57/117
f 12/20/118 21/58/119 20/21/120
f 20/21/121 19/59/122 9/28/123
f 19/49/124 23/60/125 10/17/126
f 12/50/127 11/23/128 22/51/129
f 23/56/130 19/59/131 20/21/132
f 20/61/133 21/52/134 22/51/135
f 22/51/136 11/23/137 10/24/138
f 26/8/139 27/62/140 28/63/141
f 24/15/142 1/64/143 3/16/144
f 4/1/145 1/3/146 29/10/147
f 16/7/148 25/9/149 24/15/150
f 7/39/151 27/62/152 26/8/153
f 28/11/154 27/65/155 7/18/156
f 29/66/157 24/15/158 28/63/159
f 24/15/160 25/9/161 28/63/162
f 25/9/163 26/8/164 28/63/165
f 24/15/166 29/66/167 1/64/168
f 34/31/169 35/46/170 31/67/171
f 35/46/172 15/30/173 11/26/174
f 33/32/175 32/68/176 18/37/177
f 6/41/178 31/69/179 30/42/180
f 14/25/181 30/70/182 35/46/183
f 32/53/184 31/69/185 6/41/186
f 35/46/187 30/70/188 31/67/189
f 31/71/190 32/72/191 33/73/192
f 33/32/193 34/31/194 31/67/195
f 35/46/196 34/31/197 15/30/198
