# This file uses centimeters as units for non-parametric coordinates.

mtllib rock_7.mtl
g default
v 0.052490 -0.649997 0.306470
v 0.628719 -0.080097 0.468942
v -0.094539 -0.381485 0.339394
v -0.622894 0.050632 -0.446748
v -0.483109 -0.090755 -0.605018
v 0.474544 -0.300909 -0.039705
v 0.431358 -0.512797 0.215884
v 0.010860 -0.451067 -0.233768
v -0.068302 0.029742 -0.466609
v 0.193325 0.091282 -0.420752
v -0.389766 0.116612 -0.711968
v -0.008565 0.278792 -0.432527
v -0.246277 0.304528 -0.568953
v -0.121074 0.374077 -0.482222
v -0.516821 0.515413 -0.479630
v -0.628514 0.261962 -0.680419
v -0.628515 0.420827 -0.413883
v -0.624024 0.053107 -0.560914
v -0.630114 0.460813 -0.514275
v -0.422232 0.346573 -0.066572
v -0.079925 0.024356 0.540249
v -0.454687 0.576069 -0.306489
v 0.220338 0.483923 -0.006835
v -0.451305 0.039649 -0.010701
v 0.042229 0.311342 0.311207
v 0.499204 0.234076 0.401781
v 0.241443 -0.039358 0.711968
v 0.511795 0.017525 0.588151
v 0.518072 -0.107729 0.163929
v 0.630114 -0.253326 0.324203
v -0.085251 0.649997 -0.232876
v -0.457492 0.596497 -0.383301
v 0.114405 -0.266346 0.591912
v 0.090374 -0.236575 0.629636
v 0.023173 -0.225735 0.593711
v 0.017549 -0.310196 0.547828
v 0.050027 -0.344036 0.562109
v 0.457927 -0.054525 0.083466
v 0.485511 -0.108225 0.096660
v 0.446762 -0.181950 0.058465
v 0.459872 -0.185252 -0.001575
v 0.412348 -0.079305 -0.041795
v 0.419075 -0.033850 0.024981
v -0.557407 0.477116 -0.277670
v -0.506746 0.470019 -0.186121
v -0.499351 0.530583 -0.262491
v -0.528880 0.501110 -0.287024
vt 0.410359 0.898525
vt 0.355137 0.800184
vt 0.576177 0.824044
vt 0.535266 0.607347
vt 0.628362 0.535349
vt 0.615792 0.560753
vt 0.490110 0.630370
vt 0.327281 0.612794
vt 0.083849 0.022278
vt 0.183397 0.086785
vt 0.184322 0.495434
vt 0.083849 0.492023
vt 0.000000 0.226323
vt 0.827785 0.217366
vt 0.654674 0.103695
vt 0.879973 0.022991
vt 0.728649 0.000000
vt 0.721615 0.394814
vt 0.873771 0.489905
vt 0.628362 0.342983
vt 0.168234 0.739944
vt 0.242147 0.668877
vt 0.248477 0.774585
vt 0.170027 0.842716
vt 0.248477 0.917901
vt 0.789577 0.542750
vt 0.879973 0.228791
vt 0.941235 0.123774
vt 0.966929 0.228791
vt 0.059694 0.928753
vt 0.139733 0.784213
vt 0.174597 1.000000
vt 0.074532 0.976985
vt 0.280655 0.551579
vt 0.264608 0.588888
vt 0.175072 0.603367
vt 0.155855 0.530194
vt 0.879973 0.535843
vt 0.824434 0.611888
vt 0.475990 0.030332
vt 0.517693 0.000000
vt 0.539298 0.036616
vt 0.465204 0.098132
vt 0.494557 0.107081
vt 0.520649 0.134827
vt 0.540178 0.197678
vt 0.312801 0.396529
vt 0.592581 0.485296
vt 0.460156 0.415546
vt 0.628362 0.226645
vt 0.621177 0.044897
vt 0.327281 0.331551
vt 0.507089 0.094635
vt 0.356210 0.535919
vt 0.427203 0.612794
vt 0.804814 0.795966
vt 0.893207 0.968505
vt 0.670858 0.968505
vt 0.628945 0.655684
vt 0.695874 0.647501
vt 0.628362 0.765437
vt 0.787756 0.729586
vt 0.835976 0.801193
vt 0.895487 0.732612
vt 0.880844 0.044633
vt 0.903455 0.003947
vt 1.000000 0.123774
vt 0.834262 0.743244
vt 0.871188 0.611888
vt 0.783416 0.636393
vt 1.000000 0.000000
vt 0.576177 0.735365
vt 0.529382 0.883974
vt 0.344942 0.818722
vt 0.262601 0.016281
vt 0.232104 0.016223
vt 0.327281 0.095229
vt 0.260690 0.331396
vt 0.000000 0.735993
vt 0.027726 0.603367
vt 0.348926 0.188777
vt 0.017739 0.893800
vt 0.451542 0.070328
vt 0.522285 0.093689
vt 0.221614 0.000000
vt 0.259542 0.603367
vt 0.280815 0.639242
vt 0.248477 0.639242
vt 0.309604 0.640092
vt 0.319102 0.603367
vt 0.319102 0.648554
vt 0.309604 0.639299
vt 0.294489 0.624416
vt 0.309604 0.603367
vt 0.327281 0.769422
vt 0.794812 0.771215
vt 0.853718 0.756502
vt 0.879973 0.015062
vt 0.294489 0.648849
vt 0.280815 0.635680
vt 0.294489 0.603367
vt 0.806140 0.750069
vt 0.327281 0.469570
vt 0.315171 0.507564
vn 0.383579 -0.590314 0.710209
vn 0.383579 -0.590314 0.710209
vn 0.383579 -0.590314 0.710209
vn -0.472187 -0.006300 0.881476
vn -0.472187 -0.006300 0.881476
vn -0.472187 -0.006300 0.881476
vn 0.383602 -0.590304 0.710205
vn 0.383602 -0.590304 0.710205
vn 0.383602 -0.590304 0.710205
vn -0.825020 -0.486912 0.286807
vn -0.825020 -0.486912 0.286807
vn -0.825020 -0.486912 0.286807
vn -0.715582 -0.698482 -0.008100
vn -0.715582 -0.698482 -0.008100
vn -0.715582 -0.698482 -0.008100
vn -0.414988 -0.863676 -0.286092
vn -0.414988 -0.863676 -0.286092
vn -0.414988 -0.863676 -0.286092
vn 0.416076 -0.842452 -0.342280
vn 0.416076 -0.842452 -0.342280
vn 0.416076 -0.842452 -0.342280
vn 0.132194 -0.773967 -0.619274
vn 0.132194 -0.773967 -0.619274
vn 0.132194 -0.773967 -0.619274
vn 0.452990 -0.326993 -0.829382
vn 0.452990 -0.326993 -0.829382
vn 0.452990 -0.326993 -0.829382
vn 0.386389 -0.349690 -0.853476
vn 0.386389 -0.349690 -0.853476
vn 0.386389 -0.349690 -0.853476
vn 0.269505 -0.564611 -0.780116
vn 0.269505 -0.564611 -0.780116
vn 0.269505 -0.564611 -0.780116
vn 0.149192 0.098895 -0.983850
vn 0.149192 0.098895 -0.983850
vn 0.149192 0.098895 -0.983850
vn 0.622117 0.114403 -0.774521
vn 0.622117 0.114403 -0.774521
vn 0.622117 0.114403 -0.774521
vn 0.403906 -0.556308 -0.726210
vn 0.403906 -0.556308 -0.726210
vn 0.403906 -0.556308 -0.726210
vn 0.497721 -0.000700 -0.867337
vn 0.497721 -0.000700 -0.867337
vn 0.497721 -0.000700 -0.867337
vn 0.207401 0.595002 -0.776503
vn 0.207401 0.595002 -0.776503
vn 0.207401 0.595002 -0.776503
vn 0.504312 0.152104 -0.850020
vn 0.504312 0.152104 -0.850020
vn 0.504312 0.152104 -0.850020
vn 0.172800 0.563701 -0.807701
vn 0.172800 0.563701 -0.807701
vn 0.172800 0.563701 -0.807701
vn 0.191289 0.497771 -0.845951
vn 0.191289 0.497771 -0.845951
vn 0.191289 0.497771 -0.845951
vn -0.073898 0.639083 -0.765580
vn -0.073898 0.639083 -0.765580
vn -0.073898 0.639083 -0.765580
vn -0.999827 -0.016000 0.009500
vn -0.999827 -0.016000 0.009500
vn -0.999827 -0.016000 0.009500
vn -0.999827 -0.016000 0.009500
vn -0.999827 -0.016000 0.009500
vn -0.999827 -0.016000 0.009500
vn -0.999827 -0.016000 0.009500
vn -0.999827 -0.016000 0.009500
vn -0.999827 -0.016000 0.009500
vn -0.387812 -0.464014 -0.796425
vn -0.387812 -0.464014 -0.796425
vn -0.387812 -0.464014 -0.796425
vn -0.489781 0.807269 0.329287
vn -0.489781 0.807269 0.329287
vn -0.489781 0.807269 0.329287
vn -0.715582 -0.698482 -0.008100
vn -0.715582 -0.698482 -0.008100
vn -0.715582 -0.698482 -0.008100
vn -0.486705 -0.217302 -0.846108
vn -0.486705 -0.217302 -0.846108
vn -0.486705 -0.217302 -0.846108
vn -0.203598 0.776594 0.596196
vn -0.203598 0.776594 0.596196
vn -0.203598 0.776594 0.596196
vn 0.096501 0.725705 0.681205
vn 0.096501 0.725705 0.681205
vn 0.096501 0.725705 0.681205
vn -0.863702 -0.057600 0.500701
vn -0.863702 -0.057600 0.500701
vn -0.863702 -0.057600 0.500701
vn -0.438884 0.667176 0.601878
vn -0.438884 0.667176 0.601878
vn -0.438884 0.667176 0.601878
vn -0.813711 0.177802 0.553408
vn -0.813711 0.177802 0.553408
vn -0.813711 0.177802 0.553408
vn -0.918203 0.153400 0.365201
vn -0.918203 0.153400 0.365201
vn -0.918203 0.153400 0.365201
vn -0.212010 0.691732 0.690332
vn -0.212010 0.691732 0.690332
vn -0.212010 0.691732 0.690332
vn -0.709680 0.704480 0.007900
vn -0.709680 0.704480 0.007900
vn -0.709680 0.704480 0.007900
vn -0.226904 0.903617 0.363307
vn -0.226904 0.903617 0.363307
vn -0.226904 0.903617 0.363307
vn 0.048001 0.866417 0.497009
vn 0.048001 0.866417 0.497009
vn 0.048001 0.866417 0.497009
vn -0.045498 0.634877 0.771272
vn -0.045498 0.634877 0.771272
vn -0.045498 0.634877 0.771272
vn -0.151195 0.800475 0.579982
vn -0.151195 0.800475 0.579982
vn -0.151195 0.800475 0.579982
vn 0.201502 0.645606 0.736607
vn 0.201502 0.645606 0.736607
vn 0.201502 0.645606 0.736607
vn 0.879297 0.315599 -0.356699
vn 0.879297 0.315599 -0.356699
vn 0.879297 0.315599 -0.356699
vn 0.795614 0.421107 0.435508
vn 0.795614 0.421107 0.435508
vn 0.795614 0.421107 0.435508
vn 0.890211 0.292304 -0.349404
vn 0.890211 0.292304 -0.349404
vn 0.890211 0.292304 -0.349404
vn 0.883153 0.244087 -0.400578
vn 0.883153 0.244087 -0.400578
vn 0.883153 0.244087 -0.400578
vn 0.867575 0.366089 -0.336590
vn 0.867575 0.366089 -0.336590
vn 0.867575 0.366089 -0.336590
vn 0.874208 -0.241202 -0.421404
vn 0.874208 -0.241202 -0.421404
vn 0.874208 -0.241202 -0.421404
vn 0.863011 0.306604 -0.401505
vn 0.863011 0.306604 -0.401505
vn 0.863011 0.306604 -0.401505
vn 0.976136 0.054502 0.210208
vn 0.976136 0.054502 0.210208
vn 0.976136 0.054502 0.210208
vn 0.888099 0.298900 -0.349199
vn 0.888099 0.298900 -0.349199
vn 0.888099 0.298900 -0.349199
vn 0.683394 -0.234998 -0.691194
vn 0.683394 -0.234998 -0.691194
vn 0.683394 -0.234998 -0.691194
vn 0.383602 -0.590304 0.710205
vn 0.383602 -0.590304 0.710205
vn 0.383602 -0.590304 0.710205
vn 0.449380 -0.422781 0.786965
vn 0.449380 -0.422781 0.786965
vn 0.449380 -0.422781 0.786965
vn 0.383602 -0.590304 0.710205
vn 0.383602 -0.590304 0.710205
vn 0.383602 -0.590304 0.710205
vn -0.822872 -0.227992 0.520482
vn -0.822872 -0.227992 0.520482
vn -0.822872 -0.227992 0.520482
vn -0.808538 -0.237411 0.538425
vn -0.808538 -0.237411 0.538425
vn -0.808538 -0.237411 0.538425
vn -0.837210 -0.444705 0.318304
vn -0.837210 -0.444705 0.318304
vn -0.837210 -0.444705 0.318304
vn 0.676057 0.452471 -0.581563
vn 0.676057 0.452471 -0.581563
vn 0.676057 0.452471 -0.581563
vn -0.268601 0.566302 0.779202
vn -0.268601 0.566302 0.779202
vn -0.268601 0.566302 0.779202
vn 0.570119 0.577119 -0.584720
vn 0.570119 0.577119 -0.584720
vn 0.570119 0.577119 -0.584720
vn 0.654112 0.458609 -0.601511
vn 0.654112 0.458609 -0.601511
vn 0.654112 0.458609 -0.601511
vn 0.222900 0.637501 -0.737501
vn 0.222900 0.637501 -0.737501
vn 0.222900 0.637501 -0.737501
vn 0.181600 0.694399 -0.696299
vn 0.181600 0.694399 -0.696299
vn 0.181600 0.694399 -0.696299
vn -0.238695 0.936279 0.257694
vn -0.238695 0.936279 0.257694
vn -0.238695 0.936279 0.257694
vn -0.875559 0.457979 0.153793
vn -0.875559 0.457979 0.153793
vn -0.875559 0.457979 0.153793
vn -0.640319 0.767923 0.016901
vn -0.640319 0.767923 0.016901
vn -0.640319 0.767923 0.016901
vn -0.710191 -0.454794 0.537393
vn -0.710191 -0.454794 0.537393
vn -0.710191 -0.454794 0.537393
vn -0.187302 -0.459304 0.868308
vn -0.187302 -0.459304 0.868308
vn -0.187302 -0.459304 0.868308
vn 0.383602 -0.590304 0.710205
vn 0.383602 -0.590304 0.710205
vn 0.383602 -0.590304 0.710205
vn -0.472187 -0.006200 0.881476
vn -0.472187 -0.006200 0.881476
vn -0.472187 -0.006200 0.881476
vn -0.822872 -0.227992 0.520482
vn -0.822872 -0.227992 0.520482
vn -0.822872 -0.227992 0.520482
vn -0.710223 -0.454715 0.537418
vn -0.710223 -0.454715 0.537418
vn -0.710223 -0.454715 0.537418
vn -0.410708 -0.009400 0.911718
vn -0.410708 -0.009400 0.911718
vn -0.410708 -0.009400 0.911718
vn -0.361115 -0.830034 0.425017
vn -0.361115 -0.830034 0.425017
vn -0.361115 -0.830034 0.425017
vn 0.383602 -0.590304 0.710205
vn 0.383602 -0.590304 0.710205
vn 0.383602 -0.590304 0.710205
vn 0.971615 0.138202 -0.192003
vn 0.971615 0.138202 -0.192003
vn 0.971615 0.138202 -0.192003
vn 0.847472 0.333889 -0.412686
vn 0.847472 0.333889 -0.412686
vn 0.847472 0.333889 -0.412686
vn 0.883188 0.244097 -0.400495
vn 0.883188 0.244097 -0.400495
vn 0.883188 0.244097 -0.400495
vn 0.874208 -0.241202 -0.421404
vn 0.874208 -0.241202 -0.421404
vn 0.874208 -0.241202 -0.421404
vn 0.832029 0.353012 -0.427915
vn 0.832029 0.353012 -0.427915
vn 0.832029 0.353012 -0.427915
vn 0.976136 0.054502 0.210208
vn 0.976136 0.054502 0.210208
vn 0.976136 0.054502 0.210208
vn 0.837898 0.033500 -0.544798
vn 0.837898 0.033500 -0.544798
vn 0.837898 0.033500 -0.544798
vn 0.588889 0.105598 -0.801285
vn 0.588889 0.105598 -0.801285
vn 0.588889 0.105598 -0.801285
vn 0.874680 0.455390 0.165996
vn 0.874680 0.455390 0.165996
vn 0.874680 0.455390 0.165996
vn 0.847472 0.333889 -0.412686
vn 0.847472 0.333889 -0.412686
vn 0.847472 0.333889 -0.412686
vn -0.531419 0.769728 0.353713
vn -0.531419 0.769728 0.353713
vn -0.531419 0.769728 0.353713
vn -0.875424 -0.055902 0.480113
vn -0.875424 -0.055902 0.480113
vn -0.875424 -0.055902 0.480113
vn -0.709680 0.704480 0.007900
vn -0.709680 0.704480 0.007900
vn -0.709680 0.704480 0.007900
vn -0.640319 0.767923 0.016901
vn -0.640319 0.767923 0.016901
vn -0.640319 0.767923 0.016901
vn -0.790108 0.515205 0.332103
vn -0.790108 0.515205 0.332103
vn -0.790108 0.515205 0.332103
vn -0.864639 -0.119305 0.488022
vn -0.864639 -0.119305 0.488022
vn -0.864639 -0.119305 0.488022
s off
g rock6
usemtl standardSurface1SG
f 27/1/1 33/2/2 2/3/3
f 27/4/4 35/5/5 34/6/6
f 7/7/7 2/3/8 1/8/9
f 1/9/10 3/10/11 4/11/12
f 4/11/13 5/12/14 1/9/15
f 8/13/16 1/9/17 5/12/18
f 8/14/19 6/15/20 1/16/21
f 1/16/22 6/15/23 7/17/24
f 8/14/25 9/18/26 6/15/27
f 8/14/28 5/19/29 9/18/30
f 9/18/31 10/20/32 6/15/33
f 12/21/34 10/22/35 9/23/36
f 13/24/37 9/23/38 11/25/39
f 9/18/40 5/19/41 11/26/42
f 9/27/43 13/28/44 12/29/45
f 13/24/46 15/30/47 14/31/48
f 14/31/49 12/21/50 13/24/51
f 15/30/52 13/24/53 16/32/54
f 16/32/55 13/24/56 11/25/57
f 16/32/58 19/33/59 15/30/60
f 17/34/61 19/35/62 16/36/63
f 4/11/64 17/34/65 16/36/66
f 16/36/67 18/37/68 4/11/69
f 18/38/70 16/39/71 11/26/72
f 15/40/73 19/41/74 17/42/75
f 4/11/76 18/37/77 5/12/78
f 18/38/79 11/26/80 5/19/81
f 22/43/82 46/44/83 45/45/84
f 22/43/85 45/45/86 20/46/87
f 17/34/88 4/11/89 20/47/90
f 20/46/91 21/48/92 25/49/93
f 20/46/94 24/50/95 21/48/96
f 20/46/97 4/51/98 24/50/99
f 20/46/100 23/52/101 22/43/102
f 47/53/103 22/43/104 15/40/105
f 20/46/106 25/49/107 23/52/108
f 25/49/109 26/54/110 23/52/111
f 25/49/112 21/48/113 26/54/114
f 21/48/115 27/4/116 26/54/117
f 27/4/118 28/55/119 26/54/120
f 43/56/121 10/57/122 23/58/123
f 28/59/124 2/60/125 26/61/126
f 2/60/127 29/62/128 26/61/129
f 42/63/130 6/64/131 10/57/132
f 43/56/133 42/63/134 10/57/135
f 40/65/136 29/66/137 7/67/138
f 26/61/139 43/56/140 23/58/141
f 6/64/142 40/68/143 7/69/144
f 2/60/145 30/70/146 29/62/147
f 29/66/148 30/71/149 7/67/150
f 7/7/151 30/72/152 2/3/153
f 2/3/154 28/73/155 27/1/156
f 27/1/157 34/74/158 33/2/159
f 35/75/160 3/10/161 36/76/162
f 3/10/163 21/77/164 24/78/165
f 3/10/166 24/78/167 4/11/168
f 12/21/169 31/79/170 23/80/171
f 31/81/172 22/43/173 23/52/174
f 23/80/175 10/22/176 12/21/177
f 12/21/178 14/31/179 31/79/180
f 14/31/181 15/30/182 31/79/183
f 15/30/184 32/82/185 31/79/186
f 31/81/187 32/83/188 22/43/189
f 32/83/190 15/40/191 22/43/192
f 47/53/193 17/42/194 44/84/195
f 37/85/196 3/10/197 1/9/198
f 36/86/199 33/87/200 35/88/201
f 33/2/202 1/8/203 2/3/204
f 27/4/205 21/48/206 35/5/207
f 35/75/208 21/77/209 3/10/210
f 37/85/211 36/76/212 3/10/213
f 37/89/214 33/90/215 36/91/216
f 33/92/217 34/93/218 35/94/219
f 33/2/220 37/95/221 1/8/222
f 43/56/223 40/68/224 42/63/225
f 29/62/226 38/96/227 26/61/228
f 42/63/229 41/97/230 6/64/231
f 40/65/232 39/98/233 29/66/234
f 26/61/235 38/96/236 43/56/237
f 6/64/238 41/97/239 40/68/240
f 43/56/241 38/96/242 40/68/243
f 38/99/244 39/100/245 40/101/246
f 40/68/247 41/97/248 42/63/249
f 29/62/250 39/102/251 38/96/252
f 45/45/253 47/53/254 44/84/255
f 17/34/256 45/103/257 44/104/258
f 47/53/259 46/44/260 22/43/261
f 47/53/262 15/40/263 17/42/264
f 45/45/265 46/44/266 47/53/267
f 17/34/268 20/47/269 45/103/270
