# This file uses centimeters as units for non-parametric coordinates.

mtllib rock_69.mtl
g default
v -0.250542 -0.235432 -0.206755
v -0.273501 -0.234767 0.171440
v -0.272501 0.205230 -0.338215
v -0.006445 0.335219 -0.321245
v -0.325082 -0.033372 0.198748
v -0.386075 0.212706 0.025353
v 0.137220 -0.022366 -0.320949
v 0.370724 0.290262 -0.083991
v 0.331871 -0.138740 0.327765
v 0.298358 -0.335219 0.171339
v 0.159956 -0.324256 0.281291
v -0.141267 0.121875 0.232901
v -0.199241 0.315031 -0.315131
v 0.337485 0.111234 0.271450
v 0.250852 0.082347 0.325857
v 0.331107 -0.007813 0.338215
v 0.241857 -0.319924 -0.156993
v 0.285879 -0.267960 -0.185194
v 0.336972 -0.249915 -0.159565
v 0.327047 -0.301746 -0.069049
v 0.318665 -0.334601 -0.062924
v 0.295126 -0.332490 -0.068399
v 0.251115 -0.321922 -0.108481
v -0.365211 0.254625 -0.117378
v -0.313599 0.283259 -0.212694
v -0.331370 0.251224 -0.223647
v -0.344761 0.213159 -0.177626
v 0.337129 0.141746 -0.239870
v 0.323843 0.213601 -0.235169
v 0.383199 0.234092 -0.157049
v 0.386075 0.148889 -0.151857
v 0.383757 0.112882 -0.207177
vt 0.275525 0.917318
vt 0.268082 0.973554
vt 0.217103 1.000000
vt 0.525272 0.285497
vt 0.350720 0.406646
vt 0.359935 0.074730
vt 0.877980 0.831370
vt 0.658498 0.831370
vt 0.629297 0.698066
vt 0.188795 0.552780
vt 0.037358 0.505059
vt 0.281279 0.526313
vt 0.627330 0.000000
vt 0.728655 0.162546
vt 0.711210 0.535266
vt 0.943106 0.537034
vt 0.861871 0.485956
vt 0.945629 0.461237
vt 0.327010 0.654111
vt 0.022294 0.663258
vt 0.278931 0.607788
vt 0.728655 0.449649
vt 0.681967 0.399905
vt 0.138401 0.552780
vt 0.350720 0.487217
vt 0.481633 0.461237
vt 0.355812 0.564328
vt 0.971099 0.346061
vt 0.728655 0.312198
vt 0.768846 0.010034
vt 0.603243 0.803572
vt 0.075362 0.027467
vt 0.350720 0.121564
vt 0.000000 0.285727
vt 0.495757 0.915315
vt 0.375585 0.868735
vt 0.629297 0.997492
vt 0.350720 0.421233
vt 0.025533 0.834511
vt 0.949438 0.378821
vt 0.804001 0.397227
vt 0.835600 0.533834
vt 0.401368 0.461237
vt 0.386635 0.425546
vt 0.699469 0.041600
vt 0.629297 0.485190
vt 0.609958 0.532397
vt 0.561335 0.471064
vt 0.331460 0.585391
vt 0.346016 0.552780
vt 0.346016 0.610081
vt 1.000000 0.000000
vt 0.796404 0.506651
vt 0.120738 0.546440
vt 0.864345 0.507962
vt 0.625698 0.451862
vt 0.278967 0.584940
vt 0.135159 0.000000
vt 0.000000 0.747523
vt 0.947567 0.394921
vt 0.343355 0.675237
vt 0.327010 0.648864
vt 0.343355 0.610081
vt 0.678568 0.895702
vt 0.645995 0.890067
vt 0.678568 0.840482
vt 0.629297 0.831370
vt 0.327010 0.600894
vt 1.000000 0.336518
vt 0.697614 0.449799
vt 0.646289 0.459859
vt 0.312864 0.900785
vt 0.639853 0.413785
vt 0.327010 0.920830
vt 0.314885 0.966360
vn 0.989705 0.041752 0.136896
vn 0.989705 0.041752 0.136896
vn 0.989705 0.041752 0.136896
vn 0.006100 -0.480923 -0.876742
vn 0.006100 -0.480923 -0.876742
vn 0.006100 -0.480923 -0.876742
vn -0.968967 -0.240192 -0.058398
vn -0.968967 -0.240192 -0.058398
vn -0.968967 -0.240192 -0.058398
vn -0.016300 0.959980 0.279594
vn -0.016300 0.959980 0.279594
vn -0.016300 0.959980 0.279594
vn 0.192891 -0.271688 -0.942857
vn 0.192891 -0.271688 -0.942857
vn 0.192891 -0.271688 -0.942857
vn -0.233111 -0.094505 -0.967847
vn -0.233111 -0.094505 -0.967847
vn -0.233111 -0.094505 -0.967847
vn -0.962233 -0.268809 -0.043001
vn -0.962233 -0.268809 -0.043001
vn -0.962233 -0.268809 -0.043001
vn -0.639415 0.541413 -0.545913
vn -0.639415 0.541413 -0.545913
vn -0.639415 0.541413 -0.545913
vn 0.991689 -0.122799 0.038400
vn 0.991689 -0.122799 0.038400
vn 0.991689 -0.122799 0.038400
vn 0.989703 0.041800 0.136900
vn 0.989703 0.041800 0.136900
vn 0.989703 0.041800 0.136900
vn 0.991689 -0.122799 0.038400
vn 0.991689 -0.122799 0.038400
vn 0.991689 -0.122799 0.038400
vn 0.411112 0.755222 -0.510515
vn 0.411112 0.755222 -0.510515
vn 0.411112 0.755222 -0.510515
vn 0.969205 -0.231701 0.083400
vn 0.969205 -0.231701 0.083400
vn 0.969205 -0.231701 0.083400
vn 0.469192 -0.597590 0.650189
vn 0.469192 -0.597590 0.650189
vn 0.469192 -0.597590 0.650189
vn -0.189692 -0.980560 -0.050198
vn -0.189692 -0.980560 -0.050198
vn -0.189692 -0.980560 -0.050198
vn -0.218509 -0.041802 0.974939
vn -0.218509 -0.041802 0.974939
vn -0.218509 -0.041802 0.974939
vn -0.016300 0.893587 0.448594
vn -0.016300 0.893587 0.448594
vn -0.016300 0.893587 0.448594
vn -0.057899 -0.148698 0.987186
vn -0.057899 -0.148698 0.987186
vn -0.057899 -0.148698 0.987186
vn -0.493314 0.416012 0.763921
vn -0.493314 0.416012 0.763921
vn -0.493314 0.416012 0.763921
vn 0.034401 0.929819 0.366407
vn 0.034401 0.929819 0.366407
vn 0.034401 0.929819 0.366407
vn 0.995730 -0.001600 0.092303
vn 0.995730 -0.001600 0.092303
vn 0.995730 -0.001600 0.092303
vn -0.258609 -0.070103 0.963435
vn -0.258609 -0.070103 0.963435
vn -0.258609 -0.070103 0.963435
vn -0.099898 0.936480 0.336193
vn -0.099898 0.936480 0.336193
vn -0.099898 0.936480 0.336193
vn -0.086996 -0.996156 -0.010200
vn -0.086996 -0.996156 -0.010200
vn -0.086996 -0.996156 -0.010200
vn -0.902614 -0.163703 -0.398106
vn -0.902614 -0.163703 -0.398106
vn -0.902614 -0.163703 -0.398106
vn 0.490200 -0.175300 -0.853800
vn 0.490200 -0.175300 -0.853800
vn 0.490200 -0.175300 -0.853800
vn -0.056000 0.241002 -0.968908
vn -0.056000 0.241002 -0.968908
vn -0.056000 0.241002 -0.968908
vn -0.093598 0.966475 0.239094
vn -0.093598 0.966475 0.239094
vn -0.093598 0.966475 0.239094
vn 0.367895 0.439794 0.819289
vn 0.367895 0.439794 0.819289
vn 0.367895 0.439794 0.819289
vn -0.237499 -0.078700 0.968195
vn -0.237499 -0.078700 0.968195
vn -0.237499 -0.078700 0.968195
vn 0.497401 -0.530901 -0.686102
vn 0.497401 -0.530901 -0.686102
vn 0.497401 -0.530901 -0.686102
vn -0.168300 -0.985699 -0.008500
vn -0.168300 -0.985699 -0.008500
vn -0.168300 -0.985699 -0.008500
vn -0.886587 0.181197 -0.425594
vn -0.886587 0.181197 -0.425594
vn -0.886587 0.181197 -0.425594
vn -0.962117 -0.189303 -0.196203
vn -0.962117 -0.189303 -0.196203
vn -0.962117 -0.189303 -0.196203
vn 0.006100 -0.481000 -0.876700
vn 0.006100 -0.481000 -0.876700
vn 0.006100 -0.481000 -0.876700
vn -0.016300 0.959980 0.279594
vn -0.016300 0.959980 0.279594
vn -0.016300 0.959980 0.279594
vn -0.639415 0.541413 -0.545913
vn -0.639415 0.541413 -0.545913
vn -0.639415 0.541413 -0.545913
vn 0.490200 -0.175300 -0.853800
vn 0.490200 -0.175300 -0.853800
vn 0.490200 -0.175300 -0.853800
vn 0.969205 -0.231701 0.083400
vn 0.969205 -0.231701 0.083400
vn 0.969205 -0.231701 0.083400
vn -0.189692 -0.980560 -0.050198
vn -0.189692 -0.980560 -0.050198
vn -0.189692 -0.980560 -0.050198
vn -0.016300 0.893587 0.448594
vn -0.016300 0.893587 0.448594
vn -0.016300 0.893587 0.448594
vn 0.995730 -0.001600 0.092303
vn 0.995730 -0.001600 0.092303
vn 0.995730 -0.001600 0.092303
vn -0.086996 -0.996156 -0.010200
vn -0.086996 -0.996156 -0.010200
vn -0.086996 -0.996156 -0.010200
vn -0.902614 -0.163703 -0.398106
vn -0.902614 -0.163703 -0.398106
vn -0.902614 -0.163703 -0.398106
vn -0.237499 -0.078700 0.968195
vn -0.237499 -0.078700 0.968195
vn -0.237499 -0.078700 0.968195
vn 0.707297 -0.687797 -0.163299
vn 0.707297 -0.687797 -0.163299
vn 0.707297 -0.687797 -0.163299
vn 0.465492 -0.809286 -0.358294
vn 0.465492 -0.809286 -0.358294
vn 0.465492 -0.809286 -0.358294
vn 0.428096 -0.803692 -0.413296
vn 0.428096 -0.803692 -0.413296
vn 0.428096 -0.803692 -0.413296
vn 0.200999 -0.228799 -0.952497
vn 0.200999 -0.228799 -0.952497
vn 0.200999 -0.228799 -0.952497
vn -0.168300 -0.985699 -0.008500
vn -0.168300 -0.985699 -0.008500
vn -0.168300 -0.985699 -0.008500
vn -0.884821 0.451311 0.115803
vn -0.884821 0.451311 0.115803
vn -0.884821 0.451311 0.115803
vn -0.962117 -0.189303 -0.196203
vn -0.962117 -0.189303 -0.196203
vn -0.962117 -0.189303 -0.196203
vn 0.797434 -0.009800 -0.603326
vn 0.797434 -0.009800 -0.603326
vn 0.797434 -0.009800 -0.603326
vn 0.290209 0.115804 -0.949931
vn 0.290209 0.115804 -0.949931
vn 0.290209 0.115804 -0.949931
vn 0.991689 -0.122799 0.038400
vn 0.991689 -0.122799 0.038400
vn 0.991689 -0.122799 0.038400
vn 0.411112 0.755222 -0.510515
vn 0.411112 0.755222 -0.510515
vn 0.411112 0.755222 -0.510515
vn 0.490200 -0.175300 -0.853800
vn 0.490200 -0.175300 -0.853800
vn 0.490200 -0.175300 -0.853800
vn 0.672497 0.607097 -0.423298
vn 0.672497 0.607097 -0.423298
vn 0.672497 0.607097 -0.423298
vn 0.851522 0.189405 -0.488913
vn 0.851522 0.189405 -0.488913
vn 0.851522 0.189405 -0.488913
vn 0.290209 0.115804 -0.949931
vn 0.290209 0.115804 -0.949931
vn 0.290209 0.115804 -0.949931
s off
g rock68
usemtl standardSurface1SG
f 31/1/1 30/2/2 8/3/3
f 7/4/4 17/5/5 1/6/6
f 1/7/7 2/8/8 5/9/9
f 25/10/10 6/11/11 13/12/12
f 1/6/13 3/13/14 4/14/15
f 1/6/16 4/14/17 7/4/18
f 5/9/19 6/15/20 1/7/21
f 3/16/22 25/17/23 13/18/24
f 19/19/25 9/20/26 20/21/27
f 31/1/28 8/3/29 9/20/30
f 19/19/31 31/1/32 9/20/33
f 8/22/34 29/23/35 4/14/36
f 10/24/37 20/21/38 9/20/39
f 10/25/40 9/26/41 11/27/42
f 23/28/43 11/29/44 2/30/45
f 11/27/46 9/26/47 12/31/48
f 15/32/49 8/33/50 12/34/51
f 12/31/52 5/35/53 2/36/54
f 5/35/55 12/31/56 6/37/57
f 6/11/58 12/34/59 4/38/60
f 14/39/61 9/20/62 8/3/63
f 2/36/64 11/27/65 12/31/66
f 8/33/67 4/38/68 12/34/69
f 22/40/70 10/41/71 11/29/72
f 27/42/73 3/16/74 1/7/75
f 19/43/76 18/44/77 7/4/78
f 3/13/79 13/45/80 4/14/81
f 4/38/82 13/12/83 6/11/84
f 14/46/85 15/47/86 16/48/87
f 9/26/88 15/47/89 12/31/90
f 22/49/91 23/50/92 20/51/93
f 1/52/94 23/28/95 2/30/96
f 25/17/97 27/42/98 24/53/99
f 6/15/100 27/42/101 1/7/102
f 7/4/103 18/44/104 17/5/105
f 25/10/106 24/54/107 6/11/108
f 3/16/109 26/55/110 25/17/111
f 7/4/112 32/56/113 19/43/114
f 10/24/115 21/57/116 20/21/117
f 23/28/118 22/40/119 11/29/120
f 15/32/121 14/58/122 8/33/123
f 14/39/124 16/59/125 9/20/126
f 22/40/127 21/60/128 10/41/129
f 27/42/130 26/55/131 3/16/132
f 9/26/133 16/48/134 15/47/135
f 23/61/136 17/62/137 18/63/138
f 18/64/139 19/65/140 23/66/141
f 19/65/142 20/67/143 23/66/144
f 20/51/145 21/68/146 22/49/147
f 1/52/148 17/69/149 23/28/150
f 25/17/151 26/55/152 27/42/153
f 6/15/154 24/53/155 27/42/156
f 29/23/157 30/70/158 31/71/159
f 29/23/160 7/4/161 4/14/162
f 19/19/163 32/72/164 31/1/165
f 8/22/166 30/70/167 29/23/168
f 7/4/169 28/73/170 32/56/171
f 32/72/172 28/74/173 31/1/174
f 28/74/175 29/75/176 31/1/177
f 29/23/178 28/73/179 7/4/180
