# This file uses centimeters as units for non-parametric coordinates.

mtllib rock_8.mtl
g default
v -0.107884 -0.130610 -0.488877
v -0.585863 -0.257135 0.059955
v -0.151829 0.376482 -0.561064
v -0.100731 -0.202032 -0.076998
v 0.386229 -0.435141 0.088640
v -0.549029 0.201625 -0.208136
v -0.403278 0.438559 0.149392
v -0.275620 0.349113 0.508703
v -0.073635 0.169643 0.394550
v 0.088601 0.233456 -0.070086
v -0.084471 0.420022 -0.406618
v -0.371262 0.432412 0.419166
v -0.304034 0.492112 -0.244256
v -0.414045 0.322118 0.525088
v -0.352692 0.228728 0.629590
v -0.508258 -0.040928 0.510005
v -0.235663 0.252422 0.613547
v -0.093669 0.090919 0.620300
v 0.256009 -0.099273 0.639708
v -0.458354 -0.097633 0.585906
v -0.514006 -0.207871 0.409176
v -0.410468 -0.316252 0.622473
v 0.288043 -0.491270 0.649530
v 0.411025 -0.304541 0.661665
v 0.038212 -0.426087 0.368078
v 0.359407 -0.404498 0.313720
v 0.487877 -0.374761 0.435407
v 0.525717 -0.316372 0.326478
v 0.367218 -0.347360 0.186728
v 0.424093 -0.236984 0.551059
v 0.507685 -0.128074 0.438434
v 0.518782 -0.377863 -0.190160
v 0.575802 -0.071585 -0.060591
v 0.363175 0.063136 0.138996
v 0.580481 0.028354 -0.289564
v 0.585864 -0.210267 -0.331997
v 0.116731 -0.181769 -0.661666
v 0.369561 -0.259926 -0.550145
v 0.505136 -0.408542 0.107926
v 0.201463 -0.343570 0.201792
v 0.001556 -0.416767 0.153248
v -0.126296 -0.375953 0.056961
v -0.313074 -0.334773 0.147008
v -0.295831 0.494138 -0.474363
v -0.361794 -0.058583 -0.514135
v -0.382687 -0.050189 -0.490936
v -0.466088 -0.056148 -0.476824
v -0.469885 0.037748 -0.485835
v -0.412691 0.088144 -0.557914
v -0.376490 0.072533 -0.575423
v -0.340145 -0.052341 -0.551787
v 0.237080 0.262060 -0.427859
v 0.172113 0.250917 -0.478505
v 0.096411 0.346015 -0.473322
v 0.095580 0.363040 -0.430943
v 0.161017 0.311719 -0.356187
v 0.252853 0.281390 -0.415800
v 0.407281 -0.494138 0.518985
v 0.421841 -0.466909 0.422732
v 0.468365 -0.436972 0.454362
v 0.440973 -0.450599 0.516417
vt 0.183781 0.234669
vt 0.020946 0.081688
vt 0.052999 0.073184
vt 0.615390 0.800730
vt 0.512470 0.904000
vt 0.446773 0.682590
vt 1.000000 0.255164
vt 0.900842 0.158573
vt 1.000000 0.062105
vt 0.061481 0.064096
vt 0.397320 0.298908
vt 0.570011 0.942945
vt 0.742544 0.929582
vt 0.892190 0.148500
vt 0.971881 0.000000
vt 0.000000 0.306745
vt 0.738143 0.679184
vt 0.709124 0.530148
vt 0.821773 0.413948
vt 0.717659 0.371376
vt 0.892190 0.281012
vt 0.873915 0.380341
vt 0.551145 0.250565
vt 0.685489 0.178321
vt 0.791161 0.048737
vt 0.877956 0.120516
vt 0.751323 0.577048
vt 0.751323 0.839968
vt 0.863369 0.433473
vt 0.820582 0.476319
vt 0.785645 0.458912
vt 0.558615 0.519790
vt 0.684238 0.491796
vt 0.703185 0.464850
vt 0.207246 0.779161
vt 0.226839 0.861776
vt 0.191674 0.893598
vt 0.543128 0.461739
vt 0.060353 0.853314
vt 0.226839 0.623236
vt 0.467729 0.476319
vt 0.545387 0.492609
vt 0.489072 0.554057
vt 0.000000 0.787308
vt 0.373461 0.522977
vt 0.083993 0.522977
vt 0.281724 0.893140
vt 0.326159 0.979699
vt 0.257473 0.933523
vt 0.106155 0.522977
vt 0.195951 0.526187
vt 0.264794 0.417551
vt 0.388347 0.384888
vt 0.258365 0.906725
vt 0.406569 0.752551
vt 0.379086 0.719661
vt 0.406569 0.684167
vt 0.247637 1.000000
vt 0.296378 0.844345
vt 0.343340 0.931706
vt 0.446773 0.378695
vt 0.438639 0.425966
vt 0.384447 0.331656
vt 0.458763 0.427642
vt 0.446773 0.476319
vt 0.379086 0.873712
vt 0.455148 0.368897
vt 0.226839 0.654859
vt 0.359932 0.675377
vt 0.454562 0.171023
vt 0.478787 0.075631
vt 0.282346 0.582787
vt 0.379086 0.581004
vt 0.235900 0.522977
vt 0.683210 0.058091
vt 0.795500 0.806835
vt 0.751323 0.697553
vt 0.767354 0.585481
vt 0.991535 0.476319
vt 0.954915 0.611655
vt 0.892507 0.799133
vt 0.965188 0.642311
vt 0.974117 0.648843
vt 0.715132 0.016105
vt 0.808702 0.000000
vt 0.646685 0.031200
vt 0.257045 0.000000
vt 0.364872 0.040383
vt 0.439711 0.182922
vt 0.975713 0.440865
vt 0.892190 0.440865
vt 0.921386 0.255164
vt 0.167669 0.070629
vt 0.240469 0.770767
vt 0.442253 0.300840
vt 0.441382 0.684167
vt 0.441382 0.732355
vt 0.406569 0.685086
vt 0.319231 0.342488
vt 0.425118 0.522977
vt 0.425118 0.684166
vt 0.379086 0.614552
vt 0.245726 0.334893
vt 0.190371 0.298935
vt 0.115191 0.336985
vt 0.880674 0.033279
vt 0.395218 0.759847
vt 0.410212 0.752551
vt 0.420484 0.793375
vt 0.068801 0.048413
vt 0.547876 0.909626
vt 0.910925 0.208073
vt 0.426558 0.540677
vt 0.437390 0.527989
vt 0.446773 0.579457
vt 0.446773 0.522977
vt 0.446773 0.627538
vt 0.426388 0.608993
vt 0.446773 0.579457
vt 0.379086 0.793375
vt 0.718008 0.030543
vt 0.991535 0.580468
vt 0.990988 0.623954
vt 0.648361 0.029666
vt 0.669498 0.016787
vt 0.242193 0.901098
vt 0.239454 0.940725
vt 0.418217 0.468834
vt 0.385939 0.743862
vt 0.440458 0.662983
vt 0.426388 0.650898
vt 0.440458 0.627539
vt 0.419973 0.429283
vn 0.007882 -0.937051 -0.349103
vn 0.007882 -0.937051 -0.349103
vn 0.007882 -0.937051 -0.349103
vn -0.968908 -0.062101 -0.239502
vn -0.968908 -0.062101 -0.239502
vn -0.968908 -0.062101 -0.239502
vn 0.222194 -0.118497 -0.967775
vn 0.222194 -0.118497 -0.967775
vn 0.222194 -0.118497 -0.967775
vn -0.417907 -0.907216 -0.048101
vn -0.417907 -0.907216 -0.048101
vn -0.417907 -0.907216 -0.048101
vn -0.838137 0.330515 -0.433919
vn -0.838137 0.330515 -0.433919
vn -0.838137 0.330515 -0.433919
vn -0.318413 0.278112 -0.906238
vn -0.318413 0.278112 -0.906238
vn -0.318413 0.278112 -0.906238
vn 0.007900 -0.937058 -0.349084
vn 0.007900 -0.937058 -0.349084
vn 0.007900 -0.937058 -0.349084
vn -0.789189 0.608692 -0.081699
vn -0.789189 0.608692 -0.081699
vn -0.789189 0.608692 -0.081699
vn -0.945781 0.217096 0.241595
vn -0.945781 0.217096 0.241595
vn -0.945781 0.217096 0.241595
vn -0.967621 0.247605 0.049001
vn -0.967621 0.247605 0.049001
vn -0.967621 0.247605 0.049001
vn 0.650195 0.758594 -0.042200
vn 0.650195 0.758594 -0.042200
vn 0.650195 0.758594 -0.042200
vn 0.689464 0.721362 -0.065397
vn 0.689464 0.721362 -0.065397
vn 0.689464 0.721362 -0.065397
vn 0.414384 0.835967 0.359786
vn 0.414384 0.835967 0.359786
vn 0.414384 0.835967 0.359786
vn 0.436586 0.887172 0.149395
vn 0.436586 0.887172 0.149395
vn 0.436586 0.887172 0.149395
vn 0.461879 0.854861 0.236389
vn 0.461879 0.854861 0.236389
vn 0.461879 0.854861 0.236389
vn 0.453685 0.860571 0.231492
vn 0.453685 0.860571 0.231492
vn 0.453685 0.860571 0.231492
vn -0.883784 0.453492 0.115198
vn -0.883784 0.453492 0.115198
vn -0.883784 0.453492 0.115198
vn -0.506726 0.862043 -0.010501
vn -0.506726 0.862043 -0.010501
vn -0.506726 0.862043 -0.010501
vn -0.052900 0.702306 0.709907
vn -0.052900 0.702306 0.709907
vn -0.052900 0.702306 0.709907
vn -0.053901 0.728608 0.682807
vn -0.053901 0.728608 0.682807
vn -0.053901 0.728608 0.682807
vn -0.772660 0.175191 0.610168
vn -0.772660 0.175191 0.610168
vn -0.772660 0.175191 0.610168
vn -0.967325 0.249106 0.047201
vn -0.967325 0.249106 0.047201
vn -0.967325 0.249106 0.047201
vn -0.059301 0.722414 0.688913
vn -0.059301 0.722414 0.688913
vn -0.059301 0.722414 0.688913
vn 0.706002 0.634001 0.315601
vn 0.706002 0.634001 0.315601
vn 0.706002 0.634001 0.315601
vn 0.107500 0.135700 0.984901
vn 0.107500 0.135700 0.984901
vn 0.107500 0.135700 0.984901
vn 0.721594 0.631295 0.284198
vn 0.721594 0.631295 0.284198
vn 0.721594 0.631295 0.284198
vn 0.436699 0.836698 0.330499
vn 0.436699 0.836698 0.330499
vn 0.436699 0.836698 0.330499
vn -0.075101 -0.036500 0.996508
vn -0.075101 -0.036500 0.996508
vn -0.075101 -0.036500 0.996508
vn -0.029901 -0.123105 0.991943
vn -0.029901 -0.123105 0.991943
vn -0.029901 -0.123105 0.991943
vn -0.916752 -0.138108 0.374821
vn -0.916752 -0.138108 0.374821
vn -0.916752 -0.138108 0.374821
vn -0.073900 0.148800 0.986102
vn -0.073900 0.148800 0.986102
vn -0.073900 0.148800 0.986102
vn -0.763734 0.163707 0.624428
vn -0.763734 0.163707 0.624428
vn -0.763734 0.163707 0.624428
vn -0.882471 -0.220493 0.415486
vn -0.882471 -0.220493 0.415486
vn -0.882471 -0.220493 0.415486
vn -0.892065 -0.384285 0.237791
vn -0.892065 -0.384285 0.237791
vn -0.892065 -0.384285 0.237791
vn -0.972266 -0.095497 0.213493
vn -0.972266 -0.095497 0.213493
vn -0.972266 -0.095497 0.213493
vn -0.242003 -0.969913 -0.026500
vn -0.242003 -0.969913 -0.026500
vn -0.242003 -0.969913 -0.026500
vn 0.914314 -0.175503 0.365006
vn 0.914314 -0.175503 0.365006
vn 0.914314 -0.175503 0.365006
vn -0.047101 -0.033801 0.998318
vn -0.047101 -0.033801 0.998318
vn -0.047101 -0.033801 0.998318
vn -0.268187 -0.963252 0.014899
vn -0.268187 -0.963252 0.014899
vn -0.268187 -0.963252 0.014899
vn 0.023601 -0.969132 -0.245408
vn 0.023601 -0.969132 -0.245408
vn 0.023601 -0.969132 -0.245408
vn 0.914314 -0.175503 0.365006
vn 0.914314 -0.175503 0.365006
vn 0.914314 -0.175503 0.365006
vn 0.677276 -0.400486 -0.617178
vn 0.677276 -0.400486 -0.617178
vn 0.677276 -0.400486 -0.617178
vn 0.648173 -0.465980 0.602275
vn 0.648173 -0.465980 0.602275
vn 0.648173 -0.465980 0.602275
vn 0.919522 0.108703 0.377709
vn 0.919522 0.108703 0.377709
vn 0.919522 0.108703 0.377709
vn 0.433804 -0.848208 -0.303903
vn 0.433804 -0.848208 -0.303903
vn 0.433804 -0.848208 -0.303903
vn 0.498227 -0.801743 -0.330118
vn 0.498227 -0.801743 -0.330118
vn 0.498227 -0.801743 -0.330118
vn 0.941533 0.226408 0.249509
vn 0.941533 0.226408 0.249509
vn 0.941533 0.226408 0.249509
vn 0.696883 0.572486 0.431989
vn 0.696883 0.572486 0.431989
vn 0.696883 0.572486 0.431989
vn 0.867394 -0.190299 0.459797
vn 0.867394 -0.190299 0.459797
vn 0.867394 -0.190299 0.459797
vn 0.618597 0.283199 0.732896
vn 0.618597 0.283199 0.732896
vn 0.618597 0.283199 0.732896
vn 0.383889 0.851075 0.358190
vn 0.383889 0.851075 0.358190
vn 0.383889 0.851075 0.358190
vn 0.993479 0.110898 -0.026499
vn 0.993479 0.110898 -0.026499
vn 0.993479 0.110898 -0.026499
vn 0.968406 -0.225401 0.106701
vn 0.968406 -0.225401 0.106701
vn 0.968406 -0.225401 0.106701
vn 0.637396 0.751095 0.171999
vn 0.637396 0.751095 0.171999
vn 0.637396 0.751095 0.171999
vn 0.695198 0.653498 0.299399
vn 0.695198 0.653498 0.299399
vn 0.695198 0.653498 0.299399
vn 0.436586 0.887172 0.149395
vn 0.436586 0.887172 0.149395
vn 0.436586 0.887172 0.149395
vn 0.414384 0.835967 0.359786
vn 0.414384 0.835967 0.359786
vn 0.414384 0.835967 0.359786
vn 0.999450 0.017599 0.028099
vn 0.999450 0.017599 0.028099
vn 0.999450 0.017599 0.028099
vn 0.614291 -0.638391 -0.463793
vn 0.614291 -0.638391 -0.463793
vn 0.614291 -0.638391 -0.463793
vn 0.955742 -0.246111 0.161207
vn 0.955742 -0.246111 0.161207
vn 0.955742 -0.246111 0.161207
vn 0.324983 0.888055 0.325183
vn 0.324983 0.888055 0.325183
vn 0.324983 0.888055 0.325183
vn 0.466817 0.641323 -0.608922
vn 0.466817 0.641323 -0.608922
vn 0.466817 0.641323 -0.608922
vn 0.350392 0.326693 -0.877780
vn 0.350392 0.326693 -0.877780
vn 0.350392 0.326693 -0.877780
vn 0.463201 0.165300 -0.870701
vn 0.463201 0.165300 -0.870701
vn 0.463201 0.165300 -0.870701
vn 0.237400 0.902999 -0.358099
vn 0.237400 0.902999 -0.358099
vn 0.237400 0.902999 -0.358099
vn 0.487802 0.802703 0.343101
vn 0.487802 0.802703 0.343101
vn 0.487802 0.802703 0.343101
vn -0.192098 -0.953389 -0.232697
vn -0.192098 -0.953389 -0.232697
vn -0.192098 -0.953389 -0.232697
vn -0.624584 -0.162896 -0.763780
vn -0.624584 -0.162896 -0.763780
vn -0.624584 -0.162896 -0.763780
vn -0.311512 -0.941837 -0.126105
vn -0.311512 -0.941837 -0.126105
vn -0.311512 -0.941837 -0.126105
vn 0.966065 -0.257691 0.017699
vn 0.966065 -0.257691 0.017699
vn 0.966065 -0.257691 0.017699
vn -0.224408 -0.928034 -0.297311
vn -0.224408 -0.928034 -0.297311
vn -0.224408 -0.928034 -0.297311
vn 0.231204 -0.968817 -0.089102
vn 0.231204 -0.968817 -0.089102
vn 0.231204 -0.968817 -0.089102
vn 0.056200 -0.738599 0.671799
vn 0.056200 -0.738599 0.671799
vn 0.056200 -0.738599 0.671799
vn -0.173402 -0.901508 0.396504
vn -0.173402 -0.901508 0.396504
vn -0.173402 -0.901508 0.396504
vn -0.057401 -0.913922 -0.401810
vn -0.057401 -0.913922 -0.401810
vn -0.057401 -0.913922 -0.401810
vn -0.506215 -0.689121 0.518516
vn -0.506215 -0.689121 0.518516
vn -0.506215 -0.689121 0.518516
vn -0.058302 -0.909037 -0.412617
vn -0.058302 -0.909037 -0.412617
vn -0.058302 -0.909037 -0.412617
vn -0.017900 -0.888511 -0.458506
vn -0.017900 -0.888511 -0.458506
vn -0.017900 -0.888511 -0.458506
vn 0.386880 -0.582369 -0.714962
vn 0.386880 -0.582369 -0.714962
vn 0.386880 -0.582369 -0.714962
vn 0.363818 -0.925846 -0.102205
vn 0.363818 -0.925846 -0.102205
vn 0.363818 -0.925846 -0.102205
vn 0.347610 -0.603717 -0.717421
vn 0.347610 -0.603717 -0.717421
vn 0.347610 -0.603717 -0.717421
vn -0.249991 -0.965166 -0.077197
vn -0.249991 -0.965166 -0.077197
vn -0.249991 -0.965166 -0.077197
vn -0.252194 -0.967676 0.001100
vn -0.252194 -0.967676 0.001100
vn -0.252194 -0.967676 0.001100
vn -0.295209 -0.952429 0.075702
vn -0.295209 -0.952429 0.075702
vn -0.295209 -0.952429 0.075702
vn -0.463307 -0.497007 -0.733710
vn -0.463307 -0.497007 -0.733710
vn -0.463307 -0.497007 -0.733710
vn -0.060999 -0.832281 -0.550988
vn -0.060999 -0.832281 -0.550988
vn -0.060999 -0.832281 -0.550988
vn -0.048499 0.069898 0.996374
vn -0.048499 0.069898 0.996374
vn -0.048499 0.069898 0.996374
vn 0.325180 0.945443 0.019899
vn 0.325180 0.945443 0.019899
vn 0.325180 0.945443 0.019899
vn 0.416113 0.811526 -0.410213
vn 0.416113 0.811526 -0.410213
vn 0.416113 0.811526 -0.410213
vn -0.539393 -0.458794 -0.706090
vn -0.539393 -0.458794 -0.706090
vn -0.539393 -0.458794 -0.706090
vn -0.234600 -0.928201 -0.288800
vn -0.234600 -0.928201 -0.288800
vn -0.234600 -0.928201 -0.288800
vn -0.968908 -0.062101 -0.239502
vn -0.968908 -0.062101 -0.239502
vn -0.968908 -0.062101 -0.239502
vn 0.222194 -0.118497 -0.967775
vn 0.222194 -0.118497 -0.967775
vn 0.222194 -0.118497 -0.967775
vn -0.417907 -0.907216 -0.048101
vn -0.417907 -0.907216 -0.048101
vn -0.417907 -0.907216 -0.048101
vn -0.838137 0.330515 -0.433919
vn -0.838137 0.330515 -0.433919
vn -0.838137 0.330515 -0.433919
vn -0.318413 0.278112 -0.906238
vn -0.318413 0.278112 -0.906238
vn -0.318413 0.278112 -0.906238
vn -0.794485 -0.327994 -0.511090
vn -0.794485 -0.327994 -0.511090
vn -0.794485 -0.327994 -0.511090
vn -0.756126 -0.344812 -0.556219
vn -0.756126 -0.344812 -0.556219
vn -0.756126 -0.344812 -0.556219
vn -0.159005 -0.100703 -0.982129
vn -0.159005 -0.100703 -0.982129
vn -0.159005 -0.100703 -0.982129
vn -0.508486 -0.462087 -0.726580
vn -0.508486 -0.462087 -0.726580
vn -0.508486 -0.462087 -0.726580
vn -0.234600 -0.928201 -0.288800
vn -0.234600 -0.928201 -0.288800
vn -0.234600 -0.928201 -0.288800
vn 0.751035 0.617629 -0.233411
vn 0.751035 0.617629 -0.233411
vn 0.751035 0.617629 -0.233411
vn 0.565818 0.258908 -0.782826
vn 0.565818 0.258908 -0.782826
vn 0.565818 0.258908 -0.782826
vn 0.324983 0.888055 0.325183
vn 0.324983 0.888055 0.325183
vn 0.324983 0.888055 0.325183
vn 0.350392 0.326693 -0.877780
vn 0.350392 0.326693 -0.877780
vn 0.350392 0.326693 -0.877780
vn 0.463201 0.165300 -0.870701
vn 0.463201 0.165300 -0.870701
vn 0.463201 0.165300 -0.870701
vn 0.237400 0.902999 -0.358099
vn 0.237400 0.902999 -0.358099
vn 0.237400 0.902999 -0.358099
vn 0.487802 0.802703 0.343101
vn 0.487802 0.802703 0.343101
vn 0.487802 0.802703 0.343101
vn -0.250100 0.651101 -0.716601
vn -0.250100 0.651101 -0.716601
vn -0.250100 0.651101 -0.716601
vn 0.178995 0.887374 -0.424887
vn 0.178995 0.887374 -0.424887
vn 0.178995 0.887374 -0.424887
vn 0.753911 0.613009 -0.236303
vn 0.753911 0.613009 -0.236303
vn 0.753911 0.613009 -0.236303
vn 0.565818 0.258908 -0.782826
vn 0.565818 0.258908 -0.782826
vn 0.565818 0.258908 -0.782826
vn 0.788127 -0.613121 -0.054202
vn 0.788127 -0.613121 -0.054202
vn 0.788127 -0.613121 -0.054202
vn -0.353890 -0.884575 -0.303791
vn -0.353890 -0.884575 -0.303791
vn -0.353890 -0.884575 -0.303791
vn 0.677276 -0.400486 -0.617178
vn 0.677276 -0.400486 -0.617178
vn 0.677276 -0.400486 -0.617178
vn 0.648173 -0.465980 0.602275
vn 0.648173 -0.465980 0.602275
vn 0.648173 -0.465980 0.602275
vn 0.520125 -0.853042 0.042302
vn 0.520125 -0.853042 0.042302
vn 0.520125 -0.853042 0.042302
vn -0.353890 -0.884575 -0.303791
vn -0.353890 -0.884575 -0.303791
vn -0.353890 -0.884575 -0.303791
s off
g rock7
usemtl standardSurface1SG
f 4/1/1 47/2/2 46/3/3
f 6/4/4 47/5/5 2/6/6
f 1/7/7 50/8/8 3/9/9
f 4/1/10 45/10/11 5/11/12
f 49/12/13 6/4/14 44/13/15
f 3/9/16 49/14/17 44/15/18
f 4/1/19 2/16/20 47/2/21
f 44/13/22 6/4/23 7/17/24
f 6/4/25 2/6/26 7/17/27
f 14/18/28 7/17/29 2/6/30
f 8/19/31 9/20/32 7/21/33
f 8/19/34 7/21/35 12/22/36
f 9/20/37 34/23/38 7/21/39
f 34/23/40 10/24/41 7/21/42
f 11/25/43 7/21/44 10/24/45
f 11/25/46 13/26/47 7/21/48
f 14/18/49 12/27/50 7/17/51
f 7/17/52 13/28/53 44/13/54
f 8/19/55 12/22/56 14/29/57
f 15/30/58 17/31/59 14/29/60
f 16/32/61 15/33/62 14/18/63
f 16/32/64 14/18/65 2/6/66
f 17/31/67 8/19/68 14/29/69
f 8/19/70 17/31/71 18/34/72
f 18/35/73 17/36/74 15/37/75
f 9/20/76 8/19/77 18/34/78
f 18/34/79 19/38/80 9/20/81
f 20/39/82 19/40/83 18/35/84
f 15/37/85 20/39/86 18/35/87
f 22/41/88 20/42/89 21/43/90
f 19/40/91 20/39/92 22/44/93
f 15/33/94 16/32/95 20/42/96
f 20/42/97 16/32/98 21/43/99
f 2/6/100 22/41/101 21/43/102
f 2/6/103 21/43/104 16/32/105
f 2/16/106 23/45/107 22/46/108
f 27/47/109 24/48/110 61/49/111
f 22/44/112 23/50/113 24/51/114
f 25/52/115 23/45/116 2/16/117
f 26/53/118 23/45/119 25/52/120
f 27/47/121 61/49/122 60/54/123
f 27/55/124 59/56/125 26/57/126
f 23/58/127 61/49/128 24/48/129
f 27/47/130 28/59/131 30/60/132
f 28/61/133 27/62/134 29/63/135
f 29/63/136 27/62/137 26/53/138
f 30/60/139 24/48/140 27/47/141
f 30/64/142 19/38/143 24/65/144
f 28/59/145 31/66/146 30/60/147
f 30/64/148 31/67/149 19/38/150
f 31/67/151 34/23/152 19/38/153
f 28/59/154 32/68/155 31/66/156
f 32/68/157 33/69/158 31/66/159
f 31/67/160 33/70/161 34/23/162
f 33/70/163 35/71/164 34/23/165
f 10/24/166 34/23/167 35/71/168
f 19/38/169 34/23/170 9/20/171
f 36/72/172 35/73/173 33/69/174
f 36/72/175 32/68/176 38/74/177
f 32/68/178 36/72/179 33/69/180
f 56/75/181 11/25/182 10/24/183
f 36/76/184 38/77/185 37/78/186
f 3/79/187 53/80/188 37/78/189
f 35/81/190 52/82/191 57/83/192
f 11/25/193 54/84/194 3/85/195
f 57/86/196 10/24/197 35/71/198
f 37/87/199 38/88/200 32/89/201
f 37/90/202 1/91/203 3/92/204
f 37/87/205 32/89/206 1/93/207
f 28/59/208 39/94/209 32/68/210
f 32/89/211 5/11/212 1/93/213
f 32/89/214 39/95/215 5/11/216
f 5/96/217 39/97/218 29/98/219
f 39/95/220 28/61/221 29/63/222
f 29/63/223 40/99/224 4/1/225
f 5/11/226 29/63/227 4/1/228
f 40/99/229 29/63/230 26/53/231
f 40/99/232 26/53/233 25/52/234
f 4/100/235 40/101/236 41/102/237
f 25/52/238 41/103/239 40/99/240
f 4/1/241 41/103/242 42/104/243
f 43/105/244 42/104/245 41/103/246
f 43/105/247 41/103/248 25/52/249
f 25/52/250 2/16/251 43/105/252
f 43/105/253 4/1/254 42/104/255
f 4/1/256 43/105/257 2/16/258
f 19/40/259 22/44/260 24/51/261
f 44/106/262 13/26/263 11/25/264
f 44/106/265 11/25/266 3/85/267
f 49/107/268 50/108/269 46/109/270
f 1/93/271 45/10/272 51/110/273
f 6/4/274 48/111/275 47/5/276
f 1/7/277 51/112/278 50/8/279
f 4/1/280 46/3/281 45/10/282
f 49/12/283 48/111/284 6/4/285
f 3/9/286 50/8/287 49/14/288
f 51/113/289 45/114/290 50/115/291
f 45/114/292 46/116/293 50/115/294
f 46/117/295 47/118/296 48/119/297
f 48/120/298 49/107/299 46/109/300
f 1/93/301 5/11/302 45/10/303
f 54/84/304 55/121/305 56/75/306
f 37/78/307 52/82/308 36/76/309
f 56/75/310 55/121/311 11/25/312
f 3/79/313 54/122/314 53/80/315
f 35/81/316 36/76/317 52/82/318
f 11/25/319 55/121/320 54/84/321
f 57/86/322 56/75/323 10/24/324
f 57/83/325 52/82/326 56/123/327
f 52/124/328 53/125/329 56/75/330
f 53/125/331 54/84/332 56/75/333
f 37/78/334 53/80/335 52/82/336
f 59/126/337 61/49/338 58/127/339
f 26/53/340 58/128/341 23/45/342
f 27/55/343 60/129/344 59/56/345
f 23/58/346 58/127/347 61/49/348
f 59/130/349 60/131/350 61/132/351
f 26/53/352 59/133/353 58/128/354
