# This file uses centimeters as units for non-parametric coordinates.

mtllib rock_24.mtl
g default
v -0.065256 -0.485812 1.270791
v -0.354162 -0.588630 0.462748
v 0.765711 -0.149908 1.106427
v 0.319861 -0.672085 0.725837
v 0.899214 0.065428 -0.029829
v 0.521860 -0.525772 -0.684748
v 0.994067 -0.053634 0.738798
v -0.655834 -0.388229 -0.247531
v -0.070465 -0.521190 -0.467391
v 0.145759 -0.476963 -1.125130
v -0.398176 -0.443568 -1.168605
v 0.045567 0.031732 -1.241925
v 0.501167 0.476332 -0.710979
v -0.544841 -0.465538 -0.717027
v 0.016559 -0.213209 -1.275720
v -0.170833 -0.193691 -1.295090
v -0.032203 0.113232 -1.331917
v -0.761217 0.556702 -0.772487
v -0.822325 0.490061 -0.738417
v -1.006020 0.448688 -0.646911
v -0.939215 -0.154305 -0.689751
v -0.796880 0.607236 -0.453885
v -0.634157 0.672085 -0.815914
v -0.628558 0.486033 -0.177856
v -0.060754 0.535460 -0.443359
v -0.865313 -0.201848 -0.568545
v -0.793646 -0.413440 -0.463305
v -0.660622 -0.458674 -0.713497
v -0.727852 -0.442416 -0.890393
v 0.375946 0.143246 0.582305
v 1.006020 -0.215596 0.969494
v -0.448287 0.106746 0.290190
v -0.408242 0.068573 0.383578
v -0.375429 0.144634 0.468681
v -0.324142 0.154280 0.428177
v -0.308453 0.175227 0.399264
v -0.307514 0.178286 0.344312
v -0.345855 0.203386 0.285873
v -0.375330 0.222245 0.274084
v -0.453449 0.232467 0.276646
v 0.618891 -0.655298 0.063700
v 0.570164 -0.647286 0.016045
v 0.563315 -0.633530 -0.043562
v 0.575398 -0.637720 -0.078357
v 0.639822 -0.634387 -0.123502
v 0.683804 -0.556591 -0.015753
v 0.692491 -0.594735 0.047087
v 0.691729 -0.650586 0.067393
v -0.203641 -0.034620 -1.254757
v -0.242863 -0.031613 -1.227380
v -0.280433 0.084805 -1.187563
v -0.276951 0.092853 -1.188996
v -0.193248 0.138569 -1.230882
v -0.146387 0.101083 -1.268387
v -0.125863 0.059345 -1.226363
v -0.152824 -0.012342 -1.243471
v -0.015291 0.522633 -1.247934
v -0.044458 0.592781 -1.212542
v -0.042469 0.604728 -1.210005
v -0.015456 0.588937 -1.183980
v 0.020107 0.590045 -1.171749
v 0.085771 0.582218 -1.192990
v 0.032136 0.509497 -1.255579
v 0.018752 0.511108 -1.271116
v -0.008375 0.518324 -1.253424
v -0.013146 -0.228268 1.331917
v 0.053682 -0.171031 1.327828
v -0.020197 -0.154113 1.293042
v -0.023559 -0.154279 1.294288
v -0.021676 -0.196032 1.295571
v 0.940706 -0.619188 1.007188
v 0.942560 -0.631006 0.968700
v 0.980964 -0.628668 0.932011
v 1.000164 -0.569808 0.966167
v 1.001629 -0.564581 0.988095
v 0.973767 -0.572209 1.004671
vt 0.454862 0.553587
vt 0.341565 0.664623
vt 0.331595 0.433117
vt 0.983528 0.279412
vt 0.982653 0.017221
vt 0.990824 0.021727
vt 0.291208 0.401994
vt 0.293172 0.660059
vt 0.277741 0.396925
vt 0.577061 0.656077
vt 0.569218 0.408380
vt 0.728506 0.630485
vt 0.611284 0.698807
vt 0.580823 0.455757
vt 0.549298 0.369470
vt 0.309010 0.221242
vt 0.598661 0.430895
vt 0.587010 0.248265
vt 0.735462 0.428133
vt 0.592162 0.448687
vt 0.547381 0.385826
vt 0.564286 0.672622
vt 0.443300 0.209399
vt 0.553871 0.361322
vt 0.577061 0.196598
vt 0.569631 0.354232
vt 0.525526 0.052418
vt 0.345557 0.949230
vt 0.293933 1.000000
vt 0.295527 0.875361
vt 0.360383 0.107771
vt 0.416589 0.000000
vt 0.678396 0.034313
vt 0.796060 0.199294
vt 0.577061 0.094904
vt 0.625464 0.032492
vt 0.343468 0.991509
vt 0.396282 0.997011
vt 0.385510 0.949040
vt 0.401340 0.954156
vt 0.796060 0.028890
vt 0.777931 0.010265
vt 0.406835 0.912328
vt 0.516168 0.748892
vt 0.408505 0.913444
vt 0.208832 0.744963
vt 0.187574 0.718216
vt 0.208832 0.697553
vt 0.502833 0.729033
vt 0.151636 0.184454
vt 0.078580 0.010378
vt 0.284949 0.192331
vt 0.208832 0.703976
vt 0.222356 0.697553
vt 0.222356 0.776875
vt 0.368127 0.687068
vt 0.495800 0.672622
vt 0.120609 0.720026
vt 0.160780 0.697553
vt 0.160780 0.757980
vt 1.000000 0.488996
vt 1.000000 0.582824
vt 0.948260 0.635294
vt 0.539925 0.786373
vt 0.537020 0.699829
vt 0.230986 0.024766
vt 0.293933 0.098830
vt 0.828757 0.539277
vt 0.820190 0.424277
vt 0.124232 0.697553
vt 0.921717 0.000000
vt 0.978925 0.004824
vt 0.514525 0.978228
vt 0.517134 0.978520
vt 0.019047 0.185517
vt 0.072734 0.016842
vt 0.827625 0.579933
vt 0.796060 0.486822
vt 0.160780 0.717305
vt 0.187574 0.697553
vt 0.187574 0.780060
vt 0.120609 0.795471
vt 0.094472 0.737200
vt 0.120609 0.697553
vt 0.576816 0.759178
vt 0.539925 0.693316
vt 0.576816 0.672622
vt 0.332906 0.048345
vt 0.336446 0.099966
vt 0.293933 0.154871
vt 0.302510 0.760308
vt 0.961633 0.324940
vt 0.837742 0.208144
vt 0.961597 0.295347
vt 0.269700 0.356722
vt 0.000000 0.424800
vt 0.155061 0.506887
vt 0.274444 0.349146
vt 0.267273 0.376747
vt 0.048111 0.626088
vt 0.409880 0.990903
vt 0.497792 0.991288
vt 0.495892 1.000000
vt 0.691338 0.000000
vt 0.777553 0.004845
vt 0.065487 0.696471
vt 0.083594 0.989791
vt 0.008338 0.990311
vt 0.000000 0.914130
vt 0.567095 0.662871
vt 0.984603 0.283947
vt 0.984454 0.303687
vt 0.289870 0.340682
vt 0.272225 0.389831
vt 0.985615 0.340677
vt 0.222356 0.721497
vt 0.240663 0.697553
vt 0.240663 0.735654
vt 0.272529 0.697553
vt 0.272764 0.722044
vt 0.258947 0.722044
vt 0.987431 0.290859
vt 0.984246 0.323799
vt 0.571175 0.384444
vt 0.554634 0.402070
vt 0.578876 0.402671
vt 0.283096 0.712236
vt 0.290090 0.697553
vt 0.290090 0.723777
vt 0.577529 0.446403
vt 0.624890 0.707008
vt 0.699434 0.694316
vt 0.626463 0.712288
vt 0.205894 0.764774
vt 0.199146 0.750408
vt 0.381328 0.925112
vt 0.408579 0.955140
vt 0.417350 0.939491
vt 0.380082 0.938028
vt 0.240663 0.722494
vt 0.240942 0.709809
vt 0.257279 0.704045
vt 0.498828 0.988970
vt 0.058110 0.019406
vt 0.081602 0.000000
vt 0.293214 0.699717
vt 0.293933 0.697553
vt 0.293933 0.710979
vt 0.280862 0.716105
vt 0.280834 0.734852
vt 0.272764 0.736946
vt 0.280862 0.738227
vt 0.255092 0.697553
vt 0.258947 0.722494
vt 0.290511 0.707778
vt 0.291164 0.722278
vt 0.290403 0.722180
vt 0.291164 0.710979
vt 0.023650 0.713080
vt 0.094472 0.698327
vt 0.293933 0.660018
vt 0.281801 0.677469
vt 0.992436 0.003815
vt 0.990894 0.021655
vt 0.037741 0.697553
vt 0.272764 0.697553
vt 0.283096 0.716105
vt 0.275004 0.715378
vt 0.094472 0.982641
vt 0.081375 0.998219
vt 0.263267 0.742617
vt 0.258947 0.729823
vt 0.263267 0.722044
vt 0.283096 0.698749
vt 0.293933 0.723710
vt 0.291164 0.718963
vt 0.293933 0.710979
vn -0.193975 -0.962080 0.191771
vn -0.193975 -0.962080 0.191771
vn -0.193975 -0.962080 0.191771
vn -0.923390 -0.029900 0.382696
vn -0.923390 -0.029900 0.382696
vn -0.923390 -0.029900 0.382696
vn 0.069301 0.947120 0.313307
vn 0.069301 0.947120 0.313307
vn 0.069301 0.947120 0.313307
vn 0.064401 -0.997917 0.003800
vn 0.064401 -0.997917 0.003800
vn 0.064401 -0.997917 0.003800
vn 0.941726 -0.126204 -0.311809
vn 0.941726 -0.126204 -0.311809
vn 0.941726 -0.126204 -0.311809
vn -0.160098 -0.965686 -0.204497
vn -0.160098 -0.965686 -0.204497
vn -0.160098 -0.965686 -0.204497
vn 0.916422 -0.322708 -0.236706
vn 0.916422 -0.322708 -0.236706
vn 0.916422 -0.322708 -0.236706
vn 0.935819 -0.312106 -0.163803
vn 0.935819 -0.312106 -0.163803
vn 0.935819 -0.312106 -0.163803
vn -0.160098 -0.965686 -0.204497
vn -0.160098 -0.965686 -0.204497
vn -0.160098 -0.965686 -0.204497
vn -0.050401 -0.955423 0.290907
vn -0.050401 -0.955423 0.290907
vn -0.050401 -0.955423 0.290907
vn -0.204510 -0.977750 0.046702
vn -0.204510 -0.977750 0.046702
vn -0.204510 -0.977750 0.046702
vn -0.096200 -0.992995 -0.068600
vn -0.096200 -0.992995 -0.068600
vn -0.096200 -0.992995 -0.068600
vn -0.071798 -0.981966 -0.174894
vn -0.071798 -0.981966 -0.174894
vn -0.071798 -0.981966 -0.174894
vn -0.273411 -0.949537 -0.153706
vn -0.273411 -0.949537 -0.153706
vn -0.273411 -0.949537 -0.153706
vn -0.036700 -0.996191 -0.079099
vn -0.036700 -0.996191 -0.079099
vn -0.036700 -0.996191 -0.079099
vn 0.040500 -0.480406 -0.876111
vn 0.040500 -0.480406 -0.876111
vn 0.040500 -0.480406 -0.876111
vn -0.055801 -0.996218 -0.066601
vn -0.055801 -0.996218 -0.066601
vn -0.055801 -0.996218 -0.066601
vn 0.758904 0.000000 -0.651203
vn 0.758904 0.000000 -0.651203
vn 0.758904 0.000000 -0.651203
vn 0.758904 0.000000 -0.651203
vn 0.758904 0.000000 -0.651203
vn 0.758904 0.000000 -0.651203
vn 0.760377 -0.001300 -0.649481
vn 0.760377 -0.001300 -0.649481
vn 0.760377 -0.001300 -0.649481
vn 0.091902 -0.978826 0.182905
vn 0.091902 -0.978826 0.182905
vn 0.091902 -0.978826 0.182905
vn 0.040500 -0.480406 -0.876111
vn 0.040500 -0.480406 -0.876111
vn 0.040500 -0.480406 -0.876111
vn -0.047699 0.248795 -0.967381
vn -0.047699 0.248795 -0.967381
vn -0.047699 0.248795 -0.967381
vn 0.757791 0.002700 -0.652492
vn 0.757791 0.002700 -0.652492
vn 0.757791 0.002700 -0.652492
vn -0.585416 0.110103 -0.803222
vn -0.585416 0.110103 -0.803222
vn -0.585416 0.110103 -0.803222
vn -0.180803 -0.801712 -0.569709
vn -0.180803 -0.801712 -0.569709
vn -0.180803 -0.801712 -0.569709
vn -0.588322 0.102304 -0.802129
vn -0.588322 0.102304 -0.802129
vn -0.588322 0.102304 -0.802129
vn 0.125994 0.259988 -0.957357
vn 0.125994 0.259988 -0.957357
vn 0.125994 0.259988 -0.957357
vn -0.054603 0.996149 0.068603
vn -0.054603 0.996149 0.068603
vn -0.054603 0.996149 0.068603
vn -0.023200 0.139297 -0.989979
vn -0.023200 0.139297 -0.989979
vn -0.023200 0.139297 -0.989979
vn -0.769415 0.611912 -0.183204
vn -0.769415 0.611912 -0.183204
vn -0.769415 0.611912 -0.183204
vn -0.448291 0.013800 -0.893781
vn -0.448291 0.013800 -0.893781
vn -0.448291 0.013800 -0.893781
vn -0.359895 0.873588 -0.327596
vn -0.359895 0.873588 -0.327596
vn -0.359895 0.873588 -0.327596
vn -0.643696 0.059100 -0.762996
vn -0.643696 0.059100 -0.762996
vn -0.643696 0.059100 -0.762996
vn -0.757778 0.284792 0.587083
vn -0.757778 0.284792 0.587083
vn -0.757778 0.284792 0.587083
vn -0.694712 0.694311 -0.187903
vn -0.694712 0.694311 -0.187903
vn -0.694712 0.694311 -0.187903
vn 0.229508 0.934932 0.270609
vn 0.229508 0.934932 0.270609
vn 0.229508 0.934932 0.270609
vn -0.841769 -0.016699 0.539580
vn -0.841769 -0.016699 0.539580
vn -0.841769 -0.016699 0.539580
vn 0.069301 0.947120 0.313307
vn 0.069301 0.947120 0.313307
vn 0.069301 0.947120 0.313307
vn -0.940000 0.113900 0.321600
vn -0.940000 0.113900 0.321600
vn -0.940000 0.113900 0.321600
vn -0.514782 0.259291 -0.817171
vn -0.514782 0.259291 -0.817171
vn -0.514782 0.259291 -0.817171
vn 0.146598 0.985084 0.090099
vn 0.146598 0.985084 0.090099
vn 0.146598 0.985084 0.090099
vn -0.854059 -0.001500 0.520175
vn -0.854059 -0.001500 0.520175
vn -0.854059 -0.001500 0.520175
vn -0.767416 -0.129603 0.627913
vn -0.767416 -0.129603 0.627913
vn -0.767416 -0.129603 0.627913
vn -0.841769 -0.016699 0.539580
vn -0.841769 -0.016699 0.539580
vn -0.841769 -0.016699 0.539580
vn -0.719395 -0.672195 0.174999
vn -0.719395 -0.672195 0.174999
vn -0.719395 -0.672195 0.174999
vn -0.818511 -0.453006 -0.353305
vn -0.818511 -0.453006 -0.353305
vn -0.818511 -0.453006 -0.353305
vn -0.713113 -0.669012 0.209504
vn -0.713113 -0.669012 0.209504
vn -0.713113 -0.669012 0.209504
vn -0.061100 -0.995792 -0.068299
vn -0.061100 -0.995792 -0.068299
vn -0.061100 -0.995792 -0.068299
vn -0.054002 -0.987240 0.149806
vn -0.054002 -0.987240 0.149806
vn -0.054002 -0.987240 0.149806
vn -0.061100 -0.995792 -0.068299
vn -0.061100 -0.995792 -0.068299
vn -0.061100 -0.995792 -0.068299
vn -0.643696 0.059100 -0.762996
vn -0.643696 0.059100 -0.762996
vn -0.643696 0.059100 -0.762996
vn -0.054002 -0.987240 0.149806
vn -0.054002 -0.987240 0.149806
vn -0.054002 -0.987240 0.149806
vn 0.282306 0.921621 0.266306
vn 0.282306 0.921621 0.266306
vn 0.282306 0.921621 0.266306
vn -0.923018 -0.029701 0.383608
vn -0.923018 -0.029701 0.383608
vn -0.923018 -0.029701 0.383608
vn -0.923390 -0.029900 0.382696
vn -0.923390 -0.029900 0.382696
vn -0.923390 -0.029900 0.382696
vn 0.203604 0.886416 0.415707
vn 0.203604 0.886416 0.415707
vn 0.203604 0.886416 0.415707
vn -0.106800 0.831802 0.544701
vn -0.106800 0.831802 0.544701
vn -0.106800 0.831802 0.544701
vn -0.933072 0.000400 0.359689
vn -0.933072 0.000400 0.359689
vn -0.933072 0.000400 0.359689
vn 0.320116 0.808739 0.493424
vn 0.320116 0.808739 0.493424
vn 0.320116 0.808739 0.493424
vn 0.073297 0.995261 -0.063898
vn 0.073297 0.995261 -0.063898
vn 0.073297 0.995261 -0.063898
vn 0.198496 0.910882 0.361793
vn 0.198496 0.910882 0.361793
vn 0.198496 0.910882 0.361793
vn 0.275204 0.954615 0.113902
vn 0.275204 0.954615 0.113902
vn 0.275204 0.954615 0.113902
vn -0.499475 0.192990 -0.844558
vn -0.499475 0.192990 -0.844558
vn -0.499475 0.192990 -0.844558
vn 0.757791 0.002700 -0.652492
vn 0.757791 0.002700 -0.652492
vn 0.757791 0.002700 -0.652492
vn 0.757791 0.002700 -0.652492
vn 0.757791 0.002700 -0.652492
vn 0.757791 0.002700 -0.652492
vn 0.864617 0.004700 -0.502410
vn 0.864617 0.004700 -0.502410
vn 0.864617 0.004700 -0.502410
vn 0.477796 0.730393 0.488095
vn 0.477796 0.730393 0.488095
vn 0.477796 0.730393 0.488095
vn 0.502871 0.039698 0.863450
vn 0.502871 0.039698 0.863450
vn 0.502871 0.039698 0.863450
vn 0.064401 -0.997917 0.003800
vn 0.064401 -0.997917 0.003800
vn 0.064401 -0.997917 0.003800
vn -0.726199 0.685500 0.052200
vn -0.726199 0.685500 0.052200
vn -0.726199 0.685500 0.052200
vn 0.130595 0.886367 0.444183
vn 0.130595 0.886367 0.444183
vn 0.130595 0.886367 0.444183
vn -0.923018 -0.029701 0.383608
vn -0.923018 -0.029701 0.383608
vn -0.923018 -0.029701 0.383608
vn -0.923390 -0.029900 0.382696
vn -0.923390 -0.029900 0.382696
vn -0.923390 -0.029900 0.382696
vn 0.177301 0.941104 0.287901
vn 0.177301 0.941104 0.287901
vn 0.177301 0.941104 0.287901
vn -0.106800 0.831802 0.544701
vn -0.106800 0.831802 0.544701
vn -0.106800 0.831802 0.544701
vn -0.933072 0.000400 0.359689
vn -0.933072 0.000400 0.359689
vn -0.933072 0.000400 0.359689
vn 0.320116 0.808739 0.493424
vn 0.320116 0.808739 0.493424
vn 0.320116 0.808739 0.493424
vn 0.031601 0.997925 0.056101
vn 0.031601 0.997925 0.056101
vn 0.031601 0.997925 0.056101
vn -0.056899 0.104598 0.992886
vn -0.056899 0.104598 0.992886
vn -0.056899 0.104598 0.992886
vn -0.537403 0.674504 0.506203
vn -0.537403 0.674504 0.506203
vn -0.537403 0.674504 0.506203
vn 0.109099 0.643896 0.757295
vn 0.109099 0.643896 0.757295
vn 0.109099 0.643896 0.757295
vn -0.501674 0.732063 -0.460876
vn -0.501674 0.732063 -0.460876
vn -0.501674 0.732063 -0.460876
vn -0.786121 0.617716 0.021001
vn -0.786121 0.617716 0.021001
vn -0.786121 0.617716 0.021001
vn -0.533184 0.592182 0.604182
vn -0.533184 0.592182 0.604182
vn -0.533184 0.592182 0.604182
vn 0.130595 0.886367 0.444183
vn 0.130595 0.886367 0.444183
vn 0.130595 0.886367 0.444183
vn 0.421098 -0.808196 0.411698
vn 0.421098 -0.808196 0.411698
vn 0.421098 -0.808196 0.411698
vn 0.064401 -0.997917 0.003800
vn 0.064401 -0.997917 0.003800
vn 0.064401 -0.997917 0.003800
vn 0.949036 -0.205208 -0.239209
vn 0.949036 -0.205208 -0.239209
vn 0.949036 -0.205208 -0.239209
vn 0.894276 -0.316891 -0.315991
vn 0.894276 -0.316891 -0.315991
vn 0.894276 -0.316891 -0.315991
vn 0.941726 -0.126204 -0.311809
vn 0.941726 -0.126204 -0.311809
vn 0.941726 -0.126204 -0.311809
vn -0.204510 -0.977750 0.046702
vn -0.204510 -0.977750 0.046702
vn -0.204510 -0.977750 0.046702
vn -0.096200 -0.992995 -0.068600
vn -0.096200 -0.992995 -0.068600
vn -0.096200 -0.992995 -0.068600
vn -0.071798 -0.981966 -0.174894
vn -0.071798 -0.981966 -0.174894
vn -0.071798 -0.981966 -0.174894
vn 0.069602 -0.341709 -0.937225
vn 0.069602 -0.341709 -0.937225
vn 0.069602 -0.341709 -0.937225
vn 0.420692 -0.720485 -0.551289
vn 0.420692 -0.720485 -0.551289
vn 0.420692 -0.720485 -0.551289
vn 0.478592 -0.719687 -0.502991
vn 0.478592 -0.719687 -0.502991
vn 0.478592 -0.719687 -0.502991
vn 0.561394 -0.789891 -0.246797
vn 0.561394 -0.789891 -0.246797
vn 0.561394 -0.789891 -0.246797
vn 0.174209 -0.968650 0.177109
vn 0.174209 -0.968650 0.177109
vn 0.174209 -0.968650 0.177109
vn 0.997893 -0.015900 -0.062900
vn 0.997893 -0.015900 -0.062900
vn 0.997893 -0.015900 -0.062900
vn -0.724901 -0.632101 -0.273800
vn -0.724901 -0.632101 -0.273800
vn -0.724901 -0.632101 -0.273800
vn -0.561086 0.094198 -0.822380
vn -0.561086 0.094198 -0.822380
vn -0.561086 0.094198 -0.822380
vn -0.491870 0.226286 -0.840749
vn -0.491870 0.226286 -0.840749
vn -0.491870 0.226286 -0.840749
vn -0.579338 0.119008 -0.806353
vn -0.579338 0.119008 -0.806353
vn -0.579338 0.119008 -0.806353
vn -0.261596 -0.745690 -0.612792
vn -0.261596 -0.745690 -0.612792
vn -0.261596 -0.745690 -0.612792
vn -0.566703 0.096901 -0.818204
vn -0.566703 0.096901 -0.818204
vn -0.566703 0.096901 -0.818204
vn 0.097601 0.263502 -0.959709
vn 0.097601 0.263502 -0.959709
vn 0.097601 0.263502 -0.959709
vn -0.519734 0.202613 -0.829954
vn -0.519734 0.202613 -0.829954
vn -0.519734 0.202613 -0.829954
vn 0.137002 0.180902 -0.973912
vn 0.137002 0.180902 -0.973912
vn 0.137002 0.180902 -0.973912
vn -0.439195 0.572694 -0.692192
vn -0.439195 0.572694 -0.692192
vn -0.439195 0.572694 -0.692192
vn -0.194408 0.260711 -0.945640
vn -0.194408 0.260711 -0.945640
vn -0.194408 0.260711 -0.945640
vn -0.252703 -0.062701 -0.965510
vn -0.252703 -0.062701 -0.965510
vn -0.252703 -0.062701 -0.965510
vn -0.291110 -0.299410 -0.908630
vn -0.291110 -0.299410 -0.908630
vn -0.291110 -0.299410 -0.908630
vn -0.565262 0.091294 -0.819844
vn -0.565262 0.091294 -0.819844
vn -0.565262 0.091294 -0.819844
vn 0.090599 0.724594 -0.683195
vn 0.090599 0.724594 -0.683195
vn 0.090599 0.724594 -0.683195
vn -0.525888 0.206995 -0.824982
vn -0.525888 0.206995 -0.824982
vn -0.525888 0.206995 -0.824982
vn -0.054603 0.996149 0.068603
vn -0.054603 0.996149 0.068603
vn -0.054603 0.996149 0.068603
vn -0.514782 0.259291 -0.817171
vn -0.514782 0.259291 -0.817171
vn -0.514782 0.259291 -0.817171
vn 0.146598 0.985084 0.090099
vn 0.146598 0.985084 0.090099
vn 0.146598 0.985084 0.090099
vn 0.282306 0.921621 0.266306
vn 0.282306 0.921621 0.266306
vn 0.282306 0.921621 0.266306
vn -0.499518 0.193007 -0.844530
vn -0.499518 0.193007 -0.844530
vn -0.499518 0.193007 -0.844530
vn 0.757791 0.002700 -0.652492
vn 0.757791 0.002700 -0.652492
vn 0.757791 0.002700 -0.652492
vn -0.519734 0.202613 -0.829954
vn -0.519734 0.202613 -0.829954
vn -0.519734 0.202613 -0.829954
vn 0.163393 0.865463 -0.473579
vn 0.163393 0.865463 -0.473579
vn 0.163393 0.865463 -0.473579
vn 0.624720 0.542917 -0.561218
vn 0.624720 0.542917 -0.561218
vn 0.624720 0.542917 -0.561218
vn 0.703498 0.033700 -0.709898
vn 0.703498 0.033700 -0.709898
vn 0.703498 0.033700 -0.709898
vn 0.220198 0.677494 -0.701794
vn 0.220198 0.677494 -0.701794
vn 0.220198 0.677494 -0.701794
vn -0.141399 0.703593 -0.696393
vn -0.141399 0.703593 -0.696393
vn -0.141399 0.703593 -0.696393
vn 0.208305 0.974925 -0.078302
vn 0.208305 0.974925 -0.078302
vn 0.208305 0.974925 -0.078302
vn -0.525888 0.206995 -0.824982
vn -0.525888 0.206995 -0.824982
vn -0.525888 0.206995 -0.824982
vn 0.345193 0.044399 0.937481
vn 0.345193 0.044399 0.937481
vn 0.345193 0.044399 0.937481
vn 0.292806 -0.276506 0.915319
vn 0.292806 -0.276506 0.915319
vn 0.292806 -0.276506 0.915319
vn 0.069299 0.947090 0.313397
vn 0.069299 0.947090 0.313397
vn 0.069299 0.947090 0.313397
vn 0.069301 0.947120 0.313307
vn 0.069301 0.947120 0.313307
vn 0.069301 0.947120 0.313307
vn -0.940000 0.113900 0.321600
vn -0.940000 0.113900 0.321600
vn -0.940000 0.113900 0.321600
vn -0.474717 0.600221 0.643723
vn -0.474717 0.600221 0.643723
vn -0.474717 0.600221 0.643723
vn -0.411896 0.069299 0.908592
vn -0.411896 0.069299 0.908592
vn -0.411896 0.069299 0.908592
vn 0.292806 -0.276506 0.915319
vn 0.292806 -0.276506 0.915319
vn 0.292806 -0.276506 0.915319
vn 0.669237 -0.612534 0.420623
vn 0.669237 -0.612534 0.420623
vn 0.669237 -0.612534 0.420623
vn 0.237408 -0.115404 0.964531
vn 0.237408 -0.115404 0.964531
vn 0.237408 -0.115404 0.964531
vn 0.941726 -0.126204 -0.311809
vn 0.941726 -0.126204 -0.311809
vn 0.941726 -0.126204 -0.311809
vn -0.050401 -0.955423 0.290907
vn -0.050401 -0.955423 0.290907
vn -0.050401 -0.955423 0.290907
vn 0.502871 0.039698 0.863450
vn 0.502871 0.039698 0.863450
vn 0.502871 0.039698 0.863450
vn 0.997893 -0.015900 -0.062900
vn 0.997893 -0.015900 -0.062900
vn 0.997893 -0.015900 -0.062900
vn 0.804889 -0.555292 0.209297
vn 0.804889 -0.555292 0.209297
vn 0.804889 -0.555292 0.209297
vn 0.598762 -0.539065 0.592362
vn 0.598762 -0.539065 0.592362
vn 0.598762 -0.539065 0.592362
vn 0.364208 -0.911120 0.192904
vn 0.364208 -0.911120 0.192904
vn 0.364208 -0.911120 0.192904
vn 0.237408 -0.115404 0.964531
vn 0.237408 -0.115404 0.964531
vn 0.237408 -0.115404 0.964531
s off
g rock23
usemtl standardSurface1SG
f 4/1/1 1/2/2 2/3/3
f 34/4/4 70/5/5 69/6/6
f 34/7/7 68/8/8 35/9/9
f 73/10/10 4/1/11 48/11/12
f 7/12/13 73/13/14 48/14/15
f 43/15/16 2/3/17 8/16/18
f 46/17/19 6/18/20 5/19/21
f 47/20/22 5/19/23 7/12/24
f 43/15/25 42/21/26 2/3/27
f 4/1/28 71/22/29 1/2/30
f 43/15/31 9/23/32 44/24/33
f 42/21/34 4/1/35 2/3/36
f 44/24/37 6/25/38 45/26/39
f 10/27/40 9/23/41 8/16/42
f 10/27/43 6/25/44 9/23/45
f 16/28/46 10/29/47 11/30/48
f 14/31/49 11/32/50 10/27/51
f 12/33/52 13/34/53 10/35/54
f 12/33/55 10/35/56 15/36/57
f 13/34/58 6/18/59 10/35/60
f 14/31/61 10/27/62 8/16/63
f 16/28/64 15/37/65 10/29/66
f 12/38/67 56/39/68 55/40/69
f 62/41/70 12/33/71 63/42/72
f 51/43/73 18/44/74 52/45/75
f 55/46/76 17/47/77 12/48/78
f 51/43/79 11/30/80 19/49/81
f 16/28/82 56/39/83 15/37/84
f 25/50/85 60/51/86 24/52/87
f 12/38/88 15/37/89 56/39/90
f 18/53/91 19/54/92 22/55/93
f 21/56/94 20/57/95 19/49/96
f 19/58/97 20/59/98 22/60/99
f 21/56/100 19/49/101 11/30/102
f 24/61/103 22/62/104 20/63/105
f 23/64/106 18/44/107 22/65/108
f 24/52/109 23/66/110 22/67/111
f 26/68/112 8/69/113 24/61/114
f 68/8/115 3/70/116 35/9/117
f 70/5/118 1/71/119 66/72/120
f 58/73/121 23/64/122 59/74/123
f 13/75/124 61/76/125 25/50/126
f 24/61/127 21/77/128 26/68/129
f 24/61/130 20/63/131 21/77/132
f 26/68/133 27/78/134 8/69/135
f 26/79/136 21/80/137 28/81/138
f 28/82/139 27/83/140 26/84/141
f 21/85/142 29/86/143 28/87/144
f 29/88/145 14/31/146 28/89/147
f 27/90/148 28/89/149 14/31/150
f 29/88/151 11/32/152 14/31/153
f 11/30/154 29/91/155 21/56/156
f 27/90/157 14/31/158 8/16/159
f 60/51/160 23/66/161 24/52/162
f 32/92/163 2/93/164 33/94/165
f 34/4/166 2/93/167 70/5/168
f 38/95/169 5/96/170 13/75/171
f 30/97/172 35/9/173 3/70/174
f 32/92/175 24/61/176 8/69/177
f 38/95/178 25/50/179 39/98/180
f 37/99/181 30/97/182 5/96/183
f 3/70/184 7/100/185 30/97/186
f 5/96/187 30/97/188 7/100/189
f 17/101/190 65/102/191 64/103/192
f 62/41/193 13/34/194 12/33/195
f 63/42/196 17/104/197 64/105/198
f 5/19/199 6/18/200 13/34/201
f 3/70/202 31/106/203 7/100/204
f 76/107/205 31/108/206 3/109/207
f 73/10/208 72/110/209 4/1/210
f 33/94/211 35/111/212 37/112/213
f 39/98/214 24/52/215 40/113/216
f 32/92/217 8/69/218 2/93/219
f 34/4/220 33/94/221 2/93/222
f 38/95/223 37/99/224 5/96/225
f 30/97/226 36/114/227 35/9/228
f 32/92/229 40/115/230 24/61/231
f 38/95/232 13/75/233 25/50/234
f 37/99/235 36/114/236 30/97/237
f 40/116/238 32/117/239 38/118/240
f 32/92/241 33/94/242 37/112/243
f 40/113/244 38/95/245 39/98/246
f 33/119/247 34/120/248 35/121/249
f 35/111/250 36/122/251 37/112/252
f 37/112/253 38/123/254 32/92/255
f 39/98/256 25/50/257 24/52/258
f 46/124/259 43/15/260 45/26/261
f 48/11/262 4/1/263 41/125/264
f 46/17/265 45/126/266 6/18/267
f 47/20/268 46/17/269 5/19/270
f 48/14/271 47/20/272 7/12/273
f 43/15/274 8/16/275 9/23/276
f 42/21/277 41/125/278 4/1/279
f 44/24/280 9/23/281 6/25/282
f 48/127/283 41/128/284 47/129/285
f 41/125/286 42/21/287 46/124/288
f 47/20/289 41/130/290 46/17/291
f 42/21/292 43/15/293 46/124/294
f 43/15/295 44/24/296 45/26/297
f 74/131/298 31/132/299 75/133/300
f 53/134/301 54/135/302 55/46/303
f 50/136/304 16/28/305 11/30/306
f 17/101/307 54/137/308 53/138/309
f 51/43/310 19/49/311 18/44/312
f 55/46/313 54/135/314 17/47/315
f 51/43/316 50/136/317 11/30/318
f 16/28/319 49/139/320 56/39/321
f 58/73/322 52/45/323 18/44/324
f 56/39/325 49/139/326 55/40/327
f 49/139/328 50/136/329 55/40/330
f 50/136/331 51/43/332 55/40/333
f 51/43/334 52/45/335 55/40/336
f 52/45/337 53/138/338 55/40/339
f 50/136/340 49/139/341 16/28/342
f 63/140/343 57/141/344 61/142/345
f 57/143/346 53/138/347 52/45/348
f 25/50/349 61/76/350 60/51/351
f 58/73/352 18/44/353 23/64/354
f 13/75/355 62/144/356 61/76/357
f 60/51/358 59/145/359 23/66/360
f 17/101/361 53/138/362 65/102/363
f 63/42/364 12/33/365 17/104/366
f 58/73/367 57/143/368 52/45/369
f 65/146/370 57/147/371 63/148/372
f 57/149/373 58/150/374 60/151/375
f 58/150/376 59/152/377 60/151/378
f 60/153/379 61/142/380 57/141/381
f 61/142/382 62/154/383 63/140/384
f 63/148/385 64/155/386 65/146/387
f 57/143/388 65/102/389 53/138/390
f 68/156/391 69/157/392 70/158/393
f 67/159/394 1/160/395 3/109/396
f 34/7/397 69/161/398 68/8/399
f 68/8/400 67/162/401 3/70/402
f 70/5/403 2/93/404 1/71/405
f 70/5/406 66/72/407 67/163/408
f 67/163/409 68/164/410 70/5/411
f 67/159/412 66/165/413 1/160/414
f 72/166/415 74/167/416 76/168/417
f 71/169/418 3/109/419 1/160/420
f 7/12/421 74/131/422 73/13/423
f 4/1/424 72/110/425 71/22/426
f 76/107/427 75/170/428 31/108/429
f 74/131/430 7/12/431 31/132/432
f 76/171/433 71/172/434 72/173/435
f 72/166/436 73/174/437 74/167/438
f 74/175/439 75/176/440 76/177/441
f 71/169/442 76/107/443 3/109/444
